<?xml version="1.0" encoding="utf-8"?>
<!-- Generator: Adobe Illustrator 24.2.0, SVG Export Plug-In . SVG Version: 6.00 Build 0)  -->
<svg version="1.1" id="Layer_1" xmlns="http://www.w3.org/2000/svg" xmlns:xlink="http://www.w3.org/1999/xlink" x="0px" y="0px"
	 viewBox="0 0 351.3 150.4" style="enable-background:new 0 0 351.3 150.4;" xml:space="preserve">
<style type="text/css">
	.st0{fill:#FFFFFF;}
</style>
<g>
	<path class="st0" d="M13.5,132.4V20.9h49.8c12.7,0,22.1,2.6,28.3,7.8c6.2,5.2,9.3,12.3,9.3,21.4v0.6c0,12.7-6.3,20.7-18.9,24
		c14.9,2.5,22.3,11.2,22.3,26.1v0.6c0,20.7-13.5,31-40.6,31H13.5z M44.7,65.2h12.2c5,0,8.5-0.9,10.6-2.7c2.1-1.8,3.1-4.7,3.1-8.7
		v-0.6c0-3.8-1.1-6.7-3.3-8.4c-2.2-1.8-5.7-2.7-10.5-2.7H44.7V65.2z M44.7,111h13.3c9.9,0,14.8-4.3,14.8-12.9v-0.6
		c0-8.5-5.3-12.8-15.8-12.8H44.7V111z"/>
	<path class="st0" d="M172.8,134.3c-17.8,0-32-5.2-42.6-15.8c-10.6-10.5-15.9-24.2-15.9-41.2v-1.2c0-16.7,5.6-30.4,16.8-41
		c11.2-10.6,25.2-15.8,42.2-15.8c17.3,0,31.4,5.1,42.5,15.2c11.1,10.1,16.6,23.7,16.6,40.8v1.2c0,17.3-5.4,31.2-16.3,41.8
		C205.2,129,190.7,134.3,172.8,134.3z M173.4,109.2c7.9,0,14.1-2.9,18.7-8.6C196.7,94.9,199,87,199,77v-1.2c0-9.9-2.3-17.6-6.9-23.2
		c-4.6-5.6-10.9-8.3-18.8-8.3c-7.9,0-14.1,2.8-18.7,8.3c-4.6,5.5-6.9,13.3-6.9,23.4v1.2c0,10,2.3,17.8,7,23.5
		C159.3,106.3,165.6,109.2,173.4,109.2z"/>
	<path class="st0" d="M231.2,132.4L265.7,75l-31.8-54.1h36.3l17.5,33.2l17.2-33.2h32.8l-30,53l34.5,58.5h-36.5L284.9,94l-20.7,38.4
		H231.2z"/>
</g>
</svg>
