<?xml version="1.0" encoding="utf-8"?>
<!-- Generator: Adobe Illustrator 24.2.0, SVG Export Plug-In . SVG Version: 6.00 Build 0)  -->
<svg version="1.1" id="Layer_1" xmlns="http://www.w3.org/2000/svg" xmlns:xlink="http://www.w3.org/1999/xlink" x="0px" y="0px"
	 viewBox="0 0 235.8 150.4" style="enable-background:new 0 0 235.8 150.4;" xml:space="preserve">
<style type="text/css">
	.st0{fill:#FFFFFF;stroke:#FFFFFF;stroke-miterlimit:10;}
	.st1{fill:none;stroke:#FFFFFF;stroke-width:6;stroke-miterlimit:10;}
</style>
<g>
	<path class="st0" d="M57.3,12.7l3.5,0.4l3.5,1.1l9.5,1.9l4.9,3.4l3.4,4.4l2.1,2.7l1.6,0.3l1.1-1.4l0.1-3.9l0.1-2.4l0.3-2.5l0.8-0.8
		l6.5-0.1l7.2-0.6l0.5,0.9l0.3,27.4l0.2,5.4l0.1,5.4l0.5,2.4l-0.9,1.1l-1.7,0L97,56.7L91.4,57l-3.5,0l-1-1.1l0-2.7l-1.3-3.6l0-0.6
		l-4.5-9.1l-2.9-4.1L75,33.2l-5.7-3.4l-5.4-1l-9.3,0.9l-4.2,1.5l-2.7,2.2l-4.4,3.8l-3.6,5.7L38,49l-1.2,3.2l-1.2,4.9l0,3.5L35.5,64
		l0.7,17.3l0.7,3.5l0,3.3l1.3,3.9l0,1.1l2.3,4.7l2.9,4.4l1.4,2l2.2,1.6l3.2,2.5l4.7,1.7l8.4-0.1l2.2-1.4l1.3,0l4.7-1.9l5-5.1
		l2.1-6.2l0.4-4.1l0.4-4.9l0-2.2L76,82.2l-11.5,0l-0.8-0.6l-0.1-7.9l-0.5-2.4l1.1-1.6l41.3-0.3l9-0.4l0.8,0.8l-0.4,4.4l0,2.2l1,4.7
		l-0.3,1.6l-0.6,0.8l-2.4,0l-1.1-0.9l1.6-1l0-0.6l-0.8-2l-1.4-1.1l-0.3,1l0.6,1.3l0,2l-3.5,0l-0.2-1.6l-1.7-0.1l-1.2,1.1l0,1.1
		l1.6,0.8l0,0.8l-0.8,2.1l0.1,9l0.3,8.5l0,2.5l1,2.7l-0.9,2.4l-0.2,6.3l0.6,1.4l0.8,3.5l-0.8,1l-14.3-0.2l-1-0.9l0.4-3.2l0.2-7.1
		l0.4-2.4l0.6-0.8l-0.2-2.4l-1.3-1.4l-1.1,1.1l0.8,0.8l0,0.8l-7.8,8.3l-3.4,2.6l-5.8,3.1l-1.1,0l-2.5,1.1l-6.6,1.2l-0.3-0.3
		l-5.7,1.3l-4.9,0.1l-3.2-0.6l-6-0.7l-2.8-0.4l-4.4-1.7l-1.9-0.8l-2.2-0.8l-2.9-1.7l-2.9-1.4l-3.8-3l-7-7.3L11.9,99L8,92.9l-0.8-3.5
		l-1.3-3l-0.4-7.2l-0.7-2.4l0.2-8.7l0.5-1.6l1.9-2.7l-1.8-1.7l-0.1-5L6.2,55L7.4,50l0.4-2.2l4.6-8.9l1.4-3l4.3-6.5l2.2-1.1l4.7-5.9
		l9.1-4.7l4.1-1.6l4.7-1.5l3.5-0.7l6.9-0.4l2.2-1.3l0.9,0.1L57.3,12.7z M9,90.8l0.6,0l0.2-0.6l-0.9,0L9,90.8z M16.2,86.3l1.1,1.6
		l0.8,0l0.3-1.1l-1-1.6l-1.3,0L16.2,86.3z M18.6,83.3l0.2,1.3l0,1.1l1.7,0.3l1.4-3l-1-0.6l-1.6,0L18.6,83.3z M19.5,77l-0.3,1.1
		l1,0.9l1.1-0.5l-0.3-1.4l-0.6,0L19.5,77z M21.2,100.9l-0.3,1.6l-0.1,1.7l1.1,1.9l2.1,1.2l0.5,1.4l2.1,1.4l3.9-0.4l0.3,0.9l1.1,0
		l1.1-1.1l-0.5-3.1l-0.5-1.1l-0.9,0l-1.1,1.6l-0.8,0l0-0.9l1.9-2.9l0-0.9l-0.9-0.3l-2,1.6l-2.8,0l0.5,0.9l-0.5,0.6l-1.9-1.1l0-2.7
		l-0.2-0.8l-0.5-0.8l-0.8,0L21.2,100.9z M64.7,113.2l-0.5,1.1l0.6,0.6l1.1-0.5l-0.2-0.5l0-0.6l-0.6,0L64.7,113.2z M73.7,111.7
		l-0.8,0.3l-0.6,1.1l1.3,2.2l2.2,1.2l0.6-0.2l0.8-2.1l-0.5-0.9l-1.3,0.8l-1-0.5l0.3-1.1l-0.6-1.1l-0.3,0L73.7,111.7z M75.4,107.6
		l0,1.1l-1.4,1.9l0.6,0.6l1.7-1.3l0-1.1l1.4-1.4l-0.5-0.6l-1.1,0L75.4,107.6z M81.1,85.1l0.2,0.9l0,0.9l0.9,0l1.2-1.7L83,84.2
		l-1.1,0L81.1,85.1z M81.9,96l0.3,0.3l0.6-0.3l0-0.6l-0.5,0L81.9,96z M83.6,80.2l0,0.2l0.6,0l0.6-1.6l0-0.6l-0.5,0L83.6,80.2z
		 M87,95.3l-0.8,1l-0.9,0l0-0.6l-0.8,0l-0.8,1.3l0,0.3l1.3,0l1.3,0.8l2.4-1.1l-0.2-0.8l-0.2-0.6l-0.6-0.2L87,95.3z M85.4,27.9
		l-0.8,0.8l0.5,1.7l-0.6,2.2l0,1.4l1.1,0.5l-0.5,1.7l1,2.4l1.3,0l0.8-1l0.9,0l0-1.9l-0.8-1.6l-1.6-0.6l-0.3-2.4l0.5-0.6l0-1.4
		l-0.6-0.6L85.4,27.9z M85.4,102.1l1.1,1.9l0.4,4.1l1.3,0.3l1.7-1.8l-1.9-1.9l0-2.8l-1-1.9l-0.8,0L85.4,102.1z M86.1,40.9l0,0.9
		l1.1,1.4l1.3-0.2l0.1-0.8l0.2-0.6l-1.4-1.6l-0.5,0L86.1,40.9z M88.2,83.3l-1.4,2.4l1.1,2l0.9,0.3l1.1-1l1.1,0l0-3.5l-1.3-1.1
		l-0.6,0L88.2,83.3z M87.8,77.2l-0.5,0.5l0,1.1l0.8,0.5l1.3-0.5l-0.2-0.6l0-0.8l-0.8,0L87.8,77.2z M87.8,45.6l0.8,1.4l-0.5,1.7
		l0.5,1.1l0.8,0l1.4-1.4l0-1.1L89.8,47l0-2l-0.5-1.1l-1.1,0L87.8,45.6z M88.1,92.8l0,1.9l1.4,0l0.3-0.9l-0.8-1.3l-0.5,0L88.1,92.8z
		 M88.2,99.6l1.4,1.2l0.6-1.3l0-0.3L89,98.1l-0.8,0L88.2,99.6z M88.4,89.3l0.5,0.6l0.6,0l0-1.3l-0.6,0L88.4,89.3z M89.5,29.4l0,1.3
		l1.3,0.6l0.8-0.6l0.8-2.4l-0.8-0.8l-0.9,0L89.5,29.4z M91.9,36.3l-0.8,2.5l-1.6,0l0.3,1.4l0.2,1.6l0.5,1.6l1.7,0.1l0,1.3l2.2,2.3
		l1.2-1.1l0-2.4l0.6-0.8l-0.8-0.9l-0.8,0.5l0,1.4l-0.9,0l-1.1-1.1l0.7-4.1l0.5-2.1l-0.3-0.9l-0.6,0L91.9,36.3z M90.3,72.7l0,1.6
		l0.6,1.7l0.9-0.8l0-2l-0.5-0.9l-0.8,0L90.3,72.7z M90.5,96.4l0,1.4l1.1,0l0.8,0.9l-0.8,2.1l-0.6,2.4l0.8,0.8l1.6-0.6l1.1-3.5
		l-0.8-2.2l-1-2.4l-1.1-0.3l-0.2,0L90.5,96.4z M93,30.5l-0.5,1.1l1.1,1.1l1.6,0l-0.8-1.9l-0.8-0.1L93,30.5z M94.4,93.8l0.8,1.4
		l1.3,0l0-1.4L95.7,93l-0.8,0L94.4,93.8z M95.5,89.9l0.7,1.9l1.3,0.6l0.6-0.6l0.1-1.7l0-1.6l-0.6-0.8l-1.4,0L95.5,89.9z M95.5,108.8
		l1.1,1.6l0.6,0l0-1.4l-0.8-0.8l-0.5,0L95.5,108.8z M96,79l-0.5,1l0.5,1.7l1.4-0.3l0-2.2l-0.8,0L96,79z M95.6,39.7l0.6,0.6l0.8-1
		l-0.3-0.6l-0.6,0L95.6,39.7z M96.3,101l1,1.2l0,0.9l1.8,1.9l0-0.9l0.2-0.8l-1.3-1.4l0-0.8L97,99.6l-0.8,0L96.3,101z M96.3,37.2
		l0.6,0.3l0.6-0.6l-0.3-1.3l-0.9,0L96.3,37.2z M96.7,111.3l-0.3,0.5l0,2.5l0.9-1.1l0-1.4l-0.3-0.3L96.7,111.3z M97.2,76.1l-0.3,1.1
		l0,1.1l1.4,0.1l0.4,4.3l1.3,1.4l1.1-0.3l0-1.6l1.2-1.1l0-1.3l-1.4,0.3l-0.8-0.3l0-1.3l1.6-0.8l-0.2-1.3l-2.8,0L98,76.3L97.2,76.1z
		 M98.7,107.2l0.5,0.9l0.6,0l0-1.6l-0.6-0.3L98.7,107.2z M100,94.5l0.9,0l0-0.9l-0.9,0L100,94.5z"/>
	<path class="st0" d="M187.9,13.5l2.2-0.3l5.5,0.7l11.4,3.8l1.9,2.2l4,1.8l6.5,6.4l4.2,5.5l2.2,3.3l2.1,2.8l1.5,5l2.3,5.3l0.2,2.2
		l1,6.3l0.6,8.4l-0.4,6.6l-0.4,5.7l-0.6,2.1l-0.8,2.1l-0.1,2.1l-0.3,2.2l-1.8,4l-2,5.4l-4.2,6.5l-1.4,2.4l-5.9,5.3l-3.7,4.3l-3,1.1
		l-6.3,2.9l-2.8,1.9l-2,0l-2.1-1.9l-1.7,0.8l1.6,1.7l-6.9,1.5l-4.7,0.5l-14.5-0.2l-2.8-0.6l-2.7,0l-3.2-1.5l-3.8-1.5l-4-1.2
		l-4.4-2.3l-4.5-3.4l-5.6-5.3l-3.5-4.8l-1.8-2l-1.5-4.1l-3.7-5.8l0-1.6l-1.1-2.7l-0.7-2.5l-1.2-4.7l-0.8-16.9l0.9-6.6l1.6-8.8
		l0.3-1.3l4-8.2l3.3-5.1l7.5-8.6l3.6-2.6l0.5,0l1.6-1.3l4.2-2.9l3,0l2.2-1.6l7.1-2.3l10.9-1.7l10.7,0.2L187.9,13.5z M128.1,55.5
		l-0.4,3.5l0,3.3l0.5,1.6l2-1.4l-0.3-2.7l-0.8-0.5l0-4.4l-0.5,0L128.1,55.5z M127.9,65.9l0,1.4l1.3,2.4l0.5,1.7l0.9,0l3-2.2
		l-2.2-2.2l-1.4,0l-1.3-0.9l-0.2,0L127.9,65.9z M129.4,50.1l-0.5,1.1l0.5,0.3l1.1-0.6l-0.2-0.6l-0.5-0.2L129.4,50.1z M129.7,71.8
		l-0.5,1.1l0.5,0.3l0.5-0.5l-0.2-0.5L129.7,71.8z M130,88.4l0.6,0.8l1.4-0.8l1.3,0.3l0-1.1l-0.8-0.8l-2,0L130,88.4z M130,91.1
		l0.6,0.6l1.4-0.5l0-1.6l-1.6,0L130,91.1z M130.3,54.8l0.3,0.8l1.6-1.4l-0.8-0.9l-0.6,0L130.3,54.8z M130.3,59.8l1.1,0.9l1.4,0
		l0-1.4l-1.9-0.5l-0.3,0L130.3,59.8z M132.2,43.1l-1.4,1.4l0.5,1.1l1.9,0.1l0,1.3l-2.4,0.3l-0.2,0.6l-0.2,0.8l3.5,0l1.1,1.2l0.9,0
		l0.8-0.8l0-1.4l-1.4-0.6l-0.5-3.3l-1.4-0.6L132.2,43.1z M132.6,82l0,1.6l0.8,0.6l1.7-1.3l0-1.1l-0.8-0.8l-0.8,0L132.6,82z
		 M135.8,51.9l-1.1,1.3l-1.6,0l-0.3,0.5l0.2,2l0.3,2l1.9,0.3l-0.2,0.6l0,0.6l-0.1,3l2.5,0.3l1.9-0.5l-0.5-0.9l0-1.1l-1.1-1.2
		l0.3-0.2l2-1.1l0,0.9l1.6,1.6l1.3,1.9l2.5,0.8l0.6-0.5l0.6-2.2l-0.3-0.6l-0.9,1.4l-1.4-0.3l0.1-2.5l-0.6-0.5l0-1.7l-0.8-1.1
		l-2.2,1.9l-1.6-1.2l-2.9-2l-0.2-0.8L135.8,51.9z M134.4,39l-0.9,1.1l0,1.1l0.8,0.3l1.4-0.8l-0.2-1.6L135,39L134.4,39z M134.5,66.9
		l-0.8,2.1l2.1,2.2l1,0.5l1.6-1.7l0-1.3l-2.9-2.8L134.5,66.9z M135.8,44.5l0.8,0.5l0.9-0.8l-0.5-0.5l-0.5,0L135.8,44.5z M136.5,93.8
		l-0.5,1l1,1.2l0.6,1.3l1.6,0.3l0.8-1.1l0-3.8l-1.3-1.2l-0.6,0L136.5,93.8z M136.7,76.6l0.7,2l1.6,0l0.1-1.4l-1.1-1.6l-0.8,0
		L136.7,76.6z M137.2,100.1l0.5,0.6l1.4-0.5l0-1.1l-1.6,0L137.2,100.1z M141.3,41.1l-1.6,0.2l-1.1,1.7l1.3,2.7l-0.8,2.2l2.4,1.9
		l0.3,1.7l-0.6,0.3l-0.8-0.9l-0.5,0l0,1.3l0.2,1.1l1.1,0.1l1.4-0.3l1.1-2.5l0-1.1l1.1-2.2l-1.3-3.6l0.9-3.6l-0.3-0.8l-0.5,0
		L141.3,41.1z M149.6,62.6l-4.9,2.4l-1.1,0l0,0.8l-0.1,0.8l-1.6,0.2l-1.4-1.9l-1.1,0.8l0,2.2l2.1,0.1l1.1,1.2l2-1l1.1-1.4l1.6-1.1
		l3.3-0.8l0.5-1l-1.1-1.2l0.8-1l-0.8-0.9l-0.6,0L149.6,62.6z M140.3,32.9l0,1.1l1.3,0.5l0.9-0.8l0-0.8l-1-0.5l-0.9,0L140.3,32.9z
		 M140.7,71.1l0.3,1.3l0.9,0.1l0.8-0.6l-0.3-1.6l-0.9,0L140.7,71.1z M151,92.7l-0.8,0.3l0,1.1l-1.9,3.5l-0.9-0.3l-1.1,1l-2.8-0.3
		l-0.6,0.6l-0.3,1.3l-0.1,1.4l1.3,0l2.3-2.2l2,0l0.5-0.8l0.8,2l0.9,0l0.9-1.4l-0.2-2.2l0-2.4l0.6-1.1l-0.3-0.3L151,92.7z
		 M142.5,90.5l0.3,0.9l0.6,0l0-1.6l-0.6-0.3L142.5,90.5z M143.4,83.2l-0.3,0.8l0.5,0.9l1.6-0.8l0-0.5l-0.2-0.6l-0.9,0.2L143.4,83.2z
		 M176.8,16.3l-5.7-0.3l-0.6,0.5l-6.9-0.4l-1.4,0.8l-1.9,0.5l-1.2,2.9l-0.3,0l-0.5-0.6l-1.3,0l-2.2-0.8l-2.7,1.9l0,0.8l-1.1,1l-2,0
		l-0.3,0.6l-2,0l-0.8,1l0.3,1.6l-2,0l0.3,1.9l0.2,1.4l-1.3,0.8l0,1.3l1.9,0l1,1.9l0.6,0l0,1.6l-2.4,1.3l-0.2,0.6l0,0.8l0.9,0l1.9-1
		l0.3,0.6l-0.3,4.7l0.8,0.9l1.1,0l0,0.8l-0.8,0.3l-0.1,3.2l0.6,1.4l0.6,0l1.1,0.8l-0.8,1.7l1.1,1.9l0,1.3l1.4,0.5l1.4-1.7l-0.8-4.4
		l1.6-1.3l1,0.6l-0.6,6.9L154.6,69l0.4,5.7l0.7,8.5l1,4.7l1.3,5.7l1.5,3.5l1.4,2l1.9,2.8l2.6,3.6l0.6,0l5.7,2.1l0.8,0.8l4.4,0.7
		l4.9,0.4l3.9-1l1.3,0l3-1.9l2.7-0.8l2.5-3.5l1.4,0l0.6-0.6l2.5-1.4l-0.4-5.5l0.6-1.6L201,89l0.6-6l0.4-5.7l0.1-2.8l0-3.2l0.6-2.4
		l-0.3-2.7L201.5,51l-1.5-5.7l-1.1-2.2l0-0.5l-2.7-6.1l-3-3.9l-1-2l-7.6-3.1l-2.8-0.6l-2.2-1.2l-5.7,0.9l-1.9,0.2l-2.4,1.3l-1.9,0
		l-2.7,2.4l-2.7,1.9l-0.8,1.4l-1.4,1.9l-0.5,1.9l-2.5,5.1l-0.6,2.8l-0.9,0l-0.5-2.5l-0.2-2.8l1.6-2.1l0-1.3l0.6-0.5l0-1.3l-1.2,1.4
		l-0.2-0.2l-0.8-2l0.3-1.1l0.9,0l1.3,0.8l1.9-1.6l0.5-1.9l0.6-2.8l0.5-0.5l2.1,0.3l0,0.8l0.5,0.3l1.5-3.2l0.3-1.4l1.1-0.8l1.9,0.8
		l0.5-0.8l0.6-1.6l2.8-0.2l1.4,2.8l1.6,0.5l0.6-0.5l0-3.5l1.1-1.1l0.9,0l0,1.7l-0.1,2.8l0.8,0l1.1-1.1l-0.7-3l1.2-2.1l0.3-1.7
		l-1.3-1.6l-0.5,0L176.8,16.3z M143.9,106l0,1.9l1.4,0.6l1.1-0.8l0.1-2.1l-0.8-0.8l-0.6,0L143.9,106z M147,66.9l-0.8,0.8l0,1.6
		l0.6,0l-0.3,1.7l-0.3,2.4l-1.6,1.9l0,1.9l0.6,1.7l2.2,2l0.2-0.5l0.2-0.3l1.2-3.8l0-2.8l-0.2-2.5l-1.8-1.9l0.8-1.1l-0.5-0.5
		L147,66.9z M145.7,52.6l0,0.5l1.4-0.2l0.1-0.8l0-0.9l-1.3,0L145.7,52.6z M146.3,103.5l0.9,0l0.9-0.5l-0.3-0.5l-1.3,0L146.3,103.5z
		 M148.6,25.1l1.1,3.8l-0.3,0.6l-1.4,0l0-4.3l0.9-2.1l0.8,0.8L148.6,25.1z M148.6,91l-0.3,0.6l0.3,0.6l0.9,0l0-0.5l-0.2-0.5
		l-0.3-0.2L148.6,91z M150.7,31.2l0,0.8l-0.9,0.8l-0.8-0.6l1.2-1.3l0.2,0.2L150.7,31.2z M149.8,56.2l-0.8,1.3l0.8,1.1l1.6,0.1
		l1.9-2.2l-0.6-1.1l-1.6-0.5l0-0.6l-1.3,0L149.8,56.2z M149.6,80.9l-0.5,0.5l0,2.2l1,1.3l0.4,3.6l-0.6,0.3l0,0.9l1,0.9l0.6,0
		l0.3-2.8l0.4-2.7l-2.1-2.3l0.3-0.6l1.6,0l-0.2-1.1l-1.1-0.1L149.6,80.9z M149.7,70.2l0,1.3l1.3,0l0.3-0.8l-0.6-0.8l-0.5,0
		L149.7,70.2z M152.8,107.2l0.5,1.1l1.3,0l0.5-1.3l-0.8-0.9l-0.9,0L152.8,107.2z M154,92.5l0,1.1l0.8-0.3l0-0.6l-0.5,0L154,92.5z
		 M154.1,101.2l1.1-0.2l-0.2-0.6l-0.9-0.3L154.1,101.2z M155.7,111.9l-0.5,1.1l0.6,1.1l0.6,0.2l0-1.1l-0.5-0.6L155.7,111.9z
		 M157.2,24.6l0.2,0.6l0.2,1.3l0.3,1.7l-2.4,0l0.5-1.7l0.3-1.9l0.2-0.8l0.6,0L157.2,24.6z M157.7,110.5l0,0.8l0.8,0.3l0.8-0.8l0-1.1
		l-0.8,0L157.7,110.5z M164.5,112.6l0,0.9l0.8,1.1l1.4-0.6l0-1.3l-0.5-0.9l-1.1,0L164.5,112.6z M175.1,113.1l-1.1,2.5l0.6,0.6l2-1
		l0.2,0.8l1.3,0l0.3-0.9l0-2.5l-1.1,0L175.1,113.1z M174.5,117.1l1,4.1l0.8,0.3l0-2.8l0.6-0.3l0-1.4l-1-0.5l-0.5,0L174.5,117.1z
		 M181.4,17.7l0,1.4l1.8,4.2l0.3,2.2l1.7,0.1l1.7-1.9l1.1,0l1,1.6l0,1.6l1.1,0.9l2-0.3l0.8,0.9l2,0l0.5-1.6l1.4,0.9l1.4-2.5l0-0.3
		l-2.1-1.9l0.3-0.9l1.3,0l1.4-1l0-1.4l-1.4-1.7l-4.9,0.2l-0.8,1.1l-2.7-0.9l-0.5-0.9l-1.6-0.6l-1.3-1.1l-1.4-0.1l-1.6-0.3
		L181.4,17.7z M181.6,116.5l1,0.8l0.5-0.5l-0.5-0.9l-0.9,0L181.6,116.5z M183.8,117.9l-0.3,2.8l1.9,0l0.6-2.4l0-1.6l-1.1,0
		L183.8,117.9z M184,111.3l0,1.1l1.3,0.6l1.1,1.7l2.2,2.2l1.2-1.9l-0.3-1.3l-0.6,0.2l-0.9,0.3l-0.5-2.2l-1.4,0l-1.1-1.2l-0.5,0
		L184,111.3z M189.3,20.3l-1.1,0l-1.1-0.9l0-0.9l1.3,0.9l1.1-0.6l0.3,0.3L189.3,20.3z M190.2,110.8l-0.8,1l0.3,0.9l1.1-0.2l0-1.6
		l-0.3-0.2L190.2,110.8z M191.5,112.9l-0.5,0.6l0.5,0.6l1.3,0l-0.3-1.1l-0.5-0.2L191.5,112.9z M193.5,22.7l-0.9,0.8l-1-0.5l0-1.1
		l0.8-0.8l1.1,0L193.5,22.7z M194.2,30.3l0.3,1.1l1.1,0.3l0.5-0.8l-0.6-1.6l-0.9,0L194.2,30.3z M199.5,103.4l-1.1,0.8l-0.8,1.9
		l0,1.3l0.8,1.4l-0.5,0.8l-1.9-0.8l-1.1,0.8l0,0.9l0.9,0l1.4,1.6l0.9,0l0-0.9l2.4,0l0.6-0.8l0.5-1.6l-0.5-1.4l-1.7,0l0-0.6l0.8-0.5
		l0.4-2.7l-0.5-1.3l-0.8,0L199.5,103.4z M198.8,31l-0.5,1.4l0.4,4.4l0.2,0.2l0,0.3l1.1,0l1.9,3.3l1.4,0.1l0,0.5l-0.9,1.3l0,2.4
		l1.3,1.2l0.9-0.8l0-1.3l0.6-1l1.1,0l0.1-1.4l3.5-1.8l-0.3-0.8l-0.3-2.4l-1-3l-0.9-0.3l0-1.7l-0.6-1.3l-0.6,0l-0.3,1.3l-1.7,0.2
		l-0.3,1.9l1.3,1.2l-0.1,2.7l-0.9,0.8l-1-0.8l-1.1-2.8l-1.9-0.3l0.3-1.4l3-1.5l0-1.4l-1.3-1.1l-0.8,0L198.8,31z M200,27.4l0.6,0.6
		l0.8,0l0.5-0.5l-0.5-1.1l-1.1,0L200,27.4z M201.5,22.7l-0.5,1l0.5,1.1l1.1-0.3l0-1.6l-0.6,0L201.5,22.7z M201.5,19.7l0,1.1l1.3,0.3
		l0.9-0.6l0-0.6l-1.1-0.9l-0.3,0L201.5,19.7z M202.8,93.9l0.8,1.6l0,2.5l-0.9,1.3l0.3,2.4l-1.2,2.1l1.3,1.1l1.6-1.1l-0.2-1.4l0-1.4
		l1.9-1.1l0.1-1.4l0.8-1.1l0.8-2.4l-0.5-1.3l-0.5,0l-1.9,1.8L204,95l-0.2-1.1l0-0.9l-0.6,0L202.8,93.9z M202.3,110.1l0.8,1.9
		l0.6-0.2l0.8-1.1l-0.8-1.6l-0.9,0L202.3,110.1z M205.8,41.1l-0.8,0.5l-1.1-0.5l0-0.6l0.3-0.3l1.1,0L205.8,41.1z M212.9,42.4
		l-0.4,2.2l-0.9,2.8l0,1.4l-0.1,1.4l-0.8,1.7l0,1.6l-0.6,0.3l0,1.6l-1.6,1.6l0,1.1l-0.6,1l-1.6-1.1l-1.3,0l-0.1,0.8l0.2,0.5l0,0.5
		l-0.6,4.4l0.3,0.8l1,0.5l0.9-0.8L207,62l1.4-2.4l2.5,0.3l1.7-1.8l1.4,0.3l1.6-1.8l-0.5-0.9l-0.6,0l-0.8,1.6l-0.8,0l-1.6-3.6
		l0.8-0.5l2.1,0.3l2.2-0.8l1.4,1.4l-0.8,1.3l-0.9,3l1.7,0.6l2.1,0.3l1.8,1.4l-0.8,1.1l-1.3-1.4l-0.9,0.5l0,1.1l-0.9,2.4l0.2,0.8
		l0,0.9l2.5-0.3l0,1.6l-1.8,4l0.3,0.8l1.4,0.5l0.5,2l0.2,0.9l-1.2,1.1l-0.8-0.3l0.6-1.9l-1-0.6l-1.9,0l-2,1.1l0.3,1.9l0.2,0.6l0,0.6
		l-2.2,0l-0.6,2.1l1.3,0.9l-0.5,1l-0.5,0l-0.8-1.6l-0.8,0.2l-0.1,1.4l-1.1-0.1l0-0.8l0.2-0.6l-1-1.6l0.3-1.3l1.3,0l0.3,0.6l1.4-0.5
		l0.8-1l0-2l-0.6,0l0.3-1.6l-1-0.9l-2.2,1.3l0,0.9l-1.6,1.8l-0.6-0.9l0-2l1.1-1l-0.8-1.4l-0.6-1.7l-1.3,0L205,72l0.2,2.7l0.3,2.4
		l0.3,1.7l-1.3,0L204,80l0,1.1l1.6,1.4l0.3,2.2l0,0.5l-0.2,0.6l-1.4,0.2l0.4,3.9l1.1,0.8l0.9,0l0.8,0.9l0.6-0.3l-0.3-2l-0.2-3.6
		l-0.2-3.8l1.3,0l0.5,2l1.7,0.8l3.5-0.7l0.6,0.3l0,1.9l0.8,1.3l-0.9,1l-1.6-0.1l-0.5-1.9l0.3,2.2l0.2,2.2l0,0.6l-1.4-0.1l-2,2.4
		l-0.5,1.3l1.3,1.4l-0.6,1.3l0,1.4l1.3,0l0-3.3l1.9-1.1l0-1.7l1.1,0l1.3,1.6l0.8,0l0.8,1.1l1.1-2.7l-0.7-2.5l0.8-1.9l-1.3-0.9
		l-0.6,0l0.1-3.2l0.3-0.5l1.6,0.9l1.1-1l-0.5-1.9l0.9-1.9l0-0.6l0.2-0.6l0.6,1.4l1.3-0.2l0.6-1.1l-1-2.2l0.1-2.4l0.1-2.7l-1.7,0
		l-0.6-1.3l0.5-1.4l1.7-0.3l0.6-6.8l-0.6-1.1l0.8-0.8l0-4.1l0.1-3.9l-0.6-0.3l-1.6,1l0,3.5l-0.6,1.6l-0.8,0l-0.5-0.9l0-3.9l-0.8-2.5
		l-1.6-0.5l-0.8-4.2l0-2.4l-1.6-0.6l0-0.6l-0.6,0L212.9,42.4z M205.9,22.3l-0.9,0.8l0,1.7l-0.9,1l0,0.9l1.3,0l1.4-1.4l-0.6-1.4
		l0.3-1.3l-0.2-0.2L205.9,22.3z M206.1,43.3l0,2.4l-2,0.8l0.5,1.4l1,0.8l2.4-0.7l0.5-0.6l0.3-2.8l-0.8-0.9l-0.9-0.1L206.1,43.3z
		 M204.2,51.2l0.7,2.4l1.3,0.1l2-2.2l0-1.3l-1.4-1.2l-0.9,0L204.2,51.2z M208.3,100l0,2.5l-1.7,0.6l0.7,3l0.9,0.1l1.4-1.1l0.6-3
		l0-2.5l-1.4,0L208.3,100z M206.9,55.9l0,0.9l0.9,0l-0.2-0.8l-0.5,0L206.9,55.9z M209.8,27.1l0,1.1l-1.2,2.2l0.3,2.7l0.3,0.6
		l1.6-1.4l0-1.4l2-0.5l0.1-2.2l-0.2-1.9l0-0.5l-1.6,0L209.8,27.1z M210.4,60.9l-0.9,1.4l-0.9,2.5l0.6,1.3l0.9,0l0.3-1.9l1.7-1.4
		l-1-1.6l-0.3-0.2L210.4,60.9z M211.7,35.8l-0.3,0.8l0.3,0.6l0.9,0l0-0.6l-0.2-0.5l-0.3-0.2L211.7,35.8z M212.6,67.8l-1.1,1.3l0,0.9
		l0.2,0.9l1.4,0.1l2.2-2.4l0-0.5l-1.3,0l0,0.8l-0.6,0.5l-0.6-0.6L212.6,67.8z M214.1,94.7l-0.6,0.5l-0.3,1.9l-0.1,1.7l0.8,1.7
		l-1.4,1.4l0.3,0.8l0.8,0l1.4-1.4l0.9-2.5l0-2.4l-0.8-1.6l-0.5,0L214.1,94.7z M213.9,33.9l1.1,0.8l1.3-0.2l0.1-1.1l0-1.1l-0.8,0
		l-1.7-1.2l-0.3,0L213.9,33.9z M214.4,62.6l-0.3,1.4l-0.1,1.6l1,1.1l1.6-0.6l0.8-2.5l-0.8-1.4l-1.9,0L214.4,62.6z M214.3,38.8l0,1.3
		l1.1,1.6l0.5,0l0.9-1.6l-0.6-1.6l-1.1,0L214.3,38.8z M215.9,102.3l-0.3,1.1l0.3,0.3l0.8-0.6l-0.3-0.5L215.9,102.3z M215.9,37l0,1.1
		l1.3,0l0.9-1.6l-0.3-0.9l-0.8,0L215.9,37z M217.6,77.7l0,2.8l-0.6,0.3l0-1.7l-0.3-2.4l1.1-0.3l0.5,0L217.6,77.7z M218.1,38.1
		l0.5,2.7l1.4,0.1l0.6-1l-0.8-2.2l-1-0.6L218.1,38.1z M218.9,41.9l-0.5,0.3l0,0.6l0.9,0l0-0.6l-0.2-0.2L218.9,41.9z M223.5,43.4
		l-1.9,0L220,45l-0.3,1.7l1,3.5l1.1,0.1l1.3,0.6l1.1,0.3l0.8,2.5l-0.4,2.5l0.5,0l2.5-0.7l0.8,1.1l0.1-1.1l-0.6-0.3l0-1.1l-1.8-1.7
		l0-2.4l0.6-2.5l-0.8-0.6l0-4.6l-0.6-1.6l-0.9,0L223.5,43.4z M220.3,84.4l0,2.8l-0.1,2.8l0.8-0.3l1.1-1.9l0.4-3.2l-1.1-1.1l-0.5,0
		L220.3,84.4z M220.6,38.4l0,1.4l1.9-2.2l0-0.5l-0.3-0.9l-0.5,0L220.6,38.4z M224.5,46.7l0,0.9l-1.1,1.1l-0.8-0.3l0-0.9l1.1-2.1
		l0.5,0.6L224.5,46.7z M223.2,70.3l0,1.7l-0.1,2.1l1.1,0.8l1.1-0.8l-0.2-0.8l0.1-3.6l-1.3-0.6L223.2,70.3z M223.1,91.8l0.3,0.5
		l0.6-0.5l0-0.9l-0.6,0L223.1,91.8z M226.7,60.4l-1.6,2.4l-1.1,3l0,0.9l3,2.5l0-0.5l2.2-2.5l0.8,0l0.6-1.1l-1.1-2.5l-1.1-0.5
		l-0.5-1.6l-0.6,0L226.7,60.4z M225.9,80.4l0.2,3.2l-1.2,1.1l0.3,1.9l-0.8,1.3l0.6,0.9l0.8-1.3l0-0.8l2.6-3.2l-0.7-2l1.2-2.1
		l-1.4-2.2l-1.7,0L225.9,80.4z M225.7,74.4l0.8,0.9l0.9,0l0-1.6l-1.3,0L225.7,74.4z M227.5,51.1l-0.5,1.1l0.5,0.5l0.6-0.8l-0.3-0.3
		L227.5,51.1z M229.2,57.5l-1.1,2.4l0.6,0.9l0.8,0.3l0.6-1.7l-0.2-1.6l-0.5-0.2L229.2,57.5z"/>
</g>
<line class="st1" x1="15.3" y1="137.9" x2="230.3" y2="137.9"/>
</svg>
