<svg version="1.1" viewBox="0.0 0.0 100.0 208.03937007874015" fill="none" stroke="none" stroke-linecap="square" stroke-miterlimit="10" xmlns:xlink="http://www.w3.org/1999/xlink" xmlns="http://www.w3.org/2000/svg"><clipPath id="p.0"><path d="m0 0l100.0 0l0 208.03937l-100.0 0l0 -208.03937z" clip-rule="nonzero"/></clipPath><g clip-path="url(#p.0)"><path fill="#000000" fill-opacity="0.0" d="m0 0l100.0 0l0 208.03937l-100.0 0z" fill-rule="evenodd"/><path fill="#ffffff" d="m38.283466 13.398958l0 0c0 -5.3749914 4.3572884 -9.732284 9.732281 -9.732284l0 0c2.5811615 0 5.0566063 1.0253627 6.8817635 2.85052c1.8251572 1.8251572 2.850521 4.300601 2.850521 6.8817635l0 0c0 5.3749924 -4.357292 9.732283 -9.732285 9.732283l0 0c-5.3749924 0 -9.732281 -4.3572903 -9.732281 -9.732283z" fill-rule="evenodd"/><path fill="#ffffff" d="m38.283466 46.17068l0 0c0 -5.3749886 4.3572884 -9.732281 9.732281 -9.732281l0 0c2.5811615 0 5.0566063 1.0253601 6.8817635 2.8505173c1.8251572 1.8251572 2.850521 4.300602 2.850521 6.8817635l0 0c0 5.3749924 -4.357292 9.732285 -9.732285 9.732285l0 0c-5.3749924 0 -9.732281 -4.357292 -9.732281 -9.732285z" fill-rule="evenodd"/><path fill="#ffffff" d="m38.283466 78.942406l0 0c0 -5.3749924 4.3572884 -9.732285 9.732281 -9.732285l0 0c2.5811615 0 5.0566063 1.0253677 6.8817635 2.850525c1.8251572 1.8251572 2.850521 4.300598 2.850521 6.8817596l0 0c0 5.3749924 -4.357292 9.732285 -9.732285 9.732285l0 0c-5.3749924 0 -9.732281 -4.357292 -9.732281 -9.732285z" fill-rule="evenodd"/><path fill="#ffffff" d="m38.283466 111.714134l0 0c0 -5.3749924 4.3572884 -9.732285 9.732281 -9.732285l0 0c2.5811615 0 5.0566063 1.0253601 6.8817635 2.8505173c1.8251572 1.8251572 2.850521 4.300606 2.850521 6.8817673l0 0c0 5.3749847 -4.357292 9.732277 -9.732285 9.732277l0 0c-5.3749924 0 -9.732281 -4.357292 -9.732281 -9.732277z" fill-rule="evenodd"/><path fill="#ffffff" d="m38.283466 144.48586l0 0c0 -5.3749847 4.3572884 -9.732285 9.732281 -9.732285l0 0c2.5811615 0 5.0566063 1.0253601 6.8817635 2.850525c1.8251572 1.8251495 2.850521 4.300598 2.850521 6.8817596l0 0c0 5.3749847 -4.357292 9.732285 -9.732285 9.732285l0 0c-5.3749924 0 -9.732281 -4.3573 -9.732281 -9.732285z" fill-rule="evenodd"/><path fill="#000000" fill-opacity="0.0" d="m9.725323 158.67146c6.6646004 7.081192 27.231007 42.591278 39.987602 42.487137c12.756596 -0.104141235 30.459972 -35.92668 36.55196 -43.112015" fill-rule="evenodd"/><path stroke="#ffffff" stroke-width="8.0" stroke-linejoin="round" stroke-linecap="butt" d="m9.725323 158.67146c6.6646004 7.081192 27.231007 42.591278 39.987602 42.487137c12.756596 -0.104141235 30.459972 -35.92668 36.55196 -43.112015" fill-rule="evenodd"/></g></svg>
