<?xml version="1.0" encoding="utf-8"?>
<!-- Generator: Adobe Illustrator 24.2.0, SVG Export Plug-In . SVG Version: 6.00 Build 0)  -->
<svg version="1.1" id="Layer_1" xmlns="http://www.w3.org/2000/svg" xmlns:xlink="http://www.w3.org/1999/xlink" x="0px" y="0px"
	 viewBox="0 0 182.6 176" style="enable-background:new 0 0 182.6 176;" xml:space="preserve">
<style type="text/css">
	.st0{opacity:0.85;}
	.st1{fill:#FFFFFF;}
	.st2{opacity:0.57;enable-background:new    ;}
</style>
<g>
	<g>
		<g>
			<g>
				<g class="st0">
					<g>
						<path class="st1" d="M146.3,65.2c0.4,0.8,0.7,1.6,1,2.4c-0.2-0.4-0.3-0.8-0.4-1.2C146.7,65.8,146.5,65.5,146.3,65.2z"/>
						<path class="st1" d="M148.3,69.7c0.1,0.1,0.1,0.3,0.2,0.4c0.1,0.1,0.1,0.2,0.2,0.4L148.3,69.7z"/>
						<path class="st1" d="M150.2,73.8c-0.3-0.7-0.6-1.4-0.9-2.1C149.5,72.4,149.8,73,150.2,73.8z"/>
						<path class="st1" d="M148.8,70.5c0.1,0.3,0.1,0.4-0.1,0l0,0c0.2,0.4,0.4,0.8,0.6,1.2C149.1,71.3,148.9,70.9,148.8,70.5z"/>
						<path class="st1" d="M148.8,70.5c-0.1-0.3-0.2-0.7-0.3-0.8C148.6,70,148.7,70.2,148.8,70.5z"/>
						<path class="st1" d="M150,71.2c0.2,0.4-0.1,0.4,0.4,1.2c0.9,1.9,1.7,3.5,2.5,5.3c0.4,0.8,0.7,2.2,1.1,3
							c0.9,1.9,3.4,6.7,2.1,3.8c-2-4.4-3.3-7.2-5-11.1c-0.7-1.6-1.5-3.1-2.2-4.7c-0.4-0.8-0.7-1.6-1.1-2.4c-0.4-0.8-0.7-1.6-1.2-2.4
							c-0.5-0.9-1-1.7-1.6-2.5c0.8,1,1.5,2.1,2,3.4C147.6,66.7,148.8,68.6,150,71.2z"/>
						<path class="st1" d="M130.8,57.6c0.4-0.2,1.3-0.3,1.3-0.3c2-0.1,4.1-0.1,6.1,0.5c-0.3-0.1-0.6-0.3-0.9-0.4
							c-0.6-0.1-0.9-0.2-1-0.2c-0.1,0,0.2,0.1,0.7,0.2c-2.3-0.7-4.8-0.6-7,0.1C130.1,57.6,130.1,57.7,130.8,57.6z"/>
						<path class="st1" d="M128.7,58.1c0.4-0.2,0.9-0.3,1.3-0.5c0,0,0,0-0.1,0C129.5,57.8,129,58,128.7,58.1L128.7,58.1z"/>
						<path class="st1" d="M154.2,82.5c1.2,2.8,2.4,5.4,3.5,8c0.6,1.3,1.1,2.6,1.7,3.9c0.6,1.3,1.2,2.5,1.5,3.9
							c0.1,0.4,0.3,0.7,0.4,1.2c0,0.4,0.1,0.9,0.1,1.3l0.1,1.2l-0.1,1.2c0,0.3-0.1,0.6-0.1,0.8c0,0,0,0,0,0c0,0.4,0,0.3,0.1,0.1
							c0.1-0.3,0.1-0.6,0.2-0.8c0,0.2-0.1,0.6-0.2,0.8c-0.1,0.4-0.2,0.8-0.3,1.3c-0.1,0.4-0.2,0.7-0.3,1.1c-0.1,0.4-0.2,0.7-0.4,1.1
							c0.2-0.4,0.3-0.8,0.4-1.2c0.1-0.4,0.2-0.7,0.3-1c0.1-0.5,0.2-0.9,0.2-1.3c0-0.1,0-0.3,0-0.4c-0.2,1.8-0.8,3.6-1.7,5.1
							c-0.2,0.4-0.4,0.7-0.6,1c-0.7,1.1-1.6,2.1-2.3,2.5c-0.2,0.2-0.5,0.4-0.8,0.6l0.2-0.1c-0.1,0.1-0.2,0.2-0.3,0.2
							c-1.1,0.8-2.3,1.4-3.6,1.9c-0.8,0.4-1.6,0.8-2.5,1.2c0,0-0.6,0.2-0.9,0.3c-0.3,0.2-0.8,0.5-1.4,0.7c0.7-0.2,1.4-0.5,2-0.6
							c0.9-0.3,1.8-1.1,2.9-1.3c-1.1,0.2-2,1-2.9,1.3c-0.6,0.2-1.3,0.4-2,0.6c-1.2,0.6-2.8,1.2-4.1,1.7c1.5-0.8,2.9-1.3,4.1-1.7
							c0.6-0.3,1.1-0.5,1.4-0.7c0.3-0.1,0.9-0.3,0.9-0.3c0.8-0.4,1.7-0.8,2.5-1.2c-2.5,1.1-5,2.2-7.6,3.3
							c-16.6,7.2-31.9,13.8-49.1,21.2c-9.3,4-18.3,7.8-27.1,11.5c-8.8,3.7-17.1,7.4-25.5,11l-3.1,1.4l-1.6,0.7
							c-0.5,0.2-1.1,0.5-1.5,0.6c-2,0.7-4.2,0.9-6.3,0.6c-2.1-0.3-4.1-1.3-5.8-2.6c-1.7-1.4-3-3.1-3.7-5.2
							c-2.8-6.9-8.4-19.4-11.3-25.9c-4.2-8.6-3.2-3.6-3-3.2c1.6,5.7,3.8,9.7,8.2,20.9c-1.5-3.8-0.8-2.5,0.7,0.7
							c0.7,1.6,1.6,3.6,2.5,5.8c0.4,1.1,0.9,2.1,1.3,3.2c0.2,0.5,0.4,1.1,0.7,1.5c0.3,0.5,0.5,1,0.8,1.4c1.6,2.5,4.5,4.7,7.9,5.6
							c1.7,0.5,3.6,0.6,5.5,0.4c0.5-0.1,0.9-0.1,1.4-0.2c0.5-0.1,0.9-0.2,1.4-0.4c0.5-0.2,0.9-0.3,1.4-0.5l1.2-0.5
							c6.5-2.9,13.2-6,19.5-8.6c3.2-1.3,6.5-2.8,10.3-4.5c19.6-8.3,37.6-16.5,58.1-25.5c5.4-2.4,10.1-4.7,14.7-6.8
							c3.3-1.5,6.9-3,9.7-4.1c1.1-0.5,2.1-0.9,3.2-1.5c0.5-0.3,1-0.6,1.5-0.9c0.4-0.4,0.9-0.7,1.3-1.1c1.6-1.5,2.8-3.3,3.6-5.2
							c-0.9,2.1-2.1,3.8-3.6,5.2c-0.4,0.4-0.8,0.7-1.2,1c-0.4,0.3-0.9,0.6-1.4,0.9c-0.5,0.3-1,0.5-1.5,0.8c-0.5,0.2-1,0.5-1.6,0.7
							c-1.5,0.6-1,0.4,0.1-0.2c0.5-0.3,1.2-0.6,1.9-1c0.3-0.2,0.7-0.4,1-0.6c0.3-0.2,0.6-0.4,0.8-0.6c0.4-0.3,0.9-0.6,1.4-1
							c0.5-0.4,1-0.8,1.3-1.1c1.4-1.6,2.3-3.3,3-5.4c0.3-0.9,0.4-0.8,0.5-1.2c0.3-1.5,0.3-2.9,0.2-4.1c0-0.3-0.1-0.6-0.1-0.9
							c-0.1-0.3-0.1-0.5-0.2-0.8c-0.1-0.5-0.2-1-0.3-1.5c-0.2-0.7-0.4-1.4-0.6-2c-0.2-0.6-0.5-1.2-0.7-1.7c-0.3-0.7-0.6-1.4-0.9-2.2
							c-0.2-0.5-0.5-0.9-0.7-1.4c0.1,0.4,0.1,0.6,0.1,0.8c-0.3-0.7-0.7-1.7-1-2.4c0.3,0.7,0.7,1.7,1,2.4c0-0.2,0-0.3-0.1-0.8
							c-1.6-3.4-3.5-7.4-5.3-11.1l0,0.1c1,2.2,1.9,4.3,2.7,6.6c-0.4-1-0.3-0.9,0.2,0.2c0.1,0.3,0.2,0.6,0.3,0.9
							c-0.9-1.9-1.8-3.8-2.5-5.7c0,0-0.4-0.8-0.6-1.2c-0.2-0.6-0.2-0.6-0.2-0.8c-0.2-0.4-0.4-0.8-0.6-1.3
							C153.1,79.6,154.2,82.5,154.2,82.5z"/>
						<path class="st1" d="M161.1,105.5c0.1-0.3,0.2-0.7,0.2-1.1c-0.3,1.5-0.8,3-1.5,4.3c0.3-0.3,0.5-0.8,0.7-1.4
							C160.8,106.7,161,106.1,161.1,105.5z"/>
					</g>
				</g>
			</g>
		</g>
	</g>
</g>
<g>
	<g>
		<g>
			<g>
				<g class="st0">
					<g>
						<path class="st1" d="M162.2,102.4c0.3,0.6,0.5,1.2,0.8,1.9c-0.1-0.3-0.2-0.6-0.3-1C162.5,102.9,162.4,102.7,162.2,102.4z"/>
						<path class="st1" d="M163.6,106c0,0.1,0.1,0.2,0.1,0.3c0,0.1,0.1,0.2,0.1,0.3L163.6,106z"/>
						<path class="st1" d="M163.9,109.3c0-0.3,0.1-0.6,0.1-0.9c0-0.3,0-0.6,0-0.8C164,108.1,164,108.6,163.9,109.3z"/>
						<path class="st1" d="M163.9,106.6c0,0.2,0,0.3-0.1,0c0,0,0,0,0,0c0.1,0.3,0.1,0.7,0.2,1C163.9,107.2,163.9,106.9,163.9,106.6z
							"/>
						<path class="st1" d="M163.9,106.6c0-0.2-0.1-0.5-0.1-0.6C163.8,106.2,163.9,106.4,163.9,106.6z"/>
						<path class="st1" d="M164.9,107.4c0.1,0.4-0.2,0.3-0.1,1c0,1.7-0.3,3.2-1.1,4.7c-0.3,0.7-1.2,1.5-1.7,2
							c-0.5,0.7-1.7,1.7-2.5,2.3c-0.8,0.6-1.2,0.9,0,0.2c1.7-1,2.9-2.2,3.8-3.5c0.9-1.3,1.5-2.8,1.7-4.6c0.1-1.5-0.1-2.9-0.6-4.2
							c-0.5-1.3-1.1-2.5-1.7-3.8c-0.3-0.7-0.6-1.4-0.8-2.1c0.3,0.9,0.7,1.8,1,2.8c0.2,0.7,0.6,1.4,1,2.2
							C164.2,105.2,164.7,106.2,164.9,107.4z"/>
						<path class="st1" d="M156.7,88.6c0.2,0.3,0.5,0.9,0.5,0.9c0.4,1.5,1.1,3,1.8,4.5c-0.1-0.2-0.1-0.5-0.2-0.7
							c-0.4-0.9-0.5-0.9-0.2-0.1c-0.6-1.8-1.3-3.5-2-5.2C156.6,88.1,156.5,88.1,156.7,88.6z"/>
						<path class="st1" d="M156.2,86.9c0.1,0.3,0.3,0.7,0.4,1c0,0,0,0,0,0C156.5,87.6,156.3,87.2,156.2,86.9L156.2,86.9z"/>
						<path class="st1" d="M160.6,115.6c-1.8,1.5-4,2.3-6,3.2c-2,0.9-4,1.7-6,2.6c-0.3,0.2-0.5,0.3-0.9,0.5c-0.3,0.1-0.6,0.2-1,0.3
							c-0.6,0.2-1.2,0.5-1.7,0.7c-0.2,0.1-0.4,0.2-0.6,0.3c0,0,0,0,0,0c-0.3,0.2-0.2,0.2,0,0.1c0.2-0.1,0.4-0.1,0.6-0.2
							c-0.1,0-0.4,0.1-0.6,0.2c-0.3,0.1-0.6,0.2-1,0.3c-0.5,0.2-1.1,0.5-1.6,0.7c0.6-0.3,1.2-0.5,1.6-0.7c0.3-0.2,0.6-0.3,1-0.5
							c0.1,0,0.2-0.1,0.3-0.1c-1.3,0.6-2.6,1.1-3.9,1.7c-0.3,0.1-0.6,0.3-0.8,0.4c-0.9,0.4-1.9,0.9-2.5,1c-0.2,0.1-0.5,0.2-0.7,0.3
							l0.1,0c-0.1,0-0.2,0.1-0.3,0.1c-1,0.4-2,0.8-3,1.3c-0.6,0.3-1.3,0.7-1.9,1c0,0-0.5,0.1-0.7,0.2c-0.2,0.2-0.6,0.4-1.1,0.6
							c0.6-0.2,1.1-0.3,1.6-0.5c0.7-0.2,1.4-0.9,2.3-1c-0.9,0.1-1.6,0.8-2.3,1c-0.5,0.1-1,0.3-1.6,0.5c-0.9,0.4-2.1,0.9-3.2,1.3
							c1.2-0.6,2.2-1,3.2-1.3c0.4-0.2,0.8-0.4,1.1-0.6c0.2-0.1,0.7-0.2,0.7-0.2c0.6-0.3,1.3-0.7,1.9-1c-1.9,0.8-3.9,1.7-5.9,2.5
							c-12.9,5.6-24.8,10.7-38.2,16.5c-7.3,3.1-14.2,6-21.1,8.9c-6.8,2.8-13.3,5.7-19.9,8.5c-3.3,1.4-6.5,2.8-9.9,4.2
							c-0.9,0.4-1.6,0.7-2.4,0.9c-0.8,0.3-1.6,0.4-2.5,0.5c-1.7,0.2-3.4,0.1-5-0.4c-1.2-0.4-2.6-1-3.5-2.2c-0.5-0.6-0.8-1.1-1.2-2.2
							c-0.4-0.9-0.8-1.9-1.2-2.8c-1.6-3.7-3.2-7.5-4.3-10c-3.3-6.7-2.7-2.7-2.6-2.4c1,4.5,2.8,7.6,6,16.4c-1.1-3-0.5-2,0.6,0.5
							c0.6,1.4,1.9,2.8,3.6,3.7c1.7,0.9,3.6,1.4,5.2,1.6c1.1,0.1,2.4,0.1,3.7,0c1.3-0.2,2.6-0.5,3.8-1.1c2.4-1,4.8-2,7.3-3.2
							c5-2.2,10.3-4.7,15.2-6.7c2.5-1,5.1-2.2,8-3.5c15.3-6.4,29.2-12.9,45.2-19.8c4.2-1.9,7.8-3.7,11.4-5.4
							c2.6-1.2,5.4-2.3,7.5-3.2c3.3-1.5,6.1-2.8,8.8-4.1c-3,1.4-5.3,2.4-8.7,3.9c-2.3,1,1.5-1,2.9-1.7c0.6-0.3,1.7-0.5,2.4-0.9
							c1.4-0.6,2.6-1.3,4.1-2c0.6-0.3,0.6-0.1,1-0.2c2-0.9,3.5-1.9,4.8-2.4c1-0.4,1.9-0.8,2.8-1.1c0.6-0.2,1.1-0.5,1.7-0.7
							c0.4-0.2,0.7-0.4,1.1-0.5c-0.3,0.1-0.5,0-0.6,0c0.5-0.2,1.3-0.5,1.9-0.7c-0.5,0.2-1.3,0.5-1.9,0.7c0.1,0,0.3,0.1,0.6,0
							c1.3-0.7,2.7-1.3,4.2-2.1c1.4-0.8,2.7-1.9,3.7-3.2l0,0c-1.2,1.5-2.7,2.6-4.5,3.3c0.8-0.3,0.7-0.2-0.1,0.2
							c-0.2,0.1-0.5,0.1-0.7,0.2c1.5-0.7,2.9-1.6,4.2-2.5c0,0,0.1-0.1,0.3-0.3c0.1-0.2,0.3-0.4,0.4-0.5c0.4-0.4,0.4-0.3,0.5-0.4
							c0.2-0.3,0.5-0.6,0.6-0.9c-0.3,0.3-0.8,0.9-1.3,1.4C161.1,115.3,160.6,115.6,160.6,115.6z"/>
						<path class="st1" d="M143.4,123.7c0.2-0.1,0.5-0.2,0.8-0.4c-1.1,0.5-2.2,0.9-3.3,1.4C141.6,124.6,142.5,124.1,143.4,123.7z"/>
					</g>
				</g>
			</g>
		</g>
	</g>
</g>
<g>
	<g>
		<g>
			<g>
				<g class="st0">
					<g>
						<path class="st1" d="M156.9,74.9l0.6-0.3c-0.1,0-0.2,0.1-0.3,0.1C157,74.7,157,74.8,156.9,74.9z"/>
						<path class="st1" d="M158.1,74.4c0,0,0.1,0,0.1,0l0.1-0.1L158.1,74.4z"/>
						<path class="st1" d="M159.2,73.9c-0.2,0.1-0.4,0.2-0.5,0.2C158.8,74.1,159,74,159.2,73.9z"/>
						<path class="st1" d="M158.3,74.2C158.4,74.2,158.4,74.2,158.3,74.2L158.3,74.2l0.3-0.1C158.5,74.1,158.4,74.2,158.3,74.2z"/>
						<path class="st1" d="M158.3,74.2c-0.1,0-0.2,0-0.2,0C158.1,74.2,158.2,74.2,158.3,74.2z"/>
						<path class="st1" d="M158.2,73.3c0.1-0.1,0.2,0.2,0.4,0c0.5-0.3,0.9-0.6,1.3-0.8c0.2-0.1,0.6,0,0.8-0.2
							c0.5-0.3,1.6-1.1,0.9-0.8c-1.1,0.5-1.8,0.9-2.9,1.4c-0.8,0.5-1.6,0.9-2.4,1.4c-0.2,0.1-0.5,0.2-0.7,0.3c0.3-0.1,0.6-0.2,1-0.3
							C157.1,74.1,157.6,73.6,158.2,73.3z"/>
						<path class="st1" d="M152.3,76.7c0.1-0.1,0.3-0.2,0.3-0.2c0.5-0.1,1-0.3,1.5-0.6l-0.3,0c-0.3,0.1-0.3,0.2,0,0.2
							c-0.6,0.1-1.2,0.3-1.8,0.6C152.1,76.7,152.1,76.8,152.3,76.7z"/>
						<path class="st1" d="M151.7,76.8c0.1-0.1,0.2-0.1,0.3-0.2l0,0C151.9,76.7,151.8,76.8,151.7,76.8L151.7,76.8z"/>
						<path class="st1" d="M161.4,72.7c1.4-0.6,2.8-1.2,4.1-1.8c0.1-0.1,0.1-0.2,0.3-0.2c0.1,0,0.2,0,0.3-0.1l0.6-0.2
							c0.1,0,0.1-0.1,0.2-0.1l0,0c0.1-0.1,0.1-0.1,0-0.1c-0.1,0-0.2,0-0.2,0c0.1,0,0.1,0,0.2,0c0.1,0,0.2,0,0.3-0.1
							c0.2-0.1,0.3-0.2,0.5-0.2c-0.2,0.1-0.4,0.2-0.5,0.2l-0.3,0.2l-0.1,0.1l1.3-0.5c0.1-0.1,0.2-0.1,0.3-0.1
							c0.3-0.2,0.6-0.3,0.8-0.3l0.2-0.1c0,0,0,0-0.1,0c0,0,0.1,0,0.1,0l1-0.4c0.2-0.1,0.4-0.3,0.6-0.4c0,0,0.2,0,0.3,0
							c0.1-0.1,0.2-0.2,0.3-0.3c-0.2,0-0.4,0-0.6,0c-0.3,0-0.4,0.4-0.8,0.3c0.3,0.1,0.5-0.4,0.8-0.3c0.2,0,0.4,0,0.6,0
							c0.3-0.2,0.7-0.3,1.1-0.3c-0.4,0.3-0.7,0.3-1.1,0.3c-0.1,0.1-0.3,0.2-0.3,0.3c-0.1,0-0.3,0-0.3,0c-0.2,0.1-0.4,0.3-0.6,0.4
							c0.7-0.3,1.3-0.5,2-0.8c1.1-0.4,2.2-0.9,3.2-1.3c0.5-0.2,1.1-0.5,1.5-0.6c0.5-0.1,1,0,1.4,0.2c0.4,0.2,0.7,0.6,0.9,1
							c0.2,0.5,0.5,1.1,0.7,1.6c0.4,1.1,1,2.2,1.4,3.2c0.1,0.5,0.1,1.1-0.1,1.5c-0.2,0.5-0.6,0.7-1.1,0.9c-1.2,0.5-2.4,0.9-3.5,1.3
							c-4.6,1.7-8.7,3.8-13.5,5.3c-1.8,0.6-5.1,2.1-6.8,2.9c-2.1,1.4-0.5,1.8-0.4,1.8c1.7,0.2,2.6-0.7,5.7-1.5
							c-2.1,0.6,1.2-1.1,3.3-1.4c3-0.3,6.5-2.6,9.8-3.9c0.8-0.3,1.7-0.7,2.7-1.1c0.6-0.2,1.3-0.5,1.9-0.7l0.9-0.4l1-0.4
							c1-0.5,1.8-1.5,2-2.5c0.1-0.5,0.1-1,0.1-1.6c0-0.3-0.1-0.5-0.2-0.8c-0.1-0.3-0.2-0.4-0.2-0.6c-0.6-1.2-1.2-2.5-1.7-3.7
							l-0.2-0.5c-0.1-0.1-0.2-0.4-0.3-0.6c-0.3-0.5-0.7-0.9-1.1-1.2c-0.9-0.6-2.1-0.8-3.1-0.6c-0.1,0-0.3,0.1-0.4,0.1l-0.2,0.1
							l-0.1,0.1l-0.5,0.2c-0.3,0.2-0.6,0.3-0.9,0.5c-0.6,0.3-1.2,0.7-1.8,1c-0.9,0.4-1.8,0.7-2.5,1c-1.1,0.5-2,1-2.9,1.5
							c1-0.5,1.7-0.9,2.9-1.4c0.8-0.3-0.4,0.5-0.9,0.8c-0.2,0.1-0.6,0-0.8,0.2c-0.5,0.2-0.9,0.5-1.3,0.8c-0.2,0.1-0.3-0.1-0.4,0
							c-0.7,0.4-1.1,0.9-1.5,1c-0.3,0.1-0.7,0.2-1,0.3c-0.2,0.1-0.4,0.1-0.6,0.2c-0.1,0.1-0.2,0.1-0.3,0.2c0.1,0,0.2,0.1,0.3,0.2
							c-0.2,0.1-0.5,0.1-0.6,0.2c0.2-0.1,0.5-0.1,0.6-0.2c-0.1-0.1-0.1-0.1-0.3-0.2c-0.8,0.5-1.8,1.1-2.8,1.6l0,0
							c0.6-0.3,1.1-0.5,1.8-0.6c-0.3,0.1-0.3,0,0-0.2l0.3,0c-0.5,0.3-1,0.6-1.5,0.6c0,0-0.2,0.1-0.3,0.2c-0.2,0-0.2,0-0.3-0.1
							c-0.1,0.1-0.2,0.1-0.3,0.2C160.5,72.8,161.4,72.7,161.4,72.7z"/>
						<path class="st1" d="M167.2,70.1c-0.1,0-0.2,0.1-0.3,0.1l1.1-0.5C167.8,69.8,167.5,69.9,167.2,70.1z"/>
					</g>
				</g>
			</g>
		</g>
	</g>
</g>
<g>
	<g>
		<g>
			<g>
				<g class="st0">
					<g>
						<path class="st1" d="M181.7,72.3l0.1,0.3c0-0.1,0-0.1,0-0.2C181.9,72.3,181.8,72.3,181.7,72.3z"/>
						<path class="st1" d="M182,72.9L182,72.9l0.1,0.1C182,73,182,73,182,72.9z"/>
						<path class="st1" d="M182.3,73.5c0-0.1-0.1-0.2-0.1-0.3C182.2,73.3,182.2,73.4,182.3,73.5z"/>
						<path class="st1" d="M182.1,73C182.1,73,182.1,73.1,182.1,73L182.1,73l0,0.2C182.1,73.1,182.1,73.1,182.1,73z"/>
						<path class="st1" d="M182.1,73c0,0,0-0.1,0-0.1C182.2,72.9,182.2,72.9,182.1,73z"/>
						<path class="st1" d="M183,72.8c0.1,0-0.2,0.1-0.1,0.2c0.2,0.2,0.4,0.4,0.5,0.7c0.1,0.1,0,0.4,0.1,0.6c0.2,0.3,0.4,1.4,0.5,0.8
							c0-0.5-0.1-0.9-0.3-1.2c-0.1-0.2-0.3-0.5-0.4-0.7c-0.3-0.4-0.6-0.8-0.9-1.2c-0.1-0.1-0.1-0.3-0.1-0.4c0,0.2,0.1,0.4,0.1,0.5
							C182.4,72.3,182.8,72.4,183,72.8z"/>
						<path class="st1" d="M180.8,69.8c0.1,0,0.2,0.1,0.2,0.1c0,0.3,0.1,0.6,0.3,0.8l0.1-0.2c-0.1-0.1-0.2-0.1-0.1,0
							c0-0.4-0.1-0.7-0.3-1C180.8,69.6,180.7,69.7,180.8,69.8z"/>
						<path class="st1" d="M180.8,69.4c0,0.1,0.1,0.1,0.1,0.2l0,0L180.8,69.4L180.8,69.4z"/>
						<path class="st1" d="M183,74.6c0.1,0.8-0.3,1.6-0.9,2.1c0,0.1,0,0.1-0.1,0.2c-0.1,0-0.1,0-0.2,0c-0.1,0.1-0.2,0.1-0.3,0.2
							l-0.1,0.1l0,0c0,0.1,0,0.1,0,0.1c0.1,0,0.1,0,0.1,0c0,0-0.1,0-0.1,0c-0.1,0-0.1,0-0.2,0c-0.1,0.1-0.2,0.1-0.3,0.1
							c0.1-0.1,0.2-0.1,0.3-0.1c0.1,0,0.1-0.1,0.2-0.1l0,0c-0.2,0.1-0.5,0.2-0.7,0.3c-0.1,0-0.1,0.1-0.1,0.1
							c-0.2,0.1-0.3,0.2-0.5,0.1l-0.1,0l0,0l-0.1,0l-0.5,0.2c-0.1,0.1-0.2,0.2-0.3,0.3c0,0-0.1,0-0.2-0.1c0,0.1-0.1,0.1-0.2,0.2
							c0.1,0,0.2,0.1,0.3,0.1c0.2,0.1,0.2-0.3,0.4-0.2c-0.2-0.1-0.2,0.3-0.4,0.2c-0.1,0-0.2,0-0.3-0.1c-0.2,0.1-0.4,0.2-0.6,0.1
							c0.2-0.2,0.4-0.2,0.6-0.1c0.1-0.1,0.1-0.1,0.2-0.2c0.1,0,0.2,0.1,0.2,0.1c0.1-0.1,0.2-0.2,0.3-0.3c-0.4,0.1-0.7,0.3-1.1,0.4
							c-2.4,0.9-4.5,1.8-7,2.8c-1.3,0.5-2.6,1-3.9,1.4c-2.6,0.8-4.7,2.1-7.4,2.6c-1,0.2-2.8,1.1-3.7,1.5c-1.1,0.9,0,1.6,0.1,1.6
							c1.1,0.5,1.5-0.2,3.2-0.4c-1.2,0.2,0.5-0.9,1.8-0.7c1.8,0.2,3.5-1.4,5.4-1.9c0.5-0.1,0.9-0.4,1.5-0.6c2.9-0.9,5.2-2.4,8.2-3.6
							c0.8-0.3,1.3-0.8,1.9-1.2c0.5-0.2,1-0.4,1.4-0.5c0.6-0.3,1.1-0.6,1.5-0.9c-0.5,0.3-0.9,0.5-1.5,0.8c-0.4,0.2,0.2-0.4,0.4-0.6
							c0.1-0.1,0.4,0.1,0.5,0c0.3-0.1,0.4-0.3,0.7-0.5c0.1-0.1,0.2,0.1,0.3,0.1c0.5-0.3,0.6-0.8,0.8-0.9c0.2-0.1,0.4-0.3,0.5-0.4
							c0.1-0.1,0.2-0.2,0.2-0.3c0-0.1,0.1-0.2,0.1-0.3c-0.1,0-0.2,0-0.3,0c0.1-0.1,0.2-0.2,0.2-0.3c-0.1,0.1-0.2,0.2-0.2,0.3
							c0.1,0,0.2,0,0.3,0c0.2-0.6,0.2-1.4-0.2-2l0,0c0.2,0.3,0.2,0.8,0,1.1c0.1-0.1,0.1-0.1,0.1,0.1c0,0-0.1,0.1-0.1,0.1
							c0-0.3,0-0.6,0.1-0.9c0,0-0.1-0.1-0.1-0.2c0-0.1,0.1-0.1,0.1-0.2c0-0.1-0.1-0.1-0.1-0.2C183,74.2,183,74.6,183,74.6z"/>
						<path class="st1" d="M181.3,77.3c0,0,0.1,0,0.1-0.1c-0.2,0.1-0.4,0.2-0.6,0.2C181,77.5,181.2,77.4,181.3,77.3z"/>
					</g>
				</g>
			</g>
		</g>
	</g>
</g>
<g>
	<g>
		<g>
			<g>
				<g class="st0">
					<g>
						<path class="st1" d="M172.2,71.2l-0.1,0.1c0,0,0.1,0,0.1,0C172.2,71.3,172.2,71.2,172.2,71.2z"/>
						<path class="st1" d="M171.9,71.3L171.9,71.3L171.9,71.3C171.9,71.4,171.9,71.3,171.9,71.3z"/>
						<path class="st1" d="M171.8,71.5C171.8,71.5,171.8,71.5,171.8,71.5C171.8,71.5,171.8,71.5,171.8,71.5z"/>
						<path class="st1" d="M172,71.5C171.9,71.4,171.9,71.4,172,71.5L172,71.5c-0.1-0.1-0.1,0-0.1,0C171.9,71.4,171.9,71.4,172,71.5
							z"/>
						<path class="st1" d="M172,71.5C172,71.5,172,71.5,172,71.5C172,71.5,172,71.5,172,71.5z"/>
						<path class="st1" d="M172.5,72.1c0,0-0.1-0.2-0.1-0.1c0,0.1,0,0.2,0,0.3c0,0.1-0.2-0.1-0.2,0c0,0.1,0.2,0.4,0.2,0.3
							c0-0.1,0.1-0.3,0.1-0.4c0-0.2,0.1-0.3,0.1-0.5c0,0,0.1,0,0.1,0c-0.1,0-0.1,0-0.2,0C172.4,71.7,172.5,72,172.5,72.1z"/>
						<path class="st1" d="M173.3,71C173.3,71,173.2,71.1,173.3,71c-0.2-0.1-0.3,0-0.4,0.1l0.1,0.1c0.1,0,0.1-0.1,0-0.1
							c0.2,0.1,0.3,0.1,0.4,0.1C173.3,71.1,173.3,71.1,173.3,71z"/>
						<path class="st1" d="M173.4,71.2C173.4,71.2,173.3,71.2,173.4,71.2L173.4,71.2L173.4,71.2L173.4,71.2z"/>
						<path class="st1" d="M171.6,72.1c-0.2,0.3-0.3,0.5-0.4,0.8c0,0,0.1,0.1,0.1,0.1c0,0-0.1,0-0.1,0.1l0,0.1c0,0,0,0,0,0l0,0
							c0,0,0.1,0,0.1,0c0,0,0.1,0,0.1,0c0,0-0.1,0-0.1,0c0,0-0.1,0-0.1,0.1c0,0,0,0.1,0,0.1c0,0,0-0.1,0-0.1c0,0,0,0,0-0.1l0,0
							c0,0.1,0,0.2,0,0.3c0,0,0,0,0,0.1c0,0.1,0.1,0.1,0,0.2l0,0.1l0,0l0,0c0,0.1,0,0.2,0,0.2c0.1,0,0.1,0.1,0.2,0.1
							c0,0-0.1,0.1-0.1,0.1c0.1,0,0.1,0,0.1,0c0-0.1,0.1-0.1,0.1-0.2c0.1-0.1-0.3,0-0.1-0.1c-0.2,0.1,0.2,0.1,0.1,0.1
							c0,0-0.1,0.1-0.1,0.2c0.1,0,0.1,0.1,0,0.3c-0.1,0-0.1-0.2,0-0.3c0,0-0.1,0-0.1,0c0,0,0.1-0.1,0.1-0.1c0,0-0.1-0.1-0.2-0.1
							c0,0.2,0.1,0.3,0.1,0.5c0.4,1,1.6,1.5,2.7,1.3c0.6-0.1,1.3-0.4,1.8-0.9c0.5-0.5,0.7-1.2,0.7-1.9c0-0.7-0.2-1.4-0.5-2.2
							c-0.1-0.3-0.5-0.6-0.9-0.8c-0.4-0.2-0.9-0.3-1.2-0.3c-0.4,0.1-0.5,0.5-0.5,0.8c0,0.3,0.1,0.6,0.1,0.6c0.1,0.4,0.2,0.6,0.3,0.6
							c0.1,0.1,0.3,0.1,0.3,0.5c0-0.2,0.1-0.3,0.2-0.2c0.1,0,0.2,0.3,0.1,0.5c-0.3,0.4-0.3,0.5-0.2,0.6c0.1,0.1,0.2,0.3,0,0.4
							c-0.1,0-0.1,0.1-0.1,0.2c-0.2,0.1-0.3,0.1-0.4,0.2c-0.1,0.1-0.4,0.1-0.5,0c-0.1,0-0.3,0-0.5,0c-0.1-0.1,0-0.2-0.1-0.3
							c0-0.1-0.1-0.2-0.3-0.3c0,0.1,0.1,0.2,0.2,0.3c0,0.1-0.3,0.1-0.4,0c-0.1,0,0.2-0.1,0.1-0.1c0-0.1-0.1-0.1-0.2-0.2
							c-0.1,0,0.2,0,0.2,0c-0.1-0.1-0.4-0.2-0.3-0.3c0,0,0.1-0.1,0.1-0.1c0,0,0,0,0-0.1l0-0.1c-0.1,0-0.2,0-0.2-0.1
							c0,0,0.1,0,0.1-0.1c0,0-0.1,0-0.1,0.1c0.1,0,0.2,0.1,0.2,0.1c-0.1-0.2-0.1-0.4-0.1-0.6l0,0c0,0.1-0.1,0.2-0.3,0.2
							c0.1,0,0.1,0,0.1,0.1l-0.1,0c0-0.1,0-0.3,0.2-0.2c0,0,0-0.1,0-0.1c0,0,0.1,0,0.2,0.1c0,0,0,0,0-0.1
							C171.8,72,171.6,72.1,171.6,72.1z"/>
						<path class="st1" d="M171.2,73.3C171.2,73.3,171.2,73.3,171.2,73.3c0,0,0,0.1,0,0.2C171.3,73.4,171.3,73.4,171.2,73.3z"/>
					</g>
				</g>
			</g>
		</g>
	</g>
</g>
<g>
	<rect x="42.6" y="-0.7" transform="matrix(0.707 -0.7072 0.7072 0.707 -5.5886 40.6548)" class="st1" width="7.3" height="55.6"/>
	<g>
		<g>
			<g>
				<g class="st0">
					<g>
						<path class="st1" d="M31.1,17.5l0.9,0.9c-0.1-0.2-0.3-0.3-0.4-0.5C31.4,17.7,31.3,17.7,31.1,17.5z"/>
						<path class="st1" d="M32.8,19.3c0.1,0.1,0.1,0.1,0.2,0.2c0.1,0,0.1,0.1,0.2,0.1L32.8,19.3z"/>
						<path class="st1" d="M34.4,20.8c-0.3-0.3-0.5-0.5-0.8-0.8C33.8,20.2,34.1,20.5,34.4,20.8z"/>
						<path class="st1" d="M33.2,19.5C33.3,19.6,33.3,19.7,33.2,19.5L33.2,19.5c0.1,0.2,0.2,0.3,0.4,0.5
							C33.4,19.8,33.3,19.7,33.2,19.5z"/>
						<path class="st1" d="M33.2,19.5c-0.1-0.1-0.2-0.3-0.2-0.3C33,19.3,33.1,19.4,33.2,19.5z"/>
						<path class="st1" d="M34.2,19.3c0.2,0.1,0,0.3,0.3,0.5c0.8,0.7,1.5,1.2,2.1,1.9c0.3,0.3,0.6,0.9,1,1.2
							c0.8,0.7,2.9,2.3,1.8,1.2c-1.7-1.6-2.8-2.7-4.3-4.1c-1.3-1.1-2.5-2.2-3.8-3.4c-0.4-0.3-0.7-0.7-1-1c0.4,0.4,0.8,0.9,1.3,1.4
							C32.2,17.8,33.2,18.4,34.2,19.3z"/>
						<path class="st1" d="M24.7,10.9c0.2,0.1,0.5,0.4,0.5,0.4c0.6,0.8,1.3,1.5,2.1,2.2l-0.2-0.4c-0.4-0.4-0.5-0.4-0.2,0
							c-0.7-0.9-1.5-1.8-2.4-2.6C24.5,10.6,24.5,10.6,24.7,10.9z"/>
						<path class="st1" d="M24,10c0.2,0.2,0.3,0.3,0.5,0.5c0,0,0,0,0,0C24.3,10.3,24.2,10.2,24,10L24,10z"/>
						<path class="st1" d="M37.8,23.9c2.1,2.1,4,4,5.9,5.9c0.2,0.1,0.3,0.2,0.5,0.4c0.1,0.2,0.2,0.3,0.4,0.5l0.8,0.8
							c0.1,0.1,0.2,0.2,0.3,0.3l0,0c0.2,0.1,0.2,0.1,0.1-0.1c-0.1-0.1-0.2-0.2-0.2-0.4c0,0.1,0.1,0.2,0.2,0.4
							c0.1,0.2,0.2,0.3,0.4,0.5c0.3,0.2,0.5,0.5,0.8,0.8c-0.3-0.3-0.6-0.5-0.8-0.8c-0.2-0.2-0.3-0.3-0.5-0.4l-0.1-0.1
							c0.6,0.6,1.2,1.3,1.9,1.9c0.1,0.1,0.3,0.3,0.4,0.4c0.5,0.4,1,0.9,1.2,1.2l0.3,0.3l0-0.1c0,0.1,0.1,0.1,0.1,0.1
							c0.5,0.5,0.9,1,1.4,1.4c0.3,0.3,0.7,0.6,1,0.8c0,0,0.2,0.3,0.2,0.4c0.2,0.1,0.4,0.2,0.6,0.4c-0.2-0.3-0.4-0.6-0.6-0.9
							c-0.2-0.4-0.9-0.5-1.1-1.1c0.2,0.5,0.9,0.7,1.1,1.1c0.2,0.3,0.4,0.5,0.6,0.9c0.5,0.4,1,1,1.4,1.6c-0.7-0.5-1.1-1.1-1.4-1.6
							c-0.2-0.2-0.4-0.4-0.6-0.4c-0.1-0.1-0.2-0.4-0.2-0.4c-0.3-0.3-0.7-0.6-1-0.8c0.9,0.9,1.8,1.9,2.8,2.9c1.6,1.6,3.2,3.3,4.7,4.9
							c1.7,1.7,3.3,3.4,5,5.1c1.9-1.9,3.8-3.8,5.8-5.8c-1.2-1.2-2.5-2.6-3.9-4c-3.4-3.5-6.7-6.9-9.9-10.3
							c-6.3-6.7-12.5-12.5-18.7-19.5c-0.8-0.9-1.8-2-2.9-3.1c-1.5-1.5-3.1-3.1-4.6-4.6C27.6,4.3,26.1,5.8,25,7
							c-3,3.6-0.6,2.6-0.4,2.5c0.9-0.5,1.7-1,2.4-1.7c0.4-0.3,0.8-0.7,1.2-1.1c0.3-0.3,0.6-0.5,0.9-0.9c0.3,0.3,0.6,0.6,0.9,1
							c0.5,0.5,1,1.1,1.6,1.8c-2.6-3,2.5,1.7,4.7,4.7c3.2,4.5,9.1,9.4,13.7,14.3c1.1,1.2,2.4,2.4,3.8,3.9c2.3,2.4,4.5,4.7,6.8,7
							c1.1,1.1,2.3,2.3,3.4,3.4l1.7,1.7l0.4,0.4l0.2,0.2l0,0l0.1,0c0.8-0.8-3.8,3.9-3.1,3.2c-0.6-0.6-1.2-1.3-1.9-1.9
							c-2-2-4-3.7-5.8-5.3c-1.3-1.2-2.5-2.6-3.5-3.7c-1.6-1.6-3-2.9-4.4-4.2c1.5,1.4,2.6,2.5,4.3,4.1c1.1,1.1-1-0.5-1.8-1.2
							c-0.3-0.3-0.6-0.9-1-1.2c-0.7-0.7-1.4-1.2-2.1-1.9c-0.3-0.3-0.1-0.4-0.3-0.5c-1-0.9-2-1.5-2.6-2.2c-0.4-0.5-0.9-1-1.3-1.4
							c-0.3-0.3-0.5-0.5-0.8-0.8c-0.2-0.2-0.4-0.3-0.6-0.5c0.1,0.2,0.1,0.3,0.1,0.4c-0.2-0.3-0.6-0.7-0.8-0.9
							c0.2,0.3,0.6,0.7,0.8,0.9c0-0.1,0-0.2-0.1-0.4c-1.4-1.2-3-2.6-4.5-3.9l0,0c0.8,0.8,1.6,1.6,2.4,2.6c-0.3-0.4-0.2-0.4,0.2,0
							l0.2,0.4c-0.8-0.7-1.5-1.4-2.1-2.2c0,0-0.3-0.3-0.5-0.4c-0.2-0.3-0.1-0.3-0.1-0.4c-0.2-0.2-0.3-0.3-0.5-0.5
							C36.9,22.7,37.8,23.9,37.8,23.9z"/>
						<path class="st1" d="M46.2,32.3c-0.1-0.1-0.3-0.2-0.4-0.4l1.6,1.6C47.2,33.2,46.7,32.7,46.2,32.3z"/>
					</g>
				</g>
			</g>
		</g>
	</g>
</g>
<g>
	<g>
		<g>
			<g>
				<g class="st0">
					<g>
						<path class="st1" d="M113.8,87.7c-0.2-0.2-0.3-0.3-0.5-0.5c0.1,0.1,0.1,0.2,0.2,0.3C113.6,87.7,113.7,87.7,113.8,87.7z"/>
						<path class="st1" d="M112.9,86.8C112.8,86.7,112.8,86.7,112.9,86.8c-0.1-0.1-0.1-0.1-0.2-0.1
							C112.8,86.7,112.8,86.7,112.9,86.8z"/>
						<path class="st1" d="M112,86c0.1,0.2,0.3,0.3,0.4,0.4C112.3,86.3,112.2,86.1,112,86z"/>
						<path class="st1" d="M112.6,86.7C112.6,86.6,112.6,86.6,112.6,86.7C112.7,86.6,112.7,86.6,112.6,86.7c0-0.1-0.1-0.2-0.2-0.3
							C112.5,86.5,112.6,86.6,112.6,86.7z"/>
						<path class="st1" d="M112.6,86.7c0,0.1,0.1,0.2,0.1,0.2C112.7,86.8,112.7,86.8,112.6,86.7z"/>
						<path class="st1" d="M111.8,87.1c-0.1-0.1,0.1-0.2-0.1-0.3c-0.4-0.4-0.9-0.6-1.2-1c-0.2-0.1-0.3-0.6-0.5-0.7
							c-0.4-0.4-1.7-1.1-1.1-0.6c0.9,0.9,1.6,1.4,2.4,2.2c0.7,0.6,1.4,1.1,2.2,1.8c0.2,0.2,0.4,0.4,0.5,0.6
							c-0.2-0.3-0.4-0.5-0.7-0.8C113,87.8,112.4,87.6,111.8,87.1z"/>
						<path class="st1" d="M117.3,91.4c-0.1-0.1-0.3-0.2-0.3-0.2c-0.3-0.5-0.7-0.9-1.2-1.2c0,0.1,0.1,0.2,0.1,0.3
							c0.2,0.2,0.3,0.2,0.1,0c0.4,0.6,0.8,1,1.3,1.5C117.4,91.6,117.4,91.6,117.3,91.4z"/>
						<path class="st1" d="M117.6,92c-0.1-0.1-0.2-0.2-0.3-0.2c0,0,0,0,0,0C117.4,91.8,117.5,91.9,117.6,92
							C117.6,92,117.6,92,117.6,92z"/>
						<path class="st1" d="M110,84.3c-1.1-1.1-2.2-2.2-3.2-3.3c-0.1,0-0.2-0.1-0.3-0.2c-0.1-0.1-0.1-0.2-0.2-0.3
							c-0.1-0.2-0.3-0.3-0.4-0.5c-0.1,0-0.1-0.1-0.2-0.1c0,0,0,0,0,0c-0.1-0.1-0.1,0-0.1,0.1c0,0.1,0.1,0.2,0.1,0.2
							c0,0-0.1-0.1-0.1-0.2c-0.1-0.1-0.1-0.2-0.2-0.3c-0.1-0.1-0.3-0.3-0.4-0.4c0.2,0.1,0.3,0.3,0.4,0.4c0.1,0.1,0.2,0.2,0.3,0.2
							c0,0,0.1,0,0.1,0.1c-0.3-0.4-0.7-0.7-1-1.1c-0.1-0.1-0.2-0.1-0.2-0.2c-0.3-0.2-0.5-0.5-0.6-0.7c-0.1-0.1-0.1-0.1-0.2-0.2
							c0,0,0,0,0,0.1c0,0,0-0.1-0.1-0.1c-0.3-0.3-0.5-0.5-0.8-0.8c-0.2-0.1-0.4-0.3-0.6-0.4c0,0-0.1-0.2-0.1-0.3
							c-0.1,0-0.2-0.1-0.4-0.2c0.1,0.2,0.2,0.4,0.2,0.5c0.1,0.3,0.6,0.2,0.6,0.6c0-0.4-0.5-0.3-0.6-0.6c-0.1-0.2-0.2-0.3-0.2-0.5
							c-0.3-0.2-0.6-0.6-0.7-0.9c0.4,0.2,0.6,0.6,0.7,0.9c0.1,0.1,0.3,0.2,0.4,0.2c0,0.1,0.1,0.3,0.1,0.3c0.2,0.2,0.4,0.3,0.6,0.4
							c-0.5-0.5-1-1.1-1.5-1.6c-3.3-3.5-6.5-6.6-9.9-10.3c-1.9-2-3.6-3.9-5.3-5.8c-3.4-3.8-6.9-6.9-10.1-10.9
							c-1.2-1.5-3.9-4.1-5.3-5.4c-2.1-1.5-1.9,0.1-1.8,0.3c0.5,1.7,1.7,2.3,3.6,4.9c-1.3-1.7,1.5,0.7,2.6,2.6c1.5,2.7,5,5.2,7.4,8
							c0.6,0.7,1.3,1.3,2.1,2.1c3.8,4.2,7.8,7.7,12,12c1.1,1.1,2.3,1.9,3.3,2.8c0.7,0.7,1.4,1.5,1.9,2c0.9,0.9,1.7,1.6,2.5,2.2
							c-0.8-0.8-1.5-1.3-2.4-2.2c-0.6-0.6,0.6,0.2,1.1,0.6c0.2,0.1,0.3,0.6,0.5,0.7c0.4,0.4,0.8,0.6,1.2,1c0.2,0.1,0,0.3,0.1,0.3
							c0.6,0.5,1.2,0.7,1.5,1.1c0.2,0.3,0.5,0.6,0.7,0.8c0.1,0.2,0.3,0.3,0.4,0.5c0.1,0.1,0.2,0.2,0.3,0.3c0-0.1,0-0.2,0-0.3
							c0.1,0.2,0.3,0.4,0.4,0.5c-0.1-0.2-0.3-0.4-0.4-0.5c0,0.1-0.1,0.2,0,0.3c0.8,0.6,1.7,1.4,2.6,2c0,0,0,0,0,0
							c-0.5-0.4-0.9-0.9-1.3-1.5c0.2,0.2,0.1,0.3-0.1,0c0-0.1-0.1-0.2-0.1-0.3c0.4,0.4,0.9,0.7,1.2,1.2c0,0,0.2,0.1,0.3,0.2
							c0.1,0.2,0,0.2,0,0.3c0.1,0.1,0.2,0.2,0.3,0.3C110.5,85,110,84.3,110,84.3z"/>
						<path class="st1" d="M105.4,79.7c0.1,0.1,0.1,0.1,0.2,0.2c-0.3-0.3-0.6-0.6-0.8-0.9C104.9,79.2,105.1,79.5,105.4,79.7z"/>
					</g>
				</g>
			</g>
		</g>
	</g>
</g>
<g>
	<g>
		<g>
			<g>
				<g class="st0">
					<g>
						<path class="st1" d="M55.7,59.1c0.1-0.1,0.1-0.1,0.2-0.2c0,0-0.1,0-0.1,0C55.7,59,55.7,59.1,55.7,59.1z"/>
						<path class="st1" d="M56,58.8C56.1,58.8,56.1,58.8,56,58.8C56.1,58.8,56.1,58.8,56,58.8C56.1,58.8,56.1,58.8,56,58.8z"/>
						<path class="st1" d="M56.3,58.5c-0.1,0-0.1,0.1-0.1,0.1C56.2,58.6,56.2,58.6,56.3,58.5z"/>
						<path class="st1" d="M56,58.7C56.1,58.7,56.1,58.7,56,58.7C56.1,58.8,56.1,58.8,56,58.7c0.1,0,0.1,0,0.1,0
							C56.1,58.7,56.1,58.7,56,58.7z"/>
						<path class="st1" d="M56,58.7c0,0-0.1,0-0.1,0C55.9,58.7,56,58.7,56,58.7z"/>
						<path class="st1" d="M55.5,58c0,0,0.2,0.1,0.2,0c0.1-0.2,0.1-0.4,0.2-0.5c0-0.1,0.3,0,0.3-0.1c0.1-0.2,0.2-0.7,0-0.5
							c-0.3,0.3-0.4,0.6-0.6,0.9c-0.1,0.3-0.3,0.6-0.4,0.9c-0.1,0.1-0.1,0.1-0.2,0.2c0.1,0,0.2-0.1,0.3-0.2
							C55.4,58.6,55.3,58.2,55.5,58z"/>
						<path class="st1" d="M54.5,60.2c0,0,0-0.1,0-0.1c0.2,0,0.3-0.2,0.4-0.4c0,0-0.1,0-0.1,0c-0.1,0.1,0,0.1,0.1,0.1
							c-0.3,0-0.4,0.2-0.5,0.3C54.4,60.2,54.4,60.2,54.5,60.2z"/>
						<path class="st1" d="M54.2,60.2c0,0,0-0.1,0.1-0.1c0,0,0,0,0,0C54.3,60.1,54.2,60.2,54.2,60.2C54.2,60.2,54.2,60.2,54.2,60.2z
							"/>
						<path class="st1" d="M56.7,57.8c0.4-0.4,0.7-0.7,1.1-1c0-0.1,0-0.1,0-0.1c0.1,0,0.1,0,0.1,0c0.1,0,0.1-0.1,0.2-0.1
							c0,0,0,0,0-0.1c0,0,0,0,0,0c0,0,0-0.1-0.1-0.1c0,0-0.1,0-0.1,0c0,0,0.1,0,0.1,0c0,0,0.1,0,0.1,0c0-0.1,0.1-0.1,0.1-0.1
							c0,0.1-0.1,0.1-0.1,0.1c0,0,0,0.1-0.1,0.1c0,0,0,0,0,0c0.1-0.1,0.2-0.2,0.4-0.3c0,0,0-0.1,0.1-0.1c0.1-0.1,0.1-0.2,0.2-0.2
							c0,0,0,0,0.1-0.1c0,0,0,0,0,0c0,0,0,0,0,0c0.1-0.1,0.2-0.2,0.3-0.2c0-0.1,0-0.2,0.1-0.3c0,0,0.1,0,0.1,0c0-0.1,0-0.1,0-0.2
							c-0.1,0-0.2,0-0.3,0c-0.1,0,0,0.3-0.2,0.2c0.2,0.1,0-0.2,0.2-0.2c0.1,0,0.2,0,0.3,0c0-0.1,0.2-0.2,0.3-0.2
							c0,0.2-0.2,0.2-0.3,0.2c0,0.1,0,0.1,0,0.2c0,0-0.1,0-0.1,0c0,0.1,0,0.2-0.1,0.3c0.2-0.2,0.4-0.3,0.5-0.5
							c1.2-1,2.2-2.1,3.4-3.1c0.7-0.6,1.3-1.1,2-1.6c1.4-1,2.2-2.3,3.8-3c0.6-0.3,1.3-1.2,1.8-1.7c0.3-0.9-0.7-1.3-0.8-1.3
							c-1-0.3-0.9,0.4-2,0.7c0.7-0.3,0,0.8-0.9,0.8c-1.3,0-1.8,1.5-2.8,2.2c-0.2,0.2-0.4,0.4-0.7,0.7c-1.5,1.1-2.4,2.6-3.8,3.9
							c-0.4,0.4-0.5,0.8-0.7,1.2c-0.2,0.3-0.5,0.4-0.7,0.6c-0.3,0.3-0.5,0.6-0.6,0.9c0.2-0.3,0.4-0.5,0.6-0.9c0.2-0.2,0.1,0.4,0,0.5
							c0,0.1-0.3,0-0.3,0.1c-0.1,0.1-0.2,0.3-0.2,0.5c0,0.1-0.2-0.1-0.2,0c-0.1,0.2,0,0.6-0.2,0.6c-0.1,0.1-0.2,0.1-0.3,0.2
							c-0.1,0-0.1,0.1-0.2,0.1c0,0,0,0.1-0.1,0.1c0.1,0,0.2,0.1,0.2,0.1c-0.1,0-0.2,0.1-0.2,0.1c0.1,0,0.2-0.1,0.2-0.1
							c-0.1-0.1-0.1-0.1-0.2-0.1c-0.1,0.3-0.3,0.7-0.5,1c0,0,0,0,0,0c0.1-0.2,0.3-0.3,0.5-0.3c-0.1,0-0.1,0-0.1-0.1c0,0,0.1,0,0.1,0
							c-0.1,0.2-0.2,0.4-0.4,0.4c0,0,0,0.1,0,0.1c-0.1,0-0.1,0-0.2-0.1c0,0,0,0.1-0.1,0.1C56.4,57.8,56.7,57.8,56.7,57.8z"/>
						<path class="st1" d="M58.2,56.3C58.2,56.3,58.1,56.3,58.2,56.3c0,0,0.1-0.1,0.2-0.2C58.3,56,58.2,56.2,58.2,56.3z"/>
					</g>
				</g>
			</g>
		</g>
	</g>
</g>
<g class="st2">
	<path d="M38.5,23.1c-1.1-1.1-1.1-2.9,0-4s2.9-1.1,4,0s1.1,2.9,0,4S39.6,24.2,38.5,23.1"/>
	<g>
		<g>
			<g>
				<g class="st0">
					<g>
						<path class="st1" d="M39.7,24.1l0.2,0.1c0,0-0.1-0.1-0.1-0.1C39.7,24.1,39.7,24.1,39.7,24.1z"/>
						<path class="st1" d="M40,24.2L40,24.2L40,24.2C40.1,24.2,40.1,24.2,40,24.2z"/>
						<path class="st1" d="M40.4,24.2c-0.1,0-0.1,0-0.2,0C40.3,24.2,40.3,24.2,40.4,24.2z"/>
						<path class="st1" d="M40.1,24.1C40.1,24.2,40.1,24.2,40.1,24.1L40.1,24.1C40.1,24.2,40.2,24.2,40.1,24.1
							C40.2,24.2,40.1,24.2,40.1,24.1z"/>
						<path class="st1" d="M40.1,24.1C40.1,24.1,40.1,24.1,40.1,24.1C40.1,24.1,40.1,24.1,40.1,24.1z"/>
						<path class="st1" d="M40.3,23.3c0,0,0,0.2,0.1,0.2c0.1-0.1,0.2-0.2,0.3-0.2c0-0.1,0.1,0.2,0.2,0.1C41,23.3,41.2,23,41,23
							c-0.2,0.1-0.4,0.2-0.6,0.2c-0.2,0.1-0.4,0.2-0.6,0.2c-0.1,0-0.1,0-0.2-0.1c0.1,0.1,0.1,0.1,0.2,0.2
							C39.9,23.6,40.1,23.3,40.3,23.3z"/>
						<path class="st1" d="M38.5,23.3c0,0,0.1,0,0.1,0c0,0.2,0.2,0.3,0.3,0.3l0-0.1c-0.1,0-0.1,0-0.1,0.1c-0.1-0.2-0.2-0.3-0.3-0.4
							C38.5,23.2,38.5,23.3,38.5,23.3z"/>
						<path class="st1" d="M38.5,23.1C38.5,23.1,38.5,23.2,38.5,23.1L38.5,23.1L38.5,23.1L38.5,23.1z"/>
						<path class="st1" d="M41.1,23.9c0.4-0.1,0.8-0.2,1.1-0.4c0-0.1,0-0.1,0-0.1c0,0,0.1,0,0.1,0c0,0,0.1-0.1,0.1-0.1
							c0,0,0,0,0-0.1l0,0c0,0,0-0.1-0.1-0.1c0,0-0.1,0-0.1,0c0,0,0.1,0,0.1,0c0,0,0.1,0,0.1,0c0,0,0.1-0.1,0.1-0.1
							c0,0.1-0.1,0.1-0.1,0.1c0,0,0,0.1,0,0.1l0,0c0.1-0.1,0.2-0.2,0.3-0.3c0,0,0-0.1,0-0.1c0-0.1,0.1-0.2,0.2-0.2l0-0.1l0,0l0,0
							c0.1-0.1,0.1-0.2,0.2-0.3c0-0.1,0-0.2,0-0.2c0,0,0.1,0,0.1,0c0,0-0.1-0.1-0.1-0.1c-0.1,0-0.2,0-0.2,0.1
							c-0.1,0,0.2,0.2-0.1,0.2c0.2,0-0.1-0.2,0.1-0.2c0.1,0,0.2,0,0.2-0.1c0-0.1,0.1-0.2,0.2-0.3c0.1,0.1-0.1,0.2-0.2,0.3
							c0,0,0,0.1,0.1,0.1c0,0-0.1,0-0.1,0c0,0.1,0,0.2,0,0.2c0.1-0.2,0.2-0.4,0.3-0.6c0.5-1.3-0.1-2.8-1.3-3.7
							c-0.7-0.5-1.5-0.7-2.4-0.7c-0.9,0-1.7,0.5-2.2,1.1c-0.6,0.6-1,1.4-1.3,2.3c-0.1,0.4-0.1,0.9,0.1,1.5c0.2,0.5,0.5,1,0.7,1.3
							c0.5,0.3,0.8,0.1,1-0.2c0.2-0.2,0.3-0.5,0.4-0.5c0.2-0.4,0.2-0.6,0.1-0.8c0-0.2-0.1-0.4,0.1-0.7c-0.1,0.2-0.2,0.2-0.3,0
							c-0.1-0.2,0-0.5,0.3-0.6c0.5-0.2,0.6-0.3,0.7-0.6c0.1-0.2,0.2-0.5,0.5-0.5c0.1,0,0.2-0.1,0.4-0.1c0.4,0.1,0.7,0.1,1,0.3
							c0.3,0.1,0.6,0.4,0.7,0.8c0,0.2,0.3,0.4,0.4,0.6c0,0.2-0.1,0.3-0.2,0.4C42,22,42,22.2,41.9,22.4c0.1-0.2,0.1-0.3,0.2-0.5
							c0-0.1,0.2,0.2,0.2,0.4c0,0.1-0.2,0-0.2,0c-0.1,0.1,0,0.2-0.1,0.3c0,0.1-0.2-0.1-0.2-0.1c-0.1,0.1,0,0.4-0.1,0.5
							c-0.1,0-0.2,0-0.2,0c0,0-0.1,0-0.1,0l0,0.1c0.1,0.1,0.1,0.1,0.1,0.2c0,0-0.1,0-0.2,0c0,0,0.1,0,0.2,0c0-0.1-0.1-0.2-0.1-0.2
							c-0.1,0.2-0.3,0.4-0.6,0.5l0,0c0.1,0,0.3-0.1,0.5,0c-0.1,0-0.1-0.1,0-0.1l0.1,0.1c-0.1,0.1-0.2,0.2-0.4,0.1
							c0,0-0.1,0.1-0.1,0.1c0,0-0.1-0.1-0.1-0.2c0,0-0.1,0-0.1,0C40.8,23.8,41.1,23.9,41.1,23.9z"/>
						<path class="st1" d="M42.6,23.2C42.5,23.2,42.5,23.2,42.6,23.2c0,0,0.1-0.1,0.2-0.1C42.6,23,42.6,23.1,42.6,23.2z"/>
					</g>
				</g>
			</g>
		</g>
	</g>
</g>
<g class="st2">
	<path d="M51.3,35.9c-1.1-1.1-1.1-2.9,0-4c1.1-1.1,2.9-1.1,4,0c1.1,1.1,1.1,2.9,0,4S52.4,37,51.3,35.9"/>
	<g>
		<g>
			<g>
				<g class="st0">
					<g>
						<path class="st1" d="M52.5,36.9l0.2,0.1c0,0-0.1-0.1-0.1-0.1C52.5,36.9,52.5,36.9,52.5,36.9z"/>
						<path class="st1" d="M52.8,37L52.8,37L52.8,37C52.9,37,52.9,37,52.8,37z"/>
						<path class="st1" d="M53.2,37c-0.1,0-0.1,0-0.2,0C53.1,37,53.1,37,53.2,37z"/>
						<path class="st1" d="M52.9,36.9C52.9,37,52.9,37,52.9,36.9L52.9,36.9C52.9,37,53,37,52.9,36.9C53,37,52.9,37,52.9,36.9z"/>
						<path class="st1" d="M52.9,36.9C52.9,36.9,52.9,36.9,52.9,36.9C52.9,36.9,52.9,36.9,52.9,36.9z"/>
						<path class="st1" d="M53.1,36.1c0,0,0,0.2,0.1,0.2c0.1-0.1,0.2-0.2,0.3-0.2c0-0.1,0.1,0.2,0.2,0.1c0.1-0.1,0.3-0.5,0.1-0.4
							c-0.2,0.1-0.4,0.2-0.6,0.2c-0.2,0.1-0.4,0.2-0.6,0.2c-0.1,0-0.1,0-0.2-0.1c0.1,0.1,0.1,0.1,0.2,0.2
							C52.7,36.4,52.9,36.1,53.1,36.1z"/>
						<path class="st1" d="M51.3,36.1c0,0,0.1,0,0.1,0c0,0.2,0.2,0.3,0.3,0.3l0-0.1c-0.1,0-0.1,0-0.1,0.1c-0.1-0.2-0.2-0.3-0.3-0.4
							C51.3,36,51.3,36.1,51.3,36.1z"/>
						<path class="st1" d="M51.3,35.9C51.3,35.9,51.3,36,51.3,35.9L51.3,35.9L51.3,35.9L51.3,35.9z"/>
						<path class="st1" d="M53.9,36.7c0.4-0.1,0.8-0.2,1.1-0.4c0-0.1,0-0.1,0-0.1c0,0,0.1,0,0.1,0c0,0,0.1-0.1,0.1-0.1
							c0,0,0,0,0-0.1l0,0c0,0,0-0.1-0.1-0.1c0,0-0.1,0-0.1,0c0,0,0.1,0,0.1,0c0,0,0.1,0,0.1,0c0,0,0.1-0.1,0.1-0.1
							c0,0.1-0.1,0.1-0.1,0.1c0,0,0,0.1,0,0.1l0,0c0.1-0.1,0.2-0.2,0.3-0.3c0,0,0-0.1,0-0.1c0-0.1,0.1-0.2,0.2-0.2l0-0.1l0,0l0,0
							c0.1-0.1,0.1-0.2,0.2-0.3c0-0.1,0-0.2,0-0.2c0,0,0.1,0,0.1,0c0,0-0.1-0.1-0.1-0.1c-0.1,0-0.2,0-0.2,0.1
							c-0.1,0,0.2,0.2-0.1,0.2c0.2,0-0.1-0.2,0.1-0.2c0.1,0,0.2,0,0.2-0.1c0-0.1,0.1-0.2,0.2-0.3c0.1,0.1-0.1,0.2-0.2,0.3
							c0,0,0,0.1,0.1,0.1c0,0-0.1,0-0.1,0c0,0.1,0,0.2,0,0.2c0.1-0.2,0.2-0.4,0.3-0.6c0.5-1.3-0.1-2.8-1.3-3.7
							c-0.7-0.5-1.5-0.7-2.4-0.7c-0.9,0-1.7,0.5-2.2,1.1c-0.6,0.6-1,1.4-1.3,2.3c-0.1,0.4-0.1,0.9,0.1,1.5c0.2,0.5,0.5,1,0.7,1.3
							c0.5,0.3,0.8,0.1,1-0.2c0.2-0.2,0.3-0.5,0.4-0.5c0.2-0.4,0.2-0.6,0.1-0.8c0-0.2-0.1-0.4,0.1-0.7c-0.1,0.2-0.2,0.2-0.3,0
							c-0.1-0.2,0-0.5,0.3-0.6c0.5-0.2,0.6-0.3,0.7-0.6c0.1-0.2,0.2-0.5,0.5-0.5c0.1,0,0.2-0.1,0.4-0.1c0.4,0.1,0.7,0.1,1,0.3
							c0.3,0.1,0.6,0.4,0.7,0.8c0,0.2,0.3,0.4,0.4,0.6c0,0.2-0.1,0.3-0.2,0.4c-0.1,0.2-0.1,0.4-0.1,0.6c0.1-0.2,0.1-0.3,0.2-0.5
							c0-0.1,0.2,0.2,0.2,0.4c0,0.1-0.2,0-0.2,0c-0.1,0.1,0,0.2-0.1,0.3c0,0.1-0.2-0.1-0.2-0.1c-0.1,0.1,0,0.4-0.1,0.5
							c-0.1,0-0.2,0-0.2,0c0,0-0.1,0-0.1,0l0,0.1c0.1,0.1,0.1,0.1,0.1,0.2c0,0-0.1,0-0.2,0c0,0,0.1,0,0.2,0c0-0.1-0.1-0.2-0.1-0.2
							c-0.1,0.2-0.3,0.4-0.6,0.5l0,0c0.1,0,0.3-0.1,0.5,0c-0.1,0-0.1-0.1,0-0.1l0.1,0.1c-0.1,0.1-0.2,0.2-0.4,0.1
							c0,0-0.1,0.1-0.1,0.1c0,0-0.1-0.1-0.1-0.2c0,0-0.1,0-0.1,0C53.6,36.6,53.9,36.7,53.9,36.7z"/>
						<path class="st1" d="M55.4,36C55.3,36,55.3,36,55.4,36c0,0,0.1-0.1,0.2-0.1C55.4,35.8,55.4,35.9,55.4,36z"/>
					</g>
				</g>
			</g>
		</g>
	</g>
</g>
<g>
	<g>
		<g>
			<g>
				<g class="st0">
					<g>
						<path class="st1" d="M111.7,90.9l-0.7-0.1c0.1,0,0.2,0.1,0.3,0.1C111.5,91,111.6,90.9,111.7,90.9z"/>
						<path class="st1" d="M110.4,90.7c0,0-0.1,0-0.1,0l-0.1,0L110.4,90.7z"/>
						<path class="st1" d="M109.1,90.5c0.2,0.1,0.4,0.1,0.6,0.1C109.6,90.6,109.4,90.5,109.1,90.5z"/>
						<path class="st1" d="M110.1,90.7C110,90.7,110,90.7,110.1,90.7L110.1,90.7c-0.1-0.1-0.2-0.1-0.3-0.1
							C109.9,90.6,110,90.7,110.1,90.7z"/>
						<path class="st1" d="M110.1,90.7c0.1,0,0.2,0.1,0.2,0.1C110.3,90.8,110.2,90.8,110.1,90.7z"/>
						<path class="st1" d="M109.6,91.5c-0.1,0-0.1-0.2-0.3-0.2c-0.6,0-1.1,0-1.7-0.1c-0.3,0-0.6-0.3-0.9-0.3
							c-0.6-0.1-2.1-0.1-1.3,0.1c1.3,0.3,2.2,0.4,3.4,0.6c1,0.1,1.9,0.1,2.9,0.2c0.3,0,0.5,0.1,0.8,0.1c-0.3-0.1-0.7-0.2-1.1-0.3
							C111.1,91.4,110.4,91.6,109.6,91.5z"/>
						<path class="st1" d="M117,91.7c-0.1,0-0.4,0-0.4,0c-0.5-0.2-1.1-0.2-1.7-0.2l0.2,0.1c0.3,0,0.4,0,0.1-0.1
							c0.7,0.2,1.3,0.3,2,0.3C117.2,91.8,117.2,91.7,117,91.7z"/>
						<path class="st1" d="M117.6,91.9c-0.1,0-0.3,0-0.4,0l0,0C117.3,91.9,117.5,91.9,117.6,91.9L117.6,91.9z"/>
						<path class="st1" d="M106.5,90.2c-1.6-0.4-3.2-0.7-4.6-1.2c-0.1,0-0.2,0-0.4,0c-0.1-0.1-0.2-0.1-0.3-0.2l-0.6-0.2
							c-0.1,0-0.2,0-0.2,0l0,0c-0.1,0-0.1,0,0,0.1c0.1,0,0.1,0.1,0.2,0.1c0,0-0.1-0.1-0.2-0.1c-0.1-0.1-0.2-0.1-0.3-0.2
							c-0.2,0-0.4-0.1-0.6-0.2c0.2,0,0.4,0.1,0.6,0.2l0.4,0.1l0.1,0c-0.5-0.1-1-0.3-1.5-0.5c-0.1,0-0.2-0.1-0.3-0.1
							c-0.4-0.1-0.7-0.2-0.9-0.4l-0.3-0.1l0,0c0,0-0.1,0-0.1-0.1c-0.4-0.1-0.7-0.3-1.1-0.4c-0.3,0-0.5-0.1-0.8-0.1
							c0,0-0.1-0.1-0.2-0.2c-0.1,0-0.3,0-0.4,0c0.2,0.1,0.3,0.3,0.5,0.4c0.2,0.2,0.6,0,0.8,0.3c-0.2-0.3-0.6-0.1-0.8-0.3
							c-0.1-0.1-0.3-0.3-0.5-0.4c-0.4-0.1-0.8-0.3-1.1-0.5c0.5,0.1,0.8,0.3,1.1,0.5c0.2,0,0.3,0.1,0.4,0c0.1,0.1,0.2,0.2,0.2,0.2
							c0.3,0.1,0.5,0.1,0.8,0.1c-0.7-0.3-1.4-0.6-2.1-0.9c-2.3-0.9-4.5-2-6.7-2.9c-2.2-1.1-4.4-2.2-6.6-3.5c-2.5-1.4-4.7-3-6.8-4.5
							c-1-0.8-2.1-1.6-3.1-2.3c-0.5-0.4-1-0.7-1.5-1.1l-1.5-1.2c-1-0.8-2-1.6-3-2.4c-0.9-0.9-1.9-1.8-2.8-2.8
							c-1.5-1.4-4.2-4-5.7-5.3c-2.2-1.5-1.9,0.1-1.9,0.3c0.6,1.8,1.8,2.3,3.9,5c-0.7-0.9-0.3-0.7,0.4-0.1c0.8,0.6,1.9,1.7,2.5,2.6
							c0.4,0.7,1,1.3,1.7,2c0.7,0.6,1.5,1.2,2.3,1.8c0.8,0.6,1.6,1.2,2.5,1.8c0.8,0.6,1.7,1.1,2.4,1.7c0.8,0.6,1.6,1.2,2.6,1.8
							c4.9,3.5,10,5.9,15.7,8.6c1.5,0.7,3,1.1,4.3,1.4c1,0.3,2,0.8,2.7,1.1c1.3,0.4,2.4,0.7,3.4,0.9c-1.2-0.3-2-0.6-3.3-0.9
							c-0.9-0.3,0.7-0.1,1.3,0c0.3,0,0.6,0.4,0.8,0.4c0.5,0.2,1,0.2,1.6,0.4c0.3,0,0.2,0.2,0.3,0.3c0.8,0.2,1.5,0,2,0.2
							c0.4,0.1,0.7,0.3,1,0.4c0.2,0.1,0.4,0.1,0.6,0.2c0.1,0,0.3,0,0.4,0c-0.1-0.1-0.1-0.2-0.1-0.3c0.2,0.1,0.5,0.2,0.7,0.2
							c-0.2-0.1-0.5-0.2-0.7-0.2c0,0.1,0,0.2,0.1,0.3c1.1,0.1,2.3,0.3,3.4,0.4l0,0c-0.7-0.1-1.3-0.3-1.9-0.6
							c0.3,0.1,0.2,0.2-0.1,0.1l-0.2-0.2c0.6,0.1,1.2,0.1,1.7,0.4c0,0,0.3,0,0.4,0c0.2,0.1,0.2,0.1,0.2,0.2c0.1,0,0.3,0,0.4,0.1
							c-0.1-0.1-0.4-0.2-0.6-0.3C106.7,90.3,106.5,90.2,106.5,90.2z"/>
						<path class="st1" d="M99.9,88.5c0.1,0,0.2,0,0.3,0.1c-0.4-0.1-0.8-0.3-1.2-0.4C99.2,88.3,99.5,88.4,99.9,88.5z"/>
					</g>
				</g>
			</g>
		</g>
	</g>
</g>
<g>
	<g>
		<g>
			<g>
				<g class="st0">
					<g>
						<path class="st1" d="M11.5,109.4l-0.2,0.1c0,0,0.1,0,0.1,0C11.5,109.5,11.4,109.5,11.5,109.4z"/>
						<path class="st1" d="M11.1,109.6L11.1,109.6L11.1,109.6C11,109.7,11.1,109.6,11.1,109.6z"/>
						<path class="st1" d="M10.8,109.9c0.1,0,0.1-0.1,0.2-0.1C10.9,109.8,10.8,109.8,10.8,109.9z"/>
						<path class="st1" d="M11.1,109.8C11,109.7,11,109.7,11.1,109.8L11.1,109.8c-0.1-0.1-0.1,0-0.1,0C11,109.8,11,109.8,11.1,109.8
							z"/>
						<path class="st1" d="M11.1,109.8c0,0,0.1,0,0.1,0C11.2,109.8,11.1,109.8,11.1,109.8z"/>
						<path class="st1" d="M11.5,110.5c0,0-0.1-0.2-0.2-0.1c-0.1,0.1-0.2,0.3-0.3,0.4c0,0.1-0.3-0.1-0.3,0c-0.1,0.2-0.2,0.7,0,0.5
							c0.3-0.2,0.4-0.5,0.7-0.7c0.2-0.2,0.3-0.5,0.5-0.7c0.1-0.1,0.1-0.1,0.2-0.1l-0.3,0.1C11.6,110,11.6,110.4,11.5,110.5z"/>
						<path class="st1" d="M13,108.8c0,0-0.1,0.1-0.1,0.1c-0.2-0.1-0.4,0.1-0.5,0.2l0.1,0.1c0.1-0.1,0.1-0.1,0-0.1
							c0.2,0,0.4,0,0.6-0.1C13,108.9,13,108.8,13,108.8z"/>
						<path class="st1" d="M13.2,108.9C13.1,108.9,13.1,108.9,13.2,108.9L13.2,108.9L13.2,108.9L13.2,108.9z"/>
						<path class="st1" d="M10.3,110.5c-0.2,0.2-0.4,0.3-0.6,0.4c-0.2,0.2-0.4,0.3-0.5,0.5c0,0.1,0,0.1,0,0.1c-0.1,0-0.1,0-0.1,0
							l-0.2,0.1l0,0.1l0,0c0,0,0,0.1,0.1,0.1c0,0,0.1,0,0.1,0c0,0-0.1,0-0.1,0c0,0-0.1,0-0.1,0c0,0.1-0.1,0.1-0.1,0.1
							c0-0.1,0.1-0.1,0.1-0.1c0,0,0-0.1,0.1-0.1l0,0c-0.1,0.1-0.2,0.2-0.3,0.3l0,0.1c0,0.1-0.1,0.2-0.2,0.2l-0.1,0.1l0,0l0,0
							l-0.3,0.2c0,0.1,0,0.2,0,0.3c0,0-0.1,0-0.1,0c0,0.1,0,0.1,0,0.2c0.1,0,0.2,0,0.3,0c0.1,0-0.1-0.3,0.2-0.2
							c-0.2-0.1,0,0.2-0.2,0.2c-0.1,0-0.2,0-0.3,0c0,0.1-0.1,0.2-0.3,0.2c0-0.2,0.2-0.2,0.3-0.2c0-0.1,0-0.1,0-0.2c0,0,0.1,0,0.1,0
							c0-0.1,0-0.2,0-0.3c-0.2,0.2-0.3,0.3-0.5,0.5c-1,1.1-1.7,2.4-2.3,3.9c-0.2,0.4-0.3,0.8-0.5,1.2c-0.2,0.4-0.3,0.8-0.4,1.2
							c-0.5,1.7-0.2,3.2-0.4,5c0,0.4,0.1,0.8,0.2,1.3c0.1,0.5,0.4,0.9,0.5,1.2c0.7,0.7,1.5-0.2,1.5-0.2c0.3-0.4,0.3-0.6,0.3-0.9
							c-0.1-0.3-0.2-0.6,0-1.1c-0.1,0.7-0.7-0.3-0.2-1c0.4-0.5,0.3-1,0.3-1.5c-0.1-0.5-0.2-1.1,0-1.6c0.1-0.3,0.1-0.5,0.1-0.8
							c0.5-1.5,0.6-3,1.5-4.4c0.2-0.4,0.2-0.8,0.4-1.2c0.1-0.2,0.4-0.4,0.5-0.6c0.2-0.3,0.4-0.6,0.5-0.9c-0.2,0.3-0.3,0.5-0.5,0.8
							c-0.2,0.2-0.1-0.3-0.1-0.5c0-0.1,0.3,0,0.3-0.1c0.1-0.1,0.1-0.3,0.2-0.5c0-0.1,0.2,0.1,0.2,0c0.1-0.2,0-0.5,0.2-0.6l0.3-0.1
							c0.1,0,0.1-0.1,0.1-0.1l0.1-0.1c-0.1,0-0.1-0.1-0.2-0.2c0.1,0,0.2,0,0.2-0.1c-0.1,0-0.2,0-0.2,0.1c0.1,0.1,0.1,0.1,0.2,0.2
							c0.1-0.3,0.3-0.6,0.5-0.9l0,0c-0.1,0.1-0.3,0.2-0.6,0.2c0.1,0,0.1,0,0.1,0.1l-0.1,0c0.1-0.2,0.2-0.3,0.4-0.3c0,0,0-0.1,0-0.1
							c0.1,0,0.1,0.1,0.2,0.1c0,0,0.1-0.1,0.1-0.1C10.6,110.5,10.3,110.5,10.3,110.5z"/>
						<path class="st1" d="M8.7,111.9L8.7,111.9c0,0-0.1,0.1-0.2,0.2C8.6,112.1,8.7,112,8.7,111.9z"/>
					</g>
				</g>
			</g>
		</g>
	</g>
</g>
<g>
	<g>
		<g>
			<g>
				<g class="st0">
					<g>
						<path class="st1" d="M100.2,71c0.1,0,0.2-0.1,0.3-0.1c-0.1,0-0.1,0-0.2,0C100.2,70.8,100.2,70.9,100.2,71z"/>
						<path class="st1" d="M100.8,70.7C100.8,70.7,100.8,70.7,100.8,70.7C100.9,70.7,100.9,70.7,100.8,70.7
							C100.9,70.7,100.8,70.7,100.8,70.7z"/>
						<path class="st1" d="M101.3,70.4c-0.1,0-0.2,0.1-0.3,0.1C101.1,70.6,101.2,70.5,101.3,70.4z"/>
						<path class="st1" d="M100.9,70.6C100.9,70.6,100.9,70.6,100.9,70.6C100.9,70.7,100.9,70.7,100.9,70.6c0.1,0.1,0.1,0,0.2,0
							C101,70.6,100.9,70.6,100.9,70.6z"/>
						<path class="st1" d="M100.9,70.6c0,0-0.1,0-0.1,0C100.8,70.6,100.8,70.6,100.9,70.6z"/>
						<path class="st1" d="M100.7,69.7c0,0,0.1,0.2,0.2,0.1c0.2-0.2,0.4-0.4,0.6-0.5c0.1-0.1,0.4,0.1,0.5,0c0.2-0.2,0.7-0.8,0.4-0.6
							c-0.6,0.3-0.9,0.5-1.4,0.8c-0.4,0.3-0.7,0.6-1.1,0.8c-0.1,0.1-0.2,0.1-0.4,0.1c0.2,0,0.3-0.1,0.5-0.1
							C100.2,70.3,100.3,69.9,100.7,69.7z"/>
						<path class="st1" d="M97.8,71.9c0,0,0.1-0.1,0.1-0.1c0.3,0.1,0.5-0.1,0.8-0.3c-0.1,0-0.1,0-0.2-0.1c-0.1,0.1-0.1,0.1,0,0.1
							c-0.4,0-0.6,0.1-0.9,0.2C97.7,71.8,97.7,71.9,97.8,71.9z"/>
						<path class="st1" d="M97.5,71.8c0.1,0,0.1-0.1,0.2-0.1c0,0,0,0,0,0C97.6,71.8,97.6,71.8,97.5,71.8
							C97.5,71.8,97.5,71.8,97.5,71.8z"/>
						<path class="st1" d="M102.4,69.7c0.7-0.3,1.4-0.6,2.1-0.9c0-0.1,0-0.1,0.1-0.1c0.1,0,0.1,0,0.2,0c0.1,0,0.2-0.1,0.3-0.1
							c0,0,0.1,0,0.1-0.1c0,0,0,0,0,0c0,0,0-0.1,0-0.1c0,0-0.1,0-0.1,0c0,0,0.1,0,0.1,0c0.1,0,0.1,0,0.2,0c0.1-0.1,0.2-0.1,0.3-0.1
							c-0.1,0.1-0.2,0.1-0.3,0.1c-0.1,0-0.1,0.1-0.1,0.1c0,0,0,0,0,0c0.2-0.1,0.4-0.2,0.7-0.3c0,0,0.1-0.1,0.1-0.1
							c0.1-0.1,0.3-0.2,0.4-0.1c0,0,0.1,0,0.1,0c0,0,0,0,0,0c0,0,0,0,0.1,0c0.2-0.1,0.3-0.1,0.5-0.2c0.1-0.1,0.2-0.2,0.3-0.3
							c0,0,0.1,0,0.2,0.1c0-0.1,0.1-0.1,0.1-0.2c-0.1,0-0.2-0.1-0.3-0.1c-0.2-0.1-0.2,0.3-0.4,0.2c0.2,0.1,0.2-0.2,0.4-0.2
							c0.1,0,0.2,0,0.3,0.1c0.1-0.1,0.4-0.2,0.6-0.1c-0.2,0.2-0.4,0.2-0.6,0.1c-0.1,0.1-0.1,0.1-0.1,0.2c-0.1,0-0.2-0.1-0.2-0.1
							c-0.1,0.1-0.2,0.2-0.3,0.3c0.3-0.1,0.7-0.3,1-0.4c2.2-0.8,4.2-1.7,6.5-2.6c1.2-0.5,2.5-0.9,3.7-1.3c2.4-0.8,4.4-2,6.9-2.4
							c1-0.2,2.6-1,3.4-1.4c1-0.9,0-1.6-0.1-1.6c-1.1-0.5-1.4,0.2-3.1,0.4c1.1-0.2-0.5,0.8-1.7,0.7c-1.7-0.3-3.3,1.3-5.1,1.8
							c-0.4,0.1-0.9,0.4-1.4,0.6c-2.7,0.8-4.9,2.2-7.6,3.4c-0.7,0.3-1.2,0.8-1.8,1.2c-0.4,0.2-0.9,0.3-1.3,0.5
							c-0.6,0.2-1,0.5-1.4,0.8c0.5-0.3,0.8-0.5,1.4-0.8c0.4-0.2-0.1,0.4-0.4,0.6c-0.1,0.1-0.4-0.1-0.5,0c-0.2,0.1-0.4,0.3-0.6,0.5
							c-0.1,0.1-0.2-0.1-0.2-0.1c-0.3,0.2-0.5,0.6-0.7,0.6c-0.2,0-0.3,0.1-0.5,0.1c-0.1,0-0.2,0.1-0.3,0.1c-0.1,0-0.1,0.1-0.2,0.1
							c0.1,0,0.1,0.1,0.2,0.2c-0.1,0-0.2,0-0.3,0.1c0.1,0,0.2,0,0.3-0.1c-0.1-0.1-0.1-0.1-0.2-0.2c-0.4,0.3-0.9,0.7-1.3,1
							c0,0,0,0,0,0c0.3-0.1,0.6-0.3,0.9-0.2c-0.1,0-0.2-0.1,0-0.1c0.1,0,0.1,0,0.2,0.1c-0.2,0.2-0.5,0.3-0.8,0.3
							c0,0-0.1,0.1-0.1,0.1c-0.1,0-0.1-0.1-0.2-0.1c-0.1,0-0.1,0.1-0.2,0.1C101.9,69.8,102.4,69.7,102.4,69.7z"/>
						<path class="st1" d="M105.3,68.4c0,0-0.1,0.1-0.1,0.1c0.2-0.1,0.4-0.1,0.6-0.2C105.6,68.2,105.5,68.3,105.3,68.4z"/>
					</g>
				</g>
			</g>
		</g>
	</g>
</g>
<g>
	<g>
		<g>
			<g>
				<g class="st0">
					<g>
						<path class="st1" d="M18.7,106.8c0.2-0.1,0.4-0.2,0.7-0.3c-0.1,0-0.2,0.1-0.4,0.1C18.8,106.6,18.8,106.7,18.7,106.8z"/>
						<path class="st1" d="M20,106.3c0,0,0.1,0,0.1,0c0,0,0.1,0,0.1-0.1C20.1,106.2,20.1,106.2,20,106.3z"/>
						<path class="st1" d="M21.1,105.7c-0.2,0.1-0.4,0.2-0.6,0.3C20.7,105.9,20.9,105.8,21.1,105.7z"/>
						<path class="st1" d="M20.2,106C20.3,106.1,20.3,106.1,20.2,106C20.2,106.1,20.2,106.1,20.2,106c0.1,0,0.2,0,0.4-0.1
							C20.4,106,20.3,106,20.2,106z"/>
						<path class="st1" d="M20.2,106c-0.1,0-0.2,0-0.2,0C20,106.1,20.1,106.1,20.2,106z"/>
						<path class="st1" d="M20.1,105.1c0.1-0.1,0.2,0.2,0.4,0c0.5-0.3,0.9-0.6,1.4-0.8c0.2-0.2,0.7-0.1,0.9-0.2
							c0.5-0.3,1.8-1.2,1-0.8c-1.2,0.6-2,1-3.1,1.5c-0.9,0.5-1.7,1-2.6,1.4c-0.3,0.1-0.5,0.2-0.7,0.3c0.3-0.1,0.7-0.2,1-0.3
							C19,106.1,19.4,105.5,20.1,105.1z"/>
						<path class="st1" d="M13.7,108.8c0.1-0.1,0.3-0.2,0.3-0.2c0.6-0.1,1.1-0.4,1.6-0.7c-0.1,0-0.2,0-0.3,0c-0.3,0.1-0.3,0.2,0,0.2
							c-0.7,0.1-1.3,0.4-1.9,0.7C13.5,108.8,13.6,108.9,13.7,108.8z"/>
						<path class="st1" d="M13.1,108.9c0.1-0.1,0.2-0.1,0.3-0.2c0,0,0,0,0,0C13.3,108.8,13.2,108.9,13.1,108.9
							C13.1,108.9,13.1,108.9,13.1,108.9z"/>
						<path class="st1" d="M23.5,104.4c1.5-0.7,3-1.3,4.4-1.9c0.1-0.1,0.1-0.2,0.3-0.2c0.1,0,0.2,0,0.4-0.1c0.2-0.1,0.4-0.2,0.6-0.3
							c0.1,0,0.1-0.1,0.2-0.1c0,0,0,0,0,0c0.1-0.1,0.1-0.1,0-0.1c-0.1,0-0.2,0-0.3,0c0,0,0.2,0,0.3,0c0.1,0,0.2,0,0.4-0.1
							c0.2-0.1,0.4-0.2,0.6-0.3c-0.2,0.1-0.4,0.2-0.6,0.3c-0.1,0.1-0.2,0.1-0.3,0.2c0,0-0.1,0-0.1,0.1c0.5-0.2,0.9-0.4,1.4-0.6
							c0.1-0.1,0.2-0.1,0.3-0.1c0.3-0.2,0.7-0.4,0.9-0.3c0.1,0,0.2-0.1,0.3-0.1c0,0,0,0-0.1,0c0,0,0.1,0,0.1,0
							c0.4-0.1,0.7-0.3,1.1-0.4c0.2-0.1,0.4-0.3,0.7-0.4c0,0,0.2,0,0.3,0c0.1-0.1,0.2-0.2,0.3-0.3c-0.2,0-0.4,0-0.6,0
							c-0.3,0-0.4,0.5-0.8,0.4c0.4,0.1,0.5-0.4,0.8-0.4c0.2,0,0.4,0,0.6,0c0.3-0.2,0.8-0.3,1.2-0.4c-0.4,0.3-0.8,0.4-1.2,0.4
							c-0.2,0.1-0.3,0.2-0.3,0.3c-0.1,0-0.3,0-0.3,0c-0.2,0.1-0.4,0.3-0.7,0.4c0.7-0.3,1.4-0.6,2.1-0.9c4.7-1.9,8.9-3.8,13.8-5.8
							c2.6-1.1,5.2-2.1,7.7-3c5-1.9,9.3-4.1,14.5-5.8c2-0.6,5.4-2.3,7.3-3.1c2.3-1.4,0.6-1.8,0.5-1.8c-1.9-0.1-2.8,0.8-6.1,1.7
							c2.2-0.6-1.3,1.2-3.5,1.5c-3.2,0.4-7,2.9-10.6,4.2c-0.9,0.3-1.8,0.8-2.9,1.2c-5.6,2.1-10.5,4.7-16.2,7.1
							c-1.5,0.7-2.8,1.5-4,2.1c-0.9,0.4-2,0.8-2.7,1.1c-1.2,0.5-2.2,1.1-3.1,1.6C31,100,31.8,99.6,33,99c0.8-0.4-0.4,0.5-1,0.8
							c-0.2,0.2-0.7,0.1-0.9,0.2c-0.5,0.2-0.9,0.5-1.4,0.8c-0.2,0.2-0.3-0.1-0.4,0c-0.7,0.4-1.2,0.9-1.7,1.1c-0.4,0.1-0.7,0.2-1,0.3
							c-0.2,0.1-0.4,0.2-0.6,0.3c-0.1,0.1-0.2,0.2-0.4,0.2c0.1,0,0.2,0.1,0.3,0.2c-0.2,0.1-0.5,0.1-0.7,0.2c0.2-0.1,0.5-0.1,0.7-0.2
							c-0.1-0.1-0.1-0.1-0.3-0.2c-0.9,0.6-2,1.2-3,1.7c0,0,0,0,0,0c0.6-0.3,1.2-0.5,1.9-0.7c-0.3,0.1-0.3,0,0-0.2c0.1,0,0.2,0,0.3,0
							c-0.5,0.3-1,0.6-1.6,0.7c0,0-0.2,0.2-0.3,0.2c-0.2,0-0.2,0-0.3-0.1c-0.1,0.1-0.2,0.1-0.4,0.2
							C22.6,104.6,23.5,104.4,23.5,104.4z"/>
						<path class="st1" d="M29.7,101.7c-0.1,0-0.2,0.1-0.3,0.1c0.4-0.2,0.8-0.3,1.2-0.5C30.4,101.3,30.1,101.5,29.7,101.7z"/>
					</g>
				</g>
			</g>
		</g>
	</g>
</g>
</svg>
