<svg xmlns="http://www.w3.org/2000/svg" xmlns:xlink="http://www.w3.org/1999/xlink" viewBox="0 0 159.5 234.08"><defs><style>.a,.e{fill:none;}.b{fill:url(#a);}.c{fill:#1d1d1b;}.d{clip-path:url(#b);}.e{stroke:#000;stroke-miterlimit:10;stroke-width:1.83px;}</style><linearGradient id="a" x1="79.16" y1="170.64" x2="252.68" y2="170.64" gradientTransform="translate(-62.88 114.02) rotate(-31.31)" gradientUnits="userSpaceOnUse"><stop offset="0" stop-color="#cfba9f"/><stop offset="0.49" stop-color="#ae8c61"/><stop offset="1" stop-color="#937144"/></linearGradient><clipPath id="b" transform="translate(-90.56 -52.59)"><rect class="a" x="121.96" y="121.35" width="96.24" height="97.46"/></clipPath></defs><path class="b" d="M247.18,175.52c4.24,53.54-34.6,109.19-77.18,109.16S88.67,233.22,93,175.4c4.5-60.15,49.35-122,77.18-119.86C207,58.4,242.41,115.39,247.18,175.52Z" transform="translate(-90.56 -52.59)"/><path class="c" d="M249.54,174.62c.05.89.43.54.52.67C249.83,173.8,249.43,174.67,249.54,174.62Z" transform="translate(-90.56 -52.59)"/><path class="c" d="M246.77,160.09l.21.23-.76-2.08C246.42,158.85,246.59,159.47,246.77,160.09Z" transform="translate(-90.56 -52.59)"/><path class="c" d="M244.06,146.59c-.38,1.42,1.22,4.84,1.46,7.3l-.09.42.77,1c-.17-.72-.36-1.5-.54-2.3l-.66-2.36A41.27,41.27,0,0,1,244.06,146.59Z" transform="translate(-90.56 -52.59)"/><path class="c" d="M243.69,139.07c-.15.52-.67-1.47.38,1.68,0-.16,0-.22,0-.31C244,140.15,243.86,139.75,243.69,139.07Z" transform="translate(-90.56 -52.59)"/><path class="c" d="M244.05,140.44c.42,1.4,0-1,0,0Z" transform="translate(-90.56 -52.59)"/><path class="c" d="M242,134l.81,1.77c0-.43-.44-2.08-.14-1.51C242,132.41,241.93,132.85,242,134Z" transform="translate(-90.56 -52.59)"/><path class="c" d="M241,132.42l.4.92A1.41,1.41,0,0,0,241,132.42Z" transform="translate(-90.56 -52.59)"/><path class="c" d="M242.2,135.29l-.84-1.95c0,.3-.24.4.37.9C241.47,134.14,241.79,134.48,242.2,135.29Z" transform="translate(-90.56 -52.59)"/><path class="c" d="M242.45,136.46c.15,1.08.43,2.45-.33.66C243.21,140.62,243.55,140,242.45,136.46Z" transform="translate(-90.56 -52.59)"/><path class="c" d="M243.17,146.08l.14,1.43.51,1.15C243.59,148.09,243.37,145.94,243.17,146.08Z" transform="translate(-90.56 -52.59)"/><path class="c" d="M238.43,122.55c-.18-.06-.14.75-.28,1l.67,1.27C238.66,124.05,238.26,122.72,238.43,122.55Z" transform="translate(-90.56 -52.59)"/><path class="c" d="M238.15,123.5l-1-1.89C237.8,123.39,238,123.67,238.15,123.5Z" transform="translate(-90.56 -52.59)"/><polygon class="c" points="149.55 79.76 151.11 82.91 149.34 79.12 149.55 79.76"/><path class="c" d="M235.39,115c.28.32.54.65.8,1-.43-.6-.89-1.18-1.35-1.77Z" transform="translate(-90.56 -52.59)"/><path class="c" d="M233.11,110.1c.66.68-.09-1.32.49-.54a23.46,23.46,0,0,0-2.17-3.25A16.52,16.52,0,0,1,233.11,110.1Z" transform="translate(-90.56 -52.59)"/><path class="c" d="M230.28,104.77c.34.5.75,1,1.15,1.54A10.45,10.45,0,0,0,230.28,104.77Z" transform="translate(-90.56 -52.59)"/><path class="c" d="M235.87,118.23a3.17,3.17,0,0,0-.24-1.72l-.07.94Z" transform="translate(-90.56 -52.59)"/><path class="c" d="M235.56,117.49v0l-.67-1.67Z" transform="translate(-90.56 -52.59)"/><path class="c" d="M236,118.42l-.08-.19C235.87,118.32,235.87,118.37,236,118.42Z" transform="translate(-90.56 -52.59)"/><path class="c" d="M238.69,127c-.61-1.1-1.8-3.41-1.25-1C238,126.75,237.74,125.33,238.69,127Z" transform="translate(-90.56 -52.59)"/><path class="c" d="M235.85,119.58c.26.71.52,1.41.75,2.12.09-.08.1-.52.43,0C236.66,121,236.25,120.29,235.85,119.58Z" transform="translate(-90.56 -52.59)"/><polygon class="c" points="144.75 66.03 145.29 67 145.01 66.21 144.75 66.03"/><path class="c" d="M231.65,108.42a23,23,0,0,1-1.64-2.81c.52,1.18,1,2.41,1.6,3.55C231.81,109.26,232.27,109.66,231.65,108.42Z" transform="translate(-90.56 -52.59)"/><path class="c" d="M233.58,112.82l-.11-.19C233.49,112.76,233.52,112.87,233.58,112.82Z" transform="translate(-90.56 -52.59)"/><path class="c" d="M224.23,95.25l0,.2h.09Z" transform="translate(-90.56 -52.59)"/><path class="c" d="M231.63,109.39a6.64,6.64,0,0,0,1.05,1.83c-.34-.65-.71-1.32-1.07-2.06C231.52,109.11,231.48,109.12,231.63,109.39Z" transform="translate(-90.56 -52.59)"/><path class="c" d="M228.56,101.93c.16.49.36,1,.58,1.6A4.7,4.7,0,0,0,228.56,101.93Z" transform="translate(-90.56 -52.59)"/><path class="c" d="M233.44,112.28l.08.13C233.47,112.08,233.45,112.13,233.44,112.28Z" transform="translate(-90.56 -52.59)"/><path class="c" d="M233.44,112.28a11.82,11.82,0,0,0-.76-1.06c.27.52.54,1,.79,1.41A2.26,2.26,0,0,1,233.44,112.28Z" transform="translate(-90.56 -52.59)"/><path class="c" d="M220,93.67c.45-.09,2.06,1.88,2.84,4,1.35,1.68,1.77-.17,1.4-2.17-.18,0-.32.12-1.68-1.66.23.78,2.14,4.47.85,3.06-1.7-2.4-1.13-2.12-1.7-3.45.25,1.27-2.65-2.73-2.9-1.79l1.62,2C220.38,93.7,219.72,93,220,93.67Z" transform="translate(-90.56 -52.59)"/><path class="c" d="M226.38,99.14l.49.77a20.06,20.06,0,0,1-1.1-3c-1-1.21-1.26-1.41-1.42-1.43.78,1.29,1.51,2.61,2.23,3.93Z" transform="translate(-90.56 -52.59)"/><path class="c" d="M228.84,103.53c-.71-.43-1.89-2.28-1.68-.87,1.27,2.35,1.19,1.49,2.1,2.82-2.11-3.79.8,1-.44-1.89.46.72.83,1.39,1.19,2-.32-.72-.61-1.41-.87-2.08l0,.1v0h0c0,.19,0,.26,0,.06l0-.08a.5.5,0,0,1-.23-.1c-.51-1.15,0-.23.23.1l.08,0v0c-.74-1.25-1.49-2.5-2.29-3.72C227.28,100.74,227.86,101.74,228.84,103.53Z" transform="translate(-90.56 -52.59)"/><path class="c" d="M235.76,124.19c0-.14,0-.15,0-.17C235.66,123.78,235.59,123.7,235.76,124.19Z" transform="translate(-90.56 -52.59)"/><path class="c" d="M235.38,122.44a4.12,4.12,0,0,1,.73,1.42c.2.87-.19.07-.31.16.33.53,1,1.9.57,0l-.16-.27a22.89,22.89,0,0,1-.55-2.57c-.13-.74-.18-1.24-.09-1.11A6.65,6.65,0,0,0,235.38,122.44Z" transform="translate(-90.56 -52.59)"/><path class="c" d="M232.24,112.85c-.54-1.07-1.12-2.12-1.72-3.16l.46,1.8.17-.18C231.91,113.21,232,112.69,232.24,112.85Z" transform="translate(-90.56 -52.59)"/><polygon class="c" points="133.64 42.2 134.28 42.37 132.63 40.92 133.64 42.2"/><polygon class="c" points="131.06 38.24 131.49 38.16 130.6 37.25 131.06 38.24"/><path class="c" d="M101,221l.45.93C101.24,221.52,101.1,221.24,101,221Z" transform="translate(-90.56 -52.59)"/><path class="c" d="M98.91,213.88l-.23-.12C98.87,214.06,99,214.18,98.91,213.88Z" transform="translate(-90.56 -52.59)"/><path class="c" d="M127.67,81.22c-1.28,1-2.75,2-2.29,2.17l.63-.13A10.86,10.86,0,0,1,127.67,81.22Z" transform="translate(-90.56 -52.59)"/><path class="c" d="M96.57,152.86l.24-.41-.16-1.1Z" transform="translate(-90.56 -52.59)"/><path class="c" d="M98.1,154.3l-.69,1.89A17.9,17.9,0,0,0,98.1,154.3Z" transform="translate(-90.56 -52.59)"/><path class="c" d="M120.92,256l1.09.62C120.82,255.24,121.18,256,120.92,256Z" transform="translate(-90.56 -52.59)"/><path class="c" d="M186.49,57.66c-.59-.37-1.12-.69-1.62-1s-1-.46-1.44-.65C184.92,56.85,185.93,57.81,186.49,57.66Z" transform="translate(-90.56 -52.59)"/><path class="c" d="M95.72,219.58c.26.6.43.84.52.79C96,219.75,95.78,219.41,95.72,219.58Z" transform="translate(-90.56 -52.59)"/><path class="c" d="M179.63,54.72l.67.31a16.36,16.36,0,0,1,3.13,1,16.21,16.21,0,0,0-1.77-.88A7.36,7.36,0,0,0,179.63,54.72Z" transform="translate(-90.56 -52.59)"/><path class="c" d="M234.92,229.65c.07-.09.13-.2.19-.28S235,229.45,234.92,229.65Z" transform="translate(-90.56 -52.59)"/><path class="c" d="M249.27,188.34c0,.45,0,1.16-.05,1.84A12.14,12.14,0,0,0,249.27,188.34Z" transform="translate(-90.56 -52.59)"/><path class="c" d="M210.14,75.58c.7.73.15.09,0,0Z" transform="translate(-90.56 -52.59)"/><path class="c" d="M212,80.39c-.18-.13-.33-.21-.42-.17A.74.74,0,0,1,212,80.39Z" transform="translate(-90.56 -52.59)"/><path class="c" d="M169.23,55.6h-.08C169.43,55.68,169.38,55.66,169.23,55.6Z" transform="translate(-90.56 -52.59)"/><path class="c" d="M211,76.84c-.22-.32-.48-.67-.77-1C210.36,76,210.59,76.29,211,76.84Z" transform="translate(-90.56 -52.59)"/><path class="c" d="M211,76.55l.56.69C211.73,77.29,211.7,77.16,211,76.55Z" transform="translate(-90.56 -52.59)"/><path class="c" d="M209.18,74.56c.39.42.74.83,1.07,1.24-.12-.17-.15-.25-.11-.22Z" transform="translate(-90.56 -52.59)"/><path class="c" d="M179.88,282.32h.21C181,282,180.59,282.06,179.88,282.32Z" transform="translate(-90.56 -52.59)"/><path class="c" d="M117.24,105.09l0-.1-.08.12Z" transform="translate(-90.56 -52.59)"/><path class="c" d="M115.84,108.31a6.1,6.1,0,0,1,1.35-3.2l-1.67.4C115.6,106.44,115.73,107.39,115.84,108.31Z" transform="translate(-90.56 -52.59)"/><path class="c" d="M108.05,237.37,107.3,235c1.89,2.32,2.64,4.28,2.11,2-.66.15-1.82-1.89-2.83-4-.5-1.06-1-2.12-1.46-2.91s-.84-1.31-1.19-1.25l-.34-1.59c.16.43.26.46.42.89-.56-3.12-1.82-1.77-3-5.65-.39-1.36-.49-2.35,0-1.49l-1.25-2.89c-.24-.88.05-.73.29.14-.24-.75-.51-1.5-.74-2.26l-.66-2.3.05,0A23.28,23.28,0,0,1,97.29,211c-.07-1.24.26.56.36.22l-.88-2.52c.12-1.13.92.94,1.25,2.74a3.32,3.32,0,0,0-.14-2.72A11.17,11.17,0,0,1,97,204l.59,2.42c.51-1.72-.17-3.56-.06-6.4-.23.69-.28,5.72-1.12,3a9.32,9.32,0,0,0-.16-1.42,13,13,0,0,0-.45-1.94c.48-.08.16-1.56-.09-3.43l.65.06c-.35-2-.66-1.81-1-3-.14-2.27.37-2.77.76-3.32,0-3.62-.69,2.54-1-1.75,0-.76,0-1.46,0-2.14s0-1.34,0-2c-.05-1.36-.28-2.8-.34-4.62.33-2.12.37.38.59-.37l-.41-1.9c0-.46.19-.31.26-.22-.09-1.6-.68-.18-.62-2.69-.32-.37.06-1.64.46-3.19a14.8,14.8,0,0,0,.71-5c.28-.73.34.42.62.23,0-2.15.1-3.06.12-3.88s0-1.56,0-3.36c.32-.95.68-1.9,1-2.85-.92,2.06-.9-.8-.84-3.33-.39.71-.73,1.33-.92,1.75.15-1.32.34-2.64.56-4,.22-.44.34,0,.44.69l0-.74c.57-1.32.75-.51.85.55l-.72,1.29c.14,1,.4,2,.79,1.91a7.21,7.21,0,0,1,.11-1.3c0,.27.1.45.19.35a3.83,3.83,0,0,0,0-1.2l.9-.7-.22-.28c.57-1.62,1.08-3.25,1.71-4.84.3-3.71.17-7.12,1.85-12.76,0,1.55.71.58,1.26.86-1.18,1.28-1.19,4.36-2.22,7.2.54-1.48.72-1.06.7-.65.37-1.76.67-3.55,1.1-5.3.44.28.74-1,1.4-2.21-.64.33-.47-.67-.07-2s1.1-3,1.35-4.12c.37,0,.49.61-.55,3.07,1.78-2.46.25-4,2-6.43-.25.61-.43.91-.38,1.22.32-1.53,2-4.88,1.92-3.95l-.25.6C110.26,118,114.06,110,113.7,109a3.36,3.36,0,0,1,.67,1.29l.55-4.1c.21-1.36.44-2.72.67-4.1.3,1,3.1-.45,1.68,2.88a20,20,0,0,0,2.21-3.9c-.46.55-1.81,1-1.38.11a36.18,36.18,0,0,0,3.61-3.77c-.68.82-1-.79-.09-2.17,0,.31,1,.49.79,1.07.45-1.36.87-2.74,1.34-4.1-.42,1,.68.68,1.48.1-.42.24,2-2.94,2.61-3.88-.42.42-.83.84-1.23,1.28,2.88-3.67,1.42-4.71,4.4-8.34-.18.6.25,2,1.82.23a21.38,21.38,0,0,1,3.54-8.86c.26-.12.51-.24.79-.35l2-2.55c-.86,2-3.39,7.28-4.71,10.06,1.34-1.15.6-.13,2.29-2.1.43-.24.27.1-.05.57a15.49,15.49,0,0,1-1,1.39c1.33-1.51,2.79-2.89,4.18-4.33-.68-.28,2.77-3.73,2.23-4-1.39,1.72-2.8,3.4-4.09,5.19-.34-.12,0-1.15.73-2.53a20.71,20.71,0,0,1,1.55-2.21c.32-.39.65-.79,1-1.18s.77-.74,1.18-1.09c1-.55.2,1.43.43,1.53A14.5,14.5,0,0,1,146,68c-.38.48-.78.94-1.14,1.45a12.71,12.71,0,0,0,2.26-2.26A7.12,7.12,0,0,1,150,65.07c.8-.59,2.87-1,2.79-1.37-1.73.21-3.4-1.53-2.78-2.63.17-.07,1.4-.67,2.74-1.26a25.2,25.2,0,0,1,3.45-1.13c.89-.08.46.48.06,1.1s-.82,1.24-.1,1.13c0-.18.63-.84,1-1,1-.29-.13.69,1.83-.31,0-.89,4.22-1.5.73-1,2-.89,2.21-.73,4.65-1.32-.43-.1,0-.67.92-1.15a8.9,8.9,0,0,1,3.4-1c-.13.17.38.4.62.51a8.5,8.5,0,0,1,1.63.12l1.46.23c.47.08.92.15,1.35.24l1.27.33c.83.24,1.67.4,2.52.7s1.76.59,2.78.9c.33.28,2.15,1.22,1.24,1.18a8.43,8.43,0,0,1,2.43.58c1,.81.35.52-.38.21s-1.59-.53-.84.14c.08-.07.33-.07.68,0s.8.23,1.3.4c1,.36,2.2.77,3.06,1.16,0-.21-.31-.45-.7-.71a12.15,12.15,0,0,0-1.51-.7c-.58-.24-1.21-.46-1.8-.66s-1.18-.31-1.63-.42c.27-.8,3.76-.5,7.95,1.5,1.65.79,1.88,1.18,1.82,1.3s-.44.08-.15.2a29.52,29.52,0,0,0,5.43,3,11.53,11.53,0,0,1,4.31,3.15c1.31,1.92-.63.87-.52,1.5a25,25,0,0,1-2.69-2.38,14.07,14.07,0,0,0-2.14-1.95c.6.56,1.22,1.09,1.79,1.69a19.15,19.15,0,0,1-3.25-2.25,14.25,14.25,0,0,0,2,1.75c1,.77,2.1,1.77,3.36,2.8s2.49,2.26,3.65,3.42,2.22,2.32,3,3.35c.75.56,2,1.61,1.61.91l-1.16-1.17c-.7-1.42,2.53,1.89,1.27.21a25.81,25.81,0,0,1,5.52,5.61l-.12.84a2.64,2.64,0,0,0-.53-1,7.58,7.58,0,0,0-1.17-1.33c1.09.81,2.32,4.26,3.83,4.9l-1-2a29,29,0,0,1,5.2,5.85c-.21-1.4-.42-.49-1-2.52.14,1-.89-.5-1.85-1.86s-1.94-2.52-1.46-1.15a8.74,8.74,0,0,0-1.3-2.61,18.46,18.46,0,0,1-1.77-2.89c-.1.2.31,1-1.13-.89a5,5,0,0,1-.48-.27l-.09-.13.07.11c-.09,0-.1-.06,0,0a3.33,3.33,0,0,1,.55,1.12,16.78,16.78,0,0,1-2.34-2A23.33,23.33,0,0,0,207,74c-.91-1.06.58.25.2-.44l-1.59-1.08c.2-.46-2.12-3.16.41-1-.68-.72-1.42-1.39-2.15-2.07a22.12,22.12,0,0,0-2-2.15,20.08,20.08,0,0,0-2.18-1.69c-1-1-3.16-1.75-1.94-1.32-1.32-.86-2.62-1.73-4-2.48l0-.12C189.84,59,185.16,57.44,180.3,55c-.78-.18-1.57-.35-2.49-.59s-2-.4-3.28-.75l-.44-.49c-1.05-.05-2.55-.38-4-.55s-2.9-.15-3.33.16A7.84,7.84,0,0,0,164,52.7c-.57.1-1.19.24-1.84.39a12,12,0,0,0-2,.59l-2,.75c-.66.25-1.23.59-1.82.87l-1.66.8c-.5.27-.95.52-1.37.72l.13.51c-.55.3-1.08.6-1.61.92s-1,.69-1.55,1.06l-1.6,1.17c-.53.43-1.07.9-1.65,1.39l.42.25c-1.9,1.77-5.39,3.88-8.34,6.71.07-.33.88-1,1.48-1.4a14.42,14.42,0,0,0-1.54,1c-.47.41-.93.84-1.37,1.29a29.09,29.09,0,0,0-2.48,2.85c-.77,1-1.53,2-2.29,2.9a17.09,17.09,0,0,1-2.36,2.5,10.47,10.47,0,0,1-1.68,2,2.22,2.22,0,0,0,.15-.23l-.29.35c-.36.33-.74.66-1.13,1a11.11,11.11,0,0,0,1-.84,32.91,32.91,0,0,0-1.94,2.75l-.7.13-.16.24c-.88.88-.41.93.27.63a16,16,0,0,0-.75,1.49c-1.24.33-1.69,2.8-3.14,3.44-.19.89-3.22,5.38-2.85,6.39-.12,0-.36.26,0-.31a14.62,14.62,0,0,0-2.05,3.43l-.83.19c-.3,1-.57,2-.82,3-1.23,1.4-1.8,2-1.3.15-1.56,4.18-1.51,3.26-2.64,6.89l-.26-.35c-.64,1.18-1.09,3.34-1.74,3.92-1,1.16-2.64,4.49-4.37,8.41s-3.54,8.45-5.12,12c1.61-1-1.7,3.19-.91,3.79-.39.34-.87,1.31-.72.05a38.2,38.2,0,0,1-1.47,4.54,12,12,0,0,0-.71,3.81c-.39.36-.16-.92-.43-.58a4.11,4.11,0,0,1-.38,1.62c-.27.35-.07-.61,0-1.25a8.27,8.27,0,0,0-.43,3.79,1.76,1.76,0,0,0,.87,1.2,6.92,6.92,0,0,0-.84,4.43c-.4.63-.91,1.73-.49-.73-.16.68-.7,2.76-1.12,4.7s-.59,3.77-.29,3.89a6.88,6.88,0,0,0-.36,2.29c-.43,3.11-.6,3.37-.86,6.45l.19-.84c.65,1.3-.07,2.57-.22,5.05l-.07-.08a17,17,0,0,0-.38,4.06,25.27,25.27,0,0,1-.33,4l.49-.3c.51.27.35,1.5.11,3.09a19.36,19.36,0,0,0-.17,5.16l.23-1.19c.36,1.75-1,5.06-1,6.9-.06.4-.2-.61-.31-1.15-.12,2.4.13,2.53.36,2.51s.57-.21.87,1.52c-.26.69-1-.73-.72,1.65-.15,1.24,2.15,6.63,2.27,9.9.1-.76.21-1.5.74,0,.64,2.4.69,6.83,2.19,8.75,0,.33,0,.46-.06.49.19.45.42,1,.67,1.68s.58,1.33.87,2a14.81,14.81,0,0,0,1.61,3,4.24,4.24,0,0,0,.42,2.63c.21.56.47,1.16.76,1.77s.65,1.22,1,1.83c1.3,2.42,2.67,4.54,2,4.87.46.87.91,1.74,1.38,2.6l1.48,2.55-.21-.06a19.36,19.36,0,0,0,2.24,3.48,14,14,0,0,0,1.63,1.68c.39.78-.08.33-.19.32,2.84,4.71,3.25,5.14,6.7,8.27l-.08.68c.53.38,1.58,2.08,3.2,4a34.64,34.64,0,0,0,2.68,3.05,23,23,0,0,0,3.16,2.79c-.08,0-.23,0-.6-.23,2.45,1.85,5,4.48,7.5,6.49a22.06,22.06,0,0,0,3.5,2.5,4.81,4.81,0,0,0,2.7.83l3.72,1.58c-4.45-2.65,1-.31-.66-1.61a14.41,14.41,0,0,1,1.39.82,13.07,13.07,0,0,1,1.2.8c.59.47.68.71-.47.21l-.31-.25c-.62.22.79,1,2.31,1.79s3.24,1.39,3,1.68a68.3,68.3,0,0,0,14.73,3.94,49.88,49.88,0,0,0,14.89,0c-.41-.16-.82-.38-1.22-.57,1.12-.08,2.21-.37,3.32-.55.9,0,1.29.33-1.1.77a5.77,5.77,0,0,0,2.47-.53,4.21,4.21,0,0,0,1.44-.86c4.64-1-1.56,1.32-.16.95l1.9-.58-.46,0c.74-.36,1.11-.62,1.65-.9a14.81,14.81,0,0,1,2.59-1.09c1.77-.48,1.06.12,1.73-.13,0,0,.25,0,1-.42,1.31-.56,2.65-1.07,3.91-1.73-.6.08-1.18.18-1.77.24,1.56-1.09,3.55-1.78,1.52-1.47,1.5-.18,5.05-1.95,8.17-4.13s5.92-4.5,6.68-5c.86-1,1.8-1.9,2.75-2.88s2.06-1.9,3.16-3.05c-.64.48-1.42.36.53-1.54.13.82,1.14,0,2.33-1.12a20,20,0,0,1,3.66-3.24c-.88.57.33-1,1.41-2.44s1.94-2.89.67-1.9c1.45-1.77.49.19,1.77-1,2.81-4.69,7.05-9.79,10-15.92-.11-.18-.86.71-.44-.7.78-.93,1.61-1.84,2.35-2.81.48-1.26-.42-1.54,1.15-3.51-.28.26-.7.63-.38-.2a83.11,83.11,0,0,0,6.58-18.94c1.55-6.59,2.63-13.26,3.88-19.93-.51,1.79-.4.58-.34-.81-.12.9-.43-.05-.68.11.28-1.85.64-3.71.86-5.58a9.69,9.69,0,0,1-.37-3.47c0-1.45-.15-2.85-.46-3.12l.21,1.76c-.44-1.16-.8-.31-1.2.76s-.89,2.39-1.37,2.22c.44,1.29.14,3-.24,4.89a24.58,24.58,0,0,0-.4,3,10.56,10.56,0,0,0,.11,3.16c-.28.91-.24-.83-.51-.35a6.39,6.39,0,0,1,.22,1.91,22.05,22.05,0,0,1-.45,2.84l-.07-.28-.3,2.34-.39,2.06c-.28,1.31-.49,2.52-.85,3.72l-1.07,3.82c-.43,1.37-.92,2.89-1.49,4.68l.61-.41a12.24,12.24,0,0,1-1.12,2.51c.07,1,.42-.09.79-1.19s.67-2.24.84-1.31a10.54,10.54,0,0,0-1.19,2.49c-.44,1.12-.82,2.47-1.32,3.77s-.95,2.58-1.41,3.59a5.22,5.22,0,0,1-1.34,2c-.94,2.3.78-.47-.16,1.84l-.52.49.08.73c-.73,1.46-1.41,2.06-1.66,2,.19-.35.4-1.06.55-1.45a25.4,25.4,0,0,0-1.69,3.46c-.54,1.2-1,2.26-1.19,2.55l1.24-2c-2.73,6.24-7.4,13.1-10.9,18.66l.47-.27a19.35,19.35,0,0,1-2.79,3.64c-.72.79-1.57,1.54-3.32,3.67l.09-.18a16.13,16.13,0,0,1-2.59,3.17c.78-1.18-2.18,1.52-1.11,0a29.41,29.41,0,0,0-2.47,2.95,10.25,10.25,0,0,1-1.34,2.17l-.88.26a9.57,9.57,0,0,1-2.81,3c1.61-1.62-1.74.61,0-1.25a35.45,35.45,0,0,0-3.18,2.07c-.91.64-1.66,1.25-2.34,1.8a7.85,7.85,0,0,1-3.92,2c-1.78,2.23,4.56-2,3.39-1.09,1.26-.36-1.48,1.78-3.12,2.6s-3.36.36-7.54,2.14c.41-.18.41-.27.83-.44a20.84,20.84,0,0,0-2.39.95,8.25,8.25,0,0,1-2.73.83c-1,.91-2.62.69-2.75,1.55,1.33-.46,2.69-.82,4-1.35-2.19.92-4.17,2.45-8.19,2.72a12.49,12.49,0,0,1,2.17-.92c-1.17,0-2.15.62-3.37.49.05-.21.4-.36.91-.49s1.2-.31,2-.46,1.58-.3,2.35-.55a12.57,12.57,0,0,0,2.06-.84,10.53,10.53,0,0,0-2.58.76c-.85.25-1.4.37-.87-.17a5.34,5.34,0,0,1-3.15,1c-.64,0-1.31.08-2,.19a17.37,17.37,0,0,0-2.18.5l.17-.48a14,14,0,0,1-2.37.38l1.59-.68a8,8,0,0,1-3.58.05,22.84,22.84,0,0,0-3.49-.37c1.22.16,1.91.15,2.27.24s.41.16.37.25-.54.4.51.61a10.19,10.19,0,0,1-3.27-.12,6.42,6.42,0,0,1-1.63-.61,15.38,15.38,0,0,0-5.25-1.6c.9.17,3.35.93,1.88.9a14.45,14.45,0,0,1-3.61-1.37c-2.2-.51-2.05-.42-1.62-.1s1.2.64.22.54c-1.32-1-2.2-.48-4.2-.94l.16-.46c-2.37-1.13-2.78-1-3.14-.92s-.67.27-2.73-.95l2.09.27-2.29-.92.7-.27c-.65-.2-1.18-.37-1.64-.55s-.84-.4-1.23-.61c-.75-.43-1.49-.88-2.57-1.62.34.62-.74.57-2.73-.69-.6-.55-.34-.52-.3-.58s-.13-.16-1.48-1.11a4.35,4.35,0,0,1,2.62,1.48c.21-.05.78.14,1,.09a18.94,18.94,0,0,0-2.36-1.72L135,269.52a8.46,8.46,0,0,1,1,.84l-2.14-1.13L131.73,268c-.47-.61.09-.35.64-.09a26.61,26.61,0,0,1-2.57-1.72c.54-.05.71-.38,2.39.72-1.28-.8-2.48-1.74-3.71-2.64a10,10,0,0,0-.69-1c-.25-.41-.43-.75-.17-.59a29.07,29.07,0,0,0-3.31-3,20.07,20.07,0,0,1-3.53-3.66,4.32,4.32,0,0,1-1-.82c-1-1.22-1.77-2.51-2.66-3.79a37.81,37.81,0,0,0-3.11-4c-.21-.71-.41-1.43-.57-2.16-1.69-2.4.78,2.93-2-1.09-1-1.42-1-1.78-.89-1.92s.49-.06.28-.64a34.51,34.51,0,0,1-2.19-2.67,14.75,14.75,0,0,1-2-4.06C107.27,235.73,107.56,236.52,108.05,237.37ZM96.4,203.07c.22.68.76,2,.57,2.57C96.29,205,96.44,204.28,96.4,203.07Zm2.38-55.28a5.29,5.29,0,0,1-.65,2.19A12,12,0,0,1,98.78,147.79ZM202,68.07l-.08,0C200.77,66.83,201.18,67.26,202,68.07Zm2.38,2.46c.3.18.33.12.27,0a5.74,5.74,0,0,1-1.45-1.2C203.28,69.56,203.55,69.92,204.37,70.53ZM190.92,282.34l-.66.15C191.59,281.76,191.25,282.05,190.92,282.34Z" transform="translate(-90.56 -52.59)"/><path class="c" d="M97.92,154.12a.5.5,0,0,1-.32.24C97.63,154.65,97.72,154.67,97.92,154.12Z" transform="translate(-90.56 -52.59)"/><path class="c" d="M120.71,255.92l.07.09a.27.27,0,0,0,.14,0Z" transform="translate(-90.56 -52.59)"/><path class="c" d="M157.37,60.54a7.92,7.92,0,0,1-1.24.37C156.16,61.05,156.45,60.94,157.37,60.54Z" transform="translate(-90.56 -52.59)"/><path class="c" d="M217,83.5l-1.44-1.66a8.74,8.74,0,0,1,1.08,1.66C216.67,83.39,216.54,83,217,83.5Z" transform="translate(-90.56 -52.59)"/><path class="c" d="M224.68,100.81c.2.24.33.57.53.81l.16-.19C224.7,100.28,224.08,99.56,224.68,100.81Z" transform="translate(-90.56 -52.59)"/><path class="c" d="M216.88,86.06c-.23.38.66,1.4,1.6,2.59,0-.08-.11-.15-.15-.22C219.05,88.47,218,87.26,216.88,86.06Z" transform="translate(-90.56 -52.59)"/><path class="c" d="M218.69,88.92a10.79,10.79,0,0,1,.8,1.15C219.76,90.09,219.23,89.56,218.69,88.92Z" transform="translate(-90.56 -52.59)"/><path class="c" d="M207.64,73.38c.43.59.7,0,.86.38C209.45,74,204.63,70.75,207.64,73.38Z" transform="translate(-90.56 -52.59)"/><polygon class="c" points="125.94 35.25 126.04 34.52 125.22 34.08 125.94 35.25"/><path class="c" d="M209.46,78.34c.51.61,1,1.27,1.45,1.91,0-.08.27.12.54.38C210.52,79.49,209.55,78.18,209.46,78.34Z" transform="translate(-90.56 -52.59)"/><path class="c" d="M211.45,80.63a12.64,12.64,0,0,0,1.3,1.43C212.48,81.75,211.89,81.07,211.45,80.63Z" transform="translate(-90.56 -52.59)"/><polygon class="c" points="123.89 32.71 123.55 32.09 122.54 30.73 123.89 32.71"/><path class="c" d="M189.93,61.63l-2.36-1.16c-.31,0,.26.46,1.14.88C189.31,61.55,190.19,62,189.93,61.63Z" transform="translate(-90.56 -52.59)"/><path class="c" d="M195.69,67.14a3.35,3.35,0,0,1-.69-1l-.43.45Z" transform="translate(-90.56 -52.59)"/><path class="c" d="M189.4,63.07c-.31,0-3.46-1.38-.63.17C189.08,63.2,191.36,64.38,189.4,63.07Z" transform="translate(-90.56 -52.59)"/><path class="c" d="M153.1,61a6.59,6.59,0,0,1,.57-.34l-.61-.83C153.07,60.18,153.08,60.56,153.1,61Z" transform="translate(-90.56 -52.59)"/><path class="c" d="M130.32,86.27c2-2.25-.06-1,1.88-2.92.26-.71-1.59,1.6-1.3.9C130,85.83,129.3,86.55,130.32,86.27Z" transform="translate(-90.56 -52.59)"/><path class="c" d="M130.9,84.25c.16-.26.31-.53.47-.83A6.38,6.38,0,0,0,130.9,84.25Z" transform="translate(-90.56 -52.59)"/><path class="c" d="M249.9,180.92c.08-.68.08-1.36.13-2l-.27,1.33C249.82,180.44,249.86,180.68,249.9,180.92Z" transform="translate(-90.56 -52.59)"/><path class="c" d="M249,177.07l.62-.52-.65-1.17A5.36,5.36,0,0,1,249,177.07Z" transform="translate(-90.56 -52.59)"/><path class="c" d="M97,197.56l-.18-.13a4.17,4.17,0,0,0,0,1.67Z" transform="translate(-90.56 -52.59)"/><polygon class="c" points="11.85 170.55 11.71 170.12 11.44 171.11 11.85 170.55"/><path class="c" d="M112.43,242.62c-.47-.76-1.07-1.62-1.5-2.41C112,241.86,111.93,243.2,112.43,242.62Z" transform="translate(-90.56 -52.59)"/><g class="d"><g class="d"><path d="M170.76,163.11c7.92-6.64,15-15,24.73-20a34,34,0,0,1-1.58,5.24,11.45,11.45,0,0,1-4.26,4.94,22.82,22.82,0,0,0-3.84,3.89c-3.29,4-6.58,7.86-10.05,11.88,8.16,9.44,18,17.85,24,29.42-.55-.49-1.1-1-1.71-1.58-.55.3-1.09.61-2,1.16-8.53-7.8-17.11-15.66-25.82-23.7-.49.43-1.16.91-1.71,1.46-7.25,7.31-14.44,14.56-21.68,21.81a11.53,11.53,0,0,1-2.56,1.89c-2.07,1.15-4.14-.06-3.84-2.44A8.23,8.23,0,0,1,142,193c3.29-3.9,6.7-7.74,10.18-11.45,4-4.39,8.16-8.65,12-12.73-2.62-2.8-5.55-6.09-8.59-9.2-4.57-4.69-9.2-9.26-13.77-14a3.7,3.7,0,0,1-1-1.58c-.19-.86-.55-2.13-.13-2.68a3.32,3.32,0,0,1,2.74-1.1,8.87,8.87,0,0,1,4.09,1.65c4.08,3.41,8,7.06,11.93,10.66,3.72,3.41,7.44,6.94,11.33,10.53" transform="translate(-90.56 -52.59)"/><path class="e" d="M170.76,163.11c7.92-6.64,15-15,24.73-20a34,34,0,0,1-1.58,5.24,11.45,11.45,0,0,1-4.26,4.94,22.82,22.82,0,0,0-3.84,3.89c-3.29,4-6.58,7.86-10.05,11.88,8.16,9.44,18,17.85,24,29.42-.55-.49-1.1-1-1.71-1.58-.55.3-1.09.61-2,1.16-8.53-7.8-17.11-15.66-25.82-23.7-.49.43-1.16.91-1.71,1.46-7.25,7.31-14.44,14.56-21.68,21.81a11.53,11.53,0,0,1-2.56,1.89c-2.07,1.15-4.14-.06-3.84-2.44A8.23,8.23,0,0,1,142,193c3.29-3.9,6.7-7.74,10.18-11.45,4-4.39,8.16-8.65,12-12.73-2.62-2.8-5.55-6.09-8.59-9.2-4.57-4.69-9.2-9.26-13.77-14a3.7,3.7,0,0,1-1-1.58c-.19-.86-.55-2.13-.13-2.68a3.32,3.32,0,0,1,2.74-1.1,8.87,8.87,0,0,1,4.09,1.65c4.08,3.41,8,7.06,11.93,10.66C163.15,156,166.87,159.52,170.76,163.11Z" transform="translate(-90.56 -52.59)"/></g></g></svg>