<?xml version="1.0" encoding="utf-8"?>
<!-- Generator: Adobe Illustrator 24.2.0, SVG Export Plug-In . SVG Version: 6.00 Build 0)  -->
<svg version="1.1" id="Layer_1" xmlns="http://www.w3.org/2000/svg" xmlns:xlink="http://www.w3.org/1999/xlink" x="0px" y="0px"
	 viewBox="0 0 267.8 212" style="enable-background:new 0 0 267.8 212;" xml:space="preserve">
<style type="text/css">
	.st0{fill:#FFFFFF;}
	.st1{opacity:0.85;}
</style>
<g>
	<circle class="st0" cx="89.4" cy="62.8" r="29.6"/>
	<g>
		<g>
			<g>
				<g class="st1">
					<g>
						<path class="st0" d="M74.6,36.8c-0.5,0.3-1.1,0.6-1.6,1c0.3-0.1,0.6-0.3,0.9-0.4C74.2,37.2,74.4,37,74.6,36.8z"/>
						<path class="st0" d="M71.6,38.8c-0.1,0.1-0.2,0.1-0.3,0.2c-0.1,0.1-0.1,0.1-0.2,0.2L71.6,38.8z"/>
						<path class="st0" d="M69.1,40.9c0.4-0.4,0.8-0.8,1.2-1.1C70,40.1,69.6,40.4,69.1,40.9z"/>
						<path class="st0" d="M71.1,39.3C70.9,39.3,70.8,39.4,71.1,39.3c0-0.1,0-0.1,0-0.1c-0.3,0.2-0.5,0.4-0.8,0.6
							C70.6,39.6,70.9,39.4,71.1,39.3z"/>
						<path class="st0" d="M71.1,39.3c0.2-0.1,0.4-0.2,0.5-0.3C71.5,39,71.3,39.1,71.1,39.3z"/>
						<path class="st0" d="M71,40.4c-0.2,0.2-0.3,0-0.8,0.5c-0.5,0.5-1,1-1.5,1.5c-0.4,0.5-0.9,1-1.3,1.5c-0.4,0.5-1.2,1.1-1.5,1.7
							c-0.2,0.3-0.5,0.7-0.8,1.2c-0.2,0.5-0.5,1-0.7,1.4c-0.4,0.8-0.5,1.1,0.1,0.2c1.7-2.9,3.1-4.6,5.2-6.7
							C70.2,41.2,70.6,40.8,71,40.4l1.5-1.2c0.2-0.2,0.5-0.4,0.7-0.6l0.8-0.5c0.5-0.3,1-0.7,1.6-1c0.6-0.3,1.2-0.6,1.8-0.9
							c-0.4,0.2-0.8,0.3-1.2,0.5c-0.4,0.2-0.9,0.4-1.3,0.6c-0.6,0.3-1.2,0.7-1.8,1.2C72.5,39.2,71.8,39.8,71,40.4z"/>
						<path class="st0" d="M87.8,33.1c-0.3,0-1,0.1-1,0.1c-0.7-0.1-1.5,0.1-2.2,0.2c-0.4,0.1-0.7,0.1-1.1,0.2
							c-0.4,0.1-0.7,0.2-1.1,0.3c0.2,0,0.5,0,0.7-0.1c0.8-0.2,0.9-0.3,0.2-0.2c0.9-0.1,1.7-0.2,2.6-0.3c0.8-0.1,1.7-0.1,2.5-0.2
							C88.3,33.2,88.3,33.1,87.8,33.1z"/>
						<path class="st0" d="M89.4,33.2c-0.3,0-0.7,0-1,0.1c0,0,0,0,0,0C88.7,33.2,89.1,33.2,89.4,33.2L89.4,33.2z"/>
						<path class="st0" d="M64.8,46.2c-2.4,3.6-3.9,7.5-4.6,11.4c0,0.3,0,0.5-0.1,0.9c-0.1,0.3-0.2,0.6-0.2,0.9
							c-0.1,0.6-0.1,1.2-0.1,1.7c0,0.2,0,0.4,0,0.6l0,0c0,0.3,0.1,0.2,0.1,0c0-0.2,0.1-0.4,0.1-0.6c0,0.1-0.1,0.4-0.1,0.6
							c0,0.3-0.1,0.6-0.1,0.9c0,0.5,0.1,1.1,0.1,1.6c-0.1-0.6-0.1-1.2-0.1-1.6c0-0.3,0-0.7,0-1c0-0.1,0-0.2,0-0.3
							c-0.1,1.3,0,2.6,0,4c0,0.3,0.1,0.6,0.1,0.8c0.2,0.9,0.4,1.9,0.3,2.5c0.1,0.2,0.1,0.5,0.2,0.7l0-0.1c0,0.1,0,0.2,0,0.3
							c0.3,1,0.4,2,0.8,2.9c0.3,0.6,0.5,1.2,0.8,1.8c0,0,0,0.1,0.1,0.2c0,0.1,0.1,0.3,0.1,0.4c0.2,0.2,0.4,0.6,0.6,1
							c-0.2-0.5-0.3-1-0.5-1.4c-0.2-0.7-0.7-1.3-0.8-2.1c0.1,0.8,0.7,1.5,0.8,2.1c0.1,0.4,0.3,0.9,0.5,1.4c0.4,0.9,1,1.9,1.4,2.8
							c-0.4-0.5-0.7-1-0.9-1.4c-0.3-0.5-0.4-0.9-0.5-1.4c-0.2-0.4-0.4-0.7-0.6-1c0-0.1-0.1-0.3-0.1-0.4c0-0.1-0.1-0.2-0.1-0.2
							c-0.3-0.6-0.5-1.2-0.8-1.8c0.3,0.9,0.6,1.9,1.1,2.8c0.4,0.9,0.8,1.8,1.4,2.7c1.6,2.8,3.7,5.4,6.1,7.5c2.4,2.1,5.1,3.8,8,5.1
							c5.9,2.4,12.6,3.2,19.2,1.5c7.2-1.8,13.4-6.1,17.5-11.9c2-2.9,3.5-6,4.4-9.3c0.9-3.3,1.3-6.7,1-10.1c-0.2-3.4-1-6.7-2.3-9.9
							c-1.3-3.2-3.2-6.2-5.5-9c-1.8-2.1-4.8-4.8-8.4-6.6c-3.5-1.9-7.4-2.9-10-3.1c-0.4,0-0.8-0.1-1.2-0.1c-0.4,0-0.7,0-1,0
							c-0.6,0-1,0.1-1.4,0.1c-0.7,0.1-0.8,0.3-0.8,0.4c0.1,0.3,1,0.6,1.2,0.7c0.5,0.1,1,0.3,1.5,0.3c0.5,0.1,1,0.3,1.5,0.4
							c0.5,0.1,1,0.2,1.5,0.3c0.5,0.1,1.1,0.3,1.6,0.5c2.3,0.6,5.1,1.6,8.4,4.1c-2.4-1.6-1.4-1.2,0.7,0.1c2.1,1.3,4.8,4.1,6.2,6.4
							c2,3.3,4.1,7.5,5,12.2c0.9,4.7,0.7,10-1,14.4c-0.2,0.5-0.4,1.1-0.6,1.7c-0.2,0.6-0.5,1.1-0.8,1.7c-0.1,0.3-0.3,0.6-0.4,0.9
							c-0.2,0.3-0.3,0.6-0.5,0.8c-0.4,0.6-0.7,1.2-1.1,1.7c-4.3,5.9-10.4,10-17.4,11.5c-6.9,1.5-14.6,0.4-21-3.7
							c-3.4-2.2-6.1-4.6-8.2-7.4c-1.5-2-2.6-4.5-3.3-6.4c-0.6-1.5-0.9-3-1.3-4.3c-0.2-1.4-0.6-2.7-0.6-4.1c0,1.5,0.4,2.8,0.6,4.1
							c0.2,0.6,0.4,1.3,0.5,2c0.2,0.7,0.4,1.4,0.7,2.2c0.4,1,0.2,0.7-0.2-0.1c-0.2-0.4-0.4-0.9-0.6-1.4c-0.2-0.5-0.3-1-0.4-1.3
							c-0.1-0.3-0.2-0.7-0.2-1.1c0-0.4,0-0.8-0.1-1.1c-0.1-0.7-0.2-1.3-0.4-2c-0.1-0.7-0.1-1.4-0.2-2.1c-0.1-0.6,0.1-0.6,0.1-0.9
							c0-1,0-1.9-0.1-2.7c0-0.8,0.1-1.5,0.2-2.2c0.1-1,0.5-1.8,0.7-2.6c0.1-0.5,0.3-1,0.5-1.6c0.1-0.3,0.2-0.7,0.3-1.1
							c-0.2,0.3-0.3,0.3-0.4,0.4c0.2-0.5,0.5-1.2,0.7-1.7c-0.2,0.5-0.5,1.2-0.7,1.7c0.1-0.1,0.2-0.1,0.4-0.4
							c0.8-2.5,2.1-5.4,3.9-7.7l0,0c-1,1.3-1.9,2.7-2.9,4.2c0.2-0.3,0.3-0.5,0.3-0.4c0,0-0.1,0.3-0.3,0.7l-0.4,0.5
							c0.2-0.3,0.3-0.7,0.5-1c0.2-0.3,0.4-0.7,0.6-1c0.4-0.6,0.8-1.3,1.3-1.8c0,0,0.3-0.6,0.5-0.8c0.3-0.4,0.4-0.3,0.5-0.3
							c0.2-0.3,0.4-0.5,0.6-0.8C66.2,44.5,64.8,46.2,64.8,46.2z"/>
						<path class="st0" d="M59.7,62.8c0-0.2,0-0.5,0-0.8L59.7,62.8l0,0.8l0.1,1.7C59.9,64.7,59.8,63.8,59.7,62.8z"/>
					</g>
				</g>
			</g>
		</g>
	</g>
</g>
<g>
	<g>
		<g>
			<g>
				<g class="st1">
					<g>
						<path class="st0" d="M89.7,24.7c0-0.1,0-0.1,0-0.2c0,0,0,0.1-0.1,0.1C89.6,24.7,89.7,24.7,89.7,24.7z"/>
						<path class="st0" d="M89.8,24.3C89.8,24.3,89.8,24.3,89.8,24.3C89.8,24.2,89.7,24.2,89.8,24.3C89.7,24.2,89.8,24.3,89.8,24.3z
							"/>
						<path class="st0" d="M89.7,23.9c0,0.1,0,0.1,0,0.2C89.7,24.1,89.7,24,89.7,23.9z"/>
						<path class="st0" d="M89.6,24.2c0,0,0.1,0,0.1,0c0,0,0,0,0,0c0,0,0-0.1,0-0.1C89.7,24.2,89.7,24.2,89.6,24.2z"/>
						<path class="st0" d="M89.6,24.2C89.6,24.2,89.6,24.3,89.6,24.2C89.6,24.3,89.6,24.2,89.6,24.2z"/>
						<path class="st0" d="M88.8,24.1c0,0,0.2,0,0.2-0.1c-0.1-0.2-0.2-0.3-0.2-0.5c-0.1-0.1,0.2-0.2,0.2-0.3
							c-0.1-0.2-0.4-0.6-0.4-0.4c0,0.4,0.1,0.7,0.1,1c0.1,0.3,0.2,0.6,0.3,0.9c0,0.1,0,0.2,0,0.2c0-0.1,0.1-0.2,0.1-0.3
							C89.2,24.6,88.8,24.4,88.8,24.1z"/>
						<path class="st0" d="M89.6,26.3c0,0-0.1-0.1-0.1-0.1c0.2-0.2,0.1-0.3,0-0.5c0,0-0.1,0.1-0.1,0.1c0,0.1,0.1,0.1,0.1,0
							c-0.1,0.2-0.2,0.4-0.1,0.6C89.5,26.4,89.6,26.4,89.6,26.3z"/>
						<path class="st0" d="M89.4,26.5c0,0,0-0.1,0-0.1c0,0,0,0,0,0C89.4,26.4,89.4,26.5,89.4,26.5C89.4,26.5,89.4,26.5,89.4,26.5z"
							/>
						<path class="st0" d="M89.5,23.1c0-0.5,0-1,0-1.4c0,0-0.1-0.1-0.1-0.1c0,0,0.1-0.1,0.1-0.1c0-0.1,0-0.1,0-0.2c0,0,0,0,0-0.1
							c0,0,0,0,0,0c0,0-0.1,0-0.1,0c0,0-0.1,0.1-0.1,0.1c0,0,0.1,0,0.1-0.1c0,0,0.1-0.1,0.1-0.1c0-0.1,0-0.1,0-0.2
							c0,0.1,0,0.1,0,0.2c0,0,0,0.1,0,0.1c0,0,0,0,0,0c0-0.2,0-0.3,0-0.5c0,0,0-0.1,0-0.1c0-0.1-0.1-0.2,0.1-0.3c0,0,0-0.1,0-0.1
							c0,0,0,0,0,0c0,0,0,0,0,0c0-0.1,0-0.2,0-0.3c0-0.1-0.1-0.2-0.1-0.2c0,0,0.1-0.1,0.1-0.1c-0.1,0-0.1-0.1-0.1-0.1
							c-0.1,0.1-0.2,0.1-0.2,0.2c-0.1,0.1,0.2,0.2,0,0.3c0.2-0.1-0.1-0.2,0-0.3c0-0.1,0.1-0.1,0.2-0.2c0-0.1,0-0.3,0.1-0.4
							c0.1,0.1,0,0.3-0.1,0.4c0,0.1,0.1,0.1,0.1,0.1c0,0-0.1,0.1-0.1,0.1c0,0.1,0.1,0.2,0.1,0.2c0-0.2,0-0.5,0.1-0.7
							c0.2-1.5,0.1-2.9,0.2-4.5c0.1-0.8,0.2-1.7,0.3-2.5c0.3-1.6,0-3,0.6-4.7C91,7,90.9,5.9,90.9,5.3c-0.4-0.8-1.4-0.4-1.5-0.3
							c-0.9,0.5-0.4,0.9-0.9,1.9c0.3-0.7,0.6,0.5,0,1.1c-0.9,0.9-0.2,2.3-0.4,3.4c-0.1,0.3,0,0.6,0,0.9c-0.3,1.8,0.1,3.4,0,5.3
							c0,0.5,0.2,0.9,0.3,1.3c0,0.3-0.1,0.6-0.1,0.9c0,0.4,0.1,0.7,0.2,1c0-0.4-0.1-0.6-0.1-1c0-0.3,0.3,0.2,0.4,0.4
							c0.1,0.1-0.2,0.2-0.2,0.3c0,0.2,0.1,0.3,0.2,0.5c0.1,0.1-0.2,0.1-0.2,0.1c0.1,0.2,0.4,0.4,0.3,0.6c0,0.1-0.1,0.2-0.1,0.3
							c0,0.1,0,0.1,0,0.2c0,0,0,0.1,0.1,0.1c0.1,0,0.2,0,0.3-0.1c0,0.1-0.1,0.2-0.1,0.2c0-0.1,0.1-0.2,0.1-0.2c-0.1,0-0.2,0-0.3,0.1
							c0.1,0.3,0.3,0.7,0.4,1c0,0,0,0,0,0c0-0.2,0-0.4,0.1-0.6c-0.1,0.1-0.1,0.1-0.1,0c0,0,0.1-0.1,0.1-0.1c0.1,0.2,0.1,0.4,0,0.5
							c0,0,0.1,0.1,0.1,0.1c0,0.1-0.1,0.1-0.2,0.1c0,0,0,0.1,0,0.1C89.3,23.4,89.5,23.1,89.5,23.1z"/>
						<path class="st0" d="M89.5,21.1C89.5,21.1,89.5,21.1,89.5,21.1c0,0,0-0.2,0.1-0.3C89.4,20.9,89.4,21,89.5,21.1z"/>
					</g>
				</g>
			</g>
		</g>
	</g>
</g>
<g>
	<g>
		<g>
			<g>
				<g class="st1">
					<g>
						<path class="st0" d="M89.7,119c0-0.1,0-0.1,0-0.2c0,0,0,0.1-0.1,0.1C89.6,119,89.7,119,89.7,119z"/>
						<path class="st0" d="M89.8,118.6C89.8,118.6,89.8,118.6,89.8,118.6C89.8,118.5,89.7,118.5,89.8,118.6
							C89.7,118.5,89.8,118.6,89.8,118.6z"/>
						<path class="st0" d="M89.7,118.2c0,0.1,0,0.1,0,0.2C89.7,118.4,89.7,118.3,89.7,118.2z"/>
						<path class="st0" d="M89.6,118.5c0,0,0.1,0,0.1,0c0,0,0,0,0,0c0,0,0-0.1,0-0.1C89.7,118.5,89.7,118.5,89.6,118.5z"/>
						<path class="st0" d="M89.6,118.5C89.6,118.5,89.6,118.6,89.6,118.5C89.6,118.6,89.6,118.5,89.6,118.5z"/>
						<path class="st0" d="M88.8,118.4c0,0,0.2,0,0.2-0.1c-0.1-0.2-0.2-0.3-0.2-0.5c-0.1-0.1,0.2-0.2,0.2-0.3
							c-0.1-0.2-0.4-0.6-0.4-0.4c0,0.4,0.1,0.7,0.1,1c0.1,0.3,0.2,0.6,0.3,0.9c0,0.1,0,0.2,0,0.2c0-0.1,0.1-0.2,0.1-0.3
							C89.2,118.9,88.8,118.7,88.8,118.4z"/>
						<path class="st0" d="M89.6,120.6c0,0-0.1-0.1-0.1-0.1c0.2-0.2,0.1-0.3,0-0.5c0,0-0.1,0.1-0.1,0.1c0,0.1,0.1,0.1,0.1,0
							c-0.1,0.2-0.2,0.4-0.1,0.6C89.5,120.7,89.6,120.7,89.6,120.6z"/>
						<path class="st0" d="M89.4,120.8c0,0,0-0.1,0-0.1c0,0,0,0,0,0C89.4,120.7,89.4,120.8,89.4,120.8
							C89.4,120.8,89.4,120.8,89.4,120.8z"/>
						<path class="st0" d="M89.5,117.4c0-0.5,0-1,0-1.4c0,0-0.1-0.1-0.1-0.1c0,0,0.1-0.1,0.1-0.1c0-0.1,0-0.1,0-0.2c0,0,0,0,0-0.1
							c0,0,0,0,0,0c0,0-0.1,0-0.1,0c0,0-0.1,0.1-0.1,0.1c0,0,0.1,0,0.1-0.1c0,0,0.1-0.1,0.1-0.1c0-0.1,0-0.1,0-0.2
							c0,0.1,0,0.1,0,0.2c0,0,0,0.1,0,0.1c0,0,0,0,0,0c0-0.2,0-0.3,0-0.5c0,0,0-0.1,0-0.1c0-0.1-0.1-0.2,0.1-0.3c0,0,0-0.1,0-0.1
							c0,0,0,0,0,0c0,0,0,0,0,0c0-0.1,0-0.2,0-0.3c0-0.1-0.1-0.2-0.1-0.2c0,0,0.1-0.1,0.1-0.1c-0.1,0-0.1-0.1-0.1-0.1
							c-0.1,0.1-0.2,0.1-0.2,0.2c-0.1,0.1,0.2,0.2,0,0.3c0.2-0.1-0.1-0.2,0-0.3c0-0.1,0.1-0.1,0.2-0.2c0-0.1,0-0.3,0.1-0.4
							c0.1,0.1,0,0.3-0.1,0.4c0,0.1,0.1,0.1,0.1,0.1c0,0-0.1,0.1-0.1,0.1c0,0.1,0.1,0.2,0.1,0.2c0-0.2,0-0.5,0.1-0.7
							c0.2-1.5,0.1-2.9,0.2-4.5c0.1-0.8,0.2-1.7,0.3-2.5c0.3-1.6,0-3,0.6-4.7c0.2-0.6,0.1-1.8,0.1-2.4c-0.4-0.8-1.4-0.4-1.5-0.3
							c-0.9,0.5-0.4,0.9-0.9,1.9c0.3-0.7,0.6,0.5,0,1.1c-0.9,0.9-0.2,2.3-0.4,3.4c-0.1,0.3,0,0.6,0,0.9c-0.3,1.8,0.1,3.4,0,5.3
							c0,0.5,0.2,0.9,0.3,1.3c0,0.3-0.1,0.6-0.1,0.9c0,0.4,0.1,0.7,0.2,1c0-0.4-0.1-0.6-0.1-1c0-0.3,0.3,0.2,0.4,0.4
							c0.1,0.1-0.2,0.2-0.2,0.3c0,0.2,0.1,0.3,0.2,0.5c0.1,0.1-0.2,0.1-0.2,0.1c0.1,0.2,0.4,0.4,0.3,0.6c0,0.1-0.1,0.2-0.1,0.3
							c0,0.1,0,0.1,0,0.2c0,0,0,0.1,0.1,0.1c0.1,0,0.2,0,0.3-0.1c0,0.1-0.1,0.2-0.1,0.2c0-0.1,0.1-0.2,0.1-0.2c-0.1,0-0.2,0-0.3,0.1
							c0.1,0.3,0.3,0.7,0.4,1c0,0,0,0,0,0c0-0.2,0-0.4,0.1-0.6c-0.1,0.1-0.1,0.1-0.1,0c0,0,0.1-0.1,0.1-0.1c0.1,0.2,0.1,0.4,0,0.5
							c0,0,0.1,0.1,0.1,0.1c0,0.1-0.1,0.1-0.2,0.1c0,0,0,0.1,0,0.1C89.3,117.7,89.5,117.4,89.5,117.4z"/>
						<path class="st0" d="M89.5,115.4C89.5,115.4,89.5,115.4,89.5,115.4c0,0,0-0.2,0.1-0.3C89.4,115.2,89.4,115.3,89.5,115.4z"/>
					</g>
				</g>
			</g>
		</g>
	</g>
</g>
<g>
	<g>
		<g>
			<g>
				<g class="st1">
					<g>
						<path class="st0" d="M127.6,63.1c0.1,0,0.1,0,0.2,0c0,0-0.1,0-0.1-0.1C127.6,63,127.6,63.1,127.6,63.1z"/>
						<path class="st0" d="M128,63.2C128,63.2,128,63.2,128,63.2C128.1,63.2,128.1,63.1,128,63.2C128.1,63.1,128,63.2,128,63.2z"/>
						<path class="st0" d="M128.4,63.1c-0.1,0-0.1,0-0.2,0C128.2,63.1,128.3,63.1,128.4,63.1z"/>
						<path class="st0" d="M128.1,63c0,0,0,0.1,0,0.1c0,0,0,0,0,0c0,0,0.1,0,0.1,0C128.1,63.1,128.1,63.1,128.1,63z"/>
						<path class="st0" d="M128.1,63C128.1,63,128,63,128.1,63C128,63,128.1,63,128.1,63z"/>
						<path class="st0" d="M128.2,62.2c0,0,0,0.2,0.1,0.2c0.2-0.1,0.3-0.2,0.5-0.2c0.1-0.1,0.2,0.2,0.3,0.2c0.2-0.1,0.6-0.4,0.4-0.4
							c-0.4,0-0.7,0.1-1,0.1c-0.3,0.1-0.6,0.2-0.9,0.3c-0.1,0-0.2,0-0.2,0c0.1,0,0.2,0.1,0.3,0.1C127.7,62.6,127.9,62.2,128.2,62.2z
							"/>
						<path class="st0" d="M126,63c0,0,0.1-0.1,0.1-0.1c0.2,0.2,0.3,0.1,0.5,0c0,0-0.1-0.1-0.1-0.1c-0.1,0-0.1,0.1,0,0.1
							c-0.2-0.1-0.4-0.2-0.6-0.1C125.9,62.9,125.9,63,126,63z"/>
						<path class="st0" d="M125.8,62.8c0,0,0.1,0,0.1,0c0,0,0,0,0,0C125.9,62.8,125.8,62.8,125.8,62.8
							C125.8,62.8,125.8,62.8,125.8,62.8z"/>
						<path class="st0" d="M129.2,62.9c0.5,0,1,0,1.4,0c0,0,0.1-0.1,0.1-0.1c0,0,0.1,0.1,0.1,0.1c0.1,0,0.1,0,0.2,0c0,0,0,0,0.1,0
							c0,0,0,0,0,0c0,0,0-0.1,0-0.1c0,0-0.1-0.1-0.1-0.1c0,0,0,0.1,0.1,0.1c0,0,0.1,0.1,0.1,0.1c0.1,0,0.1,0,0.2,0
							c-0.1,0-0.1,0-0.2,0c0,0-0.1,0-0.1,0c0,0,0,0,0,0c0.2,0,0.3,0,0.5,0c0,0,0.1,0,0.1,0c0.1,0,0.2-0.1,0.3,0.1c0,0,0.1,0,0.1,0
							c0,0,0,0,0,0c0,0,0,0,0,0c0.1,0,0.2,0,0.3,0c0.1,0,0.2-0.1,0.2-0.1c0,0,0.1,0.1,0.1,0.1c0-0.1,0.1-0.1,0.1-0.1
							c-0.1-0.1-0.1-0.2-0.2-0.2c-0.1-0.1-0.2,0.2-0.3,0c0.1,0.2,0.2-0.1,0.3,0c0.1,0,0.1,0.1,0.2,0.2c0.1,0,0.3,0,0.4,0.1
							c-0.1,0.1-0.3,0-0.4-0.1c-0.1,0-0.1,0.1-0.1,0.1c0,0-0.1-0.1-0.1-0.1c-0.1,0-0.2,0.1-0.2,0.1c0.2,0,0.5,0,0.7,0.1
							c1.5,0.2,2.9,0.1,4.5,0.2c0.8,0.1,1.7,0.2,2.5,0.3c1.6,0.3,3,0,4.7,0.6c0.6,0.2,1.8,0.1,2.4,0.1c0.8-0.4,0.4-1.4,0.3-1.5
							c-0.5-0.9-0.9-0.4-1.9-0.9c0.7,0.3-0.5,0.6-1.1,0c-0.9-0.9-2.3-0.2-3.4-0.4c-0.3-0.1-0.6,0-0.9,0c-1.8-0.3-3.4,0.1-5.3,0
							c-0.5,0-0.9,0.2-1.3,0.3c-0.3,0-0.6-0.1-0.9-0.1c-0.4,0-0.7,0.1-1,0.2c0.4,0,0.6-0.1,1-0.1c0.3,0-0.2,0.3-0.4,0.4
							c-0.1,0.1-0.2-0.2-0.3-0.2c-0.2,0-0.3,0.1-0.5,0.2c-0.1,0.1-0.1-0.2-0.1-0.2c-0.2,0.1-0.4,0.4-0.6,0.3c-0.1,0-0.2-0.1-0.3-0.1
							c-0.1,0-0.1,0-0.2,0c0,0-0.1,0-0.1,0.1c0,0.1,0,0.2,0.1,0.3c-0.1,0-0.2-0.1-0.2-0.1c0.1,0,0.2,0.1,0.2,0.1
							c0-0.1,0-0.2-0.1-0.3c-0.3,0.1-0.7,0.3-1,0.4c0,0,0,0,0,0c0.2,0,0.4,0,0.6,0.1c-0.1-0.1-0.1-0.1,0-0.1c0,0,0.1,0.1,0.1,0.1
							c-0.2,0.1-0.4,0.1-0.5,0c0,0-0.1,0.1-0.1,0.1c-0.1,0-0.1-0.1-0.1-0.2c0,0-0.1,0-0.1,0C128.9,62.7,129.2,62.9,129.2,62.9z"/>
						<path class="st0" d="M131.2,62.9C131.2,62.9,131.2,62.9,131.2,62.9c0,0,0.2,0,0.3,0.1C131.4,62.8,131.3,62.8,131.2,62.9z"/>
					</g>
				</g>
			</g>
		</g>
	</g>
</g>
<g>
	<g>
		<g>
			<g>
				<g class="st1">
					<g>
						<path class="st0" d="M33.2,63.1c0.1,0,0.1,0,0.2,0c0,0-0.1,0-0.1-0.1C33.2,63,33.2,63.1,33.2,63.1z"/>
						<path class="st0" d="M33.6,63.2C33.6,63.2,33.6,63.2,33.6,63.2C33.7,63.2,33.7,63.1,33.6,63.2C33.7,63.1,33.6,63.2,33.6,63.2z
							"/>
						<path class="st0" d="M34,63.1c-0.1,0-0.1,0-0.2,0C33.8,63.1,33.9,63.1,34,63.1z"/>
						<path class="st0" d="M33.7,63c0,0,0,0.1,0,0.1c0,0,0,0,0,0c0,0,0.1,0,0.1,0C33.7,63.1,33.7,63.1,33.7,63z"/>
						<path class="st0" d="M33.7,63C33.7,63,33.6,63,33.7,63C33.6,63,33.7,63,33.7,63z"/>
						<path class="st0" d="M33.8,62.2c0,0,0,0.2,0.1,0.2c0.2-0.1,0.3-0.2,0.5-0.2c0.1-0.1,0.2,0.2,0.3,0.2c0.2-0.1,0.6-0.4,0.4-0.4
							c-0.4,0-0.7,0.1-1,0.1c-0.3,0.1-0.6,0.2-0.9,0.3c-0.1,0-0.2,0-0.2,0c0.1,0,0.2,0.1,0.3,0.1C33.3,62.6,33.5,62.2,33.8,62.2z"/>
						<path class="st0" d="M31.6,63c0,0,0.1-0.1,0.1-0.1c0.2,0.2,0.3,0.1,0.5,0c0,0-0.1-0.1-0.1-0.1c-0.1,0-0.1,0.1,0,0.1
							c-0.2-0.1-0.4-0.2-0.6-0.1C31.5,62.9,31.5,63,31.6,63z"/>
						<path class="st0" d="M31.4,62.8c0,0,0.1,0,0.1,0c0,0,0,0,0,0C31.5,62.8,31.4,62.8,31.4,62.8C31.4,62.8,31.4,62.8,31.4,62.8z"
							/>
						<path class="st0" d="M34.8,62.9c0.5,0,1,0,1.4,0c0,0,0.1-0.1,0.1-0.1c0,0,0.1,0.1,0.1,0.1c0.1,0,0.1,0,0.2,0c0,0,0,0,0.1,0
							c0,0,0,0,0,0c0,0,0-0.1,0-0.1c0,0-0.1-0.1-0.1-0.1c0,0,0,0.1,0.1,0.1c0,0,0.1,0.1,0.1,0.1c0.1,0,0.1,0,0.2,0
							c-0.1,0-0.1,0-0.2,0c0,0-0.1,0-0.1,0c0,0,0,0,0,0c0.2,0,0.3,0,0.5,0c0,0,0.1,0,0.1,0c0.1,0,0.2-0.1,0.3,0.1c0,0,0.1,0,0.1,0
							c0,0,0,0,0,0c0,0,0,0,0,0c0.1,0,0.2,0,0.3,0c0.1,0,0.2-0.1,0.2-0.1c0,0,0.1,0.1,0.1,0.1c0-0.1,0.1-0.1,0.1-0.1
							c-0.1-0.1-0.1-0.2-0.2-0.2c-0.1-0.1-0.2,0.2-0.3,0c0.1,0.2,0.2-0.1,0.3,0c0.1,0,0.1,0.1,0.2,0.2c0.1,0,0.3,0,0.4,0.1
							c-0.1,0.1-0.3,0-0.4-0.1c-0.1,0-0.1,0.1-0.1,0.1c0,0-0.1-0.1-0.1-0.1C38.1,62.9,38,63,38,63c0.2,0,0.5,0,0.7,0.1
							c1.5,0.2,2.9,0.1,4.5,0.2c0.8,0.1,1.7,0.2,2.5,0.3c1.6,0.3,3,0,4.7,0.6c0.6,0.2,1.8,0.1,2.4,0.1c0.8-0.4,0.4-1.4,0.3-1.5
							c-0.5-0.9-0.9-0.4-1.9-0.9c0.7,0.3-0.5,0.6-1.1,0c-0.9-0.9-2.3-0.2-3.4-0.4c-0.3-0.1-0.6,0-0.9,0c-1.8-0.3-3.4,0.1-5.3,0
							c-0.5,0-0.9,0.2-1.3,0.3c-0.3,0-0.6-0.1-0.9-0.1c-0.4,0-0.7,0.1-1,0.2c0.4,0,0.6-0.1,1-0.1c0.3,0-0.2,0.3-0.4,0.4
							c-0.1,0.1-0.2-0.2-0.3-0.2c-0.2,0-0.3,0.1-0.5,0.2c-0.1,0.1-0.1-0.2-0.1-0.2c-0.2,0.1-0.4,0.4-0.6,0.3c-0.1,0-0.2-0.1-0.3-0.1
							c-0.1,0-0.1,0-0.2,0c0,0-0.1,0-0.1,0.1c0,0.1,0,0.2,0.1,0.3c-0.1,0-0.2-0.1-0.2-0.1c0.1,0,0.2,0.1,0.2,0.1
							c0-0.1,0-0.2-0.1-0.3c-0.3,0.1-0.7,0.3-1,0.4c0,0,0,0,0,0c0.2,0,0.4,0,0.6,0.1c-0.1-0.1-0.1-0.1,0-0.1c0,0,0.1,0.1,0.1,0.1
							c-0.2,0.1-0.4,0.1-0.5,0c0,0-0.1,0.1-0.1,0.1c-0.1,0-0.1-0.1-0.1-0.2c0,0-0.1,0-0.1,0C34.5,62.7,34.8,62.9,34.8,62.9z"/>
						<path class="st0" d="M36.8,62.9C36.8,62.9,36.8,62.9,36.8,62.9c0,0,0.2,0,0.3,0.1C37,62.8,36.9,62.8,36.8,62.9z"/>
					</g>
				</g>
			</g>
		</g>
	</g>
</g>
<g>
	<g>
		<g>
			<g>
				<g class="st1">
					<g>
						<path class="st0" d="M116.1,90c0,0.1,0.1,0.1,0.1,0.2c0,0,0-0.1,0-0.1C116.2,90,116.2,90,116.1,90z"/>
						<path class="st0" d="M116.4,90.3C116.4,90.3,116.4,90.3,116.4,90.3C116.5,90.3,116.5,90.3,116.4,90.3
							C116.5,90.3,116.4,90.3,116.4,90.3z"/>
						<path class="st0" d="M116.7,90.5c0-0.1-0.1-0.1-0.1-0.1C116.6,90.5,116.6,90.5,116.7,90.5z"/>
						<path class="st0" d="M116.6,90.3C116.5,90.3,116.5,90.4,116.6,90.3C116.5,90.3,116.5,90.3,116.6,90.3c0,0.1,0,0.1,0,0.1
							C116.6,90.4,116.6,90.3,116.6,90.3z"/>
						<path class="st0" d="M116.6,90.3c0,0,0-0.1,0-0.1C116.6,90.2,116.5,90.2,116.6,90.3z"/>
						<path class="st0" d="M117.2,89.7c0,0-0.1,0.2,0,0.2c0.2,0.1,0.4,0.1,0.5,0.2c0.1,0,0,0.3,0.1,0.3c0.2,0.1,0.7,0.2,0.5,0
							c-0.3-0.3-0.5-0.4-0.8-0.6c-0.3-0.1-0.6-0.3-0.8-0.4c-0.1-0.1-0.1-0.1-0.2-0.2c0,0.1,0.1,0.2,0.2,0.3
							C116.7,89.7,117,89.6,117.2,89.7z"/>
						<path class="st0" d="M115.1,88.8c0,0,0.1,0,0.1,0c0,0.2,0.2,0.3,0.3,0.4c0,0,0-0.1,0-0.1c-0.1-0.1-0.1,0-0.1,0.1
							c0-0.2-0.2-0.4-0.3-0.5C115.1,88.7,115.1,88.7,115.1,88.8z"/>
						<path class="st0" d="M115.1,88.5C115.1,88.5,115.1,88.6,115.1,88.5c0.1,0.1,0.1,0.1,0.1,0.1C115.2,88.6,115.1,88.5,115.1,88.5
							C115.1,88.5,115.1,88.5,115.1,88.5z"/>
						<path class="st0" d="M117.4,90.9c0.4,0.3,0.7,0.7,1,1c0.1,0,0.1,0,0.1,0c0,0.1,0,0.1,0,0.1c0,0.1,0.1,0.1,0.1,0.2
							c0,0,0,0,0.1,0c0,0,0,0,0,0c0,0,0.1,0,0.1-0.1c0,0,0-0.1,0-0.1c0,0,0,0.1,0,0.1c0,0,0,0.1,0,0.1c0.1,0,0.1,0.1,0.1,0.1
							c-0.1,0-0.1-0.1-0.1-0.1c0,0-0.1,0-0.1-0.1c0,0,0,0,0,0c0.1,0.1,0.2,0.2,0.3,0.3c0,0,0.1,0,0.1,0.1c0.1,0.1,0.2,0.1,0.2,0.2
							c0,0,0,0,0.1,0.1c0,0,0,0,0,0c0,0,0,0,0,0c0.1,0.1,0.2,0.2,0.2,0.3c0.1,0,0.2,0,0.3,0.1c0,0,0,0.1,0,0.1c0.1,0,0.1,0,0.2,0
							c0-0.1,0-0.2,0-0.3c0-0.1-0.3,0-0.2-0.2c-0.1,0.2,0.2,0,0.2,0.2c0,0.1,0,0.2,0,0.3c0.1,0,0.2,0.2,0.2,0.3
							c-0.2,0-0.2-0.2-0.2-0.3c-0.1,0-0.1,0-0.2,0c0,0,0-0.1,0-0.1c-0.1,0-0.2,0-0.3-0.1c0.1,0.2,0.3,0.4,0.4,0.5c1,1.2,2,2.1,3,3.3
							c0.6,0.6,1.1,1.3,1.5,2c0.9,1.3,2.2,2.1,2.9,3.7c0.3,0.6,1.2,1.3,1.6,1.7c0.8,0.3,1.3-0.7,1.3-0.8c0.3-1-0.3-0.9-0.7-2
							c0.3,0.7-0.8,0-0.8-0.8c0-1.3-1.5-1.7-2.1-2.7c-0.2-0.2-0.4-0.4-0.6-0.7c-1-1.5-2.5-2.4-3.8-3.7c-0.4-0.3-0.8-0.5-1.2-0.7
							c-0.2-0.2-0.4-0.5-0.6-0.7c-0.3-0.3-0.6-0.5-0.9-0.6c0.3,0.2,0.5,0.4,0.8,0.6c0.2,0.2-0.3,0.1-0.5,0c-0.1,0,0-0.3-0.1-0.3
							c-0.1-0.1-0.3-0.1-0.5-0.2c-0.1,0,0.1-0.2,0-0.2c-0.2-0.1-0.6,0-0.6-0.2c-0.1-0.1-0.1-0.2-0.2-0.3c0-0.1-0.1-0.1-0.1-0.2
							c0,0-0.1,0-0.1,0c0,0.1-0.1,0.1-0.1,0.2c0-0.1-0.1-0.2-0.1-0.2c0,0.1,0.1,0.2,0.1,0.2c0.1-0.1,0.1-0.1,0.1-0.2
							c-0.3-0.1-0.7-0.3-1-0.5c0,0,0,0,0,0c0.2,0.1,0.3,0.3,0.3,0.5c0-0.1,0-0.1,0.1-0.1c0,0,0,0.1,0,0.1c-0.2-0.1-0.3-0.2-0.3-0.4
							c0,0-0.1,0-0.1,0c0-0.1,0-0.1,0.1-0.2c0,0-0.1,0-0.1-0.1C117.4,90.6,117.4,90.9,117.4,90.9z"/>
						<path class="st0" d="M118.9,92.4C118.9,92.4,118.8,92.4,118.9,92.4c0,0,0.1,0.1,0.2,0.2C119.1,92.5,119,92.4,118.9,92.4z"/>
					</g>
				</g>
			</g>
		</g>
	</g>
</g>
<g>
	<g>
		<g>
			<g>
				<g class="st1">
					<g>
						<path class="st0" d="M49.4,23.3c0,0.1,0.1,0.1,0.1,0.2c0,0,0-0.1,0-0.1C49.5,23.3,49.5,23.3,49.4,23.3z"/>
						<path class="st0" d="M49.7,23.6C49.7,23.6,49.7,23.6,49.7,23.6C49.8,23.6,49.8,23.6,49.7,23.6C49.8,23.6,49.7,23.6,49.7,23.6z
							"/>
						<path class="st0" d="M50,23.8c0-0.1-0.1-0.1-0.1-0.1C49.9,23.8,49.9,23.8,50,23.8z"/>
						<path class="st0" d="M49.9,23.6C49.8,23.6,49.8,23.7,49.9,23.6C49.8,23.6,49.8,23.6,49.9,23.6c0,0.1,0,0.1,0,0.1
							C49.9,23.7,49.9,23.6,49.9,23.6z"/>
						<path class="st0" d="M49.9,23.6c0,0,0-0.1,0-0.1C49.9,23.5,49.8,23.5,49.9,23.6z"/>
						<path class="st0" d="M50.5,23c0,0-0.1,0.2,0,0.2c0.2,0.1,0.4,0.1,0.5,0.2c0.1,0,0,0.3,0.1,0.3c0.2,0.1,0.7,0.2,0.5,0
							c-0.3-0.3-0.5-0.4-0.8-0.6c-0.3-0.1-0.6-0.3-0.8-0.4c-0.1-0.1-0.1-0.1-0.2-0.2c0,0.1,0.1,0.2,0.2,0.3C50,23,50.3,22.9,50.5,23
							z"/>
						<path class="st0" d="M48.4,22.1c0,0,0.1,0,0.1,0c0,0.2,0.2,0.3,0.3,0.4c0,0,0-0.1,0-0.1c-0.1-0.1-0.1,0-0.1,0.1
							c0-0.2-0.2-0.4-0.3-0.5C48.4,22,48.4,22,48.4,22.1z"/>
						<path class="st0" d="M48.4,21.8C48.4,21.8,48.4,21.9,48.4,21.8c0.1,0.1,0.1,0.1,0.1,0.1C48.5,21.9,48.4,21.8,48.4,21.8
							C48.4,21.8,48.4,21.8,48.4,21.8z"/>
						<path class="st0" d="M50.7,24.2c0.4,0.3,0.7,0.7,1,1c0.1,0,0.1,0,0.1,0c0,0.1,0,0.1,0,0.1c0,0.1,0.1,0.1,0.1,0.2
							c0,0,0,0,0.1,0c0,0,0,0,0,0c0,0,0.1,0,0.1-0.1c0,0,0-0.1,0-0.1c0,0,0,0.1,0,0.1c0,0,0,0.1,0,0.1c0.1,0,0.1,0.1,0.1,0.1
							c-0.1,0-0.1-0.1-0.1-0.1c0,0-0.1,0-0.1-0.1c0,0,0,0,0,0c0.1,0.1,0.2,0.2,0.3,0.3c0,0,0.1,0,0.1,0.1c0.1,0.1,0.2,0.1,0.2,0.2
							c0,0,0,0,0.1,0.1c0,0,0,0,0,0c0,0,0,0,0,0c0.1,0.1,0.2,0.2,0.2,0.3c0.1,0,0.2,0,0.3,0.1c0,0,0,0.1,0,0.1c0.1,0,0.1,0,0.2,0
							c0-0.1,0-0.2,0-0.3c0-0.1-0.3,0-0.2-0.2c-0.1,0.2,0.2,0,0.2,0.2c0,0.1,0,0.2,0,0.3c0.1,0,0.2,0.2,0.2,0.3
							c-0.2,0-0.2-0.2-0.2-0.3c-0.1,0-0.1,0-0.2,0c0,0,0-0.1,0-0.1c-0.1,0-0.2,0-0.3-0.1c0.1,0.2,0.3,0.4,0.4,0.5c1,1.2,2,2.1,3,3.3
							c0.6,0.6,1.1,1.3,1.5,2c0.9,1.3,2.2,2.1,2.9,3.7c0.3,0.6,1.2,1.3,1.6,1.7c0.8,0.3,1.3-0.7,1.3-0.8c0.3-1-0.3-0.9-0.7-2
							c0.3,0.7-0.8,0-0.8-0.8c0-1.3-1.5-1.7-2.1-2.7c-0.2-0.2-0.4-0.4-0.6-0.7c-1-1.5-2.5-2.4-3.8-3.7c-0.4-0.3-0.8-0.5-1.2-0.7
							c-0.2-0.2-0.4-0.5-0.6-0.7c-0.3-0.3-0.6-0.5-0.9-0.6c0.3,0.2,0.5,0.4,0.8,0.6c0.2,0.2-0.3,0.1-0.5,0c-0.1,0,0-0.3-0.1-0.3
							c-0.1-0.1-0.3-0.1-0.5-0.2c-0.1,0,0.1-0.2,0-0.2c-0.2-0.1-0.6,0-0.6-0.2c-0.1-0.1-0.1-0.2-0.2-0.3c0-0.1-0.1-0.1-0.1-0.2
							c0,0-0.1,0-0.1,0c0,0.1-0.1,0.1-0.1,0.2c0-0.1-0.1-0.2-0.1-0.2c0,0.1,0.1,0.2,0.1,0.2c0.1-0.1,0.1-0.1,0.1-0.2
							c-0.3-0.1-0.7-0.3-1-0.5c0,0,0,0,0,0c0.2,0.1,0.3,0.3,0.3,0.5c0-0.1,0-0.1,0.1-0.1c0,0,0,0.1,0,0.1c-0.2-0.1-0.3-0.2-0.3-0.4
							c0,0-0.1,0-0.1,0c0-0.1,0-0.1,0.1-0.2c0,0-0.1,0-0.1-0.1C50.7,23.9,50.7,24.2,50.7,24.2z"/>
						<path class="st0" d="M52.2,25.7C52.2,25.7,52.1,25.7,52.2,25.7c0,0,0.1,0.1,0.2,0.2C52.4,25.8,52.3,25.7,52.2,25.7z"/>
					</g>
				</g>
			</g>
		</g>
	</g>
</g>
<g>
	<g>
		<g>
			<g>
				<g class="st1">
					<g>
						<path class="st0" d="M116.6,36.1c0.1,0,0.1-0.1,0.2-0.1c0,0-0.1,0-0.1,0C116.6,36,116.6,36,116.6,36.1z"/>
						<path class="st0" d="M116.9,35.8C116.9,35.8,116.9,35.8,116.9,35.8C116.9,35.8,117,35.7,116.9,35.8
							C116.9,35.8,116.9,35.8,116.9,35.8z"/>
						<path class="st0" d="M117.1,35.5c-0.1,0-0.1,0.1-0.1,0.1C117.1,35.6,117.1,35.6,117.1,35.5z"/>
						<path class="st0" d="M116.9,35.7C116.9,35.7,117,35.7,116.9,35.7C117,35.7,117,35.7,116.9,35.7c0.1,0,0.1,0,0.1,0
							C117,35.7,116.9,35.7,116.9,35.7z"/>
						<path class="st0" d="M116.9,35.7c0,0-0.1,0-0.1,0C116.8,35.7,116.8,35.7,116.9,35.7z"/>
						<path class="st0" d="M116.4,35c0,0,0.2,0.1,0.2,0c0.1-0.2,0.1-0.4,0.2-0.5c0-0.1,0.3,0,0.3-0.1c0.1-0.2,0.2-0.7,0-0.5
							c-0.3,0.3-0.4,0.5-0.6,0.8c-0.1,0.3-0.3,0.6-0.4,0.8c-0.1,0.1-0.1,0.1-0.2,0.2c0.1,0,0.2-0.1,0.3-0.2
							C116.3,35.6,116.2,35.2,116.4,35z"/>
						<path class="st0" d="M115.4,37.1c0,0,0-0.1,0-0.1c0.2,0,0.3-0.2,0.4-0.3c0,0-0.1,0-0.1,0c-0.1,0.1,0,0.1,0.1,0.1
							c-0.2,0-0.4,0.2-0.5,0.3C115.3,37.1,115.3,37.1,115.4,37.1z"/>
						<path class="st0" d="M115.1,37.1C115.1,37.1,115.2,37.1,115.1,37.1c0.1-0.1,0.1-0.1,0.1-0.1C115.2,37,115.1,37.1,115.1,37.1
							C115.1,37.1,115.1,37.1,115.1,37.1z"/>
						<path class="st0" d="M117.6,34.8c0.3-0.4,0.7-0.7,1-1c0-0.1,0-0.1,0-0.1c0.1,0,0.1,0,0.1,0c0.1,0,0.1-0.1,0.2-0.1
							c0,0,0,0,0-0.1c0,0,0,0,0,0c0,0,0-0.1-0.1-0.1c0,0-0.1,0-0.1,0c0,0,0.1,0,0.1,0c0,0,0.1,0,0.1,0c0-0.1,0.1-0.1,0.1-0.1
							c0,0.1-0.1,0.1-0.1,0.1c0,0,0,0.1-0.1,0.1c0,0,0,0,0,0c0.1-0.1,0.2-0.2,0.4-0.3c0,0,0-0.1,0.1-0.1c0.1-0.1,0.1-0.2,0.2-0.2
							c0,0,0,0,0.1-0.1c0,0,0,0,0,0c0,0,0,0,0,0c0.1-0.1,0.2-0.1,0.3-0.2c0-0.1,0-0.2,0.1-0.3c0,0,0.1,0,0.1,0c0-0.1,0-0.1,0-0.2
							c-0.1,0-0.2,0-0.3,0c-0.1,0,0,0.3-0.2,0.2c0.2,0.1,0-0.2,0.2-0.2c0.1,0,0.2,0,0.3,0c0-0.1,0.2-0.2,0.3-0.2
							c0,0.2-0.2,0.2-0.3,0.2c0,0.1,0,0.1,0,0.2c0,0-0.1,0-0.1,0c0,0.1,0,0.2-0.1,0.3c0.2-0.1,0.4-0.3,0.5-0.4c1.2-1,2.1-2,3.3-3
							c0.7-0.5,1.3-1.1,2-1.5c1.3-0.9,2.1-2.2,3.7-2.9c0.6-0.3,1.3-1.2,1.7-1.6c0.3-0.8-0.7-1.3-0.8-1.3c-1-0.3-0.9,0.3-2,0.7
							c0.7-0.3,0,0.8-0.8,0.8c-1.3,0-1.7,1.5-2.7,2.1c-0.2,0.2-0.4,0.4-0.7,0.6c-1.5,1-2.4,2.5-3.8,3.7c-0.4,0.4-0.5,0.8-0.7,1.2
							c-0.2,0.2-0.5,0.4-0.7,0.6c-0.3,0.3-0.5,0.6-0.6,0.9c0.2-0.3,0.4-0.5,0.6-0.8c0.2-0.2,0.1,0.3,0,0.5c0,0.1-0.3,0-0.3,0.1
							c-0.1,0.1-0.1,0.3-0.2,0.5c0,0.1-0.2-0.1-0.2,0c-0.1,0.2,0,0.6-0.2,0.6c-0.1,0.1-0.2,0.1-0.3,0.2c-0.1,0-0.1,0.1-0.2,0.1
							c0,0,0,0.1-0.1,0.1c0.1,0,0.1,0.1,0.2,0.1c-0.1,0-0.2,0.1-0.2,0.1c0.1,0,0.2-0.1,0.2-0.1c-0.1-0.1-0.1-0.1-0.2-0.1
							c-0.1,0.3-0.3,0.7-0.5,1c0,0,0,0,0,0c0.1-0.2,0.3-0.3,0.5-0.3c-0.1,0-0.1,0-0.1-0.1c0,0,0.1,0,0.1,0c-0.1,0.2-0.2,0.3-0.4,0.3
							c0,0,0,0.1,0,0.1c-0.1,0-0.1,0-0.2-0.1c0,0,0,0.1-0.1,0.1C117.3,34.8,117.6,34.8,117.6,34.8z"/>
						<path class="st0" d="M119,33.3C119,33.4,119,33.4,119,33.3c0,0,0.1-0.1,0.2-0.2C119.1,33.1,119.1,33.2,119,33.3z"/>
					</g>
				</g>
			</g>
		</g>
	</g>
</g>
<g>
	<g>
		<g>
			<g>
				<g class="st1">
					<g>
						<path class="st0" d="M49.9,102.8c0.1,0,0.1-0.1,0.2-0.1c0,0-0.1,0-0.1,0C49.9,102.7,49.9,102.7,49.9,102.8z"/>
						<path class="st0" d="M50.2,102.5C50.2,102.5,50.2,102.5,50.2,102.5C50.2,102.5,50.3,102.4,50.2,102.5
							C50.2,102.5,50.2,102.5,50.2,102.5z"/>
						<path class="st0" d="M50.4,102.2c-0.1,0-0.1,0.1-0.1,0.1C50.4,102.3,50.4,102.3,50.4,102.2z"/>
						<path class="st0" d="M50.2,102.4C50.2,102.4,50.3,102.4,50.2,102.4C50.3,102.4,50.3,102.4,50.2,102.4c0.1,0,0.1,0,0.1,0
							C50.3,102.4,50.2,102.4,50.2,102.4z"/>
						<path class="st0" d="M50.2,102.4c0,0-0.1,0-0.1,0C50.1,102.4,50.1,102.4,50.2,102.4z"/>
						<path class="st0" d="M49.7,101.7c0,0,0.2,0.1,0.2,0c0.1-0.2,0.1-0.4,0.2-0.5c0-0.1,0.3,0,0.3-0.1c0.1-0.2,0.2-0.7,0-0.5
							c-0.3,0.3-0.4,0.5-0.6,0.8c-0.1,0.3-0.3,0.6-0.4,0.8c-0.1,0.1-0.1,0.1-0.2,0.2c0.1,0,0.2-0.1,0.3-0.2
							C49.6,102.3,49.5,101.9,49.7,101.7z"/>
						<path class="st0" d="M48.7,103.8c0,0,0-0.1,0-0.1c0.2,0,0.3-0.2,0.4-0.3c0,0-0.1,0-0.1,0c-0.1,0.1,0,0.1,0.1,0.1
							c-0.2,0-0.4,0.2-0.5,0.3C48.6,103.8,48.6,103.8,48.7,103.8z"/>
						<path class="st0" d="M48.4,103.8C48.4,103.8,48.5,103.8,48.4,103.8c0.1-0.1,0.1-0.1,0.1-0.1C48.5,103.7,48.4,103.8,48.4,103.8
							C48.4,103.8,48.4,103.8,48.4,103.8z"/>
						<path class="st0" d="M50.9,101.5c0.3-0.4,0.7-0.7,1-1c0-0.1,0-0.1,0-0.1c0.1,0,0.1,0,0.1,0c0.1,0,0.1-0.1,0.2-0.1
							c0,0,0,0,0-0.1c0,0,0,0,0,0c0,0,0-0.1-0.1-0.1c0,0-0.1,0-0.1,0c0,0,0.1,0,0.1,0c0,0,0.1,0,0.1,0c0-0.1,0.1-0.1,0.1-0.1
							c0,0.1-0.1,0.1-0.1,0.1c0,0,0,0.1-0.1,0.1c0,0,0,0,0,0c0.1-0.1,0.2-0.2,0.4-0.3c0,0,0-0.1,0.1-0.1c0.1-0.1,0.1-0.2,0.2-0.2
							c0,0,0,0,0.1-0.1c0,0,0,0,0,0c0,0,0,0,0,0c0.1-0.1,0.2-0.1,0.3-0.2c0-0.1,0-0.2,0.1-0.3c0,0,0.1,0,0.1,0c0-0.1,0-0.1,0-0.2
							c-0.1,0-0.2,0-0.3,0c-0.1,0,0,0.3-0.2,0.2c0.2,0.1,0-0.2,0.2-0.2c0.1,0,0.2,0,0.3,0c0-0.1,0.2-0.2,0.3-0.2
							c0,0.2-0.2,0.2-0.3,0.2c0,0.1,0,0.1,0,0.2c0,0-0.1,0-0.1,0c0,0.1,0,0.2-0.1,0.3c0.2-0.1,0.4-0.3,0.5-0.4c1.2-1,2.1-2,3.3-3
							c0.7-0.5,1.3-1.1,2-1.5c1.3-0.9,2.1-2.2,3.7-2.9c0.6-0.3,1.3-1.2,1.7-1.6c0.3-0.8-0.7-1.3-0.8-1.3c-1-0.3-0.9,0.3-2,0.7
							c0.7-0.3,0,0.8-0.8,0.8c-1.3,0-1.7,1.5-2.7,2.1c-0.2,0.2-0.4,0.4-0.7,0.6c-1.5,1-2.4,2.5-3.8,3.7c-0.4,0.4-0.5,0.8-0.7,1.2
							c-0.2,0.2-0.5,0.4-0.7,0.6c-0.3,0.3-0.5,0.6-0.6,0.9c0.2-0.3,0.4-0.5,0.6-0.8c0.2-0.2,0.1,0.3,0,0.5c0,0.1-0.3,0-0.3,0.1
							c-0.1,0.1-0.1,0.3-0.2,0.5c0,0.1-0.2-0.1-0.2,0c-0.1,0.2,0,0.6-0.2,0.6c-0.1,0.1-0.2,0.1-0.3,0.2c-0.1,0-0.1,0.1-0.2,0.1
							c0,0,0,0.1-0.1,0.1c0.1,0,0.1,0.1,0.2,0.1c-0.1,0-0.2,0.1-0.2,0.1c0.1,0,0.2-0.1,0.2-0.1c-0.1-0.1-0.1-0.1-0.2-0.1
							c-0.1,0.3-0.3,0.7-0.5,1c0,0,0,0,0,0c0.1-0.2,0.3-0.3,0.5-0.3c-0.1,0-0.1,0-0.1-0.1c0,0,0.1,0,0.1,0c-0.1,0.2-0.2,0.3-0.4,0.3
							c0,0,0,0.1,0,0.1c-0.1,0-0.1,0-0.2-0.1c0,0,0,0.1-0.1,0.1C50.6,101.5,50.9,101.5,50.9,101.5z"/>
						<path class="st0" d="M52.3,100C52.3,100.1,52.3,100.1,52.3,100c0,0,0.1-0.1,0.2-0.2C52.4,99.8,52.4,99.9,52.3,100z"/>
					</g>
				</g>
			</g>
		</g>
	</g>
</g>
<g>
	<g>
		<g>
			<g>
				<g class="st1">
					<g>
						<path class="st0" d="M32.2,120c0.6,0.2,1.1,0.5,1.7,0.8c0.5,0.3,1.1,0.5,1.6,0.9c-0.5-0.4-1.1-0.6-1.6-1
							C33.2,120.4,32.8,120.2,32.2,120z"/>
						<path class="st0" d="M38.4,123.6c0.2,0.1,0.4,0.3,0.5,0.4c0.2,0.1,0.3,0.2,0.5,0.3C39,124.1,38.7,123.9,38.4,123.6z"/>
						<path class="st0" d="M43.2,128c-0.8-0.8-1.5-1.7-2.3-2.3C41.5,126.2,42.3,127.1,43.2,128z"/>
						<path class="st0" d="M39.5,124.3c0.3,0.3,0.4,0.4-0.1,0c0,0,0,0,0,0c0.5,0.4,1,0.8,1.5,1.3C40.3,125.1,39.9,124.7,39.5,124.3z
							"/>
						<path class="st0" d="M39.5,124.3c-0.3-0.3-0.7-0.7-0.9-0.8C38.9,123.8,39.2,124,39.5,124.3z"/>
						<path class="st0" d="M41.3,124.8c0.5,0.4,0.3,0.5,1.2,1.4c2.2,2.2,3.9,4.3,5.5,6.7c0.8,1.1,1.6,3,2.2,4.2
							c1.6,2.7,4.9,9.9,3.1,5.6c-1.4-3.2-2.7-5.8-4.2-8.2c-1.5-2.4-3-4.7-5.2-7c-1.8-1.9-3.7-3.6-5.8-5c-0.5-0.4-1.1-0.7-1.6-1
							l-0.8-0.5l-0.9-0.4c-0.6-0.3-1.2-0.6-1.7-0.8c-0.6-0.2-1.2-0.5-1.8-0.7c-1.4-0.5-2.7-0.9-4.1-1.2c0.9,0.2,1.8,0.4,2.7,0.8
							c0.9,0.3,1.8,0.7,2.7,1.1C35,120.6,38.1,122,41.3,124.8z"/>
						<path class="st0" d="M5.2,119.9c0.6-0.2,1.9-0.6,1.9-0.6c2.9-0.6,5.8-1.3,8.9-1.6c-0.4,0-0.9,0-1.4,0
							c-1.7,0.2-1.9,0.4-0.4,0.2c-3.5,0.4-6.9,1.1-10.1,2.2C4.3,120.1,4.3,120.2,5.2,119.9z"/>
						<path class="st0" d="M2.2,120.8c0.6-0.2,1.3-0.5,1.9-0.7c0,0,0,0-0.1,0C3.4,120.4,2.7,120.6,2.2,120.8L2.2,120.8z"/>
						<path class="st0" d="M50.8,139.4c3.8,7.9,6,15.8,8.5,23.4c0.2,0.6,0.4,1,0.7,1.8c0.2,0.6,0.3,1.2,0.5,1.8
							c0.4,1.1,0.8,2.2,1.2,3.3c0.2,0.4,0.3,0.8,0.5,1.1c0,0,0,0,0,0c0.3,0.6,0.2,0.4,0.1,0c-0.1-0.4-0.3-0.8-0.4-1.2
							c0.1,0.2,0.2,0.8,0.4,1.2c0.2,0.5,0.4,1.1,0.7,1.8c0.5,1,1,2,1.5,3c-0.7-1.1-1.1-2.1-1.5-3c-0.3-0.6-0.5-1.2-0.8-1.8
							c-0.1-0.2-0.1-0.3-0.2-0.5c1,2.5,2.1,4.9,3.6,7.1c0.4,0.5,0.8,0.9,1.1,1.3c0.4,0.3,0.7,0.7,1.1,1c0.4,0.3,0.8,0.5,1.1,0.8
							c0.4,0.2,0.8,0.4,1.1,0.5c0.3,0.2,0.7,0.2,1,0.3c0.2,0,0.5,0.1,0.7,0.1l0.7,0c-0.1,0-0.2,0-0.3,0c0.2,0,0.4,0,0.6,0
							c2.1-0.1,4-1.2,5.5-2.6c0.5-0.4,0.9-1,1.3-1.5c0.4-0.5,0.8-1.1,1.2-1.6c0,0,0.6-0.7,0.9-1c0.3-0.5,0.7-1.2,1.1-1.9
							c-0.6,0.9-1.3,1.7-1.8,2.4c-0.9,1-1.7,2.6-3,3.5c1.3-0.9,2.1-2.5,3-3.5c0.6-0.7,1.2-1.5,1.8-2.4c1-1.6,2.3-3.7,3.3-5.4
							c-1.1,2.2-2.3,4-3.3,5.4c-0.5,0.8-0.9,1.5-1.1,1.9c-0.3,0.3-0.9,1-0.9,1c-0.4,0.6-0.8,1.1-1.2,1.6c-0.4,0.5-0.9,1-1.3,1.5
							c1.5-1.4,2.7-3,3.8-4.6c1.1-1.7,2.2-3.4,3.2-5.2c3.3-5.7,6.3-11.3,10.2-16.4c1.9-2.5,4.1-4.8,6.5-6.8c2.5-1.9,5.3-3.4,8.3-4.1
							c3-0.7,6.2-0.7,9.3-0.1c3.1,0.6,6.1,1.6,9.1,2.9c5.9,2.6,11.4,6.3,16.6,10.6c5.7,4.6,10.8,9.7,15.5,15
							c4.7,5.3,8.8,10.9,12.4,16.8c1.8,2.9,3.5,5.9,5.5,8.7c1,1.4,2,2.8,3.1,4.1c1.1,1.3,2.4,2.6,3.9,3.5c1.5,1,3.3,1.7,5.2,1.6
							c0.9,0,1.9-0.1,2.8-0.4c0.9-0.3,1.7-0.7,2.5-1.2c3-2.1,4.9-4.9,7-7.5c2-2.5,4.2-5,7.1-5.9c1.4-0.4,2.9-0.5,4.3-0.1
							c1.4,0.4,2.8,1.2,4,2.1c2.5,2,4.6,4.6,6.7,7.3c1.1,1.3,2.1,2.7,3.4,4c0.6,0.7,1.3,1.3,2.1,1.9c0.8,0.6,1.8,1.1,3,1.3
							c0.9,0.1,1.9,0,2.9-0.5c0.9-0.5,1.7-1.3,2.2-2.1c1-1.7,1.4-3.4,1.8-5.2c0.4-1.8,0.7-3.5,1.2-5.2c0.5-1.7,1.1-3.3,2.2-4.5
							c0.5-0.6,1.1-1,1.7-1.4c0.7-0.4,1.5-0.6,2.2-0.7c0.7-0.1,1.5-0.1,2.2,0.1c0.7,0.1,1.5,0.4,2.2,0.7c2.8,1.3,5.2,3.5,7.2,5.1
							c1.4,1.1,2.5,2,3.7,2.6c1.1,0.6,2.2,0.9,3.2,0.8c0.5-0.1,0.8-0.2,1.1-0.4c0.3-0.1,0.4-0.3,0.5-0.4c0.2-0.3,0.2-0.4,0.2-0.4
							c-0.2-0.1-0.8,0.2-1.4,0.2c-0.6,0-1.2-0.2-1.3-0.2c-1-0.4-1.8-1.1-2.6-1.7c-0.8-0.7-1.5-1.4-2.3-2.1c-1.5-1.4-3.2-2.9-5.3-4.3
							c-1.1-0.7-2.2-1.3-3.6-1.8c-1.4-0.5-3-0.6-4.7-0.3c-0.4,0.1-0.8,0.2-1.3,0.4c-0.4,0.2-0.8,0.3-1.2,0.6
							c-0.8,0.4-1.6,1.1-2.3,1.8c-1.3,1.6-2.2,3.6-2.8,5.7c0.9-2.9,1.6-3.7,1.4-3.3c-0.2,0.4-0.9,2.2-1.4,4.7
							c-0.3,1.2-0.6,2.7-0.9,4.1c-0.4,1.5-0.8,3.1-1.6,4.3c-0.8,1.2-2.3,1.7-3.5,1.2c-1.3-0.5-2.3-1.6-3.2-2.6
							c-2.6-2.9-4.9-6.8-8.5-10.2c-1.8-1.7-4-3.3-6.9-4c-1.4-0.3-2.9-0.3-4.3,0c-1.4,0.3-2.8,1-4,1.8c-2.3,1.7-4,3.8-5.6,5.9
							c-1.6,2.1-3.1,4.1-5,5.7c-0.9,0.8-1.9,1.4-2.9,1.7c-0.5,0.2-1,0.3-1.6,0.3c-0.3,0-0.5,0-0.8,0c-0.3,0-0.5,0-0.8-0.1
							c-2.1-0.4-4-1.8-5.6-3.6c-3.2-3.5-5.8-8.1-9-13.2c-4-6.7-8.7-12.8-13.9-18.4c-5.1-5.6-10.7-10.8-16.8-15.5
							c-3.1-2.3-6.3-4.5-9.6-6.4c-3.4-1.9-7-3.6-10.8-4.7c-3.8-1.1-8-1.8-12.2-1.2c-2.1,0.3-4.2,0.8-6.1,1.8c-1.9,0.9-3.8,2-5.4,3.4
							c-3.5,2.9-6,6.2-8.2,9.5c-2.2,3.3-3.9,6.6-5.7,9.8c-2.6,4.6-5.4,9.5-8.1,12.6c-1.1,1.2-2.2,2.2-3.4,2.8
							c-1.2,0.6-2.5,0.8-3.8,0.5c-1.2-0.3-2.4-0.9-3.3-1.8c-0.3-0.2-0.5-0.4-0.7-0.7c-0.2-0.3-0.4-0.5-0.6-0.8
							c-0.4-0.6-0.8-1.1-1.1-1.7c0.4,0.7,0.8,1.2,1.2,1.8c0.5,0.5,0.8,1.1,1.3,1.5c0.5,0.5,1,0.8,1.5,1.1c0.3,0.2,0.5,0.2,0.8,0.4
							c0.3,0.1,0.6,0.2,0.8,0.2c1.2,0.3,2.4,0.2,3.6-0.4c1.2-0.5,2.3-1.5,3.4-2.7c0.8-0.8,1-1.1,0.9-1c-0.1,0.1-0.4,0.6-1,1.3
							c-0.5,0.7-1.3,1.4-2.1,2c-0.4,0.3-0.8,0.5-1.3,0.7c-0.4,0.1-0.8,0.4-1.1,0.4c-0.6,0.2-1.3,0.1-2.1,0c-0.4-0.1-0.7-0.2-1-0.3
							c-0.3-0.2-0.6-0.3-0.9-0.4c-1.1-0.6-2.1-1.5-2.9-2.5c-0.4-0.5-0.8-1.1-1.2-1.6c-0.4-0.6-0.8-1.2-1.1-1.9
							c-0.6-1.1-0.3-1.1-0.6-1.7c-1.7-3.7-3-6.7-3.7-9.3c-0.6-1.9-1.1-3.7-1.6-5.4c-0.3-1.1-0.7-2.1-1-3.3c-0.3-0.7-0.5-1.4-0.8-2.1
							c0.1,0.6,0.1,0.8,0.1,1.1c-0.3-1.1-0.8-2.5-1.1-3.6c0.3,1.1,0.8,2.5,1.1,3.6c0-0.2,0-0.5-0.1-1.1c-1.9-5.2-4.3-11.1-7.3-16.2
							c0,0,0,0.1,0,0.1c1.7,3,3.1,6.1,4.3,9.5c-0.5-1.5-0.4-1.3,0.3,0.3c0.1,0.4,0.3,0.9,0.4,1.3c-1.2-2.9-2.4-5.6-3.6-8.3
							c0,0-0.6-1.1-1-1.7c-0.4-0.9-0.4-0.9-0.4-1.1c-0.3-0.6-0.7-1.2-1-1.8c0.3,0.6,1,2,1.6,3.2c0.3,0.6,0.5,1.1,0.7,1.6
							C50.7,139.2,50.8,139.4,50.8,139.4z"/>
						<path class="st0" d="M63,172.7c-0.2-0.4-0.4-1-0.7-1.5c0.8,2.1,1.8,4.1,3.1,6C64.8,176.1,63.9,174.5,63,172.7z"/>
					</g>
				</g>
			</g>
		</g>
	</g>
</g>
</svg>
