<?xml version="1.0" encoding="utf-8"?>
<!-- Generator: Adobe Illustrator 24.2.0, SVG Export Plug-In . SVG Version: 6.00 Build 0)  -->
<svg version="1.1" id="Layer_1" xmlns="http://www.w3.org/2000/svg" xmlns:xlink="http://www.w3.org/1999/xlink" x="0px" y="0px"
	 viewBox="0 0 269.3 170.1" style="enable-background:new 0 0 269.3 170.1;" xml:space="preserve">
<style type="text/css">
	.st0{opacity:0.85;}
	.st1{fill:#FFFFFF;}
	.st2{fill:none;stroke:#FFFFFF;stroke-width:2;stroke-miterlimit:10;stroke-dasharray:5,10;}
</style>
<g>
	<g>
		<g>
			<g>
				<g class="st0">
					<g>
						<path class="st1" d="M26,21c0.7,0.5,1.5,1,2.2,1.5c-0.4-0.3-0.7-0.5-1.1-0.8C26.6,21.3,26.3,21.2,26,21z"/>
						<path class="st1" d="M30.2,23.9c0.1,0.1,0.3,0.2,0.4,0.3c0.1,0.1,0.2,0.1,0.4,0.2L30.2,23.9z"/>
						<path class="st1" d="M34.1,26.4c-0.7-0.5-1.3-0.9-2-1.3C32.7,25.5,33.4,25.9,34.1,26.4z"/>
						<path class="st1" d="M31.1,24.3C31.3,24.5,31.4,24.6,31.1,24.3l-0.1,0c0.4,0.3,0.8,0.5,1.2,0.8C31.8,24.8,31.4,24.5,31.1,24.3
							z"/>
						<path class="st1" d="M31.1,24.3c-0.2-0.2-0.6-0.5-0.7-0.6C30.6,23.9,30.8,24.1,31.1,24.3z"/>
						<path class="st1" d="M32.5,24.2c0.4,0.2,0.2,0.4,1,0.9c1.9,1.2,3.5,2.1,5.2,3.3c0.8,0.5,1.9,1.5,2.7,2c1.9,1.2,6.7,4,3.9,2.2
							c-4.1-2.7-6.9-4.5-10.6-6.9c-3.1-1.9-6-3.8-9.1-5.8c-0.9-0.6-1.7-1.1-2.5-1.7c1,0.7,2.1,1.5,3.3,2.3
							C28,21.6,30,22.6,32.5,24.2z"/>
						<path class="st1" d="M9.6,9.8c0.4,0.2,1.2,0.7,1.2,0.7c1.6,1.3,3.5,2.5,5.3,3.6c-0.2-0.2-0.5-0.4-0.7-0.6
							c-1-0.7-1.2-0.7-0.3,0c-2-1.5-4-2.9-6.1-4.2C9.1,9.4,9.1,9.4,9.6,9.8z"/>
						<path class="st1" d="M7.8,8.5C8.2,8.7,8.6,9,9,9.2c0,0,0,0,0,0C8.6,8.9,8.2,8.7,7.8,8.5L7.8,8.5z"/>
						<path class="st1" d="M42.5,31.7c5.2,3.5,10,6.7,14.7,9.9c0.4,0.2,0.7,0.3,1.2,0.7c0.3,0.3,0.7,0.6,1.1,0.8
							c0.7,0.5,1.4,0.9,2.1,1.4c0.2,0.2,0.5,0.3,0.7,0.5c0,0,0,0,0,0c0.4,0.3,0.3,0.1,0.1-0.1c-0.3-0.2-0.5-0.4-0.7-0.6
							c0.1,0.1,0.5,0.4,0.7,0.6c0.2,0.2,0.5,0.4,0.8,0.6c0.1-0.1,0.2-0.1,0.3-0.2c0.7-0.5,1.3-0.9,2-1.3c-0.7,0.5-1.4,1-2,1.3
							c-0.1,0.1-0.2,0.2-0.3,0.2c-0.3-0.2-0.6-0.4-0.9-0.6c-0.1-0.1-0.2-0.1-0.3-0.2l1.3,0.9l3.6-2.4c0.4-0.2,0.7-0.5,1-0.7
							c1.1-0.8,2.2-1.6,3-2c0.3-0.2,0.6-0.4,0.8-0.6l-0.2,0.1c0.1-0.1,0.2-0.1,0.3-0.2c1.2-0.8,2.4-1.6,3.6-2.4
							c0.7-0.6,1.5-1.1,2.3-1.7c0,0,0.6-0.3,0.9-0.4c0.3-0.3,0.7-0.6,1.3-1c-0.7,0.4-1.3,0.7-1.9,1c-0.9,0.4-1.7,1.4-2.7,1.8
							c1.1-0.4,1.9-1.4,2.7-1.8c0.6-0.3,1.2-0.7,1.9-1c1.1-0.8,2.6-1.7,3.8-2.4c-1.4,1.1-2.7,1.8-3.8,2.4c-0.5,0.4-1,0.7-1.3,1
							c-0.3,0.1-0.9,0.4-0.9,0.4c-0.8,0.6-1.5,1.1-2.3,1.7c2.3-1.5,4.7-3.1,7.1-4.7c12.3-8.1,23.8-15.8,36.2-24c0.4,0,0.9,0,1.4,0
							c2.6,1.7,5.3,3.6,8.2,5.5c8.7,5.9,17,11.6,25.1,17.2c3.7,2.5,7.3,5,10.9,7.5c3.8,2.6,7.5,5.1,11.3,7.6c4.5-3,9-5.9,13.5-8.9
							c4.4-2.9,8.8-5.7,13.4-8.6c6.5-4.1,18.2-12.1,24.3-16.2c8-5.8,3.2-3.8,2.7-3.6c-5.5,2.7-9.2,5.7-19.8,12.2
							c7.2-4.4-4.9,3.9-11.8,7.9c-3.4,1.9-7.1,4.2-11,6.8c-1.9,1.3-4,2.6-6,4c-1.8,1.2-3.6,2.4-5.4,3.7c-1.8-1.2-3.6-2.4-5.4-3.6
							c-2-1.4-4-2.7-5.9-4c-2.9-2-6.1-4.1-9.6-6.5c-5.7-3.9-11.3-7.7-16.8-11.4c-5.7-3.8-11.4-7.6-17.2-11.4c-0.8,0-1.7,0-2.5,0
							c-6.4,4.3-13,8.7-19.8,13.3c-5.1,3.4-9.4,6.6-13.7,9.6c-3.1,2.1-6.5,4.3-9.1,6c-4,2.7-7.4,5.1-10.6,7.4
							c3.7-2.5,6.3-4.4,10.4-7.2c2.7-1.9-1.7,1.5-3.5,2.8c-0.7,0.6-2.1,1.2-2.9,1.7c-1.7,1.1-3.2,2.3-5,3.5
							c-0.2,0.1-0.4,0.2-0.4,0.3c-0.1,0-0.1,0-0.2,0c-0.1,0-0.1,0-0.2,0l-0.1,0.1c-1-0.6-2-1.2-2.9-1.7c-1-0.6-1.9-1.1-2.6-1.6
							c-1.2-0.8-2.2-1.6-3.3-2.3c-0.7-0.5-1.3-0.9-2-1.4c-0.4-0.3-0.9-0.6-1.4-0.9c0.3,0.3,0.4,0.5,0.5,0.6
							c-0.6-0.5-1.5-1.1-2.2-1.6c0.6,0.5,1.5,1.1,2.2,1.6c-0.1-0.2-0.1-0.3-0.5-0.6c-3.3-2.1-7.2-4.5-10.7-6.7l0,0
							c2.1,1.3,4,2.7,6.1,4.2c-0.9-0.7-0.7-0.6,0.3,0.1c0.2,0.2,0.5,0.4,0.7,0.6c-1.9-1.2-3.7-2.3-5.3-3.6c0,0-0.8-0.5-1.2-0.7
							c-0.6-0.4-0.5-0.5-0.6-0.6c-0.4-0.3-0.8-0.5-1.2-0.8C39.9,29.8,42.5,31.7,42.5,31.7z"/>
						<path class="st1" d="M63.6,45.4c-0.1,0.1-0.2,0.2-0.4,0.3c-0.2-0.1-0.4-0.3-0.7-0.4l0.7,0.5l3.4-2.3
							C65.8,43.8,64.7,44.5,63.6,45.4z"/>
					</g>
				</g>
			</g>
		</g>
	</g>
</g>
<g>
	<g>
		<g>
			<g>
				<g class="st0">
					<g>
						<path class="st1" d="M26,137.5c0.7,0.5,1.5,1,2.2,1.5c-0.4-0.3-0.7-0.5-1.1-0.8C26.6,137.8,26.3,137.7,26,137.5z"/>
						<path class="st1" d="M30.2,140.4c0.1,0.1,0.3,0.2,0.4,0.3c0.1,0.1,0.2,0.1,0.4,0.2L30.2,140.4z"/>
						<path class="st1" d="M34.1,142.9c-0.7-0.5-1.3-0.9-2-1.3C32.7,142,33.4,142.5,34.1,142.9z"/>
						<path class="st1" d="M31.1,140.8C31.3,141,31.4,141.1,31.1,140.8l-0.1,0c0.4,0.3,0.8,0.5,1.2,0.8
							C31.8,141.3,31.4,141.1,31.1,140.8z"/>
						<path class="st1" d="M31.1,140.8c-0.2-0.2-0.6-0.5-0.7-0.6C30.6,140.4,30.8,140.6,31.1,140.8z"/>
						<path class="st1" d="M32.5,140.8c0.4,0.2,0.2,0.4,1,0.9c1.9,1.2,3.5,2.1,5.2,3.3c0.8,0.5,1.9,1.5,2.7,2c1.9,1.2,6.7,4,3.9,2.2
							c-4.1-2.7-6.9-4.5-10.6-6.9c-3.1-1.9-6-3.8-9.1-5.8c-0.9-0.6-1.7-1.1-2.5-1.7c1,0.7,2.1,1.5,3.3,2.3
							C28,138.1,30,139.2,32.5,140.8z"/>
						<path class="st1" d="M9.6,126.4c0.4,0.2,1.2,0.7,1.2,0.7c1.6,1.3,3.5,2.5,5.3,3.6c-0.2-0.2-0.5-0.4-0.7-0.6
							c-1-0.7-1.2-0.7-0.3,0c-2-1.5-4-2.9-6.1-4.2C9.1,125.9,9.1,126,9.6,126.4z"/>
						<path class="st1" d="M7.8,125c0.4,0.3,0.8,0.5,1.2,0.8c0,0,0,0,0,0C8.6,125.5,8.2,125.2,7.8,125L7.8,125z"/>
						<path class="st1" d="M42.5,148.3c5.2,3.5,10,6.7,14.7,9.9c0.4,0.2,0.7,0.3,1.2,0.7c0.3,0.3,0.7,0.6,1.1,0.8
							c0.7,0.5,1.4,0.9,2.1,1.4c0.2,0.2,0.5,0.3,0.7,0.5c0,0,0,0,0,0c0.4,0.3,0.3,0.1,0.1-0.1c-0.3-0.2-0.5-0.4-0.7-0.6
							c0.1,0.1,0.5,0.4,0.7,0.6c0.2,0.2,0.5,0.4,0.8,0.6c0.1-0.1,0.2-0.1,0.3-0.2c0.7-0.5,1.3-0.9,2-1.3c-0.7,0.5-1.4,1-2,1.3
							c-0.1,0.1-0.2,0.2-0.3,0.2c-0.3-0.2-0.6-0.4-0.9-0.6c-0.1-0.1-0.2-0.1-0.3-0.2l1.3,0.9l3.6-2.4c0.4-0.2,0.7-0.5,1-0.7
							c1.1-0.8,2.2-1.6,3-2c0.3-0.2,0.6-0.4,0.8-0.6l-0.2,0.1c0.1-0.1,0.2-0.1,0.3-0.2c1.2-0.8,2.4-1.6,3.6-2.4
							c0.7-0.6,1.5-1.1,2.3-1.7c0,0,0.6-0.3,0.9-0.4c0.3-0.3,0.7-0.6,1.3-1c-0.7,0.4-1.3,0.7-1.9,1c-0.9,0.4-1.7,1.4-2.7,1.8
							c1.1-0.4,1.9-1.4,2.7-1.8c0.6-0.3,1.2-0.7,1.9-1c1.1-0.8,2.6-1.7,3.8-2.4c-1.4,1.1-2.7,1.8-3.8,2.4c-0.5,0.4-1,0.7-1.3,1
							c-0.3,0.1-0.9,0.4-0.9,0.4c-0.8,0.6-1.5,1.1-2.3,1.7c2.3-1.5,4.7-3.1,7.1-4.7c12.3-8.1,23.8-15.8,36.2-24c0.4,0,0.9,0,1.4,0
							c2.6,1.7,5.3,3.6,8.2,5.5c8.7,5.9,17,11.6,25.1,17.2c3.7,2.5,7.3,5,10.9,7.5c3.8,2.6,7.5,5.1,11.3,7.6c4.5-3,9-5.9,13.5-8.9
							c4.4-2.9,8.8-5.7,13.4-8.6c6.5-4.1,18.2-12.1,24.3-16.2c8-5.8,3.2-3.8,2.7-3.6c-5.5,2.7-9.2,5.7-19.8,12.2
							c7.2-4.4-4.9,3.9-11.8,7.9c-3.4,1.9-7.1,4.2-11,6.8c-1.9,1.3-4,2.6-6,4c-1.8,1.2-3.6,2.4-5.4,3.7c-1.8-1.2-3.6-2.4-5.4-3.6
							c-2-1.4-4-2.7-5.9-4c-2.9-2-6.1-4.1-9.6-6.5c-5.7-3.9-11.3-7.7-16.8-11.4c-5.7-3.8-11.4-7.6-17.2-11.4c-0.8,0-1.7,0-2.5,0
							c-6.4,4.3-13,8.7-19.8,13.3c-5.1,3.4-9.4,6.6-13.7,9.6c-3.1,2.1-6.5,4.3-9.1,6c-4,2.7-7.4,5.1-10.6,7.4
							c3.7-2.5,6.3-4.4,10.4-7.2c2.7-1.9-1.7,1.5-3.5,2.8c-0.7,0.6-2.1,1.2-2.9,1.7c-1.7,1.1-3.2,2.3-5,3.5
							c-0.2,0.1-0.4,0.2-0.4,0.3c-0.1,0-0.1,0-0.2,0c-0.1,0-0.1,0-0.2,0l-0.1,0.1c-1-0.6-2-1.2-2.9-1.7c-1-0.6-1.9-1.1-2.6-1.6
							c-1.2-0.8-2.2-1.6-3.3-2.3c-0.7-0.5-1.3-0.9-2-1.4c-0.4-0.3-0.9-0.6-1.4-0.9c0.3,0.3,0.4,0.5,0.5,0.6
							c-0.6-0.5-1.5-1.1-2.2-1.6c0.6,0.5,1.5,1.1,2.2,1.6c-0.1-0.2-0.1-0.3-0.5-0.6c-3.3-2.1-7.2-4.5-10.7-6.7l0,0
							c2.1,1.3,4,2.7,6.1,4.2c-0.9-0.7-0.7-0.6,0.3,0.1c0.2,0.2,0.5,0.4,0.7,0.6c-1.9-1.2-3.7-2.3-5.3-3.6c0,0-0.8-0.5-1.2-0.7
							c-0.6-0.4-0.5-0.5-0.6-0.6c-0.4-0.3-0.8-0.5-1.2-0.8C39.9,146.3,42.5,148.3,42.5,148.3z"/>
						<path class="st1" d="M63.6,161.9c-0.1,0.1-0.2,0.2-0.4,0.3c-0.2-0.1-0.4-0.3-0.7-0.4l0.7,0.5l3.4-2.3
							C65.8,160.3,64.7,161.1,63.6,161.9z"/>
					</g>
				</g>
			</g>
		</g>
	</g>
</g>
<g>
	<g>
		<g>
			<g>
				<g class="st0">
					<g>
						<path class="st1" d="M63.5,152.5c0-0.4,0-0.8,0-1.2c0,0.2,0,0.4-0.1,0.6C63.4,152.1,63.5,152.3,63.5,152.5z"/>
						<path class="st1" d="M63.6,150.2c0-0.1,0-0.1,0-0.2c0-0.1,0-0.1,0-0.2C63.5,150,63.5,150.1,63.6,150.2z"/>
						<path class="st1" d="M63.5,148.2c0,0.4,0,0.7,0,1C63.5,148.9,63.5,148.6,63.5,148.2z"/>
						<path class="st1" d="M63.4,149.8c0-0.1,0.1-0.2,0.1,0c0,0,0,0,0,0c0-0.2,0-0.4,0-0.6C63.5,149.4,63.5,149.6,63.4,149.8z"/>
						<path class="st1" d="M63.4,149.8c0,0.1-0.1,0.3-0.1,0.4C63.4,150.1,63.4,150,63.4,149.8z"/>
						<path class="st1" d="M62.6,149.3c0-0.2,0.2-0.2,0.2-0.6c-0.1-0.9-0.2-1.8-0.2-2.6c-0.1-0.4,0.2-1,0.2-1.4
							c-0.1-1-0.4-3.4-0.4-1.9c0,2.2,0.1,3.6,0.1,5.5c0.1,1.6,0.2,3.1,0.3,4.7c0,0.5,0,0.9,0,1.3c0-0.6,0.1-1.1,0.1-1.7
							C62.9,151.6,62.6,150.6,62.6,149.3z"/>
						<path class="st1" d="M63.4,161c0-0.2-0.1-0.6-0.1-0.6c0.2-0.9,0.1-1.9,0-2.8c0,0.1-0.1,0.3-0.1,0.4c0,0.5,0.1,0.6,0.1,0.1
							c-0.1,1.1-0.2,2.2-0.1,3.2C63.3,161.3,63.3,161.3,63.4,161z"/>
						<path class="st1" d="M63.2,162c0-0.2,0-0.4,0-0.6c0,0,0,0,0,0C63.2,161.6,63.2,161.8,63.2,162C63.2,162,63.2,162,63.2,162z"/>
						<path class="st1" d="M63.3,143.9c0-2.7,0-5.2,0-7.7c0-0.2-0.1-0.3-0.1-0.6c0-0.2,0.1-0.4,0.1-0.6c0-0.4,0-0.7,0-1.1
							c0-0.1,0-0.3,0-0.4c0,0,0,0,0,0c0-0.2-0.1-0.1-0.1,0c0,0.1-0.1,0.3-0.1,0.4c0-0.1,0.1-0.3,0.1-0.4c0-0.2,0.1-0.4,0.1-0.6
							c0-0.3,0-0.7,0-1c0,0.4,0,0.7,0,1c0,0.2,0,0.4,0,0.6c0,0.1,0,0.1,0,0.2c0-0.8,0-1.6,0-2.5c0-0.2,0-0.4,0-0.5
							c0-0.6-0.1-1.2,0.1-1.6c0-0.1,0-0.3,0-0.4c0,0,0,0.1,0,0.1c0-0.1,0-0.1,0-0.2c0-0.6,0-1.2,0-1.9c0-0.4-0.1-0.8-0.1-1.2
							c0,0,0.1-0.3,0.1-0.4c-0.1-0.2-0.1-0.4-0.1-0.7c-0.1,0.3-0.2,0.6-0.2,0.9c-0.1,0.4,0.2,0.9,0,1.4c0.2-0.5-0.1-1,0-1.4
							c0-0.3,0.1-0.6,0.2-0.9c0-0.6,0-1.4,0.1-2c0.1,0.8,0,1.4-0.1,2c0,0.3,0.1,0.5,0.1,0.7c0,0.1-0.1,0.4-0.1,0.4
							c0,0.4,0.1,0.8,0.1,1.2c0-1.2,0-2.5,0.1-3.7c0.2-8.1,0.1-15.6,0.2-24c0.1-4.6,0.2-8.9,0.3-13.2c0.3-8.6,0-16.4,0.6-25
							c0.2-3.3,0.1-9.5,0.1-12.7c-0.4-4.3-1.4-2.1-1.5-1.9c-0.9,2.6-0.4,4.7-0.9,10.1c0.3-3.7,0.6,2.7,0,6.2
							c-0.9,5-0.2,12.1-0.4,18.3c-0.1,1.5,0,3.2,0,5c-0.3,9.6,0.1,18.4,0,28.5c0,2.7,0.2,5,0.3,7.2c0,1.6-0.1,3.4-0.1,4.7
							c0,2.1,0.1,3.9,0.2,5.6c0-1.9-0.1-3.3-0.1-5.5c0-1.4,0.3,1,0.4,1.9c0.1,0.4-0.2,1-0.2,1.5c0,0.9,0.1,1.7,0.2,2.6
							c0.1,0.4-0.2,0.4-0.2,0.6c0.1,1.3,0.4,2.3,0.3,3.1c0,0.6-0.1,1.2-0.1,1.7c0,0.3,0,0.7,0,1.1c0,0.2,0,0.5,0.1,0.7
							c0.1-0.2,0.2-0.3,0.3-0.3c0,0.3-0.1,0.8-0.1,1.2c0-0.3,0.1-0.8,0.1-1.2c-0.1,0.1-0.2,0.1-0.3,0.3c0.1,1.7,0.3,3.7,0.4,5.5
							c0,0,0,0,0,0c0-1.1,0-2.1,0.1-3.2c-0.1,0.5-0.1,0.4-0.1-0.1c0-0.1,0.1-0.3,0.1-0.4c0.1,1,0.1,1.9,0,2.8c0,0,0.1,0.4,0.1,0.6
							c0,0.3-0.1,0.3-0.2,0.4c0,0.2,0,0.4,0,0.6C63.1,145.3,63.3,143.9,63.3,143.9z"/>
						<path class="st1" d="M63.3,132.9c0,0.1,0,0.3,0,0.5c0-0.7,0-1.4,0-2.1C63.2,131.7,63.2,132.3,63.3,132.9z"/>
					</g>
				</g>
			</g>
		</g>
	</g>
</g>
<g>
	<g>
		<g>
			<g>
				<g class="st0">
					<g>
						<path class="st1" d="M120.6,115.4c0-0.4,0-0.8,0-1.2c0,0.2,0,0.4-0.1,0.6C120.5,115,120.5,115.2,120.6,115.4z"/>
						<path class="st1" d="M120.6,113.1c0-0.1,0-0.1,0-0.2c0-0.1,0-0.1,0-0.2C120.6,112.9,120.6,113,120.6,113.1z"/>
						<path class="st1" d="M120.5,111.1c0,0.4,0,0.7,0,1C120.6,111.8,120.6,111.5,120.5,111.1z"/>
						<path class="st1" d="M120.5,112.7c0-0.1,0.1-0.2,0.1,0c0,0,0,0,0,0c0-0.2,0-0.4,0-0.6C120.5,112.3,120.5,112.5,120.5,112.7z"
							/>
						<path class="st1" d="M120.5,112.7c0,0.1-0.1,0.3-0.1,0.4C120.4,113,120.4,112.8,120.5,112.7z"/>
						<path class="st1" d="M119.6,112.2c0-0.2,0.2-0.2,0.2-0.6c-0.1-0.9-0.2-1.8-0.2-2.6c-0.1-0.4,0.2-1,0.2-1.4
							c-0.1-1-0.4-3.4-0.4-1.9c0,2.2,0.1,3.6,0.1,5.5c0.1,1.6,0.2,3.1,0.3,4.7c0,0.5,0,0.9,0,1.3c0-0.6,0.1-1.1,0.1-1.7
							C120,114.5,119.7,113.5,119.6,112.2z"/>
						<path class="st1" d="M120.4,123.9c0-0.2-0.1-0.6-0.1-0.6c0.2-0.9,0.1-1.9,0-2.8c0,0.1-0.1,0.3-0.1,0.4c0,0.5,0.1,0.6,0.1,0.1
							c-0.1,1.1-0.2,2.2-0.1,3.2C120.3,124.2,120.4,124.2,120.4,123.9z"/>
						<path class="st1" d="M120.3,124.9c0-0.2,0-0.4,0-0.6c0,0,0,0,0,0C120.2,124.5,120.3,124.7,120.3,124.9
							C120.3,124.9,120.3,124.9,120.3,124.9z"/>
						<path class="st1" d="M120.3,106.8c0-2.7,0-5.2,0-7.7c0-0.2-0.1-0.3-0.1-0.6c0-0.2,0.1-0.4,0.1-0.6c0-0.4,0-0.7,0-1.1
							c0-0.1,0-0.3,0-0.4c0,0,0,0,0,0c0-0.2-0.1-0.1-0.1,0c0,0.1-0.1,0.3-0.1,0.4c0-0.1,0.1-0.3,0.1-0.4c0-0.2,0.1-0.4,0.1-0.6
							c0-0.3,0-0.7,0-1c0,0.4,0,0.7,0,1c0,0.2,0,0.4,0,0.6c0,0.1,0,0.1,0,0.2c0-0.8,0-1.6,0-2.5c0-0.2,0-0.4,0-0.5
							c0-0.6-0.1-1.2,0.1-1.6c0-0.1,0-0.3,0-0.4c0,0,0,0.1,0,0.1c0-0.1,0-0.1,0-0.2c0-0.6,0-1.2,0-1.9c0-0.4-0.1-0.8-0.1-1.2
							c0,0,0.1-0.3,0.1-0.4c-0.1-0.2-0.1-0.4-0.1-0.7c-0.1,0.3-0.2,0.6-0.2,0.9c-0.1,0.4,0.2,0.9,0,1.4c0.2-0.5-0.1-1,0-1.4
							c0-0.3,0.1-0.6,0.2-0.9c0-0.6,0-1.4,0.1-2c0.1,0.8,0,1.4-0.1,2c0,0.3,0.1,0.5,0.1,0.7c0,0.1-0.1,0.4-0.1,0.4
							c0,0.4,0.1,0.8,0.1,1.2c0-1.2,0-2.5,0.1-3.7c0.2-8.1,0.1-15.6,0.2-24c0.1-4.6,0.2-8.9,0.3-13.2c0.3-8.6,0-16.4,0.6-25
							c0.2-3.3,0.1-9.5,0.1-12.7c-0.4-4.3-1.4-2.1-1.5-1.9c-0.9,2.6-0.4,4.7-0.9,10.1c0.3-3.7,0.6,2.7,0,6.2
							c-0.9,5-0.2,12.1-0.4,18.3c-0.1,1.5,0,3.2,0,5c-0.3,9.6,0.1,18.4,0,28.5c0,2.7,0.2,5,0.3,7.2c0,1.6-0.1,3.4-0.1,4.7
							c0,2.1,0.1,3.9,0.2,5.6c0-1.9-0.1-3.3-0.1-5.5c0-1.4,0.3,1,0.4,1.9c0.1,0.4-0.2,1-0.2,1.5c0,0.9,0.1,1.7,0.2,2.6
							c0.1,0.4-0.2,0.4-0.2,0.6c0.1,1.3,0.4,2.3,0.3,3.1c0,0.6-0.1,1.2-0.1,1.7c0,0.3,0,0.7,0,1.1c0,0.2,0,0.5,0.1,0.7
							c0.1-0.2,0.2-0.3,0.3-0.3c0,0.3-0.1,0.8-0.1,1.2c0-0.3,0.1-0.8,0.1-1.2c-0.1,0.1-0.2,0.1-0.3,0.3c0.1,1.7,0.3,3.7,0.4,5.5
							c0,0,0,0,0,0c0-1.1,0-2.1,0.1-3.2c-0.1,0.5-0.1,0.4-0.1-0.1c0-0.1,0.1-0.3,0.1-0.4c0.1,1,0.1,1.9,0,2.8c0,0,0.1,0.4,0.1,0.6
							c0,0.3-0.1,0.3-0.2,0.4c0,0.2,0,0.4,0,0.6C120.2,108.2,120.3,106.8,120.3,106.8z"/>
						<path class="st1" d="M120.3,95.8c0,0.1,0,0.3,0,0.5c0-0.7,0-1.4,0-2.1C120.3,94.6,120.3,95.2,120.3,95.8z"/>
					</g>
				</g>
			</g>
		</g>
	</g>
</g>
<g>
	<g>
		<g>
			<g>
				<g class="st0">
					<g>
						<path class="st1" d="M231.4,115.4c0-0.4,0-0.8,0-1.2c0,0.2,0,0.4-0.1,0.6C231.3,115,231.3,115.2,231.4,115.4z"/>
						<path class="st1" d="M231.4,113.1c0-0.1,0-0.1,0-0.2c0-0.1,0-0.1,0-0.2C231.4,112.9,231.4,113,231.4,113.1z"/>
						<path class="st1" d="M231.3,111.1c0,0.4,0,0.7,0,1C231.4,111.8,231.4,111.5,231.3,111.1z"/>
						<path class="st1" d="M231.3,112.7c0-0.1,0.1-0.2,0.1,0c0,0,0,0,0,0c0-0.2,0-0.4,0-0.6C231.3,112.3,231.3,112.5,231.3,112.7z"
							/>
						<path class="st1" d="M231.3,112.7c0,0.1-0.1,0.3-0.1,0.4C231.2,113,231.2,112.8,231.3,112.7z"/>
						<path class="st1" d="M230.4,112.2c0-0.2,0.2-0.2,0.2-0.6c-0.1-0.9-0.2-1.8-0.2-2.6c-0.1-0.4,0.2-1,0.2-1.4
							c-0.1-1-0.4-3.4-0.4-1.9c0,2.2,0.1,3.6,0.1,5.5c0.1,1.6,0.2,3.1,0.3,4.7c0,0.5,0,0.9,0,1.3c0-0.6,0.1-1.1,0.1-1.7
							C230.8,114.5,230.5,113.5,230.4,112.2z"/>
						<path class="st1" d="M231.2,123.9c0-0.2-0.1-0.6-0.1-0.6c0.2-0.9,0.1-1.9,0-2.8c0,0.1-0.1,0.3-0.1,0.4c0,0.5,0.1,0.6,0.1,0.1
							c-0.1,1.1-0.2,2.2-0.1,3.2C231.1,124.2,231.2,124.2,231.2,123.9z"/>
						<path class="st1" d="M231.1,124.9c0-0.2,0-0.4,0-0.6c0,0,0,0,0,0C231,124.5,231,124.7,231.1,124.9
							C231.1,124.9,231.1,124.9,231.1,124.9z"/>
						<path class="st1" d="M231.1,106.8c0-2.7,0-5.2,0-7.7c0-0.2-0.1-0.3-0.1-0.6c0-0.2,0.1-0.4,0.1-0.6c0-0.4,0-0.7,0-1.1
							c0-0.1,0-0.3,0-0.4c0,0,0,0,0,0c0-0.2-0.1-0.1-0.1,0c0,0.1-0.1,0.3-0.1,0.4c0-0.1,0.1-0.3,0.1-0.4c0-0.2,0.1-0.4,0.1-0.6
							c0-0.3,0-0.7,0-1c0,0.4,0,0.7,0,1c0,0.2,0,0.4,0,0.6c0,0.1,0,0.1,0,0.2c0-0.8,0-1.6,0-2.5c0-0.2,0-0.4,0-0.5
							c0-0.6-0.1-1.2,0.1-1.6c0-0.1,0-0.3,0-0.4c0,0,0,0.1,0,0.1c0-0.1,0-0.1,0-0.2c0-0.6,0-1.2,0-1.9c0-0.4-0.1-0.8-0.1-1.2
							c0,0,0.1-0.3,0.1-0.4c-0.1-0.2-0.1-0.4-0.1-0.7c-0.1,0.3-0.2,0.6-0.2,0.9c-0.1,0.4,0.2,0.9,0,1.4c0.2-0.5-0.1-1,0-1.4
							c0-0.3,0.1-0.6,0.2-0.9c0-0.6,0-1.4,0.1-2c0.1,0.8,0,1.4-0.1,2c0,0.3,0.1,0.5,0.1,0.7c0,0.1-0.1,0.4-0.1,0.4
							c0,0.4,0.1,0.8,0.1,1.2c0-1.2,0-2.5,0.1-3.7c0.2-8.1,0.1-15.6,0.2-24c0.1-4.6,0.2-8.9,0.3-13.2c0.3-8.6,0-16.4,0.6-25
							c0.2-3.3,0.1-9.5,0.1-12.7c-0.4-4.3-1.4-2.1-1.5-1.9c-0.9,2.6-0.4,4.7-0.9,10.1c0.3-3.7,0.6,2.7,0,6.2
							c-0.9,5-0.2,12.1-0.4,18.3c-0.1,1.5,0,3.2,0,5c-0.3,9.6,0.1,18.4,0,28.5c0,2.7,0.2,5,0.3,7.2c0,1.6-0.1,3.4-0.1,4.7
							c0,2.1,0.1,3.9,0.2,5.6c0-1.9-0.1-3.3-0.1-5.5c0-1.4,0.3,1,0.4,1.9c0.1,0.4-0.2,1-0.2,1.5c0,0.9,0.1,1.7,0.2,2.6
							c0.1,0.4-0.2,0.4-0.2,0.6c0.1,1.3,0.4,2.3,0.3,3.1c0,0.6-0.1,1.2-0.1,1.7c0,0.3,0,0.7,0,1.1c0,0.2,0,0.5,0.1,0.7
							c0.1-0.2,0.2-0.3,0.3-0.3c0,0.3-0.1,0.8-0.1,1.2c0-0.3,0.1-0.8,0.1-1.2c-0.1,0.1-0.2,0.1-0.3,0.3c0.1,1.7,0.3,3.7,0.4,5.5
							c0,0,0,0,0,0c0-1.1,0-2.1,0.1-3.2c-0.1,0.5-0.1,0.4-0.1-0.1c0-0.1,0.1-0.3,0.1-0.4c0.1,1,0.1,1.9,0,2.8c0,0,0.1,0.4,0.1,0.6
							c0,0.3-0.1,0.3-0.2,0.4c0,0.2,0,0.4,0,0.6C230.9,108.2,231.1,106.8,231.1,106.8z"/>
						<path class="st1" d="M231.1,95.8c0,0.1,0,0.3,0,0.5c0-0.7,0-1.4,0-2.1C231,94.6,231.1,95.2,231.1,95.8z"/>
					</g>
				</g>
			</g>
		</g>
	</g>
</g>
<g>
	<g>
		<g>
			<g>
				<g class="st0">
					<g>
						<path class="st1" d="M8.1,115.3c0-0.4,0-0.8,0-1.2c0,0.2,0,0.4-0.1,0.6C8,115,8.1,115.2,8.1,115.3z"/>
						<path class="st1" d="M8.2,113.1c0-0.1,0-0.1,0-0.2c0-0.1,0-0.1,0-0.2C8.1,112.8,8.1,113,8.2,113.1z"/>
						<path class="st1" d="M8.1,111.1c0,0.4,0,0.7,0,1C8.1,111.8,8.1,111.5,8.1,111.1z"/>
						<path class="st1" d="M8,112.7c0-0.1,0.1-0.2,0.1,0c0,0,0,0,0,0c0-0.2,0-0.4,0-0.6C8.1,112.3,8.1,112.5,8,112.7z"/>
						<path class="st1" d="M8,112.7c0,0.1-0.1,0.3-0.1,0.4C8,113,8,112.8,8,112.7z"/>
						<path class="st1" d="M7.2,112.2c0-0.2,0.2-0.2,0.2-0.6c-0.1-0.9-0.2-1.8-0.2-2.6c-0.1-0.4,0.2-1,0.2-1.4
							c-0.1-1-0.4-3.4-0.4-1.9c0,2.2,0.1,3.6,0.1,5.5c0.1,1.6,0.2,3.1,0.3,4.7c0,0.5,0,0.9,0,1.3c0-0.6,0.1-1.1,0.1-1.7
							C7.5,114.5,7.2,113.5,7.2,112.2z"/>
						<path class="st1" d="M8,123.9c0-0.2-0.1-0.6-0.1-0.6c0.2-0.9,0.1-1.9,0-2.8c0,0.1-0.1,0.3-0.1,0.4c0,0.5,0.1,0.6,0.1,0.1
							c-0.1,1.1-0.2,2.2-0.1,3.2C7.9,124.2,8,124.2,8,123.9z"/>
						<path class="st1" d="M7.8,124.9c0-0.2,0-0.4,0-0.6c0,0,0,0,0,0C7.8,124.5,7.8,124.7,7.8,124.9C7.8,124.9,7.8,124.9,7.8,124.9z
							"/>
						<path class="st1" d="M7.9,106.8c0-2.7,0-5.2,0-7.7c0-0.2-0.1-0.3-0.1-0.6c0-0.2,0.1-0.4,0.1-0.6c0-0.4,0-0.7,0-1.1
							c0-0.1,0-0.3,0-0.4c0,0,0,0,0,0c0-0.2-0.1-0.1-0.1,0c0,0.1-0.1,0.3-0.1,0.4c0-0.1,0.1-0.3,0.1-0.4c0-0.2,0.1-0.4,0.1-0.6
							c0-0.3,0-0.7,0-1c0,0.4,0,0.7,0,1c0,0.2,0,0.4,0,0.6c0,0.1,0,0.1,0,0.2c0-0.8,0-1.6,0-2.5c0-0.2,0-0.4,0-0.5
							c0-0.6-0.1-1.2,0.1-1.6c0-0.1,0-0.3,0-0.4c0,0,0,0.1,0,0.1c0-0.1,0-0.1,0-0.2c0-0.6,0-1.2,0-1.9c0-0.4-0.1-0.8-0.1-1.2
							c0,0,0.1-0.3,0.1-0.4c-0.1-0.2-0.1-0.4-0.1-0.7c-0.1,0.3-0.2,0.6-0.2,0.9c-0.1,0.4,0.2,0.9,0,1.4c0.2-0.5-0.1-1,0-1.4
							c0-0.3,0.1-0.6,0.2-0.9c0-0.6,0-1.4,0.1-2c0.1,0.8,0,1.4-0.1,2C7.9,87.6,8,87.8,8,88c0,0.1-0.1,0.4-0.1,0.4
							c0,0.4,0.1,0.8,0.1,1.2c0-1.2,0-2.5,0.1-3.7c0.2-8.1,0.1-15.6,0.2-24c0.1-4.6,0.2-8.9,0.3-13.2c0.3-8.6,0-16.4,0.6-25
							c0.2-3.3,0.1-9.5,0.1-12.7C8.9,6.7,7.9,9,7.8,9.2c-0.9,2.6-0.4,4.7-0.9,10.1c0.3-3.7,0.6,2.7,0,6.2c-0.9,5-0.2,12.1-0.4,18.3
							c-0.1,1.5,0,3.2,0,5c-0.3,9.6,0.1,18.4,0,28.5c0,2.7,0.2,5,0.3,7.2c0,1.6-0.1,3.4-0.1,4.7c0,2.1,0.1,3.9,0.2,5.6
							c0-1.9-0.1-3.3-0.1-5.5c0-1.4,0.3,1,0.4,1.9c0.1,0.4-0.2,1-0.2,1.5c0,0.9,0.1,1.7,0.2,2.6c0.1,0.4-0.2,0.4-0.2,0.6
							C7,97.2,7.3,98.2,7.3,99c0,0.6-0.1,1.2-0.1,1.7c0,0.3,0,0.7,0,1.1c0,0.2,0,0.5,0.1,0.7c0.1-0.2,0.2-0.3,0.3-0.3
							c0,0.3-0.1,0.8-0.1,1.2c0-0.3,0.1-0.8,0.1-1.2c-0.1,0.1-0.2,0.1-0.3,0.3c0.1,1.7,0.3,3.7,0.4,5.5c0,0,0,0,0,0
							c0-1.1,0-2.1,0.1-3.2c-0.1,0.5-0.1,0.4-0.1-0.1c0-0.1,0.1-0.3,0.1-0.4c0.1,1,0.1,1.9,0,2.8c0,0,0.1,0.4,0.1,0.6
							c0,0.3-0.1,0.3-0.2,0.4c0,0.2,0,0.4,0,0.6C7.7,108.2,7.9,106.8,7.9,106.8z"/>
						<path class="st1" d="M7.9,95.8c0,0.1,0,0.3,0,0.5c0-0.7,0-1.4,0-2.1C7.8,94.6,7.8,95.2,7.9,95.8z"/>
					</g>
				</g>
			</g>
		</g>
	</g>
</g>
<g>
	<g>
		<g>
			<g>
				<g class="st0">
					<g>
						<path class="st1" d="M176,152.5c0-0.4,0-0.8,0-1.2c0,0.2,0,0.4-0.1,0.6C175.9,152.1,175.9,152.3,176,152.5z"/>
						<path class="st1" d="M176,150.2c0-0.1,0-0.1,0-0.2c0-0.1,0-0.1,0-0.2C176,150,176,150.1,176,150.2z"/>
						<path class="st1" d="M175.9,148.2c0,0.4,0,0.7,0,1C176,148.9,176,148.6,175.9,148.2z"/>
						<path class="st1" d="M175.9,149.8c0-0.1,0.1-0.2,0.1,0c0,0,0,0,0,0c0-0.2,0-0.4,0-0.6C175.9,149.5,175.9,149.6,175.9,149.8z"
							/>
						<path class="st1" d="M175.9,149.8c0,0.1-0.1,0.3-0.1,0.4C175.8,150.1,175.8,150,175.9,149.8z"/>
						<path class="st1" d="M175,149.3c0-0.2,0.2-0.2,0.2-0.6c-0.1-0.9-0.2-1.8-0.2-2.6c-0.1-0.4,0.2-1,0.2-1.4
							c-0.1-1-0.4-3.4-0.4-1.9c0,2.2,0.1,3.6,0.1,5.5c0.1,1.6,0.2,3.1,0.3,4.7c0,0.5,0,0.9,0,1.3c0-0.6,0.1-1.1,0.1-1.7
							C175.4,151.6,175.1,150.6,175,149.3z"/>
						<path class="st1" d="M175.8,161.1c0-0.2-0.1-0.6-0.1-0.6c0.2-0.9,0.1-1.9,0-2.8c0,0.1-0.1,0.3-0.1,0.4c0,0.5,0.1,0.6,0.1,0.1
							c-0.1,1.1-0.2,2.2-0.1,3.2C175.7,161.3,175.8,161.4,175.8,161.1z"/>
						<path class="st1" d="M175.7,162c0-0.2,0-0.4,0-0.6c0,0,0,0,0,0C175.6,161.6,175.6,161.9,175.7,162
							C175.7,162,175.7,162,175.7,162z"/>
						<path class="st1" d="M175.7,143.9c0-2.7,0-5.2,0-7.7c0-0.2-0.1-0.3-0.1-0.6c0-0.2,0.1-0.4,0.1-0.6c0-0.4,0-0.7,0-1.1
							c0-0.1,0-0.3,0-0.4c0,0,0,0,0,0c0-0.2-0.1-0.1-0.1,0c0,0.1-0.1,0.3-0.1,0.4c0-0.1,0.1-0.3,0.1-0.4c0-0.2,0.1-0.4,0.1-0.6
							c0-0.3,0-0.7,0-1c0,0.4,0,0.7,0,1c0,0.2,0,0.4,0,0.6c0,0.1,0,0.1,0,0.2c0-0.8,0-1.6,0-2.5c0-0.2,0-0.4,0-0.5
							c0-0.6-0.1-1.2,0.1-1.6c0-0.1,0-0.3,0-0.4c0,0,0,0.1,0,0.1c0-0.1,0-0.1,0-0.2c0-0.6,0-1.2,0-1.9c0-0.4-0.1-0.8-0.1-1.2
							c0,0,0.1-0.3,0.1-0.4c-0.1-0.2-0.1-0.4-0.1-0.7c-0.1,0.3-0.2,0.6-0.2,0.9c-0.1,0.4,0.2,0.9,0,1.4c0.2-0.5-0.1-1,0-1.4
							c0-0.3,0.1-0.6,0.2-0.9c0-0.6,0-1.4,0.1-2c0.1,0.8,0,1.4-0.1,2c0,0.3,0.1,0.5,0.1,0.7c0,0.1-0.1,0.4-0.1,0.4
							c0,0.4,0.1,0.8,0.1,1.2c0-1.2,0-2.5,0.1-3.7c0.2-8.1,0.1-15.6,0.2-24c0.1-4.6,0.2-8.9,0.3-13.2c0.3-8.6,0-16.4,0.6-25
							c0.2-3.3,0.1-9.5,0.1-12.7c-0.4-4.3-1.4-2.1-1.5-1.9c-0.9,2.6-0.4,4.7-0.9,10.1c0.3-3.7,0.6,2.7,0,6.2
							c-0.9,5-0.2,12.1-0.4,18.3c-0.1,1.5,0,3.2,0,5c-0.3,9.6,0.1,18.4,0,28.5c0,2.7,0.2,5,0.3,7.2c0,1.6-0.1,3.4-0.1,4.7
							c0,2.1,0.1,3.9,0.2,5.6c0-1.9-0.1-3.3-0.1-5.5c0-1.4,0.3,1,0.4,1.9c0.1,0.4-0.2,1-0.2,1.5c0,0.9,0.1,1.7,0.2,2.6
							c0.1,0.4-0.2,0.4-0.2,0.6c0.1,1.3,0.4,2.3,0.3,3.1c0,0.6-0.1,1.2-0.1,1.7c0,0.3,0,0.7,0,1.1c0,0.2,0,0.5,0.1,0.7
							c0.1-0.2,0.2-0.3,0.3-0.3c0,0.3-0.1,0.8-0.1,1.2c0-0.3,0.1-0.8,0.1-1.2c-0.1,0.1-0.2,0.1-0.3,0.3c0.1,1.7,0.3,3.7,0.4,5.5
							c0,0,0,0,0,0c0-1.1,0-2.1,0.1-3.2c-0.1,0.5-0.1,0.4-0.1-0.1c0-0.1,0.1-0.3,0.1-0.4c0.1,1,0.1,1.9,0,2.8c0,0,0.1,0.4,0.1,0.6
							c0,0.3-0.1,0.3-0.2,0.4c0,0.2,0,0.4,0,0.6C175.6,145.3,175.7,143.9,175.7,143.9z"/>
						<path class="st1" d="M175.7,132.9c0,0.1,0,0.3,0,0.5c0-0.7,0-1.4,0-2.1C175.6,131.7,175.7,132.3,175.7,132.9z"/>
					</g>
				</g>
			</g>
		</g>
	</g>
</g>
<path class="st2" d="M17.1,50.8c4.3,25.3,19.1,44.9,37,48c19.3,3.4,38.7-12.9,40.5-14.4c10.5-9,10.8-15.9,22.6-22.6
	c4.6-2.6,16-9.1,26.8-5.5c12,4,10.1,16.2,24.7,30.9c2.6,2.6,23.7,23.3,41.2,16.5c10.7-4.2,15-16.8,16.5-22"/>
</svg>
