<svg xmlns="http://www.w3.org/2000/svg" viewBox="0 0 568.84 336.36"><defs><style>.a{fill:#1d1d1d;}</style></defs><path class="a" d="M165.38-29.36l9.47,2.64c-6.13-1.38-15.22-3.6-25.53-6.31,49.77,13.78,108,27.72,164.59,39.64s111.69,21.63,155,28.26c7.77,1.43,15.35,2.67,22.38,3.84s13.51,2.2,19.13,3c11.24,1.6,19,2.5,20.52,2.33s-3.43-1.41-12.68-3.25c-4.63-.93-10.33-2-16.83-3.19S487.61,35,479.77,33.65c-6.88-1.26-14.92-2.84-19.89-3.87C415.4,20.4,361.1,9,301.46-4.83,312.91-2,324.89.76,336.39,3.44l-53.51-12,6.54,1.93L191.92-30c-32.79-7.9-63.33-15.17-83.87-19.82s-27.48-5.51-21.87-3c2.8,1.24,8.74,3.25,17.64,6q6.68,2.07,15.55,4.69c5.91,1.73,12.56,3.58,19.91,5.62l13,3.63Z" transform="translate(-55.1 54.19)"/><path class="a" d="M275,1.77C239.44-6.74,205.47-15.5,171.52-24.55l-6.66-2,1.95,1.83.69.09,27.62,6.08,33.06,7.39c11.67,2.59,23.85,5.34,36.19,8L282.91.92l18.46,3.92C307.18,6,313,7.29,318.81,8.44c8.39,1.6,14,2.52,15.79,2.62,2.1.12-.63-.77-6.71-2.3S312.34,5.06,301,2.49c-8.71-2-17.45-3.86-26.14-5.91C243.08-10.88,202.26-20.77,165-29.95S93.92-47.51,76.07-51.25c-8-1.66-1.3.85.26,1.9-1.31.08,3.91,1.94,13.4,4.81,4.76,1.42,10.58,3.09,17.19,4.93s14,3.88,21.89,5.9,15.57,4,22.62,5.73,13.54,3.21,19.1,4.46c11.11,2.52,18.56,3.95,19.76,3.77l16.21,4.11-12.81-2.77c4.58.71,14.11,2.79,25.2,5.26s23.77,5.26,34.61,7.53l32.42,7.11c-6-2-11.89-4.07-17.84-6.09l-16.9-3.56c1.26.37,3.71,1.06,3.49,1C222.52-14,192.3-20.62,157.29-29.09c-7.36-1.7-14.69-3.51-22-5.25s-14.7-3.5-22-5.34c-12-2.76-11-1.9,1.93,1.87,6.44,1.88,12.9,3.64,19.36,5.47l-8.74-2.52C170.53-22.76,218-10.94,262.61-.31c7,1.7,15.67,3.58,19.45,4.21C285.28,4.4,282.27,3.53,275,1.77Z" transform="translate(-55.1 54.19)"/><path class="a" d="M115.88-36.63c-7.23-2.07-14.16-4.08-24.53-6.78l-4.46-1,14.1,4.1C111.13-37.39,116.43-36.19,115.88-36.63Z" transform="translate(-55.1 54.19)"/><path class="a" d="M86.89-44.43,81-46.18l3.9,1.26,1.17.3Z" transform="translate(-55.1 54.19)"/><path class="a" d="M226,118.62l300.24,56.6-4.58,30.72q-62.92-7.19-126.25-13.48c-4.8-.47-8.86-.77-9.1-.67a69.63,69.63,0,0,0,7.92,1c42.62,4.24,85.16,8.78,127.38,13.61l4.71-31.61L227.9,118.51c-4.76-.89-8.7-1.53-9.37-1.53A58.56,58.56,0,0,0,226,118.62Z" transform="translate(-55.1 54.19)"/><path class="a" d="M362.16,201.43c-3.26-1.07-3.19-.91.14.38,2.85,1.09,7.95,3,11.17,4.08,2.72.92,2.68.74-.15-.39C370,204.19,364.92,202.31,362.16,201.43Z" transform="translate(-55.1 54.19)"/><path class="a" d="M329.74,200.5,315.63,196c-4.65-1.43-9.26-2.64-13.76-3.92l-13.23-3.67-12.73-2.91c-3.07-.71-6.5-1.57-9.08-2.26.54.24-.12.17-1.8-.16-.84-.16-1.93-.39-3.24-.69l-4.67-.86L233.36,177c-2-.42-4-.67-6-1l-6-.9-12.1-1.79-12.14-1.8-12.27-1.38-24.66-2.79c-2.06-.26-4.14-.42-6.21-.59l-6.23-.52-12.49-1c-8.33-.67-16.68-1.45-25.08-2.05l-50.69-3,1-18.12c82.2,4.11,166,9.75,248.91,16.5,1-.07,3-.06,6.44.09,10.52.42,31.59,2,53.4,4.2l16.45,1.69q69.72,7,139,15.09l-3.25,21.74-58.91-11.23c-13.38-2.25-28.89-5-45.73-8.07-56.51-9.87-113.18-19.81-171.08-30.11,3.61.81,5.78,1.38,5.71,1.56-1.2.22-14.65-2-30.27-4.88l-23.63-4.36,67.75,12.95,9,1.75,75.34,14,171.28,31.32L525,176.63c-158.4-17.09-311.8-28.9-464.39-36.2l-1.21,21.25L70,162.3c3.45.17,8.82.54,11.87.85,2,.24,1.66.36-2.18.16l-20.32-1,1.28-22.46c62.37,2.5,121.29,5.31,182.41,9.06s124.44,8.42,195.58,15q43.53,4.05,86.84,8.51l-5.37,36C393.16,186,266.64,163.49,136.8,140.21l5.34-42.14c20.44,1.26,41.6,2.6,62.86,4,128.46,9.39,250.37,19.74,375.73,32l-7.64,44.62c-59.62-14.07-120.47-27.62-183.43-40.58q-82.21-17-163.1-31.42T65.45,80.12l-.29-48.26c38.42-6.37,76.48-8,114-8S253.94,26,290.84,28.55s73.62,5.73,110.24,8.6,73.2,5.49,109.74,6.78c18.49.6,36.61.9,53.62.83l-3.51,49.33c-36.62-5.81-69.58-11.93-94.6-17-12.49-2.61-23-4.93-31-6.83a144.57,144.57,0,0,1-15.85-4.46c-6.9-2.91,15-.13,54.54,5.83-7.85-1.34-15.57-2.79-23.36-4.21l-18.47-3.52-18.44-3.63c-34.88-6.95-64.5-13.67-83-18.47L305.2,35.26c-8.43-2.37-18.19-5-28.51-7.77L244.84,18.8c-10.66-3-21.11-5.93-30.61-8.67s-18-5.38-24.84-7.57l6.42.72L189.3,1.46c-10.78-2.88-19.75-5.53-26.64-7.61S151-9.86,148.56-10.89l2.32-.43c4.81,0,15.88,1.74,33.49,5.07-.51-.55,1.67-.44,6.29.28C183.36-8.24,178-10.09,176-11.15s-.7-1.3,5.29-.4c-8.83-2.51-7.26-2.53,3.42-.15,3.68.8,8.11,1.82,12.61,2.89l-.1,0c-4.83-1.43-6.28-1.85-12.81-3.73L170.5-16.19c-23.5-6-23.49-6.07-43.78-11.45C118-30,111-32.14,106.14-33.58l-7.51-2.28c-18.89-6.78-18.86-6.88-15.69-6.77l3.8.81-20.6-6c-4.32-1.32-7.27-2.28-7.27-2.28-.56-.57-.56-.57-3.17-1.43-.8-.39-.57-.48-.57-.48,8.75,1.91,8.75,1.91,9,1.85,2.08.44,4.92,1.11,4.92,1.11l15.86,4.09,21.48,6.79,4.82.9,4.93,1.81-2.75-1.19c5.45,1.59,8.18,2.37,9.55,2.75l1.37.38-12.45-3.66c25.93,7,25.95,6.87,36.36,9.56,10.82,2.81,20.13,5,21.23,5.26-.87-.36-.9-.47-.9-.47l16.5,4.22,11.24,2.79C203.19-14.09,210-12.33,223.55-9l6.33,1.78c2.64.5,7.87,1.65,13.24,2.95,4.78,1.16,9.54,2.26,14.3,3.36l3.08.64s0,0,0,0L272.6,2.18l2.51.52.14,0c4.18.89,9.3,1.93,17.39,3.55s19.12,3.91,35.19,7l23.85,5.22-6.93-1.62c-4.44-1.09-.28-.61-2.71-1.16C312.13,9,280.93,1.87,249.24-5.64s-63.85-15.57-95.7-23.82c-11.45-2.88-22.11-5.87-23.72-6.61-1.4-.69,6.83,1.13,18.55,4.1,31.95,7.56,65.71,15.43,100.5,23.23S319.48,6.74,355.48,14.15c72,14.91,144.84,28.25,211.67,39.37L564.86,85.8l-6.5-.06c-36.77,0-73.47-2-110.07-4.6l5.22.55c-9.48-.73-18.94-1.47-28.37-2.28l-3.06-.23c7.16.74,14.29,1.54,21.42,2.23,4.94.4,9.88.83,14.91,1.19C494.82,85,530,86.67,564.87,86.71l2.42-34.09c-45.19-7.39-89.38-15.47-135-24.43-42.93-8.44-79.64-16.57-120-25.77C301.88.1,294.73-1.73,296-1.74S307,.2,317.19,2.43C357.71,11,400,19.44,442.42,27.31S527.2,42.52,567.84,49.06l-2.93,41.25c-56.52,0-108.72-4.39-153-8.68-25.34-2-49.63-4.19-69.72-6.25l-1.13-.1,15.47,1.85c-18.83-1.67-28.82-3-46-4.5l6.28,1.3c-40.91-3.38-83.17-6.31-124.77-7.1s-82.52.67-120,6.43L71.8,38.64l30.73,5.15,9.86,1.66c37,5.35,74.27,11.09,117.87,18.91-14.74-2.7-29.13-5.43-43.9-8,31.72,5.16,63.15,10.58,96.94,17.08,45.75,8.74,94.06,18.87,136.81,28.63s80,19.1,103.71,25.66L553,134.48l29.13,6.91-5.3,31q-218.38-22.11-437.23-36.57l4.14-32.71,40,7.34c9.13,1.66,17.28,3.35,18.86,3.89.89.4-5.17-.49-14.29-2.15l-44.8-8-3.88,30.64c113.52,7,228.44,16.06,343.42,26.69-108.77-10.79-218.23-20.25-330-28l-13.3-.89,3.32-26.2,29.22,5.36c14,2.57,27.88,5.22,41.7,7.89,105.54,19.65,207,38.61,311.8,57.88l-3.92,26.3c-35.35-3.9-71.08-7.6-107.48-11.09-61.79-5.92-119.79-10.81-177.76-15.09s-115.9-7.92-177.58-11.07l1.75-30.82,1.36.08,32.7,2,16.23,1c2.7.14,5.39.39,8.09.62l8.07.7,32.14,2.76,31.92,3.68,7.95.93c2.65.31,5.29.78,7.94,1.17L223.09,151l7.9,1.21,3.95.61c1.32.2,2.63.5,3.94.74l15.73,3.08,7.86,1.54,3.92.77c1.31.27,2.6.62,3.9.92l15.58,3.77,7.78,1.89c2.59.62,5.13,1.44,7.7,2.15l15.36,4.42,3.84,1.11c1.27.38,2.52.82,3.79,1.22l7.55,2.47c5,1.65,10.09,3.27,15.09,5l14.86,5.26c5,1.75,9.92,3.5,14.79,5.3L406,203.12l14.64,5.3c4.89,1.79,9.79,3.42,14.69,5.14,9.8,3.4,19.61,6.89,29.54,10l14.88,4.85,7.45,2.43c2.49.82,5,1.53,7.52,2.3L525,242.28c2.52.79,5.08,1.49,7.64,2.19l7.68,2.12,15.42,4.26c5.48,1.5,10.85,3,15.86,4.43s9.74,2.6,13.81,3.74c8.15,2.24,13.85,4,15.07,4.57s-2.15.08-8.66-1.33c-3.25-.7-7.27-1.62-11.87-2.7-2.29-.55-4.75-1.11-7.29-1.76l-8-2.15-31-8.41c-2.58-.72-5.19-1.36-7.75-2.14l-7.69-2.28-15.37-4.56-15.37-4.57-15.25-4.91L457,223.87l-3.81-1.22-3.79-1.31-7.58-2.61c-10.1-3.48-20.21-6.91-30.29-10.6l-30.32-10.95c-10.08-3.71-20.36-7.3-30.6-10.91-5.09-1.85-10.32-3.51-15.51-5.21s-10.39-3.41-15.61-5.06l-15.84-4.55-7.92-2.28c-1.31-.4-2.65-.71-4-1l-4-1c-10.69-2.54-21.33-5.39-32.13-7.29l-16.15-3.17-4-.79-4.05-.63-8.1-1.25L207,151.55c-2.7-.4-5.4-.88-8.1-1.21l-8.12-1c-10.83-1.24-21.65-2.59-32.48-3.75l-32.51-2.83-8.13-.71-4.07-.35-4.06-.25-16.27-1L60.7,138.42l-1.44,25.27c152.41,8,306.07,20.6,462.87,38.16l3.36-22.58L420.94,159.8,302.83,137.71c.49.18.94.34.92.43-.06.33-3.83-.06-10.11-1l133.72,25.28,98,17.69L522.23,201C428.78,191,334,182.05,234.58,174c-30.61-2.48-60.26-4.78-89.33-6.92S87.69,163,59.4,161.11L60.55,141,104,144.27c3.61.28,7.23.51,10.84.84l10.84,1.08,21.71,2.17,10.22.9c3.4.28,6.8.77,10.2,1.15l20.4,2.42,10.2,1.21c3.4.44,6.79,1,10.18,1.53L229,158.73l5.09.79c1.69.3,3.38.66,5.07,1l10.14,2,10.13,2,5.07,1c1.69.33,3.36.79,5,1.18l20.12,4.9c3.38.76,6.67,1.78,10,2.73l10,2.87c26.48,7.79,52.43,17.16,78,26.59s51.24,18.64,77.21,27c4.15,1.31,8.44,2.79,9.89,3.39s-.82,0-5-1.35c-8.94-2.86-18-5.6-26.87-8.73l-13.44-4.56c-4.48-1.53-9-3-13.46-4.66l-54.22-19.38c-9.16-3.17-18.27-6.5-27.62-9.42l-14-4.52c-4.68-1.45-9.44-2.73-14.16-4.1s-9.45-2.75-14.22-4L277.32,170l-7.2-1.73c-2.41-.55-4.79-1.21-7.22-1.64l-14.54-2.83c6.07,1.42,10.89,2.62,14.06,3.5s4.65,1.58,4.11,1.7a9.94,9.94,0,0,1-2.33-.13c-1.27-.13-3-.35-5.19-.67-4.34-.62-10.34-1.62-17.58-2.89L254.54,168l6.56,1.33,3.28.66,3.25.81,13,3.22,6.5,1.62,3.25.81,1.62.4,1.61.47c10.58,3.12,18.86,5.78,18.47,5.95s-8.79-2-18.85-5c-1.09-.33-2.19-.62-3.29-.88l-3.31-.82L280,174.9l-13.24-3.29c-2.2-.58-4.43-1-6.65-1.46l-6.68-1.35-13.35-2.7-6.68-1.34-6.71-1.07-13.43-2.14-13.43-2.14c-4.49-.63-9-1.13-13.48-1.7l-27-3.31-27-2.5-13.5-1.25c-2.25-.2-4.5-.44-6.76-.6l-6.75-.46-27-1.84-18.14-1.16-.51,8.93c80.34,4.29,160.39,9.81,240.75,16.55-11.94-1.43-20.72-2.6-24.88-3.46l0,0-40-3.2q-43.68-3.13-87.62-5.89t-88.15-5l.39-6.83,35.36,2.22L113.24,151l17.7,1.55,17.72,1.56,8.86.78c3,.25,5.9.67,8.86,1L184.09,158,193,159c3,.36,5.91.66,8.85,1.16l17.68,2.75,8.84,1.37,4.42.69c1.48.23,2.93.57,4.4.84l17.6,3.49,8.8,1.75c2.92.66,5.82,1.4,8.73,2.1l17.47,4.28,2.18.54,2.16.63,4.32,1.25,8.64,2.51,8.64,2.51c2.88.83,5.7,1.84,8.56,2.76l17.08,5.63,16.93,6,8.46,3,8.42,3.09,33.67,12.32c11.21,4.17,22.52,8,33.79,12,2.83,1,5.64,2,8.47,2.94l8.52,2.78L476.63,241l8.53,2.79,8.59,2.59,17.19,5.2,8.59,2.6c2.87.87,5.73,1.74,8.63,2.52l17.33,4.79,17.33,4.81c2.89.79,5.78,1.62,8.68,2.38l8.72,2.21,34.93,8.84c2.4.6,4.58,1.17,6.17,1.62a16,16,0,0,1,2.62.83,12,12,0,0,1-2.36-.42c-1.46-.33-3.47-.81-5.63-1.36l-27.69-7c-9.23-2.34-18.48-4.59-27.62-7.22-18.31-5.12-36.69-10-54.81-15.66l-13.62-4.12-6.81-2.05c-2.27-.7-4.51-1.47-6.77-2.2l-27-8.85c-9-3-17.9-6.23-26.84-9.33-4.48-1.54-8.93-3.17-13.38-4.79L398,214.27l.29.11c2.85,1.13,3.33,1.46.15.4-2.76-.93-8.37-3-11.16-4.1-3.27-1.3-2.91-1.32-.2-.4-26.24-9.73-52.64-19.37-79.58-27.31L297.41,180l-5.05-1.47c-1.69-.48-3.4-.85-5.1-1.28l-20.43-5-2.55-.63c-.86-.19-1.72-.34-2.58-.52l-5.15-1-10.29-2L236,166l-2.57-.51-2.59-.4-5.17-.81L205,161.11l-5.16-.81c-1.72-.28-3.46-.43-5.18-.65l-10.37-1.23L163.54,156c-1.72-.19-3.44-.43-5.17-.59l-5.18-.46L142.83,154l-20.7-1.81c-3.45-.29-6.89-.64-10.34-.87l-10.35-.65-41.3-2.59L59.8,154c29.16,1.53,57.93,3.17,86.62,4.93q-43.29-2.86-86.59-5.31l.29-5.18L97.5,151l9.34.63c3.11.22,6.23.38,9.34.7L134.84,154l18.66,1.71,4.66.42c1.55.15,3.1.37,4.65.55l9.31,1.14,18.6,2.27c3.1.4,6.21.71,9.3,1.19l9.26,1.47,18.52,3,4.63.73c1.55.25,3.07.6,4.61.9l9.19,1.86c6.13,1.25,12.27,2.44,18.39,3.75l18.21,4.53c3,.77,6.08,1.48,9.1,2.29l9,2.65,9,2.65,4.5,1.33,2.25.66,2.22.74,17.78,5.93,4.45,1.49,4.4,1.58,8.8,3.18c13.31,4.52,26.42,9.33,39.85,14.08,3.64,1.3,8.38,3.11,9.8,3.76,1,.47-1.73-.38-5.48-1.72l-11.12-3.95c11.42,4.23,21.48,8,28.62,10.9s11.39,4.57,11.09,4.84a21.59,21.59,0,0,1-4.35-1c-2.45-.69-5.83-1.74-9.87-3.13-8.11-2.75-19-6.56-30.86-11-7.95-2.89-15.86-5.88-23.84-8.69l-11.94-4.26-6-2.12-6-2q-24-8.18-48.48-14.63l-12.29-3-6.14-1.52c-2.05-.49-4.08-1.05-6.16-1.42l-24.8-5-3.1-.62c-1-.21-2.08-.34-3.12-.51l-6.25-1-12.49-2-12.49-2c-4.17-.56-8.36-1-12.54-1.55L164.64,160l-5.48-.59c-1.83-.17-3.66-.29-5.48-.44l-11-.84,9.78.92c3.27.31,6.53.6,9.78,1l19.5,2.44,9.74,1.21c3.25.43,6.51.76,9.73,1.34l19.38,3.13,9.69,1.57,2.42.4,2.4.49,4.8,1,19.21,3.93c1.6.34,3.21.61,4.79,1l4.76,1.19,9.5,2.38,9.5,2.39,2.37.59c.79.21,1.57.46,2.35.69l4.69,1.39,18.77,5.57L334.44,197c6.2,2,12.3,4.34,18.44,6.53s12.27,4.43,18.37,6.73l18.33,6.84,18.35,6.78,9.17,3.39,9.21,3.26L444.73,237c4.2,1.51,8.15,2.76,11,3.81a30.56,30.56,0,0,1,4.74,1.88,22.52,22.52,0,0,1-4.42-1.13c-2.78-.85-6.68-2-10.91-3.49l-23.35-8.05c-3.9-1.32-7.78-2.71-11.65-4.12l-11.62-4.18-23.24-8.43-11.62-4.23L352,205l-11.65-4.12c-3.9-1.33-7.82-2.57-11.72-3.86l-11.74-3.83C315,192.5,313,192,311,191.4l-5.93-1.71-11.86-3.42-3-.86c-1-.29-2-.5-3-.75l-6-1.46-12-2.92-6-1.46c-2-.47-4-.81-6.06-1.23l-24.27-4.79c-8.15-1.33-16.32-2.54-24.49-3.82-4.09-.61-8.16-1.33-12.26-1.85l-12.33-1.46-24.68-2.93-24.8-2.22L122,159.43l-6.21-.55-3.1-.28-3.11-.2-49.82-3.2.47-8.28q78.6,4.26,157.8,10.1c61.14,3.62,122.44,8,184.82,13.06l-23.72-2.34C266.71,157,163.52,150.18,60.31,145.19l-.67,11.73,30.75,1.81,15.39.9c2.57.16,5.14.28,7.7.48l7.69.64L152,163.33c2.57.23,5.16.38,7.73.69l7.71.89,15.46,1.77c5.16.61,10.34,1.16,15.52,1.81l15.48,2.36,15.56,2.37c2.61.35,5.17.92,7.76,1.41l7.76,1.52,15.58,3c1.31.23,2.6.54,3.89.86l3.87.94,7.77,1.89,7.79,1.89c2.59.66,5.22,1.2,7.79,2l15.53,4.49a81.56,81.56,0,0,1,9.12,2.94c.23.14-.45,0-1.77-.41s-3.33-.9-5.71-1.6l-15.55-4.48-3.87-1.11-3.9-1-7.78-1.88-15.46-3.73-15.52-3c-5.16-1-10.29-2-15.43-3l-15.49-2.34-15.44-2.33c-2.56-.42-5.15-.69-7.73-1l-7.74-.88c-41.22-5.19-82.64-7.46-125.34-10l.74-13,24.73,1.26c78.69,4.12,153.46,9.21,226.48,14.83-84.92-7.28-168-12.81-251.15-17.05l-.85,14.92,47,2.89,5.88.36,5.86.51,11.72,1,23.49,2c3.92.29,7.82.78,11.72,1.24l11.71,1.37,11.73,1.37,5.87.69,2.94.35,2.91.45c15.54,2.47,31.23,4.51,46.68,7.86,3.15.61,6.3,1.24,9.17,1.84s5.46,1.11,7.41,1.72c.35,0,1.63.27,3.55.7l13.68,3.15,7,1.64c2.36.56,4.7,1.28,7.08,1.92,9.48,2.69,19.27,5.24,29,8.53,3.74,1.18,8.42,2.79,10.35,3.57S333.91,201.81,329.74,200.5ZM549.26,59.05l-3.64-.72,12.86,2.27,7.35,1.56-1.06,14.9L554,76.52s2.1.07,10.82.17l1-14.17a5.73,5.73,0,0,0-1.41-.4c-.9-.21-2.19-.48-3.74-.8ZM323.7,20.86l.13,0-10.17-2.7Zm53.45,129.68c67.16,5.86,133.66,12.35,199.89,19.57l4.54-26.54-32.31-8,32.39,7.64L577,170.44l-23.54-2.32Q465.65,158.84,377.15,150.54ZM398.94,28.81l27.37,6.09,23.35,5.28,41.53,7.23c12.76,2.28,25.43,4.34,37.94,6.46s24.89,4,37,6L564.8,79.37c-13,0-25.4-.08-37.71-.46,4.85.46-4.12.2-8.7.13l-14.06-.41c19.95.9,40,1.46,60.47,1.39l1.48-20.79-29.22-4.8-29.59-5.09C471.66,43.05,432.82,35.81,398.94,28.81ZM129.52-31l-3.24-1,7.28,1.34ZM118-33l5.46,1.49A27,27,0,0,1,118-33Zm50.2,13.45c-2.95-.88-4.74-1.41-7.08-2.05Zm32.3,23.4c6.78.77,13.56,1.54,20.35,2.24-7.38-.87-14.74-1.83-22.11-2.77Z" transform="translate(-55.1 54.19)"/></svg>