<?xml version="1.0" encoding="utf-8"?>
<!-- Generator: Adobe Illustrator 25.0.1, SVG Export Plug-In . SVG Version: 6.00 Build 0)  -->
<svg version="1.1" id="Layer_1" xmlns="http://www.w3.org/2000/svg" xmlns:xlink="http://www.w3.org/1999/xlink" x="0px" y="0px"
	 viewBox="0 0 600 200" style="enable-background:new 0 0 600 200;" xml:space="preserve">
<style type="text/css">
	.st0{fill:#1D1D1D;}
</style>
<g>
	<g>
		<g>
			<g>
				<path class="st0" d="M-72.47-34.85c0.96,0.18,1.91,0.35,2.85,0.53c-1.82,0.33-4.53,0.34-7.62,0.18
					c29.92,4.2,69.31,1.68,94.7-2.52c9.16,0.15,17.3-1.1,18.18-2.8c0.85-1.71-5.89-3.21-15.13-3.37c-2.03-0.2-4.41-0.34-5.88-0.63
					c-13.19-2.64-29.29-4.45-47.05-5.8c3.42,0.49,6.99,1.01,10.41,1.5c-5.13-0.41-10.2-0.85-15.92-0.87
					c0.6,0.31,1.37,0.63,1.97,0.94c-17.66-2.27-41.88-1.46-54.09,1.79c-12.25,3.25-7.94,7.72,9.73,9.98L-72.47-34.85z"/>
				<path class="st0" d="M-39.51-24.96c-10.58-1.12-20.73-2.32-30.9-3.55l-2.01-0.58l0.68,2.62l0.2-0.17
					c9.53-2.19,25.22-3.09,39.69-3.71l5.16-0.38c2.47-0.34,4.12-0.85,4.63-1.4c1.21-1.26-3.3-2.44-10.04-2.66l-7.77-0.23
					c-18.92-1.51-48.69-1.57-59.24,2.86c-2.38,1.03-0.3,2.33,0.22,3.53c-0.72,1.73,6.4,3.25,15.85,3.37
					c9.47,0.12,17.59-1.18,18.24-2.93c1.6,0.12,3.25,0.25,4.84,0.36c-1.25,0.21-2.52,0.41-3.79,0.62
					c2.67-1.51,11.29-1.85,17.71-2.66l9.61-0.42l-5.43-4.06l-5.01,0.54c0.38,0.17,1.12,0.43,1.05,0.44
					c-9.52,1.11-18.48,2.21-28.91,2.93l-13.12,1.48c-3.56,0.77-3.21,1.92,0.68,2.62l5.82,0.88c-0.88-0.17-1.76-0.35-2.63-0.52
					c13.42,0.92,27.57,1.46,40.85,2.44c2.1,0.19,4.65,0.02,5.76-0.38C-36.43-24.31-37.34-24.78-39.51-24.96z"/>
				<g>
					<path class="st0" d="M-86.88-24.42c-2.17-0.31-4.26-0.64-7.37-0.57c-0.75,0.18-1.13,0.28-1.32,0.32
						c1.15,0.19,2.7,0.44,4.25,0.7C-88.27-23.47-86.69-23.85-86.88-24.42z"/>
					<path class="st0" d="M-95.57-24.66c-1.06-0.18-1.77-0.29-1.77-0.29c0.41,0.13,0.8,0.26,1.19,0.38
						c0.34-0.03,0.35-0.03,0.35-0.03S-95.8-24.61-95.57-24.66z"/>
					<path class="st0" d="M490.68-32.07c41.53,0.87,83.22,1.45,124.9,1.87c1.4,0.02,2.57-0.17,2.64-0.42
						c0.07-0.22-1.02-0.45-2.31-0.45c-41.7-0.46-83.19-1.06-124.71-1.92c-1.4-0.01-2.55,0.17-2.74,0.41
						C488.4-32.32,489.38-32.1,490.68-32.07z"/>
					<path class="st0" d="M801.56-7.6c-0.98,0.22-0.93,0.48,0.09,0.63c0.88,0.13,2.44,0.11,3.41-0.11c0.82-0.19,0.78-0.5-0.1-0.63
						C803.94-7.87,802.38-7.79,801.56-7.6z"/>
					<path class="st0" d="M793.07,12.31c-5.87,0.48-11.43,0.98-16.39,1.7c-0.93,0.11-1.97,0.1-2.75,0.01
						c0.34,0.4-0.77,0.78-2.88,0.97c-20.83,1.83-42.27,2.93-64.05,3.93c-21.78,0.98-43.87,1.76-65.78,2.66
						c-0.29,0.33-0.87,0.65-1.85,0.95c-3.03,1.01-9.12,1.54-15.44,1.36l-4.77-0.25c-19.25-0.57-38.46-1.13-57.6-1.69
						c-3.92,0.46-8.46,0.77-13.4,0.87c-16.56,1.26-33.17,2.45-50.14,3.37c1.07,0.28,1.71,0.61,1.7,0.98
						c-0.33,0.87-4.26,1.52-8.85,1.49c-2.32,0.02-4.63,0.04-6.94,0.05c6.64,0.23,13.29,0.46,19.91,0.68
						c0.96,0.02,1.84,0.07,2.65,0.15c7.28,0.04,14.64,0.02,22.12-0.06c65.3-0.77,126.69-4.07,187.61-7.89
						c1-0.14,2.56-0.12,3.45,0.09c0.59,0.21,0.49,0.5-0.63,0.61c-38.4,4.38-71.62,10.14-115.04,13
						c-51.67,3.43-102.69,6.3-155.65,8.52c-55.38-0.01-106.61,2.09-163.09,3.64c-76.29,2.13-148.36,2.47-223.01,2.66
						C34.28,50.8,8.66,47.15,5.04,42.01c-2.11-3.12,4.22-6.07,15.72-8.08c-2.29-0.02-4.55-0.04-6.83-0.07L3.12,33.25
						c-10.23-0.62-18.96-1.9-24.46-3.65l-7.57-2.16c-10.07-4.1-26.38-7.55-34.61-11.85l1.85-1.61l-1.95-0.47
						c-6.43-1.19-10.77-2.73-12.26-4.39l0.62-1.96c1.35-2.24,4.57-4.35,9.73-6.33c-0.18-0.83,0.44-1.64,1.78-2.41
						c-4.41-2.01-6.49-4.11-3-6.43c-2.65-0.58-2.21-1.43,0.95-1.92c1.09-0.16,2.4-0.27,3.74-0.3c-0.02-0.01-0.03-0.01-0.03-0.01
						c-1.45-0.51-1.89-0.66-3.85-1.23c-2.64-0.19-4.16-0.3-4.16-0.3c-7.01-0.37-7.01-0.37-13.08-0.68
						c-5.23-0.69-8.46-1.65-8.46-1.65c-5.78-3.5-5.78-3.5-4.89-5.01c0.34-0.15,0.72-0.29,1.12-0.43c-4.63-0.5-4.95-0.54-6.2-0.7
						c-1.31-0.27-2.2-0.58-2.2-0.58c-0.2-0.81-0.2-0.81-0.99-1.11c-0.25-0.32-0.2-0.61-0.2-0.61c2.59-0.9,2.59-0.9,2.66-1.16
						c0.61-0.24,1.46-0.44,1.46-0.44c3.03-0.27,4.23-0.38,4.74-0.43c6.49,2.1,6.51,2.11,6.51,2.11c1.41-0.72,1.41-0.72,1.41-0.72
						c1.51,0.97,1.51,0.97,1.51,0.97c-0.86-0.89-0.86-0.89-0.86-0.89c3.29,0.54,3.29,0.54,3.29,0.54c-3.75-0.78-3.75-0.78-3.75-0.78
						c7.77,0.32,7.77,0.32,10.88,0.29c3.23,0.11,6-0.1,6.33-0.12c-0.27-0.28-0.29-0.47-0.29-0.47c8.31,0.37,8.31,0.37,16.4,0.72
						c0.75,0.2,1.34,0.39,1.9,0.58c0.78-0.24,2.33-0.38,3.93-0.31c1.42,0.05,2.84,0.1,4.25,0.16c0.32-0.04,0.62-0.08,0.91-0.12
						c0-0.04-0.01-0.07-0.01-0.07c1.44-0.17,2.44-0.28,3.59-0.41c0.72-0.1,0.74-0.1,0.74-0.1c0.01,0,0.03,0.01,0.04,0.01
						c2.47-0.29,6.05-0.7,15.52-1.8c2.51,0.11,4.85,0.25,7.06,0.42c-0.71-0.13-1.4-0.26-2.06-0.4c-1.32-0.29-0.12-1.06-0.84-1.13
						c-17.74-1.66-37.07-2.34-56.13-3.22c-3.42,0.09-6.62-0.37-7.13-1c-0.44-0.64,2-1.22,5.5-1.3c38.62-4.18,86.05-3.61,125.72-0.27
						c10.44,0.41,20.95,0.76,31.48,1.09c-0.51-0.13-1.01-0.26-1.51-0.39c2.73,0.2,5.46,0.4,8.18,0.6c0.3,0.01,0.59,0.02,0.88,0.03
						c-2.07-0.48-4.13-0.95-6.19-1.42c-1.42-0.14-2.85-0.28-4.29-0.41C52.42-33,30.26-35.2,6.66-36.61
						c-12.68-0.76-23.58-2.12-35.57-3.13c-3.09-0.08-5.23-0.59-4.86-1.17c0.36-0.55,3.24-0.95,6.26-0.88
						c40.01-0.99,85.68-0.07,117.72,4.78c7.31,0.03,14.34,0.42,20.18,1.3c0.11,0.01,0.22,0.01,0.33,0.02
						c-1.53-0.41-2.96-0.78-4.5-1.19c5.46,0.3,8.37,1.27,13.35,1.69c-0.57-0.54-1.27-1.08-1.84-1.62
						c26.95,1.01,56.09,0.56,81.04,2.9c1.01,0.03,1.94,0.09,2.88,0.15c10.74-1.13,21.61-2.22,34.35-2.37
						c-4.31-0.17-8.53-0.35-12.84-0.52c9.25-0.69,18.42-1.16,28.32-1.09c26.81,0.15,56.8,2.65,70.97,6.88
						c51.95-0.5,103.97-0.9,155.81-1.93c2.68-0.07,5.08,0.27,5.56,0.75c0.28,0.47-1.49,0.94-4.17,1
						c-37.18,1.66-74.89,2.54-112.69,3.29c31.58,0.84,63.33,1.63,95.69,1.8c4.12-0.07,8.27-0.14,12.43-0.21
						c4.11-0.07,8.19,0.06,12.25,0.26c41.35,0.03,80.59,0.3,122.78-0.9c36.03-1.04,67.55-2.13,103.43-3.62
						c12.58-0.53,24.88-1.04,37.03-1.56c12.1-0.51,23.95-1.03,35.69-1.61c23.47-1.17,46.48-2.56,69.89-4.79
						c3.11-0.35,6.11-0.51,8.45-0.4c2.34,0.11,4.02,0.45,4.45,1.01c0.9,1.14-3.48,2.77-9.74,3.58c-24.46,3.39-49.47,5.34-74.87,6.67
						c-12.7,0.66-25.51,1.17-38.42,1.62c-12.95,0.42-25.91,0.83-38.91,1.25c-52.03,1.54-104.65,2.54-158.93,2.23
						c-11.71-0.08-23.23-0.15-34.68-0.22c0.15,0.17,0.29,0.33,0.29,0.5c0,0.67-1.09,1.29-2.92,1.8c13.01,0.17,26.12,0.43,39.28,0.79
						c36.59-1.4,73.23-2.8,112.24-2.08c26.79,0.52,51.04,1.97,75.81,3.31c31.37-0.77,62.35-1.75,93.16-4.19
						c1.23-0.16,2.51-0.1,2.97,0.11c0.46,0.21-0.19,0.49-1.43,0.64c-21.13,2.8-43.16,4.36-65.55,5.52c3.54,0.74,5.65,1.72,5.37,2.81
						c-0.27,1.13-3,2.15-7.2,2.89l15.26-0.05c3.14,0,5.61,0.39,5.54,0.95c-0.06,0.61-2.55,1.09-5.54,1.11
						c-20.75,0.18-41.56,0-62.38-0.07C693.38-7.98,668.48-7.45,643.44-7c3.47,0.74,6.03,1.66,7.24,2.69
						c0.01,0.01,0.01,0.02,0.01,0.02c3.88-0.03,7.74-0.05,11.59-0.08c17.68-0.78,35.47-1.48,53.34-2.08
						c17.87-0.61,35.85-1.04,53.81-1.54c35.93-1,71.93-2.29,107.57-6.53c1.39-0.18,2.57-0.12,2.63,0.14
						c0.06,0.26-0.99,0.6-2.25,0.74c-21.55,2.6-43.23,4.07-64.94,5.06c0.04,0,0.05,0.01,0.09,0.01c0.88,0.12,1.06,0.41,0.1,0.63
						c-0.83,0.2-2.54,0.26-3.41,0.14c-1.01-0.15-0.93-0.44-0.12-0.62c-20.24,0.86-40.49,1.36-60.7,1.9
						C728.21-6,708.07-5.35,688.09-4.56c18.58-0.13,37.16-0.23,55.72-0.24c18.56-0.01,37.08,0.01,55.56-0.18
						c4.02-0.44,8.02-0.88,12.1-1.32c1.11-0.1,2.57,0,3.02,0.22c0.32,0.2-0.49,0.49-1.63,0.6c-1.13,0.12-2.25,0.24-3.38,0.37
						c6.99-0.14,12.43,0.7,12.37,2.03c-0.32,1.4-6.31,2.72-13.6,2.91c-19.53,0.87-39.01,1.14-58.48,1.22l-6.32,0.24
						c-2.13,0.22-4.23,0.43-6.35,0.64c30.28,0.54,60.54,1.16,90.7,0.31c2.58-0.16,4.81,0.1,4.89,0.57c0.09,0.47-1.98,0.99-4.58,1.15
						c-26.54,2.33-53.31,3.31-80.08,4.01c-26.76,0.68-53.61,1.21-80.52,1.64c-17.67,2.04-35.39,4.09-53.44,6.18
						c2.27,0.02,4.57,0.04,6.87,0.06c29.26,0,56.3-1.46,83.11-3.07c13.41-0.81,26.75-1.65,40.29-2.37
						c13.55-0.72,27.32-1.35,41.55-1.86c1.42-0.08,2.61,0.1,2.8,0.34c0.16,0.24-0.81,0.49-2.25,0.52
						c-13.9,0.61-27.16,1.35-40.38,2.14c-13.21,0.78-26.36,1.63-40.08,2.33c-22.73,1.17-44.34,2.25-65.45,3.8
						c21.59-0.28,42.73-1.05,63.83-1.9c21.1-0.86,42.11-1.72,63.6-2.4c1.88-0.12,3.77-0.02,4.97,0.23c0.1-0.13,0.48-0.26,1.06-0.34
						c5.37-0.7,11.23-1.25,17.23-1.75c1.14-0.13,2.6-0.06,3.21,0.19C795.04,11.89,794.35,12.14,793.07,12.31z M41.57-15.57
						c-0.42-0.11-0.76-0.2-1.07-0.29c1.16,0.15,2.4,0.31,3.78,0.49c0,0,0,0,5.27,1.94C49.54-13.42,45.55-14.5,41.57-15.57z
						 M-24.56-8.44c0.01,0,0.01,0,0.04,0c-1.76-0.63-3.04-1.09-3.04-1.09C-26.33-9.08-25.37-8.73-24.56-8.44z M397.72-25.31
						c-22.71-0.04-45.19-0.5-67.62-1.72c5.48-0.11,10.94-0.21,16.42-0.32C363.53-26.76,380.58-26.08,397.72-25.31z M-2.78-22.91
						c5.98,1.01,10.63,2.26,15.03,3.54c3.93-0.23,8.04-0.32,12.2-0.26c11.17,0.14,22.06,0.4,32.79,0.76
						c-1.39-0.68,1.18-0.6,2.49-0.68c1.35-0.06,2.69-0.11,4.03-0.16c-11.43-0.49-22.91-1.03-34.57-1.61
						C18.66-21.84,7.23-22.14-2.78-22.91z M-82.65-20.3c-0.32-0.08-0.61-0.16-0.98-0.25c0,0,0,0,2.14-1.02
						C-81.49-21.57-82-21.04-82.65-20.3z M-86.02-18.57c0.53,0.05,1.06,0.09,1.64,0.14C-84.97-18.05-85.5-18.18-86.02-18.57z
						 M-70.99-17.28c-0.89-0.27-1.43-0.44-2.13-0.55C-71-17.28-70.99-17.28-70.99-17.28z M-60.33,12.8l5.86-5.11l-6.39,4.91
						L-60.33,12.8z"/>
				</g>
			</g>
		</g>
	</g>
</g>
<g>
	<g>
		<g>
			<g>
				<path class="st0" d="M758.52,71.92c-0.95-0.15-1.88-0.29-2.8-0.43c1.77-0.39,4.42-0.49,7.45-0.43
					c-29.41-3.08-67.84,0.3-92.62,5.14c-8.97,0.02-16.92,1.38-17.75,3.11c-0.8,1.72,5.84,3.11,14.89,3.12c2,0.18,4.33,0.25,5.77,0.5
					c12.98,2.31,28.81,3.72,46.27,4.64c-3.37-0.41-6.88-0.83-10.25-1.24c5.04,0.29,10.02,0.59,15.63,0.48
					c-0.6-0.3-1.36-0.59-1.96-0.89c8.69,0.96,18.97,0.9,28.56,0.27c9.59-0.65,18.48-1.96,24.4-3.79c11.89-3.66,7.49-7.97-9.88-9.65
					L758.52,71.92z"/>
				<path class="st0" d="M725.98,63.08c10.37,0.83,20.33,1.65,30.31,2.56l1.98,0.51l-0.75-2.6l-0.19,0.17
					c-4.62,1.25-10.76,2.23-17.51,3.04c-3.38,0.4-6.9,0.76-10.47,1.08c-3.57,0.3-7.18,0.56-10.71,0.8l-5.04,0.51
					c-2.41,0.4-4,0.95-4.49,1.52c-1.15,1.29,3.3,2.36,9.9,2.41l7.61,0.04c18.56,0.94,47.71-0.02,57.86-4.79
					c2.29-1.11,0.2-2.34-0.34-3.52c0.64-1.75-6.37-3.03-15.61-2.85c-9.25,0.19-17.15,1.76-17.73,3.53c-1.57-0.07-3.19-0.14-4.74-0.2
					c1.21-0.25,2.45-0.5,3.69-0.75c-2.56,1.6-10.98,2.23-17.23,3.24c-3.13,0.26-6.26,0.45-9.39,0.68l5.43,3.92l4.88-0.69
					c-0.38-0.16-1.1-0.39-1.04-0.41c9.29-1.42,18.01-2.82,28.19-3.88l12.78-1.91c3.45-0.89,3.07-2.02-0.76-2.6l-5.72-0.68
					c0.87,0.14,1.73,0.29,2.59,0.43c-13.15-0.48-26.99-0.55-39.99-1.09c-2.05-0.14-4.55,0.09-5.62,0.52
					C722.96,62.51,723.85,62.96,725.98,63.08z"/>
				<g>
					<path class="st0" d="M772.25,61.02c2.14,0.24,4.19,0.5,7.22,0.32c0.72-0.21,1.09-0.31,1.28-0.37
						c-1.13-0.15-2.65-0.35-4.18-0.56C773.57,60.02,772.05,60.45,772.25,61.02z"/>
					<path class="st0" d="M780.75,60.97c1.05,0.14,1.74,0.23,1.74,0.23c-0.4-0.12-0.8-0.23-1.17-0.34
						c-0.33,0.04-0.34,0.04-0.34,0.04S780.97,60.91,780.75,60.97z"/>
					<path class="st0" d="M207.43,66.11c-20.29-1.23-40.6-2.74-60.93-4.08c-20.34-1.28-40.68-2.87-61.02-4.29
						c-1.36-0.1-2.52,0.02-2.6,0.27c-0.08,0.22,0.96,0.51,2.23,0.58c20.35,1.44,40.65,3.04,60.94,4.33
						c20.29,1.35,40.55,2.86,60.83,4.09c1.37,0.07,2.5-0.06,2.7-0.29C209.65,66.45,208.7,66.2,207.43,66.11z"/>
					<path class="st0" d="M-94.14,21.01c0.98-0.11,0.97-0.37-0.02-0.64C-95,20.15-96.52,20-97.49,20.1
						c-0.82,0.09-0.82,0.41,0.02,0.64C-96.49,21-94.96,21.1-94.14,21.01z"/>
					<path class="st0" d="M-83.75,2.13c5.68,0.12,11.07,0.17,15.9-0.09c0.9-0.02,1.9,0.09,2.64,0.25c-0.29-0.43,0.81-0.71,2.86-0.7
						c10.09,0.06,20.36,0.14,30.76,0.31c10.4,0.18,20.91,0.46,31.5,0.79c21.17,0.61,42.63,1.23,63.93,1.84
						c0.3-0.31,0.89-0.59,1.86-0.82c3-0.79,8.94-0.97,15.05-0.42l4.6,0.53c9.31,0.84,18.61,1.68,27.9,2.52
						c4.65,0.42,9.29,0.84,13.93,1.26c4.64,0.4,9.28,0.79,13.91,1.19c3.82-0.27,8.25-0.35,13.04-0.19
						c8.06-0.18,16.13-0.37,24.25-0.56c8.12-0.13,16.28-0.27,24.53-0.4c-1.02-0.32-1.63-0.68-1.61-1.05
						c0.36-0.86,4.2-1.34,8.64-1.12c2.25,0.08,4.48,0.16,6.73,0.24c-6.43-0.51-12.86-1.01-19.27-1.52
						c-0.93-0.06-1.78-0.15-2.56-0.26c-7.06-0.31-14.18-0.73-21.43-1C110.12,0.63,50.48-0.04-8.82-0.67
						c-0.98,0.06-2.49-0.08-3.33-0.35c-0.56-0.25-0.43-0.53,0.66-0.56c9.38-0.39,18.44-0.8,27.43-1.4
						c8.98-0.58,17.89-1.15,26.94-1.74c9.05-0.55,18.24-1.04,27.81-1.4c9.57-0.43,19.51-0.73,30.06-0.81
						c50.19-0.3,99.7-0.91,151.02-1c13.4,0.47,26.55,0.79,39.59,1.03c6.52,0.11,13.02,0.22,19.5,0.27c6.49,0,12.97,0.01,19.45,0.01
						c12.97-0.05,25.98-0.11,39.16-0.16c13.18-0.17,26.53-0.34,40.2-0.52c73.85-0.97,143.55-1.29,215.75-2.53
						c13.52-0.57,26.48-0.05,36.53,1.25c10.05,1.32,17.17,3.26,18.98,5.8c2.11,3.06-3.94,6.19-15.05,8.44
						c2.22-0.03,4.41-0.05,6.62-0.08l10.49,0.35c9.93,0.37,18.42,1.44,23.81,3.05l7.4,1.98c4.94,1.91,11.4,3.68,17.63,5.38
						c6.24,1.7,12.26,3.44,16.33,5.45l-1.74,1.67l1.91,0.41c6.29,0.98,10.56,2.38,12.06,3.98l-0.54,1.98
						c-1.24,2.28-4.3,4.5-9.26,6.64c0.2,0.83-0.37,1.66-1.66,2.47c4.36,1.87,6.46,3.9,3.14,6.33c2.6,0.49,2.2,1.36-0.86,1.95
						c-1.06,0.2-2.33,0.34-3.64,0.42c0.02,0.01,0.03,0.01,0.03,0.01c1.43,0.46,1.86,0.6,3.8,1.1c2.58,0.1,4.07,0.16,4.07,0.16
						c6.85,0.13,6.85,0.13,12.78,0.25c5.12,0.52,8.31,1.37,8.31,1.37c5.77,3.31,5.77,3.31,4.96,4.85c-0.33,0.16-0.69,0.32-1.08,0.47
						c4.54,0.35,4.86,0.38,6.08,0.49c1.29,0.23,2.17,0.51,2.17,0.51c0.23,0.81,0.23,0.81,1.01,1.07c0.26,0.31,0.21,0.61,0.21,0.61
						c-2.49,0.99-2.49,0.99-2.55,1.25c-0.59,0.26-1.41,0.49-1.41,0.49c-2.95,0.37-4.12,0.52-4.62,0.58
						c-6.42-1.88-6.44-1.89-6.44-1.89c-1.35,0.77-1.35,0.77-1.35,0.77c-1.51-0.92-1.51-0.92-1.51-0.92
						c0.87,0.86,0.87,0.86,0.87,0.86c-3.23-0.43-3.23-0.43-3.23-0.43c3.69,0.65,3.69,0.65,3.69,0.65c-7.6-0.07-7.6-0.07-10.64,0.07
						c-3.16,0-5.86,0.3-6.18,0.33c0.27,0.27,0.3,0.46,0.3,0.46c-8.13-0.09-8.13-0.09-16.05-0.18c-0.74-0.17-1.32-0.35-1.87-0.52
						c-0.75,0.27-2.26,0.46-3.83,0.44c-1.39-0.01-2.77-0.01-4.16-0.02c-0.31,0.05-0.61,0.1-0.89,0.15c0,0.04,0.01,0.07,0.01,0.07
						c-1.41,0.2-2.38,0.34-3.49,0.51c-0.7,0.12-0.72,0.12-0.72,0.12c-0.01,0-0.03-0.01-0.04-0.01c-2.41,0.35-5.89,0.85-15.12,2.18
						c-2.46-0.05-4.75-0.13-6.92-0.24c0.7,0.11,1.37,0.22,2.02,0.35c1.3,0.25,0.14,1.06,0.85,1.11c8.69,0.6,17.77,1,27.01,1.19
						c9.24,0.12,18.63,0.25,27.96,0.38c3.34-0.21,6.49,0.15,7,0.76c0.46,0.63-1.91,1.29-5.33,1.48c-9.41,1.36-19.37,2.45-29.63,3.28
						c-10.26,0.8-20.81,1.24-31.4,1.5c-10.59,0.25-21.22,0.26-31.63,0.07c-10.41-0.27-20.61-0.77-30.33-1.44
						c-10.23-0.24-20.51-0.42-30.82-0.58c0.5,0.12,0.99,0.25,1.48,0.37c-2.67-0.17-5.34-0.35-8.01-0.52
						c-0.29-0.01-0.58-0.01-0.86-0.02c2.03,0.46,4.05,0.92,6.07,1.37c1.39,0.14,2.79,0.24,4.2,0.35c11.96,0.1,23.37,0.61,34.68,1.22
						c11.31,0.6,22.53,1.38,34.1,1.75c12.43,0.45,23.14,1.54,34.91,2.25c3.03,0,5.14,0.46,4.8,1.05c-0.34,0.56-3.15,1.03-6.1,1.04
						c-39.17,2.09-83.97,1.94-115.4-2.56c-7.16,0.02-14.05-0.31-19.77-1.14c-0.1,0-0.22-0.01-0.32-0.01
						c1.51,0.39,2.91,0.76,4.41,1.15c-5.35-0.25-8.21-1.21-13.09-1.58c0.56,0.54,1.25,1.07,1.81,1.6c-6.6-0.2-13.33-0.31-20.1-0.39
						c-6.77-0.08-13.57-0.24-20.32-0.38c-13.49-0.31-26.73-0.79-38.93-1.96c-0.98-0.03-1.9-0.09-2.82-0.15
						c-10.52,1.07-21.17,2.04-33.65,2.08c4.22,0.21,8.35,0.42,12.57,0.63c-9.06,0.61-18.05,1-27.75,0.84
						c-13.13-0.14-27.02-1.11-39.36-2.49c-12.34-1.39-23.11-3.26-30-5.5c-12.71-0.13-25.42-0.4-38.13-0.59
						c-12.71-0.23-25.43-0.35-38.14-0.69c-25.42-0.57-50.83-1.14-76.19-1.71c-2.62-0.04-4.96-0.49-5.4-0.98
						c-0.25-0.48,1.5-0.87,4.12-0.83c9.1-0.02,18.24,0,27.4,0.07c9.16,0.03,18.34,0.06,27.54,0.09c9.2,0.08,18.41,0.17,27.64,0.25
						c9.23,0.14,18.47,0.1,27.71,0.18c-7.71-0.41-15.44-0.82-23.18-1.23c-7.74-0.45-15.49-0.9-23.27-1.35
						c-7.78-0.41-15.58-0.82-23.42-1.23c-7.83-0.38-15.7-0.77-23.6-1.16c-4.03-0.11-8.09-0.21-12.15-0.32
						c-4.02-0.1-7.99-0.41-11.96-0.77c-10.1-0.47-20.07-0.85-29.98-1.39c-9.92-0.5-19.78-1.01-29.67-1.51
						c-9.89-0.44-19.81-0.88-29.83-1.33c-10.02-0.46-20.15-0.87-30.46-1.19c-8.81-0.26-17.34-0.52-25.74-0.77
						c-8.39-0.29-16.65-0.58-24.9-0.87c-16.5-0.57-33-0.96-50.55-1.65c-12.33-0.43-24.39-0.85-36.3-1.27
						c-5.96-0.2-11.87-0.47-17.77-0.75c-5.89-0.29-11.77-0.59-17.64-0.88c-11.73-0.63-23.45-1.27-35.26-2.11
						c-11.81-0.89-23.72-1.89-35.85-3.05c-6.47-0.47-12.36-1.92-12.99-3.21c-0.66-1.29,4.13-1.97,10.62-1.5
						c101.52,5.96,201.18,9.04,307.08,15.14c11.43,0.67,22.67,1.33,33.84,1.98c-0.14-0.17-0.26-0.34-0.26-0.51
						c0.03-0.67,1.12-1.22,2.94-1.66c-12.69-0.8-25.47-1.75-38.29-2.77c-8.94-0.13-17.89-0.19-26.87-0.41
						c-8.98-0.23-18-0.49-27.09-0.82c-9.09-0.33-18.25-0.73-27.51-1.24c-9.26-0.56-18.62-1.27-28.12-2.11
						c-13.04-1.18-25.45-2.48-37.59-3.98c-12.14-1.54-24.03-3.16-36.04-4.77c-7.66-0.4-15.31-0.81-22.97-1.21
						c-7.65-0.45-15.31-0.9-22.97-1.35c-7.67-0.46-15.34-0.92-23.03-1.38c-3.85-0.24-7.7-0.48-11.55-0.73
						c-3.85-0.28-7.71-0.56-11.57-0.84c-1.24-0.03-2.51-0.28-2.93-0.56c-0.42-0.28,0.27-0.45,1.52-0.42
						c10.67,0.29,21.47,0.59,32.36,0.89c10.88,0.34,21.85,0.74,32.86,1.18c-3.4-1.06-5.37-2.23-5-3.29c0.37-1.1,3.13-1.87,7.29-2.22
						l-14.9-1.37c-3.07-0.31-5.45-0.95-5.31-1.5c0.12-0.6,2.6-0.82,5.52-0.55c20.26,1.9,40.5,3.5,60.74,5.17
						c6.09,0.32,12.17,0.65,18.25,0.97l18.24,0.87c12.16,0.6,24.32,1.19,36.52,1.79c-3.33-0.98-5.75-2.06-6.87-3.17
						c0-0.01,0-0.02,0-0.02c-3.77-0.23-7.53-0.47-11.28-0.7c-69-1.59-139.57-5.66-210.36-13.32c-1.39-0.12-2.51-0.44-2.51-0.71
						c0-0.26,1.1-0.37,2.34-0.23c21.38,2.2,42.71,4.29,64,5.99c-0.04-0.01-0.05-0.01-0.09-0.02c-0.84-0.23-0.98-0.53-0.02-0.64
						c0.83-0.09,2.51,0.05,3.34,0.27c0.97,0.26,0.85,0.54,0.04,0.63c9.92,0.75,19.83,1.46,29.72,2.13
						c9.89,0.66,19.76,1.34,29.61,1.81c9.86,0.47,19.69,0.94,29.49,1.41c9.8,0.41,19.58,0.88,29.33,1.12
						c-36.14-2.41-72.27-5.07-108.26-8.79c-3.96-0.02-7.9-0.05-11.93-0.07c-1.09-0.03-2.5-0.31-2.91-0.58
						c-0.28-0.24,0.54-0.43,1.66-0.39c1.12,0.02,2.22,0.03,3.33,0.05c-6.82-0.69-11.98-2.23-11.74-3.57
						c0.5-1.32,6.45-1.86,13.53-1.2c9.49,0.72,18.97,1.44,28.43,2.16c9.47,0.73,18.91,1.56,28.37,2.23l6.15,0.24
						c2.08-0.05,4.15-0.11,6.22-0.16c-7.34-0.72-14.68-1.43-22.01-2.15c-7.32-0.79-14.64-1.57-21.95-2.36
						c-7.31-0.8-14.61-1.59-21.9-2.39c-7.29-0.8-14.58-1.58-21.84-2.47c-2.5-0.23-4.6-0.81-4.6-1.29c-0.02-0.48,2.05-0.69,4.55-0.46
						c25.74,1.41,51.63,2.84,77.64,4.26c26,1.34,52.09,2.91,78.25,4.2c8.64-0.43,17.3-0.87,26-1.31c8.7-0.41,17.44-0.99,26.26-1.46
						c-2.2-0.15-4.43-0.31-6.67-0.47c-14.2-0.81-27.87-1.45-41.26-1.8c-6.7-0.18-13.32-0.3-19.91-0.39
						C15.36,9.18,8.82,9.1,2.29,9.01c-26.11-0.44-52.04-0.55-79.55-2.43c-1.38-0.06-2.51-0.36-2.67-0.62
						c-0.13-0.25,0.83-0.41,2.22-0.29c26.87,1.62,51.51,1.41,78.2,2.1c11.06,0.32,21.85,0.41,32.45,0.56
						c10.6,0.12,21,0.18,31.29,0.12C53.76,7.87,43.39,7.41,33.06,7.03C27.9,6.86,22.75,6.69,17.62,6.52C12.47,6.37,7.34,6.21,2.22,6
						c-10.25-0.37-20.5-0.75-30.78-1.12c-10.28-0.41-20.6-0.77-30.97-1.42c-1.82-0.05-3.63-0.32-4.77-0.67
						c-0.11,0.12-0.49,0.22-1.05,0.25c-5.23,0.21-10.92,0.19-16.73,0.08c-1.11,0.01-2.5-0.21-3.06-0.52
						C-85.69,2.34-85,2.16-83.75,2.13z M646.57,55.5c0.41,0.1,0.74,0.19,1.05,0.27c-1.13-0.13-2.35-0.27-3.7-0.43c0,0,0,0-5.18-1.86
						C638.75,53.49,642.66,54.5,646.57,55.5z M710.93,46.94c-0.01,0-0.01,0-0.04,0c1.74,0.59,2.99,1.02,2.99,1.02
						C712.67,47.54,711.72,47.22,710.93,46.94z M298.56,62.84c11.09,0.45,22.13,0.77,33.13,1.36c11,0.56,21.97,1.26,32.92,2.16
						c-5.36-0.03-10.7-0.07-16.06-0.1c-8.31-0.53-16.62-1.06-24.96-1.6C315.26,64.1,306.92,63.55,298.56,62.84z M690.04,61.95
						c-5.87-0.86-10.44-2-14.77-3.17c-3.83,0.34-7.84,0.51-11.91,0.51c-10.92,0.04-21.56-0.04-32.04-0.23
						c1.37,0.66-1.14,0.62-2.42,0.72c-1.32,0.08-2.63,0.15-3.94,0.23c11.18,0.3,22.39,0.65,33.8,1.05
						C669.06,61.44,680.24,61.41,690.04,61.95z M767.97,57.04c0.32,0.07,0.6,0.14,0.96,0.22c0,0,0,0-2.05,1.09
						C766.88,58.35,767.36,57.8,767.97,57.04z M771.2,55.2c-0.52-0.03-1.04-0.06-1.6-0.09C770.16,54.71,770.68,54.83,771.2,55.2z
						 M756.49,54.4c0.88,0.24,1.41,0.39,2.09,0.48C756.5,54.4,756.49,54.4,756.49,54.4z M745.12,24.69l-5.53,5.3l6.05-5.12
						L745.12,24.69z"/>
				</g>
			</g>
		</g>
	</g>
</g>
<g>
	<g>
		<g>
			<g>
				<path class="st0" d="M-100.4,21.81c1,0.15,1.99,0.29,2.96,0.44c-1.88,0.38-4.68,0.48-7.88,0.42
					c31.09,3.21,71.77-0.05,98.05-4.56c4.75,0.01,9.23-0.33,12.63-0.88c3.4-0.53,5.73-1.28,6.18-2.13c0.87-1.7-6.14-3.21-15.73-3.21
					c-2.11-0.17-4.58-0.28-6.11-0.54c-13.71-2.43-30.46-4.09-48.93-4.97c3.56,0.41,7.28,0.85,10.84,1.26
					c-5.34-0.3-10.6-0.61-16.54-0.5c0.63,0.3,1.44,0.59,2.07,0.89c-9.19-0.91-20.08-1.09-30.23-0.46
					c-10.15,0.63-19.58,1.94-25.86,3.75c-12.61,3.64-7.97,7.96,10.4,9.67L-100.4,21.81z"/>
				<path class="st0" d="M-66.03,30.85c-10.96-0.87-21.49-1.88-32.05-2.75l-2.1-0.52l0.77,2.6l0.2-0.17
					c9.79-2.55,26.01-3.75,40.96-4.72l5.33-0.5c2.55-0.4,4.24-0.94,4.77-1.51c1.22-1.29-3.47-2.37-10.45-2.42l-8.05-0.05
					c-19.63-1.17-50.48-0.19-61.25,4.55c-2.42,1.1-0.23,2.34,0.34,3.52c-0.69,1.75,6.72,3.05,16.49,2.87
					c9.79-0.18,18.15-1.74,18.78-3.5c1.66,0.07,3.37,0.15,5.02,0.22c-1.29,0.24-2.6,0.49-3.91,0.74c2.72-1.62,11.63-2.13,18.25-3.09
					l9.94-0.64l-5.71-3.93l-5.17,0.65c0.4,0.16,1.17,0.4,1.1,0.42c-4.92,0.66-9.69,1.32-14.58,1.94c-4.89,0.65-9.89,1.26-15.27,1.78
					l-13.53,1.89c-3.65,0.88-3.26,2.02,0.78,2.6l6.04,0.69c-0.91-0.15-1.83-0.29-2.73-0.44c6.95,0.25,14.09,0.4,21.2,0.55
					c7.12,0.16,14.22,0.42,21.09,0.74c2.17,0.14,4.81-0.08,5.94-0.51C-62.84,31.42-63.79,30.97-66.03,30.85z"/>
				<g>
					<path class="st0" d="M-114.99,32.7c-2.26-0.24-4.43-0.51-7.63-0.33c-0.76,0.21-1.16,0.31-1.36,0.37
						c1.19,0.15,2.8,0.36,4.41,0.56C-116.39,33.69-114.78,33.26-114.99,32.7z"/>
					<path class="st0" d="M-123.98,32.73c-1.11-0.14-1.84-0.24-1.84-0.24c0.43,0.12,0.84,0.23,1.24,0.35
						c0.35-0.04,0.36-0.04,0.36-0.04S-124.21,32.79-123.98,32.73z"/>
					<path class="st0" d="M482.39,38.02c42.82,3.97,85.77,8.46,128.67,12.97c1.44,0.16,2.66,0.09,2.76-0.16
						c0.09-0.21-1-0.55-2.33-0.68c-42.92-4.56-85.67-9.04-128.48-13.01c-1.44-0.12-2.65-0.03-2.86,0.19
						C480.06,37.6,481.05,37.89,482.39,38.02z"/>
					<path class="st0" d="M799.42,91.32c-1.02,0.13-1,0.4,0.04,0.64c0.89,0.21,2.5,0.33,3.51,0.2c0.86-0.11,0.85-0.43-0.04-0.64
						C801.89,91.27,800.28,91.21,799.42,91.32z"/>
					<path class="st0" d="M788.98,110.41c-6.04-0.06-11.79-0.01-16.93,0.28c-0.96,0.03-2.02-0.08-2.82-0.24
						c0.32,0.43-0.86,0.71-3.04,0.71c-43.02,0.12-88.96-3.3-133.98-6.05c-0.33,0.29-0.96,0.56-1.99,0.75
						c-3.2,0.7-9.48,0.59-15.92-0.23l-4.84-0.73c-9.8-1.28-19.59-2.43-29.37-3.61c-9.78-1.19-19.54-2.38-29.29-3.56
						c-4.04,0.12-8.71,0.04-13.77-0.29c-8.51-0.11-17.03-0.23-25.6-0.34c-8.57-0.14-17.19-0.22-25.9-0.44
						c1.07,0.36,1.7,0.75,1.67,1.11c-0.4,0.85-4.47,1.19-9.15,0.8c-2.37-0.16-4.73-0.32-7.09-0.48c6.76,0.74,13.54,1.49,20.28,2.23
						c0.98,0.09,1.87,0.21,2.69,0.35c7.44,0.57,14.95,1.15,22.59,1.73c33.36,2.36,65.74,4.3,97.64,6.02
						c31.93,1.76,63.47,3.3,95.02,4.35c1.04-0.04,2.65,0.13,3.55,0.43c0.59,0.26,0.45,0.54-0.71,0.55
						c-39.96,0.66-74.66,2.66-119.14,1.27c-52.94-1.67-105.15-2.98-159.28-4.4c-56.45-3.77-108.84-4.41-166.51-5.02
						c-19.47-0.18-38.68-0.36-57.72-0.54c-19.04-0.16-37.91-0.31-56.74-0.46c-9.41-0.11-18.81-0.11-28.21-0.14
						c-9.4-0.04-18.79-0.08-28.21-0.12c-9.41,0.02-18.84,0.03-28.29,0.05c-9.45,0-18.93,0-28.45,0.11
						c-14.27,0.45-27.94-0.27-38.52-1.6c-10.58-1.32-18.08-3.41-19.97-5.95c-2.2-3.09,4.22-6.13,15.97-8.3
						c-2.34,0.01-4.66,0.02-6.99,0.03l-11.07-0.46c-10.48-0.46-19.44-1.66-25.1-3.25l-7.8-1.99c-10.4-3.86-27.2-6.97-35.77-11.03
						l1.85-1.67l-2.01-0.41c-6.64-0.99-11.13-2.4-12.71-4l0.58-1.98c1.32-2.28,4.57-4.49,9.83-6.63c-0.21-0.83,0.41-1.66,1.77-2.47
						c-4.59-1.87-6.8-3.91-3.27-6.34c-2.75-0.5-2.32-1.36,0.92-1.95c1.12-0.2,2.47-0.34,3.85-0.42c-0.02-0.01-0.03-0.01-0.03-0.01
						c-1.51-0.47-1.97-0.6-4-1.11c-2.72-0.11-4.3-0.17-4.3-0.17c-7.24-0.15-7.24-0.15-13.51-0.27c-5.41-0.53-8.77-1.38-8.77-1.38
						c-6.08-3.32-6.08-3.32-5.21-4.86c0.35-0.16,0.73-0.32,1.14-0.46c-4.8-0.36-5.13-0.39-6.43-0.5c-1.36-0.23-2.29-0.51-2.29-0.51
						c-0.23-0.81-0.23-0.81-1.07-1.07c-0.27-0.31-0.22-0.61-0.22-0.61c2.64-0.98,2.64-0.98,2.71-1.24c0.63-0.26,1.49-0.49,1.49-0.49
						c3.12-0.37,4.36-0.51,4.89-0.57c6.78,1.89,6.8,1.9,6.8,1.9c1.44-0.77,1.44-0.77,1.44-0.77c1.59,0.92,1.59,0.92,1.59,0.92
						c-0.91-0.86-0.91-0.86-0.91-0.86c3.41,0.44,3.41,0.44,3.41,0.44c-3.9-0.66-3.9-0.66-3.9-0.66c8.04,0.08,8.04,0.08,11.25-0.05
						c3.34,0,6.2-0.29,6.54-0.32c-0.29-0.27-0.31-0.46-0.31-0.46c8.59,0.09,8.59,0.05,16.97,0.25c0.78,0.18,1.4,0.36,1.98,0.54
						c0.8-0.26,2.4-0.44,4.05-0.4c1.47,0.02,2.93,0.04,4.4,0.06c0.33-0.05,0.64-0.1,0.94-0.14c0-0.04-0.01-0.07-0.01-0.07
						c1.49-0.2,2.52-0.34,3.7-0.5c0.74-0.11,0.76-0.12,0.76-0.12c0.01,0,0.03,0.01,0.04,0.01c2.55-0.34,6.24-0.84,16.01-2.15
						c2.6,0.05,5.02,0.14,7.31,0.26c-0.74-0.11-1.45-0.23-2.14-0.35c-1.37-0.25-0.14-1.06-0.89-1.11c-9.19-0.62-18.79-1-28.56-1.27
						c-4.88-0.11-9.81-0.23-14.75-0.34c-4.94-0.06-9.89-0.13-14.82-0.19c-3.53,0.2-6.86-0.16-7.4-0.78
						c-0.48-0.63,2.03-1.28,5.65-1.48c4.98-0.67,10.11-1.28,15.35-1.82c5.24-0.53,10.59-0.93,16.02-1.3
						c10.86-0.72,22.03-1.19,33.24-1.41c22.42-0.25,44.99,0.3,65.54,1.93c10.81,0.32,21.69,0.63,32.6,0.95
						c-0.53-0.13-1.05-0.27-1.56-0.4c2.83,0.21,5.65,0.41,8.46,0.62c0.31,0.01,0.61,0.02,0.91,0.03c-2.14-0.48-4.28-0.96-6.4-1.44
						c-1.47-0.14-2.95-0.28-4.44-0.42c-25.3-0.47-48.26-2.63-72.74-3.62c-13.15-0.58-24.47-1.81-36.92-2.5
						c-3.2-0.01-5.43-0.47-5.07-1.06c0.36-0.56,3.34-1.02,6.47-1.03c10.37-0.51,21.11-0.77,31.9-0.9
						c10.8-0.11,21.65-0.15,32.24,0.15c21.19,0.61,41.34,1.85,57.94,4.38c7.57,0.05,14.87,0.46,20.91,1.35
						c0.11,0.01,0.23,0.01,0.34,0.02c-1.59-0.41-3.07-0.79-4.65-1.2c5.66,0.31,8.67,1.28,13.83,1.73c-0.59-0.55-1.31-1.09-1.9-1.63
						c13.96,0.64,28.49,0.94,42.75,1.39c14.26,0.5,28.26,1.28,41.16,2.68c1.04,0.05,2.01,0.13,2.98,0.2
						c11.15-0.93,22.43-1.65,35.64-1.46c-4.46-0.29-8.82-0.58-13.29-0.88c9.6-0.44,19.12-0.65,29.38-0.3
						c13.88,0.55,28.57,1.74,41.59,3.36c13.02,1.65,24.38,3.89,31.61,6.3c53.75,1.86,107.55,4.57,161.17,7.4
						c2.77,0.14,5.23,0.67,5.68,1.19c0.25,0.49-1.61,0.82-4.38,0.67c-9.63-0.3-19.28-0.59-28.97-0.89
						c-9.68-0.3-19.39-0.75-29.12-1.03c-19.46-0.62-38.97-1.46-58.52-2.02c32.58,2.57,65.32,5.16,98.71,7.8
						c4.26,0.22,8.55,0.44,12.84,0.66c4.25,0.25,8.44,0.7,12.62,1.22c10.66,0.83,21.19,1.64,31.66,2.45
						c10.47,0.87,20.88,1.73,31.32,2.6c10.44,0.84,20.91,1.68,31.49,2.52c10.58,0.84,21.27,1.61,32.16,2.34
						c37.18,2.58,69.56,4.93,106.24,6.94c51.5,2.75,98,4.29,147.9,5.48c3.32,0.03,6.51,0.26,8.96,0.64
						c2.45,0.39,4.18,0.94,4.56,1.56c0.79,1.22-4.05,2.32-10.73,2.34c-52.25,0.78-104.59-1.31-157.81-4.91
						c-26.61-1.79-53.44-3.94-80.64-6.25c-13.61-1.16-27.3-2.33-41.07-3.51c-13.78-1.23-27.64-2.47-41.61-3.72
						c-12.06-1.06-23.91-2.21-35.72-3.19c0.14,0.18,0.27,0.35,0.26,0.52c-0.05,0.67-1.23,1.2-3.15,1.57
						c3.35,0.31,6.7,0.61,10.06,0.92c3.36,0.34,6.72,0.69,10.09,1.03c6.73,0.72,13.48,1.45,20.24,2.18
						c4.72,0.22,9.45,0.45,14.18,0.67c4.73,0.27,9.46,0.54,14.2,0.82c9.49,0.56,19.01,1.16,28.61,1.83
						c19.19,1.4,38.62,3.21,58.56,5.59c27.37,3.3,51.97,7.21,77.12,10.78c8.02,0.55,16.03,0.97,24.04,1.44
						c8,0.39,16.01,0.85,24.02,1.16c16.02,0.73,32.04,1.19,48.14,1.59c1.29-0.04,2.62,0.14,3.07,0.39c0.45,0.26-0.25,0.47-1.55,0.5
						c-22.2,0.61-45.01,0.31-68.08-0.45c3.56,1.04,5.65,2.2,5.28,3.26c-0.37,1.1-3.26,1.89-7.62,2.27l15.66,1.27
						c3.22,0.26,5.74,0.87,5.61,1.42c-0.11,0.6-2.71,0.86-5.79,0.63c-21.33-1.61-42.61-3.55-63.89-5.64
						c-25.62-1.79-51.16-3.88-76.86-6.03c3.48,1.1,6.01,2.27,7.15,3.43c0,0.01,0,0.02,0,0.02c3.98,0.37,7.94,0.75,11.88,1.12
						c72.76,4.2,146.88,9.85,221.45,11.07c1.46,0.01,2.67,0.23,2.69,0.5c0.03,0.26-1.11,0.46-2.42,0.42
						c-22.53-0.36-45.01-1.12-67.43-2.13c0.04,0.01,0.05,0.01,0.09,0.02c0.9,0.2,1.05,0.5,0.05,0.64c-0.87,0.11-2.64,0.01-3.52-0.19
						c-1.03-0.24-0.91-0.52-0.06-0.63c-41.77-1.92-83.32-4.73-124.42-7.21c38.07,3.53,76.1,6.89,114.1,9.77
						c4.17-0.07,8.32-0.14,12.55-0.21c1.15,0.01,2.64,0.24,3.09,0.5c0.31,0.23-0.55,0.45-1.73,0.45c-1.18,0.01-2.34,0.02-3.51,0.03
						c7.19,0.53,12.7,1.83,12.52,3.18c-0.46,1.33-6.73,2.15-14.22,1.63c-20.1-0.88-40.11-2.23-60.09-3.87l-6.5-0.31
						c-2.2,0.02-4.38,0.04-6.57,0.06c31.02,3.32,62.04,6.24,92.97,8.38c2.65,0.13,4.91,0.58,4.94,1.07c0.05,0.47-2.13,0.82-4.8,0.68
						c-54.72-0.59-109.99-4.62-165.22-9.36c-18.29,0.22-36.63,0.44-55.31,0.67c2.32,0.25,4.67,0.5,7.02,0.75
						c29.91,2.96,57.78,4.4,85.46,5.46c27.69,1.07,55.18,1.79,84.43,3.21c1.47,0.04,2.67,0.33,2.84,0.58
						c0.14,0.25-0.87,0.42-2.35,0.32c-28.58-1.18-54.73-1.49-83.05-2.83c-23.46-1.09-45.72-2.3-67.49-2.94
						c44.24,3.9,87.04,5.83,131.25,8.13c1.94,0.04,3.87,0.3,5.08,0.65c0.11-0.12,0.52-0.22,1.11-0.25c5.56-0.21,11.62-0.3,17.8-0.26
						c1.18-0.03,2.66,0.18,3.27,0.48C791.03,110.17,790.3,110.36,788.98,110.41z M17.87,38.96c-0.43-0.11-0.78-0.2-1.11-0.28
						c1.2,0.14,2.48,0.3,3.9,0.47c0,0,0,0,5.45,1.91C26.12,41.06,21.99,40.01,17.87,38.96z M-50.26,47.01c0.01,0,0.01,0,0.04,0
						c-1.83-0.59-3.15-1.02-3.15-1.02C-52.09,46.41-51.09,46.74-50.26,47.01z M385.96,38.41c-11.72-0.76-23.38-1.44-35-2.31
						c-11.62-0.86-23.19-1.92-34.76-2.99c5.67,0.15,11.32,0.25,16.98,0.46c8.77,0.77,17.55,1.53,26.35,2.3
						c4.4,0.4,8.8,0.8,13.2,1.21C377.14,37.51,381.54,37.96,385.96,38.41z M-28.03,32.16c6.2,0.93,11.03,2.1,15.58,3.33
						c4.06-0.29,8.3-0.43,12.6-0.44c11.55,0,22.8,0.25,33.88,0.53c-1.44-0.68,1.22-0.61,2.57-0.7c1.4-0.06,2.78-0.13,4.17-0.19
						c-11.82-0.42-23.67-0.89-35.74-1.4C-5.85,32.91-17.67,32.78-28.03,32.16z M-110.49,36.68c-0.34-0.07-0.64-0.14-1.02-0.22
						c0,0,0,0,2.18-1.09C-109.33,35.37-109.84,35.92-110.49,36.68z M-113.92,38.51c0.55,0.03,1.1,0.06,1.69,0.09
						C-112.82,39.01-113.37,38.88-113.92,38.51z M-98.37,39.34c-0.92-0.24-1.49-0.4-2.21-0.48C-98.38,39.33-98.37,39.34-98.37,39.34
						z M-86.57,69.07l5.89-5.24l-6.44,5.06L-86.57,69.07z"/>
				</g>
			</g>
		</g>
	</g>
</g>
<g>
	<g>
		<g>
			<g>
				<path class="st0" d="M748.79,167.66c-0.95-0.15-1.89-0.31-2.81-0.45c1.78-0.37,4.44-0.45,7.48-0.37
					c-29.5-3.42-68.17,0.02-93.05,4.83c-9.02,0.05-17.01,1.47-17.83,3.19c-0.8,1.72,5.88,3.08,14.98,3.05
					c2.01,0.16,4.34,0.24,5.8,0.49c13.03,2.32,28.92,3.74,46.43,4.67c-3.38-0.41-6.9-0.84-10.28-1.25
					c5.06,0.29,10.05,0.6,15.68,0.49c-0.6-0.3-1.36-0.59-1.96-0.89c17.43,1.84,41.2,0.4,53.12-3.15c11.96-3.56,7.6-7.91-9.82-9.73
					L748.79,167.66z"/>
				<path class="st0" d="M716.15,158.59c10.43,0.86,20.43,1.8,30.46,2.77l1.99,0.53l-0.73-2.6l-0.19,0.17
					c-9.31,2.43-24.7,3.74-38.91,4.7l-5.06,0.5c-2.42,0.4-4.03,0.95-4.52,1.51c-1.16,1.29,3.31,2.36,9.94,2.41l7.64,0.05
					c18.63,1.04,47.89,0.35,58.14-4.35c2.31-1.09,0.23-2.34-0.3-3.52c0.66-1.75-6.37-3.09-15.66-2.97
					c-9.3,0.12-17.26,1.63-17.85,3.39c-1.57-0.08-3.2-0.16-4.77-0.24c1.22-0.24,2.47-0.48,3.71-0.72
					c-2.59,1.58-11.05,2.14-17.33,3.1l-9.44,0.65l5.44,3.93l4.91-0.66c-0.38-0.16-1.11-0.4-1.05-0.42
					c9.33-1.35,18.11-2.68,28.34-3.66l12.86-1.81c3.47-0.86,3.11-2-0.73-2.61l-5.74-0.73c0.87,0.15,1.73,0.3,2.6,0.45
					c-13.21-0.58-27.13-0.76-40.2-1.4c-2.07-0.14-4.57,0.09-5.65,0.52C713.11,158.02,714.01,158.47,716.15,158.59z"/>
				<g>
					<path class="st0" d="M762.69,156.86c2.14,0.25,4.21,0.53,7.25,0.38c0.73-0.2,1.1-0.3,1.29-0.36c-1.13-0.16-2.66-0.37-4.19-0.59
						C764.02,155.88,762.49,156.3,762.69,156.86z"/>
					<path class="st0" d="M771.23,156.89c1.05,0.15,1.75,0.25,1.75,0.25c-0.4-0.12-0.8-0.24-1.17-0.35
						c-0.33,0.04-0.34,0.04-0.34,0.04S771.45,156.83,771.23,156.89z"/>
					<path class="st0" d="M193.59,167.71c-5.13-0.26-10.26-0.52-15.39-0.79l-7.7-0.39l-7.7-0.47c-10.27-0.61-20.55-1.23-30.84-1.84
						c-20.57-1.08-41.16-2.64-61.74-4.01c-1.38-0.1-2.55,0.02-2.63,0.27c-0.08,0.22,0.98,0.51,2.25,0.58
						c20.59,1.39,41.14,2.97,61.66,4.05c20.52,1.19,41.03,2.55,61.53,3.51c1.38,0.05,2.53-0.09,2.72-0.33
						C195.83,168.03,194.87,167.78,193.59,167.71z"/>
					<path class="st0" d="M-111.05,121.69c0.99-0.09,0.98-0.35,0-0.64c-0.84-0.25-2.38-0.43-3.36-0.35
						c-0.83,0.07-0.84,0.39,0.01,0.64C-113.42,121.63-111.88,121.76-111.05,121.69z"/>
					<path class="st0" d="M-100.18,103.03c5.71,0.24,11.13,0.41,16,0.24c0.91-0.01,1.91,0.13,2.65,0.31
						c-0.29-0.44,0.83-0.69,2.89-0.64c10.14,0.25,20.48,0.51,30.94,0.78c10.46,0.3,21.03,0.7,31.68,1.16
						c2.66,0.12,5.32,0.23,7.99,0.35c2.67,0.11,5.35,0.17,8.03,0.26c5.36,0.17,10.72,0.34,16.09,0.51
						c10.74,0.34,21.49,0.69,32.2,1.03c0.3-0.3,0.89-0.59,1.87-0.81c3.02-0.76,9-1,15.15-0.45l4.63,0.52
						c9.37,0.81,18.74,1.63,28.09,2.44c4.68,0.41,9.35,0.81,14.02,1.22c4.68,0.36,9.35,0.72,14.02,1.07c3.85-0.3,8.3-0.41,13.13-0.3
						c16.23-0.59,32.48-0.93,49.11-1.43c-1.03-0.31-1.65-0.66-1.63-1.03c0.35-0.86,4.21-1.4,8.69-1.22c2.26,0.05,4.52,0.1,6.78,0.15
						c-6.48-0.43-12.96-0.86-19.42-1.28c-0.93-0.04-1.8-0.13-2.58-0.23c-7.11-0.26-14.28-0.52-21.58-0.79
						c-15.93-0.51-31.63-0.8-47.16-1.05c-15.51-0.41-30.84-0.68-46.05-0.85c-3.8-0.04-7.6-0.07-11.39-0.11
						c-3.78-0.08-7.56-0.16-11.33-0.24c-7.55-0.13-15.06-0.27-22.56-0.4c-7.51-0.1-14.99-0.2-22.46-0.3
						c-3.74-0.02-7.47-0.13-11.19-0.23c-3.73-0.1-7.45-0.19-11.18-0.29c-0.98,0.05-2.5-0.11-3.35-0.39
						c-0.56-0.26-0.43-0.54,0.67-0.55c4.72-0.13,9.35-0.29,13.94-0.46c2.29-0.09,4.57-0.18,6.84-0.27c2.27-0.13,4.54-0.27,6.8-0.4
						c9.03-0.55,17.99-1.09,27.09-1.64c9.1-0.53,18.33-0.95,27.94-1.31c9.62-0.46,19.62-0.79,30.22-0.9
						c50.44-0.41,100.24-1.61,151.88-2.38c13.5,0.27,26.75,0.4,39.88,0.43c6.57,0.01,13.11,0.04,19.65-0.03
						c6.54-0.1,13.07-0.21,19.61-0.31c13.07-0.27,26.18-0.54,39.46-0.82c13.29-0.39,26.76-0.79,40.55-1.19
						c74.5-2.2,144.97-3.6,218.09-5.32c27.38-1.28,52.57,1.8,56.26,6.83c2.14,3.07-4,6.18-15.23,8.44c2.25-0.03,4.46-0.06,6.7-0.09
						l10.62,0.36c10.05,0.37,18.65,1.45,24.09,3.06l7.48,1.98c9.98,3.87,26.08,6.9,34.28,10.99l-1.77,1.66l1.92,0.42
						c6.35,1.03,10.64,2.46,12.15,4.08l-0.56,1.97c-1.27,2.27-4.37,4.46-9.4,6.57c0.2,0.83-0.39,1.66-1.69,2.46
						c4.38,1.9,6.48,3.95,3.12,6.36c2.62,0.51,2.21,1.38-0.88,1.95c-1.07,0.19-2.35,0.33-3.67,0.39c0.02,0.01,0.03,0.01,0.03,0.01
						c1.44,0.48,1.87,0.61,3.81,1.13c2.59,0.12,4.09,0.2,4.09,0.2c6.9,0.19,6.9,0.19,12.87,0.35c5.15,0.56,8.35,1.43,8.35,1.43
						c5.77,3.36,5.77,3.36,4.93,4.89c-0.33,0.16-0.7,0.31-1.09,0.46c4.56,0.39,4.88,0.42,6.11,0.54c1.29,0.24,2.18,0.53,2.18,0.53
						c0.22,0.81,0.22,0.81,1.01,1.08c0.26,0.31,0.21,0.61,0.21,0.61c-2.52,0.97-2.52,0.97-2.58,1.23c-0.6,0.26-1.42,0.48-1.42,0.48
						c-2.97,0.35-4.15,0.49-4.65,0.54c-6.43-1.93-6.45-1.94-6.45-1.94c-1.37,0.76-1.37,0.76-1.37,0.76
						c-1.51-0.93-1.51-0.93-1.51-0.93c0.86,0.86,0.86,0.86,0.86,0.86c-3.24-0.46-3.24-0.46-3.24-0.46c3.71,0.68,3.71,0.68,3.71,0.68
						c-7.64-0.13-7.64-0.13-10.7-0.02c-3.18-0.03-5.89,0.26-6.21,0.28c0.27,0.27,0.29,0.47,0.29,0.47
						c-8.17-0.16-8.17-0.16-16.14-0.31c-0.74-0.18-1.33-0.36-1.88-0.53c-0.76,0.26-2.28,0.44-3.85,0.41
						c-1.4-0.02-2.79-0.03-4.18-0.05c-0.31,0.05-0.61,0.1-0.89,0.15c0,0.04,0.01,0.07,0.01,0.07c-1.42,0.2-2.4,0.34-3.52,0.5
						c-0.7,0.11-0.73,0.12-0.73,0.12c-0.01,0-0.03-0.01-0.04-0.01c-2.42,0.34-5.93,0.84-15.21,2.17c-2.47-0.05-4.78-0.13-6.96-0.25
						c0.71,0.11,1.38,0.22,2.03,0.35c1.31,0.25,0.14,1.06,0.85,1.11c17.49,1.24,36.5,1.43,55.24,1.83c3.36-0.18,6.52,0.2,7.03,0.82
						c0.45,0.63-1.93,1.27-5.37,1.44c-18.92,2.58-40.04,4.02-61.33,4.49c-10.64,0.24-21.32,0.25-31.79,0.04
						c-10.47-0.22-20.72-0.67-30.5-1.29c-10.29-0.19-20.63-0.31-31-0.42c0.5,0.12,1,0.24,1.49,0.36c-2.69-0.15-5.38-0.3-8.06-0.45
						c-0.29,0-0.58-0.01-0.87-0.01c2.05,0.44,4.09,0.88,6.12,1.31c1.4,0.11,2.81,0.22,4.23,0.32c24.05,0.06,45.92,1.83,69.16,2.68
						c12.49,0.46,23.24,1.56,35.06,2.28c3.04,0,5.16,0.46,4.81,1.05c-0.34,0.56-3.16,1.03-6.13,1.03
						c-39.32,1.97-84.31,2.06-115.95-2.18c-7.2,0.09-14.14-0.17-19.9-0.94c-0.1,0-0.22-0.01-0.32-0.01
						c1.52,0.38,2.93,0.73,4.45,1.11c-5.38-0.2-8.27-1.13-13.18-1.45c0.57,0.53,1.27,1.05,1.84,1.59
						c-26.55-0.47-55.29,0.26-79.9-1.74c-0.99-0.02-1.92-0.07-2.84-0.11c-10.58,1.23-21.29,2.37-33.87,2.61
						c4.26,0.15,8.41,0.29,12.67,0.44c-9.12,0.76-18.17,1.29-27.94,1.27c-13.22,0.06-27.25-0.65-39.71-1.83
						c-12.46-1.18-23.36-2.87-30.34-5c-12.82,0.1-25.65,0.03-38.48,0.05l-19.24,0.01l-9.62,0l-9.63-0.08
						c-25.67-0.23-51.33-0.23-76.97-0.64c-2.65-0.01-5.01-0.43-5.47-0.92c-0.26-0.48,1.5-0.89,4.15-0.88
						c18.38-0.2,36.89-0.4,55.48-0.59c9.29-0.05,18.59-0.11,27.91-0.16c9.32-0.02,18.63-0.2,27.96-0.28
						c-7.79-0.28-15.59-0.56-23.4-0.84c-7.82-0.33-15.65-0.66-23.51-1c-7.86-0.29-15.74-0.58-23.66-0.88
						c-3.96-0.13-7.92-0.25-11.9-0.38c-3.97-0.15-7.96-0.3-11.95-0.45c-4.07-0.06-8.17-0.11-12.28-0.17
						c-4.06-0.05-8.08-0.31-12.08-0.63c-10.21-0.35-20.28-0.6-30.3-1.03c-10.02-0.43-20-0.85-29.99-1.27
						c-10-0.37-20.03-0.73-30.16-1.11c-10.13-0.44-20.37-0.82-30.8-1.11c-8.91-0.24-17.54-0.47-26.03-0.7
						c-8.49-0.33-16.84-0.65-25.19-0.98c-8.35-0.3-16.7-0.59-25.18-0.89c-4.24-0.16-8.52-0.24-12.84-0.47
						c-4.32-0.21-8.7-0.42-13.14-0.63c-12.49-0.59-24.7-1.16-36.76-1.72c-3.02-0.15-6.02-0.3-9.02-0.45c-3-0.2-5.99-0.41-8.97-0.61
						c-5.97-0.42-11.92-0.85-17.86-1.27c-11.88-0.9-23.76-1.76-35.71-2.92c-11.95-1.28-24-2.67-36.28-4.22
						c-6.55-0.68-12.48-2.33-13.08-3.64c-0.62-1.31,4.26-1.83,10.82-1.15c12.84,1.14,25.64,2.27,38.44,3.41
						c3.2,0.31,6.4,0.51,9.6,0.73l9.6,0.66l19.19,1.33c25.56,1.98,51.17,3.11,76.87,4.67c3.21,0.19,6.43,0.38,9.65,0.57
						c3.22,0.14,6.44,0.29,9.67,0.43c6.45,0.3,12.91,0.61,19.38,0.91c6.47,0.33,12.95,0.66,19.45,0.99c6.49,0.35,13,0.72,19.53,0.95
						c26.11,1.05,52.47,2.6,79.24,3.75c11.55,0.58,22.91,1.14,34.21,1.71c-0.14-0.17-0.27-0.34-0.26-0.51
						c0.02-0.66,1.12-1.24,2.95-1.71c-12.82-0.66-25.74-1.53-38.7-2.44c-9.03-0.06-18.08-0.05-27.15-0.2
						c-9.08-0.2-18.19-0.44-27.38-0.75c-9.19-0.31-18.45-0.69-27.81-1.17c-9.36-0.54-18.83-1.34-28.43-2.2
						c-13.18-1.24-25.73-2.57-38-4.16c-12.27-1.69-24.27-3.46-36.4-5.21c-7.74-0.52-15.48-0.94-23.21-1.52
						c-7.73-0.62-15.47-1.24-23.21-1.85c-7.75-0.63-15.5-1.25-23.28-1.88c-3.89-0.33-7.78-0.65-11.67-0.98
						c-3.89-0.41-7.78-0.81-11.69-1.22c-1.25-0.07-2.53-0.36-2.95-0.65c-0.42-0.29,0.28-0.44,1.55-0.37
						c5.4,0.28,10.82,0.67,16.27,0.93c5.45,0.27,10.93,0.53,16.44,0.8c11,0.57,22.08,1.21,33.21,1.89c-3.41-1.14-5.39-2.34-5-3.4
						c0.39-1.09,3.2-1.8,7.4-2.07l-15.02-1.69c-3.09-0.37-5.48-1.07-5.34-1.61c0.13-0.6,2.64-0.77,5.58-0.43
						c20.41,2.42,40.84,4.17,61.26,6.1c6.14,0.4,12.28,0.8,18.41,1.19c6.14,0.37,12.28,0.63,18.41,0.95
						c12.27,0.65,24.55,1.29,36.86,1.94c-3.36-0.99-5.8-2.08-6.93-3.2c0-0.01,0-0.02,0-0.02c-3.81-0.25-7.6-0.5-11.38-0.74
						c-69.61-1.83-140.89-6.96-212.1-17.29c-1.4-0.17-2.52-0.52-2.51-0.79c0.01-0.26,1.12-0.34,2.37-0.16
						c10.76,1.46,21.5,2.86,32.24,4.21c5.37,0.66,10.74,1.33,16.1,1.99l8.04,0.97c2.68,0.3,5.37,0.54,8.05,0.81
						c-0.04-0.01-0.05-0.01-0.09-0.02c-0.85-0.25-0.98-0.55-0.01-0.64c0.84-0.08,2.53,0.1,3.36,0.34c0.97,0.29,0.85,0.56,0.02,0.63
						c10,0.97,19.99,1.89,29.96,2.77c9.97,0.87,19.92,1.8,29.87,2.34c9.94,0.59,19.86,1.18,29.75,1.77
						c9.89,0.53,19.75,1.15,29.59,1.39c-36.46-2.7-72.9-5.78-109.14-10.38c-4-0.11-7.98-0.22-12.04-0.32
						c-1.1-0.06-2.52-0.36-2.93-0.65c-0.28-0.24,0.55-0.42,1.68-0.36c1.13,0.04,2.24,0.08,3.36,0.12
						c-6.87-0.83-12.04-2.49-11.76-3.84c0.53-1.28,6.56-1.7,13.68-0.89c9.56,0.92,19.09,1.84,28.63,2.76
						c9.53,0.92,19.03,2,28.57,2.74l6.2,0.31c2.1-0.03,4.18-0.06,6.27-0.09c-7.39-0.81-14.78-1.61-22.16-2.42
						c-7.37-0.94-14.73-1.89-22.08-2.83c-7.35-0.95-14.7-1.9-22.03-2.85c-7.33-0.97-14.66-1.85-21.95-3.01
						c-2.51-0.31-4.61-0.96-4.6-1.44c0-0.48,2.08-0.62,4.6-0.32c3.24,0.27,6.47,0.62,9.71,0.84c3.24,0.23,6.49,0.47,9.74,0.71
						c6.5,0.48,13,0.97,19.51,1.46c6.51,0.5,13.03,1.01,19.55,1.51c3.26,0.25,6.52,0.51,9.79,0.76c3.27,0.21,6.54,0.41,9.81,0.62
						c13.09,0.86,26.2,1.73,39.33,2.59l9.85,0.68l9.87,0.53c6.58,0.36,13.16,0.73,19.75,1.09c8.7-0.4,17.42-0.8,26.19-1.21
						c4.38-0.17,8.77-0.47,13.18-0.73c4.41-0.26,8.83-0.52,13.27-0.78c-2.22-0.15-4.47-0.3-6.71-0.45
						c-14.31-0.73-28.06-1.45-41.54-1.85c-6.74-0.2-13.41-0.35-20.05-0.47c-6.63-0.13-13.23-0.15-19.79-0.38
						c-26.27-0.79-52.41-1.04-80.06-3.62c-1.39-0.09-2.52-0.42-2.67-0.67c-0.12-0.25,0.84-0.39,2.24-0.25
						c27.01,2.29,51.84,2.24,78.7,3.28c2.78,0.1,5.55,0.2,8.29,0.3c2.75,0.05,5.49,0.11,8.21,0.16c5.44,0.1,10.83,0.19,16.16,0.28
						c10.67,0.16,21.14,0.27,31.49,0.24c-10.54-0.63-20.98-1.12-31.37-1.54c-5.2-0.19-10.38-0.39-15.55-0.58
						c-2.59-0.09-5.17-0.17-7.76-0.26c-2.58-0.09-5.16-0.24-7.74-0.36c-10.32-0.49-20.62-0.99-30.96-1.48
						c-5.17-0.27-10.35-0.54-15.54-0.81c-2.6-0.15-5.2-0.27-7.8-0.46c-2.6-0.2-5.2-0.4-7.81-0.61c-1.83-0.09-3.65-0.4-4.78-0.77
						c-0.11,0.12-0.49,0.21-1.06,0.22c-5.27,0.1-10.99-0.04-16.84-0.27c-1.12-0.01-2.51-0.26-3.07-0.58
						C-102.13,103.2-101.43,103.03-100.18,103.03z M636.23,151.09c0.41,0.1,0.75,0.18,1.06,0.26c-1.14-0.13-2.37-0.26-3.73-0.41
						c0,0,0,0-5.22-1.83C628.34,149.12,632.29,150.11,636.23,151.09z M701.05,142.44c-0.01,0-0.01,0-0.04,0
						c1.75,0.59,3.01,1.02,3.01,1.02C702.81,143.04,701.85,142.71,701.05,142.44z M285.55,163.18c5.6,0.12,11.19,0.23,16.76,0.35
						c5.57,0.12,11.14,0.27,16.69,0.46c11.11,0.38,22.18,0.9,33.24,1.62c-5.41,0.05-10.8,0.11-16.2,0.16
						c-8.39-0.39-16.79-0.79-25.2-1.18C302.43,164.15,294,163.77,285.55,163.18z M680,157.43c-5.9-0.87-10.51-2-14.86-3.18
						c-3.86,0.33-7.89,0.51-11.98,0.54c-10.99,0.1-21.71,0.07-32.26-0.06c1.38,0.65-1.15,0.63-2.44,0.74
						c-1.33,0.08-2.65,0.17-3.96,0.25c11.26,0.24,22.55,0.53,34.04,0.87C658.9,156.88,670.14,156.9,680,157.43z M758.42,152.85
						c0.32,0.07,0.61,0.14,0.97,0.23c0,0,0,0-2.07,1.07C757.31,154.15,757.8,153.59,758.42,152.85z M761.69,151.04
						c-0.52-0.03-1.04-0.07-1.61-0.1C760.65,150.54,761.17,150.67,761.69,151.04z M746.89,150.13c0.88,0.25,1.41,0.4,2.1,0.5
						C746.9,150.13,746.89,150.13,746.89,150.13z M735.65,120.33l-5.62,5.26l6.15-5.07L735.65,120.33z"/>
				</g>
			</g>
		</g>
	</g>
</g>
<g>
	<g>
		<g>
			<g>
				<path class="st0" d="M-118.69,111.18c1.05,0.16,2.08,0.36,3.09,0.53c-1.98,0.33-4.92,0.34-8.28,0.18
					c32.51,4.2,75.32,1.67,102.92-2.53c9.95,0.15,18.8-1.1,19.75-2.8c0.93-1.71-6.41-3.21-16.45-3.37c-2.21-0.2-4.79-0.34-6.39-0.62
					c-14.33-2.64-31.83-4.44-51.13-5.8c3.72,0.5,7.6,1,11.32,1.5c-5.58-0.41-11.08-0.84-17.3-0.87c0.65,0.31,1.49,0.62,2.14,0.94
					c-19.19-2.27-45.51-1.45-58.78,1.79c-13.32,3.26-8.63,7.72,10.58,9.98L-118.69,111.18z"/>
				<path class="st0" d="M-82.86,121.07c-11.49-1.12-22.53-2.32-33.58-3.55l-2.18-0.58l0.74,2.62l0.22-0.17
					c10.35-2.2,27.41-3.09,43.13-3.71l5.61-0.38c2.69-0.34,4.47-0.85,5.03-1.4c1.31-1.26-3.59-2.44-10.91-2.65l-8.44-0.23
					c-20.56-1.51-52.91-1.57-64.37,2.87c-2.58,1.03-0.32,2.33,0.24,3.53c-0.78,1.73,6.95,3.25,17.22,3.37
					c10.29,0.12,19.12-1.19,19.83-2.93c1.74,0.13,3.54,0.24,5.26,0.36c-1.36,0.22-2.74,0.41-4.12,0.62
					c2.9-1.51,12.27-1.85,19.24-2.66l10.45-0.42l-5.9-4.06l-5.44,0.54c0.41,0.17,1.21,0.43,1.14,0.44
					c-10.35,1.11-20.09,2.21-31.42,2.93l-14.26,1.48c-3.87,0.77-3.49,1.92,0.74,2.62l6.33,0.88c-0.96-0.18-1.91-0.34-2.86-0.52
					c14.58,0.92,29.96,1.46,44.39,2.43c2.28,0.19,5.05,0.02,6.26-0.38C-79.52,121.72-80.51,121.25-82.86,121.07z"/>
				<g>
					<path class="st0" d="M-134.34,121.61c-2.36-0.31-4.63-0.64-8-0.57c-0.81,0.18-1.22,0.27-1.44,0.32
						c1.25,0.19,2.93,0.45,4.62,0.7C-135.85,122.57-134.14,122.18-134.34,121.61z"/>
					<path class="st0" d="M-143.79,121.37c-1.16-0.18-1.93-0.29-1.93-0.29c0.44,0.14,0.87,0.26,1.29,0.38
						c0.37-0.03,0.38-0.03,0.38-0.03S-144.03,121.43-143.79,121.37z"/>
					<path class="st0" d="M493.3,113.91c45.13,0.86,90.44,1.44,135.73,1.86c1.52,0.02,2.79-0.17,2.87-0.42
						c0.08-0.22-1.1-0.45-2.51-0.45c-45.32-0.46-90.4-1.05-135.52-1.91c-1.52-0.01-2.77,0.17-2.98,0.41
						C490.82,113.66,491.88,113.88,493.3,113.91z"/>
					<path class="st0" d="M831.36,138.92c-1.08,0.19-1.04,0.45,0.08,0.63c0.95,0.16,2.66,0.18,3.73-0.01
						c0.9-0.16,0.87-0.48-0.09-0.63C833.97,138.73,832.26,138.76,831.36,138.92z"/>
					<path class="st0" d="M821.66,158.64c-6.33,0.37-12.34,0.78-17.7,1.46c-1,0.1-2.12,0.08-2.97-0.02
						c0.37,0.41-0.84,0.77-3.12,0.94c-44.97,3.37-93.34,4.71-140.98,6.51c-0.32,0.33-0.95,0.65-2.01,0.95
						c-3.3,1.01-9.91,1.54-16.78,1.36l-5.18-0.25c-20.92-0.59-41.79-1.05-62.6-1.69c-4.25,0.46-9.19,0.77-14.57,0.87
						c-17.99,1.26-36.04,2.45-54.49,3.37c1.16,0.28,1.86,0.61,1.85,0.98c-0.36,0.88-4.63,1.52-9.61,1.49
						c-2.52,0.03-5.03,0.04-7.54,0.06c7.22,0.21,14.44,0.43,21.64,0.68c1.04,0.02,2,0.07,2.87,0.15c7.91,0.04,15.91,0.02,24.04-0.06
						c70.96-0.77,137.68-4.09,203.88-7.9c1.09-0.14,2.78-0.12,3.75,0.09c0.64,0.21,0.53,0.5-0.68,0.61
						c-41.73,4.38-77.83,10.14-125.01,13.01c-56.15,3.44-111.59,6.31-169.15,8.54c-60.18-0.01-115.86,2.1-177.24,3.66
						c-82.91,2.13-161.23,2.48-242.34,2.68c-30.39,0.7-58.23-2.95-62.17-8.08c-2.29-3.12,4.58-6.07,17.08-8.08
						c-2.49-0.01-4.94-0.04-7.42-0.07l-11.75-0.62c-11.12-0.62-20.6-1.9-26.58-3.64l-8.23-2.16c-10.94-4.1-28.66-7.55-37.62-11.84
						l2.01-1.61l-2.12-0.47c-6.99-1.19-11.7-2.73-13.32-4.39l0.67-1.96c1.47-2.24,4.96-4.35,10.57-6.33
						c-0.2-0.83,0.48-1.64,1.94-2.41c-4.79-2.01-7.06-4.11-3.27-6.43c-2.88-0.58-2.4-1.43,1.03-1.92c1.18-0.16,2.61-0.27,4.07-0.3
						c-0.02-0.01-0.04-0.01-0.04-0.01c-1.58-0.51-2.05-0.66-4.19-1.23c-2.86-0.17-4.52-0.3-4.52-0.3
						c-7.62-0.35-7.62-0.35-14.21-0.68c-5.68-0.69-9.19-1.65-9.19-1.65c-6.29-3.5-6.29-3.5-5.31-5.01c0.37-0.15,0.78-0.29,1.22-0.43
						c-5.03-0.5-5.38-0.54-6.74-0.7c-1.42-0.27-2.39-0.58-2.39-0.58c-0.22-0.81-0.22-0.81-1.08-1.11c-0.28-0.32-0.21-0.61-0.21-0.61
						c2.81-0.9,2.81-0.9,2.89-1.16c0.67-0.24,1.58-0.44,1.58-0.44c3.29-0.27,4.6-0.38,5.15-0.43c7.06,2.1,7.08,2.11,7.08,2.11
						c1.54-0.72,1.54-0.72,1.54-0.72c1.65,0.97,1.65,0.97,1.65,0.97c-0.93-0.89-0.93-0.89-0.93-0.89c3.57,0.54,3.57,0.54,3.57,0.54
						c-4.08-0.78-4.08-0.78-4.08-0.78c8.44,0.32,8.44,0.32,11.82,0.29c3.51,0.11,6.52-0.11,6.88-0.12
						c-0.29-0.28-0.31-0.47-0.31-0.47c9.03,0.34,9.03,0.34,17.83,0.72c0.82,0.2,1.46,0.39,2.06,0.58c0.85-0.24,2.53-0.38,4.27-0.31
						c1.55,0.05,3.08,0.11,4.62,0.16c0.35-0.04,0.68-0.08,0.99-0.12c0-0.04-0.01-0.07-0.01-0.07c1.57-0.17,2.66-0.28,3.9-0.41
						c0.78-0.1,0.81-0.1,0.81-0.1c0.01,0,0.03,0.01,0.05,0.01c2.68-0.29,6.57-0.7,16.86-1.8c2.73,0.11,5.27,0.25,7.68,0.42
						c-0.78-0.13-1.52-0.26-2.24-0.4c-1.44-0.28-0.13-1.06-0.91-1.13c-19.28-1.66-40.29-2.33-60.99-3.21c-3.71,0.09-7.2-0.37-7.75-1
						c-0.48-0.64,2.17-1.22,5.97-1.3c41.97-4.19,93.51-3.61,136.63-0.28c11.35,0.41,22.77,0.76,34.21,1.09
						c-0.55-0.13-1.1-0.26-1.64-0.39c2.97,0.21,5.93,0.4,8.88,0.6c0.32,0.01,0.64,0.02,0.96,0.03c-2.25-0.47-4.49-0.95-6.72-1.42
						c-1.55-0.15-3.09-0.29-4.66-0.41c-26.55-0.59-50.63-2.8-76.28-4.21c-13.78-0.76-25.62-2.12-38.65-3.13
						c-3.36-0.08-5.68-0.59-5.28-1.17c0.39-0.55,3.52-0.95,6.8-0.88c43.48-0.99,93.11-0.08,127.92,4.77
						c7.94,0.03,15.59,0.42,21.93,1.3c0.11,0,0.24,0.01,0.36,0.02c-1.67-0.4-3.22-0.79-4.89-1.19c5.93,0.3,9.1,1.27,14.51,1.69
						c-0.62-0.54-1.38-1.08-2-1.62c29.29,1.01,60.95,0.55,88.06,2.89c1.09,0.03,2.11,0.09,3.13,0.15
						c11.67-1.13,23.48-2.22,37.33-2.37c-4.69-0.18-9.26-0.34-13.96-0.52c10.05-0.7,20.02-1.16,30.78-1.09
						c29.13,0.15,61.73,2.65,77.13,6.88c56.45-0.51,112.99-0.91,169.32-1.95c2.91-0.07,5.52,0.27,6.04,0.75
						c0.3,0.47-1.62,0.94-4.53,1.01c-40.4,1.67-81.39,2.55-122.46,3.3c34.32,0.84,68.82,1.62,103.99,1.79
						c4.48-0.07,8.99-0.14,13.51-0.21c4.47-0.07,8.89,0.06,13.31,0.25c44.94,0.03,87.58,0.29,133.42-0.91
						c39.15-1.04,73.41-2.14,112.39-3.63c54.75-2.11,104.63-4.23,158.74-4.24c7.19-0.15,13.86,0.74,14.7,1.97
						c0.87,1.22-4.35,2.35-11.57,2.5c-112.84,3.79-223.61,8.39-341.57,7.79c-12.73-0.07-25.24-0.13-37.69-0.22
						c0.16,0.17,0.31,0.33,0.31,0.5c0,0.67-1.18,1.29-3.17,1.8c14.14,0.17,28.39,0.43,42.69,0.79c39.76-1.4,79.58-2.8,121.97-2.09
						c29.11,0.52,55.46,1.97,82.39,3.3c34.12-0.76,68.13-1.73,102.59-2.38c1.37-0.09,2.81,0.04,3.3,0.28
						c0.49,0.24-0.25,0.48-1.64,0.56c-23.7,1.52-47.97,2.66-72.48,3.69c3.86,0.77,6.16,1.76,5.85,2.84
						c-0.31,1.13-3.3,2.13-7.88,2.84c5.55,0.03,11.11,0.04,16.66,0.08c3.43,0.04,6.14,0.48,6.04,1.03
						c-0.08,0.61-2.81,1.04-6.07,1.03c-22.67-0.07-45.29-0.16-67.91-0.25c-27.16,0.62-54.22,1.15-81.43,1.6
						c3.77,0.74,6.55,1.66,7.87,2.69c0.01,0.01,0.01,0.01,0.01,0.02c4.21-0.02,8.41-0.06,12.6-0.08
						c76.86-3.14,155.53-4.89,234.85-4.27c1.55-0.01,2.84,0.2,2.86,0.46c0.03,0.26-1.17,0.48-2.57,0.46
						c-23.94-0.19-47.82-0.16-71.62,0.05c0.04,0.01,0.06,0.01,0.1,0.01c0.96,0.16,1.14,0.45,0.09,0.63
						c-0.91,0.16-2.79,0.17-3.73,0.02c-1.1-0.18-1-0.46-0.1-0.63c-44.35,0.43-88.38,1.51-131.83,3.08
						c40.38-0.26,80.76-0.42,121.08,0.08c4.4-0.32,8.78-0.65,13.25-0.96c1.21-0.06,2.81,0.09,3.29,0.33
						c0.34,0.21-0.55,0.48-1.8,0.54c-1.24,0.07-2.47,0.16-3.7,0.24c7.64,0.1,13.52,1.18,13.4,2.52c-0.42,1.37-6.98,2.43-14.91,2.38
						c-21.24,0.26-42.4,0.4-63.56,0.46c-2.29,0.08-4.58,0.16-6.87,0.24c-2.31,0.21-4.6,0.42-6.9,0.64
						c32.91,0.53,65.75,1.18,98.4,1.88c2.8-0.01,5.19,0.37,5.25,0.85c0.07,0.47-2.2,0.88-5.01,0.89
						c-57.53,1.91-115.78,3.21-174.27,4.08c-19.2,2.06-38.46,4.14-58.07,6.19c2.47,0.03,4.97,0.06,7.47,0.06
						c63.59,0,117.55-5.86,179.12-7.07c1.54-0.06,2.82,0.15,3.03,0.38c0.17,0.24-0.88,0.48-2.44,0.48
						c-30.05,0.8-57.47,2.81-87.28,4.21c-24.7,1.18-48.18,2.25-71.13,3.8c46.92-0.56,91.92-3.1,138.4-4.24
						c2.03-0.11,4.08,0.01,5.37,0.26c0.11-0.13,0.52-0.26,1.14-0.34c5.81-0.66,12.14-1.13,18.62-1.52c1.24-0.11,2.8-0.01,3.46,0.25
						C823.79,158.26,823.04,158.5,821.66,158.64z M5.24,130.45c-0.45-0.11-0.82-0.2-1.17-0.29c1.26,0.15,2.61,0.31,4.11,0.49
						c0,0,0,0,5.73,1.94C13.91,132.6,9.57,131.54,5.24,130.45z M-66.62,137.59c0.01,0,0.01,0,0.04,0c-1.91-0.63-3.3-1.09-3.3-1.09
						C-68.55,136.94-67.5,137.3-66.62,137.59z M392.28,120.68c-24.68-0.04-49.11-0.49-73.48-1.71c5.96-0.11,11.89-0.21,17.84-0.32
						C355.12,119.23,373.66,119.91,392.28,120.68z M-42.96,123.11c6.5,1.01,11.56,2.26,16.34,3.54c4.27-0.23,8.73-0.32,13.25-0.26
						c12.14,0.14,23.98,0.4,35.63,0.76c-1.51-0.68,1.28-0.6,2.71-0.68c1.47-0.06,2.93-0.11,4.38-0.16
						c-12.43-0.49-24.89-1.02-37.57-1.6C-19.65,124.18-32.08,123.88-42.96,123.11z M-129.74,125.73c-0.35-0.09-0.67-0.17-1.06-0.25
						c0,0,0,0,2.32-1.02C-128.48,124.46-129.04,124.99-129.74,125.73z M-133.41,127.46c0.57,0.05,1.15,0.1,1.78,0.14
						C-132.27,127.98-132.84,127.85-133.41,127.46z M-117.08,128.75c-0.97-0.27-1.55-0.44-2.31-0.55
						C-117.09,128.75-117.08,128.75-117.08,128.75z M-105.48,158.83l6.37-5.11l-6.94,4.91L-105.48,158.83z"/>
				</g>
			</g>
		</g>
	</g>
</g>
<g>
	<g>
		<g>
			<g>
				<path class="st0" d="M765.14,240.06c-0.92-0.22-1.83-0.43-2.72-0.64c1.76-0.25,4.38-0.15,7.35,0.13
					c-3.58-0.68-7.31-1.25-11.15-1.74c-1.92-0.23-3.86-0.49-5.83-0.64c-1.97-0.15-3.96-0.27-5.97-0.37
					c-8.02-0.41-16.28-0.49-24.39-0.3c-4.06,0.1-8.08,0.25-12.02,0.48c-3.95,0.31-7.83,0.67-11.58,1.08
					c-7.5,0.81-14.49,1.81-20.63,2.9c-4.44-0.03-8.62,0.23-11.8,0.81c-3.19,0.59-5.36,1.39-5.77,2.25
					c-0.8,1.76,5.79,2.97,14.71,3.13c1.96,0.19,4.26,0.31,5.68,0.59c6.38,1.27,13.45,2.34,21.06,3.23c3.8,0.48,7.76,0.79,11.79,1.3
					c4.04,0.47,8.19,0.9,12.45,1.3c-3.27-0.54-6.69-1.11-9.97-1.66c4.92,0.49,9.77,1,15.26,1.11c-0.57-0.32-1.3-0.65-1.88-0.97
					c4.23,0.63,8.85,1.08,13.58,1.34c4.73,0.29,9.6,0.28,14.27,0.37c9.35,0.07,18.08-0.58,23.99-1.95
					c11.87-2.76,8.02-7.39-8.89-10.36L765.14,240.06z"/>
				<path class="st0" d="M733.49,229.36c10.26,1.32,20.11,2.51,29.88,4.27l1.92,0.66l-0.56-2.65l-0.2,0.16
					c-9.28,1.64-24.53,2.45-38.55,2.83l-5,0.3c-2.4,0.3-3.99,0.79-4.5,1.33c-1.18,1.24,3.18,2.49,9.68,2.81l7.5,0.35
					c18.3,1.5,46.83,3.09,57.26-0.99c2.35-0.93,0.41-2.31-0.02-3.53c0.79-1.7-6.02-3.5-15.18-4.01c-9.17-0.51-17.09,0.46-17.77,2.18
					c-1.54-0.18-3.14-0.39-4.67-0.55c1.22-0.2,2.45-0.31,3.69-0.48c-0.66,0.35-1.67,0.61-2.92,0.82c-1.25,0.23-2.74,0.42-4.34,0.58
					c-3.2,0.33-6.85,0.55-9.97,0.91l-9.32,0.28l5.19,4.14l4.85-0.46c-0.37-0.18-1.07-0.45-1.01-0.46c4.62-0.48,9.1-0.97,13.7-1.4
					c4.59-0.34,9.28-0.58,14.33-0.73l12.74-0.94c3.47-0.62,3.2-1.79-0.54-2.65l-5.6-1.11c0.84,0.21,1.69,0.42,2.53,0.63
					c-6.48-0.73-13.14-1.38-19.8-2.03c-3.32-0.37-6.66-0.53-9.97-0.81c-3.3-0.25-6.58-0.52-9.8-0.81c-2.04-0.22-4.52-0.1-5.61,0.29
					C730.51,228.66,731.39,229.15,733.49,229.36z"/>
				<g>
					<path class="st0" d="M779.49,230.22c2.09,0.4,4.1,0.81,7.11,0.87c0.73-0.15,1.11-0.23,1.3-0.27c-1.1-0.23-2.59-0.55-4.09-0.87
						C780.88,229.32,779.33,229.64,779.49,230.22z"/>
					<path class="st0" d="M787.9,230.81c1.02,0.22,1.7,0.36,1.7,0.36c-0.39-0.15-0.77-0.29-1.13-0.43
						c-0.33,0.02-0.34,0.02-0.34,0.02S788.12,230.77,787.9,230.81z"/>
					<path class="st0" d="M212.34,259.47c-5.19-0.02-10.39-0.04-15.58-0.05l-7.8-0.02l-3.9-0.01l-3.91-0.08
						c-10.42-0.21-20.86-0.43-31.29-0.64l-7.83-0.15c-2.61-0.03-5.23-0.2-7.84-0.3l-15.69-0.66l-15.69-0.64l-7.84-0.33l-7.85-0.46
						c-1.4-0.08-2.59,0.04-2.67,0.3c-0.08,0.22,1,0.5,2.3,0.56l7.85,0.47c2.62,0.15,5.23,0.23,7.84,0.34
						c5.23,0.22,10.45,0.43,15.68,0.65c5.22,0.22,10.45,0.44,15.67,0.66c2.61,0.1,5.22,0.25,7.83,0.31l7.81,0.15
						c10.42,0.22,20.83,0.43,31.23,0.65c5.21,0.17,10.39,0.08,15.59,0.12l15.58,0.05c1.4-0.01,2.55-0.21,2.73-0.46
						C214.63,259.68,213.65,259.48,212.34,259.47z"/>
					<path class="st0" d="M-95.06,213.17c1-0.02,1.01-0.29,0.03-0.64c-0.83-0.3-2.36-0.58-3.35-0.56c-0.84,0.02-0.86,0.34-0.03,0.64
						C-97.44,212.96-95.9,213.19-95.06,213.17z"/>
					<path class="st0" d="M-83.15,195.18c5.69,0.53,11.09,1,15.96,1.04c0.91,0.03,1.9,0.21,2.64,0.41
						c-0.27-0.45,0.86-0.65,2.92-0.52c40.46,2.64,83.7,5.99,126.38,6.94c0.3-0.31,0.89-0.6,1.86-0.84
						c3.01-0.84,8.94-1.01,15.05-0.47l4.61,0.47c4.66,0.35,9.32,0.78,13.99,1.06c4.67,0.27,9.33,0.54,14,0.81
						c9.33,0.55,18.65,1.11,27.96,1.66c3.83-0.45,8.26-0.74,13.08-0.81c8.07-0.57,16.14-1.13,24.27-1.7
						c2.03-0.14,4.06-0.24,6.1-0.41c2.04-0.17,4.08-0.33,6.13-0.5c4.1-0.31,8.21-0.63,12.34-0.94c-1.05-0.26-1.68-0.59-1.67-0.95
						c0.31-0.88,4.13-1.59,8.59-1.63c2.26-0.06,4.5-0.11,6.75-0.17c-6.47-0.12-12.95-0.24-19.4-0.36c-0.93,0-1.79-0.04-2.58-0.11
						c-3.54,0.05-7.11,0.11-10.69,0.16c-3.58,0.01-7.18,0.02-10.81,0.04c-7.93,0.06-15.8,0.16-23.61,0.3
						c-3.91,0.04-7.81,0.21-11.68,0.17c-3.88,0-7.74,0-11.59,0c-7.7,0.01-15.37,0.06-23,0.14c-1.91,0.02-3.81,0.04-5.72,0.06
						c-1.9-0.01-3.8-0.02-5.69-0.03c-3.79-0.01-7.58-0.03-11.35-0.04c-30.2-0.28-59.94-0.89-89.59-2.37
						c-0.98,0.03-2.49-0.17-3.32-0.47c-0.55-0.27-0.41-0.55,0.68-0.54c18.79-0.05,36.32-0.88,54.39-1.83
						c18.07-0.96,36.64-1.9,57.62-2.52c12.48-0.46,24.92-0.92,37.36-1.38c3.1-0.07,6.22-0.31,9.34-0.47l9.34-0.53
						c6.23-0.34,12.46-0.67,18.7-1.01c3.12-0.17,6.23-0.3,9.36-0.51c3.13-0.22,6.27-0.45,9.4-0.67c6.27-0.43,12.56-0.86,18.87-1.29
						c12.59-0.75,25.32-1.86,38.15-2.84c53.77-1.88,103.64-7.1,158.97-12.31c18.71-1.79,37.15-3.44,55.57-4.99
						c9.2-0.76,18.32-1.55,27.5-2.23c9.17-0.68,18.32-1.35,27.45-2.02c9.12-0.68,18.28-1.25,27.45-1.8
						c9.17-0.55,18.33-1.09,27.51-1.64c9.22-0.43,18.46-0.85,27.72-1.28c9.27-0.42,18.55-0.87,27.94-1.08
						c7.02-0.36,13.9-0.44,20.33-0.28c3.21,0.08,6.32,0.22,9.27,0.41c1.47,0.1,2.91,0.21,4.3,0.33c1.4,0.14,2.76,0.31,4.06,0.48
						c10.47,1.39,17.85,3.53,19.68,6.09c2.13,3.11-4.21,6.1-15.7,8.19c2.3,0.01,4.56,0.01,6.84,0.02l10.83,0.54
						c5.12,0.27,9.87,0.71,14.02,1.3c2.08,0.3,4,0.61,5.76,1c1.76,0.4,3.33,0.83,4.71,1.29l7.57,2.28
						c5.02,2.13,11.58,4.12,17.89,6.13c3.16,1.01,6.25,2.02,9.06,3.05c1.4,0.52,2.74,1.04,3.97,1.58c1.23,0.54,2.37,1.13,3.38,1.71
						l-1.88,1.54l1.92,0.55c6.36,1.46,10.6,3.18,12.01,4.89l-0.69,1.93c-1.42,2.18-4.68,4.15-9.83,5.92
						c0.15,0.84-0.49,1.63-1.83,2.34c4.28,2.19,6.24,4.38,2.75,6.55c2.58,0.69,2.12,1.52-0.99,1.88c-1.07,0.12-2.36,0.17-3.67,0.15
						c0.02,0.01,0.03,0.01,0.03,0.01c1.41,0.57,1.83,0.74,3.73,1.39c2.57,0.3,4.06,0.47,4.06,0.47c6.84,0.65,6.84,0.65,12.76,1.22
						c5.08,0.91,8.18,1.99,8.18,1.99c5.47,3.74,5.46,3.74,4.52,5.21c-0.34,0.13-0.71,0.26-1.11,0.38c4.48,0.69,4.79,0.74,5.99,0.95
						c1.26,0.32,2.11,0.67,2.11,0.67c0.15,0.82,0.15,0.82,0.9,1.14c0.23,0.33,0.15,0.62,0.15,0.62c-2.56,0.8-2.56,0.8-2.64,1.05
						c-0.61,0.22-1.44,0.38-1.44,0.38c-2.95,0.15-4.12,0.21-4.62,0.23c-6.2-2.36-6.22-2.37-6.22-2.37c-1.4,0.67-1.4,0.67-1.4,0.67
						c-1.43-1.03-1.43-1.03-1.43-1.03c0.79,0.92,0.79,0.92,0.79,0.92c-3.16-0.67-3.16-0.67-3.16-0.67c3.61,0.93,3.61,0.93,3.61,0.93
						c-7.52-0.64-7.52-0.64-10.54-0.74c-3.13-0.24-5.83-0.14-6.15-0.14c0.25,0.29,0.26,0.48,0.26,0.48
						c-8.05-0.65-8.04-0.78-15.91-1.24c-0.73-0.21-1.3-0.41-1.83-0.61c-0.76,0.23-2.27,0.35-3.83,0.25
						c-1.38-0.07-2.76-0.15-4.13-0.22c-0.31,0.04-0.61,0.07-0.89,0.11c0,0.04,0.01,0.07,0.01,0.07c-1.41,0.14-2.38,0.24-3.5,0.36
						c-0.7,0.09-0.72,0.09-0.72,0.09c-0.01,0-0.03-0.01-0.04-0.01c-2.41,0.25-5.89,0.61-15.11,1.56c-2.44-0.15-4.71-0.32-6.86-0.53
						c0.69,0.14,1.36,0.28,2,0.43c1.28,0.31,0.11,1.06,0.81,1.15c8.61,0.96,17.6,1.69,26.74,2.32c4.57,0.3,9.18,0.61,13.8,0.92
						c4.6,0.41,9.22,0.82,13.81,1.23c3.31,0.05,6.39,0.64,6.85,1.29c0.4,0.66-1.98,1.14-5.36,1.08c-4.68,0.33-9.48,0.57-14.38,0.74
						c-4.9,0.2-9.93,0.5-15,0.64c-10.16,0.34-20.59,0.35-31.05,0.22c-20.99,0.16-42.08-0.89-61.45-1.88
						c-5.09-0.06-10.19-0.12-15.3-0.17c-2.56-0.02-5.12-0.04-7.68-0.06c-2.57,0.02-5.14,0.04-7.71,0.05
						c0.5,0.11,0.99,0.22,1.48,0.33c-2.67-0.09-5.34-0.18-8-0.27c-0.29,0-0.58,0-0.86,0.01c2.04,0.39,4.07,0.78,6.09,1.17
						c1.39,0.08,2.79,0.16,4.2,0.24c2.98-0.07,5.92-0.05,8.84,0c2.91,0.06,5.8,0.13,8.66,0.19c5.73,0.16,11.38,0.39,17,0.64
						c2.81,0.13,5.61,0.26,8.42,0.4l4.21,0.2l4.2,0.28c5.61,0.38,11.24,0.74,16.96,1.05c6.15,0.34,11.86,0.83,17.48,1.35
						c1.4,0.13,2.8,0.26,4.2,0.39c1.4,0.16,2.79,0.32,4.19,0.48c2.8,0.31,5.62,0.62,8.51,0.94c2.98,0.13,5.03,0.67,4.67,1.24
						c-0.35,0.55-3.13,0.9-6.03,0.79c-2.41,0.02-4.84,0.03-7.28,0.05c-1.22,0-2.45,0-3.68,0c-1.23,0.03-2.47,0.05-3.72,0.08
						c-4.97,0.1-9.98,0.16-15.01,0.18c-5.03,0.02-10.07,0.01-15.09-0.05c-5.02-0.06-10.01-0.18-14.97-0.18
						c-19.82-0.17-38.68-1.25-54.39-2.89c-7.12,0.26-13.99,0.16-19.71-0.48c-0.1,0-0.22,0-0.32,0c1.51,0.34,2.92,0.66,4.43,1
						c-5.33-0.06-8.21-0.96-13.09-1.12c0.58,0.51,1.29,1.01,1.88,1.52c-13.18,0.2-26.88,0.79-40.35,1.2
						c-13.49,0.48-26.77,0.86-39.05,0.43c-0.99,0.03-1.91,0.03-2.83,0.03c-10.45,1.78-21.06,3.61-33.56,4.57
						c4.25-0.11,8.39-0.21,12.64-0.31c-9.04,1.29-18.01,2.36-27.74,2.92c-13.2,0.81-27.23,1.08-39.74,0.74
						c-12.52-0.35-23.55-1.34-30.67-3c-51.28,3.75-102.89,6.96-154.64,9.28c-2.68,0.11-5.09-0.19-5.57-0.66
						c-0.29-0.47,1.47-0.96,4.15-1.07c18.5-1.28,37.13-2.56,55.83-3.85c18.63-1.44,37.39-2.61,56.04-4.15
						c-15.63,0.55-31.38,0.84-47.2,1.27c-15.8,0.53-31.78,0.67-47.88,1.17c-4.1,0.2-8.22,0.44-12.36,0.6
						c-4.1,0.14-8.17,0.08-12.22-0.05c-10.31,0.16-20.49,0.31-30.61,0.46c-10.15-0.03-20.24-0.07-30.37-0.1
						c-5.06,0-10.13,0-15.22-0.01c-5.09-0.09-10.21-0.18-15.34-0.28c-10.28-0.18-20.66-0.19-31.24-0.32
						c-36.17-0.62-67.82-1.99-103.86-4.45c-25.3-1.77-49.47-3.99-73.48-7.01c-24.01-3.02-47.87-6.84-72.47-11.96
						c-6.58-1.18-12.43-3.43-12.94-4.78c-0.52-1.37,4.44-1.42,11-0.18c51.53,8.86,102.92,14.89,154.93,18.89
						c26.01,2,52.17,3.5,78.62,4.6c6.61,0.31,13.24,0.48,19.89,0.75c6.65,0.15,13.31,0.3,20,0.45c13.37,0.3,26.83,0.82,40.36,0.82
						c5.84,0.06,11.64,0.12,17.4,0.18c2.88,0.03,5.76,0.06,8.62,0.09l4.3,0.04l4.28-0.04c-0.15-0.16-0.29-0.32-0.29-0.49
						c-0.01-0.67,1.07-1.3,2.89-1.85c-6.47,0.08-12.98-0.1-19.51-0.26c-6.53-0.18-13.07-0.37-19.62-0.55
						c-4.56,0.14-9.12,0.34-13.69,0.43c-4.57,0.03-9.15,0.06-13.74,0.1c-9.18,0.05-18.41,0.06-27.71,0.01
						c-18.61-0.33-37.52-1.3-56.94-3.16C14.17,242-9.8,238.04-34.17,233.6c-7.8-0.75-15.58-1.69-23.37-2.53
						c-7.78-0.96-15.57-1.83-23.35-2.9c-15.58-2-31.15-4.37-46.8-6.97c-1.26-0.16-2.53-0.53-2.93-0.85
						c-0.4-0.32,0.31-0.42,1.58-0.26c21.69,2.6,43.86,5.19,66.25,7.43c-3.4-1.28-5.33-2.57-4.89-3.6c0.44-1.07,3.3-1.67,7.54-1.75
						c-5.02-0.79-10.04-1.51-15.05-2.34c-3.09-0.53-5.46-1.35-5.29-1.89c0.16-0.59,2.69-0.63,5.63-0.14
						c20.43,3.24,40.89,6.08,61.39,8.51c24.7,2.2,49.33,3.9,74.12,5.09c-3.38-0.98-5.84-2.07-6.97-3.18c0-0.01,0-0.02,0-0.02
						c-3.83-0.25-7.64-0.46-11.44-0.76c-69.98-2.31-141.62-10.98-212.21-27.24c-1.39-0.29-2.49-0.74-2.45-1.01
						c0.03-0.26,1.15-0.24,2.39,0.05c21.29,4.92,42.67,9.15,64.09,12.72c-0.04-0.01-0.05-0.02-0.09-0.03
						c-0.83-0.31-0.94-0.62,0.03-0.64c0.85-0.02,2.54,0.26,3.36,0.56c0.96,0.35,0.82,0.61-0.01,0.64
						c39.92,6.57,79.93,10.74,119.45,12.93c-18.31-1.62-36.59-3.56-54.81-5.92c-18.22-2.4-36.38-5.2-54.44-8.47
						c-4-0.36-7.99-0.72-12.05-1.09c-1.1-0.12-2.5-0.54-2.9-0.85c-0.27-0.27,0.58-0.38,1.71-0.23c1.13,0.11,2.24,0.22,3.36,0.33
						c-6.83-1.28-11.9-3.36-11.55-4.64c0.63-1.3,6.66-1.2,13.75,0.04c19.02,3.06,38.02,5.84,57.05,8.33l6.2,0.6
						c2.11,0.05,4.19,0.1,6.29,0.14c-29.54-4.23-58.84-9.55-87.78-15.62c-2.5-0.43-4.55-1.24-4.51-1.72
						c0.03-0.48,2.12-0.47,4.62-0.03c51.5,7.64,103.82,13.4,156.48,16.79c8.71-0.28,17.43-0.75,26.18-1.17
						c8.75-0.52,17.53-1,26.38-1.64c-2.21-0.13-4.46-0.26-6.7-0.39c-28.52-1.46-54.94-2.17-81.2-3.28
						c-26.25-1.12-52.32-2.73-79.86-6.5c-1.38-0.16-2.49-0.55-2.64-0.81c-0.11-0.26,0.86-0.35,2.25-0.13
						c26.9,3.45,51.67,4.73,78.48,6.16c22.21,1.18,43.34,1.87,63.99,1.65c-42.03-2.18-82.51-3.89-124.07-8.82
						c-1.82-0.16-3.63-0.54-4.74-0.96c-0.12,0.12-0.5,0.19-1.07,0.18c-5.27-0.09-10.97-0.57-16.79-1.08
						c-1.12-0.07-2.49-0.39-3.03-0.74C-85.11,195.25-84.4,195.12-83.15,195.18z M654.34,220.26c0.41,0.1,0.75,0.18,1.06,0.26
						c-1.14-0.12-2.36-0.25-3.71-0.39c0,0,0,0-5.21-1.8C646.47,218.32,650.41,219.29,654.34,220.26z M719.11,212.62
						c-0.01,0-0.01,0-0.04,0c1.72,0.66,2.97,1.14,2.97,1.14C720.84,213.29,719.89,212.92,719.11,212.62z M304.63,249.44
						c11.28-0.47,22.45-1.02,33.61-1.39c11.15-0.39,22.31-0.55,33.4-0.69c-5.41,0.44-10.8,0.88-16.2,1.32
						c-8.43,0.17-16.88,0.34-25.34,0.52c-4.23,0.07-8.46,0.13-12.7,0.2C313.14,249.41,308.88,249.42,304.63,249.44z M697.77,227.05
						c-5.83-0.97-10.38-2.18-14.69-3.44c-3.84,0.26-7.85,0.37-11.91,0.35c-1.36-0.01-2.72-0.02-4.08-0.02
						c-1.36,0.01-2.71,0.02-4.06,0.04c-2.7,0.01-5.39,0.03-8.06,0.04c-5.34,0.01-10.63,0-15.88-0.05c1.38,0.65-1.14,0.63-2.42,0.75
						c-1.32,0.09-2.63,0.18-3.94,0.27c11.2,0.2,22.43,0.44,33.84,0.72C676.85,226.11,688,226.36,697.77,227.05z M775.56,225.93
						c0.31,0.1,0.59,0.18,0.94,0.29c0,0,0,0-2.12,0.93C774.38,227.15,774.89,226.62,775.56,225.93z M778.91,224.34
						c-0.51-0.07-1.03-0.14-1.59-0.21C777.91,223.77,778.42,223.93,778.91,224.34z M764.33,222.43c0.86,0.31,1.38,0.5,2.05,0.64
						C764.34,222.43,764.33,222.43,764.33,222.43z M754.79,191.93l-5.94,5.02l6.46-4.8L754.79,191.93z"/>
				</g>
			</g>
		</g>
	</g>
</g>
</svg>
