<svg xmlns="http://www.w3.org/2000/svg" viewBox="0 0 1115.15 309.67"><defs><style>.a{fill:#1d1d1d;}</style></defs><path class="a" d="M-9.88-34.85l2,.52a18.67,18.67,0,0,1-5.42.18c21.3,4.2,49.34,1.68,67.41-2.52,6.52.15,12.32-1.1,12.94-2.8s-4.2-3.22-10.77-3.38c-1.45-.2-3.14-.34-4.19-.62-9.38-2.64-20.84-4.45-33.49-5.8L26-47.77a100.07,100.07,0,0,0-11.33-.87c.42.31,1,.62,1.4.94C3.54-50-13.7-49.16-22.39-45.91s-5.65,7.71,6.93,10Z" transform="translate(237.65 49.27)"/><path class="a" d="M13.58-25c-7.53-1.12-14.76-2.32-22-3.54l-1.44-.58.49,2.62.14-.17c6.78-2.2,18-3.09,28.25-3.71l3.67-.38c1.76-.34,2.93-.85,3.3-1.41.86-1.26-2.35-2.44-7.15-2.65L13.32-35c-13.46-1.51-34.65-1.58-42.16,2.86-1.69,1-.21,2.33.15,3.53-.51,1.73,4.55,3.24,11.28,3.37s12.53-1.19,13-2.93l3.44.36-2.7.63c1.91-1.52,8-1.86,12.61-2.66l6.84-.42-3.86-4.06-3.57.53a8.43,8.43,0,0,1,.75.45c-6.78,1.11-13.15,2.21-20.58,2.92l-9.34,1.48c-2.53.77-2.28,1.92.48,2.63l4.15.88L-18.08-26C-8.52-25,1.55-24.5,11-23.53a8.55,8.55,0,0,0,4.1-.38C15.77-24.31,15.13-24.78,13.58-25Z" transform="translate(237.65 49.27)"/><path class="a" d="M-20.14-24.42A20.55,20.55,0,0,0-25.38-25l-.94.33,3,.7C-21.13-23.47-20-23.85-20.14-24.42Z" transform="translate(237.65 49.27)"/><path class="a" d="M-26.32-24.66l-1.27-.29.85.38.25,0Z" transform="translate(237.65 49.27)"/><path class="a" d="M391-32.07q44.34,1.3,88.91,1.87c1,0,1.83-.17,1.88-.42s-.72-.45-1.64-.45c-29.69-.46-59.22-1-88.77-1.92-1,0-1.82.18-2,.42S390.05-32.1,391-32.07Z" transform="translate(237.65 49.27)"/><path class="a" d="M612.12-7.61c-.69.22-.66.48.07.63a5.65,5.65,0,0,0,2.41-.11c.58-.18.54-.5-.08-.63A5.78,5.78,0,0,0,612.12-7.61Z" transform="translate(237.65 49.27)"/><path class="a" d="M606.38,12.3c-4.2.48-8.19,1-11.73,1.7a6.21,6.21,0,0,1-2,0c.25.4-.55.78-2.06,1-14.93,1.83-30.17,2.93-45.67,3.93s-31.23,1.76-46.83,2.66a2.88,2.88,0,0,1-1.32.94c-2.16,1-6.49,1.54-11,1.36l-3.39-.25c-13.7-.59-27.38-1.05-41-1.69a70.49,70.49,0,0,1-9.54.86c-11.79,1.26-23.61,2.45-35.69,3.37.76.28,1.22.61,1.21,1-.24.88-3,1.52-6.3,1.49l-4.94.06,14.18.68a15.09,15.09,0,0,1,1.88.15c5.18,0,10.42,0,15.74-.06,46.48-.77,90.18-4.08,133.55-7.89a5.74,5.74,0,0,1,2.45.09c.42.21.35.5-.45.61-27.33,4.38-51,10.14-81.88,13-36.78,3.44-73.1,6.31-110.8,8.53-39.41,0-75.88,2.09-116.09,3.64C190.44,49.57,139.14,49.91,86,50.1c-19.9.7-38.14-3-40.72-8.09-1.5-3.12,3-6.07,11.19-8.07l-4.86-.07-7.69-.62c-7.28-.62-13.49-1.9-17.41-3.64l-5.39-2.17C14,23.34,2.34,19.89-3.52,15.59L-2.2,14l-1.39-.47c-4.58-1.19-7.66-2.73-8.73-4.39l.44-1.95c1-2.25,3.26-4.35,6.93-6.33A2.64,2.64,0,0,1-3.68-1.57C-6.82-3.59-8.3-5.69-5.82-8c-1.88-.58-1.57-1.43.68-1.92a15,15,0,0,1,2.66-.3h0c-1-.51-1.35-.66-2.74-1.23l-3-.3-9.31-.68a32.28,32.28,0,0,1-6-1.65c-4.12-3.51-4.12-3.51-3.48-5a7.35,7.35,0,0,1,.79-.43c-3.29-.51-3.52-.55-4.41-.7a10.27,10.27,0,0,1-1.57-.59c-.14-.81-.14-.81-.7-1.1a1,1,0,0,1-.14-.61c1.84-.91,1.84-.91,1.89-1.16a6.61,6.61,0,0,1,1-.45l3.38-.42,4.63,2.1,1-.72,1.08,1-.61-.89,2.34.54L-21-23.35a77.42,77.42,0,0,0,7.74.3,33.18,33.18,0,0,0,4.5-.13,1,1,0,0,1-.2-.47c5.91.34,5.91.34,11.68.72a13.86,13.86,0,0,1,1.35.59,7,7,0,0,1,2.79-.32l3,.16.65-.12a.24.24,0,0,0,0-.07l2.55-.42.53-.1h0L24.73-25c1.79.11,3.45.25,5,.42-.5-.13-1-.26-1.46-.4-.94-.29-.08-1.06-.6-1.13-12.62-1.66-26.38-2.34-39.95-3.22-2.43.09-4.71-.37-5.07-1s1.42-1.23,3.91-1.31c27.5-4.18,61.25-3.6,89.5-.26,7.43.41,14.91.76,22.41,1.09l-1.08-.4,5.82.6.63,0L99.46-32,96.4-32.4c-17.39-.6-33.16-2.8-50-4.21-9-.77-16.78-2.13-25.32-3.14-2.2-.07-3.72-.58-3.46-1.16s2.31-1,4.45-.89c28.49-1,61-.07,83.8,4.79a73.62,73.62,0,0,1,14.36,1.3l.23,0-3.2-1.19c3.89.29,6,1.27,9.51,1.69-.41-.54-.9-1.08-1.31-1.62,19.18,1,39.92.56,57.68,2.9.72,0,1.38.09,2,.14a180.73,180.73,0,0,1,24.45-2.37l-9.14-.52a171.44,171.44,0,0,1,20.16-1.08c19.08.15,40.44,2.65,50.52,6.88,37-.5,74-.9,110.91-1.93,1.9-.07,3.61.27,3.95.75s-1.06.94-3,1c-26.47,1.67-53.32,2.55-80.22,3.3,22.49.84,45.08,1.62,68.12,1.8l8.85-.21c2.92-.07,5.82.06,8.72.26,29.43,0,57.36.3,87.39-.9,25.65-1,48.08-2.13,73.62-3.62L575.93-32c8.56-.51,16.89-1,25.06-1.61,16.34-1.16,32.08-2.54,47.74-4.65a25.67,25.67,0,0,1,5.67-.35c1.59.13,2.75.48,3.09,1,.71,1.14-2.12,2.73-6.32,3.5a424.81,424.81,0,0,1-51.39,6.53c-8.89.66-17.91,1.17-27.07,1.62L545-24.65c-37,1.55-74.49,2.54-113.13,2.23l-24.69-.22a1,1,0,0,1,.21.5c0,.67-.78,1.28-2.08,1.8q13.89.25,28,.79c26-1.4,52.12-2.8,79.89-2.08,19.07.53,36.33,2,54,3.31,22.31-.77,44.13-1.76,65.44-4.16a3.58,3.58,0,0,1,2.07.11c.32.21-.12.49-1,.64-14.58,2.77-30,4.33-45.87,5.49,2.5.75,4,1.72,3.82,2.81s-2.12,2.15-5.09,2.89l10.81-.05c2.22,0,4,.4,3.93,1s-1.8,1.09-3.92,1.1c-14.69.18-29.5,0-44.32-.06C535.26-8,517.53-7.45,499.71-7c2.47.74,4.29,1.65,5.16,2.69v0l8.25-.09q18.89-1.17,38-2.07c12.72-.61,25.52-1,38.26-1.54,25.48-1,50.86-2.31,75.67-6.46,1-.18,1.8-.12,1.87.14s-.65.6-1.53.73a445,445,0,0,1-45.56,5h.06c.63.13.76.41.09.63a6.1,6.1,0,0,1-2.41.14c-.72-.14-.66-.43-.09-.62-14.29.86-28.65,1.37-43,1.9s-28.72,1.18-42.94,2q19.83-.2,39.66-.24c13.21,0,26.36,0,39.47-.19l8.54-1.33a4.24,4.24,0,0,1,2.15.22c.23.21-.33.5-1.13.6l-2.39.37c5-.14,8.83.69,8.84,2-.18,1.39-4.41,2.72-9.6,2.91C603.14.68,589.27,1,575.4,1l-4.49.25-4.52.64c21.55.54,43.11,1.16,64.66.29,1.84-.15,3.45.11,3.52.58s-1.38,1-3.24,1.15c-18.94,2.35-38.09,3.33-57.16,4S536,9.18,516.85,9.61l-38,6.18c1.61,0,3.25.06,4.89.06,20.83,0,40.08-1.46,59.16-3.07,9.54-.81,19-1.65,28.68-2.37S591,9.06,601.2,8.54a2.89,2.89,0,0,1,2,.34c.12.24-.57.5-1.6.52-9.94.62-19.42,1.36-28.84,2.14S554,13.17,544.23,13.87c-16.17,1.18-31.56,2.25-46.59,3.8,15.37-.28,30.42-1.05,45.44-1.89s29.95-1.72,45.33-2.41a10.58,10.58,0,0,1,3.56.23,1.22,1.22,0,0,1,.75-.35c3.84-.7,8-1.25,12.33-1.75a4.52,4.52,0,0,1,2.31.18C607.79,11.88,607.3,12.13,606.38,12.3ZM71.29-15.57l-.77-.28,2.69.49L77-13.42ZM24.22-8.44h0L22.08-9.53ZM324.8-25.31c-16.16,0-32.16-.49-48.13-1.71l11.69-.32Q306.53-26.47,324.8-25.31ZM39.72-22.91a69.08,69.08,0,0,1,10.7,3.54c2.8-.23,5.72-.31,8.68-.26,8,.14,15.71.4,23.34.76-1-.68.84-.6,1.77-.68l2.87-.16c-8.14-.49-16.3-1-24.61-1.61C55-21.84,46.85-22.14,39.72-22.91ZM-17.13-20.3l-.69-.25,1.52-1Zm-2.4,1.73,1.17.14C-18.78-18-19.16-18.18-19.53-18.57Zm10.7,1.29a8.36,8.36,0,0,0-1.51-.55ZM-1.24,12.8,2.93,7.69-1.62,12.6Z" transform="translate(237.65 49.27)"/><path class="a" d="M582.28,71.9l-2-.43a18.81,18.81,0,0,1,5.33-.43C564.45,68,537,71.36,519.34,76.2c-6.43,0-12.1,1.38-12.67,3.1s4.22,3.12,10.71,3.13c1.44.17,3.11.24,4.15.49,9.34,2.31,20.72,3.72,33.27,4.63l-7.38-1.24a98.6,98.6,0,0,0,11.22.47c-.43-.29-1-.59-1.42-.89a87.93,87.93,0,0,0,20.5.27c6.86-.65,13.22-2,17.42-3.8,8.44-3.66,5.16-8-7.32-9.64Z" transform="translate(237.65 49.27)"/><path class="a" d="M558.79,63.08c7.44.83,14.58,1.64,21.75,2.55l1.43.51-.6-2.59-.13.17a68.88,68.88,0,0,1-12.46,3c-2.41.4-4.93.76-7.47,1.08s-5.13.56-7.65.81l-3.6.51c-1.71.4-2.85,1-3.19,1.51C546.08,72,549.28,73,554,73.08l5.45,0c13.3.93,34.18,0,41.33-4.8,1.61-1.11.08-2.34-.34-3.52.41-1.75-4.64-3-11.24-2.84S577,63.73,576.6,65.49l-3.4-.2,2.63-.75c-1.8,1.6-7.81,2.23-12.26,3.24-2.24.26-4.48.46-6.71.69l4,3.92,3.48-.69c-.27-.16-.79-.39-.75-.41,6.62-1.43,12.84-2.83,20.1-3.89l9.1-1.91c2.45-.89,2.15-2-.6-2.6L588,62.21l1.86.43c-9.42-.48-19.33-.54-28.63-1.08a8.29,8.29,0,0,0-4,.52C556.62,62.5,557.27,63,558.79,63.08Z" transform="translate(237.65 49.27)"/><path class="a" d="M591.85,61a19.46,19.46,0,0,0,5.17.32l.91-.37-3-.55C592.77,60,591.69,60.44,591.85,61Z" transform="translate(237.65 49.27)"/><path class="a" d="M597.93,61l1.25.24-.85-.34-.24,0Z" transform="translate(237.65 49.27)"/><path class="a" d="M187.91,66.05c-14.49-1.23-29-2.75-43.52-4.1s-29-2.88-43.56-4.3c-1-.1-1.81,0-1.88.26s.67.51,1.57.59c14.53,1.43,29,3,43.51,4.34s29,2.87,43.45,4.1c1,.07,1.8-.06,1.94-.29S188.82,66.14,187.91,66.05Z" transform="translate(237.65 49.27)"/><path class="a" d="M-25.93,21c.7-.11.71-.37,0-.64a5.43,5.43,0,0,0-2.36-.27c-.6.09-.62.4,0,.63A5.51,5.51,0,0,0-25.93,21Z" transform="translate(237.65 49.27)"/><path class="a" d="M-17.37,2.15A111.77,111.77,0,0,0-6,2.06a5.84,5.84,0,0,1,1.87.25c-.19-.43.62-.71,2.08-.7l10.88.12c3.66,0,7.34.1,11,.19,7.4.18,14.89.45,22.41.78L87.72,4.53a2.75,2.75,0,0,1,1.36-.82c2.17-.79,6.4-1,10.73-.41l3.25.53,19.75,2.51C129.38,7.17,136,8,142.52,8.78a66.12,66.12,0,0,1,9.28-.19c5.74-.21,11.49-.41,17.27-.56l17.45-.4c-.72-.32-1.14-.68-1.11-1,.28-.86,3-1.34,6.18-1.12l4.77.24L182.72,4.19a17.09,17.09,0,0,1-1.81-.26c-5-.32-10-.73-15.19-1C120.82.64,78.44,0,36.23-.64A5.6,5.6,0,0,1,33.87-1c-.38-.25-.28-.53.5-.56,6.7-.39,13.18-.8,19.61-1.4L73.23-4.69c6.46-.55,13-1,19.84-1.4s13.9-.73,21.39-.81c35.67-.31,70.81-.92,107.18-1,9.48.47,18.79.79,28,1q6.93.18,13.81.28h13.78L305-6.78l28.47-.52c52.29-1,101.6-1.29,152.68-2.52A112.46,112.46,0,0,1,512-8.56c7.13,1.32,12.2,3.26,13.53,5.8,1.54,3.06-2.7,6.2-10.55,8.44l4.7-.08,7.44.35c7,.37,13.1,1.44,17,3.05l5.29,2A114.16,114.16,0,0,0,562,16.36c4.47,1.7,8.79,3.43,11.73,5.44l-1.2,1.68,1.36.4c4.5,1,7.57,2.38,8.68,4l-.33,2c-.83,2.28-3,4.49-6.45,6.64A2.69,2.69,0,0,1,574.66,39c3.15,1.86,4.7,3.89,2.38,6.32,1.87.5,1.61,1.36-.57,2a15.45,15.45,0,0,1-2.58.42h0a29.42,29.42,0,0,0,2.73,1.1l2.91.16,9.13.25a31.5,31.5,0,0,1,6,1.37c4.21,3.31,4.21,3.31,3.67,4.84-.23.16-.49.32-.76.47,3.25.35,3.48.38,4.36.49a10.87,10.87,0,0,1,1.56.51c.19.81.19.81.75,1.07a1,1,0,0,1,.17.61c-1.75,1-1.75,1-1.79,1.24a6,6,0,0,1-1,.49l-3.29.59L593.68,59l-.95.77-1.11-.92.65.86L590,59.24l2.65.65c-5.43-.06-5.43-.06-7.6.07a31.8,31.8,0,0,0-4.42.33,1,1,0,0,1,.23.47c-5.82-.07-5.82-.07-11.49-.18-.53-.17-1-.35-1.35-.52a6.75,6.75,0,0,1-2.72.44h-3l-.63.15a.24.24,0,0,0,0,.07l-2.49.5-.51.12h0L547.86,63.5c-1.76,0-3.4-.13-5-.24l1.45.34c.93.25.12,1.06.62,1.11,6.23.6,12.74,1,19.35,1.19s13.34.24,20,.37c2.38-.21,4.65.15,5,.76s-1.33,1.29-3.78,1.48c-6.71,1.37-13.82,2.46-21.14,3.29S549.57,73,542,73.3s-15.19.27-22.65.07-14.76-.77-21.73-1.44c-7.32-.24-14.68-.41-22.06-.57l1.06.37-5.73-.53-.62,0,4.35,1.38c1,.14,2,.24,3,.35,8.56.1,16.73.61,24.84,1.22s16.15,1.37,24.44,1.74c8.91.45,16.6,1.54,25.05,2.25,2.17,0,3.69.45,3.46,1s-2.24,1-4.36,1c-28,2.1-60.18,2-82.72-2.55a72.39,72.39,0,0,1-14.16-1.14H454l3.16,1.15c-3.83-.26-5.88-1.21-9.38-1.59.41.54.9,1.07,1.31,1.61-4.73-.2-9.55-.31-14.4-.39s-9.72-.24-14.55-.38a279,279,0,0,1-27.87-2c-.7,0-1.36-.09-2-.14a171.47,171.47,0,0,1-24.1,2.07l9,.64a165.46,165.46,0,0,1-19.88.83,209.08,209.08,0,0,1-28.17-2.49c-8.82-1.39-16.51-3.27-21.4-5.5-9.09-.14-18.19-.41-27.29-.6s-18.19-.36-27.28-.71L223.8,68.2,217,68l-6.81-.25-13.62-.47c-1.87,0-3.53-.49-3.84-1-.16-.49,1.1-.88,3-.83q9.78,0,19.62.08l19.71.1c13.17.12,26.38.4,39.6.44l-16.56-1.24-16.62-1.35-16.72-1.23-8.42-.56-8.44-.61-8.69-.32c-2.87-.1-5.71-.4-8.53-.77-7.22-.47-14.34-.85-21.42-1.4L148,57.12l-21.31-1.35c-7.16-.46-14.4-.87-21.77-1.19l-18.41-.79-17.81-.87c-11.8-.58-23.62-1-36.17-1.67L6.58,50c-4.27-.2-8.5-.48-12.72-.77l-12.61-.88C-27.15,47.68-35.53,47-44,46.19s-16.93-1.9-25.58-3c-4.62-.47-8.76-1.92-9.13-3.21s3.1-2,7.73-1.48c72.58,6,143.83,9.1,219.39,15.23l24.15,2a1,1,0,0,1-.17-.51c0-.67.85-1.22,2.16-1.66q-13.58-1.22-27.3-2.77c-6.39-.14-12.79-.2-19.21-.42s-12.86-.49-19.36-.83-13-.73-19.64-1.24S75.8,47,69,46.11c-9.29-1.18-18.11-2.47-26.73-4s-17-3.16-25.57-4.76c-5.47-.42-10.94-.77-16.4-1.22L-16,34.78-32.48,33.4l-8.24-.73L-49,31.82A3.91,3.91,0,0,1-51,31.27c-.28-.28.22-.45,1.12-.42l23.15.89q11.67.51,23.48,1.19C-5.66,31.87-7,30.71-6.68,29.65s2.35-1.86,5.34-2.21l-10.58-1.37c-2.18-.31-3.85-.95-3.72-1.5s1.91-.81,4-.55c14.39,1.9,28.79,3.5,43.18,5.17l13,1c4.33.33,8.67.58,13,.88l26,1.79c-2.34-1-4-2.06-4.77-3.16v0l-8-.7A1272.06,1272.06,0,0,1-79,15.63c-1-.13-1.78-.44-1.76-.71s.81-.37,1.7-.23c15.17,2.2,30.32,4.28,45.46,6l-.06,0c-.59-.22-.67-.53,0-.63a6.22,6.22,0,0,1,2.38.27c.68.27.57.54,0,.63q10.59,1.14,21.15,2.13c7,.66,14.06,1.35,21.09,1.81s14,1,21,1.41,14,.89,20.91,1.13C27.17,25,1.47,22.33-24,18.62l-8.54-.07a4.13,4.13,0,0,1-2-.59c-.19-.23.41-.43,1.21-.39l2.38.05c-4.83-.69-8.43-2.23-8.18-3.56.44-1.31,4.73-1.85,9.76-1.19L-9.27,15c6.72.72,13.43,1.56,20.15,2.23l4.39.23,4.45-.16L4.11,15.18l-15.55-2.35L-27,10.45C-32.12,9.65-37.28,8.87-42.42,8c-1.77-.22-3.23-.81-3.21-1.29s1.51-.68,3.29-.46l55.21,4.26c18.49,1.34,37,2.91,55.62,4.19l18.6-1.31c6.22-.4,12.48-1,18.78-1.45-1.56-.17-3.15-.33-4.73-.46C91.06,10.65,81.35,10,71.82,9.66c-4.76-.18-9.48-.3-14.17-.39L43.65,9C25.05,8.58,6.54,8.46-13,6.59c-1-.06-1.77-.36-1.87-.61s.62-.41,1.6-.29C5.84,7.3,23.43,7.1,42.43,7.78c7.87.32,15.56.42,23.11.56s14.95.18,22.28.11C80.39,7.87,73,7.42,65.68,7l-11-.52-5.48-.23L43.75,6,21.86,4.9c-7.31-.41-14.65-.77-22-1.42a10,10,0,0,1-3.36-.67,1.12,1.12,0,0,1-.76.24c-3.75.21-7.81.19-11.95.09a4,4,0,0,1-2.15-.52C-18.76,2.36-18.26,2.18-17.37,2.15ZM501.92,55.5l.75.27L500,55.34l-3.71-1.85Zm45.81-8.56h0l2.15,1ZM253.23,62.81c7.92.45,15.81.78,23.67,1.36s15.69,1.27,23.51,2.17l-11.49-.1-17.82-1.6C265.15,64.08,259.19,63.52,253.23,62.81Zm279.84-.87a65.16,65.16,0,0,1-10.6-3.17,69.36,69.36,0,0,1-8.51.51c-7.8,0-15.4,0-22.89-.23,1,.67-.81.63-1.72.73l-2.82.23c8,.3,16,.65,24.17,1C518.06,61.44,526.05,61.41,533.07,61.94ZM588.69,57l.7.21-1.45,1.09ZM591,55.19l-1.14-.09C590.2,54.7,590.57,54.82,591,55.19Zm-10.53-.8a7,7,0,0,0,1.51.48ZM571.64,24.7,567.82,30l4.2-5.12Z" transform="translate(237.65 49.27)"/><path class="a" d="M-27.95,21.82l2.33.44a25,25,0,0,1-6.19.41c24.49,3.21,56.4-.06,77-4.57a51.62,51.62,0,0,0,9.93-.87c2.67-.53,4.5-1.28,4.85-2.14.68-1.7-4.85-3.21-12.39-3.21-1.66-.17-3.6-.27-4.81-.54a250.26,250.26,0,0,0-38.55-5L12.8,7.63c-4.21-.29-8.36-.6-13-.5.5.3,1.14.6,1.64.9A121.88,121.88,0,0,0-22.4,7.57c-8,.64-15.38,1.94-20.3,3.75-9.87,3.65-6.14,8,8.33,9.67Z" transform="translate(237.65 49.27)"/><path class="a" d="M-.84,30.85C-9.46,30-17.74,29-26,28.1l-1.65-.52.64,2.6.16-.17c7.65-2.55,20.39-3.76,32.13-4.72l4.18-.5c2-.4,3.32-.95,3.73-1.51.95-1.29-2.75-2.37-8.24-2.43l-6.33-.05c-15.44-1.17-39.69-.18-48.08,4.56-1.89,1.11-.14,2.34.32,3.52-.5,1.75,5.34,3,13,2.87s14.23-1.74,14.7-3.51l3.94.22-3.05.74c2.11-1.63,9.11-2.13,14.29-3.1l7.81-.64L-3,21.53l-4.05.65a9.32,9.32,0,0,1,.87.42c-3.86.66-7.6,1.32-11.43,1.94s-7.76,1.26-12,1.78l-10.61,1.89c-2.86.88-2.53,2,.66,2.6l4.75.69L-37,31.07c5.46.25,11.07.39,16.66.55s11.17.42,16.57.74a11.13,11.13,0,0,0,4.66-.51C1.67,31.43.93,31-.84,30.85Z" transform="translate(237.65 49.27)"/><path class="a" d="M-39.26,32.7a26.66,26.66,0,0,0-6-.33l-1.06.36,3.48.57C-40.35,33.7-39.09,33.27-39.26,32.7Z" transform="translate(237.65 49.27)"/><path class="a" d="M-46.32,32.73l-1.45-.23,1,.34.28,0Z" transform="translate(237.65 49.27)"/><path class="a" d="M429.81,38.11c33.55,4,67.19,8.48,100.77,13,1.12.16,2.09.1,2.18-.15s-.76-.55-1.81-.68c-33.59-4.57-67.07-9.05-100.63-13a3.7,3.7,0,0,0-2.26.2C428,37.69,428.76,38,429.81,38.11Z" transform="translate(237.65 49.27)"/><path class="a" d="M676.4,91.32c-.8.13-.8.4,0,.64a7.33,7.33,0,0,0,2.74.19c.68-.11.67-.42,0-.63A7.46,7.46,0,0,0,676.4,91.32Z" transform="translate(237.65 49.27)"/><path class="a" d="M667.62,110.39c-4.76-.06-9.28,0-13.34.28a8.1,8.1,0,0,1-2.21-.24c.24.43-.7.71-2.42.71-33.88.1-69.91-3.32-105.09-6.07a3.08,3.08,0,0,1-1.6.75c-2.54.7-7.47.59-12.47-.23l-3.76-.72c-7.62-1.28-15.23-2.43-22.84-3.6l-22.77-3.55a90,90,0,0,1-10.77-.29c-6.66-.09-13.32-.2-20-.35s-13.44-.22-20.24-.43c.82.35,1.3.74,1.26,1.1-.35.85-3.54,1.19-7.19.8l-5.52-.48,15.77,2.22a21.12,21.12,0,0,1,2.09.35l17.59,1.73c26,2.35,51.23,4.28,76.15,6s49.66,3.29,74.45,4.35a7.69,7.69,0,0,1,2.78.43c.45.26.33.54-.58.55-31.5.64-58.91,2.62-93.64,1.25-41.33-1.65-82.05-3-124.23-4.36-43.92-3.76-84.76-4.39-129.68-5l-44.95-.53c-7.41-.06-14.79-.25-22.15-.27l-22-.19c-7.33-.12-14.64-.11-22-.14l-22-.13-22,0c-7.36,0-14.74,0-22.15.11a155.59,155.59,0,0,1-30-1.59c-8.25-1.32-14.1-3.41-15.59-6-1.74-3.09,3.24-6.14,12.4-8.3l-5.45,0-8.64-.47c-8.17-.46-15.17-1.65-19.61-3.25L9.13,83C1,79.12-12.19,76-18.94,72l1.42-1.68-1.58-.41c-5.2-1-8.73-2.39-10-4l.42-2c1-2.28,3.51-4.49,7.6-6.63-.17-.83.3-1.66,1.35-2.47-3.62-1.87-5.38-3.9-2.64-6.33-2.16-.5-1.84-1.36.7-1.95a19.5,19.5,0,0,1,3-.42h0c-1.19-.47-1.55-.6-3.15-1.11l-3.38-.17-10.59-.27a40.53,40.53,0,0,1-6.91-1.38c-4.82-3.32-4.82-3.32-4.16-4.85.27-.16.57-.32.89-.47-3.77-.35-4-.38-5.06-.5a13.9,13.9,0,0,1-1.81-.51C-53,36-53,36-53.7,35.75a.94.94,0,0,1-.19-.6c2.06-1,2.06-1,2.11-1.24a7.64,7.64,0,0,1,1.16-.49l3.83-.58,5.37,1.9,1.11-.77,1.27.92-.73-.86,2.68.44-3.07-.66c6.31.08,6.31.08,8.83-.05a46.36,46.36,0,0,0,5.13-.32,1,1,0,0,1-.25-.47c6.75.09,6.75.05,13.33.26.62.17,1.1.36,1.56.53a9.3,9.3,0,0,1,3.18-.4l3.45.06.73-.14a.24.24,0,0,0,0-.07l2.9-.5.6-.12h0l12.55-2.15c2,.05,3.94.14,5.74.26l-1.68-.35c-1.08-.26-.12-1.06-.71-1.12C8,28.62.46,28.25-7.22,28c-3.84-.13-7.71-.25-11.59-.34l-11.65-.19c-2.77.2-5.4-.16-5.83-.77s1.58-1.29,4.42-1.48c3.9-.67,7.93-1.28,12-1.82s8.31-.93,12.57-1.3c8.53-.72,17.31-1.2,26.12-1.41a456.16,456.16,0,0,1,51.52,1.92l25.61,1-1.23-.4,6.65.62.72,0-5-1.44-3.49-.42c-19.88-.47-37.94-2.63-57.19-3.62-10.34-.58-19.25-1.81-29-2.5-2.52,0-4.28-.47-4-1.06s2.62-1,5.08-1c8.15-.52,16.6-.78,25.09-.9s17-.16,25.37.14c16.67.6,32.52,1.85,45.57,4.38a96.67,96.67,0,0,1,16.43,1.35l.27,0-3.66-1.2c4.45.32,6.82,1.28,10.87,1.74-.46-.55-1-1.1-1.49-1.64,11,.65,22.4.94,33.61,1.4s22.21,1.29,32.33,2.69c.81.05,1.57.12,2.33.2a218.44,218.44,0,0,1,28-1.46l-10.44-.88a223.68,223.68,0,0,1,23.11-.29,313.77,313.77,0,0,1,32.65,3.37c10.21,1.66,19.09,3.89,24.73,6.3,42.22,1.87,84.45,4.6,126.55,7.46,2.18.14,4.09.67,4.43,1.18.18.49-1.29.82-3.47.67L398,37.37c-7.61-.3-15.23-.76-22.87-1-15.28-.63-30.6-1.48-45.95-2,6.38.65,12.78,1.22,19.19,1.92l19.26,2c12.88,1.24,25.83,2.68,38.91,3.89l10.08.67c3.33.25,6.61.71,9.88,1.22l24.81,2.46,24.54,2.6,24.67,2.53c8.29.85,16.68,1.62,25.22,2.35,29.15,2.59,54.46,4.93,83.06,6.92C649,63.6,685,65.09,723.38,66.26a38.68,38.68,0,0,1,6.89.64c1.89.38,3.21.93,3.5,1.55.6,1.22-3.13,2.32-8.28,2.35-40.31.79-81-1.26-122.48-4.84-20.75-1.79-41.71-3.93-63-6.24l-32.16-3.51-32.58-3.73c-9.44-1.06-18.72-2.2-28-3.19a1,1,0,0,1,.18.52c-.07.66-1,1.19-2.54,1.56,5.24.58,10.5,1.25,15.76,2l15.83,2.18,11.12.67,11.14.82c7.44.57,14.9,1.17,22.43,1.84,15,1.4,30.22,3.21,45.76,5.58,21.33,3.29,40.41,7.19,59.92,10.75,6.25.54,12.49,1,18.73,1.43s12.46.84,18.69,1.15c12.46.73,24.91,1.18,37.4,1.57a4.86,4.86,0,0,1,2.38.39c.34.25-.21.47-1.22.5-17.25.61-35,.33-53-.43,2.74,1,4.33,2.19,4,3.25s-2.62,1.88-6,2.26l12.2,1.26c2.51.27,4.45.87,4.33,1.42s-2.15.86-4.54.63C643.21,87,626.63,85.07,610,83c-20-1.78-40-3.87-60-6,2.68,1.1,4.6,2.27,5.45,3.41v0l9.27,1.12c56.95,4.2,114.77,9.82,172.87,11,1.14,0,2.08.24,2.1.5s-.87.46-1.89.43c-17.57-.36-35.09-1.12-52.58-2.13h.07c.69.21.81.5,0,.64a8.19,8.19,0,0,1-2.74-.19c-.8-.24-.7-.52,0-.64-32.59-1.91-65-4.71-97.18-7.19,29.72,3.52,59.39,6.87,89,9.75l9.82-.22a5.67,5.67,0,0,1,2.4.5c.24.23-.43.45-1.36.45l-2.74,0c5.61.53,9.88,1.83,9.71,3.18C691.83,99,686.9,99.82,681,99.3c-15.73-.87-31.38-2.23-47-3.87l-5.1-.31-5.16.06c24.21,3.32,48.44,6.24,72.66,8.38,2.08.13,3.84.58,3.86,1.06s-1.69.82-3.79.69c-42.94-.6-86.26-4.65-129.41-9.38l-43.45.66c1.81.27,3.64.52,5.47.75,23.31,3,45.14,4.4,66.86,5.46s43.31,1.8,66.25,3.22a3.56,3.56,0,0,1,2.22.58c.1.25-.7.43-1.86.33-22.43-1.19-43-1.51-65.19-2.85-18.4-1.09-35.84-2.31-52.89-2.94,34.53,3.89,68.12,5.83,102.82,8.14a13.8,13.8,0,0,1,4,.65,1.39,1.39,0,0,1,.88-.25c4.39-.21,9.16-.29,14-.25a5.55,5.55,0,0,1,2.56.47C669.24,110.15,668.66,110.34,667.62,110.39ZM65.06,39l-.87-.28,3.07.47,4.28,1.91ZM11.7,47h0L9.25,46ZM354,38.46c-9.19-.76-18.34-1.44-27.45-2.32s-18.18-1.93-27.24-3c4.45.14,8.89.26,13.33.46l20.66,2.31,10.34,1.21ZM29,32.16a85.35,85.35,0,0,1,12.25,3.32c3.19-.29,6.51-.43,9.89-.44,9.06,0,17.89.25,26.58.53-1.13-.68,1-.61,2-.7L83,34.68c-9.27-.42-18.58-.89-28.05-1.4C46.42,32.91,37.15,32.78,29,32.16Zm-64.68,4.53c-.26-.08-.5-.15-.8-.22l1.69-1.09Zm-2.66,1.83,1.33.09A.91.91,0,0,1-38.33,38.52Zm12.22.82a9,9,0,0,0-1.75-.48Zm9.64,29.73,4.54-5.25-5,5.06Z" transform="translate(237.65 49.27)"/><path class="a" d="M575.15,167.65l-2-.45a18.4,18.4,0,0,1,5.33-.37c-21.09-3.42-48.64,0-66.31,4.83-6.44.06-12.13,1.47-12.69,3.2s4.25,3.08,10.75,3c1.44.16,3.11.24,4.15.49,9.34,2.32,20.7,3.74,33.22,4.67l-7.36-1.25a100.56,100.56,0,0,0,11.2.49c-.43-.3-1-.59-1.42-.89,12.48,1.83,29.41.4,37.85-3.15s5.28-7.91-7.18-9.73Z" transform="translate(237.65 49.27)"/><path class="a" d="M551.71,158.59c7.45.86,14.6,1.79,21.77,2.77l1.42.53-.56-2.61-.14.18c-6.59,2.43-17.54,3.73-27.67,4.69l-3.6.51c-1.72.4-2.86,1-3.2,1.51-.8,1.29,2.4,2.36,7.13,2.41l5.46,0c13.31,1,34.16.34,41.39-4.35,1.62-1.09.12-2.34-.28-3.52.44-1.75-4.6-3.09-11.22-3s-12.28,1.63-12.67,3.39l-3.41-.24,2.64-.72c-1.82,1.58-7.84,2.13-12.31,3.1l-6.72.65,4,3.93,3.49-.66a7.1,7.1,0,0,1-.76-.42c6.64-1.35,12.87-2.67,20.15-3.65l9.14-1.81c2.46-.86,2.18-2-.57-2.61L581,158l1.86.45c-9.43-.58-19.36-.76-28.69-1.4a8.34,8.34,0,0,0-4,.52C549.53,158,550.18,158.46,551.71,158.59Z" transform="translate(237.65 49.27)"/><path class="a" d="M584.86,156.86a20.14,20.14,0,0,0,5.18.38l.92-.36-3-.59C585.8,155.87,584.71,156.29,584.86,156.86Z" transform="translate(237.65 49.27)"/><path class="a" d="M591,156.88l1.25.25-.85-.35-.24,0Z" transform="translate(237.65 49.27)"/><path class="a" d="M178.16,167.67c-14.69-1-29.41-2.33-44.15-3.52s-29.47-2.67-44.21-4.05c-1-.09-1.84,0-1.91.28s.68.5,1.6.57c14.75,1.39,29.47,3,44.17,4.09s29.39,2.57,44.08,3.53a3,3,0,0,0,2-.33C179.76,168,179.08,167.74,178.16,167.67Z" transform="translate(237.65 49.27)"/><path class="a" d="M-38.23,121.6c.72-.09.74-.35,0-.64a5.72,5.72,0,0,0-2.39-.35c-.6.08-.63.39,0,.64A5.82,5.82,0,0,0-38.23,121.6Z" transform="translate(237.65 49.27)"/><path class="a" d="M-29,103a106.35,106.35,0,0,0,11.41.24,6.1,6.1,0,0,1,1.87.31c-.18-.44.64-.69,2.11-.64l22,.78q11.14.45,22.48,1.14c7.53.54,15.16.75,22.78,1.12l22.84,1a2.75,2.75,0,0,1,1.36-.81c2.18-.76,6.43-1,10.77-.44l3.27.52,19.85,2.43,9.91,1.21c3.31.4,6.62.71,9.92,1.08a67.18,67.18,0,0,1,9.33-.3c5.78-.27,11.55-.54,17.35-.75l17.55-.67c-.73-.31-1.16-.66-1.14-1,.27-.86,3-1.39,6.2-1.22l4.8.15-13.74-1.28a15.56,15.56,0,0,1-1.83-.22c-5-.21-10.1-.59-15.28-.8-45.15-1.62-87.62-2.27-130-3.44a5.61,5.61,0,0,1-2.36-.39c-.38-.26-.27-.54.51-.56,3.36-.13,6.67-.29,9.93-.46l4.88-.28c1.62-.1,3.24-.26,4.85-.39l19.32-1.64c6.48-.52,13-1,19.87-1.31s13.93-.79,21.44-.91c35.73-.41,71-1.62,107.51-2.38,9.55.26,18.92.39,28.22.43,4.65,0,9.27,0,13.9,0l13.88-.31,27.94-.82,28.72-1.19c52.78-2.2,102.76-3.59,154.72-5.31,19.44-1.28,37.41,1.81,40.12,6.83,1.57,3.07-2.74,6.18-10.71,8.44l4.77-.09,7.57.36c7.16.38,13.3,1.45,17.21,3.06l5.36,2c7.18,3.87,18.71,6.9,24.62,11l-1.23,1.66,1.38.42c4.54,1,7.63,2.46,8.73,4.08l-.36,2c-.86,2.27-3,4.46-6.58,6.57a2.67,2.67,0,0,1-1.17,2.45c3.16,1.9,4.7,3.95,2.34,6.36,1.87.51,1.6,1.37-.6,1.94a14.8,14.8,0,0,1-2.6.4h0a27.7,27.7,0,0,0,2.74,1.14l2.92.19,9.18.35a31.45,31.45,0,0,1,6,1.44c4.18,3.35,4.18,3.35,3.6,4.88a7.83,7.83,0,0,1-.77.46c3.26.39,3.49.42,4.37.54a10.21,10.21,0,0,1,1.56.53c.17.81.17.81.74,1.08a1.07,1.07,0,0,1,.16.61c-1.78,1-1.78,1-1.82,1.22a6.94,6.94,0,0,1-1,.48l-3.31.55-4.63-1.94-1,.76-1.09-.93.63.86-2.32-.45,2.66.68a75.24,75.24,0,0,0-7.63,0,34.4,34.4,0,0,0-4.43.28,1.06,1.06,0,0,1,.22.47c-5.83-.13-5.83-.13-11.51-.31a12.73,12.73,0,0,1-1.35-.53,6.8,6.8,0,0,1-2.74.41l-3-.05-.64.15a.28.28,0,0,1,0,.06l-2.49.5-.52.12h0L540.73,159c-1.76-.05-3.41-.14-5-.25.5.11,1,.22,1.45.35.94.25.12,1.05.63,1.11,12.5,1.24,26.06,1.43,39.44,1.83,2.39-.18,4.65.2,5,.82s-1.35,1.27-3.8,1.44a282.35,282.35,0,0,1-43.68,4.5c-7.59.24-15.21.24-22.68,0s-14.81-.67-21.8-1.29q-11-.27-22.14-.41l1.07.36-5.76-.45h-.62l4.38,1.31,3,.33c17.17,0,32.82,1.82,49.42,2.67,8.93.46,16.62,1.55,25.06,2.27,2.18,0,3.69.46,3.46,1s-2.24,1-4.36,1c-28,2-60.18,2.07-82.84-2.17a71.87,71.87,0,0,1-14.24-.94h-.23l3.2,1.11c-3.85-.2-5.93-1.13-9.44-1.45.41.53.92,1,1.33,1.58-19-.47-39.53.26-57.14-1.73-.71,0-1.37-.07-2-.11a173.67,173.67,0,0,1-24.21,2.61l9.07.43a167.61,167.61,0,0,1-20,1.28,213,213,0,0,1-28.44-1.84c-8.92-1.18-16.72-2.87-21.7-5-9.18.09-18.37,0-27.56,0s-18.37.09-27.57-.08c-18.39-.23-36.78-.25-55.17-.66-1.9,0-3.59-.43-3.9-.92s1.09-.89,3-.87q9.9-.19,19.85-.26l19.93-.32,20-.16c6.68,0,13.35-.2,20-.27l-16.74-.85-16.83-1-16.92-.88-8.51-.38-8.56-.46-8.79-.17c-2.91,0-5.79-.31-8.65-.63l-10.9-.49c-3.61-.17-7.21-.31-10.79-.56l-21.48-1.28-10.76-.57c-3.6-.18-7.21-.3-10.84-.56-7.26-.44-14.6-.82-22.08-1.12l-18.68-.73-18.08-1c-12-.68-24-1.06-36.74-2l-26.41-1.75c-2.17-.16-4.33-.27-6.48-.47l-6.45-.62-12.82-1.28c-8.54-.91-17.06-1.78-25.64-3s-17.18-2.68-26-4.24c-4.69-.69-8.85-2.33-9.17-3.63s3.25-1.81,8-1.12c73.68,9.54,146,13.36,222.54,18.62l24.47,1.71a1,1,0,0,1-.17-.51c0-.67.83-1.23,2.15-1.69-9.17-.69-18.4-1.55-27.65-2.46-6.47-.07-12.95,0-19.45-.22s-13-.44-19.61-.76-13.21-.69-19.91-1.18-13.46-1.35-20.32-2.22q-7.05-.92-13.79-2L37,145.48c-2.21-.35-4.41-.72-6.59-1.16-8.72-1.69-17.25-3.46-25.86-5.21-5.53-.53-11.07-.94-16.6-1.54l-16.59-1.86-16.64-1.89c-2.78-.33-5.56-.63-8.34-1l-8.34-1.22A4,4,0,0,1-64,131c-.28-.29.24-.44,1.15-.37l11.67.95,11.78.81c7.89.58,15.82,1.23,23.78,1.9-2.38-1.13-3.72-2.33-3.36-3.38s2.42-1.79,5.46-2.05l-10.68-1.69c-2.2-.37-3.87-1.07-3.72-1.61s2-.76,4-.43l10.88,1.7c1.81.27,3.62.58,5.44.83l5.45.72,21.79,2.86,13.13,1.2c4.37.39,8.76.63,13.14,1l26.29,1.94c-2.36-1-4.06-2.08-4.81-3.19v0l-8.11-.74c-49.69-1.86-100.58-7-151-17.3-1-.17-1.77-.52-1.74-.78s.84-.34,1.72-.16q11.43,2.19,22.86,4.2l11.42,2,5.7,1c1.91.32,3.82.55,5.73.82l-.06,0c-.59-.25-.66-.55,0-.63a6.16,6.16,0,0,1,2.4.34c.67.28.56.56,0,.63q10.68,1.45,21.32,2.77C-15.21,125-8.14,126-1,126.51s14.16,1.22,21.22,1.77,14.07,1.17,21.1,1.41c-6.5-.53-13-1.38-19.45-2.12L2.41,125.21-7.3,124l-9.66-1.5q-9.66-1.55-19.3-3.18l-8.62-.32a4.22,4.22,0,0,1-2-.65c-.18-.24.43-.42,1.24-.35l2.4.11a24.62,24.62,0,0,1-6-1.71c-1.47-.68-2.28-1.46-2.13-2.11.48-1.27,4.83-1.67,9.88-.87l20.31,2.75,10.13,1.43c1.68.24,3.37.51,5.06.71l5.07.61,4.42.31,4.5-.08c-5.24-.81-10.48-1.56-15.7-2.42l-15.61-2.82-15.57-2.84c-5.18-1-10.36-1.85-15.49-3-1.77-.3-3.22-1-3.18-1.43s1.54-.62,3.32-.31c2.3.27,4.58.6,6.89.83l6.92.71,13.85,1.44,13.88,1.51,6.94.77,7,.61,27.92,2.58,7,.68,7,.54,14,1.08,18.71-1.2c3.13-.18,6.27-.45,9.42-.72l9.47-.78c-1.57-.16-3.16-.31-4.76-.44-10.14-.73-19.89-1.47-29.47-1.86-4.79-.2-9.53-.35-14.25-.46s-9.42-.16-14.08-.39c-18.68-.77-37.33-1-56.91-3.6-1-.08-1.76-.41-1.86-.67s.63-.39,1.62-.24C-5.87,109,11.86,108.94,30.93,110l5.89.3,5.84.17,11.49.28c7.59.16,15,.26,22.4.23-7.47-.62-14.87-1.11-22.24-1.53l-11-.57-5.51-.26-5.49-.37-22-1.47c-7.33-.55-14.72-.95-22.09-1.86a10.16,10.16,0,0,1-3.36-.77,1.14,1.14,0,0,1-.77.22c-3.77.1-7.85,0-12-.27a4,4,0,0,1-2.15-.58C-30.45,103.22-29.93,103.05-29,103Zm523.61,48.05.76.26-2.67-.41-3.75-1.82Zm46.09-8.65h0l2.16,1ZM244.14,163.16l6,.2,6,.16q6,.18,11.94.46c7.94.38,15.86.9,23.78,1.62l-11.6.16-18-1.18C256.2,164.15,250.18,163.75,244.14,163.16Zm281.76-5.74a66.25,66.25,0,0,1-10.66-3.18,78.58,78.58,0,0,1-8.54.54c-7.84.1-15.49.07-23-.06,1,.66-.81.63-1.72.74l-2.83.25c8,.24,16.1.53,24.3.87C510.83,156.88,518.85,156.89,525.9,157.42Zm55.85-4.57c.23.08.44.15.7.22L581,154.15Zm2.3-1.82-1.15-.1C583.3,150.54,583.67,150.66,584.05,151Zm-10.57-.91a7.78,7.78,0,0,0,1.51.5Zm-8.54-29.79L561,125.59l4.29-5.07Z" transform="translate(237.65 49.27)"/><path class="a" d="M-36.74,111.18c.92.16,1.83.35,2.72.52a33.76,33.76,0,0,1-7.3.18c28.68,4.19,66.46,1.67,90.8-2.53,8.79.15,16.59-1.1,17.43-2.8s-5.65-3.21-14.51-3.37c-1.95-.21-4.22-.35-5.63-.63-12.65-2.64-28.09-4.44-45.12-5.8l10,1.5c-4.93-.41-9.78-.84-15.26-.87.57.31,1.31.63,1.89.94-16.94-2.26-40.16-1.45-51.86,1.8s-7.61,7.71,9.33,10Z" transform="translate(237.65 49.27)"/><path class="a" d="M-5.14,121.07C-15.28,120-25,118.75-34.77,117.53l-1.92-.59.65,2.63.19-.17c9.13-2.2,24.18-3.09,38.05-3.72l5-.38c2.37-.34,3.94-.85,4.44-1.4,1.15-1.26-3.17-2.44-9.63-2.66L-5.49,111c-18.13-1.5-46.68-1.57-56.79,2.87-2.28,1-.29,2.33.2,3.53-.69,1.73,6.14,3.25,15.2,3.37s16.87-1.19,17.49-2.93l4.64.36c-1.19.22-2.42.41-3.63.62,2.56-1.51,10.82-1.85,17-2.65l9.22-.43-5.2-4.06-4.8.54c.36.17,1.07.43,1,.44-9.14,1.11-17.73,2.22-27.73,2.93l-12.58,1.48c-3.41.77-3.08,1.92.65,2.63l5.58.88c-.84-.19-1.68-.34-2.52-.52,12.87.92,26.44,1.46,39.17,2.43a15.5,15.5,0,0,0,5.52-.38C-2.19,121.72-3.06,121.25-5.14,121.07Z" transform="translate(237.65 49.27)"/><path class="a" d="M-50.56,121.61a36.27,36.27,0,0,0-7.06-.56l-1.27.32,4.07.7C-51.89,122.57-50.38,122.18-50.56,121.61Z" transform="translate(237.65 49.27)"/><path class="a" d="M-58.89,121.37l-1.7-.29,1.14.38.33,0Z" transform="translate(237.65 49.27)"/><path class="a" d="M503.22,113.91q59.71,1.29,119.76,1.86c1.34,0,2.46-.17,2.53-.42s-1-.45-2.21-.45c-40-.46-79.77-1.05-119.58-1.91a5,5,0,0,0-2.62.42C501,113.66,502,113.88,503.22,113.91Z" transform="translate(237.65 49.27)"/><path class="a" d="M801.5,138.92c-1,.2-.91.46.07.64a11,11,0,0,0,3.29,0c.79-.17.76-.48-.08-.64A10.58,10.58,0,0,0,801.5,138.92Z" transform="translate(237.65 49.27)"/><path class="a" d="M792.93,158.64c-5.58.36-10.88.78-15.61,1.46a11.41,11.41,0,0,1-2.62,0c.33.4-.74.77-2.75.94-39.68,3.37-82.36,4.72-124.39,6.51a3.91,3.91,0,0,1-1.78.95c-2.9,1-8.74,1.54-14.8,1.36l-4.57-.25c-18.46-.59-36.88-1.05-55.23-1.69a126.7,126.7,0,0,1-12.85.87c-15.88,1.26-31.8,2.45-48.08,3.37,1,.28,1.64.61,1.63,1-.31.87-4.08,1.52-8.48,1.49l-6.65.06q9.56.32,19.09.68c.92,0,1.77.07,2.54.15,7,0,14,0,21.2-.07,62.61-.77,121.48-4.08,179.89-7.9a10.42,10.42,0,0,1,3.31.09c.57.21.47.5-.6.61-36.82,4.39-68.67,10.15-110.3,13-49.55,3.44-98.46,6.32-149.25,8.54-53.09,0-102.22,2.1-156.38,3.66-73.15,2.13-142.25,2.48-213.82,2.68-26.81.7-51.38-3-54.85-8.08-2-3.12,4-6.08,15.07-8.08l-6.54-.07-10.37-.61c-9.81-.62-18.18-1.9-23.45-3.65L5,173.47c-9.66-4.1-25.3-7.55-33.2-11.85l1.78-1.61-1.87-.47c-6.17-1.19-10.33-2.73-11.76-4.39l.6-2c1.29-2.24,4.38-4.34,9.33-6.32-.18-.84.42-1.65,1.71-2.41-4.23-2-6.23-4.12-2.88-6.44-2.55-.58-2.13-1.43.9-1.92a27.24,27.24,0,0,1,3.59-.3h0c-1.4-.51-1.81-.66-3.69-1.23-2.53-.17-4-.3-4-.3-6.72-.35-6.72-.35-12.54-.68a55.65,55.65,0,0,1-8.11-1.65c-5.55-3.5-5.55-3.5-4.69-5a11,11,0,0,1,1.08-.43c-4.44-.51-4.75-.55-5.95-.7a18.2,18.2,0,0,1-2.11-.58c-.19-.82-.19-.82-1-1.11a.8.8,0,0,1-.19-.61c2.48-.9,2.48-.9,2.55-1.16a11.83,11.83,0,0,1,1.39-.44l4.55-.43,6.24,2.11,1.36-.73,1.45,1-.82-.89,3.15.54-3.6-.78c7.45.33,7.45.33,10.43.29a58.67,58.67,0,0,0,6.07-.12.9.9,0,0,1-.28-.47c8,.34,8,.34,15.73.72.72.2,1.29.39,1.82.58a12.58,12.58,0,0,1,3.77-.31l4.07.16.88-.13a.09.09,0,0,0,0-.06l3.44-.42.71-.1h0L9.88,121c2.41.11,4.65.25,6.77.42-.69-.13-1.34-.26-2-.4-1.26-.28-.11-1.06-.8-1.13-17-1.66-35.54-2.33-53.81-3.21-3.28.09-6.35-.37-6.83-1s1.91-1.23,5.27-1.31c37-4.18,82.5-3.61,120.54-.28q15,.61,30.19,1.09c-.49-.13-1-.25-1.45-.39l7.84.6.85,0L110.54,114c-1.37-.15-2.73-.29-4.12-.42-23.42-.59-44.67-2.79-67.3-4.2-12.16-.77-22.6-2.12-34.1-3.13-3-.08-5-.59-4.66-1.17s3.1-1,6-.88c38.36-1,82.15-.08,112.87,4.77a135.79,135.79,0,0,1,19.35,1.3l.31,0-4.31-1.19c5.23.3,8,1.28,12.8,1.69-.54-.54-1.22-1.07-1.76-1.62,25.84,1,53.78.55,77.7,2.89,1,0,1.86.09,2.76.15A322.53,322.53,0,0,1,259,109.87l-12.32-.52c8.87-.7,17.67-1.17,27.16-1.09,25.7.15,54.46,2.64,68.05,6.88,49.81-.51,99.69-.92,149.39-2,2.57-.07,4.88.27,5.33.75.27.47-1.43.94-4,1-35.64,1.67-71.81,2.56-108,3.31,30.28.83,60.72,1.62,91.75,1.79l11.92-.21c3.94-.07,7.85.06,11.75.26,39.65,0,77.27.29,117.72-.91,34.54-1,64.76-2.14,99.16-3.63,48.31-2.11,92.32-4.23,140.06-4.24,6.35-.15,12.23.74,13,2s-3.85,2.35-10.21,2.5c-99.56,3.8-197.3,8.39-301.38,7.79-11.23-.07-22.27-.13-33.26-.22a.83.83,0,0,1,.28.49c0,.67-1.05,1.29-2.8,1.81,12.47.16,25.05.43,37.66.79,35.09-1.41,70.22-2.81,107.62-2.09,25.69.52,48.94,2,72.7,3.3,30.1-.76,60.11-1.74,90.52-2.39a7.26,7.26,0,0,1,2.91.28c.44.24-.22.48-1.45.56-20.9,1.52-42.33,2.67-63.95,3.69,3.41.77,5.44,1.76,5.17,2.85s-2.92,2.13-7,2.84c4.9,0,9.8,0,14.7.08,3,0,5.41.48,5.33,1s-2.48,1-5.36,1q-30-.09-59.92-.24c-24,.61-47.84,1.14-71.84,1.59,3.32.75,5.77,1.66,6.94,2.69v0l11.11-.08C735.57,138.44,805,136.7,875,137.32c1.37,0,2.51.2,2.53.46s-1,.48-2.27.46q-31.68-.28-63.19,0h.08c.85.16,1,.45.08.63a11.33,11.33,0,0,1-3.29,0c-1-.18-.89-.47-.1-.63-39.12.43-78,1.51-116.31,3.08,35.63-.26,71.25-.42,106.83.08,3.88-.32,7.75-.65,11.69-1a7.76,7.76,0,0,1,2.9.33c.3.22-.48.48-1.58.54s-2.18.16-3.27.24c6.74.1,11.93,1.19,11.82,2.52-.37,1.38-6.16,2.43-13.16,2.38q-28.1.39-56.07.46l-6.06.24-6.09.65q43.56.8,86.82,1.87c2.47,0,4.59.38,4.64.85s-2,.88-4.43.9c-50.76,1.91-102.15,3.21-153.76,4.07-16.94,2.06-33.93,4.15-51.24,6.19,2.18,0,4.39.06,6.59.06,56.11,0,103.72-5.86,158-7.06a4.73,4.73,0,0,1,2.67.38c.15.24-.78.48-2.16.48-26.51.81-50.71,2.81-77,4.21-21.79,1.18-42.51,2.26-62.76,3.81,41.4-.56,81.1-3.1,122.11-4.24a18.44,18.44,0,0,1,4.74.26,1.78,1.78,0,0,1,1-.34c5.13-.66,10.72-1.13,16.43-1.52a7.58,7.58,0,0,1,3,.25C794.82,158.26,794.15,158.5,792.93,158.64ZM72.6,130.45l-1-.28,3.62.49,5.06,1.94S76.41,131.54,72.6,130.45ZM9.19,137.59h0L6.31,136.5C7.5,136.94,8.42,137.3,9.19,137.59Zm404.9-16.91c-21.78,0-43.33-.49-64.84-1.71l15.75-.32Q389.47,119.52,414.09,120.68Zm-384,2.43a115.26,115.26,0,0,1,14.42,3.55c3.77-.23,7.7-.32,11.69-.27,10.72.14,21.16.4,31.44.76-1.34-.68,1.13-.6,2.39-.68l3.86-.17c-11-.48-22-1-33.15-1.6C50.64,124.18,39.67,123.88,30.07,123.11Zm-76.57,2.62-.94-.25,2-1S-45.88,125-46.5,125.73Zm-3.23,1.73,1.57.14A1.22,1.22,0,0,1-49.73,127.46Zm14.41,1.29a14.1,14.1,0,0,0-2-.55Zm10.22,30.08,5.62-5.11-6.12,4.91Z" transform="translate(237.65 49.27)"/><path class="a" d="M580.46,240.05l-2.35-.64a26.3,26.3,0,0,1,6.37.13c-3.1-.67-6.34-1.25-9.66-1.74-1.66-.23-3.34-.49-5.05-.63s-3.44-.27-5.19-.38c-7-.41-14.13-.48-21.18-.3-3.52.1-7,.25-10.44.48s-6.8.67-10.06,1.08c-6.51.81-12.58,1.81-17.91,2.9a50.62,50.62,0,0,0-10.25.81c-2.77.59-4.65,1.39-5,2.25-.68,1.76,5.06,3,12.79,3.13,1.7.19,3.69.32,4.93.59,5.54,1.28,11.67,2.34,18.27,3.23l5,.64,2.58.31,2.6.35q5.25.7,10.77,1.3l-8.63-1.65c4.26.49,8.46,1,13.21,1.11-.49-.32-1.13-.65-1.62-1a111.37,111.37,0,0,0,11.75,1.34c4.09.29,8.31.28,12.34.37,8.08.07,15.64-.58,20.77-2,10.31-2.77,7.06-7.39-7.57-10.36Z" transform="translate(237.65 49.27)"/><path class="a" d="M553.05,229.36c8.91,1.31,17.47,2.5,25.94,4.26l1.66.66-.46-2.64-.17.16c-8.08,1.64-21.34,2.45-33.51,2.83l-4.35.3c-2.08.3-3.47.79-3.91,1.33-1,1.24,2.76,2.5,8.4,2.81l6.51.35c15.89,1.5,40.58,3.08,49.7-1,2-.93.39-2.31,0-3.53.71-1.7-5.19-3.5-13.14-4s-14.85.47-15.46,2.19c-1.33-.18-2.72-.39-4-.54,1.06-.2,2.13-.32,3.21-.49a8.19,8.19,0,0,1-2.55.82c-1.09.23-2.38.42-3.77.58-2.79.33-6,.56-8.67.91l-8.1.28,4.49,4.14,4.21-.46c-.32-.18-.93-.45-.88-.46,4-.49,7.91-1,11.91-1.4s8.06-.58,12.44-.73l11.07-.95c3-.63,2.81-1.79-.43-2.65L588.32,231l2.19.62c-5.62-.73-11.41-1.37-17.19-2-2.88-.37-5.79-.53-8.65-.8s-5.72-.52-8.53-.81a11.83,11.83,0,0,0-4.87.29C550.46,228.66,551.22,229.15,553.05,229.36Z" transform="translate(237.65 49.27)"/><path class="a" d="M593,230.21a28.69,28.69,0,0,0,6.17.86l1.13-.27-3.54-.87C594.24,229.31,592.9,229.63,593,230.21Z" transform="translate(237.65 49.27)"/><path class="a" d="M600.33,230.8l1.47.37-1-.43h-.3Z" transform="translate(237.65 49.27)"/><path class="a" d="M98.31,259.47l-13.67-.05c-4.56,0-9.1.05-13.69-.12l-27.47-.64-6.87-.15c-2.29-.06-4.59-.21-6.88-.31L16,257.54,2.18,256.9c-2.3-.12-4.59-.19-6.89-.34l-6.89-.47c-1.24-.08-2.28.05-2.36.3s.87.5,2,.56c9.21.71,18.38,1,27.56,1.48l13.76.66c2.29.11,4.59.24,6.88.32l6.85.15,27.42.65c4.58.17,9.12.1,13.68.13l13.67.06a4.43,4.43,0,0,0,2.4-.46C100.32,259.68,99.46,259.48,98.31,259.47Z" transform="translate(237.65 49.27)"/><path class="a" d="M-170.34,213.08c.88,0,.9-.29.06-.64a8.62,8.62,0,0,0-2.92-.56c-.73,0-.77.34-.05.64A8.55,8.55,0,0,0-170.34,213.08Z" transform="translate(237.65 49.27)"/><path class="a" d="M-159.1,195.16c4.95.53,9.66,1,13.91,1a9.33,9.33,0,0,1,2.29.41c-.22-.44.78-.65,2.57-.52,35.24,2.63,72.84,6,110,6.93a3.39,3.39,0,0,1,1.63-.83c2.63-.84,7.79-1,13.1-.47l4,.47c4.05.36,8.1.77,12.15,1.07l12.17.8L37,205.73a100.65,100.65,0,0,1,11.38-.81c7-.59,14.06-1.17,21.13-1.7l5.3-.4,5.34-.51,10.74-.94c-.91-.26-1.47-.58-1.46-1,.26-.88,3.58-1.59,7.47-1.63l5.87-.17-16.87-.36a22.15,22.15,0,0,1-2.25-.11l-9.3.17-9.4,0q-10.33.09-20.52.3l-5.09.11-2.54.06H24.19q-10,0-20,.15l-5,.06-4.94,0-9.87,0c-26.24-.28-52.1-.89-77.89-2.37a8,8,0,0,1-2.89-.47c-.46-.27-.34-.55.61-.54,16.38-.05,31.66-.88,47.38-1.83s31.87-1.9,50.07-2.51l32.42-1.39c2.68-.07,5.39-.29,8.1-.46l8.11-.53,16.22-1,8.13-.5,8.16-.67,16.38-1.29,8.22-.62,4.12-.31,4.14-.39,16.65-1.51c46.74-1.86,90.11-7.07,138.34-12.28,16.31-1.79,32.39-3.44,48.48-5,8-.77,16-1.55,24-2.24l24-2c4-.33,8-.68,12-1l12-.85,24.1-1.64,24.32-1.29c8.13-.42,16.26-.88,24.52-1.09,6.17-.36,12.22-.45,17.87-.29,2.82.08,5.55.21,8.14.41s5.05.44,7.36.81c9.21,1.38,15.7,3.53,17.32,6.08,1.88,3.11-3.68,6.1-13.76,8.19l6,0,9.51.54c4.5.27,8.66.71,12.3,1.3,1.83.3,3.52.61,5.05,1a40.24,40.24,0,0,1,4.14,1.29l6.63,2.28c4.4,2.13,10.15,4.12,15.67,6.13,2.76,1,5.46,2,7.91,3.06a36.84,36.84,0,0,1,6.42,3.28l-1.66,1.53,1.67.56c5.56,1.45,9.25,3.18,10.48,4.89l-.63,1.93c-1.26,2.18-4.13,4.15-8.64,5.92.12.84-.44,1.62-1.62,2.33,3.72,2.2,5.41,4.38,2.34,6.56,2.25.69,1.84,1.52-.88,1.88a22.75,22.75,0,0,1-3.2.15h0c1.22.57,1.59.74,3.24,1.39l3.53.47,11.1,1.22a44.38,44.38,0,0,1,7.11,2c4.71,3.73,4.7,3.73,3.86,5.2-.3.14-.63.27-1,.39,3.88.69,4.15.74,5.2.95a14,14,0,0,1,1.82.67c.12.82.12.82.77,1.14a.91.91,0,0,1,.12.62c-2.24.8-2.23.8-2.31,1.05a9,9,0,0,1-1.25.38l-4,.24-5.37-2.37-1.23.66L593,228l.68.92-2.75-.67,3.13.93c-6.53-.64-6.54-.64-9.16-.74a44.08,44.08,0,0,0-5.34-.13,1,1,0,0,1,.22.48c-7-.65-7-.77-13.82-1.24-.63-.21-1.13-.41-1.59-.61a9.68,9.68,0,0,1-3.34.25l-3.59-.22-.77.11a.24.24,0,0,0,0,.07l-3,.36-.63.09,0,0-13.15,1.56c-2.12-.14-4.1-.32-6-.52.6.14,1.18.28,1.74.43,1.11.3.09,1.06.7,1.14,7.48,1,15.29,1.69,23.23,2.32l12,.91,12,1.23c2.88,0,5.54.63,5.93,1.29s-1.73,1.14-4.66,1.08q-6.11.48-12.49.74c-4.25.2-8.62.51-13,.65-8.82.33-17.87.35-27,.22-18.24.16-36.55-.9-53.42-1.88l-13.32-.18-6.68-.06-6.72,0,1.3.34-7-.27h-.75l5.31,1.17,3.66.24c2.6-.07,5.16-.06,7.69,0s5.05.11,7.54.2c5,.16,9.9.39,14.79.64l7.33.4,3.66.2,3.65.28c4.87.37,9.76.74,14.73,1,5.34.34,10.29.83,15.17,1.35l3.65.39,3.64.48c2.43.33,4.87.65,7.38.94,2.58.13,4.35.67,4,1.25s-2.72.9-5.23.78l-6.31.05h-3.19l-3.23.08c-4.31.09-8.66.15-13,.18s-8.74,0-13.09-.05-8.69-.17-13-.18a444.45,444.45,0,0,1-47.32-2.9,105.16,105.16,0,0,1-17.16-.48h-.28l3.87,1c-4.64-.06-7.15-1-11.42-1.12.52.51,1.14,1,1.66,1.52-11.48.2-23.42.79-35.15,1.2s-23.33.86-34.06.43c-.86,0-1.67,0-2.47,0a267.46,267.46,0,0,1-29.23,4.57l11-.31c-7.87,1.29-15.69,2.35-24.18,2.92-11.52.81-23.78,1.08-34.72.74s-20.63-1.34-26.89-3c-44.8,3.75-90,7-135.35,9.29-2.35.11-4.46-.19-4.89-.66-.25-.47,1.28-1,3.63-1.08l48.9-3.85c16.3-1.44,32.72-2.61,49-4.15-13.67.55-27.46.84-41.31,1.28l-10.4.34c-3.47.12-7,.15-10.46.25q-10.49.24-21.06.58c-3.6.19-7.2.45-10.83.59s-7.16.08-10.72,0l-26.83.46-26.64-.11c-4.44,0-8.88,0-13.34,0l-13.47-.28L7.22,253.1l-6.88,0c-2.3,0-4.61,0-6.94-.1-31.76-.64-59.56-2-91.21-4.53-22.21-1.79-43.44-4-64.5-7.08s-41.95-6.89-63.44-12c-5.76-1.19-10.81-3.43-11.19-4.77s4-1.4,9.74-.16a1290.28,1290.28,0,0,0,135.74,19q34.21,3,69,4.66c5.8.32,11.62.48,17.45.76s11.68.29,17.54.47c11.73.28,23.54.84,35.4.83l15.25.18,7.56.1,3.77.05,3.75,0a.94.94,0,0,1-.26-.49c0-.67.94-1.3,2.53-1.85-5.66.08-11.37-.12-17.09-.27l-17.2-.56c-4,.14-8,.36-12,.42l-12.06.09q-12.07.08-24.3,0c-16.32-.36-32.91-1.33-49.92-3.21-23.37-2.65-44.32-6.62-65.58-11.07-3.41-.38-6.82-.8-10.23-1.24L-138.1,231c-6.8-1-13.62-1.84-20.42-2.91-13.63-2-27.24-4.38-40.9-7a6.09,6.09,0,0,1-2.54-.85c-.34-.32.3-.42,1.41-.26,19,2.6,38.39,5.21,58,7.46-2.93-1.28-4.58-2.56-4.15-3.59s3-1.66,6.69-1.75c-4.37-.79-8.75-1.5-13.12-2.34-2.69-.53-4.74-1.35-4.56-1.88s2.39-.63,5-.14q26.72,4.86,53.55,8.53c21.59,2.21,43.13,3.92,64.8,5.13-3-1-5.08-2.07-6-3.18v0c-3.34-.25-6.67-.47-10-.77a854.19,854.19,0,0,1-185.09-27.26c-1.21-.3-2.15-.74-2.11-1s1-.23,2.11.06q27.71,7.33,55.73,12.69l-.07,0c-.72-.31-.8-.62,0-.64a9.87,9.87,0,0,1,2.93.56c.83.35.69.61,0,.64a858.92,858.92,0,0,0,104.27,13q-24-2.43-47.84-5.94t-47.42-8.48l-10.53-1.09A6.12,6.12,0,0,1-181,209c-.22-.26.53-.38,1.51-.23l2.94.34c-5.94-1.29-10.3-3.35-9.92-4.62.61-1.3,5.9-1.2,12.06,0q24.82,4.59,49.66,8.32l5.41.6,5.5.15c-25.71-4.23-51.16-9.55-76.26-15.59-2.17-.43-3.92-1.25-3.87-1.71s1.88-.47,4.06,0c44.79,7.61,90.34,13.39,136.23,16.78,7.61-.28,15.23-.74,22.86-1.16s15.3-1,23-1.63c-1.92-.15-3.87-.28-5.83-.39-24.82-1.47-47.83-2.18-70.71-3.29s-45.62-2.75-69.56-6.51a3.82,3.82,0,0,1-2.27-.8c-.09-.26.76-.35,2-.13,23.4,3.43,45,4.73,68.36,6.16,19.34,1.18,37.75,1.88,55.73,1.66-36.56-2.18-71.82-3.91-108-8.82a14.83,14.83,0,0,1-4.1-1,1.46,1.46,0,0,1-.94.18c-4.61-.09-9.57-.57-14.65-1.08a6.05,6.05,0,0,1-2.62-.74C-160.82,195.24-160.19,195.11-159.1,195.16Zm643.23,25.1.92.26-3.24-.39-4.55-1.8Zm56.45-7.65h0l2.58,1.14ZM179.09,249.45l14.74-.73q7.33-.39,14.66-.67c9.75-.39,19.51-.55,29.21-.69-4.72.46-9.42.91-14.15,1.32l-22.17.52-11.12.2ZM522,227.05a93.73,93.73,0,0,1-12.8-3.44c-3.34.26-6.83.37-10.37.35-2.37,0-4.74,0-7.09,0l-7,0q-7,0-13.84,0c1.21.65-1,.64-2.1.75l-3.43.27c9.76.19,19.55.44,29.49.72C503.77,226.11,513.48,226.36,522,227.05Zm67.68-1.13.81.29-1.85.93Zm2.94-1.59-1.38-.21A1,1,0,0,1,592.6,224.33Zm-12.67-1.91a10.87,10.87,0,0,0,1.78.64Zm-8.07-30.49-5.24,5,5.69-4.8Z" transform="translate(237.65 49.27)"/></svg>