<svg xmlns="http://www.w3.org/2000/svg" viewBox="0 0 261.86 189.15"><defs><style>.a{fill:#1d1d1d;}</style></defs><path class="a" d="M76.84,13.11l4.43.91c-2.88-.25-7.14-.87-12-1.66A660.82,660.82,0,0,0,146.5,22.5c13.27,1,26.35,1.55,38.62,1.89s23.74.22,33.81-.08c3.62.1,7.15.16,10.42.16s6.29-.1,8.9-.2c5.21-.18,8.78-.58,9.47-1,1.35-.85-9.32-1.55-23.91-1.93-3.21-.17-7-.32-9.28-.52-20.79-1.92-46.11-4.14-73.95-7.37,5.35.75,10.94,1.44,16.31,2.15l-12.15-1.31c-4.11-.43-8.34-.93-12.83-1.36l3.06.77c-13.82-1.89-30.2-3.93-45.52-5.88S59.86,4.16,50.22,3.32s-12.94-.46-10.36.93A44.73,44.73,0,0,0,48.05,7q3.11.84,7.26,1.81c2.76.61,5.87,1.26,9.31,2C68.68,11.57,72.76,12.33,76.84,13.11Z" transform="translate(-1.48 -2.89)"/><path class="a" d="M128.24,24.47c-16.71-2.28-32.68-4.86-48.61-7.74L76.51,16l.87,1.45.33,0c15.16,1.12,40,3.81,62.91,5.56l8.18.52a40.34,40.34,0,0,0,7.39-.09c2-.47-5.13-1.63-15.76-2.67l-12.26-1.3c-14.89-1.9-34-4.41-51.51-6.81s-33.33-4.55-41.77-5c-3.81-.18-.67,1.06,0,1.8-1.28.65,9.73,3.47,24.59,5.91,3.72.59,7.31,1.16,10.64,1.58s6.37.76,9,1c5.23.52,8.75.55,9.32.2l7.61,1.2-6-.49c4.32-.16,17.94,1.42,28.12,2.1,5.07.49,10.14,1,15.22,1.37-2.79-1-5.59-1.88-8.37-2.88l-7.93-.59c.59.15,1.74.41,1.64.4C103.62,18.1,89.42,16.89,73,14.78c-3.46-.36-6.91-.79-10.36-1.22s-6.92-.82-10.36-1.29c-5.64-.58-5.2.08.84,1.48l9.09,1.89-4.1-.91c21,3.86,43.35,7.12,64.34,9.84a72,72,0,0,0,9.15.74C133.09,25.26,131.67,24.89,128.24,24.47Z" transform="translate(-1.48 -2.89)"/><path class="a" d="M53.39,14.76C50,14,46.75,13.3,41.87,12.51l-2.1-.2,6.61,1.48C51.14,14.86,53.64,15.09,53.39,14.76Z" transform="translate(-1.48 -2.89)"/><path class="a" d="M39.77,12.31,37,11.66l1.83.53.55.08Z" transform="translate(-1.48 -2.89)"/><path class="a" d="M80.47,114.85l144.11,6.88.47,31q-28.11,1.95-56.3,4.52a21.25,21.25,0,0,0-4.19.62,15.18,15.18,0,0,0,3.7-.13c19-1.74,38-3.26,56.82-4.56l-.48-31.91L81.34,114.43a26.6,26.6,0,0,0-4.42,0A13,13,0,0,0,80.47,114.85Z" transform="translate(-1.48 -2.89)"/><path class="a" d="M138.65,161.44c-1.56-.4-1.55-.26,0,.34,1.34.5,3.75,1.33,5.28,1.76,1.3.35,1.31.19,0-.34A47.29,47.29,0,0,0,138.65,161.44Z" transform="translate(-1.48 -2.89)"/><path class="a" d="M122.18,166.86a141.68,141.68,0,0,0-24.94-3.6c-1.43-.07-3-.22-4.22-.38.26.13,0,.2-.82.22s-2,.05-3.66,0a306.39,306.39,0,0,0-41,2.21c-13.91,1.55-28,3.71-42.23,6.14L2.5,153.76c40.18-7,81.51-13,122.59-18a14,14,0,0,1,2.92-.79c4.82-1,14.59-2.35,24.76-3.28l7.68-.62q31.4-2.73,62.66-4.77l.34,22-30.13-1.57c-6.3,0-13.62-.2-21.57-.49-26.66-.51-53.4-1-80.73-1.76,1.72.21,2.75.43,2.72.61-.54.41-6.88.47-14.26.14l-11.16-.45,32,1.7c1.54.08,3,.17,4.26.26l35.57,1.49q42.22,1.63,83.16,3l-.42-27.82c-75,6.23-147,15.86-218,28.43-.75.15-1.72.31-2.67.46L5.53,173c1-.15,2.06-.28,2.81-.33.94,0,.8.13-1,.45l-1.78.33L2.19,151.78c30.11-5.84,58.34-11.09,87.7-15.89s59.83-9.15,94.46-12.91c12.76-1.4,25.51-2.65,38.24-3.86l.55,36.29c-58.72-1.35-117.25-2.84-177.28-4.55l-2.07-42.15c11.35-1.76,23.09-3.56,34.91-5.26C138,95.6,194.38,89,252.56,83.24l-1,45.08q-21.19-2.56-42.85-4.71t-44-3.68q-36.87-2.58-73-3.62t-71.89-.52L9,69.33a292,292,0,0,1,54.43-19.2,542.57,542.57,0,0,1,54.31-10.37c35.78-5.18,70.74-8.19,104.28-14.23,10.52-2,20.65-4.07,29.92-6.3l6.4,48.66c-15.8-.14-29.91-.78-40.6-1.75-5.34-.43-9.83-1-13.26-1.55a29.78,29.78,0,0,1-6.89-1.6c-1.69-.87.06-1.52,4.59-2.06s11.83-.87,21.23-1.2c-3.74-.1-7.43-.17-11.14-.3-5.88-.33-11.76-.56-17.62-1A388.26,388.26,0,0,1,155,54.24l-12.21-2.1c-8.07-1.73-18.66-3.7-28.82-5.8S94,42.05,87.55,40.08l3.07-.41L87.53,39c-2.56-.49-4.91-1-7-1.42s-4-.93-5.63-1.36a38.47,38.47,0,0,1-6.67-2.17l1.13-.82c2.33-.82,7.61-1,16-.92-.23-.45.82-.72,3-.81-6.9-1.93-10-3.44-4.35-3.83-4.18-.86-3.42-1.18,1.64-.75,1.74.15,3.83.38,6,.65h0c-2.28-.57-3-.73-6-1.43-2.08-.32-3.73-.58-4.85-.78l-1.73-.29L68,23.31,58.25,21.6c-4.11-.81-7.41-1.58-9.69-2.14L45,18.57c-8.82-3.28-8.8-3.34-7.27-3.81l1.8.11-9.67-2.12c-2-.51-3.41-.93-3.41-.93-.24-.45-.24-.45-1.46-.83-.37-.22-.25-.35-.25-.35,4.15.3,4.14.3,4.28.19,1,.06,2.32.2,2.32.2l7.47,1.16,10,2.79,2.28,0,2.3.88-1.27-.67,5.13,1.11c-2.93-.65-4.39-1-5.11-1.18L51.49,15c12.19,2.16,12.2,2.12,17.1,2.89,5.09.79,9.48,1.33,10,1.39-.41-.19-.42-.3-.42-.3,6.53,1.07,9.82,1.49,13,2s6.42,1,12.82,1.83c1.18.24,2.11.45,3,.65,1.24,0,3.7.27,6.23.59l6.73.81,1.45.09a0,0,0,0,0,0,0l5.7.41,1.18.06h.07c3.94.21,9.63.67,24.71,1.34,4,.41,7.7.7,11.21,1.05L161,27.32c-2.09-.29-.14-.54-1.28-.66C131.64,23.75,101.1,20,71.19,15.08c-5.38-.75-10.38-1.82-11.12-2.24s3.23-.11,8.73.72c14.48,1.68,29.73,3.37,45.42,4.94s31.83,2.91,48.06,4.09C194.75,25,227.6,26.29,258,26.77l4.25,32.28c-3.5.77-6.84,1.57-10.16,2.21C235,65,217.81,67.59,200.73,69.83l2.47-.16c-4.44.54-8.86,1-13.26,1.5l-1.43.17,10.09-.62,7-.78c19.47-2.66,38.26-5.66,56.88-10l-4.48-34c-18.67-.24-37.14-1-56.17-2.08-20.07-1.19-37.26-3-56.12-5.13-4.88-.43-8.22-1.06-7.62-1.28s5.15,0,9.9.44c35.61,2.81,74.15,4.33,110,4.48l5.4,41a424.57,424.57,0,0,1-42,7.82c-13.29,1.82-25.74,3.06-37.06,3.95-11.79,1.46-23.07,2.59-32.39,3.3l-.52,0,7.22-.28c-8.72.9-13.38,1-21.27,1.8l3,.43A600.19,600.19,0,0,0,80.74,90C61.38,94.22,43,99.93,27,107.07L19.35,74l8,.16,4.68,0c17.48-.6,35.17-.94,55.92-.37l-10.44-.43-10.46-.36c15.07-.08,30,.21,46.12,1C135,75.07,158,77,178.44,79.3s38.19,5.12,49.5,7.47l14.35,1.67,14.34,1.8L256,121.51c-69.21,6.33-138.3,14.45-206.87,24.56l-1.61-32.91,13,.48a58.55,58.55,0,0,1,8.92.75c.43.26-2.42.37-6.73.22l-15.26-.45,1.51,30.92c54-8.35,109-15.37,164.17-21.2C162.64,128.47,112,134.06,60.54,141.09l-11.92,1.73-1.29-26.38,7.92.3c6.62.24,13.16.59,19.7,1,50.6,2.17,99.24,4.32,149.54,6.24l.4,26.57q-23.49,1.84-47.57,4.24c-14.36,1.43-28.25,3-41.9,4.56S108.36,162.6,95,164.41C68.21,168,41.53,172,13.22,176.79L6.33,178l-4.85-30.7c19.65-3.32,39.12-6.08,58.92-7.49a278.85,278.85,0,0,1,30.1-.51A189,189,0,0,1,121.13,143a252.43,252.43,0,0,1,29,8.17c9.15,3.09,17.81,6.18,26.52,9s17.39,5.31,26.28,7.56,17.95,4.17,27.17,6c10.13,1.84,19.56,3.68,20.67,4.51.57.39-1,.44-4,.18s-7.5-.77-12.61-1.7c-9.33-1.53-18.54-3.38-27.67-5.49s-18.14-4.51-27.11-7.27-17.92-5.84-27.24-9a277.23,277.23,0,0,0-29.37-8.51,180.73,180.73,0,0,0-31.08-4,270.4,270.4,0,0,0-30.58.4C41,144.06,21.38,146.82,1.92,150l4,25.14c71.46-12,144.14-21,218.86-26.54l-.35-22.8-51.66-2.23L117,121.12c.23.1.45.19.45.27,0,.34-1.78.57-4.74.7l63.17,3.09,48.54,1.52.32,21.08c-42.66,3.6-85.83,8-130.92,13.35-31,3.62-59.81,7.31-88.32,11.31l-3.1-19.66c10.93-1.47,21.81-2.91,32.87-3.92,12.76-1.51,25.62-2.67,38.7-3,6.53-.19,13.13,0,19.75.31a198.51,198.51,0,0,1,19.92,2.29A197.8,197.8,0,0,1,133.12,153c6.39,1.8,12.57,3.88,18.62,6,12.12,4.16,23.82,8.25,35.8,11.63a37.32,37.32,0,0,1,4.54,1.46c.65.31-.41.13-2.35-.39-8.29-2.17-16.54-4.65-24.88-7.38s-16.81-5.65-25.65-8.34c-4.41-1.36-8.95-2.57-13.52-3.71-2.31-.5-4.61-1.06-6.94-1.5s-4.66-.93-7-1.23a193.93,193.93,0,0,0-28.29-2.2,55.38,55.38,0,0,1,6.87.91c1.55.32,2.29.62,2,.87s-1.53.48-3.61.61c-1,.08-2.29.1-3.7.18s-3,.16-4.74.22a192.25,192.25,0,0,1,25.3,1.78c5.2.75,9.22,1.74,9,2s-4.3-.3-9.22-1a194,194,0,0,0-25.66-1.75c-8.53,0-17,.23-25.49.9-16.91,1.21-33.64,3.4-50.28,6l-.77.12,1.42,8.94C44,160.55,83.37,155,123.09,150.32a81,81,0,0,1-11.72,0,0,0,0,0,1,0,0l-18.51,2.26q-44.05,6-88.4,13.52l-1.1-6.92c10.55-1.71,21.13-3.39,31.81-4.65s21.41-2.36,32.26-2.81a231.47,231.47,0,0,1,32.75.68,174.79,174.79,0,0,1,32.39,6.45c10.56,3.1,20.7,6.88,30.87,10.35s20.34,6.7,30.68,9.48,20.79,5.19,31.34,7.24c2.63.53,5.28,1,7.93,1.47l4,.73,4,.64,8,1.29,8,1.15a18.71,18.71,0,0,1,4.14.82,15.35,15.35,0,0,1-3.78-.31c-17.46-2.45-34.79-5.5-51.83-9.56-8.52-2-16.95-4.35-25.32-6.9s-16.64-5.38-24.95-8.29l.13,0c1.31.55,1.52.77,0,.34-1.3-.37-3.91-1.29-5.22-1.83-1.52-.62-1.32-.71,0-.35-11.69-4.08-23.72-8-36.16-10.28a167.45,167.45,0,0,0-18.73-2.42l-2.35-.18-2.35-.11-4.69-.21c-3.12-.05-6.25-.1-9.36-.07-12.46.15-24.8,1.14-37,2.51s-24.33,3.24-36.37,5.21l1,6c15.9-2.68,31.63-5.19,47.33-7.58Q28,161.41,4.31,165.18L3.49,160c21.71-3.38,43.55-6.25,65.64-7a215.28,215.28,0,0,1,33.17,1.29l4.14.53,4.11.68,2,.34,2.05.42,4.08.84c5.41,1.25,10.76,2.73,16,4.39,6.32,1.81,12.53,3.82,18.83,5.87a42.39,42.39,0,0,1,4.54,1.78c.44.26-.84,0-2.6-.63l-5.21-1.71c10.65,3.84,18.69,7.13,18.31,7.7-.4.22-2.94-.31-6.77-1.4s-8.93-2.78-14.47-4.73c-7.43-2.56-14.9-5-22.5-7a166.49,166.49,0,0,0-23.09-4.33,211.28,211.28,0,0,0-23.45-1.29c-2,0-3.92.06-5.88.09l-2.93.05-2.94.13-5.86.27-5.86.41c-3.38.25-6.75.62-10.12,1s-6.75.89-10.12,1.4c12.1-1.33,24.23-2.32,36.37-2.55a206.29,206.29,0,0,1,36.19,2.2A196,196,0,0,1,142.13,168c11.42,4,22.77,8.32,34.34,12,2,.61,3.82,1.23,5.15,1.72a7.07,7.07,0,0,1,2.2,1c0,.12-.8,0-2.13-.3s-3.14-.83-5.15-1.45c-7-2.12-14-4.42-21-6.79s-13.88-4.77-20.83-6.91A191.28,191.28,0,0,0,113.65,162a176.26,176.26,0,0,0-21.52-2.58c-7.25-.39-14.53-.38-21.83-.15-3.65.17-7.3.34-10.95.6l-5.49.43-2.74.21-2.74.28c-14.62,1.43-29.24,3.51-43.84,5.89l-1.28-8.09q39.9-6.58,80.36-11.92c28.14-4.59,56.45-8.76,85.37-12.51l-11.05,1C102.83,140.59,52.89,148.12,3,157l1.79,11.32c17.48-3.09,35.05-5.71,52.91-7.21s36-1.72,54.15,1.53a24.56,24.56,0,0,1,4.24,1c.21.16-1.29,0-3.5-.46-18.15-3.37-36.19-3-54-1.6S23,165.73,4.89,168.91l-2-12.59c6.17-1.07,12.51-2.2,18.93-3.25,36.19-6,70.73-11,104.55-15.53-42,4.8-82.88,10.83-123.63,17.79l2.3,14.57c13.05-2.19,26.14-4.17,39.28-5.62a318.6,318.6,0,0,1,39.49-2.17,74.36,74.36,0,0,1,7.7.46,6.66,6.66,0,0,1,1.65,0,144.34,144.34,0,0,1,26.38,3.28c.86.18,1.84.4,2.71.64s1.62.51,2.06.7C125.19,167.48,124.11,167.31,122.18,166.86Zm135-131.68-1.72-.13,2.58.09L260.15,51l-3.5.72-1.08.14c-1.08.14-3.24.44-7.56.9l3.64-.52c2.22-.34,5.23-.85,8.46-1.38l-2-15.52A4,4,0,0,0,257.21,35.18Zm-105.93-.32h.06l-4.81-1Zm12.61,93q46.16-5.13,91.86-8.58l.58-26.8-16.27-2.32,16.32,2-.6,27.48-10.05,1Q204.92,123.85,163.89,127.85ZM186.51,30c4.75.47,9,1,12.88,1.44s7.51.88,11,1.32l9.6.14,9.86.2,14.29.19,13.9.05,2.55,19.41c-8.34,2.06-16.38,3.75-24.37,5.24,2.31-.09-1.84.66-3.95,1.1s-4.33.84-6.49,1.26c11.58-1.88,23.2-4.09,35-6.93l-2.73-20.77c-6.75-.1-13.66-.11-20.62-.33C220.66,31.9,202.43,31.2,186.51,30ZM59.73,17.86l-1.52-.37,3.45,0Zm-5.45,0,2.57.48A6,6,0,0,1,54.28,17.87Zm23.63,4.28c-1.38-.34-2.22-.55-3.32-.77Zm15,17.23c3.24-.41,6.49-.91,9.72-1.37-3.51.4-7,.82-10.55,1.16Z" transform="translate(-1.48 -2.89)"/></svg>