<?xml version="1.0" encoding="utf-8"?>
<!-- Generator: Adobe Illustrator 24.2.0, SVG Export Plug-In . SVG Version: 6.00 Build 0)  -->
<svg version="1.1" id="Layer_1" xmlns="http://www.w3.org/2000/svg" xmlns:xlink="http://www.w3.org/1999/xlink" x="0px" y="0px"
	 viewBox="0 0 269.3 169.9" style="enable-background:new 0 0 269.3 169.9;" xml:space="preserve">
<style type="text/css">
	.st0{fill:none;}
	.st1{fill:none;stroke:#FFFFFF;stroke-width:0.5;stroke-miterlimit:10;}
	.st2{fill:none;stroke:#FFFFFF;stroke-miterlimit:10;}
	.st3{fill:#FFFFFF;stroke:#FFFFFF;stroke-miterlimit:10;}
	.st4{fill:#FFFFFF;stroke:#FFFFFF;stroke-width:0.5;stroke-miterlimit:10;}
</style>
<rect x="-184.1" y="376.4" class="st0" width="566.9" height="27.8"/>
<g>
	<path class="st1" d="M-69.7,132.6c-0.5,0.1-0.7,0.2-0.9,0.2c0.1,0.2,0.2,0.5,0.4,0.9C-70,133.3-69.9,133.1-69.7,132.6z"/>
	<path class="st1" d="M375.6,15.2c0.3,0.5,0,1.2,0.8,1.2c0.2-0.5,0.4-1,0.6-1.6c0.5,0.5,0.7,1.1,1.1,1.2c0.4,0.1,0.9-0.2,1.5-0.4
		c0.1,0.3,0.2,0.7,0.3,1.1c0.2,0,0.4,0,0.4-0.1c0.2-0.3,0.4-0.7,0.4-1c0-0.9,0.6-1.2,1.4-1.4c0,55.2,0,110.3,0,165.5
		c-0.6,0-1.1,0-1.7,0c-11.2,0-22.4-0.1-33.6,0.1c-5.3,0.1-10.6,0.4-15.9,0.7c-2.8,0.1-5.6,0.2-8.4,0.3c-5.1,0.1-10.2,0.4-15.3,0.4
		c-24.4,0-48.7,0-73.1,0c-12,0-24.1-0.2-36.1-0.4c-5-0.1-10.1-0.4-15.2-0.7c-0.3,0-0.6,0-0.8-0.1c-6.6-0.2-13.1-0.3-19.7-0.6
		c-10.6-0.4-21.3-0.2-31.9-0.2c-12.6-0.1-25.3,0-38-0.1c-5.5,0-11-0.4-16.4-1c-2.3-0.2-4.6-0.4-6.9-0.6c-4.4-0.4-8.8-0.8-13.2-1.1
		c-3.1-0.2-6.3-0.4-9.4-0.4c-21.9,0-43.8-0.1-65.8,0c-5.9,0-11.8,0.4-17.7,0.8c-4.1,0.3-8.1,0.8-12.1,1.2c-1.9,0.2-3.8,0.3-5.8,0.4
		c-4.3,0.1-8.5,0.3-12.8,0.3c-13.3,0.1-26.7,0-40.1,0.1c-3.7,0-7.3,0.3-11,0.2c-4.2-0.1-8.3-0.5-12.5-0.7c-5-0.2-10-0.4-15-0.6
		c-4.6-0.2-9.3-0.4-13.9-0.6c-1.3-0.1-2.6-0.1-3.9-0.1c-6.3,0-12.6,0-19,0c-0.5,0-1,0-1.6,0c0-12.6,0-25,0-37.5
		c0.4-0.1,0.7-0.1,1-0.2c0.2-0.1,0.6-0.1,0.6-0.2c0.2-1,1-0.8,1.6-1c0.5-0.2,1.1-0.6,1.6-0.8c0.4-0.2,0.9-0.6,1.4-0.6
		c0.7-0.1,1.4,0,2-0.3c0.3-0.1,0.8,0.1,1.3,0.2c0.5-0.8,1.3-0.8,2.1-0.6c1.1,0.2,2.4,0,3.2,1.1c0.3,0.5,0.7,0.3,1.2-0.6
		c0.1,0.1,0.2,0.3,0.3,0.4c0.5,0.8,1,0.9,1.5,0.3c0.5-0.6,1.1-0.7,1.7-0.6c1.9,0.1,3.9,0.2,6,0.4c0.6,0.9,1.4,1.5,2.7,1.4
		c0.1,0,0.3,0.1,0.4,0.1c0.4,1,1.1,0.7,1.9,0.6c1.1-0.2,1.5,0.2,1.4,1.2c0,0.6,0.4,1,0.8,1.2c1.1,0.6,1.9,1.3,2.3,2.5
		c0.2,0.8,0.8,0.9,1.7,0.7s1.8-0.4,2.7-0.1c0.5,0.2,1.2-0.1,1.8-0.3s1.2-0.4,1.9-0.1c0.3,0.2,0.7,0.2,1-0.2c0.2-0.2,0.6-0.2,1-0.3
		c0.5-1.3,0.6-1.4,2.1-1c0,0.3,0,0.7,0,1.4c0.4-0.4,0.9-0.6,0.9-0.9c0-0.7,0.4-1.1,0.9-1.5c0.2-0.1,0.5-0.3,0.6-0.3
		c0.9,0.4,1.5-0.1,2.2-0.4c0.5-0.2,1.1-0.2,1.6-0.3c0.7-0.1,1.5-0.2,2.2-0.2c0.2,0,0.5,0.1,0.7,0.2c0.7,0.4,1.4,0.9,2.1,1.3
		c0.5,0.3,1.1,0.7,1.7-0.1c0.2-0.3,1-0.2,1.7-0.3c0.3-0.4,0.6-0.9,1-1.4c1.4,0.4,0.9,1.5,1.2,2.4c0.4,0.2,0.8,0.4,1.2,0.6
		c1.5-0.6,2.2-1.9,2.8-3.2c1.1,0.6,0.7,1.9,1.5,2.5c0.7-0.5,0-1.3,0.4-1.9c0.5,0,1.1,0,1.7,0c0.2,0.6,0.4,1.2,0.6,1.8
		c1.2-0.4,0.8-1.4,1.1-2.1c1.5-0.3,1,1.3,1.8,1.8c0.4,0,0.6-0.9,1.3-0.4c0.1,0.1,0.6-0.5,1-0.9c0.4,0.4,0.8,0.9,1.4,1.5
		c0.3-0.6,0.6-1.1,0.9-1.7c1.1-0.1,2.3-0.4,3.3,0.7c0.4,0.4,0.9,0.5,1.5,0.2c0.8-0.4,1.7-0.6,2.6-0.9c0.3,0.5,0.5,0.9,0.7,1.4
		c0.3-0.6,0.6-1.1,1-1.8c0.2,0.6,0.3,0.9,0.5,1.1c0.2,0.6,0.4,1.2,1.2,1c0.2,0,0.5,0.2,0.7,0.3c0.4,0.2,0.8,0.4,1.2,0.6
		c0.3-1.3,0.5-2.5,0.8-3.6c0.1-0.4,0.4-0.8,0.7-1.1c0.8-0.8,0.8-0.8,1.6,0.1l0.1,0.1c1.5,0.3,1.7,1.7,2.2,2.8
		c0.5-0.1,0.6-0.4,0.5-0.8c-0.3-0.9,0.1-2,0.8-2.4c0.5-0.3,1.3-0.2,1.6,0.3c0.4,0.7,0.8,1.5,0.7,2.4c0,0.6,0,1.2,0.7,1.4
		c0.8-0.2,0.3-1.4,1.3-1.5c0.2,0.4,0.4,0.8,0.7,1.3c0.9-0.5,1.9-0.9,2.4-1.9c0.3-0.8,1.1-1.1,1.6-1.9c0.3,0.5,0.4,0.8,0.6,1.1
		c0.4,0,0.8,0.1,1.3,0.1c0.1,0.5,0.2,1,0.3,1.6c0.5-0.1,0.9-0.2,1.3-0.3c0.1-1.1,0.1-1.9,0.1-2.7c0.9-0.9,1.8-1.7,2.8-2.6
		c0.7,0.8,1.1,2,2.1,2.5c0.7-0.6-0.5-1.5,0.5-2c0.3,0.7,0.7,1.4,1,2.1c0.2,0.5,0.7,0.7,1.1,0.5c0.2-0.1,0.3-0.6,0.4-0.9
		c0.1-0.5,0.1-1,0.1-1.6c0.9,0.2,1.7,0.4,2.5,0.5c0.1,0.6,0.1,1.1,1,1.1c0.4,0,0.9,0.4,1.4,0.7c0.6-1.1,1.2-2.1,1.8-3.2
		c0.5-0.1,0.6,0.4,0.7,1c0.2,0.8,1.7,1.9,2.5,1.7c0.2,0,0.4-0.2,0.5-0.4c0.3-0.4,0.4-0.8,0.7-1.2c0.2-0.3,0.5-0.4,0.9-0.7
		c0.1,0.7,0.1,1.2,0.2,1.6c0.2,0.9,0.9,1.4,1.6,1.3c0.6-0.1,1.1-0.6,1.2-1.5c0.1-0.3,0.1-0.7,0.2-0.9c0.1-0.2,0.4-0.6,0.6-0.6
		c0.2,0,0.7,0.3,0.7,0.5c0.2,0.7,0.3,1.4,0.4,2.2c0,0.4-0.2,0.8-0.3,1.2c0.6,0.3,1,0.5,1.5,0.7c0.6-0.5,0.7-1.1,0.7-1.7
		c0-0.6,0-1.2,0-1.8c0-0.3,0.1-0.7,0.2-0.9c0.2-0.2,0.5-0.4,0.8-0.4c0.2,0,0.4,0.4,0.5,0.7c0.1,0.4,0,0.9,0.1,1.4
		c0,0.3,0.2,0.6,0.3,1c1-0.4,1.2-1.1,1.1-2c-0.1-0.7,0.2-1,1-0.8c0.5,0.7,0.4,1.5,0.3,2.3c0,1,0.3,1.9,0.8,2.6
		c0.2,0.3,0.6,0.6,0.9,0.6c0.3,0,0.8-0.4,0.9-0.7c0.4-0.9,0.7-1.8,1.1-2.7c0.1-0.4,0.4-0.7,0.7-1c0.2,1.2,0.5,2.3,1.4,3.1
		c0.5,0,1-0.2,0.8-0.7c-0.3-0.7,0.1-1.1,0.4-1.7c0.3-0.5,0.5-1.1,0.8-1.8c1,1.3-0.3,3.1,1.1,4.1c1-0.5,0.8-1.6,1.3-2.5
		c0.2,0.5,0.4,0.9,0.6,1.4c0.3-0.2,0.6-0.3,0.9-0.5c0.1,0.2,0.3,0.6,0.5,0.9c0.2-0.1,0.3-0.2,0.4-0.3c0.3-0.9,0.5-1.9,0.8-2.8
		c0.1,0,0.2,0,0.3,0c0.1,0.6,0.3,1.2,0.5,1.9c0.5-0.5,1-0.8,1.4-1.3c0.8,0.7,1.3,1.4,1.6,2.3c0.2,0.7,0.6,0.9,1.3,1.1
		c0.6,0.1,1.1,0.3,1.8,0.5c0.1-0.5,0.2-1.1,0.3-1.7c0.8,0.6,1.5,1.1,2.2,1.6c0.9,0.6,1.9,0.3,2.2-0.8c0.2-0.7,0.4-1.4,0.6-2
		c0.4,1.1,0.9,2.1,1.4,3.3c1.1-0.9,0.9-2.2,1.9-3.1c0.2,0.8,0.5,1.4,0.7,2c0.1,0.4,0.1,0.9,0.4,1.2c0.2,0.3,0.7,0.6,1,0.6
		c0.2,0,0.5-0.4,0.7-0.7c0.2-0.2,0.2-0.5,0.4-0.9c0.4,0.4,0.8,0.7,1.2,1.1c2-1.1,1.7-3.4,2.6-5.4c0.3,1.1,0.6,2.1,0.9,3.2
		c-0.4,0.9-0.4,1,0.4,1.8c0.6-0.5,1.4-1,1.9-1.6c0.2-0.3,0.3-0.8,0.3-1.2c0-0.8,0.2-1.4,0.9-2.3c0.2,0.7,0.3,1.1,0.4,1.6
		c0.1,0.4,0,0.8,0.1,1.1s0.3,0.5,0.5,0.7c0.2-0.2,0.4-0.4,0.5-0.6c0.1-0.1,0.1-0.3,0.4-0.6c0.4,0.8,0.8,1.5,1.1,2.3
		c0.4,1,0.4,1,1.8,1c-0.2-0.3-0.3-0.6-0.4-0.8c-0.2-0.4-0.1-0.8,0.4-0.9c1.2-0.2,1.5-1.1,1.6-2.1c0.2-1.2,0.4-1.3,1.6-1.2
		c0.6,0.1,0.8,0.4,0.9,0.9c0.1,0.8,0.1,1.6,0.1,2.6c0.3-0.3,0.6-0.5,0.6-0.7c0.1-0.6,0.2-1.3,0.3-1.9c0.1-0.3,0-0.7,0.2-0.9
		c0.2-0.3,0.6-0.6,0.9-0.8c0.2,0.3,0.6,0.6,0.7,0.9c0.2,0.8,0.2,1.6,0.4,2.3c0.1,0.5,0.2,1.1,1.1,1.2c-0.1-0.5-0.2-0.9-0.2-1.3
		c0.1-0.1,0.2-0.1,0.2-0.2c0.3,0.3,0.6,0.7,0.9,1c0.6-0.8,0.6-0.8,0.4-2.6c0.3-0.3,0.7-0.6,1.2-0.9c0.6,1.1,0.3,2.3,0.8,3.4
		c0.5,1,1.1,2,1.8,3c0.8-0.6,0.8-0.6,0.1-1.8c1-0.6,0.8-2,1.8-2.6c0.1-0.1,0.1-0.4,0.2-0.6c0.1-0.3,0.1-0.6,0.2-0.9
		c0.3-0.6,1.1-0.9,1.7-0.5c0.4,0.3,0.6,0.9,0.2,1.5c-0.2,0.4-0.8,0.8-0.1,1.6c0.8-1.3,0.1-3,1.4-4.1c1.3,1.6,1.3,3.7,2.7,5.3
		c0.2-0.4,0.4-0.8,0.6-1.1c0.3,0,0.5,0.1,0.8,0.1c0.1-0.8,0.2-1.5,0.3-2.4c0.7,0.8,0.3,1.6,0.5,2.2c0.2,0.6,0.6,1.1,1.1,1.8
		c0.9-0.6,1.9-1.1,2.8-1.8c0.3-0.2,0.3-0.8,0.5-1.5c0.2,0.8,0.4,1.3,0.5,1.8c0.1,0,0.2,0,0.3,0c0.2-0.4,0.4-0.8,0.6-1.1
		c0.8,0.2,0.4,0.9,0.5,1.5c0.4-0.7,0.5-1.2,0.9-1.6c0.3-0.3,0.9-0.5,1.4-0.4c0.6,0.1,0.6,0.6,0.6,1.1c0,0.7,0,1.4,0,2.1
		c0,0.8,0.4,1.1,1.1,1.1c0.2-0.5,0.4-0.9,0.6-1.4c0.8,0.6,0.5,2,1.9,1.7c0.1-0.3,0.2-0.6,0.4-1.1c0.5-0.1,0.9-0.1,1.4-0.2
		c0.3,0.7,0.5,1.3,0.8,2.1c0.2-0.6,0.4-1,0.6-1.6c0.3,0.5,0.5,0.8,0.8,1.3c0.3-0.6,0.5-1.1,0.7-1.6c0.6,0.1,1.3,0.1,2.2,0.2
		c-0.2-0.4-0.4-0.7-0.5-1c0.4,0,0.7,0,1,0c0.7-0.6,1.4-1.1,2-1.7c0.2-0.1,0.2-0.4,0.3-0.6c0.2-0.6,0.4-1.3,0.7-2
		c1.4,0.1,0.9,1.5,1.7,2.1c0.4,0.1,0.9,0.2,1.5,0.3c-0.2,0.5-0.4,0.9-0.6,1.3c0.6,0.6,1.2,1.2,1.8,1.9c0.5-0.7,0.8-1.2,1.1-1.6
		c0-0.8-0.1-1.4,0-2.1c0.1-0.3,0.5-0.5,0.8-0.6c0.1,0,0.4,0.4,0.6,0.6c0.2,0.3,0.2,0.6,0.3,0.9c1.6-0.8,1.6-0.8,2.3-3.1
		c0.2,0.9,0.3,1.4,0.4,2c0.1,0.2,0.1,0.5,0.1,0.7c0.3,2.4,0.3,2.4,2.4,2.8c0.6-0.2,1-0.5,1.4-0.5c0.6-0.1,0.6-0.5,0.7-0.9
		c0.1-0.5,0.1-0.9,0.2-1.4c0.2-0.4,0.5-0.8,0.8-1.2c0.1,0,0.2,0,0.3,0c0.1,0.5,0.2,0.9,0.4,1.4c0.1,0.5,0.3,1,0.5,1.6
		c0.4-0.2,0.6-0.5,0.9-0.5s0.6,0.2,0.8,0.4c0.1-0.2,0.1-0.3,0.2-0.4c0.4-0.5-0.6-1,0-1.5c0.4-0.3,0.6-0.9,0.8-1.4
		c0.2-0.4,0.4-0.9,0.6-1.5c0.3,0.4,0.5,0.8,0.8,1.1c0.5,0.6,1,1.2,1.4,1.9c0.2,0.2,0.3,0.6,0.4,0.9c0.2,0.5,0.4,1,0.7,1.8
		c0.5-0.4,0.8-0.6,1-0.9c0.4-0.3,0.6-0.7,1-1.1c0.4-0.4,0.6-0.8,0.5-1.4c-0.3-1.2,0-2.3,0.6-3.8c0.4,0.6,0.6,1,1,1.6
		c0.3-0.4,0.6-0.8,0.9-1.1c0.5,0.6,0.9,1.2,1.4,1.9c0,0.7,0,1.4,0,2.1c0.8-0.2,0.9-0.7,0.7-1.3c-0.2-0.6-0.1-1.2,0.5-1.7
		c0.2,0.5,0.5,0.9,0.8,1.6c0.4-1,0.7-1.7,1.1-2.6c0.3,1.2,0.5,2.4,1,3.4c0.4,0.9,0.5,2.1,1.7,2.8c0.4-1,0.7-1.8,1-2.6
		c0.4-0.8,0.9-1.5,1.5-2.4c1.3,1.1,1.1,2.8,2.2,4.1c0.1-1.4,0.2-2.5,0.3-3.6c0.5-0.3,1-0.6,1.6-1c0.8,1,1.6,2,2.5,3.2
		c0,0.3-0.1,0.8-0.1,1.2c0,0.5,0.1,0.9,0.7,0.9s0.7-0.4,0.6-0.8c-0.1-0.8-0.3-1.5-0.4-2.3c0-0.3-0.1-0.6,0-0.8
		c0.2-0.5,0.5-1,0.8-1.8c0.3,1,0.5,1.8,0.8,2.8c0.5-1,0.8-1.7,1.2-2.5c0.6,0.1,1,0.3,1,0.9c0,0.4,0.1,1,0.4,1.1c1,0.4,1,1.2,1,2.1
		c0,0.2,0.1,0.4,0.1,0.6c0.7-0.2,0.8-0.7,0.7-1.2c-0.1-0.5-0.2-1-0.3-1.5c0.6-0.3,1.3-0.5,1.3-1.3c0-0.1,0.3-0.4,0.5-0.4
		s0.6,0.2,0.7,0.4c0.1,0.3,0.1,0.6,0.2,0.9c0.3,1.3,0.4,2.8,1.7,3.6c0.2,0.2,0.2,0.7,0.4,1.1c0.9-0.7,0.3-2.5,2-2.5
		c0.2-0.5,0.4-1,0.5-1.5c0.1,0,0.2,0,0.3,0c0.1,0.5,0.2,1,0.2,1.6c1.2-0.7,1.2-2.1,2.1-3.3c0.1,0.8,0.1,1.3,0.2,1.8
		c0.1,0.8,0.5,1.1,1.3,0.9c0.9-0.2,1.8-0.5,2.7-0.7c0.1,0.1,0.4,0.2,0.5,0.4c0.9,1.1,1.7,1.3,2.9,0.6c0.3-0.2,0.8-0.2,1.2-0.3
		c0.2,0,0.4,0,0.6,0.1c2,0.2,2.5-0.4,2-2.3c-0.2-1-0.1-1.5,0.7-1.9c0.7-0.4,0.9-0.9,0.9-1.6c0-0.7,0-1.3,0.8-1.8
		c0.3,0.6,0.6,1.2,1,1.9c0.2-0.3,0.4-0.5,0.5-0.7c0.2-0.4,0.4-0.9,0.9-0.7c0.4,0.2,0.9,0.6,1.1,1c0.2,0.4,0.1,0.9,0.2,1.4
		c0.1,0.8,0.4,1.5,1,2.1c0.8,0.8,1.5,0.9,2.4,0.4c1.4-0.7,2.9-1.4,3.5-3.1c0.2,0.1,0.4,0.2,0.6,0.4c0.4-0.4,0.3-1.3,1.2-1
		c0.7,1.9,0.7,1.9,1.3,2.3c0.9-0.8,0.5-2.4,1.6-3.1c0.7,0.6,1,1.6,2.2,1.3c0.1-0.2,0.2-0.5,0.3-0.8c0.1,0,0.2-0.1,0.2-0.1
		c1.3-0.4,1.3-0.4,1.4-1.7c0-0.6,0.1-1.1,0.9-1.2c0.6,0,1,0.3,0.9,0.9c-0.1,0.5-0.2,0.9-0.3,1.4c0.2,0.2,0.5,0.4,0.8,0.6
		c-0.1,0.3-0.3,0.5-0.4,0.8c0,0.1,0.1,0.1,0.1,0.2c0.6,0.2,1.3,0.4,2.2,0.7c0.1-0.6,0.1-1.2,0.2-1.7c0.8-0.7,1.6,0,2.4-0.1
		c0.8-0.1,1.5-0.3,2.3-0.4c0.1,0.6,0.2,1.1,0.3,1.7c0.1,0.5,0.4,0.9,1,0.7c0.5-0.2,0.8-0.6,0.2-1.1l-0.1-0.1
		c-0.1-0.3,0.9-2.8,1.3-2.8c0.2,0,0.5,0.1,0.9,0.2c0.1-0.6,0.1-1.2,0.2-1.9c1.3-0.1,0.6,1.5,1.6,1.5c-0.1,0.7-0.3,1.2-0.4,1.8
		c1.4,0.3,1.9,0,2-1.2c0.1-0.5,0.1-0.9,0.2-1.4c0-0.2,0.1-0.4,0.3-0.7c0.6,0.5,0.7,1.1,0.9,1.7c0.1,0.3,0.3,0.7,0.5,0.7
		c0.6,0.1,1.1,0.4,1.4,1c0.3,0.6,1.4,0.1,1.5-0.7c0.1-0.6,0.1-1.3,0.1-2.1c0.4-0.1,0.8-0.1,1.1-0.2c0.3-0.1,0.6-0.2,0.8-0.3
		c1.1-0.9,1.6-0.8,1.9,0.7c0,0.1,0.1,0.1,0.1,0.2c0.2-0.8,0.4-1.6,0.7-2.4c0.5,0.2,0.8,0.3,1.3,0.4c0.1-0.4,0.2-0.7,0.3-1
		s0.3-0.7,0.4-1c0.2-0.7,0.5-1.4,0.7-2.1c0.1-0.3,0-0.7,0.1-1s0.4-0.6,0.7-0.6c0.2,0,0.5,0.4,0.6,0.6s0.2,0.6,0.3,0.8
		c0.1,0,0.2,0,0.3,0c0.2-1.1,0.4-2.1,0.6-3.2c0.2-1.2,0.2-1.2,1.4-1.3c0.3,0,0.7,0,1,0c1.5,0,1.4,0,2,1.5c0.3,0.8,0.8,1.6,1.2,2.4
		c0.8-0.3,0.9-1.9,2.2-1.2c0,0,0.1,0.1,0.1,0.2c0.1,0.4-0.1,1,0.5,1c0.7,0.1,0.6-0.6,0.8-1c0.3-0.8,0.5-1.6,0.9-2.3
		c0.3-0.5,0.9-1,1.4-1.2c0.9-0.4,1.4-0.9,1.4-1.9c0-0.6,0.3-0.9,0.9-0.8c0.9,0.1,1.3-0.3,1.6-1.1c0.4-1,1.4-0.8,2.1-1.1
		c0,0,0.5,0.6,0.4,0.7c-0.3,0.5-0.7,1-1.3,1.4c0,0.5,0.1,1,0.1,1.6c0.4,0.1,0.8,0.2,1.3,0.3c-0.4,0.4-0.8,0.8-1.1,1.3
		c-0.2,0.3-0.2,0.7-0.3,1c0.3,0.1,0.7,0.2,1,0.2c0.1,0,0.3-0.1,0.5-0.1c0.1,0.2,0.3,0.5,0.3,0.6c-0.7,0.9,0,1.3,0.6,1.7
		c0.9,0.6,0.9,1.1,0.3,2c-0.2,0.3-0.4,0.7-0.6,1.1c0.8,0.8,1.4-0.6,2.2,0c-0.8,0.7-1.1,1.6-0.7,2.7c-0.4,0.2-0.7,0.4-1.1,0.6
		c0.1,0.1,0.2,0.2,0.3,0.2c0.3,0,0.6-0.2,0.8-0.1c0.7,0.3,1.1-0.3,1.1-0.6c0-0.7,0.4-0.8,0.8-0.9c0-0.4,0-0.8,0-1.2
		c0.9,0.4,1.7,0.8,2.6,1c0.1,0,0.4-0.2,0.6-0.4c-0.4-0.7-1-0.3-1.5-0.5c-0.2-0.4-0.5-0.9-0.8-1.4c1-0.5,1.9-0.9,2.9-0.3
		c0.6-0.6,0.4-1.1,0-1.4c-0.5-0.4-0.5-0.8-0.6-1.3c-0.1-0.4-0.4-0.8-0.6-1.3c0.2-0.2,0.5-0.4,0.7-0.5c1-0.6,2-1.2,1.2-2.7
		c0.5-0.2,0.8-0.4,1.1-0.5c0.2-0.7,0.4-1.2,0.5-1.9c0.5,0.2,0.8,0.4,1,0.5c0.3-0.3,0.6-0.6,0.9-0.8c1-0.7,2.2-0.3,3.3-0.5
		c0.6-0.1,1.1-0.3,1.7-0.5c0.1-0.1,0.1-0.4,0.2-0.9c-0.5,0.3-0.7,0.4-0.9,0.6c-0.9-0.3-1.7-0.5-2.5-0.8c0.3-0.6,1.3-0.9,0.7-2.1
		c0.9,0.2,1.6,0.4,2.3,0.5c-0.1-0.8-1.1-1.5-0.2-2.4c0.3,0.1,0.6,0.3,1.1,0.4c0-0.2,0-0.4,0-0.5c-0.7-0.6-1.3-1.3-1.5-2.3
		c0.3-0.4,0.5-0.9,0.8-1.4c0.3,0,0.6,0.1,1,0.1c0.1-0.5,0.2-1,0.3-1.6c0.6-0.1,1.2-0.1,1.9-0.2c0.1-0.9-0.3-1.6-1.1-2.2
		c0.1-0.3,0.3-0.6,0.4-0.9c0.4,0.1,0.8,0.2,1.1,0.3c0.2-0.6,0.4-1.1,0.6-1.6c1.4,0.4,2.5,0.8,3.9,1.2c0.2,0.3-1,1.3,0.5,1.4
		c0.4-0.7,0.7-1.5,1.2-2.4c0.6,0.1,1.5,0.2,2.6,0.4c1-0.1,1.1-1.4,2.1-2.1c-0.1-0.3-0.2-0.6-0.3-0.9c-0.1,0-0.2,0-0.2,0
		c-0.3,0.3-0.7,0.8-1.2,0.4s-0.3-0.9,0-1.4c0.1-0.1,0.1-0.2,0.2-0.3c-0.2-0.4-0.4-0.8-0.7-1.2c0.9-1.1,2-2,3.6-1.9
		c-0.1-0.2-0.2-0.5-0.3-0.7c0.4-0.3,0.7-0.6,1.1-0.9c-1.2-0.5-2.2-1.8-3.5-0.4c-0.2-0.8-0.4-1.5-0.6-2.1c-0.4-0.8-0.6-0.8-1.5-0.5
		c-0.3,0.1-0.6,0.2-1,0.3c-0.1-0.1-0.1-0.2-0.2-0.2c0.7-1.2,1.4-2.4,2.2-3.7c0.8,0.5,1.6,1,2.6,1.6c0.1-0.4,0.3-0.9,0.5-1.4
		c0.1-0.6-0.3-0.9-0.7-1.2c-0.7-0.5-1-1.8-0.6-2.5c0.3-0.4,0.5-1,1.3-0.8c0.3,0.1,0.8-0.2,1.1-0.5c0.8-0.7,1.4-1.3,2.6-0.7
		c0.7,0.3,1.1-0.4,1.4-1c0.5-1,1-1.2,2.1-0.8c0.1-0.1,0.1-0.1,0.2-0.2c0.5-0.4,1.1-0.8,1.4-1.4c0.3-0.6,0.1-1.4,0.7-1.8
		c0.8,0.1,1.5,0.2,2.2,0.3c-0.6-0.9-1.1-1.6-1.9-2.6c0.7,0.2,1,0.4,1.5,0.6c0.3-0.5,0.6-0.9,1-1.4c0.8,0.3,0.1,1.1,0.6,1.6
		c0.9-0.4,1.1-1.4,1.7-2.2c0.6,0,1.2,0,2,0c-0.3,0.3-0.5,0.5-0.8,0.9c1.2,0.5,2.2,0.1,3.1-0.4c0.9-0.6,0.3-1.5,0.3-2.3
		c0.6-0.2,1.2-0.4,1.7-0.6c0.6-0.2,1.1-0.2,1.8-0.4c0.3-0.3,0.6-0.7,1.1-1.2c0.2,0.4,0.2,0.6,0.4,1c0.2-0.5,0.3-1,0.6-1.3
		c0.3-0.2,0.8-0.2,1.5-0.4c-0.3,0.6-0.5,1-0.8,1.5c0.4,0.2,0.7,0.5,1.1,0.7c-0.2,0.3-0.4,0.5-0.6,0.8c0.8,0.7,1.1-0.4,1.9-0.3
		c-0.2,0.6-0.5,1.2-0.7,1.9c1.1-0.1,1.5-0.7,1.6-1.5c1.5,0.8,3.1-0.2,3.5-2c-0.5-0.1-1-0.1-1.5-0.2c0-1.4,1-2.4,2.3-2.4
		c0.7,0,1.4,0.1,1.9-0.6c0.3-0.4,0.8-0.2,1.1,0.2c-0.4,0.2-0.7,0.4-1,0.6c-0.2,1.5-0.1,1.5,1.2,1.7c0.1-0.7,0.2-1.3,0.3-2
		c0.1-0.7,0-1.4,0.6-1.9c1,0,0.6,1.2,1.1,1.3c1,0.2,0.2,1.3,1.1,1.5c1-0.4,0.4-1.4,0.7-2.3c0.3,0,0.6-0.1,1.1-0.2
		c-0.1,0.7-0.2,1.2-0.3,1.8c1-0.5,1.8-0.9,2.9-1.4c0,0.6,0,0.8,0,1.1c0.6,0.7,1.4,0.2,2.3,0.3c0,0.5-0.1,1-0.1,1.5
		c0.9-0.2,1.5-0.4,1.8-1.3c0.2-0.5,0.6-0.9,0.9-1.3c0.6,0.5,1.1,1,1.7,1.5c0,0.2,0.1,0.6,0.3,1.4c0.4-0.6,0.6-1,0.9-1.3
		c0.4-0.6,0.9-0.6,1.4-0.1c0.3,0.3,0.7,0.7,1.2,1.2c0.4-1.5,1.1-2.2,2.3-2.5c0.3-0.1,0.5-0.5,0.6-0.8c0.3-0.6,0.4-1.3,1.3-1.5
		c0.3-0.1,0.5-0.6,0.8-1c0.2,0.3,0.3,0.4,0.4,0.6c0.1,0.5,0.3,0.8,0.8,0.7s1.1-0.2,1.2-0.9c0.3-1.2,0.4-1.2,1.5-1.2
		c0,0.9,0.6,1.6,1.5,2.1c0.2-0.7,0.2-1.3,0-2s-0.3-1.5-0.4-2.2c0-0.3,0.2-0.9,0.4-0.9c1.2,0,1.3-1.7,2.4-1.7
		c0.3-0.6,0.6-1.2,0.9-1.9c0.2-0.6,0.4-1.2,0.6-2c0.5,0.3,0.8,0.5,1.3,0.8c0.3-1.3,0.6-2.4,1-3.6c1,0.2,0.6,1.3,1.3,1.7
		c0.6-0.8,1.3-0.9,2.2-0.3c0.7,0.5,1.5,0.2,1.9-0.5c0.1-0.2,0.1-0.5,0-0.8c-0.4-1.2-0.4-1.2,0.6-1.8c0.2-0.2,0.5-0.5,0.6-0.7
		c0-0.8,0.4-1.3,0.8-1.9c0.6-0.9,1.2-1.8,1.3-3c0.1-0.6,0.7-1.2,1-1.7c1.3-0.2,2.4,0.4,3.3,1.3c-0.7,1-0.8,2.1-0.3,3.2
		c0.7-0.2,0.4-1,0.8-1.4c0.1,0,0.2-0.1,0.3-0.2c1.1-0.3,1.2-0.5,0.6-1.4c-0.4-0.6-0.4-1,0.3-1.3c0.1-0.1,0.2-0.2,0.3-0.3
		c0.4-0.5,0.6-1,1-1.5c0.4-0.4,1-0.7,1.5-1c0,0.1,0.1,0.3,0.2,0.5c0.1,0.7,0.6,0.9,1.3,0.7c0.5-0.2,1-0.4,1.6-0.6
		c0.2-0.1,0.5-0.1,1-0.1c-0.3,0.8-0.6,1.4-0.9,2.1c0.1,0,0.2,0.1,0.3,0.2c1.4-0.8,1.8-2.3,2.8-3.6c0.2,0.4,0.5,0.8,0.8,1.2
		c0.8-0.5,1.6-0.9,2.4-1.4c0.5-0.2,1-0.4,1.5-0.6c0.9-0.2,1.3-0.7,1.5-1.6c0.1-0.5,0.1-1,0.3-1.5c0.3-0.8,0.6-0.9,1.5-0.7
		c0.5,0.1,0.8,0,1.1-0.4c0.2-0.2,0.3-0.5,0.5-0.6c0.4-0.2,0.9,0,1,0.4c0.1,0.3,0,0.6,0,1c0,1.2,0.1,1,1.1,1.6c1.5,0.8,2.2,0.1,3-0.9
		c0.2-0.2,0.4-0.4,0.6-0.6c1,0.3,0.7,1.1,0.8,1.9c0.5-0.6,1-1.1,1.5-1.7c0.1-0.1,0.3-0.1,0.6-0.1c0,0.5,0.1,0.9,0.1,1.4
		c1,0.1,1-1.2,2-1.3c0.7-0.1,1.3-0.7,2-1.1c0.1,0.1,0.1,0.2,0.2,0.2c-0.2,0.2-0.4,0.3-0.6,0.5s-0.5,0.5-0.4,0.7
		c0.1,0.5,0.5,0.2,0.8,0.1c0.1,0,0.2,0,0.4-0.1c-0.1,0.7-0.1,1.4-0.2,2c0.1,0,0.2,0.1,0.3,0.2c0.3-0.4,0.7-0.7,1-1
		c0.3-0.4,0.5-0.9,0.8-1.3c0.4-0.6,0.9-1,1.6-0.6c0.3,0.1,0.6,0.1,1,0.1c-0.2,0.5-0.6,0.9-0.7,1.4c-0.2,0.5-0.3,1.1,0.5,1.5
		c0.8-1,1.7-2.1,2.5-3.1c0.6-0.8,0.8-0.8,1.4,0.1c0.2,0.2,0.6,0.3,1,0.4c-0.5,1-1.9,1.4-1.7,2.9c0.7-0.3,1.1-1.1,2-0.9
		c0.7,0.1,1.4,0,1.7,0.9c0.4-0.2,0.8-0.4,1.2-0.6c-0.1-0.3,0-0.6-0.2-0.8c-0.7-1-0.6-2-0.1-3.1c0.6-1.2,0.1-2.3-1.2-2.9
		c0.4-0.7,0.7-1.4,1.1-2.1c0.8,0.2,1.1,0.6,1.1,1.4c0,0.7,0.1,1.3,0.6,1.9c0.3,0.4,0.1,1.2,0.2,1.8c0,0.3,0,0.5,0.1,1
		c0.3-1.9,0.6-3.6,0.9-5.4c0-0.1,0.2-0.2,0.4-0.5c0.5,0.5,1,0.8,1.4,1.2c-0.1,0.6-0.1,1.2-0.2,1.8c0.9,0,1-0.7,1.3-1.2
		s0.6-1,0.8-1.6c0.2-0.4,0.2-0.9,0.2-1.3c0-1.1,0-1,0.9-1.5c0.8-0.5,1.8-0.3,2.6-0.8c0.7-0.4,1.7-0.1,2.6,0s1.5-0.2,1.9-1
		c0.3-0.6,0.7-0.9,1.4-0.8c0.8,0.1,1-0.5,0.6-1.2c-0.2-0.3-0.3-0.7-0.4-1C373.7,15.5,374.6,15.4,375.6,15.2z M168.1,129.1
		c-0.5,0.7-0.5,1.3,0,1.8c0.1,0.1,0.5,0,0.9,0C168.7,130.2,168.4,129.8,168.1,129.1z"/>
	<path class="st2" d="M-69.7,132.6c-0.2,0.5-0.3,0.7-0.5,1.1c-0.2-0.4-0.3-0.6-0.4-0.9C-70.4,132.8-70.2,132.8-69.7,132.6z"/>
	<path class="st2" d="M168.1,129.1c0.3,0.6,0.6,1.1,0.9,1.8c-0.4,0-0.8,0.1-0.9,0C167.6,130.5,167.6,129.9,168.1,129.1z"/>
</g>
<g>
	<path class="st3" d="M-16.7,21.9c0.3,2.5,0.3,5,0.3,7.4c0,2.5-0.1,5-0.3,7.4c-0.3-2.5-0.3-5-0.3-7.4C-17.2,26.9-17,24.4-16.7,21.9z
		"/>
</g>
<g>
	<path class="st3" d="M-23.6,29.4c2.2-0.1,4.5-0.1,6.7-0.1s4.5,0,6.7,0.1c-2.2,0.1-4.5,0.1-6.7,0.1S-21.3,29.5-23.6,29.4z"/>
</g>
<g>
	<path class="st3" d="M-11.6,24.1c-1.7,1.8-3.3,3.6-5.2,5.4c-1.8,1.7-3.5,3.5-5.4,5.2c1.7-1.8,3.3-3.6,5.2-5.4
		C-15.2,27.5-13.4,25.8-11.6,24.1z"/>
</g>
<g>
	<path class="st3" d="M-21.6,24.7c1.7,1.5,3.3,3.1,4.9,4.6c1.5,1.5,3.2,3.2,4.6,4.9c-1.7-1.5-3.3-3.1-4.9-4.6
		C-18.6,27.9-20.1,26.3-21.6,24.7z"/>
</g>
<g>
	<path class="st3" d="M115.4,3.5c0.3,2.5,0.3,5,0.3,7.4c0,2.5-0.1,5-0.3,7.4c-0.3-2.5-0.3-5-0.3-7.4C114.9,8.5,115.1,6,115.4,3.5z"
		/>
</g>
<g>
	<path class="st3" d="M108.5,11c2.2-0.1,4.5-0.1,6.7-0.1s4.5,0,6.7,0.1c-2.2,0.1-4.5,0.1-6.7,0.1S110.8,11.2,108.5,11z"/>
</g>
<g>
	<path class="st3" d="M120.5,5.7c-1.7,1.8-3.3,3.6-5.2,5.4c-1.8,1.7-3.5,3.5-5.4,5.2c1.7-1.8,3.3-3.6,5.2-5.4
		C116.9,9.1,118.7,7.4,120.5,5.7z"/>
</g>
<g>
	<path class="st3" d="M110.5,6.2c1.7,1.5,3.3,3.1,4.9,4.6c1.5,1.5,3.2,3.2,4.6,4.9c-1.7-1.5-3.3-3.1-4.9-4.6
		C113.5,9.5,112,8,110.5,6.2z"/>
</g>
<g>
	<path class="st3" d="M212.8,45.3c0.3,2.5,0.3,5,0.3,7.4c0,2.5-0.1,5-0.3,7.4c-0.3-2.5-0.3-5-0.3-7.4
		C212.4,50.3,212.5,47.8,212.8,45.3z"/>
</g>
<g>
	<path class="st3" d="M206,52.8c2.2-0.1,4.5-0.1,6.7-0.1s4.5,0,6.7,0.1c-2.2,0.1-4.5,0.1-6.7,0.1C210.4,52.9,208.2,52.9,206,52.8z"
		/>
</g>
<g>
	<path class="st3" d="M217.9,47.5c-1.7,1.8-3.3,3.6-5.2,5.4c-1.8,1.7-3.5,3.5-5.4,5.2c1.7-1.8,3.3-3.6,5.2-5.4
		C214.3,50.8,216.1,49.2,217.9,47.5z"/>
</g>
<g>
	<path class="st3" d="M207.9,47.9c1.7,1.5,3.3,3.1,4.9,4.6s3.2,3.2,4.6,4.9c-1.7-1.5-3.3-3.1-4.9-4.6
		C211,51.3,209.4,49.7,207.9,47.9z"/>
</g>
<g>
	<path class="st3" d="M59.7,59.2c0.3,2.5,0.3,5,0.3,7.4c0,2.5-0.1,5-0.3,7.4c-0.3-2.5-0.3-5-0.3-7.4C59.3,64.2,59.4,61.7,59.7,59.2z
		"/>
</g>
<g>
	<path class="st3" d="M52.9,66.7c2.2-0.1,4.5-0.1,6.7-0.1c2.2,0,4.5,0,6.7,0.1c-2.2,0.1-4.5,0.1-6.7,0.1
		C57.3,66.8,55.1,66.8,52.9,66.7z"/>
</g>
<g>
	<path class="st3" d="M64.8,61.4c-1.7,1.8-3.3,3.6-5.2,5.4c-1.8,1.7-3.5,3.5-5.4,5.2c1.7-1.8,3.3-3.6,5.2-5.4S63,63.1,64.8,61.4z"/>
</g>
<g>
	<path class="st3" d="M54.8,61.8c1.7,1.5,3.3,3.1,4.9,4.6c1.5,1.5,3.2,3.2,4.6,4.9c-1.7-1.5-3.3-3.1-4.9-4.6S56.3,63.6,54.8,61.8z"
		/>
</g>
<g>
	<path class="st3" d="M140.7,36.8c0.3,1.5,0.3,3.2,0.3,4.7c0,1.5-0.1,3.2-0.3,4.7c-0.3-1.5-0.3-3.2-0.3-4.7
		C140.4,40,140.4,38.3,140.7,36.8z"/>
</g>
<g>
	<path class="st3" d="M136.4,41.5c1.4-0.1,2.8-0.1,4.3-0.1c1.4,0,2.8,0,4.3,0.1c-1.4,0.1-2.8,0.1-4.3,0.1
		C139.3,41.7,137.8,41.7,136.4,41.5z"/>
</g>
<g>
	<path class="st3" d="M144,38.2c-1,1.3-2.1,2.4-3.2,3.5c-1.1,1.1-2.2,2.2-3.5,3.2c1-1.3,2.1-2.4,3.2-3.5
		C141.7,40.3,142.8,39.1,144,38.2z"/>
</g>
<g>
	<path class="st3" d="M137.6,38.5c1.1,1,2.1,1.9,3.2,2.9c1,1,1.9,2.1,2.9,3.2c-1.1-0.8-2.1-1.9-3.2-2.9
		C139.6,40.5,138.6,39.6,137.6,38.5z"/>
</g>
<g>
	<path class="st3" d="M115.4,89.8c0.3,1.5,0.3,3.2,0.3,4.7s-0.1,3.2-0.3,4.7c-0.3-1.5-0.3-3.2-0.3-4.7
		C114.9,92.9,115.1,91.3,115.4,89.8z"/>
</g>
<g>
	<path class="st3" d="M111,94.5c1.4-0.1,2.8-0.1,4.3-0.1c1.4,0,2.8,0,4.3,0.1c-1.4,0.1-2.8,0.1-4.3,0.1S112.4,94.7,111,94.5z"/>
</g>
<g>
	<path class="st3" d="M118.6,91.2c-1,1.3-2.1,2.4-3.2,3.5s-2.2,2.2-3.5,3.2c1-1.3,2.1-2.4,3.2-3.5C116.3,93.3,117.4,92.2,118.6,91.2
		z"/>
</g>
<g>
	<path class="st3" d="M112.3,91.5c1.1,1,2.1,1.9,3.2,2.9c1,1,1.9,2.1,2.9,3.2c-1.1-0.8-2.1-1.9-3.2-2.9
		C114.1,93.6,113.1,92.6,112.3,91.5z"/>
</g>
<g>
	<path class="st3" d="M282.4,35.5c0.3,1.5,0.3,3.2,0.3,4.7c0,1.5-0.1,3.2-0.3,4.7c-0.3-1.5-0.3-3.2-0.3-4.7
		C282,38.6,282.1,37.1,282.4,35.5z"/>
</g>
<g>
	<path class="st3" d="M278.1,40.3c1.4-0.1,2.8-0.1,4.3-0.1c1.4,0,2.8,0,4.3,0.1c-1.4,0.1-2.8,0.1-4.3,0.1
		C280.9,40.4,279.5,40.4,278.1,40.3z"/>
</g>
<g>
	<path class="st3" d="M285.6,36.9c-1,1.3-2.1,2.4-3.2,3.5c-1.1,1.1-2.2,2.2-3.5,3.2c1-1.3,2.1-2.4,3.2-3.5
		C283.4,39,284.5,37.9,285.6,36.9z"/>
</g>
<g>
	<path class="st3" d="M279.3,37.2c1.1,1,2.1,1.9,3.2,2.9c1,1,1.9,2.1,2.9,3.2c-1.1-0.8-2.1-1.9-3.2-2.9
		C281.1,39.3,280.2,38.3,279.3,37.2z"/>
</g>
<g>
	<path class="st3" d="M-51.7,103.7c0.3,1.5,0.3,3.2,0.3,4.7s-0.1,3.2-0.3,4.7c-0.3-1.5-0.3-3.2-0.3-4.7
		C-52.1,106.8-52,105.3-51.7,103.7z"/>
</g>
<g>
	<path class="st3" d="M-56,108.5c1.4-0.1,2.8-0.1,4.3-0.1c1.4,0,2.8,0,4.3,0.1c-1.4,0.1-2.8,0.1-4.3,0.1
		C-53.2,108.6-54.6,108.6-56,108.5z"/>
</g>
<g>
	<path class="st3" d="M-48.5,105.1c-1,1.3-2.1,2.4-3.2,3.5c-1.1,1.1-2.2,2.2-3.5,3.2c1-1.3,2.1-2.4,3.2-3.5
		C-50.7,107.2-49.6,106.1-48.5,105.1z"/>
</g>
<g>
	<path class="st3" d="M-54.7,105.4c1.1,1,2.1,1.9,3.2,2.9c1,1,1.9,2.1,2.9,3.2c-1.1-0.8-2.1-1.9-3.2-2.9
		C-52.9,107.5-53.9,106.5-54.7,105.4z"/>
</g>
<path class="st4" d="M26.6,11.4c9.5,3.2,13.6,19.9,7.7,30.3c-0.2,0.2-0.3,0.6-0.6,1.1c-6,8.9-21.8,12.9-25.7,7.4
	c-1.4-1.8,10.4-5,15.4-15.5C28.6,23.5,24.8,10.8,26.6,11.4z"/>
</svg>
