<?xml version="1.0" encoding="utf-8"?>
<!-- Generator: Adobe Illustrator 24.2.0, SVG Export Plug-In . SVG Version: 6.00 Build 0)  -->
<svg version="1.1" id="Layer_1" xmlns="http://www.w3.org/2000/svg" xmlns:xlink="http://www.w3.org/1999/xlink" x="0px" y="0px"
	 viewBox="0 0 213.1 222" style="enable-background:new 0 0 213.1 222;" xml:space="preserve">
<style type="text/css">
	.st0{opacity:0.85;}
	.st1{fill:#FFFFFF;}
	.st2{fill:none;stroke:#FFFFFF;stroke-width:5;stroke-linecap:round;stroke-miterlimit:10;stroke-dasharray:0,20;}
	.st3{fill:none;}
	.st4{fill:none;stroke:#FFFFFF;stroke-miterlimit:10;}
	.st5{font-family:'ArialMT';}
	.st6{font-size:6.2043px;}
</style>
<g>
	<g>
		<g>
			<g>
				<g class="st0">
					<g>
						<path class="st1" d="M26.7,132.4c-0.8,0.5-1.6,1-2.4,1.5c0.4-0.2,0.8-0.5,1.3-0.7C26.1,132.9,26.3,132.7,26.7,132.4z"/>
						<path class="st1" d="M22.1,135.4c-0.1,0.1-0.3,0.2-0.4,0.3c-0.1,0.1-0.2,0.2-0.3,0.3L22.1,135.4z"/>
						<path class="st1" d="M18.4,138.6c0.7-0.6,1.3-1.1,1.9-1.7C19.7,137.4,19.1,137.9,18.4,138.6z"/>
						<path class="st1" d="M21.4,136.1c-0.3,0.2-0.4,0.2,0-0.1l0,0c-0.4,0.3-0.8,0.6-1.2,0.9C20.6,136.6,21,136.3,21.4,136.1z"/>
						<path class="st1" d="M21.4,136.1c0.3-0.2,0.6-0.4,0.8-0.5C21.9,135.7,21.7,135.9,21.4,136.1z"/>
						<path class="st1" d="M20.9,137.5c-0.4,0.3-0.4,0.1-1.1,0.8c-0.8,0.8-1.6,1.5-2.3,2.3c-0.7,0.8-1.3,1.6-2.1,2.3
							c-0.7,0.7-1.7,1.8-2.3,2.6c-0.3,0.5-0.8,1.1-1.2,1.8c-0.4,0.7-0.8,1.4-1.1,2c-0.6,1.2-0.8,1.7,0,0.2c2.6-4.4,4.7-7,8-10.3
							c0.7-0.6,1.3-1.3,2-1.9l2.2-1.7c0.4-0.3,0.7-0.6,1.1-0.9l1.2-0.8c0.8-0.5,1.6-1,2.4-1.5c1-0.5,1.9-0.9,2.8-1.3
							c-0.6,0.3-1.2,0.5-1.9,0.8c-0.3,0.1-0.6,0.3-1,0.4c-0.3,0.2-0.6,0.4-1,0.5c-0.9,0.5-1.8,1.1-2.8,1.8
							C23.2,135.7,22.2,136.6,20.9,137.5z"/>
						<path class="st1" d="M46.7,126.7c-0.5,0.1-1.5,0.2-1.5,0.2c-0.6,0-1.1,0-1.7,0.1c-0.6,0.1-1.1,0.1-1.7,0.2
							c-0.6,0.1-1.1,0.2-1.7,0.3c-0.6,0.1-1.1,0.3-1.7,0.5c0.3,0,0.7-0.1,1-0.1c0.6-0.2,1-0.2,1-0.3c0.1,0-0.2,0-0.8,0.1
							c1.4-0.2,2.6-0.3,3.9-0.5c0.6-0.1,1.3-0.1,1.9-0.2c0.6,0,1.3-0.1,1.9-0.1C47.4,126.8,47.4,126.7,46.7,126.7z"/>
						<path class="st1" d="M49,126.8c-0.5,0-1,0.1-1.5,0.1c0,0,0,0,0.1,0C48.1,126.8,48.6,126.8,49,126.8L49,126.8z"/>
						<path class="st1" d="M11.7,146.7c-3.6,5.5-5.9,11.3-7,17.3c0,0.5,0,0.8-0.1,1.4c-0.1,0.5-0.2,0.9-0.3,1.4
							c-0.1,0.9-0.1,1.8-0.2,2.6c0,0.3,0,0.6,0,0.9c0,0,0,0,0,0c0,0.5,0,0.3,0.1,0c0-0.3,0.1-0.6,0.1-0.9c0,0.2-0.1,0.6-0.1,0.9
							c-0.1,0.4-0.1,0.9-0.1,1.4c0,0.8,0.1,1.6,0.1,2.5c-0.1-1-0.1-1.8-0.1-2.5c0-0.5,0-1,0-1.5c0-0.1,0-0.3,0-0.4c-0.2,2,0,4,0.1,6
							c0,0.5,0.1,0.9,0.2,1.2c0.3,1.4,0.5,2.8,0.5,3.8c0.1,0.3,0.2,0.7,0.3,1c0-0.1,0-0.1,0-0.2c0,0.2,0.1,0.3,0.1,0.4l0.6,2.2
							c0.1,0.4,0.2,0.7,0.3,1.1l0.4,1.1c0.4,0.9,0.8,1.9,1.2,2.8c0,0,0,0.2,0.1,0.4c0.1,0.2,0.2,0.4,0.2,0.6
							c0.2,0.3,0.5,0.9,0.8,1.5c-0.3-0.8-0.6-1.5-0.8-2.1c-0.3-1-1-2-1.2-3.2c0.2,1.2,0.9,2.3,1.2,3.2c0.2,0.6,0.5,1.3,0.8,2.1
							c0.4,0.6,0.6,1.4,1.1,2.1c0.4,0.7,0.8,1.5,1.2,2.1c-0.5-0.8-1-1.5-1.4-2.2c-0.4-0.7-0.6-1.4-0.9-2c-0.3-0.6-0.6-1.1-0.8-1.5
							c-0.1-0.2-0.1-0.4-0.2-0.6c-0.1-0.2-0.1-0.4-0.1-0.4c-0.4-0.9-0.8-1.9-1.2-2.8c0.5,1.4,0.9,2.8,1.6,4.2
							c0.7,1.4,1.2,2.8,2.1,4.1l0.9,1.6l0.5,0.8l0.5,0.7c0.7,1,1.4,2,2.2,2.9c0.8,0.9,1.6,1.8,2.4,2.7c0.8,0.9,1.8,1.7,2.6,2.5
							c3.6,3.2,7.7,5.8,12.1,7.7c8.9,3.7,19.1,4.8,29.1,2.2c10.9-2.7,20.2-9.3,26.3-18c3-4.3,5.2-9.1,6.6-14c0.7-2.5,1.1-5,1.4-7.5
							l0.2-3.8c0.1-0.6,0-1.3,0-1.9l-0.1-1.9c-0.3-5.1-1.5-10.1-3.4-14.9c-2-4.8-4.8-9.3-8.4-13.4c-0.3-0.4-0.7-0.8-1.1-1.2
							c-0.4-0.4-0.8-0.8-1.3-1.2c-0.5-0.4-0.9-0.9-1.4-1.3c-0.2-0.2-0.5-0.4-0.7-0.7c-0.3-0.2-0.5-0.4-0.8-0.6
							c-0.5-0.4-1.1-0.8-1.7-1.3c-0.6-0.4-1.1-0.9-1.8-1.2c-0.6-0.4-1.2-0.8-1.9-1.1c-0.6-0.4-1.2-0.8-1.9-1.1
							c-1.3-0.6-2.6-1.3-4-1.8c-1.4-0.5-2.7-1-4-1.4c-1.3-0.3-2.6-0.6-3.7-0.9c-1.2-0.3-2.3-0.4-3.3-0.5c-0.7-0.1-1.3-0.1-1.8-0.2
							c-0.5,0-1,0-1.5,0c-0.9,0-1.5,0.1-2,0.1c-1,0.1-1.3,0.3-1.2,0.4c0.1,0.3,1.6,0.7,1.8,0.7c0.8,0.1,1.6,0.3,2.3,0.4
							c0.8,0.1,1.5,0.3,2.3,0.5c0.8,0.2,1.5,0.3,2.4,0.5c0.8,0.2,1.6,0.4,2.5,0.7c1.8,0.4,3.6,1.2,5.9,2c1.1,0.5,2.2,1.1,3.4,1.7
							c1.2,0.6,2.4,1.5,3.8,2.4c-3.7-2.4-2.2-1.7,1,0.3c0.7,0.6,1.6,1.2,2.5,1.9c0.9,0.7,1.7,1.6,2.7,2.4c0.9,0.8,1.7,1.8,2.5,2.7
							c0.4,0.5,0.7,0.9,1.1,1.3c0.3,0.5,0.6,0.9,0.9,1.4c0.4,0.6,0.8,1.3,1.2,1.9c0.4,0.6,0.8,1.4,1.2,2.1c0.4,0.7,0.8,1.4,1.2,2.2
							c0.3,0.8,0.7,1.5,1.1,2.3c0.2,0.4,0.4,0.8,0.5,1.2c0.2,0.4,0.3,0.8,0.5,1.2c0.3,0.8,0.6,1.7,0.9,2.5c0.3,0.8,0.5,1.8,0.7,2.6
							c0.2,0.9,0.5,1.8,0.6,2.7c0.3,1.8,0.7,3.7,0.7,5.6c0,0.9,0.2,1.9,0.1,2.8l-0.1,2.9c0,0.5,0,1-0.1,1.4l-0.2,1.4
							c-0.1,0.9-0.3,1.9-0.4,2.8c-0.2,0.9-0.5,1.8-0.7,2.7c-0.1,0.4-0.2,0.9-0.4,1.3c-0.1,0.4-0.3,0.9-0.5,1.3
							c-0.3,0.8-0.6,1.7-1,2.6c-0.4,0.9-0.8,1.7-1.2,2.6c-0.2,0.4-0.4,0.9-0.6,1.3c-0.2,0.4-0.5,0.9-0.8,1.3c-0.5,0.9-1,1.8-1.7,2.7
							c-6.5,9.2-16.1,15.6-26.8,17.9c-10.7,2.3-22.5,0.6-32.5-5.8c-5.3-3.4-9.4-7.2-12.5-11.5c-0.6-0.7-1.1-1.6-1.6-2.5
							c-0.3-0.4-0.5-0.8-0.8-1.3l-0.4-0.6l-0.3-0.7c-0.8-1.7-1.6-3.4-2.1-4.9c-0.9-2.3-1.4-4.6-2-6.7c-0.3-2.2-0.8-4.2-0.9-6.3
							c0,2.3,0.5,4.2,0.8,6.3c0.2,1,0.5,2,0.8,3.1c0.2,0.5,0.3,1.1,0.5,1.6c0.2,0.6,0.4,1.1,0.6,1.7c0.6,1.6,0.3,1.1-0.2-0.1
							c-0.3-0.6-0.6-1.3-0.9-2.1c-0.2-0.8-0.5-1.5-0.6-2.1c-0.1-0.5-0.3-1.1-0.4-1.7c-0.1-0.6-0.1-1.2-0.2-1.7c-0.2-1-0.3-2-0.5-3
							c-0.1-1-0.2-2.1-0.3-3.2c-0.1-1,0.1-0.9,0.1-1.3c0.1-1.5,0-2.9,0-4.1c0.1-1.2,0.2-2.3,0.4-3.3c0.2-1.5,0.7-2.8,1-4
							c0.2-0.8,0.4-1.6,0.7-2.4c0.2-0.5,0.3-1.1,0.5-1.6c-0.2,0.4-0.4,0.5-0.5,0.6c0.3-0.8,0.7-1.9,1.1-2.6
							c-0.4,0.7-0.8,1.8-1.1,2.6c0.1-0.1,0.3-0.2,0.5-0.6c0.2-0.5,0.3-1,0.5-1.5c0.2-0.5,0.4-1,0.6-1.5c0.5-1,0.9-2,1.4-3
							c0.6-1,1.1-2,1.7-2.9c0.6-1,1.3-1.8,1.9-2.8l-0.1,0c-1.6,2-2.9,4.2-4.3,6.4c0.3-0.5,0.4-0.7,0.4-0.7c0,0.1-0.2,0.4-0.4,1
							c-0.2,0.3-0.4,0.6-0.5,0.9c0.2-0.5,0.5-1.1,0.7-1.6c0.3-0.5,0.6-1,0.9-1.5c0.6-1,1.1-1.9,1.9-2.8c0,0,0.5-0.8,0.8-1.2
							c0.5-0.6,0.5-0.5,0.6-0.6c0.3-0.4,0.6-0.8,0.9-1.2c-0.4,0.4-1.1,1.2-1.7,2c-0.3,0.4-0.6,0.7-0.8,1
							C11.8,146.5,11.7,146.7,11.7,146.7z"/>
						<path class="st1" d="M4,171.8c0-0.4,0-0.8,0-1.2L4,171.8l0,1.3l0.1,2.5C4.2,174.7,4.1,173.3,4,171.8z"/>
					</g>
				</g>
			</g>
		</g>
	</g>
</g>
<g>
	<polygon class="st1" points="73.8,144.3 41.3,165.3 52.9,176.9 	"/>
	<g>
		<g>
			<g>
				<g class="st0">
					<g>
						<path class="st1" d="M69.4,150.6l-0.5,0.8c0.1-0.1,0.2-0.2,0.3-0.4C69.3,150.9,69.3,150.8,69.4,150.6z"/>
						<path class="st1" d="M68.4,152.1c0,0-0.1,0.1-0.1,0.1c0,0,0,0.1-0.1,0.1L68.4,152.1z"/>
						<path class="st1" d="M67.5,153.5c0.2-0.2,0.3-0.5,0.4-0.7C67.8,153,67.7,153.2,67.5,153.5z"/>
						<path class="st1" d="M68.3,152.5C68.2,152.5,68.1,152.6,68.3,152.5L68.3,152.5c-0.2,0.1-0.2,0.2-0.3,0.4
							C68.1,152.7,68.2,152.6,68.3,152.5z"/>
						<path class="st1" d="M68.3,152.5c0.1-0.1,0.2-0.2,0.2-0.2C68.4,152.3,68.4,152.4,68.3,152.5z"/>
						<path class="st1" d="M68.8,153.3c-0.1,0.2-0.2,0-0.4,0.3c-0.4,0.7-0.6,1.3-1,1.9c-0.1,0.3-0.6,0.6-0.8,0.9
							c-0.4,0.7-1.1,2.5-0.5,1.5c0.9-1.5,1.5-2.5,2.3-3.8c0.6-1.1,1.2-2.2,1.8-3.3c0.2-0.3,0.4-0.6,0.6-0.9
							c-0.3,0.4-0.5,0.7-0.9,1.1C69.5,151.5,69.3,152.4,68.8,153.3z"/>
						<path class="st1" d="M73.2,144.9c-0.1,0.2-0.2,0.5-0.2,0.5c-0.5,0.5-0.9,1.2-1.2,1.9L72,147c0.2-0.4,0.2-0.5-0.1-0.2
							c0.6-0.7,1.1-1.4,1.5-2.1C73.4,144.7,73.4,144.7,73.2,144.9z"/>
						<path class="st1" d="M73.8,144.3c-0.1,0.1-0.2,0.3-0.3,0.4c0,0,0,0,0,0C73.6,144.6,73.7,144.4,73.8,144.3L73.8,144.3z"/>
						<path class="st1" d="M65.8,156.6c-1.2,1.8-2.3,3.5-3.4,5.2c0,0.2-0.1,0.3-0.2,0.4c-0.1,0.1-0.2,0.2-0.3,0.3l-0.5,0.7
							c0,0.1-0.1,0.2-0.2,0.3l0,0c-0.1,0.2,0,0.1,0.1,0.1c0.1-0.1,0.2-0.2,0.2-0.2c-0.1,0-0.2,0.1-0.2,0.2c-0.1,0.1-0.2,0.2-0.3,0.4
							c-0.1,0.2-0.3,0.5-0.4,0.7c0.1-0.3,0.3-0.5,0.4-0.7c0.1-0.1,0.2-0.3,0.2-0.4l0.1-0.1c-0.4,0.6-0.7,1.1-1.1,1.7
							c-0.1,0.1-0.1,0.3-0.2,0.4c-0.2,0.4-0.5,0.8-0.7,1l-0.2,0.3l0.1,0c0,0-0.1,0.1-0.1,0.1c-0.3,0.4-0.6,0.8-0.8,1.3
							c-0.1,0.3-0.3,0.6-0.4,0.9c0,0-0.2,0.1-0.3,0.2c0,0.1-0.1,0.3-0.2,0.5c0.2-0.2,0.4-0.4,0.6-0.5c0.3-0.2,0.2-0.8,0.6-1
							c-0.4,0.2-0.3,0.8-0.6,1c-0.2,0.2-0.4,0.3-0.6,0.5c-0.2,0.4-0.6,0.9-1,1.3c0.2-0.6,0.6-1,1-1.3c0.1-0.2,0.2-0.4,0.2-0.5
							c0.1-0.1,0.3-0.2,0.3-0.2c0.2-0.3,0.3-0.6,0.4-0.9c-0.5,0.8-1.1,1.6-1.7,2.5c-1.3,1.9-2.5,3.8-3.8,5.7c-2.6-2.7-5.2-5.3-8-8.2
							c-0.5-0.5-1-1.1-1.5-1.6c-0.3-0.3-0.6-0.7-1-1l0.8-0.5c0.4-0.2,0.8-0.5,1.2-0.7c0.9-0.5,1.8-1.1,2.7-1.6
							c5.9-3.5,11.1-7.2,17.2-10.5c2.4-1.3,6.5-4.1,8.6-5.5c2.7-2.2,0.6-2.1,0.5-2.1c-2.3,0.4-3.4,1.7-7.3,3.6
							c2.6-1.4-1.5,1.7-4.2,2.7c-3.9,1.4-8.3,5.1-12.6,7.6c-1.1,0.6-2.2,1.4-3.4,2.2c-0.9,0.6-1.8,1.1-2.7,1.6
							c-1.4,0.9-2.8,1.8-4.2,2.7c1.4,1.4,2.8,2.8,4.2,4.2c1,0.9,1.9,1.9,2.9,2.8c1,0.9,1.9,1.9,2.9,2.9c1.4,1.4,2.8,2.8,4.2,4.2
							c0.1-0.1,0.2-0.3,0.3-0.4c0.6-0.9,1.1-1.7,1.6-2.5c0.3-0.5,0.5-0.9,0.7-1.3c0.5-0.8,0.9-1.7,1.3-2.5c0.7-1.1,1.5-2.3,2.1-3.2
							c0.9-1.4,1.6-2.7,2.3-3.9c-0.8,1.3-1.4,2.3-2.3,3.8c-0.6,1,0.2-0.8,0.5-1.5c0.1-0.3,0.6-0.6,0.8-0.9c0.4-0.6,0.6-1.2,1-1.9
							c0.1-0.3,0.3-0.1,0.4-0.3c0.5-0.9,0.7-1.7,1.1-2.3c0.3-0.4,0.6-0.8,0.9-1.1c0.2-0.2,0.3-0.5,0.5-0.7c0.1-0.2,0.2-0.3,0.3-0.5
							c-0.1,0.1-0.2,0.1-0.4,0.1c0.2-0.2,0.4-0.5,0.6-0.7c-0.2,0.2-0.4,0.5-0.6,0.7c0.1,0,0.2,0,0.4-0.1c0.6-1.2,1.4-2.6,2.1-3.9
							l0,0c-0.4,0.7-0.9,1.4-1.5,2.1c0.3-0.3,0.3-0.2,0.1,0.2l-0.3,0.2c0.4-0.7,0.7-1.4,1.2-1.9c0,0,0.1-0.3,0.2-0.5
							c0.2-0.2,0.2-0.1,0.3-0.1c0.1-0.1,0.2-0.3,0.3-0.4C66.6,155.7,65.8,156.6,65.8,156.6z"/>
						<path class="st1" d="M61.1,164c0.1-0.1,0.1-0.2,0.2-0.4l-0.9,1.4C60.6,164.8,60.8,164.4,61.1,164z"/>
					</g>
				</g>
			</g>
		</g>
	</g>
</g>
<g>
	<g>
		<g>
			<g>
				<g class="st0">
					<g>
						<path class="st1" d="M22.6,193.6l0.6-0.8c-0.1,0.1-0.2,0.3-0.4,0.4C22.7,193.3,22.6,193.5,22.6,193.6z"/>
						<path class="st1" d="M23.7,192c0,0,0.1-0.1,0.1-0.1c0,0,0-0.1,0.1-0.1L23.7,192z"/>
						<path class="st1" d="M24.6,190.5c-0.2,0.2-0.3,0.5-0.5,0.7C24.3,191.1,24.4,190.8,24.6,190.5z"/>
						<path class="st1" d="M23.8,191.7C23.9,191.6,23.9,191.6,23.8,191.7L23.8,191.7c0.2-0.1,0.2-0.2,0.3-0.4
							C24,191.4,23.9,191.6,23.8,191.7z"/>
						<path class="st1" d="M23.8,191.7c-0.1,0.1-0.2,0.2-0.3,0.2C23.6,191.8,23.7,191.7,23.8,191.7z"/>
						<path class="st1" d="M23.3,190.8c0.1-0.2,0.3,0,0.4-0.3c0.4-0.7,0.7-1.4,1.1-2c0.1-0.3,0.7-0.6,0.8-0.9
							c0.4-0.7,1.3-2.6,0.6-1.6c-1,1.6-1.6,2.6-2.5,4c-0.7,1.2-1.3,2.3-2,3.5c-0.2,0.3-0.4,0.6-0.6,0.9c0.3-0.4,0.6-0.8,0.9-1.2
							C22.5,192.7,22.8,191.8,23.3,190.8z"/>
						<path class="st1" d="M18.3,199.7c0.1-0.2,0.2-0.5,0.2-0.5c0.6-0.6,1-1.3,1.4-2l-0.3,0.2c-0.3,0.4-0.2,0.5,0.1,0.2
							c-0.7,0.7-1.2,1.4-1.7,2.2C18.1,199.8,18.2,199.9,18.3,199.7z"/>
						<path class="st1" d="M17.7,200.3c0.1-0.2,0.2-0.3,0.3-0.5c0,0,0,0,0,0C17.9,200,17.8,200.2,17.7,200.3L17.7,200.3z"/>
						<path class="st1" d="M26.5,187.3c1.3-1.9,2.5-3.7,3.7-5.5c0.1-0.2,0.1-0.3,0.2-0.5c0.1-0.1,0.2-0.2,0.4-0.4l0.5-0.8
							c0.1-0.1,0.1-0.2,0.2-0.3l0,0c0.1-0.2,0-0.1-0.1-0.1c-0.1,0.1-0.2,0.2-0.3,0.2c0.1,0,0.2-0.1,0.3-0.2c0.1-0.1,0.2-0.2,0.3-0.4
							c0.1-0.2,0.3-0.5,0.5-0.7c-0.2,0.3-0.3,0.5-0.5,0.7c-0.1,0.2-0.2,0.3-0.3,0.5l-0.1,0.1c0.4-0.6,0.8-1.2,1.2-1.8
							c0.1-0.1,0.2-0.3,0.2-0.4c0.3-0.4,0.5-0.9,0.8-1.1l0.2-0.3l-0.1,0c0,0,0.1-0.1,0.1-0.1c0.3-0.4,0.6-0.9,0.9-1.3
							c0.2-0.3,0.3-0.6,0.5-1c0,0,0.2-0.2,0.3-0.2c0-0.2,0.1-0.4,0.2-0.6c-0.2,0.2-0.4,0.4-0.6,0.6c-0.3,0.2-0.3,0.8-0.7,1
							c0.4-0.2,0.4-0.8,0.7-1c0.2-0.2,0.4-0.4,0.6-0.6c0.2-0.4,0.7-1,1-1.3c-0.3,0.6-0.7,1-1,1.3c-0.1,0.2-0.2,0.4-0.2,0.6
							c-0.1,0.1-0.3,0.2-0.3,0.2c-0.2,0.3-0.3,0.6-0.5,1c0.6-0.9,1.2-1.7,1.8-2.6c1.6-2.2,3.1-4.4,4.6-6.6c2.6,2.7,5.3,5.5,8.1,8.4
							c0.5,0.5,1,1,1.5,1.5c0.3,0.3,0.6,0.7,0.9,1c-0.3,0.2-0.6,0.4-0.9,0.6c-0.5,0.3-1,0.6-1.5,1c-1,0.6-2,1.3-3,1.9
							c-6.3,3.9-11.7,7.9-18.3,11.5c-2.5,1.4-6.9,4.5-9.2,6c-2.9,2.4-0.7,2.2-0.5,2.1c2.4-0.5,3.6-1.9,7.7-4.1
							c-2.8,1.5,1.6-1.8,4.4-2.9c4.1-1.6,8.8-5.7,13.4-8.4c1.1-0.7,2.3-1.5,3.6-2.4c1-0.6,2.1-1.3,3.1-1.9c0.5-0.3,1-0.7,1.6-1
							c1-0.7,2-1.3,3-2c-1.4-1.4-2.7-2.8-4.1-4.2c-1-0.9-1.9-1.9-2.9-2.8c-1-1-1.9-1.9-2.9-2.9c-1.4-1.4-2.8-2.8-4.2-4.2
							c-0.3,0.5-0.7,1-1,1.5c-0.3,0.5-0.6,0.9-0.9,1.4c-0.2,0.3-0.3,0.5-0.5,0.8c-0.3,0.5-0.5,0.9-0.8,1.4c-0.5,0.9-1,1.8-1.5,2.6
							c-0.8,1.2-1.7,2.4-2.3,3.3c-1,1.5-1.8,2.8-2.5,4.1c0.9-1.4,1.5-2.4,2.5-4c0.7-1-0.2,0.9-0.6,1.6c-0.2,0.3-0.7,0.6-0.8,1
							c-0.4,0.6-0.7,1.3-1.1,2c-0.2,0.3-0.3,0.2-0.4,0.3c-0.6,1-0.8,1.8-1.3,2.4c-0.3,0.4-0.6,0.8-0.9,1.2c-0.2,0.2-0.4,0.5-0.5,0.8
							c-0.1,0.2-0.2,0.4-0.3,0.5c0.2-0.1,0.3-0.1,0.4-0.1c-0.2,0.2-0.4,0.6-0.6,0.8c0.2-0.2,0.4-0.6,0.6-0.8c-0.1,0-0.2,0-0.4,0.1
							c-0.7,1.3-1.5,2.8-2.3,4.1l0,0c0.5-0.8,1-1.5,1.7-2.2c-0.3,0.3-0.3,0.2-0.1-0.2l0.3-0.2c-0.4,0.7-0.8,1.4-1.4,2
							c0,0-0.2,0.3-0.2,0.5c-0.2,0.2-0.2,0.1-0.3,0.2c-0.1,0.2-0.2,0.3-0.3,0.5C25.7,188.2,26.5,187.3,26.5,187.3z"/>
						<path class="st1" d="M31.8,179.5c-0.1,0.1-0.1,0.2-0.2,0.4l1-1.5C32.3,178.6,32.1,179,31.8,179.5z"/>
					</g>
				</g>
			</g>
		</g>
	</g>
</g>
<g>
	<g>
		<g>
			<g>
				<g class="st0">
					<g>
						<path class="st1" d="M25.4,136.6c-0.8,0.5-1.5,0.9-2.3,1.4c0.4-0.2,0.8-0.4,1.2-0.6C24.9,137,25.1,136.8,25.4,136.6z"/>
						<path class="st1" d="M21.1,139.4c-0.1,0.1-0.3,0.2-0.4,0.3c-0.1,0.1-0.2,0.2-0.3,0.3L21.1,139.4z"/>
						<path class="st1" d="M17.6,142.4c0.6-0.5,1.2-1.1,1.7-1.6C18.8,141.2,18.2,141.7,17.6,142.4z"/>
						<path class="st1" d="M20.4,140c-0.3,0.1-0.4,0.2,0-0.1l0,0c-0.4,0.3-0.7,0.6-1.1,0.9C19.7,140.5,20.1,140.2,20.4,140z"/>
						<path class="st1" d="M20.4,140c0.2-0.1,0.6-0.4,0.7-0.4C21,139.7,20.7,139.9,20.4,140z"/>
						<path class="st1" d="M20,141.4c-0.3,0.3-0.4,0.1-1,0.7c-0.8,0.8-1.5,1.4-2.2,2.1c-0.6,0.7-1.3,1.5-1.9,2.2
							c-0.6,0.7-1.6,1.7-2.1,2.5c-0.3,0.5-0.8,1-1.1,1.7c-0.4,0.7-0.7,1.4-1,1.9c-0.6,1.1-0.8,1.6,0,0.2c2.4-4.2,4.5-6.6,7.5-9.6
							C18.9,142.5,19.5,141.9,20,141.4l2.1-1.7c0.3-0.3,0.7-0.6,1-0.8l1.1-0.7c0.7-0.5,1.5-1,2.3-1.4c0.9-0.5,1.8-0.8,2.6-1.2
							c-0.6,0.3-1.1,0.5-1.7,0.8c-0.3,0.1-0.6,0.3-0.9,0.4c-0.3,0.2-0.6,0.3-0.9,0.5c-0.8,0.5-1.7,1-2.6,1.7
							C22.2,139.7,21.2,140.5,20,141.4z"/>
						<path class="st1" d="M44.2,131.2c-0.5,0-1.4,0.2-1.4,0.2c-0.5,0-1,0-1.6,0.1c-0.5,0.1-1.1,0.1-1.6,0.2
							c-0.5,0.1-1.1,0.2-1.6,0.3c-0.5,0.1-1,0.3-1.6,0.4c0.3,0,0.6-0.1,1-0.1c0.6-0.2,0.9-0.2,1-0.3c0.1,0-0.2-0.1-0.7,0.1
							c1.3-0.2,2.5-0.3,3.7-0.5c0.6-0.1,1.2-0.1,1.8-0.2c0.6,0,1.2-0.1,1.8-0.1C44.9,131.3,44.9,131.2,44.2,131.2z"/>
						<path class="st1" d="M46.4,131.3c-0.5,0-1,0.1-1.4,0.1c0,0,0,0,0.1,0C45.6,131.3,46,131.3,46.4,131.3L46.4,131.3z"/>
						<path class="st1" d="M11.3,150c-3.4,5.1-5.5,10.7-6.5,16.2c0,0.4,0,0.7-0.1,1.3c-0.1,0.4-0.2,0.9-0.3,1.3
							c-0.1,0.8-0.1,1.7-0.2,2.5c0,0.3,0,0.6,0,0.9c0,0,0,0,0,0c0,0.5,0,0.3,0.1,0c0-0.3,0.1-0.6,0.1-0.9c0,0.2-0.1,0.6-0.1,0.9
							c-0.1,0.4-0.1,0.8-0.1,1.3c0,0.8,0.1,1.5,0.1,2.4c-0.1-0.9-0.1-1.7-0.1-2.4c0-0.5,0-0.9,0-1.4c0-0.1,0-0.3,0-0.4
							c-0.2,1.9,0,3.8,0.1,5.6c0,0.4,0.1,0.8,0.1,1.2c0.2,1.3,0.5,2.7,0.5,3.5c0.1,0.3,0.2,0.7,0.2,1l0-0.2c0,0.1,0.1,0.3,0.1,0.4
							l0.5,2.1c0.1,0.3,0.2,0.7,0.3,1l0.4,1c0.4,0.9,0.7,1.7,1.1,2.6c0,0,0,0.2,0.1,0.3c0.1,0.2,0.1,0.4,0.2,0.6
							c0.2,0.3,0.5,0.8,0.8,1.4c-0.3-0.7-0.5-1.4-0.7-2c-0.3-0.9-1-1.9-1.2-3c0.2,1.1,0.9,2.1,1.2,3c0.2,0.6,0.5,1.3,0.7,2
							c0.3,0.6,0.6,1.3,1,2c0.4,0.7,0.8,1.4,1.1,2c-0.5-0.7-0.9-1.4-1.3-2.1c-0.4-0.6-0.6-1.3-0.8-1.9c-0.3-0.6-0.6-1.1-0.8-1.4
							c-0.1-0.2-0.1-0.4-0.2-0.6c-0.1-0.2-0.1-0.3-0.1-0.3c-0.4-0.9-0.7-1.8-1.1-2.6c0.5,1.3,0.9,2.7,1.5,3.9c0.6,1.3,1.2,2.6,2,3.8
							l0.9,1.5l0.4,0.7l0.5,0.7c0.7,0.9,1.4,1.9,2.1,2.8c0.8,0.9,1.5,1.7,2.3,2.5c0.8,0.8,1.7,1.6,2.5,2.3c3.4,3,7.3,5.4,11.4,7.2
							c8.4,3.4,17.9,4.5,27.4,2c10.2-2.6,19-8.8,24.8-16.9c2.9-4.1,4.9-8.6,6.2-13.2c0.7-2.3,1-4.7,1.3-7.1l0.2-3.6
							c0.1-1.2-0.1-2.4-0.1-3.6c-0.3-4.8-1.4-9.5-3.2-14c-1.9-4.5-4.5-8.8-7.9-12.6c-0.3-0.4-0.7-0.8-1-1.2
							c-0.4-0.4-0.8-0.8-1.2-1.2c-0.4-0.4-0.9-0.8-1.3-1.2c-0.2-0.2-0.5-0.4-0.7-0.6c-0.3-0.2-0.5-0.4-0.8-0.6
							c-0.5-0.4-1-0.8-1.6-1.2c-0.5-0.4-1.1-0.8-1.7-1.2c-0.6-0.4-1.2-0.7-1.8-1.1c-0.6-0.4-1.2-0.7-1.8-1c-1.3-0.6-2.5-1.3-3.8-1.7
							c-1.3-0.5-2.5-0.9-3.7-1.3c-1.2-0.3-2.4-0.6-3.5-0.9c-1.1-0.2-2.2-0.3-3.1-0.5c-0.6-0.1-1.2-0.1-1.7-0.2c-0.5,0-1,0-1.4,0
							c-0.8,0-1.4,0.1-1.9,0.1c-0.9,0.1-1.2,0.3-1.1,0.4c0.1,0.3,1.5,0.7,1.7,0.7c0.7,0.1,1.5,0.3,2.2,0.4c0.7,0.1,1.4,0.3,2.1,0.5
							c0.7,0.2,1.4,0.3,2.2,0.4c0.8,0.2,1.5,0.4,2.3,0.6c1.7,0.4,3.4,1.1,5.5,1.9c1,0.5,2.1,1,3.2,1.6c1.1,0.6,2.3,1.4,3.5,2.2
							c-3.4-2.2-2-1.6,0.9,0.3c0.7,0.5,1.5,1.1,2.4,1.8c0.9,0.6,1.6,1.5,2.5,2.3c0.9,0.8,1.6,1.7,2.3,2.5c0.4,0.4,0.7,0.8,1,1.3
							c0.3,0.4,0.6,0.9,0.8,1.3c3,4.7,6.1,10.7,7.4,17.6c0.3,1.7,0.6,3.5,0.6,5.3c0,0.9,0.1,1.8,0.1,2.7l-0.1,2.7
							c0,0.4,0,0.9-0.1,1.3l-0.2,1.3c-0.1,0.9-0.3,1.7-0.4,2.6c-0.2,0.8-0.4,1.7-0.7,2.5l-0.3,1.2c-0.1,0.4-0.3,0.8-0.5,1.2
							c-0.3,0.8-0.6,1.6-0.9,2.4c-0.3,0.8-0.8,1.6-1.2,2.4c-0.2,0.4-0.4,0.8-0.6,1.3c-0.2,0.4-0.5,0.8-0.7,1.2
							c-0.5,0.8-1,1.7-1.6,2.5c-6.1,8.6-15.1,14.6-25.2,16.7c-10,2.2-21.1,0.6-30.5-5.4c-4.9-3.2-8.8-6.8-11.8-10.8
							c-0.6-0.7-1-1.5-1.5-2.3c-0.5-0.8-1-1.6-1.3-2.4c-0.8-1.6-1.5-3.2-2-4.6c-0.9-2.2-1.4-4.3-1.9-6.3c-0.3-2-0.8-4-0.8-5.9
							c0,2.2,0.5,4,0.8,5.9c0.2,0.9,0.5,1.9,0.8,2.9c0.1,0.5,0.2,1,0.4,1.5c0.2,0.5,0.4,1.1,0.6,1.6c0.6,1.5,0.3,1-0.2-0.1
							c-0.2-0.6-0.6-1.3-0.8-2c-0.2-0.7-0.4-1.4-0.6-1.9c-0.1-0.4-0.2-1-0.3-1.6c-0.1-0.6-0.1-1.2-0.2-1.6c-0.2-1-0.3-1.9-0.5-2.9
							c-0.1-1-0.2-2-0.3-3c-0.1-0.9,0.1-0.8,0.1-1.3c0-1.4,0-2.7,0-3.9c0.1-1.2,0.2-2.2,0.4-3.1c0.2-1.4,0.6-2.6,1-3.8
							c0.2-0.8,0.4-1.5,0.7-2.3c0.2-0.5,0.3-1,0.5-1.5c-0.2,0.4-0.4,0.5-0.5,0.6c0.3-0.7,0.7-1.7,1-2.4c-0.3,0.7-0.7,1.7-1,2.4
							c0.1-0.1,0.3-0.2,0.5-0.6c0.1-0.5,0.3-0.9,0.5-1.4c0.2-0.5,0.4-0.9,0.6-1.4c0.4-0.9,0.8-1.9,1.3-2.8c0.5-0.9,1-1.8,1.6-2.8
							c0.5-0.9,1.2-1.7,1.8-2.6l-0.1,0c-1.5,1.9-2.7,3.9-4.1,6.1c0.3-0.5,0.4-0.7,0.4-0.6c0,0.1-0.2,0.4-0.4,0.9
							c-0.2,0.3-0.3,0.5-0.5,0.8c0.2-0.5,0.4-1,0.7-1.5c0.2-0.5,0.5-0.9,0.8-1.4c0.6-0.9,1.1-1.8,1.8-2.6c0,0,0.5-0.8,0.8-1.2
							c0.4-0.5,0.5-0.5,0.6-0.5c0.3-0.4,0.6-0.8,0.8-1.2C13.4,147.5,11.3,150,11.3,150z"/>
						<path class="st1" d="M4.1,173.6c0-0.3,0-0.7,0-1.2L4.1,173.6l0,1.2l0.1,2.4C4.3,176.3,4.2,175,4.1,173.6z"/>
					</g>
				</g>
			</g>
		</g>
	</g>
</g>
<path class="st2" d="M210.2,7.2c-25.7,23.2,3.6,42.3-18.6,61.2C161.2,94.5,25.3,45.3,45.3,118.8"/>
<g>
	<g>
		<g>
			<g>
				<g class="st0">
					<g>
						<path class="st1" d="M47.7,137.1C47.7,137,47.7,137,47.7,137.1C47.7,137,47.7,137,47.7,137.1C47.6,137,47.7,137.1,47.7,137.1z
							"/>
						<path class="st1" d="M47.8,136.9C47.8,136.9,47.8,136.9,47.8,136.9C47.8,136.9,47.7,136.9,47.8,136.9
							C47.7,136.9,47.8,136.9,47.8,136.9z"/>
						<path class="st1" d="M47.7,136.8C47.7,136.8,47.7,136.9,47.7,136.8C47.7,136.9,47.7,136.8,47.7,136.8z"/>
						<path class="st1" d="M47.6,136.9c0,0,0.1,0,0.1,0c0,0,0,0,0,0C47.7,136.9,47.7,136.9,47.6,136.9
							C47.7,136.9,47.7,136.9,47.6,136.9z"/>
						<path class="st1" d="M47.6,136.9C47.6,136.9,47.6,136.9,47.6,136.9C47.6,136.9,47.6,136.9,47.6,136.9z"/>
						<path class="st1" d="M46.8,136.9c0,0,0.2,0,0.2,0c-0.1-0.1-0.2-0.1-0.2-0.1c-0.1,0,0.2-0.1,0.2-0.1c-0.1-0.1-0.4-0.2-0.4-0.1
							C46.6,136.6,46.7,136.7,46.8,136.9c0,0,0.1,0.1,0.2,0.2c0,0,0,0,0,0.1c0,0,0.1-0.1,0.1-0.1C47.2,137,46.8,137,46.8,136.9z"/>
						<path class="st1" d="M47.6,137.5C47.6,137.5,47.5,137.5,47.6,137.5c0.1-0.1,0-0.1,0-0.2c0,0-0.1,0-0.1,0c0,0,0.1,0,0.1,0
							c-0.1,0.1-0.2,0.1-0.1,0.2C47.5,137.6,47.6,137.6,47.6,137.5z"/>
						<path class="st1" d="M47.4,137.6C47.4,137.6,47.4,137.6,47.4,137.6C47.4,137.6,47.4,137.6,47.4,137.6
							C47.4,137.6,47.4,137.6,47.4,137.6C47.4,137.6,47.4,137.6,47.4,137.6z"/>
						<path class="st1" d="M47.5,136.6c0-0.2,0-0.3,0-0.4c0,0-0.1,0-0.1,0c0,0,0.1,0,0.1,0c0,0,0,0,0-0.1c0,0,0,0,0,0c0,0,0,0,0,0
							c0,0-0.1,0-0.1,0c0,0-0.1,0-0.1,0c0,0,0.1,0,0.1,0c0,0,0.1,0,0.1,0c0,0,0,0,0-0.1c0,0,0,0,0,0.1c0,0,0,0,0,0c0,0,0,0,0,0
							c0,0,0-0.1,0-0.1c0,0,0,0,0,0c0,0-0.1-0.1,0.1-0.1c0,0,0,0,0,0c0,0,0,0,0,0c0,0,0,0,0,0c0,0,0-0.1,0-0.1c0,0-0.1,0-0.1-0.1
							c0,0,0.1,0,0.1,0c-0.1,0-0.1,0-0.1,0c-0.1,0-0.2,0-0.2,0.1c-0.1,0,0.2,0.1,0,0.1c0.2,0-0.1-0.1,0-0.1c0,0,0.1,0,0.2-0.1
							c0,0,0-0.1,0.1-0.1c0.1,0,0,0.1-0.1,0.1c0,0,0.1,0,0.1,0c0,0-0.1,0-0.1,0c0,0,0.1,0,0.1,0.1c0-0.1,0-0.1,0.1-0.2
							c0.2-0.5,0.1-0.9,0.2-1.3c0.1-0.3,0.2-0.5,0.3-0.7c0.3-0.5,0-0.9,0.6-1.4c0.2-0.2,0.1-0.5,0.1-0.7c-0.4-0.2-1.4-0.1-1.5-0.1
							c-0.9,0.1-0.4,0.3-0.9,0.6c0.3-0.2,0.6,0.2,0,0.3c-0.9,0.3-0.2,0.7-0.4,1c-0.1,0.1,0,0.2,0,0.3c-0.3,0.5,0.1,1,0,1.6
							c0,0.1,0.2,0.3,0.3,0.4c0,0.1-0.1,0.2-0.1,0.3c0,0.1,0.1,0.2,0.2,0.3c0-0.1-0.1-0.2-0.1-0.3c0-0.1,0.3,0.1,0.4,0.1
							c0.1,0-0.2,0.1-0.2,0.1c0,0,0.1,0.1,0.2,0.1c0.1,0-0.2,0-0.2,0c0.1,0.1,0.4,0.1,0.3,0.2c0,0-0.1,0.1-0.1,0.1c0,0,0,0,0,0.1
							c0,0,0,0,0.1,0c0.1,0,0.2,0,0.3,0c0,0-0.1,0-0.1,0.1c0,0,0.1,0,0.1-0.1c-0.1,0-0.2,0-0.3,0c0.1,0.1,0.3,0.2,0.4,0.3
							c0,0,0,0,0,0c0-0.1,0-0.1,0.1-0.2c-0.1,0-0.1,0-0.1,0c0,0,0.1,0,0.1,0c0.1,0.1,0.1,0.1,0,0.2c0,0,0.1,0,0.1,0c0,0-0.1,0-0.2,0
							c0,0,0,0,0,0C47.3,136.7,47.5,136.6,47.5,136.6z"/>
						<path class="st1" d="M47.5,136C47.5,136,47.5,136,47.5,136C47.5,136,47.5,135.9,47.5,136C47.4,135.9,47.4,135.9,47.5,136z"/>
					</g>
				</g>
			</g>
		</g>
	</g>
</g>
<g>
	<g>
		<g>
			<g>
				<g class="st0">
					<g>
						<path class="st1" d="M47.7,214.9C47.7,214.8,47.7,214.8,47.7,214.9C47.7,214.8,47.7,214.8,47.7,214.9
							C47.6,214.8,47.7,214.9,47.7,214.9z"/>
						<path class="st1" d="M47.8,214.7C47.8,214.7,47.8,214.7,47.8,214.7C47.8,214.7,47.7,214.7,47.8,214.7
							C47.7,214.7,47.8,214.7,47.8,214.7z"/>
						<path class="st1" d="M47.7,214.6C47.7,214.6,47.7,214.7,47.7,214.6C47.7,214.7,47.7,214.6,47.7,214.6z"/>
						<path class="st1" d="M47.6,214.7c0,0,0.1,0,0.1,0c0,0,0,0,0,0C47.7,214.7,47.7,214.7,47.6,214.7
							C47.7,214.7,47.7,214.7,47.6,214.7z"/>
						<path class="st1" d="M47.6,214.7C47.6,214.7,47.6,214.7,47.6,214.7C47.6,214.7,47.6,214.7,47.6,214.7z"/>
						<path class="st1" d="M46.8,214.7c0,0,0.2,0,0.2,0c-0.1-0.1-0.2-0.1-0.2-0.1c-0.1,0,0.2-0.1,0.2-0.1c-0.1-0.1-0.4-0.2-0.4-0.1
							C46.6,214.4,46.7,214.5,46.8,214.7c0,0,0.1,0.1,0.2,0.2c0,0,0,0,0,0.1c0,0,0.1-0.1,0.1-0.1C47.2,214.8,46.8,214.8,46.8,214.7z
							"/>
						<path class="st1" d="M47.6,215.3C47.6,215.3,47.5,215.3,47.6,215.3c0.1-0.1,0-0.1,0-0.2c0,0-0.1,0-0.1,0c0,0,0.1,0,0.1,0
							c-0.1,0.1-0.2,0.1-0.1,0.2C47.5,215.4,47.6,215.4,47.6,215.3z"/>
						<path class="st1" d="M47.4,215.4C47.4,215.4,47.4,215.4,47.4,215.4C47.4,215.4,47.4,215.4,47.4,215.4
							C47.4,215.4,47.4,215.4,47.4,215.4C47.4,215.4,47.4,215.4,47.4,215.4z"/>
						<path class="st1" d="M47.5,214.4c0-0.2,0-0.3,0-0.4c0,0-0.1,0-0.1,0c0,0,0.1,0,0.1,0c0,0,0,0,0-0.1c0,0,0,0,0,0c0,0,0,0,0,0
							c0,0-0.1,0-0.1,0c0,0-0.1,0-0.1,0c0,0,0.1,0,0.1,0c0,0,0.1,0,0.1,0c0,0,0,0,0-0.1c0,0,0,0,0,0.1c0,0,0,0,0,0c0,0,0,0,0,0
							c0,0,0-0.1,0-0.1c0,0,0,0,0,0c0,0-0.1-0.1,0.1-0.1c0,0,0,0,0,0c0,0,0,0,0,0c0,0,0,0,0,0c0,0,0-0.1,0-0.1c0,0-0.1,0-0.1-0.1
							c0,0,0.1,0,0.1,0c-0.1,0-0.1,0-0.1,0c-0.1,0-0.2,0-0.2,0.1c-0.1,0,0.2,0.1,0,0.1c0.2,0-0.1-0.1,0-0.1c0,0,0.1,0,0.2-0.1
							c0,0,0-0.1,0.1-0.1c0.1,0,0,0.1-0.1,0.1c0,0,0.1,0,0.1,0c0,0-0.1,0-0.1,0c0,0,0.1,0,0.1,0.1c0-0.1,0-0.1,0.1-0.2
							c0.2-0.5,0.1-0.9,0.2-1.3c0.1-0.3,0.2-0.5,0.3-0.7c0.3-0.5,0-0.9,0.6-1.4c0.2-0.2,0.1-0.5,0.1-0.7c-0.4-0.2-1.4-0.1-1.5-0.1
							c-0.9,0.1-0.4,0.3-0.9,0.6c0.3-0.2,0.6,0.2,0,0.3c-0.9,0.3-0.2,0.7-0.4,1c-0.1,0.1,0,0.2,0,0.3c-0.3,0.5,0.1,1,0,1.6
							c0,0.1,0.2,0.3,0.3,0.4c0,0.1-0.1,0.2-0.1,0.3c0,0.1,0.1,0.2,0.2,0.3c0-0.1-0.1-0.2-0.1-0.3c0-0.1,0.3,0.1,0.4,0.1
							c0.1,0-0.2,0.1-0.2,0.1c0,0,0.1,0.1,0.2,0.1c0.1,0-0.2,0-0.2,0c0.1,0.1,0.4,0.1,0.3,0.2c0,0-0.1,0.1-0.1,0.1c0,0,0,0,0,0.1
							c0,0,0,0,0.1,0c0.1,0,0.2,0,0.3,0c0,0-0.1,0-0.1,0.1c0,0,0.1,0,0.1-0.1c-0.1,0-0.2,0-0.3,0c0.1,0.1,0.3,0.2,0.4,0.3
							c0,0,0,0,0,0c0-0.1,0-0.1,0.1-0.2c-0.1,0-0.1,0-0.1,0c0,0,0.1,0,0.1,0c0.1,0.1,0.1,0.1,0,0.2c0,0,0.1,0,0.1,0c0,0-0.1,0-0.2,0
							c0,0,0,0,0,0C47.3,214.5,47.5,214.4,47.5,214.4z"/>
						<path class="st1" d="M47.5,213.8C47.5,213.8,47.5,213.8,47.5,213.8C47.5,213.8,47.5,213.7,47.5,213.8
							C47.4,213.7,47.4,213.7,47.5,213.8z"/>
					</g>
				</g>
			</g>
		</g>
	</g>
</g>
<g>
	<g>
		<g>
			<g>
				<g class="st0">
					<g>
						<path class="st1" d="M5.5,173.8C5.5,173.8,5.6,173.8,5.5,173.8C5.6,173.8,5.6,173.8,5.5,173.8C5.5,173.7,5.5,173.8,5.5,173.8z
							"/>
						<path class="st1" d="M5.6,173.9C5.7,173.9,5.7,173.9,5.6,173.9C5.7,173.9,5.7,173.8,5.6,173.9C5.7,173.8,5.7,173.9,5.6,173.9z
							"/>
						<path class="st1" d="M5.8,173.8C5.7,173.8,5.7,173.8,5.8,173.8C5.7,173.8,5.7,173.8,5.8,173.8z"/>
						<path class="st1" d="M5.7,173.7c0,0,0,0.1,0,0.1c0,0,0,0,0,0C5.7,173.8,5.7,173.8,5.7,173.7C5.7,173.8,5.7,173.8,5.7,173.7z"
							/>
						<path class="st1" d="M5.7,173.7C5.7,173.7,5.7,173.7,5.7,173.7C5.7,173.7,5.7,173.7,5.7,173.7z"/>
						<path class="st1" d="M5.7,172.9c0,0,0,0.2,0,0.2c0.1-0.1,0.1-0.2,0.1-0.2c0-0.1,0.1,0.2,0.1,0.2c0.1-0.1,0.2-0.4,0.1-0.4
							C5.9,172.7,5.9,172.8,5.7,172.9c0,0-0.1,0.1-0.2,0.2c0,0,0,0-0.1,0c0,0,0.1,0.1,0.1,0.1C5.6,173.3,5.6,172.9,5.7,172.9z"/>
						<path class="st1" d="M5.1,173.7C5.1,173.7,5.1,173.6,5.1,173.7c0.1,0.1,0.1,0,0.2,0c0,0,0-0.1,0-0.1c0,0,0,0.1,0,0.1
							c-0.1-0.1-0.1-0.2-0.2-0.1C5,173.6,5,173.7,5.1,173.7z"/>
						<path class="st1" d="M5,173.5C5,173.5,5,173.5,5,173.5C5,173.5,5,173.5,5,173.5C5,173.5,5,173.5,5,173.5
							C5,173.5,5,173.5,5,173.5z"/>
						<path class="st1" d="M6,173.6c0.1,0,0.3,0,0.4,0c0,0,0-0.1,0-0.1c0,0,0,0.1,0,0.1c0,0,0,0,0.1,0c0,0,0,0,0,0c0,0,0,0,0,0
							c0,0,0-0.1,0-0.1c0,0,0-0.1,0-0.1c0,0,0,0.1,0,0.1c0,0,0,0.1,0,0.1c0,0,0,0,0.1,0c0,0,0,0-0.1,0c0,0,0,0,0,0c0,0,0,0,0,0
							c0,0,0.1,0,0.1,0c0,0,0,0,0,0c0,0,0.1-0.1,0.1,0.1c0,0,0,0,0,0c0,0,0,0,0,0c0,0,0,0,0,0c0,0,0.1,0,0.1,0c0,0,0-0.1,0.1-0.1
							c0,0,0,0.1,0,0.1c0-0.1,0-0.1,0-0.1c0-0.1,0-0.2-0.1-0.2c0-0.1-0.1,0.2-0.1,0c0,0.2,0.1-0.1,0.1,0c0,0,0,0.1,0.1,0.2
							c0,0,0.1,0,0.1,0.1c0,0.1-0.1,0-0.1-0.1c0,0,0,0.1,0,0.1c0,0,0-0.1,0-0.1c0,0,0,0.1-0.1,0.1c0.1,0,0.1,0,0.2,0.1
							c0.4,0.2,0.9,0.1,1.3,0.2c0.3,0.1,0.5,0.2,0.7,0.3c0.5,0.3,0.9,0,1.4,0.6c0.2,0.2,0.5,0.1,0.7,0.1c0.2-0.4,0.1-1.4,0.1-1.5
							c-0.1-0.9-0.3-0.4-0.6-0.9c0.2,0.3-0.1,0.6-0.3,0c-0.3-0.9-0.7-0.2-1-0.4c-0.1-0.1-0.2,0-0.3,0c-0.5-0.3-1,0.1-1.6,0
							c-0.1,0-0.3,0.2-0.4,0.3c-0.1,0-0.2-0.1-0.3-0.1c-0.1,0-0.2,0.1-0.3,0.2c0.1,0,0.2-0.1,0.3-0.1c0.1,0-0.1,0.3-0.1,0.4
							c0,0.1-0.1-0.2-0.1-0.2c0,0-0.1,0.1-0.1,0.2c0,0.1,0-0.2,0-0.2c-0.1,0.1-0.1,0.4-0.2,0.3c0,0-0.1-0.1-0.1-0.1c0,0,0,0-0.1,0
							c0,0,0,0,0,0.1c0,0.1,0,0.2,0,0.3c0,0,0-0.1-0.1-0.1c0,0,0,0.1,0.1,0.1c0-0.1,0-0.2,0-0.3c-0.1,0.1-0.2,0.3-0.3,0.4
							c0,0,0,0,0,0c0.1,0,0.1,0,0.2,0.1c0-0.1,0-0.1,0-0.1c0,0,0,0.1,0,0.1c-0.1,0.1-0.1,0.1-0.2,0c0,0,0,0.1,0,0.1c0,0,0-0.1,0-0.2
							c0,0,0,0,0,0C5.9,173.4,6,173.6,6,173.6z"/>
						<path class="st1" d="M6.6,173.6C6.6,173.6,6.6,173.6,6.6,173.6C6.6,173.6,6.6,173.6,6.6,173.6C6.7,173.5,6.6,173.5,6.6,173.6z
							"/>
					</g>
				</g>
			</g>
		</g>
	</g>
</g>
<g>
	<g>
		<g>
			<g>
				<g class="st0">
					<g>
						<path class="st1" d="M83,173.8C83.1,173.8,83.1,173.8,83,173.8C83.1,173.8,83.1,173.8,83,173.8C83.1,173.7,83,173.8,83,173.8z
							"/>
						<path class="st1" d="M83.2,173.9C83.2,173.9,83.2,173.9,83.2,173.9C83.2,173.9,83.2,173.8,83.2,173.9
							C83.2,173.8,83.2,173.9,83.2,173.9z"/>
						<path class="st1" d="M83.3,173.8C83.3,173.8,83.2,173.8,83.3,173.8C83.2,173.8,83.3,173.8,83.3,173.8z"/>
						<path class="st1" d="M83.2,173.7c0,0,0,0.1,0,0.1c0,0,0,0,0,0C83.2,173.8,83.2,173.8,83.2,173.7
							C83.2,173.8,83.2,173.8,83.2,173.7z"/>
						<path class="st1" d="M83.2,173.7C83.2,173.7,83.2,173.7,83.2,173.7C83.2,173.7,83.2,173.7,83.2,173.7z"/>
						<path class="st1" d="M83.2,172.9c0,0,0,0.2,0,0.2c0.1-0.1,0.1-0.2,0.1-0.2c0-0.1,0.1,0.2,0.1,0.2c0.1-0.1,0.2-0.4,0.1-0.4
							C83.5,172.7,83.4,172.8,83.2,172.9c0,0-0.1,0.1-0.2,0.2c0,0,0,0-0.1,0c0,0,0.1,0.1,0.1,0.1C83.1,173.3,83.1,172.9,83.2,172.9z
							"/>
						<path class="st1" d="M82.6,173.7C82.6,173.7,82.6,173.6,82.6,173.7c0.1,0.1,0.1,0,0.2,0c0,0,0-0.1,0-0.1c0,0,0,0.1,0,0.1
							c-0.1-0.1-0.1-0.2-0.2-0.1C82.5,173.6,82.5,173.7,82.6,173.7z"/>
						<path class="st1" d="M82.5,173.5C82.5,173.5,82.5,173.5,82.5,173.5C82.5,173.5,82.5,173.5,82.5,173.5
							C82.5,173.5,82.5,173.5,82.5,173.5C82.5,173.5,82.5,173.5,82.5,173.5z"/>
						<path class="st1" d="M83.5,173.6c0.2,0,0.3,0,0.4,0c0,0,0-0.1,0-0.1c0,0,0,0.1,0,0.1c0,0,0,0,0.1,0c0,0,0,0,0,0c0,0,0,0,0,0
							c0,0,0-0.1,0-0.1c0,0,0-0.1,0-0.1c0,0,0,0.1,0,0.1c0,0,0,0.1,0,0.1c0,0,0,0,0.1,0c0,0,0,0-0.1,0c0,0,0,0,0,0c0,0,0,0,0,0
							c0,0,0.1,0,0.1,0c0,0,0,0,0,0c0,0,0.1-0.1,0.1,0.1c0,0,0,0,0,0c0,0,0,0,0,0c0,0,0,0,0,0c0,0,0.1,0,0.1,0c0,0,0-0.1,0.1-0.1
							c0,0,0,0.1,0,0.1c0-0.1,0-0.1,0-0.1c0-0.1,0-0.2-0.1-0.2c0-0.1-0.1,0.2-0.1,0c0,0.2,0.1-0.1,0.1,0c0,0,0,0.1,0.1,0.2
							c0,0,0.1,0,0.1,0.1c0,0.1-0.1,0-0.1-0.1c0,0,0,0.1,0,0.1c0,0,0-0.1,0-0.1c0,0,0,0.1-0.1,0.1c0.1,0,0.1,0,0.2,0.1
							c0.5,0.2,0.9,0.1,1.3,0.2c0.3,0.1,0.5,0.2,0.7,0.3c0.5,0.3,0.9,0,1.4,0.6c0.2,0.2,0.5,0.1,0.7,0.1c0.2-0.4,0.1-1.4,0.1-1.5
							c-0.1-0.9-0.3-0.4-0.6-0.9c0.2,0.3-0.2,0.6-0.3,0c-0.3-0.9-0.7-0.2-1-0.4c-0.1-0.1-0.2,0-0.3,0c-0.5-0.3-1,0.1-1.6,0
							c-0.1,0-0.3,0.2-0.4,0.3c-0.1,0-0.2-0.1-0.3-0.1c-0.1,0-0.2,0.1-0.3,0.2c0.1,0,0.2-0.1,0.3-0.1c0.1,0-0.1,0.3-0.1,0.4
							c0,0.1-0.1-0.2-0.1-0.2c0,0-0.1,0.1-0.1,0.2c0,0.1,0-0.2,0-0.2c-0.1,0.1-0.1,0.4-0.2,0.3c0,0-0.1-0.1-0.1-0.1c0,0,0,0-0.1,0
							c0,0,0,0,0,0.1c0,0.1,0,0.2,0,0.3c0,0,0-0.1-0.1-0.1c0,0,0,0.1,0.1,0.1c0-0.1,0-0.2,0-0.3c-0.1,0.1-0.2,0.3-0.3,0.4
							c0,0,0,0,0,0c0.1,0,0.1,0,0.2,0.1c0-0.1,0-0.1,0-0.1c0,0,0,0.1,0,0.1c-0.1,0.1-0.1,0.1-0.2,0c0,0,0,0.1,0,0.1c0,0,0-0.1,0-0.2
							c0,0,0,0,0,0C83.4,173.4,83.5,173.6,83.5,173.6z"/>
						<path class="st1" d="M84.1,173.6C84.1,173.6,84.1,173.6,84.1,173.6C84.1,173.6,84.2,173.6,84.1,173.6
							C84.2,173.5,84.2,173.5,84.1,173.6z"/>
					</g>
				</g>
			</g>
		</g>
	</g>
</g>
<g>
	<g>
		<g>
			<g>
				<g class="st0">
					<g>
						<path class="st1" d="M74.1,196.6C74.2,196.6,74.2,196.6,74.1,196.6C74.2,196.6,74.2,196.6,74.1,196.6
							C74.2,196.6,74.2,196.6,74.1,196.6z"/>
						<path class="st1" d="M74.2,196.7C74.2,196.7,74.2,196.7,74.2,196.7C74.2,196.7,74.2,196.7,74.2,196.7
							C74.2,196.7,74.2,196.7,74.2,196.7z"/>
						<path class="st1" d="M74.3,196.8C74.3,196.7,74.3,196.7,74.3,196.8C74.3,196.7,74.3,196.8,74.3,196.8z"/>
						<path class="st1" d="M74.3,196.7C74.3,196.7,74.3,196.7,74.3,196.7C74.2,196.7,74.2,196.7,74.3,196.7
							C74.3,196.7,74.3,196.7,74.3,196.7C74.3,196.7,74.3,196.7,74.3,196.7z"/>
						<path class="st1" d="M74.3,196.7C74.3,196.6,74.4,196.6,74.3,196.7C74.3,196.6,74.3,196.6,74.3,196.7z"/>
						<path class="st1" d="M74.9,196.1c0,0-0.1,0.2-0.1,0.1c0.1,0,0.2-0.1,0.2,0c0.1,0-0.1,0.2-0.1,0.2c0.1,0,0.4-0.1,0.3-0.2
							c-0.1-0.1-0.2-0.1-0.3-0.1c-0.1,0-0.3,0-0.4,0c0,0,0,0,0-0.1c0,0,0,0.1,0,0.1C74.6,196.2,74.8,196.1,74.9,196.1z"/>
						<path class="st1" d="M73.9,196.2C73.9,196.2,74,196.1,73.9,196.2c0,0.1,0.1,0.1,0.2,0.1c0,0,0-0.1,0.1-0.1c0,0-0.1,0-0.1,0.1
							c0.1-0.1,0-0.2,0-0.2C74,196.1,73.9,196.1,73.9,196.2z"/>
						<path class="st1" d="M74,196C74,196,74,196,74,196C74,196,74,196,74,196C74,196,74,196,74,196C74,196,74,196,74,196z"/>
						<path class="st1" d="M74.7,196.8c0.1,0.1,0.2,0.2,0.3,0.3c0,0,0.1-0.1,0.1,0c0,0,0,0.1,0,0.1c0,0,0,0,0,0.1c0,0,0,0,0,0
							c0,0,0,0,0,0c0,0,0.1,0,0.1-0.1c0,0,0,0,0-0.1c0,0,0,0,0,0.1c0,0,0,0.1,0,0.1c0,0,0,0,0,0c0,0,0,0,0,0c0,0,0,0,0,0
							c0,0,0,0,0,0c0,0,0,0.1,0.1,0.1c0,0,0,0,0,0c0,0,0.1,0,0,0.1c0,0,0,0,0,0c0,0,0,0,0,0c0,0,0,0,0,0c0,0,0,0.1,0.1,0.1
							c0,0,0.1,0,0.1,0c0,0,0,0.1-0.1,0.1c0,0,0.1-0.1,0.1-0.1c0-0.1,0.1-0.1,0.1-0.2c0.1-0.1-0.2,0.1-0.1,0c-0.1,0.2,0.1-0.1,0.1,0
							c0,0-0.1,0.1-0.1,0.2c0.1,0,0.1,0.1,0,0.2c-0.1,0-0.1-0.1,0-0.2c0,0-0.1,0-0.1,0.1c0,0,0.1-0.1,0.1-0.1c0,0-0.1,0-0.1,0
							c0,0.1,0.1,0.1,0.1,0.2c0.2,0.4,0.5,0.7,0.8,1.1c0.1,0.2,0.2,0.5,0.3,0.7c0.1,0.5,0.7,0.6,0.6,1.4c0,0.3,0.3,0.4,0.4,0.6
							c0.5-0.1,1.1-0.9,1.1-1c0.5-0.7,0.1-0.5,0.2-1c-0.1,0.4-0.5,0.3-0.2-0.3c0.5-0.8-0.3-0.6-0.4-1c0-0.1-0.1-0.1-0.2-0.2
							c-0.2-0.6-0.8-0.7-1.1-1.1c-0.1-0.1-0.4,0-0.5,0c-0.1,0-0.1-0.2-0.1-0.2c-0.1-0.1-0.2-0.1-0.4-0.1c0.1,0,0.2,0.1,0.3,0.1
							c0.1,0-0.3,0.2-0.3,0.2c-0.1,0,0.1-0.2,0.1-0.2c0,0-0.1,0-0.2,0c-0.1,0,0.1-0.1,0.1-0.1c-0.1,0-0.3,0.2-0.3,0.1
							c0,0,0-0.1,0-0.1c0,0,0,0,0-0.1c0,0,0,0-0.1,0c0,0.1-0.1,0.1-0.2,0.2c0,0,0-0.1,0-0.1c0,0,0,0.1,0,0.1
							c0.1-0.1,0.1-0.1,0.2-0.2c-0.2,0-0.3,0-0.5,0c0,0,0,0,0,0c0.1,0,0.1,0.1,0,0.2c0-0.1,0.1-0.1,0.1-0.1c0,0,0,0.1-0.1,0.1
							c-0.1,0-0.2,0-0.1-0.1c0,0-0.1,0-0.1,0c0,0,0.1-0.1,0.1-0.1c0,0,0,0,0,0C74.7,196.6,74.7,196.8,74.7,196.8z"/>
						<path class="st1" d="M75.1,197.2C75.1,197.2,75.1,197.2,75.1,197.2C75.1,197.2,75.1,197.3,75.1,197.2
							C75.2,197.2,75.1,197.2,75.1,197.2z"/>
					</g>
				</g>
			</g>
		</g>
	</g>
</g>
<g>
	<g>
		<g>
			<g>
				<g class="st0">
					<g>
						<path class="st1" d="M19.6,142.1C19.6,142.1,19.7,142.1,19.6,142.1C19.7,142.1,19.7,142.1,19.6,142.1
							C19.7,142,19.7,142.1,19.6,142.1z"/>
						<path class="st1" d="M19.7,142.2C19.7,142.2,19.7,142.2,19.7,142.2C19.7,142.2,19.7,142.2,19.7,142.2
							C19.7,142.2,19.7,142.2,19.7,142.2z"/>
						<path class="st1" d="M19.8,142.2C19.8,142.2,19.8,142.2,19.8,142.2C19.8,142.2,19.8,142.2,19.8,142.2z"/>
						<path class="st1" d="M19.8,142.1C19.8,142.2,19.8,142.2,19.8,142.1C19.7,142.2,19.7,142.2,19.8,142.1
							C19.7,142.2,19.8,142.2,19.8,142.1C19.8,142.2,19.8,142.2,19.8,142.1z"/>
						<path class="st1" d="M19.8,142.1C19.8,142.1,19.8,142.1,19.8,142.1C19.8,142.1,19.8,142.1,19.8,142.1z"/>
						<path class="st1" d="M20.4,141.6c0,0-0.1,0.2-0.1,0.1c0.1,0,0.2-0.1,0.2,0c0.1,0-0.1,0.2-0.1,0.2c0.1,0,0.4-0.1,0.3-0.2
							c-0.1-0.1-0.2-0.1-0.3-0.1c-0.1,0-0.3,0-0.4,0c0,0,0,0,0-0.1c0,0,0,0.1,0,0.1C20.1,141.7,20.3,141.5,20.4,141.6z"/>
						<path class="st1" d="M19.4,141.7C19.4,141.7,19.5,141.6,19.4,141.7c0,0.1,0.1,0.1,0.2,0.1c0,0,0-0.1,0.1-0.1
							c0,0-0.1,0-0.1,0.1c0.1-0.1,0-0.2,0-0.2C19.5,141.6,19.4,141.6,19.4,141.7z"/>
						<path class="st1" d="M19.5,141.5C19.5,141.5,19.5,141.5,19.5,141.5C19.5,141.5,19.5,141.5,19.5,141.5
							C19.5,141.5,19.5,141.5,19.5,141.5C19.5,141.5,19.5,141.5,19.5,141.5z"/>
						<path class="st1" d="M20.1,142.3c0.1,0.1,0.2,0.2,0.3,0.3c0,0,0.1-0.1,0.1,0c0,0,0,0.1,0,0.1c0,0,0,0,0,0.1c0,0,0,0,0,0
							c0,0,0,0,0,0c0,0,0.1,0,0.1-0.1c0,0,0,0,0-0.1c0,0,0,0,0,0.1c0,0,0,0.1,0,0.1c0,0,0,0,0,0c0,0,0,0,0,0c0,0,0,0,0,0
							c0,0,0,0,0,0c0,0,0,0.1,0.1,0.1c0,0,0,0,0,0c0,0,0.1,0,0,0.1c0,0,0,0,0,0c0,0,0,0,0,0c0,0,0,0,0,0c0,0,0,0.1,0.1,0.1
							c0,0,0.1,0,0.1,0c0,0,0,0.1-0.1,0.1c0,0,0.1-0.1,0.1-0.1c0-0.1,0.1-0.1,0.1-0.2c0.1-0.1-0.2,0.1-0.1,0c-0.1,0.2,0.1-0.1,0.1,0
							c0,0-0.1,0.1-0.1,0.2c0.1,0,0.1,0.1,0,0.2c-0.1,0-0.1-0.1,0-0.2c0,0-0.1,0-0.1,0.1c0,0,0.1-0.1,0.1-0.1c0,0-0.1,0-0.1,0
							c0,0.1,0.1,0.1,0.1,0.2c0.2,0.4,0.5,0.7,0.8,1.1c0.1,0.2,0.2,0.5,0.3,0.7c0.1,0.5,0.7,0.6,0.6,1.4c0,0.3,0.3,0.4,0.4,0.5
							c0.4-0.1,1.1-0.9,1.1-1c0.5-0.7,0.1-0.5,0.3-1c-0.1,0.3-0.5,0.3-0.2-0.3c0.5-0.8-0.3-0.6-0.4-1c0-0.1-0.1-0.1-0.2-0.2
							c-0.1-0.6-0.8-0.7-1.1-1.1c-0.1-0.1-0.4,0-0.5,0c-0.1,0-0.1-0.2-0.1-0.2c-0.1-0.1-0.2-0.1-0.4-0.1c0.1,0,0.2,0.1,0.3,0.1
							c0.1,0-0.3,0.2-0.3,0.2c-0.1,0,0.1-0.2,0.1-0.2c0,0-0.1,0-0.2,0c-0.1,0,0.1-0.1,0.1-0.1c-0.1,0-0.3,0.2-0.3,0.1
							c0,0,0-0.1,0-0.1c0,0,0,0,0-0.1c0,0,0,0-0.1,0c0,0.1-0.1,0.1-0.2,0.2c0,0,0-0.1,0-0.1c0,0,0,0.1,0,0.1
							c0.1-0.1,0.1-0.1,0.2-0.2c-0.2,0-0.3,0-0.5,0.1c0,0,0,0,0,0c0.1,0,0.1,0.1,0,0.2c0-0.1,0.1-0.1,0.1-0.1c0,0,0,0.1-0.1,0.1
							c-0.1,0-0.2,0-0.1-0.1c0,0-0.1,0-0.1,0c0,0,0.1-0.1,0.1-0.1c0,0,0,0,0,0C20.2,142.1,20.1,142.3,20.1,142.3z"/>
						<path class="st1" d="M20.6,142.7C20.6,142.7,20.5,142.7,20.6,142.7C20.6,142.7,20.6,142.7,20.6,142.7
							C20.7,142.7,20.6,142.7,20.6,142.7z"/>
					</g>
				</g>
			</g>
		</g>
	</g>
</g>
<rect x="45.5" y="138.9" class="st3" width="4.6" height="6.2"/>
<text transform="matrix(1.0179 0 0 1 45.5757 143.3698)" class="st4 st5 st6">N</text>
<rect x="45.5" y="202.5" class="st3" width="4.6" height="6.2"/>
<text transform="matrix(1 0 0 1 45.5747 206.8644)" class="st4 st5 st6">S</text>
<rect x="13.5" y="171.8" class="st3" width="5.8" height="6.2"/>
<text transform="matrix(1 0 0 1 13.5269 176.1896)" class="st4 st5 st6">W</text>
<rect x="78.2" y="171.8" class="st3" width="3.8" height="6.2"/>
<text transform="matrix(1 0 0 1 78.1846 176.1896)" class="st4 st5 st6">E</text>
</svg>
