<?xml version="1.0" encoding="utf-8"?>
<!-- Generator: Adobe Illustrator 24.2.0, SVG Export Plug-In . SVG Version: 6.00 Build 0)  -->
<svg version="1.1" id="Layer_1" xmlns="http://www.w3.org/2000/svg" xmlns:xlink="http://www.w3.org/1999/xlink" x="0px" y="0px"
	 viewBox="0 0 269.3 170.1" style="enable-background:new 0 0 269.3 170.1;" xml:space="preserve">
<style type="text/css">
	.st0{opacity:0.85;}
	.st1{fill:#FFFFFF;}
</style>
<g>
	<g>
		<g>
			<g>
				<g class="st0">
					<g>
						<path class="st1" d="M190.3,152.1c1-0.1,1.9-0.3,2.9-0.5c-0.5,0.1-1,0.1-1.5,0.2C191.1,151.9,190.8,152,190.3,152.1z"/>
						<path class="st1" d="M195.9,151.1c0.2,0,0.3-0.1,0.5-0.1c0.2,0,0.3-0.1,0.4-0.1C196.5,150.9,196.2,151,195.9,151.1z"/>
						<path class="st1" d="M200.8,149.8c-0.9,0.2-1.7,0.4-2.5,0.7C199,150.3,199.9,150.1,200.8,149.8z"/>
						<path class="st1" d="M196.9,150.7c0.3,0,0.5,0,0,0.1c0,0,0,0,0,0c0.5-0.1,1-0.3,1.5-0.4C197.8,150.6,197.3,150.6,196.9,150.7z
							"/>
						<path class="st1" d="M196.9,150.7c-0.3,0-0.8,0.1-0.9,0.1C196.2,150.8,196.5,150.8,196.9,150.7z"/>
						<path class="st1" d="M197.9,149.6c0.5-0.1,0.4,0.1,1.4-0.2c2.3-0.7,4.2-1.3,6.3-2c0.9-0.4,2.5-0.6,3.5-1.1
							c1.1-0.5,3-1.3,4.2-2c1.2-0.7,1.7-1,0.1-0.2c-2.4,1.1-4.5,2-6.5,2.7c-2,0.7-4,1.4-6.3,2c-3.8,1.1-7.4,2-11.4,2.7
							c-1.1,0.2-2.2,0.3-3.2,0.5c1.4-0.1,2.8-0.3,4.3-0.5C192.4,151.1,194.8,150.4,197.9,149.6z"/>
						<path class="st1" d="M168.8,153.9c0.5,0,1.5-0.1,1.5-0.1c2.3,0.1,4.7-0.1,7-0.3c-0.3,0-0.7,0-1.1,0c-1.4,0.1-1.5,0.2-0.3,0.2
							c-2.8,0-5.4,0.1-8.1,0.1C168.1,153.8,168.1,153.8,168.8,153.9z"/>
						<path class="st1" d="M166.4,153.7c0.5,0,1.1,0,1.6,0c0,0,0,0-0.1,0C167.4,153.7,166.8,153.7,166.4,153.7L166.4,153.7z"/>
						<path class="st1" d="M211,146.2c3.1-1.3,6.1-2.8,8.8-4.5c2.7-1.7,5.2-3.8,7.1-6.3c0.2-0.4,0.4-0.7,0.8-1.3
							c0.3-0.4,0.6-0.8,0.8-1.2c0.2-0.4,0.4-0.8,0.5-1.3c0.1-0.4,0.3-0.9,0.4-1.3c0.1-0.3,0.1-0.6,0.2-1c0,0,0,0,0,0
							c0-0.5,0-0.4-0.1-0.1c-0.1,0.3-0.2,0.7-0.3,0.9c0-0.2,0.2-0.6,0.3-0.9c0.1-0.4,0.1-0.9,0.2-1.5c0-0.4-0.1-0.8-0.1-1.3
							c-0.1-0.4-0.2-0.9-0.2-1.3c0.1,0.5,0.2,0.9,0.3,1.4c0,0.4,0.1,0.8,0.1,1.2c0,0.5,0,1-0.1,1.5c0,0.1,0,0.3-0.1,0.4
							c0.4-2.1,0.2-4.2-0.6-6.2c-0.2-0.4-0.4-0.9-0.5-1.2c-0.7-1.3-1.6-2.5-2.2-3.3c-0.2-0.3-0.5-0.6-0.7-0.8l0.1,0.2
							c-0.1-0.1-0.2-0.2-0.3-0.3c-1.1-1.2-2.3-2.2-3.5-3.1c-0.4-0.3-0.9-0.6-1.3-0.8l-1.4-0.8c0,0-0.1-0.1-0.3-0.3
							c-0.2-0.1-0.4-0.3-0.5-0.4c-0.4-0.2-0.9-0.4-1.6-0.8c0.7,0.5,1.3,0.9,1.9,1.3c0.8,0.7,2.1,1.1,3,2c-0.9-0.9-2.2-1.3-3-2
							c-0.6-0.4-1.2-0.9-1.9-1.3c-1.3-0.7-3-1.5-4.4-2.3c1.8,0.7,3.2,1.5,4.4,2.3c0.6,0.3,1.2,0.6,1.6,0.8c0.1,0.1,0.4,0.3,0.5,0.4
							c0.2,0.1,0.3,0.3,0.3,0.3l1.4,0.8c0.4,0.3,0.9,0.6,1.3,0.8c-2.5-1.8-5.2-3.4-8.1-4.8c-4.6-2.2-9.4-3.8-14.2-5
							c-4.8-1.2-9.7-2.1-14.6-2.8c-9.8-1.2-19.9-1.5-30.5-0.8c-11.4,0.9-22.4,2.8-32.6,6.7c-5.1,2-9.9,4.5-13.9,8.1
							c-1,0.9-1.9,1.9-2.8,3c-0.8,1.1-1.6,2.3-2.1,3.6c-0.5,1.3-0.9,2.7-1,4.1c-0.1,0.7,0,1.4,0,2.1c0.1,0.7,0.2,1.4,0.4,2.1
							c0.8,2.7,2.4,5,4.3,6.9c1.9,1.9,4,3.6,6.3,5c4.6,2.8,9.6,4.9,14.8,6.7c4,1.4,9.9,2.8,15.8,3.7c5.9,0.9,11.9,1.3,15.9,1.5
							c2.7,0,4.4-0.1,5.4-0.3c1-0.1,1.3-0.3,1.2-0.5c-0.1-0.3-1.6-0.6-1.9-0.6c-3.3-0.5-6.2-0.7-10-1c-3.8-0.4-8.4-0.8-15-2.3
							c4.5,1,2.8,0.8-1.1,0.1c-1.9-0.4-4.4-0.9-6.8-1.7c-2.4-0.7-4.9-1.6-6.9-2.5c-2.8-1.3-5.9-2.7-9-4.6c-1.6-0.9-3.1-1.9-4.5-3.1
							c-1.5-1.1-2.8-2.4-4-3.9c-1.1-1.4-2.1-3.1-2.5-4.8c-0.4-1.7-0.4-3.6,0.2-5.3c1.1-3.5,3.9-6.3,6.9-8.5c3-2.2,6.6-4.1,10.8-5.8
							c5.5-2.1,11.1-3.6,16.8-4.7c5.7-1.1,11.4-1.8,17.2-2.2c11.6-0.7,23.5-0.4,35.7,1.9c6.5,1.2,12.2,2.6,17.4,4.5
							c3.8,1.4,7.6,3.5,10.3,5.4c4.2,2.9,7.3,6.2,8.4,10.1c-0.6-2.2-1.6-3.9-3-5.4c-1.3-1.6-3-3-5.1-4.5c-0.7-0.5-1-0.7-0.9-0.6
							c0.1,0,0.5,0.3,1.1,0.6c1.2,0.7,2.8,1.9,3.7,2.7c0.7,0.7,1.6,2,2.2,2.8c1.2,1.7,2.1,3.4,2.5,5.7c0.1,1-0.1,0.9-0.1,1.3
							c0,1.5-0.3,2.8-0.7,4c-0.4,1.2-1,2.1-1.6,2.9c-0.9,1.2-1.9,2.2-2.9,3.1c-0.6,0.6-1.3,1.1-2,1.7c-0.4,0.3-0.9,0.7-1.4,1.1
							c0.4-0.2,0.6-0.2,0.8-0.3c-0.7,0.5-1.7,1.1-2.5,1.5c0.7-0.4,1.8-1,2.5-1.5c-0.2,0-0.4,0-0.8,0.3c-3.4,2.5-7.8,4.7-12.1,6.3
							l0.1,0c2.5-0.9,4.9-1.9,7.5-3.1c-1.1,0.5-1,0.4,0.2-0.3c0.3-0.1,0.7-0.3,1-0.4c-2.1,1.2-4.2,2.2-6.4,2.9c0,0-0.9,0.4-1.4,0.6
							c-0.7,0.2-0.7,0.1-0.9,0.1c-0.5,0.2-1,0.4-1.5,0.5c0.5-0.1,1.7-0.4,2.6-0.8C210.2,146.5,211,146.2,211,146.2z"/>
						<path class="st1" d="M229.6,127.7c0,0.4,0,0.8-0.1,1.3c0.2-1.7,0-3.5-0.6-5.2C229.2,124.7,229.6,126.2,229.6,127.7z"/>
					</g>
				</g>
			</g>
		</g>
	</g>
</g>
<g>
	<g>
		<g>
			<g>
				<g class="st0">
					<g>
						<path class="st1" d="M186,147.8c0.8-0.1,1.6-0.3,2.4-0.4c-0.4,0.1-0.8,0.1-1.2,0.1C186.7,147.6,186.4,147.7,186,147.8z"/>
						<path class="st1" d="M190.6,146.9c0.1,0,0.3-0.1,0.4-0.1c0.1,0,0.2-0.1,0.4-0.1C191.1,146.8,190.8,146.8,190.6,146.9z"/>
						<path class="st1" d="M194.6,145.9c-0.7,0.2-1.4,0.4-2.1,0.5C193.2,146.3,193.8,146.1,194.6,145.9z"/>
						<path class="st1" d="M191.4,146.6c0.3,0,0.4,0,0,0.1l0,0c0.4-0.1,0.8-0.2,1.2-0.3C192.1,146.5,191.7,146.6,191.4,146.6z"/>
						<path class="st1" d="M191.4,146.6c-0.3,0-0.6,0.1-0.8,0.1C190.8,146.7,191.1,146.7,191.4,146.6z"/>
						<path class="st1" d="M192.2,145.5c0.4-0.1,0.4,0.1,1.2-0.1c1.9-0.6,3.4-1.1,5.2-1.7c0.8-0.3,2.1-0.5,2.8-0.8
							c1.8-0.7,6.1-3.1,3.5-1.9c-2,0.9-3.6,1.6-5.3,2.2c-1.6,0.6-3.3,1.1-5.2,1.7c-3.1,0.9-6.1,1.7-9.3,2.3
							c-0.9,0.2-1.8,0.3-2.6,0.4c1.1-0.1,2.3-0.2,3.6-0.4C187.7,146.9,189.6,146.2,192.2,145.5z"/>
						<path class="st1" d="M168.4,149.2c0.4,0,1.3-0.1,1.3-0.1c1.9,0.1,3.8,0,5.8-0.2c-0.3,0-0.6,0-0.9-0.1
							c-1.1,0.1-1.2,0.2-0.2,0.2c-2.3,0-4.4,0.1-6.6,0.1C167.8,149.1,167.8,149.2,168.4,149.2z"/>
						<path class="st1" d="M166.4,149.1c0.4,0,0.9,0,1.3,0c0,0,0,0,0,0C167.2,149,166.7,149,166.4,149.1L166.4,149.1z"/>
						<path class="st1" d="M203,142.9c2.6-1.1,5-2.3,7.2-3.7c2.2-1.4,4.2-3.1,5.8-5.2c0.2-0.4,0.3-0.6,0.6-1c0.2-0.3,0.5-0.7,0.7-1
							c0.1-0.3,0.3-0.7,0.4-1c0.1-0.4,0.2-0.7,0.3-1.1c0-0.3,0.1-0.5,0.1-0.8c0,0,0,0,0,0c0-0.4,0-0.3-0.1,0
							c-0.1,0.3-0.2,0.5-0.2,0.7c0-0.1,0.2-0.5,0.2-0.7c0.1-0.3,0.1-0.7,0.2-1.2c0-0.3,0-0.7-0.1-1c0-0.4-0.1-0.7-0.2-1.1
							c0.1,0.4,0.2,0.8,0.2,1.1c0,0.4,0,0.7,0,1c0,0.4,0,0.9-0.1,1.3c0,0.1,0,0.2,0,0.4c0.3-1.7,0.2-3.5-0.4-5.1
							c-0.2-0.4-0.3-0.7-0.5-1c-0.6-1.1-1.4-2.1-1.8-2.7c-0.2-0.2-0.4-0.5-0.6-0.7l0.1,0.1c-0.1-0.1-0.2-0.2-0.2-0.3
							c-0.9-1-1.9-1.8-2.9-2.6c-0.4-0.2-0.7-0.5-1.1-0.7l-1.1-0.6c0,0-0.4-0.4-0.7-0.5c-0.3-0.1-0.8-0.4-1.3-0.6
							c0.6,0.4,1.1,0.8,1.6,1.1c0.7,0.6,1.8,0.8,2.4,1.6c-0.7-0.8-1.8-1.1-2.4-1.6c-0.5-0.3-1-0.7-1.6-1.1c-1.1-0.5-2.5-1.3-3.6-1.9
							c1.5,0.5,2.6,1.2,3.6,1.9c0.5,0.3,1,0.5,1.3,0.6c0.2,0.2,0.7,0.5,0.7,0.5l1.1,0.6c0.4,0.2,0.7,0.5,1.1,0.7
							c-2-1.5-4.3-2.8-6.6-3.9c-3.8-1.8-7.7-3.1-11.7-4.1c-4-1-7.9-1.7-12-2.3c-8.1-1-16.3-1.3-25-0.7c-9.4,0.7-18.4,2.3-26.8,5.4
							c-4.2,1.6-8.1,3.6-11.5,6.6c-1.6,1.5-3.1,3.3-4,5.4c-0.4,1.1-0.7,2.2-0.8,3.4c-0.1,0.6,0,1.2,0,1.8c0.1,0.6,0.2,1.2,0.4,1.7
							c0.6,2.3,2,4.2,3.6,5.8c1.6,1.6,3.3,3,5.2,4.1c3.8,2.3,7.9,4.1,12.1,5.6c3.3,1.1,8.1,2.3,13,3.1c4.9,0.8,9.7,1.1,13.1,1.2
							c4.5,0,5.5-0.5,5.4-0.8c-0.1-0.3-1.3-0.6-1.5-0.6c-2.7-0.5-5.1-0.7-8.2-1c-3.1-0.3-6.9-0.7-12.2-2c3.6,0.8,2.3,0.7-0.9,0.1
							c-3.1-0.6-8-1.9-11.2-3.5c-2.3-1.1-4.8-2.3-7.3-3.8c-2.5-1.5-5-3.3-6.9-5.6c-0.9-1.2-1.7-2.5-2-3.8c-0.3-1.4-0.3-2.8,0.1-4.2
							c0.9-2.8,3.1-5.1,5.6-6.8c2.5-1.7,5.4-3.3,8.8-4.7c4.5-1.7,9.1-2.9,13.7-3.8c4.6-0.9,9.3-1.5,14.1-1.8
							c9.5-0.6,19.2-0.3,29.2,1.6c5.3,1,9.9,2.1,14.2,3.6c3.1,1.2,6.2,2.9,8.4,4.4c3.4,2.3,5.9,5,6.8,8.1c-0.5-1.7-1.3-3.1-2.4-4.4
							c-1.1-1.3-2.4-2.4-4.2-3.6c-1.2-0.8-0.7-0.6,0.2,0c1,0.5,2.3,1.6,3,2.2c0.6,0.5,1.3,1.6,1.7,2.3c1,1.4,1.8,2.8,2,4.6
							c0.1,0.8-0.1,0.7-0.1,1.1c0,2.4-0.8,4.3-1.8,5.6c-0.8,1-1.6,1.8-2.4,2.5c-0.5,0.5-1.1,0.9-1.6,1.4c-0.4,0.3-0.7,0.6-1.1,0.9
							c0.3-0.2,0.5-0.2,0.7-0.2c-0.6,0.4-1.4,0.9-2,1.2c0.6-0.4,1.5-0.8,2-1.2c-0.2,0-0.3,0-0.7,0.2c-2.8,2-6.4,3.9-9.9,5.3l0.1,0
							c2.1-0.8,4-1.6,6.1-2.5c-0.9,0.4-0.8,0.3,0.2-0.2c0.3-0.1,0.5-0.2,0.8-0.3c-1.7,1-3.5,1.9-5.2,2.4c0,0-0.8,0.4-1.1,0.5
							c-0.6,0.2-0.6,0.1-0.7,0.1c-0.4,0.1-0.8,0.3-1.2,0.5c0.4-0.1,1.4-0.3,2.2-0.6C202.3,143.1,203,142.9,203,142.9z"/>
						<path class="st1" d="M218.2,127.7c0,0.3,0,0.7,0,1.1c0.2-1.4,0-2.9-0.5-4.3C217.8,125.3,218.2,126.5,218.2,127.7z"/>
					</g>
				</g>
			</g>
		</g>
	</g>
</g>
<g>
	<g>
		<g>
			<g>
				<g class="st0">
					<g>
						<path class="st1" d="M180.1,141.9c0.6-0.1,1.1-0.2,1.7-0.3c-0.3,0-0.6,0.1-0.9,0.1C180.6,141.7,180.4,141.8,180.1,141.9z"/>
						<path class="st1" d="M183.3,141.3c0.1,0,0.2,0,0.3-0.1c0.1,0,0.2-0.1,0.2-0.1L183.3,141.3z"/>
						<path class="st1" d="M186.2,140.5c-0.5,0.1-1,0.3-1.4,0.4C185.1,140.8,185.6,140.7,186.2,140.5z"/>
						<path class="st1" d="M183.9,141c0.2,0,0.3,0,0,0.1c0,0,0,0,0,0c0.3-0.1,0.6-0.2,0.9-0.2C184.4,140.9,184.1,141,183.9,141z"/>
						<path class="st1" d="M183.9,141c-0.2,0-0.4,0-0.6,0C183.5,141,183.7,141,183.9,141z"/>
						<path class="st1" d="M184.4,140c0.3-0.1,0.3,0.2,0.8,0c1.3-0.4,2.4-0.8,3.6-1.2c0.5-0.2,1.5-0.3,2-0.5
							c1.3-0.5,4.2-2.3,2.4-1.4c-2.7,1.3-4.6,2-7.3,2.7c-2.1,0.7-4.2,1.2-6.5,1.7c-0.6,0.1-1.2,0.2-1.8,0.2c0.8-0.1,1.6-0.2,2.5-0.3
							C181.3,141.1,182.6,140.5,184.4,140z"/>
						<path class="st1" d="M167.8,142.8c0.3,0,0.9-0.1,0.9-0.1c1.3,0.1,2.7,0,4-0.2c-0.2,0-0.4,0-0.6-0.1c-0.8,0.1-0.9,0.1-0.2,0.1
							c-1.6-0.1-3.1,0-4.7,0C167.3,142.7,167.3,142.8,167.8,142.8z"/>
						<path class="st1" d="M166.3,142.7c0.3,0,0.6,0,0.9,0c0,0,0,0,0,0C166.9,142.6,166.6,142.6,166.3,142.7L166.3,142.7z"/>
						<path class="st1" d="M192,138.3c1.8-0.7,3.5-1.6,5.1-2.6c1.6-1,3-2.2,4.1-3.6c0.1-0.3,0.2-0.4,0.4-0.7
							c0.2-0.2,0.3-0.5,0.5-0.7c0.2-0.5,0.4-1,0.5-1.5c0-0.2,0.1-0.4,0.1-0.6l0,0c0-0.3,0-0.2-0.1,0c-0.1,0.2-0.1,0.4-0.2,0.5
							c0-0.1,0.1-0.3,0.2-0.5c0.1-0.2,0.1-0.5,0.1-0.8c0-0.2,0-0.5-0.1-0.7c0-0.2-0.1-0.5-0.1-0.8c0.2,0.6,0.2,1.1,0.2,1.5
							c0,0.3,0,0.6,0,0.9c0,0.1,0,0.2,0,0.3c0.2-1.2,0.1-2.4-0.3-3.6c-0.1-0.3-0.2-0.5-0.3-0.7c-0.4-0.8-1-1.4-1.2-1.9
							c-0.1-0.2-0.3-0.3-0.4-0.5l0.1,0.1c-0.1-0.1-0.1-0.1-0.2-0.2c-0.6-0.7-1.3-1.3-2-1.8c-0.5-0.3-1-0.6-1.6-0.9
							c0,0-0.3-0.3-0.5-0.4c-0.2-0.1-0.6-0.2-0.9-0.4c0.4,0.3,0.7,0.6,1.1,0.8c0.4,0.4,1.3,0.5,1.7,1.1c-0.4-0.6-1.3-0.7-1.7-1.1
							c-0.3-0.2-0.7-0.5-1.1-0.8c-0.8-0.4-1.7-0.9-2.5-1.3c1.1,0.3,1.9,0.9,2.5,1.3c0.4,0.2,0.7,0.3,0.9,0.4
							c0.2,0.1,0.5,0.4,0.5,0.4c0.5,0.3,1.1,0.6,1.6,0.9c-1.4-1.1-3-2-4.6-2.8c-5.3-2.5-10.9-3.8-16.6-4.5
							c-5.7-0.7-11.4-0.9-17.5-0.5c-6.6,0.5-12.9,1.5-18.9,3.7c-2.9,1.1-5.8,2.5-8.1,4.7c-1.2,1.1-2.2,2.3-2.9,3.9
							c-0.7,1.5-0.8,3.4-0.3,5c0.5,1.6,1.5,3,2.6,4.2c1.1,1.2,2.4,2.1,3.7,3c2.7,1.7,5.5,2.9,8.6,4c2.3,0.8,5.7,1.7,9.2,2.2
							c3.4,0.5,6.9,0.8,9.2,0.8c6.3-0.2,3-1.4,2.7-1.4c-1.9-0.5-3.6-0.6-5.7-0.8c-2.2-0.2-4.8-0.5-8.5-1.5c2.5,0.6,1.6,0.6-0.6,0.2
							c-2.2-0.4-5.6-1.4-7.8-2.5c-1.6-0.8-3.3-1.7-5-2.7c-1.7-1-3.4-2.3-4.7-3.8c-0.6-0.8-1.1-1.6-1.3-2.5c-0.2-0.9-0.2-1.8,0.1-2.7
							c0.5-1.8,2.1-3.4,3.8-4.6c1.7-1.2,3.7-2.3,6.1-3.2c6.3-2.3,12.8-3.4,19.3-3.9c6.6-0.4,13.4-0.3,20.4,1.1
							c3.7,0.7,6.9,1.4,9.9,2.4c2.2,0.8,4.3,2,5.8,3.1c2.3,1.6,4.1,3.4,4.7,5.5c-0.3-1.2-0.9-2.1-1.6-2.9c-0.7-0.9-1.7-1.6-2.9-2.5
							c-1.6-1.1,1.4,0.5,2.3,1.4c0.4,0.4,0.8,1.2,1.1,1.6c0.7,0.9,1.2,1.9,1.4,3.1c0.1,0.5-0.1,0.5-0.1,0.7c0,1.6-0.4,3-1.1,3.9
							c-0.5,0.7-1.1,1.2-1.7,1.7c-0.4,0.3-0.7,0.6-1.1,0.9c-0.2,0.2-0.5,0.4-0.8,0.6c0.3-0.1,0.4-0.1,0.5-0.1
							c-0.4,0.3-1,0.6-1.4,0.8c0.4-0.2,1-0.6,1.4-0.8c-0.1,0-0.3,0-0.5,0.1c-1.9,1.5-4.4,2.8-6.8,3.8l0,0c1.4-0.6,2.7-1.1,4.3-1.7
							c-0.6,0.3-0.6,0.2,0.1-0.2l0.6-0.2c-1.2,0.7-2.4,1.3-3.7,1.7c0,0-0.5,0.3-0.8,0.4c-0.4,0.1-0.4,0-0.5,0
							c-0.3,0.1-0.6,0.2-0.8,0.3c0.3-0.1,1-0.2,1.5-0.4C191.5,138.5,192,138.3,192,138.3z"/>
						<path class="st1" d="M202.7,127.7c0,0.2,0,0.5,0,0.8c0.1-1,0-2-0.3-3C202.4,126,202.7,126.8,202.7,127.7z"/>
					</g>
				</g>
			</g>
		</g>
	</g>
</g>
<g>
	<g>
		<g>
			<g>
				<g class="st0">
					<g>
						<path class="st1" d="M153.2,128c0-0.5,0.1-0.9,0.1-1.4c-0.1,0.2-0.2,0.5-0.4,0.7C152.9,127.6,153.1,127.7,153.2,128z"/>
						<path class="st1" d="M153.4,125.3c0-0.1,0-0.2,0-0.2c0-0.1-0.1-0.1-0.1-0.2L153.4,125.3z"/>
						<path class="st1" d="M153.2,122.9c-0.1,0.4,0,0.8,0,1.2C153.3,123.7,153.3,123.3,153.2,122.9z"/>
						<path class="st1" d="M153,124.8c0.1-0.1,0.3-0.2,0.4,0l0,0c0-0.2-0.1-0.5-0.1-0.7C153.2,124.4,153.1,124.6,153,124.8z"/>
						<path class="st1" d="M153,124.8c-0.1,0.1-0.3,0.4-0.4,0.4C152.7,125.1,152.9,124.9,153,124.8z"/>
						<path class="st1" d="M149.6,124.1c-0.1-0.2,0.9-0.2,0.7-0.6c-0.3-1.1-0.6-2.1-0.7-3.1c-0.2-0.5,0.8-1.2,0.6-1.7
							c-0.1-0.6-0.5-1.5-0.9-2.1c-0.4-0.6-0.7-0.9-0.6-0.1c0.1,1.2,0.2,2.3,0.3,3.2c0.1,1,0.2,2,0.3,3.1c0.3,1.8,0.8,3.6,1,5.5
							c0,0.5-0.1,1-0.2,1.5c0.2-0.6,0.4-1.3,0.5-2C151,126.8,149.8,125.6,149.6,124.1z"/>
						<path class="st1" d="M152,138.1c-0.1-0.2-0.3-0.7-0.3-0.7c0.8-1,0.6-2.2,0.4-3.3c-0.2,0.2-0.3,0.3-0.5,0.5
							c0,0.6,0.3,0.7,0.5,0.2c-0.7,1.3-0.9,2.5-0.9,3.8C151.5,138.4,151.8,138.4,152,138.1z"/>
						<path class="st1" d="M151.3,139.2c0-0.3,0-0.5,0-0.7c0,0-0.1,0-0.1,0C151.2,138.7,151.2,139,151.3,139.2L151.3,139.2z"/>
						<path class="st1" d="M152.3,117.7c-0.1-3.2-0.3-6.2-0.5-9.2c-0.2-0.2-0.5-0.3-0.4-0.6c0.1-0.3,0.2-0.5,0.2-0.7
							c-0.1-0.4-0.1-0.9-0.2-1.3c0-0.1-0.1-0.3-0.1-0.4l0,0c-0.1-0.2-0.3-0.1-0.4,0.1c-0.1,0.2-0.2,0.4-0.3,0.5
							c0.1-0.1,0.2-0.3,0.3-0.5c0.1-0.2,0.1-0.5,0.1-0.7c-0.1-0.4-0.3-0.8-0.3-1.2c0.2,0.4,0.3,0.8,0.3,1.2c0.1,0.2,0.2,0.5,0.3,0.7
							c0,0.1,0.1,0.1,0.1,0.2c-0.1-1-0.3-1.9-0.5-2.9c-0.1-0.2-0.1-0.4-0.2-0.6c-0.3-0.7-0.7-1.3-0.4-1.9c0-0.2-0.1-0.3-0.1-0.5
							c0,0,0,0.1,0,0.1c0-0.1,0-0.2,0-0.2c-0.3-0.7-0.5-1.4-0.8-2.2c-0.4-0.4-0.8-0.7-1.2-1.1c0,0,0-0.1,0.1-0.3
							c0-0.1,0-0.3,0.1-0.4c-0.3,0-0.6-0.2-0.9-0.4c0,0.5-0.1,1,0,1.4c-0.2,0.6,1.4,0.5,0.9,1.4c0.5-0.9-1-0.8-0.9-1.4
							c0-0.4,0-0.8,0-1.4c-0.3-0.3-0.5-0.6-0.8-0.9c-0.2-0.4-0.4-0.8-0.5-1.2c0.5,0.2,0.8,0.5,1,0.9c0.2,0.4,0.3,0.8,0.3,1.2
							c0.3,0.2,0.6,0.4,0.9,0.4c0,0.1,0,0.3-0.1,0.4c0,0.1-0.1,0.3-0.1,0.3c0.4,0.4,0.8,0.7,1.2,1.1c-0.3-0.7-0.6-1.4-1.1-2.1
							c-0.2-0.3-0.4-0.7-0.6-1l-0.8-0.9c-0.9-1-2-2-3.1-2.6c-0.7-0.4-1.1-1-1.7-1.9c-0.6-0.8-1.3-1.7-2.2-2.5c-1.7-1.6-4-2.6-6.3-3
							l-0.9-0.1l-0.9-0.1c-0.3,0-0.6,0-0.8-0.1c-0.2,0-0.3,0-0.5-0.1c-0.7-0.1-1.5-0.5-2.2-0.9c-1.4-0.9-2.5-2.3-3.2-4
							c-0.4-1-0.6-2.1-0.5-3.1c0-0.3,0-0.5,0.1-0.8l0-0.4l0.1-0.5c0.1-0.7,0.2-1.3,0.2-2c0.3-2.7,0.5-5.4,0.4-8.3
							c-0.1-2.8-0.7-5.6-1.6-8.1c-0.9-2.5-1.9-4.9-3-7.1c-0.5-1.1-1.1-2.3-1.6-3.4c-0.5-1.1-1.1-2.4-1.8-3.6c-1.3-2.5-3-5.2-5.5-7.7
							c-0.9-1-2.3-1.9-3.9-2.7c-1.6-0.8-3.5-1.4-5.3-1.7c-3.8-0.7-7.4,0-9.7,0.5c-1.5,0.8-2.2,1.6-2.6,2.4c-0.3,0.8-0.2,1.4,0,2
							c0.5,1.1,1.6,1.9,1.7,2c2,1.2,3.3,1.3,4.9,1.3c0.8,0,1.7,0.1,2.7,0.3c1,0.2,2.1,0.7,3.1,1.5c-0.7-0.5-1-0.8-0.8-1
							c0.2-0.2,0.8-0.2,1.5,0c0.4,0.1,0.8,0.3,1.2,0.5c0.4,0.3,0.8,0.5,1.2,0.9c0.8,0.7,1.4,1.7,1.5,2.7c0.5,2.9,1.5,4.9,3.4,8.2
							c1.8,3.1,3.9,6.3,4.4,9.4c0.3,1.6,0.8,3.1,1,4.9c0,2.4-0.1,4.7-0.2,7.3l-0.1,1l0,0.5l0,0.2l0,0.4c0,0.5,0,1,0,1.6
							c0,0.5,0.1,1.1,0.2,1.6c0.3,2.1,1,4.1,2.1,6c1.1,1.8,2.5,3.4,4.2,4.8c1.7,1.3,3.8,2.4,6.4,2.8c0.6,0.1,1.4,0.1,2,0.2l0.7,0
							c0.2,0,0.4,0,0.6,0.1l0.3,0l0.3,0.1c0.7,0.2,1.3,0.4,1.8,0.9c0.5,0.4,1,0.7,1.8,1.4c0.5,0.5,1.1,0.9,1.6,1.4
							c0.4,0.3,0.8,0.6,1.2,0.8c0.4,0.2,0.8,0.4,1.3,0.6c0.2,0.1,0.2,0.1,0.3,0.1l0.2,0c0.1,0,0.2,0,0.3,0.1
							c0.2,0.1,0.4,0.1,0.6,0.2c1.1,0.6,1.6,2.1,2.1,3.1c0.9,1.6,1.8,3.2,2.6,5c-0.6-2-1.4-3.3-2.4-4.9c-0.3-0.5,0-0.5,0.6-0.2
							c0.6,0.2,1.2,0.9,1.6,1.3c0.4,0.3-0.4,1.3-0.1,1.6c0.1,0.4,0.4,0.8,0.6,1.2c0.2,0.4,0.5,0.8,0.8,1.3c0.3,0.4-0.6,0.5-0.5,0.7
							c0.5,1.3,1.9,2.3,1.8,3.2c-0.1,0.7-0.1,1.4-0.2,2c0,0.4,0,0.8,0.1,1.2c0.1,0.3,0.2,0.5,0.3,0.8c0.3-0.2,0.6-0.3,1-0.4
							c0,0.4-0.2,1-0.2,1.4c0-0.4,0.2-1,0.2-1.4c-0.4,0.1-0.7,0.2-1,0.4c0.3,1,0.7,2,1,3.1c0.3,1.1,0.5,2.2,0.8,3.2c0,0,0.1,0,0.1,0
							c-0.1-1.3,0-2.5,0.5-3.8c-0.2,0.6-0.4,0.5-0.5-0.1l0.5-0.5c0.2,0.6,0.3,1.1,0.4,1.7c0,0.6-0.1,1.1-0.4,1.6
							c0,0,0.2,0.5,0.3,0.7c-0.1,0.4-0.4,0.3-0.7,0.4c0,0.2,0.1,0.5,0.1,0.7C151.8,119.4,152.3,117.7,152.3,117.7z"/>
						<path class="st1" d="M151.1,104.8c0.1,0.2,0.1,0.4,0.2,0.6c-0.1-0.8-0.3-1.6-0.4-2.4C150.5,103.5,150.8,104.1,151.1,104.8z"/>
					</g>
				</g>
			</g>
		</g>
	</g>
</g>
<g>
	<g>
		<g>
			<g>
				<g class="st0">
					<g>
						<path class="st1" d="M215,24.8c-0.6-0.1-1.2-0.1-1.9-0.2c0.3,0.1,0.6,0.2,0.9,0.4C214.5,25.1,214.7,24.9,215,24.8z"/>
						<path class="st1" d="M211.5,24.4c-0.1,0-0.2,0-0.3,0c-0.1,0-0.2,0-0.3,0.1L211.5,24.4z"/>
						<path class="st1" d="M208.2,24.3c0.6,0.1,1.1,0.1,1.7,0.1C209.4,24.3,208.8,24.2,208.2,24.3z"/>
						<path class="st1" d="M210.8,24.8c-0.2-0.2-0.3-0.3,0.1-0.4c0,0,0,0,0,0c-0.3,0-0.7,0-1,0C210.2,24.5,210.5,24.6,210.8,24.8z"
							/>
						<path class="st1" d="M210.8,24.8c0.2,0.2,0.5,0.3,0.6,0.4C211.2,25,211,24.9,210.8,24.8z"/>
						<path class="st1" d="M209.6,28.1c-0.3,0.1-0.2-0.9-0.8-0.7c-1.6,0.1-2.9,0.4-4.3,0.3c-0.7,0.1-1.6-1-2.3-0.9
							c-1.6,0.1-5.6,1-3.3,1.2c3.5,0.2,5.7,0.2,8.9,0.3c2.6-0.1,5-0.4,7.7-0.5c0.7,0,1.4,0.2,2.1,0.3c-0.9-0.2-1.8-0.4-2.8-0.7
							C213.4,27,211.7,28.1,209.6,28.1z"/>
						<path class="st1" d="M228.7,26.2c-0.3,0.1-1,0.3-1,0.3c-1.4-0.7-2.9-0.5-4.5-0.4c0.2,0.2,0.4,0.3,0.6,0.5c0.9,0,1-0.3,0.2-0.5
							c1.7,0.7,3.4,0.8,5.1,0.8C229.2,26.7,229.2,26.4,228.7,26.2z"/>
						<path class="st1" d="M230.3,26.9c-0.3,0-0.7,0-1,0.1c0,0,0,0.1,0,0.1C229.7,27,230,26.9,230.3,26.9L230.3,26.9z"/>
						<path class="st1" d="M201.2,24.5c-4.3-0.4-8.4-0.9-12.4-1.3c-0.3,0.2-0.6,0.4-1,0.2c-0.3-0.2-0.6-0.3-0.9-0.4
							c-0.6-0.1-1.2-0.1-1.7-0.2c-0.2,0-0.4,0-0.6,0l0,0c-0.3,0.1-0.3,0.2-0.1,0.4c0.2,0.1,0.4,0.3,0.6,0.4
							c-0.1-0.1-0.4-0.2-0.6-0.4c-0.3-0.1-0.6-0.3-0.9-0.4c-0.5,0-1.1,0-1.7-0.1c0.6-0.1,1.2,0,1.7,0.1c0.3,0,0.7,0,1,0
							c0.1,0,0.2,0,0.3-0.1c-1.3-0.2-2.6-0.3-4-0.5c-0.3,0-0.6,0-0.8,0c-1,0-1.9,0.1-2.5-0.4c-0.2,0-0.5-0.1-0.7-0.1l0.1,0.1
							c-0.1,0-0.2-0.1-0.3-0.1c-1-0.1-2-0.2-3-0.3c-0.7,0.1-1.3,0.3-2,0.4c0,0-0.4-0.3-0.6-0.5c-0.3,0.2-0.7,0.4-1.1,0.4
							c0.5,0.3,1,0.7,1.4,0.9c0.6,0.5,1.6-0.9,2.3,0.1c-0.7-1-1.7,0.4-2.3-0.1c-0.4-0.2-0.9-0.6-1.4-0.9c-1,0.1-2.2-0.1-3.2-0.6
							c1.3-0.4,2.3,0.1,3.2,0.6c0.5-0.1,0.9-0.2,1.1-0.4c0.2,0.2,0.6,0.5,0.6,0.5c0.7-0.1,1.4-0.3,2-0.4c-2-0.2-3.9-0.4-6-0.6
							c-3.3-0.3-6.5-0.5-9.7-0.5c-3.2,0-6.4,0.1-9.7,0.6c-0.8,0.1-1.7,0.3-2.5,0.5c-0.8,0.3-1.7,0.5-2.5,0.9
							c-0.4,0.2-0.8,0.3-1.3,0.6l-1.2,0.7c-0.6,0.4-1.2,0.8-1.9,1.2c-2.6,1.4-5.6,2.3-8.8,2.8c-6.9,1-13.9,0.4-20.8-0.2
							c-1.7-0.2-3.4-0.3-5.2-0.4c-1.7-0.1-3.5-0.1-5.1-0.1c-3.3,0-6.6,0.1-9.9,0c-3.2,0-6.4-0.2-9.6-0.7c-3.2-0.5-6.3-1.3-9.5-2.5
							c-2.4-0.9-5.9-1.7-9.4-2.7c-3.5-0.9-6.9-1.9-9.2-2.7c-3.3-0.4-4.6,0.6-5.1,1.8c-0.4,1.2,0.1,2.6,0.2,2.7
							c1.3,2.4,3,3.5,5.3,4.5c2.3,1,5.2,1.9,9.3,4c-2.8-1.3-1.6-1.6,1-1.1c2.5,0.5,6.4,1.6,9,3.2c3.8,2.5,9.2,3.2,14.5,3.1
							c5.3-0.1,10.7-0.8,15.6-0.4c2.3,0.2,4.9,0.1,7.9,0.2c3.8,0.4,7.7,0.6,11.7,0.5c4-0.1,8.1-0.5,12.3-1.6
							c4.2-1.1,8.5-2.8,12.5-5.9c0.1-0.1,0.2-0.1,0.4-0.2c0.2-0.1,0.4-0.2,0.7-0.3l0.9-0.3l1.1-0.3c1.6-0.3,3.3-0.6,5.2-0.6
							c3.9-0.3,7.6-1.1,11.1-1.5c2.6-0.1,5.3,0.5,7.4,0.7c3.3,0.2,6.2,0.1,9-0.1c-3.1-0.1-5.4,0-8.8-0.1c-2.3-0.1,1.7-1.1,3.2-1.3
							c0.7-0.2,1.6,1,2.3,0.8c1.4,0.1,2.7-0.2,4.3-0.3c0.7-0.2,0.5,0.8,0.8,0.7c2.1,0,3.8-1.1,5.1-0.7c1,0.2,1.9,0.5,2.7,0.7
							c0.6,0.1,1.1,0.2,1.7,0.2c0.4,0,0.8-0.1,1.2-0.1c-0.3-0.3-0.3-0.7-0.4-1.1c0.5,0.1,1.3,0.4,1.8,0.5c-0.5-0.1-1.3-0.4-1.8-0.5
							c0.1,0.4,0.1,0.7,0.4,1.1c2.8-0.3,6-0.5,9-0.6c0,0,0-0.1,0-0.1c-1.7-0.1-3.4-0.3-5.1-1.1c0.7,0.3,0.6,0.5-0.3,0.5
							c-0.2-0.2-0.4-0.4-0.6-0.5c1.6-0.1,3.1-0.2,4.5,0.6c0,0,0.7-0.1,1-0.2c0.5,0.2,0.4,0.5,0.5,0.7c0.3,0,0.7,0,1,0
							C203.4,25.3,201.2,24.5,201.2,24.5z"/>
						<path class="st1" d="M183.6,22.7c0.2,0,0.5,0,0.8,0c-1.1-0.1-2.2-0.3-3.3-0.4C181.7,22.8,182.6,22.8,183.6,22.7z"/>
					</g>
				</g>
			</g>
		</g>
	</g>
</g>
<g>
	<ellipse class="st1" cx="166.7" cy="127.7" rx="23.9" ry="9.8"/>
	<g>
		<g>
			<g>
				<g class="st0">
					<g>
						<path class="st1" d="M175.8,137.1c0.4,0,0.7-0.1,1.1-0.2c-0.2,0-0.4,0-0.6,0C176.1,137,175.9,137,175.8,137.1z"/>
						<path class="st1" d="M177.9,136.7c0.1,0,0.1,0,0.2,0c0.1,0,0.1,0,0.2-0.1C178.1,136.7,178,136.7,177.9,136.7z"/>
						<path class="st1" d="M179.7,136.2c-0.3,0.1-0.7,0.2-1,0.2C179.1,136.4,179.4,136.3,179.7,136.2z"/>
						<path class="st1" d="M178.2,136.5c0.1,0,0.2,0,0,0.1l0,0c0.2-0.1,0.4-0.1,0.6-0.2C178.6,136.5,178.4,136.5,178.2,136.5z"/>
						<path class="st1" d="M178.2,136.5c-0.1,0-0.3,0-0.4,0C178,136.5,178.1,136.5,178.2,136.5z"/>
						<path class="st1" d="M178.5,135.6c0.2-0.1,0.2,0.2,0.5,0c0.9-0.3,1.5-0.6,2.3-0.9c0.3-0.2,1-0.1,1.3-0.3
							c0.8-0.3,2.7-1.6,1.5-1c-1.8,0.9-3,1.3-4.7,1.8c-1.4,0.5-2.7,0.9-4.2,1.2c-0.4,0.1-0.8,0.1-1.2,0.2c0.5,0,1.1-0.1,1.6-0.1
							C176.5,136.4,177.4,135.9,178.5,135.6z"/>
						<path class="st1" d="M167.6,137.7c0.2,0,0.6-0.1,0.6-0.1c0.9,0.2,1.8,0,2.7-0.1l-0.4-0.1c-0.5,0-0.6,0.1-0.1,0.1
							c-1.1-0.1-2-0.1-3.1,0C167.4,137.6,167.3,137.7,167.6,137.7z"/>
						<path class="st1" d="M166.7,137.6c0.2,0,0.4,0,0.6,0c0,0,0,0,0,0C167.1,137.5,166.9,137.5,166.7,137.6L166.7,137.6z"/>
						<path class="st1" d="M183.6,134.7c2.3-1,4.5-2.2,6-4.1c0.1-0.2,0.1-0.3,0.2-0.5c0.1-0.1,0.3-0.3,0.4-0.4
							c0.1-0.3,0.3-0.7,0.4-1c0-0.1,0-0.2,0-0.4l0,0c0-0.2,0-0.1-0.1,0c0,0.1-0.1,0.2-0.1,0.3c0-0.1,0.1-0.2,0.1-0.3
							c0-0.2,0.1-0.3,0.1-0.5c0-0.3-0.1-0.6-0.1-1c0.1,0.4,0.1,0.7,0.1,1c0,0.2,0,0.4,0,0.6c0,0.1,0,0.1,0,0.2
							c0-0.4,0.1-0.8,0.1-1.2l-0.1-0.6l-0.2-0.6c-0.1-0.2-0.1-0.3-0.2-0.5c-0.3-0.5-0.6-1-0.8-1.3l-0.3-0.3c0,0,0,0,0,0.1
							c0-0.1-0.1-0.1-0.1-0.1c-0.4-0.5-0.9-0.8-1.3-1.2c-0.3-0.2-0.7-0.4-1.1-0.6c0,0-0.2-0.2-0.3-0.3c-0.2,0-0.4-0.1-0.6-0.2
							c0.2,0.2,0.5,0.4,0.7,0.6c0.3,0.3,0.9,0.3,1.1,0.7c-0.3-0.4-0.9-0.4-1.1-0.7c-0.2-0.2-0.4-0.4-0.7-0.6
							c-0.5-0.3-1.1-0.6-1.6-0.9c0.7,0.2,1.2,0.5,1.6,0.9c0.2,0.1,0.5,0.2,0.6,0.2c0.1,0.1,0.3,0.3,0.3,0.3c0.3,0.2,0.7,0.4,1.1,0.6
							c-0.9-0.7-2-1.3-3.1-1.8c-1.7-0.9-3.6-1.5-5.4-1.9c-1.8-0.5-3.7-0.8-5.5-1.1c-3.7-0.5-7.5-0.6-11.6-0.4
							c-4.3,0.3-8.5,1-12.5,2.4c-2,0.7-3.8,1.7-5.5,3.1c-0.4,0.3-0.8,0.8-1.1,1.2l-0.5,0.7l-0.2,0.4l-0.2,0.4
							c-0.5,1.1-0.5,2.4-0.2,3.5l0.3,0.8c0.1,0.3,0.3,0.5,0.4,0.7c0.3,0.5,0.7,0.9,1,1.3c0.4,0.4,0.8,0.7,1.2,1.1
							c0.4,0.3,0.9,0.6,1.3,0.9c1.8,1.1,3.7,2,5.7,2.8c1.5,0.6,3.8,1.2,6.1,1.5c2.3,0.4,4.6,0.5,6.1,0.5c4.2-0.3,2-1.4,1.8-1.4
							c-0.6-0.2-1.2-0.4-1.8-0.5c-0.6-0.1-1.2-0.2-1.9-0.3c-1.4-0.2-3.2-0.3-5.6-1.1c1.6,0.5,1,0.5-0.4,0.2c-1.4-0.2-3.7-0.9-5-1.8
							c-0.5-0.3-1-0.6-1.6-0.9l-0.8-0.5l-0.8-0.5c-1.1-0.7-2.2-1.5-2.9-2.4c-0.2-0.2-0.3-0.5-0.5-0.7c-0.1-0.2-0.2-0.5-0.3-0.8
							c0-0.3-0.1-0.5-0.1-0.8c0.1-0.3,0-0.5,0.1-0.8c0.3-1,1.2-2,2.3-2.8c1.1-0.7,2.4-1.4,3.9-2c2-0.7,4.1-1.2,6.2-1.6
							c2.1-0.4,4.2-0.7,6.4-0.8c4.3-0.3,8.7-0.2,13.3,0.7c2.4,0.4,4.5,0.8,6.5,1.4c1.4,0.5,2.8,1.3,3.7,2c1.5,1,2.6,2.1,3,3.3
							c-0.2-0.7-0.6-1.3-1-1.8c-0.5-0.5-1-1-1.8-1.5c-0.5-0.3-0.3-0.3,0.1-0.1c0.5,0.2,1.1,0.6,1.4,0.9c0.3,0.2,0.5,0.8,0.7,1
							c0.2,0.3,0.5,0.6,0.6,0.9c0.1,0.2,0.2,0.3,0.2,0.5c0.1,0.2,0.1,0.3,0.1,0.5c0.1,0.3-0.1,0.3-0.1,0.4c0.1,1-0.2,1.9-0.6,2.4
							c-0.2,0.2-0.4,0.4-0.6,0.6c-0.2,0.2-0.4,0.3-0.6,0.5c-0.2,0.2-0.5,0.4-0.7,0.6c-0.2,0.1-0.3,0.3-0.5,0.4c0.2,0,0.3,0,0.4,0
							c-0.3,0.2-0.7,0.4-0.9,0.5c0.3-0.2,0.7-0.4,0.9-0.5c-0.1,0-0.2-0.1-0.4,0c-1.2,1-2.8,1.9-4.4,2.6l0,0c0.9-0.4,1.8-0.7,2.8-1.1
							c-0.4,0.2-0.4,0.1,0-0.2l0.4-0.1c-0.4,0.3-0.8,0.5-1.2,0.7c-0.4,0.2-0.8,0.4-1.2,0.4c0,0-0.3,0.2-0.5,0.3
							c-0.3,0.1-0.3,0-0.4,0c-0.2,0.1-0.4,0.1-0.5,0.2C182.3,135,183.6,134.7,183.6,134.7z"/>
						<path class="st1" d="M190.6,127.7c0,0.1,0,0.3,0,0.5L190.6,127.7l0-0.5l-0.1-0.5c0-0.2-0.1-0.3-0.2-0.5
							C190.5,126.8,190.5,127.2,190.6,127.7z"/>
					</g>
				</g>
			</g>
		</g>
	</g>
</g>
<g>
	<g>
		<g>
			<g>
				<g class="st0">
					<g>
						<path class="st1" d="M184.4,123c0-0.5,0.1-0.9,0.1-1.4c-0.1,0.2-0.2,0.5-0.4,0.7C184,122.6,184.2,122.7,184.4,123z"/>
						<path class="st1" d="M184.6,120.3c0-0.1,0-0.2,0-0.2c0-0.1-0.1-0.1-0.1-0.2L184.6,120.3z"/>
						<path class="st1" d="M184.4,117.9c-0.1,0.4,0,0.8,0,1.2C184.5,118.8,184.5,118.4,184.4,117.9z"/>
						<path class="st1" d="M184.1,119.8c0.1-0.1,0.3-0.2,0.4,0l0,0c0-0.2-0.1-0.5-0.1-0.7C184.3,119.4,184.2,119.6,184.1,119.8z"/>
						<path class="st1" d="M184.1,119.8c-0.1,0.1-0.3,0.4-0.4,0.4C183.9,120.1,184,120,184.1,119.8z"/>
						<path class="st1" d="M180.7,119.1c-0.1-0.2,0.9-0.2,0.7-0.6c-0.3-1.1-0.6-2.1-0.7-3.1c-0.2-0.5,0.8-1.2,0.6-1.7
							c-0.1-0.6-0.5-1.5-0.9-2.1c-0.4-0.6-0.7-0.9-0.6-0.1c0.1,1.2,0.2,2.3,0.3,3.2c0.1,1,0.2,2,0.3,3.1c0.3,1.8,0.8,3.6,1,5.5
							c0,0.5-0.1,1-0.2,1.5c0.2-0.6,0.4-1.3,0.5-2C182.1,121.8,180.9,120.6,180.7,119.1z"/>
						<path class="st1" d="M183.1,133.1c-0.1-0.2-0.3-0.7-0.3-0.7c0.8-1,0.6-2.2,0.4-3.3c-0.2,0.2-0.3,0.3-0.5,0.5
							c0,0.6,0.3,0.7,0.5,0.2c-0.7,1.3-0.9,2.5-0.9,3.8C182.6,133.4,182.9,133.5,183.1,133.1z"/>
						<path class="st1" d="M182.4,134.2c0-0.3,0-0.5,0-0.7c0,0-0.1,0-0.1,0C182.3,133.7,182.3,134,182.4,134.2L182.4,134.2z"/>
						<path class="st1" d="M183.5,112.8c-0.1-3.2-0.3-6.2-0.5-9.1c-0.2-0.2-0.5-0.3-0.4-0.6c0.1-0.3,0.2-0.5,0.2-0.7
							c-0.1-0.4-0.1-0.9-0.2-1.3c0-0.1-0.1-0.3-0.1-0.4l0,0c-0.1-0.2-0.3-0.1-0.4,0.1c-0.1,0.2-0.2,0.4-0.3,0.5
							c0.1-0.1,0.2-0.3,0.3-0.5c0.1-0.2,0.1-0.5,0.1-0.7c-0.1-0.4-0.3-0.8-0.3-1.2c0.2,0.4,0.3,0.8,0.3,1.2c0.1,0.2,0.2,0.5,0.3,0.7
							c0,0.1,0.1,0.1,0.1,0.2c-0.1-1-0.3-1.9-0.5-2.9c-0.1-0.2-0.1-0.4-0.2-0.6c-0.3-0.7-0.7-1.3-0.4-1.9c-0.1-0.2-0.1-0.3-0.1-0.5
							c0,0,0,0.1,0,0.1c0-0.1,0-0.2,0-0.2c-0.3-0.7-0.5-1.4-0.8-2.2c-0.4-0.4-0.8-0.7-1.2-1.1c0,0,0-0.1,0.1-0.3
							c0-0.1,0-0.3,0.1-0.4c-0.3,0-0.6-0.2-0.9-0.4c0,0.5-0.1,1,0,1.4c-0.2,0.6,1.4,0.5,0.9,1.4c0.5-0.9-1-0.8-0.9-1.4
							c0-0.4,0-0.8,0-1.4c-0.3-0.3-0.5-0.6-0.8-0.9c-0.2-0.4-0.4-0.8-0.5-1.2c0.5,0.2,0.8,0.5,1,0.9c0.2,0.4,0.3,0.8,0.3,1.2
							c0.3,0.2,0.6,0.4,0.9,0.4c0,0.1,0,0.3-0.1,0.4c0,0.1-0.1,0.3-0.1,0.3c0.4,0.4,0.8,0.7,1.2,1.1c-0.3-0.7-0.6-1.4-1.1-2.1
							c-0.2-0.3-0.4-0.7-0.6-1l-0.8-0.9c-0.9-1-2-2-3.1-2.6c-0.7-0.4-1.1-1-1.7-1.9c-0.6-0.8-1.3-1.7-2.2-2.5c-1.7-1.6-4-2.6-6.3-3
							l-0.9-0.1l-0.9-0.1c-0.3,0-0.6,0-0.8-0.1c-0.2,0-0.3,0-0.5-0.1c-0.7-0.1-1.5-0.5-2.2-0.9c-1.4-0.9-2.5-2.3-3.2-4
							c-0.4-1-0.6-2.1-0.5-3.1c0-0.3,0-0.5,0.1-0.8l0-0.4l0.1-0.5c0.1-0.7,0.2-1.3,0.2-2c0.3-2.7,0.5-5.4,0.4-8.3
							c-0.1-2.8-0.7-5.6-1.6-8.1c-0.9-2.5-1.9-4.9-3-7.1c-0.5-1.1-1.1-2.3-1.6-3.4c-0.4-0.8-0.8-2-1.3-3.3c-0.5-1.3-1.1-2.7-2-4.3
							c-0.9-1.5-2.2-3.2-4.1-4.5c-0.4-0.3-0.8-0.5-1.2-0.7c-0.5-0.2-0.9-0.4-1.4-0.6c-1.2-0.4-1.7-0.4-2.5-0.6
							c-1.5-0.3-3.2-0.4-4.8-0.3c-3.2,0-6.1,0.5-7.3,0.5c-0.8,0.4-0.8,0.9-1.1,1.5c-0.3,0.5-0.7,1.1-1,1.6c-0.6,1.1-0.4,2.4-0.3,2.5
							c0.5,1.1,1.4,1.7,2.2,2.1c0.8,0.4,1.7,0.5,2.6,0.5c1.8,0.1,4,0,6.8,1.1c-0.9-0.4-1.3-0.6-1.1-0.9c0.2-0.2,0.8-0.4,1.6-0.4
							c0.4,0,0.9,0,1.4,0.1c0.3,0.1,0.5,0.1,0.8,0.2c0.3,0.1,0.4,0.2,0.6,0.3c0.7,0.4,1.1,1.1,1.1,2c0,1.2,0.1,2.3,0.5,3.6
							c0.2,0.7,0.5,1.4,0.8,2.3c0.2,0.4,0.4,1,0.7,1.6c0.2,0.4,0.4,0.8,0.7,1.2c1.8,3.1,3.9,6.3,4.4,9.4c0.3,1.6,0.8,3.1,1,4.9
							c0,2.4-0.1,4.7-0.2,7.3l-0.1,1l0,0.5l0,0.2l0,0.4c0,0.5,0,1,0,1.6c0,0.5,0.1,1.1,0.2,1.6c0.3,2.1,1.1,4.1,2.1,6
							c1.1,1.8,2.5,3.4,4.2,4.8c1.7,1.3,3.8,2.4,6.4,2.8c0.6,0.1,1.4,0.1,2,0.2l0.7,0c0.2,0,0.4,0,0.6,0.1l0.3,0l0.3,0.1
							c0.7,0.2,1.3,0.4,1.8,0.9c0.5,0.4,1,0.7,1.8,1.4c0.5,0.5,1.1,0.9,1.6,1.4c0.4,0.3,0.8,0.6,1.2,0.8c0.4,0.2,0.8,0.4,1.3,0.6
							c0.2,0.1,0.2,0.1,0.3,0.1l0.2,0c0.1,0,0.2,0,0.3,0.1c0.2,0.1,0.4,0.1,0.6,0.2c1.1,0.6,1.6,2.1,2.1,3.1c0.9,1.6,1.8,3.2,2.6,5
							c-0.6-2-1.4-3.3-2.4-4.9c-0.3-0.5,0-0.5,0.6-0.2c0.6,0.2,1.2,0.9,1.6,1.3c0.4,0.3-0.4,1.3-0.1,1.6c0.1,0.4,0.4,0.8,0.6,1.2
							c0.2,0.4,0.5,0.8,0.8,1.3c0.3,0.4-0.6,0.5-0.5,0.7c0.5,1.3,1.9,2.3,1.8,3.2c-0.1,0.7-0.1,1.4-0.2,2c0,0.4,0,0.8,0.1,1.2
							c0.1,0.3,0.2,0.5,0.3,0.8c0.3-0.2,0.6-0.3,1-0.4c0,0.4-0.2,1-0.2,1.4c0-0.4,0.2-1,0.2-1.4c-0.4,0.1-0.7,0.2-1,0.4
							c0.3,1,0.7,2,1,3.1c0.3,1.1,0.5,2.2,0.8,3.2c0,0,0.1,0,0.1,0c-0.1-1.3,0-2.5,0.5-3.8c-0.2,0.6-0.4,0.5-0.5-0.1l0.5-0.5
							c0.2,0.6,0.3,1.1,0.4,1.7c0,0.6-0.1,1.1-0.4,1.6c0,0,0.2,0.5,0.3,0.7c-0.1,0.4-0.4,0.3-0.7,0.4c0,0.2,0.1,0.5,0.1,0.7
							C182.9,114.4,183.5,112.8,183.5,112.8z"/>
						<path class="st1" d="M182.2,99.8c0.1,0.2,0.1,0.4,0.2,0.6c-0.1-0.8-0.3-1.6-0.4-2.4C181.6,98.5,181.9,99.1,182.2,99.8z"/>
					</g>
				</g>
			</g>
		</g>
	</g>
</g>
<g>
	<g>
		<g>
			<g>
				<g class="st0">
					<g>
						<path class="st1" d="M167.8,125.9c0-0.5,0.1-0.9,0.1-1.4c0,0.2-0.1,0.5-0.2,0.7C167.6,125.6,167.7,125.7,167.8,125.9z"/>
						<path class="st1" d="M167.9,123.3c0-0.1,0-0.2,0-0.2c0-0.1,0-0.1,0-0.2L167.9,123.3z"/>
						<path class="st1" d="M167.9,120.9c0,0.4,0,0.8,0,1.2C167.9,121.8,167.9,121.3,167.9,120.9z"/>
						<path class="st1" d="M167.7,122.8c0.1-0.1,0.2-0.2,0.2,0l0,0c0-0.2,0-0.5,0-0.7C167.8,122.4,167.8,122.6,167.7,122.8z"/>
						<path class="st1" d="M167.7,122.8c-0.1,0.1-0.1,0.4-0.2,0.4C167.6,123.1,167.7,123,167.7,122.8z"/>
						<path class="st1" d="M166,122.1c0-0.2,0.4-0.2,0.3-0.7c-0.1-1.1-0.3-2.1-0.3-3.1c-0.1-0.5,0.4-1.2,0.3-1.7
							c-0.1-0.6-0.3-1.5-0.5-2.2c-0.2-0.6-0.4-0.9-0.3-0.1c0.1,1.3,0.1,2.3,0.2,3.3c0.1,1,0.1,2,0.1,3.1c0.1,1.8,0.4,3.6,0.4,5.5
							c0,0.5-0.1,1-0.1,1.5c0.1-0.6,0.2-1.3,0.3-2C166.7,124.9,166.1,123.7,166,122.1z"/>
						<path class="st1" d="M166.8,136.1c0-0.2-0.1-0.7-0.1-0.7c0.4-1,0.4-2.2,0.3-3.3l-0.3,0.5c0,0.6,0.1,0.7,0.3,0.2
							c-0.4,1.3-0.5,2.5-0.6,3.8C166.6,136.4,166.7,136.4,166.8,136.1z"/>
						<path class="st1" d="M166.4,137.2c0-0.2,0-0.5,0-0.7c0,0,0,0,0,0C166.4,136.7,166.4,137,166.4,137.2L166.4,137.2z"/>
						<path class="st1" d="M167.4,115.8c-0.1-3.2-0.3-6.2-0.6-9.1c-0.1-0.2-0.3-0.4-0.3-0.7c0-0.2,0.1-0.5,0.1-0.7
							c-0.1-0.4-0.1-0.9-0.2-1.3c0-0.1-0.1-0.3-0.1-0.4l0,0c-0.1-0.2-0.2-0.1-0.2,0c0,0.2-0.1,0.3-0.1,0.5c0-0.1,0.1-0.3,0.1-0.5
							c0-0.2,0-0.4,0-0.7c-0.1-0.4-0.2-0.8-0.3-1.2c0.2,0.4,0.3,0.8,0.3,1.2c0.1,0.2,0.2,0.5,0.2,0.7c0,0.1,0.1,0.1,0.1,0.2
							c-0.1-1-0.4-1.9-0.6-2.9c-0.1-0.2-0.1-0.4-0.2-0.6c-0.3-0.7-0.6-1.3-0.5-1.8c-0.1-0.2-0.1-0.3-0.2-0.5c0,0,0,0.1,0,0.1
							c0-0.1,0-0.1,0-0.2c-0.3-0.7-0.5-1.4-0.8-2.1c-0.3-0.4-0.7-0.8-1-1.2c0,0,0-0.4-0.1-0.5c-0.2-0.1-0.5-0.3-0.7-0.6
							c0.1,0.4,0.2,0.8,0.3,1.1c0,0.5,1,0.7,0.8,1.4c0.1-0.7-0.8-0.9-0.8-1.4c-0.1-0.3-0.2-0.7-0.3-1.1c-0.2-0.3-0.5-0.6-0.7-0.9
							c-0.2-0.3-0.5-0.7-0.7-1c0.4,0.2,0.7,0.6,0.9,0.9c0.2,0.3,0.4,0.7,0.5,1c0.2,0.3,0.5,0.4,0.7,0.6c0,0.2,0.1,0.5,0.1,0.5
							c0.3,0.4,0.6,0.8,1,1.2c-0.4-0.7-0.6-1.4-1.1-2c-0.2-0.3-0.4-0.6-0.6-1l-0.8-0.9c-1-1-2.1-1.9-3.2-2.6c-0.6-0.4-1.2-1.2-1.9-2
							c-0.6-0.8-1.3-1.6-2.2-2.3c-0.8-0.7-1.8-1.3-2.7-1.7c-1-0.4-2-0.7-3.1-0.9c-1-0.2-2.2-0.1-3-0.3c-0.9-0.2-1.7-0.5-2.5-1
							c-1.6-1-2.8-2.5-3.6-4.3c-0.5-1.1-0.7-2.3-0.8-3.5c0-1.1,0.2-2.5,0.2-3.8c0.2-2.6,0.3-5.3,0-8c-0.2-2.7-0.9-5.2-1.7-7.6
							c-0.9-2.4-1.9-4.7-3-6.9c-1.1-2.2-2.1-4.4-3.4-6.7c-1.3-2.3-3-4.6-5.3-6.6c-1.7-1.5-4.8-3.2-8-3.7c-3.3-0.6-6.5-0.1-8.6,0.4
							c-2.7,1.1-3,2.1-2.7,2.6c0.3,0.6,1.1,0.8,1.3,0.9c1.8,0.4,3,0.2,4.7,0.2c1.7,0,3.8-0.1,6.4,1.2c-0.9-0.4-1.2-0.6-1-0.7
							c0.2-0.1,0.8,0,1.6,0.2c0.4,0.1,0.9,0.3,1.3,0.5c0.5,0.3,0.9,0.5,1.4,0.9c0.9,0.7,1.7,1.5,2.2,2.4c0.7,1.2,1.4,2.5,2.2,3.8
							c0.8,1.3,1.6,2.8,2.5,4.5c1.8,3.2,3.7,6.6,4.5,9.9c0.4,1.6,1,3.3,1.2,5.3c0.2,2.6,0.2,5.2,0,7.8l-0.1,1l0,0.5
							c0,0.2,0,0.3,0,0.6c0,0.4,0,0.9,0,1.3l0.1,1.3c0.3,1.7,0.8,3.4,1.7,4.9c0.9,1.5,2,2.9,3.5,4c1.4,1.1,3.1,1.9,5.1,2.3
							c0.5,0.1,1.1,0.1,1.5,0.1l0.9,0c0.3,0,0.6,0.1,0.9,0.1c0.3,0,0.6,0.1,0.8,0.2c1.1,0.2,2,0.7,2.9,1.4c0.7,0.5,1.3,1.1,2,1.8
							c0.4,0.4,0.7,0.8,1.2,1.2c0.4,0.4,1.1,1,1.9,1.4c0.3,0.1,0.6,0.2,0.9,0.4c0.3,0.1,0.5,0.3,0.8,0.4c1.3,0.9,2.2,2.5,2.8,3.7
							c1,1.9,1.8,3.7,2.4,5.6c-0.6-2.1-1.2-3.5-2.3-5.5c-0.8-1.3,1.1,0.6,1.6,1.6c0.3,0.4,0,1.2,0.2,1.6c0.1,0.5,0.4,0.9,0.5,1.4
							c0.2,0.5,0.4,0.9,0.6,1.4c0.2,0.4-0.3,0.5-0.2,0.7c0.4,1.4,1.2,2.5,1.2,3.4c0,0.7,0,1.4,0,2c0,0.4,0,0.8,0.1,1.2
							c0.1,0.3,0.1,0.5,0.2,0.8c0.1-0.2,0.3-0.3,0.5-0.4c0,0.4-0.1,1-0.1,1.4c0-0.4,0.1-1,0.1-1.4c-0.2,0.1-0.4,0.2-0.5,0.4
							c0.2,1,0.4,2,0.6,3.1c0.2,1.1,0.3,2.2,0.4,3.3l0,0c-0.1-1.3,0-2.5,0.2-3.8c-0.1,0.6-0.2,0.5-0.3-0.1l0.2-0.5
							c0.1,0.6,0.2,1.1,0.2,1.7c0,0.6,0,1.1-0.2,1.6c0,0,0.1,0.5,0.2,0.7c-0.1,0.4-0.2,0.3-0.3,0.4c0,0.2,0,0.5,0,0.7
							C167.1,117.4,167.4,115.8,167.4,115.8z"/>
						<path class="st1" d="M166.1,102.8c0.1,0.2,0.1,0.4,0.2,0.6c-0.2-0.8-0.3-1.6-0.5-2.4C165.7,101.5,165.9,102.2,166.1,102.8z"/>
					</g>
				</g>
			</g>
		</g>
	</g>
</g>
</svg>
