<?xml version="1.0" encoding="utf-8"?>
<!-- Generator: Adobe Illustrator 24.2.0, SVG Export Plug-In . SVG Version: 6.00 Build 0)  -->
<svg version="1.1" id="Layer_1" xmlns="http://www.w3.org/2000/svg" xmlns:xlink="http://www.w3.org/1999/xlink" x="0px" y="0px"
	 viewBox="0 0 269.3 212.6" style="enable-background:new 0 0 269.3 212.6;" xml:space="preserve">
<style type="text/css">
	.st0{fill:#FFFFFF;stroke:#FFFFFF;stroke-width:0.5;stroke-miterlimit:10;}
	.st1{opacity:0.85;}
	.st2{fill:#FFFFFF;}
</style>
<g>
	<path class="st0" d="M52.8,159.2c4.7-3.9,8.9-8.9,14.7-11.9c-0.3,1.1-0.5,2.1-0.9,3.1c-0.5,1.2-1.4,2.2-2.5,2.9
		c-0.9,0.6-1.6,1.5-2.3,2.3c-2,2.3-3.9,4.7-6,7c4.8,5.6,10.7,10.6,14.2,17.5c-0.3-0.3-0.7-0.6-1-0.9c-0.3,0.2-0.7,0.4-1.2,0.7
		c-5.1-4.6-10.2-9.3-15.3-14.1c-0.3,0.3-0.7,0.5-1,0.9c-4.3,4.3-8.6,8.6-12.9,12.9c-0.4,0.4-1,0.8-1.5,1.1c-1.2,0.7-2.5,0-2.3-1.4
		c0.1-0.8,0.4-1.8,0.9-2.4c2-2.3,4-4.6,6-6.8c2.4-2.6,4.8-5.1,7.1-7.6c-1.6-1.7-3.3-3.6-5.1-5.5c-2.7-2.8-5.5-5.5-8.2-8.3
		c-0.3-0.3-0.5-0.6-0.6-0.9c-0.1-0.5-0.3-1.3-0.1-1.6c0.3-0.4,1.1-0.8,1.6-0.7c0.8,0.1,1.8,0.4,2.4,1c2.4,2,4.7,4.2,7.1,6.3
		C48.3,155,50.5,157.1,52.8,159.2z"/>
</g>
<g>
	<g>
		<g>
			<g>
				<g class="st1">
					<g>
						<path class="st2" d="M64.5,123.2l-0.5-0.8c0.1,0.1,0.1,0.3,0.2,0.4C64.4,123,64.4,123.1,64.5,123.2z"/>
						<path class="st2" d="M63.6,121.8c0,0-0.1-0.1-0.1-0.1l-0.1-0.1L63.6,121.8z"/>
						<path class="st2" d="M62.6,120.6c0.2,0.2,0.4,0.4,0.5,0.6C63,121,62.8,120.8,62.6,120.6z"/>
						<path class="st2" d="M63.4,121.6C63.3,121.5,63.3,121.4,63.4,121.6L63.4,121.6c-0.1-0.1-0.1-0.2-0.2-0.4
							C63.2,121.3,63.3,121.4,63.4,121.6z"/>
						<path class="st2" d="M63.4,121.6c0.1,0.1,0.1,0.2,0.1,0.2L63.4,121.6z"/>
						<path class="st2" d="M62.9,121.5c-0.1-0.1,0-0.1-0.2-0.3c-0.2-0.2-0.5-0.5-0.7-0.7c-0.2-0.2-0.5-0.4-0.7-0.6
							c-0.2-0.2-0.5-0.5-0.8-0.7c-0.6-0.4-2.2-1.2-1.3-0.7c1.4,0.8,2.2,1.4,3.1,2.4c0.8,0.8,1.5,1.7,2.1,2.7
							c0.1,0.3,0.3,0.6,0.4,0.9c-0.2-0.4-0.3-0.8-0.5-1.2c-0.1-0.3-0.3-0.5-0.6-0.9C63.5,122.1,63.2,121.8,62.9,121.5z"/>
						<path class="st2" d="M66.3,129.3c0-0.2-0.1-0.5-0.1-0.5c0-0.3,0-0.7-0.1-1c0-0.3-0.1-0.7-0.2-1l0,0.3c0.1,0.4,0.1,0.4,0.1,0.1
							c0.1,0.8,0.2,1.6,0.2,2.4C66.2,129.6,66.3,129.6,66.3,129.3z"/>
						<path class="st2" d="M66.2,130.1c0-0.2,0-0.3,0-0.5l0,0C66.2,129.8,66.2,129.9,66.2,130.1L66.2,130.1z"/>
						<path class="st2" d="M60.1,118.6c-1.7-1.1-3.5-1.8-5.3-2.1c-0.1,0-0.2,0-0.4,0c-0.1,0-0.3-0.1-0.4-0.1c-0.3,0-0.5,0-0.8-0.1
							c-0.1,0-0.2,0-0.3,0l0,0c-0.2,0-0.1,0,0,0c0.1,0,0.2,0,0.3,0c-0.1,0-0.2,0-0.3,0c-0.1,0-0.3,0-0.4,0c-0.3,0-0.5,0-0.8,0
							c0.3,0,0.6,0,0.8,0c0.2,0,0.3,0,0.5,0l0.1,0c-0.6-0.1-1.2,0-1.8,0c-0.1,0-0.3,0-0.4,0c-0.4,0.1-0.9,0.2-1.2,0.2l-0.3,0.1
							c0,0,0,0,0.1,0c0,0-0.1,0-0.1,0c-0.4,0.1-0.9,0.2-1.4,0.4c-0.3,0.1-0.6,0.3-0.9,0.4c0,0-0.2,0.1-0.3,0.1
							c-0.1,0.1-0.3,0.2-0.4,0.3c0.2-0.1,0.5-0.2,0.7-0.2c0.3-0.1,0.6-0.3,1-0.4c-0.4,0-0.7,0.3-1,0.4c-0.2,0.1-0.4,0.1-0.7,0.2
							c-0.4,0.2-0.8,0.4-1.3,0.7c0.5-0.3,0.9-0.6,1.3-0.7c0.2-0.1,0.3-0.2,0.4-0.3c0.1,0,0.3-0.1,0.3-0.1c0.3-0.1,0.6-0.2,0.9-0.4
							c-0.9,0.3-1.7,0.7-2.5,1.1c-2.7,1.5-4.7,3.9-5.9,6.6c-1.1,2.7-1.5,5.9-0.7,9c0.8,3.4,2.9,6.2,5.5,8.1
							c5.4,3.8,12.8,3.3,17.8-1.1c1-0.8,2.2-2.3,3-3.9c0.9-1.6,1.3-3.4,1.5-4.7c0.1-1.7-0.1-2.1-0.2-2c-0.1,0-0.3,0.5-0.3,0.6
							c-0.1,0.5-0.2,0.9-0.3,1.4c-0.1,0.5-0.2,1-0.4,1.5c-0.3,1.1-0.7,2.4-1.9,4c0.7-1.1,0.6-0.7-0.1,0.3c-0.6,1-1.9,2.3-3,2.9
							c-1.5,1-3.5,2-5.7,2.4c-2.2,0.4-4.7,0.3-6.8-0.5c-1-0.4-2.1-0.9-3.2-1.6c-2.8-2-4.7-4.9-5.4-8.2c-0.7-3.3-0.2-6.9,1.8-9.9
							c1-1.6,2.2-2.9,3.5-3.8c1-0.7,2.1-1.2,3-1.6c1.4-0.5,2.7-0.8,4-0.9c-1.4,0.1-2.4,0.3-3.9,0.9c-1,0.4,0.6-0.4,1.3-0.6
							c0.3-0.1,0.8-0.1,1-0.2c0.3-0.1,0.6-0.1,0.9-0.2c0.3,0,0.6-0.1,1-0.1c0.3,0,0.3,0.1,0.4,0c0.5,0,0.9,0,1.3,0
							c0.4,0,0.7,0.1,1,0.1c0.5,0.1,0.8,0.2,1.2,0.3c0.2,0.1,0.5,0.1,0.7,0.2c0.2,0.1,0.3,0.1,0.5,0.2c-0.1-0.1-0.2-0.1-0.2-0.2
							c0.2,0.1,0.6,0.2,0.8,0.3c-0.2-0.1-0.6-0.2-0.8-0.3c0,0,0.1,0.1,0.2,0.2c1.2,0.4,2.5,1,3.6,1.8l0,0c-0.6-0.5-1.3-0.9-2-1.3
							c0.3,0.2,0.3,0.2-0.1,0l-0.3-0.2c0.7,0.3,1.3,0.6,1.8,1.1c0,0,0.3,0.2,0.4,0.2c0.2,0.1,0.1,0.2,0.2,0.2
							c0.1,0.1,0.3,0.2,0.4,0.3C60.9,119.2,60.1,118.6,60.1,118.6z"/>
						<path class="st2" d="M52.4,116.2c0.1,0,0.2,0,0.4,0c-0.5-0.1-1,0-1.6,0C51.5,116.3,51.9,116.2,52.4,116.2z"/>
					</g>
				</g>
			</g>
		</g>
	</g>
</g>
<g>
	<path class="st0" d="M103.5,92.1c4.7-3.9,8.9-8.9,14.7-11.9c-0.3,1.1-0.5,2.1-0.9,3.1c-0.5,1.2-1.4,2.2-2.5,2.9
		c-0.9,0.6-1.6,1.5-2.3,2.3c-2,2.3-3.9,4.7-6,7c4.8,5.6,10.7,10.6,14.2,17.5c-0.3-0.3-0.7-0.6-1-0.9c-0.3,0.2-0.7,0.4-1.2,0.7
		c-5.1-4.6-10.2-9.3-15.3-14.1c-0.3,0.3-0.7,0.5-1,0.9c-4.3,4.3-8.6,8.6-12.9,12.9c-0.4,0.4-1,0.8-1.5,1.1c-1.2,0.7-2.5,0-2.3-1.4
		c0.1-0.8,0.4-1.8,0.9-2.4c2-2.3,4-4.6,6-6.8c2.4-2.6,4.8-5.1,7.1-7.6c-1.6-1.7-3.3-3.6-5.1-5.5c-2.7-2.8-5.5-5.5-8.2-8.3
		c-0.3-0.3-0.5-0.6-0.6-0.9c-0.1-0.5-0.3-1.3-0.1-1.6c0.3-0.4,1.1-0.8,1.6-0.7c0.8,0.1,1.8,0.4,2.4,1c2.4,2,4.7,4.2,7.1,6.3
		C99,87.8,101.2,89.9,103.5,92.1z"/>
</g>
<g>
	<g>
		<g>
			<g>
				<g class="st1">
					<g>
						<path class="st2" d="M115.2,56.1l-0.5-0.8c0.1,0.1,0.1,0.3,0.2,0.4C115.1,55.9,115.1,55.9,115.2,56.1z"/>
						<path class="st2" d="M114.3,54.6c0,0-0.1-0.1-0.1-0.1l-0.1-0.1L114.3,54.6z"/>
						<path class="st2" d="M113.3,53.5c0.2,0.2,0.4,0.4,0.5,0.6C113.7,53.9,113.5,53.7,113.3,53.5z"/>
						<path class="st2" d="M114.1,54.4C114,54.3,114,54.3,114.1,54.4L114.1,54.4c-0.1-0.1-0.1-0.2-0.2-0.4
							C113.9,54.2,114,54.3,114.1,54.4z"/>
						<path class="st2" d="M114.1,54.4c0.1,0.1,0.1,0.2,0.1,0.2L114.1,54.4z"/>
						<path class="st2" d="M113.6,54.3c-0.1-0.1,0-0.1-0.2-0.3c-0.2-0.2-0.5-0.5-0.7-0.7c-0.2-0.2-0.5-0.4-0.7-0.6
							c-0.2-0.2-0.5-0.5-0.8-0.7c-0.6-0.4-2.2-1.2-1.3-0.7c1.4,0.8,2.2,1.4,3.1,2.4c0.8,0.8,1.5,1.7,2.1,2.7
							c0.1,0.3,0.3,0.6,0.4,0.9c-0.2-0.4-0.3-0.8-0.5-1.2c-0.1-0.3-0.3-0.5-0.6-0.9C114.2,55,113.9,54.7,113.6,54.3z"/>
						<path class="st2" d="M117,62.2c0-0.2-0.1-0.5-0.1-0.5c0-0.3,0-0.7-0.1-1c0-0.3-0.1-0.7-0.2-1l0,0.3c0.1,0.4,0.1,0.4,0.1,0.1
							c0.1,0.8,0.2,1.6,0.2,2.4C116.9,62.4,116.9,62.4,117,62.2z"/>
						<path class="st2" d="M116.9,62.9c0-0.2,0-0.3,0-0.5l0,0C116.9,62.7,116.9,62.8,116.9,62.9L116.9,62.9z"/>
						<path class="st2" d="M110.8,51.4c-1.7-1.1-3.5-1.8-5.3-2.1c-0.1,0-0.2,0-0.4,0c-0.1,0-0.3-0.1-0.4-0.1c-0.3,0-0.5,0-0.8-0.1
							c-0.1,0-0.2,0-0.3,0l0,0c-0.2,0-0.1,0,0,0c0.1,0,0.2,0,0.3,0c-0.1,0-0.2,0-0.3,0c-0.1,0-0.3,0-0.4,0c-0.3,0-0.5,0-0.8,0
							c0.3,0,0.6,0,0.8,0c0.2,0,0.3,0,0.5,0l0.1,0c-0.6-0.1-1.2,0-1.8,0c-0.1,0-0.3,0-0.4,0c-0.4,0.1-0.9,0.2-1.2,0.2l-0.3,0.1
							c0,0,0,0,0.1,0c0,0-0.1,0-0.1,0c-0.4,0.1-0.9,0.2-1.4,0.4c-0.3,0.1-0.6,0.3-0.9,0.4c0,0-0.2,0.1-0.3,0.1
							c-0.1,0.1-0.3,0.2-0.4,0.3c0.2-0.1,0.5-0.2,0.7-0.2c0.3-0.1,0.6-0.3,1-0.4c-0.4,0-0.7,0.3-1,0.4c-0.2,0.1-0.4,0.1-0.7,0.2
							c-0.4,0.2-0.8,0.4-1.3,0.7c0.5-0.3,0.9-0.6,1.3-0.7c0.2-0.1,0.3-0.2,0.4-0.3c0.1,0,0.3-0.1,0.3-0.1c0.3-0.1,0.6-0.2,0.9-0.4
							c-0.9,0.3-1.7,0.7-2.5,1.1c-2.7,1.5-4.7,3.9-5.9,6.6c-1.1,2.7-1.5,5.9-0.7,9c0.8,3.4,2.9,6.2,5.5,8.1
							c5.4,3.8,12.8,3.3,17.8-1.1c1-0.8,2.2-2.3,3-3.9c0.9-1.6,1.3-3.4,1.5-4.7c0.1-1.7-0.1-2.1-0.2-2c-0.1,0-0.3,0.5-0.3,0.6
							c-0.1,0.5-0.2,0.9-0.3,1.4c-0.1,0.5-0.2,1-0.4,1.5c-0.3,1.1-0.7,2.4-1.9,4c0.7-1.1,0.6-0.7-0.1,0.3c-0.6,1-1.9,2.3-3,2.9
							c-1.5,1-3.5,2-5.7,2.4c-2.2,0.4-4.7,0.3-6.8-0.5c-1-0.4-2.1-0.9-3.2-1.6c-2.8-2-4.7-4.9-5.4-8.2c-0.7-3.3-0.2-6.9,1.8-9.9
							c1-1.6,2.2-2.9,3.5-3.8c1-0.7,2.1-1.2,3-1.6c1.4-0.5,2.7-0.8,4-0.9c-1.4,0.1-2.4,0.3-3.9,0.9c-1,0.4,0.6-0.4,1.3-0.6
							c0.3-0.1,0.8-0.1,1-0.2c0.3-0.1,0.6-0.1,0.9-0.2c0.3,0,0.6-0.1,1-0.1c0.3,0,0.3,0.1,0.4,0c0.5,0,0.9,0,1.3,0
							c0.4,0,0.7,0.1,1,0.1c0.5,0.1,0.8,0.2,1.2,0.3c0.2,0.1,0.5,0.1,0.7,0.2c0.2,0.1,0.3,0.1,0.5,0.2c-0.1-0.1-0.2-0.1-0.2-0.2
							c0.2,0.1,0.6,0.2,0.8,0.3c-0.2-0.1-0.6-0.2-0.8-0.3c0,0,0.1,0.1,0.2,0.2c1.2,0.4,2.5,1,3.6,1.8l0,0c-0.6-0.5-1.3-0.9-2-1.3
							c0.3,0.2,0.3,0.2-0.1,0l-0.3-0.2c0.7,0.3,1.3,0.6,1.8,1.1c0,0,0.3,0.2,0.4,0.2c0.2,0.1,0.1,0.2,0.2,0.2
							c0.1,0.1,0.3,0.2,0.4,0.3C111.6,52.1,110.8,51.4,110.8,51.4z"/>
						<path class="st2" d="M103.1,49.1c0.1,0,0.2,0,0.4,0c-0.5-0.1-1,0-1.6,0C102.2,49.2,102.6,49.1,103.1,49.1z"/>
					</g>
				</g>
			</g>
		</g>
	</g>
</g>
<g>
	<path class="st0" d="M178.5,54.5c4.7-3.9,8.9-8.9,14.7-11.9c-0.3,1.1-0.5,2.1-0.9,3.1c-0.5,1.2-1.4,2.2-2.5,2.9
		c-0.9,0.6-1.6,1.5-2.3,2.3c-2,2.3-3.9,4.7-6,7c4.8,5.6,10.7,10.6,14.2,17.5c-0.3-0.3-0.7-0.6-1-0.9c-0.3,0.2-0.7,0.4-1.2,0.7
		c-5.1-4.6-10.2-9.3-15.3-14.1c-0.3,0.3-0.7,0.5-1,0.9c-4.3,4.3-8.6,8.6-12.9,12.9c-0.4,0.4-1,0.8-1.5,1.1c-1.2,0.7-2.5,0-2.3-1.4
		c0.1-0.8,0.4-1.8,0.9-2.4c2-2.3,4-4.6,6-6.8c2.4-2.6,4.8-5.1,7.1-7.6c-1.6-1.7-3.3-3.6-5.1-5.5c-2.7-2.8-5.5-5.5-8.2-8.3
		c-0.3-0.3-0.5-0.6-0.6-0.9c-0.1-0.5-0.3-1.3-0.1-1.6c0.3-0.4,1.1-0.8,1.6-0.7c0.8,0.1,1.8,0.4,2.4,1c2.4,2,4.7,4.2,7.1,6.3
		C174,50.3,176.2,52.4,178.5,54.5z"/>
</g>
<g>
	<g>
		<g>
			<g>
				<g class="st1">
					<g>
						<path class="st2" d="M190.3,18.5l-0.5-0.8c0.1,0.1,0.1,0.3,0.2,0.4C190.1,18.3,190.2,18.4,190.3,18.5z"/>
						<path class="st2" d="M189.4,17.1c0,0-0.1-0.1-0.1-0.1l-0.1-0.1L189.4,17.1z"/>
						<path class="st2" d="M188.4,15.9c0.2,0.2,0.4,0.4,0.5,0.6C188.7,16.3,188.6,16.1,188.4,15.9z"/>
						<path class="st2" d="M189.1,16.8C189.1,16.8,189.1,16.7,189.1,16.8L189.1,16.8c-0.1-0.1-0.1-0.2-0.2-0.4
							C189,16.6,189.1,16.7,189.1,16.8z"/>
						<path class="st2" d="M189.1,16.8c0.1,0.1,0.1,0.2,0.1,0.2L189.1,16.8z"/>
						<path class="st2" d="M188.6,16.8c-0.1-0.1,0-0.1-0.2-0.3c-0.2-0.2-0.5-0.5-0.7-0.7c-0.2-0.2-0.5-0.4-0.7-0.6
							c-0.2-0.2-0.5-0.5-0.8-0.7c-0.6-0.4-2.2-1.2-1.3-0.7c1.4,0.8,2.2,1.4,3.1,2.4c0.8,0.8,1.5,1.7,2.1,2.7
							c0.1,0.3,0.3,0.6,0.4,0.9c-0.2-0.4-0.3-0.8-0.5-1.2c-0.1-0.3-0.3-0.5-0.6-0.9C189.2,17.4,188.9,17.1,188.6,16.8z"/>
						<path class="st2" d="M192,24.6c0-0.2-0.1-0.5-0.1-0.5c0-0.3,0-0.7-0.1-1c0-0.3-0.1-0.7-0.2-1l0,0.3c0.1,0.4,0.1,0.4,0.1,0.1
							c0.1,0.8,0.2,1.6,0.2,2.4C192,24.9,192,24.9,192,24.6z"/>
						<path class="st2" d="M192,25.4c0-0.2,0-0.3,0-0.5l0,0C192,25.1,192,25.2,192,25.4L192,25.4z"/>
						<path class="st2" d="M185.9,13.9c-1.7-1.1-3.5-1.8-5.3-2.1c-0.1,0-0.2,0-0.4,0c-0.1,0-0.3-0.1-0.4-0.1c-0.3,0-0.5,0-0.8-0.1
							c-0.1,0-0.2,0-0.3,0l0,0c-0.2,0-0.1,0,0,0c0.1,0,0.2,0,0.3,0c-0.1,0-0.2,0-0.3,0c-0.1,0-0.3,0-0.4,0c-0.3,0-0.5,0-0.8,0
							c0.3,0,0.6,0,0.8,0c0.2,0,0.3,0,0.5,0l0.1,0c-0.6-0.1-1.2,0-1.8,0c-0.1,0-0.3,0-0.4,0c-0.4,0.1-0.9,0.2-1.2,0.2l-0.3,0.1
							c0,0,0,0,0.1,0c0,0-0.1,0-0.1,0c-0.4,0.1-0.9,0.2-1.4,0.4c-0.3,0.1-0.6,0.3-0.9,0.4c0,0-0.2,0.1-0.3,0.1
							c-0.1,0.1-0.3,0.2-0.4,0.3c0.2-0.1,0.5-0.2,0.7-0.2c0.3-0.1,0.6-0.3,1-0.4c-0.4,0-0.7,0.3-1,0.4c-0.2,0.1-0.4,0.1-0.7,0.2
							c-0.4,0.2-0.8,0.4-1.3,0.7c0.5-0.3,0.9-0.6,1.3-0.7c0.2-0.1,0.3-0.2,0.4-0.3c0.1,0,0.3-0.1,0.3-0.1c0.3-0.1,0.6-0.2,0.9-0.4
							c-0.9,0.3-1.7,0.7-2.5,1.1c-2.7,1.5-4.7,3.9-5.9,6.6c-1.1,2.7-1.5,5.9-0.7,9c0.8,3.4,2.9,6.2,5.5,8.1
							c5.4,3.8,12.8,3.3,17.8-1.1c1-0.8,2.2-2.3,3-3.9c0.9-1.6,1.3-3.4,1.5-4.7c0.1-1.7-0.1-2.1-0.2-2c-0.1,0-0.3,0.5-0.3,0.6
							c-0.1,0.5-0.2,0.9-0.3,1.4c-0.1,0.5-0.2,1-0.4,1.5c-0.3,1.1-0.7,2.4-1.9,4c0.7-1.1,0.6-0.7-0.1,0.3c-0.6,1-1.9,2.3-3,2.9
							c-1.5,1-3.5,2-5.7,2.4c-2.2,0.4-4.7,0.3-6.8-0.5c-1-0.4-2.1-0.9-3.2-1.6c-2.8-2-4.7-4.9-5.4-8.2c-0.7-3.3-0.2-6.9,1.8-9.9
							c1-1.6,2.2-2.9,3.5-3.8c1-0.7,2.1-1.2,3-1.6c1.4-0.5,2.7-0.8,4-0.9c-1.4,0.1-2.4,0.3-3.9,0.9c-1,0.4,0.6-0.4,1.3-0.6
							c0.3-0.1,0.8-0.1,1-0.2c0.3-0.1,0.6-0.1,0.9-0.2c0.3,0,0.6-0.1,1-0.1c0.3,0,0.3,0.1,0.4,0c0.5,0,0.9,0,1.3,0
							c0.4,0,0.7,0.1,1,0.1c0.5,0.1,0.8,0.2,1.2,0.3c0.2,0.1,0.5,0.1,0.7,0.2c0.2,0.1,0.3,0.1,0.5,0.2c-0.1-0.1-0.2-0.1-0.2-0.2
							c0.2,0.1,0.6,0.2,0.8,0.3c-0.2-0.1-0.6-0.2-0.8-0.3c0,0,0.1,0.1,0.2,0.2c1.2,0.4,2.5,1,3.6,1.8l0,0c-0.6-0.5-1.3-0.9-2-1.3
							c0.3,0.2,0.3,0.2-0.1,0l-0.3-0.2c0.7,0.3,1.3,0.6,1.8,1.1c0,0,0.3,0.2,0.4,0.2c0.2,0.1,0.1,0.2,0.2,0.2
							c0.1,0.1,0.3,0.2,0.4,0.3C186.7,14.5,185.9,13.9,185.9,13.9z"/>
						<path class="st2" d="M178.1,11.5c0.1,0,0.2,0,0.4,0c-0.5-0.1-1,0-1.6,0C177.2,11.6,177.7,11.5,178.1,11.5z"/>
					</g>
				</g>
			</g>
		</g>
	</g>
</g>
<g>
	<path class="st0" d="M211.7,133.5c4.7-3.9,8.9-8.9,14.7-11.9c-0.3,1.1-0.5,2.1-0.9,3.1c-0.5,1.2-1.4,2.2-2.5,2.9
		c-0.9,0.6-1.6,1.5-2.3,2.3c-2,2.3-3.9,4.7-6,7c4.8,5.6,10.7,10.6,14.2,17.5c-0.3-0.3-0.7-0.6-1-0.9c-0.3,0.2-0.7,0.4-1.2,0.7
		c-5.1-4.6-10.2-9.3-15.3-14.1c-0.3,0.3-0.7,0.5-1,0.9c-4.3,4.3-8.6,8.6-12.9,12.9c-0.4,0.4-1,0.8-1.5,1.1c-1.2,0.7-2.5,0-2.3-1.4
		c0.1-0.8,0.4-1.8,0.9-2.4c2-2.3,4-4.6,6-6.8c2.4-2.6,4.8-5.1,7.1-7.6c-1.6-1.7-3.3-3.6-5.1-5.5c-2.7-2.8-5.5-5.5-8.2-8.3
		c-0.3-0.3-0.5-0.6-0.6-0.9c-0.1-0.5-0.3-1.3-0.1-1.6c0.3-0.4,1.1-0.8,1.6-0.7c0.8,0.1,1.8,0.4,2.4,1c2.4,2,4.7,4.2,7.1,6.3
		C207.2,129.3,209.4,131.4,211.7,133.5z"/>
</g>
<g>
	<g>
		<g>
			<g>
				<g class="st1">
					<g>
						<path class="st2" d="M223.5,97.5l-0.5-0.8c0.1,0.1,0.1,0.3,0.2,0.4C223.3,97.3,223.4,97.4,223.5,97.5z"/>
						<path class="st2" d="M222.5,96.1c0,0-0.1-0.1-0.1-0.1l-0.1-0.1L222.5,96.1z"/>
						<path class="st2" d="M221.5,94.9c0.2,0.2,0.4,0.4,0.5,0.6C221.9,95.3,221.8,95.2,221.5,94.9z"/>
						<path class="st2" d="M222.3,95.9C222.3,95.8,222.3,95.8,222.3,95.9L222.3,95.9c-0.1-0.1-0.1-0.2-0.2-0.4
							C222.2,95.6,222.2,95.8,222.3,95.9z"/>
						<path class="st2" d="M222.3,95.9c0.1,0.1,0.1,0.2,0.1,0.2L222.3,95.9z"/>
						<path class="st2" d="M221.8,95.8c-0.1-0.1,0-0.1-0.2-0.3c-0.2-0.2-0.5-0.5-0.7-0.7c-0.2-0.2-0.5-0.4-0.7-0.6
							c-0.2-0.2-0.5-0.5-0.8-0.7c-0.6-0.4-2.2-1.2-1.3-0.7c1.4,0.8,2.2,1.4,3.1,2.4c0.8,0.8,1.5,1.7,2.1,2.7
							c0.1,0.3,0.3,0.6,0.4,0.9c-0.2-0.4-0.3-0.8-0.5-1.2c-0.1-0.3-0.3-0.5-0.6-0.9C222.4,96.5,222.1,96.2,221.8,95.8z"/>
						<path class="st2" d="M225.2,103.7c0-0.2-0.1-0.5-0.1-0.5c0-0.3,0-0.7-0.1-1c0-0.3-0.1-0.7-0.2-1l0,0.3
							c0.1,0.4,0.1,0.4,0.1,0.1c0.1,0.8,0.2,1.6,0.2,2.4C225.2,103.9,225.2,103.9,225.2,103.7z"/>
						<path class="st2" d="M225.2,104.4c0-0.2,0-0.3,0-0.5l0,0C225.1,104.1,225.2,104.3,225.2,104.4L225.2,104.4z"/>
						<path class="st2" d="M219.1,92.9c-1.7-1.1-3.5-1.8-5.3-2.1c-0.1,0-0.2,0-0.4,0c-0.1,0-0.3-0.1-0.4-0.1c-0.3,0-0.5,0-0.8-0.1
							c-0.1,0-0.2,0-0.3,0l0,0c-0.2,0-0.1,0,0,0c0.1,0,0.2,0,0.3,0c-0.1,0-0.2,0-0.3,0c-0.1,0-0.3,0-0.4,0c-0.3,0-0.5,0-0.8,0
							c0.3,0,0.6,0,0.8,0c0.2,0,0.3,0,0.5,0l0.1,0c-0.6-0.1-1.2,0-1.8,0c-0.1,0-0.3,0-0.4,0c-0.4,0.1-0.9,0.2-1.2,0.2l-0.3,0.1
							c0,0,0,0,0.1,0c0,0-0.1,0-0.1,0c-0.4,0.1-0.9,0.2-1.4,0.4c-0.3,0.1-0.6,0.3-0.9,0.4c0,0-0.2,0.1-0.3,0.1
							c-0.1,0.1-0.3,0.2-0.4,0.3c0.2-0.1,0.5-0.2,0.7-0.2c0.3-0.1,0.6-0.3,1-0.4c-0.4,0-0.7,0.3-1,0.4c-0.2,0.1-0.4,0.1-0.7,0.2
							c-0.4,0.2-0.8,0.4-1.3,0.7c0.5-0.3,0.9-0.6,1.3-0.7c0.2-0.1,0.3-0.2,0.4-0.3c0.1,0,0.3-0.1,0.3-0.1c0.3-0.1,0.6-0.2,0.9-0.4
							c-0.9,0.3-1.7,0.7-2.5,1.1c-2.7,1.5-4.7,3.9-5.9,6.6c-1.1,2.7-1.5,5.9-0.7,9c0.8,3.4,2.9,6.2,5.5,8.1
							c5.4,3.8,12.8,3.3,17.8-1.1c1-0.8,2.2-2.3,3-3.9c0.9-1.6,1.3-3.4,1.5-4.7c0.1-1.7-0.1-2.1-0.2-2c-0.1,0-0.3,0.5-0.3,0.6
							c-0.1,0.5-0.2,0.9-0.3,1.4c-0.1,0.5-0.2,1-0.4,1.5c-0.3,1.1-0.7,2.4-1.9,4c0.7-1.1,0.6-0.7-0.1,0.3c-0.6,1-1.9,2.3-3,2.9
							c-1.5,1-3.5,2-5.7,2.4c-2.2,0.4-4.7,0.3-6.8-0.5c-1-0.4-2.1-0.9-3.2-1.6c-2.8-2-4.7-4.9-5.4-8.2c-0.7-3.3-0.2-6.9,1.8-9.9
							c1-1.6,2.2-2.9,3.5-3.8c1-0.7,2.1-1.2,3-1.6c1.4-0.5,2.7-0.8,4-0.9c-1.4,0.1-2.4,0.3-3.9,0.9c-1,0.4,0.6-0.4,1.3-0.6
							c0.3-0.1,0.8-0.1,1-0.2c0.3-0.1,0.6-0.1,0.9-0.2c0.3,0,0.6-0.1,1-0.1c0.3,0,0.3,0.1,0.4,0c0.5,0,0.9,0,1.3,0
							c0.4,0,0.7,0.1,1,0.1c0.5,0.1,0.8,0.2,1.2,0.3c0.2,0.1,0.5,0.1,0.7,0.2c0.2,0.1,0.3,0.1,0.5,0.2c-0.1-0.1-0.2-0.1-0.2-0.2
							c0.2,0.1,0.6,0.2,0.8,0.3c-0.2-0.1-0.6-0.2-0.8-0.3c0,0,0.1,0.1,0.2,0.2c1.2,0.4,2.5,1,3.6,1.8l0,0c-0.6-0.5-1.3-0.9-2-1.3
							c0.3,0.2,0.3,0.2-0.1,0l-0.3-0.2c0.7,0.3,1.3,0.6,1.8,1.1c0,0,0.3,0.2,0.4,0.2c0.2,0.1,0.1,0.2,0.2,0.2
							c0.1,0.1,0.3,0.2,0.4,0.3C219.9,93.6,219.1,92.9,219.1,92.9z"/>
						<path class="st2" d="M211.3,90.5c0.1,0,0.2,0,0.4,0c-0.5-0.1-1,0-1.6,0C210.4,90.6,210.9,90.6,211.3,90.5z"/>
					</g>
				</g>
			</g>
		</g>
	</g>
</g>
<g>
	<path class="st0" d="M147.6,174.9c4.7-3.9,8.9-8.9,14.7-11.9c-0.3,1.1-0.5,2.1-0.9,3.1c-0.5,1.2-1.4,2.2-2.5,2.9
		c-0.9,0.6-1.6,1.5-2.3,2.3c-2,2.3-3.9,4.7-6,7c4.8,5.6,10.7,10.6,14.2,17.5c-0.3-0.3-0.7-0.6-1-0.9c-0.3,0.2-0.7,0.4-1.2,0.7
		c-5.1-4.6-10.2-9.3-15.3-14.1c-0.3,0.3-0.7,0.5-1,0.9c-4.3,4.3-8.6,8.6-12.9,12.9c-0.4,0.4-1,0.8-1.5,1.1c-1.2,0.7-2.5,0-2.3-1.4
		c0.1-0.8,0.4-1.8,0.9-2.4c2-2.3,4-4.6,6-6.8c2.4-2.6,4.8-5.1,7.1-7.6c-1.6-1.7-3.3-3.6-5.1-5.5c-2.7-2.8-5.5-5.5-8.2-8.3
		c-0.3-0.3-0.5-0.6-0.6-0.9c-0.1-0.5-0.3-1.3-0.1-1.6c0.3-0.4,1.1-0.8,1.6-0.7c0.8,0.1,1.8,0.4,2.4,1c2.4,2,4.7,4.2,7.1,6.3
		C143,170.6,145.2,172.7,147.6,174.9z"/>
</g>
<g>
	<g>
		<g>
			<g>
				<g class="st1">
					<g>
						<path class="st2" d="M159.3,138.9l-0.5-0.8c0.1,0.1,0.1,0.3,0.2,0.4C159.1,138.7,159.2,138.8,159.3,138.9z"/>
						<path class="st2" d="M158.4,137.5c0,0-0.1-0.1-0.1-0.1l-0.1-0.1L158.4,137.5z"/>
						<path class="st2" d="M157.4,136.3c0.2,0.2,0.4,0.4,0.5,0.6C157.8,136.7,157.6,136.5,157.4,136.3z"/>
						<path class="st2" d="M158.2,137.2C158.1,137.2,158.1,137.1,158.2,137.2L158.2,137.2c-0.1-0.1-0.1-0.2-0.2-0.4
							C158,137,158.1,137.1,158.2,137.2z"/>
						<path class="st2" d="M158.2,137.2c0.1,0.1,0.1,0.2,0.1,0.2L158.2,137.2z"/>
						<path class="st2" d="M157.7,137.1c-0.1-0.1,0-0.1-0.2-0.3c-0.2-0.2-0.5-0.5-0.7-0.7c-0.2-0.2-0.5-0.4-0.7-0.6
							c-0.2-0.2-0.5-0.5-0.8-0.7c-0.6-0.4-2.2-1.2-1.3-0.7c1.4,0.8,2.2,1.4,3.1,2.4c0.8,0.8,1.5,1.7,2.1,2.7
							c0.1,0.3,0.3,0.6,0.4,0.9c-0.2-0.4-0.3-0.8-0.5-1.2c-0.1-0.3-0.3-0.5-0.6-0.9C158.2,137.8,158,137.5,157.7,137.1z"/>
						<path class="st2" d="M161,145c0-0.2-0.1-0.5-0.1-0.5c0-0.3,0-0.7-0.1-1c0-0.3-0.1-0.7-0.2-1l0,0.3c0.1,0.4,0.1,0.4,0.1,0.1
							c0.1,0.8,0.2,1.6,0.2,2.4C161,145.2,161,145.2,161,145z"/>
						<path class="st2" d="M161,145.8c0-0.2,0-0.3,0-0.5l0,0C161,145.5,161,145.6,161,145.8L161,145.8z"/>
						<path class="st2" d="M154.9,134.3c-1.7-1.1-3.5-1.8-5.3-2.1c-0.1,0-0.2,0-0.4,0c-0.1,0-0.3-0.1-0.4-0.1c-0.3,0-0.5,0-0.8-0.1
							c-0.1,0-0.2,0-0.3,0l0,0c-0.2,0-0.1,0,0,0c0.1,0,0.2,0,0.3,0c-0.1,0-0.2,0-0.3,0c-0.1,0-0.3,0-0.4,0c-0.3,0-0.5,0-0.8,0
							c0.3,0,0.6,0,0.8,0c0.2,0,0.3,0,0.5,0l0.1,0c-0.6-0.1-1.2,0-1.8,0c-0.1,0-0.3,0-0.4,0c-0.4,0.1-0.9,0.2-1.2,0.2l-0.3,0.1
							c0,0,0,0,0.1,0c0,0-0.1,0-0.1,0c-0.4,0.1-0.9,0.2-1.4,0.4c-0.3,0.1-0.6,0.3-0.9,0.4c0,0-0.2,0.1-0.3,0.1
							c-0.1,0.1-0.3,0.2-0.4,0.3c0.2-0.1,0.5-0.2,0.7-0.2c0.3-0.1,0.6-0.3,1-0.4c-0.4,0-0.7,0.3-1,0.4c-0.2,0.1-0.4,0.1-0.7,0.2
							c-0.4,0.2-0.8,0.4-1.3,0.7c0.5-0.3,0.9-0.6,1.3-0.7c0.2-0.1,0.3-0.2,0.4-0.3c0.1,0,0.3-0.1,0.3-0.1c0.3-0.1,0.6-0.2,0.9-0.4
							c-0.9,0.3-1.7,0.7-2.5,1.1c-2.7,1.5-4.7,3.9-5.9,6.6c-1.1,2.7-1.5,5.9-0.7,9c0.8,3.4,2.9,6.2,5.5,8.1
							c5.4,3.8,12.8,3.3,17.8-1.1c1-0.8,2.2-2.3,3-3.9c0.9-1.6,1.3-3.4,1.5-4.7c0.1-1.7-0.1-2.1-0.2-2c-0.1,0-0.3,0.5-0.3,0.6
							c-0.1,0.5-0.2,0.9-0.3,1.4c-0.1,0.5-0.2,1-0.4,1.5c-0.3,1.1-0.7,2.4-1.9,4c0.7-1.1,0.6-0.7-0.1,0.3c-0.6,1-1.9,2.3-3,2.9
							c-1.5,1-3.5,2-5.7,2.4c-2.2,0.4-4.7,0.3-6.8-0.5c-1-0.4-2.1-0.9-3.2-1.6c-2.8-2-4.7-4.9-5.4-8.2c-0.7-3.3-0.2-6.9,1.8-9.9
							c1-1.6,2.2-2.9,3.5-3.8c1-0.7,2.1-1.2,3-1.6c1.4-0.5,2.7-0.8,4-0.9c-1.4,0.1-2.4,0.3-3.9,0.9c-1,0.4,0.6-0.4,1.3-0.6
							c0.3-0.1,0.8-0.1,1-0.2c0.3-0.1,0.6-0.1,0.9-0.2c0.3,0,0.6-0.1,1-0.1c0.3,0,0.3,0.1,0.4,0c0.5,0,0.9,0,1.3,0
							c0.4,0,0.7,0.1,1,0.1c0.5,0.1,0.8,0.2,1.2,0.3c0.2,0.1,0.5,0.1,0.7,0.2c0.2,0.1,0.3,0.1,0.5,0.2c-0.1-0.1-0.2-0.1-0.2-0.2
							c0.2,0.1,0.6,0.2,0.8,0.3c-0.2-0.1-0.6-0.2-0.8-0.3c0,0,0.1,0.1,0.2,0.2c1.2,0.4,2.5,1,3.6,1.8l0,0c-0.6-0.5-1.3-0.9-2-1.3
							c0.3,0.2,0.3,0.2-0.1,0l-0.3-0.2c0.7,0.3,1.3,0.6,1.8,1.1c0,0,0.3,0.2,0.4,0.2c0.2,0.1,0.1,0.2,0.2,0.2
							c0.1,0.1,0.3,0.2,0.4,0.3C155.7,134.9,154.9,134.3,154.9,134.3z"/>
						<path class="st2" d="M147.2,131.9c0.1,0,0.2,0,0.4,0c-0.5-0.1-1,0-1.6,0C146.3,132,146.7,131.9,147.2,131.9z"/>
					</g>
				</g>
			</g>
		</g>
	</g>
</g>
</svg>
