<?xml version="1.0" encoding="utf-8"?>
<!-- Generator: Adobe Illustrator 24.2.0, SVG Export Plug-In . SVG Version: 6.00 Build 0)  -->
<svg version="1.1" id="Layer_1" xmlns="http://www.w3.org/2000/svg" xmlns:xlink="http://www.w3.org/1999/xlink" x="0px" y="0px"
	 viewBox="0 0 920.5 600" style="enable-background:new 0 0 920.5 600;" xml:space="preserve">
<style type="text/css">
	.st0{enable-background:new    ;}
	.st1{fill:#FFFFFF;}
	.st2{fill:none;stroke:#FFFFFF;stroke-miterlimit:10;}
	.st3{fill:#FFFFFF;stroke:#FFFFFF;stroke-width:3;stroke-miterlimit:10;}
	.st4{fill:none;stroke:#FFFFFF;stroke-width:15;stroke-linecap:round;stroke-miterlimit:10;stroke-dasharray:0,40;}
</style>
<g class="st0">
	<path class="st1" d="M36,519.7l-33.2-143h41.4l18.4,89.2l19.2-89.2h36.4l20.8,90l19.4-90h38l-33.4,143h-42.8l-22-90.8L76,519.7H36z
		"/>
	<path class="st1" d="M370.6,519.7v-143h46.2l45.8,80.6v-80.6h35.8v143h-39.6l-52.2-89.8v89.8H370.6z"/>
	<path class="st1" d="M526,519.7v-143h52c25.2,0,44.3,6,57.2,18.1c12.9,12.1,19.4,29.3,19.4,51.7v1.6c0,22.5-6.6,40.1-19.7,52.7
		c-13.1,12.6-32.2,18.9-57.1,18.9H526z M567.2,488.1h9.4c12.1,0,21-3.2,26.7-9.7c5.7-6.5,8.5-16.4,8.5-29.7v-1.6
		c0-13.6-2.8-23.5-8.5-29.6c-5.7-6.1-14.7-9.2-27.1-9.2h-9V488.1z"/>
	<path class="st1" d="M674.6,519.7v-143h98.8v31.6h-58v24.6h46.2v29.2h-46.2v26h61.2v31.6H674.6z"/>
	<path class="st1" d="M797,519.7v-143h56c18.8,0,33.2,3.8,43.2,11.5c10,7.7,15,19,15,33.9v0.8c0,18.4-8.6,30.9-25.8,37.6l34.2,59.2
		h-43.2l-29-51.2h-9.6v51.2H797z M837.8,441.9H851c13.7,0,20.6-5.8,20.6-17.4v-0.8c0-10.8-6.8-16.2-20.4-16.2h-13.4V441.9z"/>
</g>
<g class="st0">
	<path class="st2" d="M36,519.7l-33.2-143h41.4l18.4,89.2l19.2-89.2h36.4l20.8,90l19.4-90h38l-33.4,143h-42.8l-22-90.8L76,519.7H36z
		"/>
	<path class="st2" d="M370.6,519.7v-143h46.2l45.8,80.6v-80.6h35.8v143h-39.6l-52.2-89.8v89.8H370.6z"/>
	<path class="st2" d="M526,519.7v-143h52c25.2,0,44.3,6,57.2,18.1c12.9,12.1,19.4,29.3,19.4,51.7v1.6c0,22.5-6.6,40.1-19.7,52.7
		c-13.1,12.6-32.2,18.9-57.1,18.9H526z M567.2,488.1h9.4c12.1,0,21-3.2,26.7-9.7c5.7-6.5,8.5-16.4,8.5-29.7v-1.6
		c0-13.6-2.8-23.5-8.5-29.6c-5.7-6.1-14.7-9.2-27.1-9.2h-9V488.1z"/>
	<path class="st2" d="M674.6,519.7v-143h98.8v31.6h-58v24.6h46.2v29.2h-46.2v26h61.2v31.6H674.6z"/>
	<path class="st2" d="M797,519.7v-143h56c18.8,0,33.2,3.8,43.2,11.5c10,7.7,15,19,15,33.9v0.8c0,18.4-8.6,30.9-25.8,37.6l34.2,59.2
		h-43.2l-29-51.2h-9.6v51.2H797z M837.8,441.9H851c13.7,0,20.6-5.8,20.6-17.4v-0.8c0-10.8-6.8-16.2-20.4-16.2h-13.4V441.9z"/>
</g>
<g>
	<path class="st3" d="M281.7,364.2c18.5-15.6,35.1-35.1,57.9-46.9c-1.2,4.2-2,8.5-3.6,12.3c-2.1,4.7-5.4,8.6-9.9,11.6
		c-3.5,2.3-6.1,5.9-8.9,9.2c-7.9,9.1-15.7,18.2-23.7,27.6c19.1,22.1,42.1,41.8,56.2,68.9c-1.3-1.1-2.5-2.3-4.1-3.7
		c-1.2,0.7-2.5,1.4-4.8,2.7c-20-18.3-40-36.7-60.5-55.4c-1.1,1-2.6,2.1-4,3.5c-16.9,17-33.8,34-50.7,51c-1.7,1.7-3.8,3.2-5.9,4.5
		c-4.8,2.8-9.7-0.1-9-5.7c0.4-3.3,1.6-7.1,3.7-9.6c7.7-9.2,15.8-18,23.9-26.8c9.5-10.2,19.1-20.3,28.1-29.8
		c-6.1-6.6-13-14.2-20.1-21.6c-10.7-11-21.6-21.7-32.3-32.6c-1-1-2-2.4-2.4-3.8c-0.5-2.1-1.3-5-0.3-6.2c1.3-1.6,4.3-2.9,6.4-2.6
		c3.3,0.5,7,1.8,9.5,3.9c9.5,8,18.7,16.5,27.9,24.9C263.8,347.5,272.6,355.7,281.7,364.2z"/>
</g>
<path class="st4" d="M280.3,320c-7.5-210.4,191.5-128.7,279-120.9"/>
<path class="st4" d="M889.3,54c64.4,225.4-188.1,167.2-304.6,150.5"/>
</svg>
