<?xml version="1.0" encoding="utf-8"?>
<!-- Generator: Adobe Illustrator 24.1.3, SVG Export Plug-In . SVG Version: 6.00 Build 0)  -->
<svg version="1.1" id="Layer_1" xmlns="http://www.w3.org/2000/svg" xmlns:xlink="http://www.w3.org/1999/xlink" x="0px" y="0px"
	 viewBox="0 0 1200 370" style="enable-background:new 0 0 1200 370;" xml:space="preserve">
<style type="text/css">
	.st0{fill:#FFFFFF;stroke:#FFFFFF;stroke-miterlimit:10;}
	.st1{fill:#FFFFFF;stroke:#FFFFFF;stroke-width:3;stroke-miterlimit:10;}
</style>
<g>
	<path class="st0" d="M131.55,146.7h41.4l18.4,89.2l19.2-89.2h36.4l20.8,90l19.4-90h38l-33.4,143h-42.8l-22-90.8l-22.2,90.8h-40
		L131.55,146.7z"/>
	<path class="st0" d="M499.34,146.7h46.2l45.8,80.6v-80.6h35.8v143h-39.6l-52.2-89.8v89.8h-36V146.7z"/>
	<path class="st0" d="M654.74,146.7h52c50.8,0,76.6,25.4,76.6,69.8v1.6c0,44.6-26.4,71.6-76.8,71.6h-51.8V146.7z M705.33,258.09
		c24.4,0,35.2-12.8,35.2-39.4v-1.6c0-27.2-10.8-38.8-35.6-38.8h-9v79.8H705.33z"/>
	<path class="st0" d="M803.33,146.7h98.8v31.6h-58v24.6h46.2v29.2h-46.2v26h61.2v31.6h-102V146.7z"/>
	<path class="st0" d="M925.73,146.7h56c37.4,0,58.2,15.2,58.2,45.4v0.8c0,20.4-10.8,31.8-25.8,37.6l34.2,59.2h-43.2l-29-51.2h-9.6
		v51.2h-40.8V146.7z M979.73,211.9c13.8,0,20.6-5.8,20.6-17.4v-0.8c0-11.6-7.2-16.2-20.4-16.2h-13.4v34.4H979.73z"/>
</g>
<g>
	<path class="st1" d="M410.46,134.17c18.52-15.61,35.1-35.1,57.92-46.92c-1.21,4.23-1.96,8.48-3.64,12.32
		c-2.08,4.74-5.39,8.56-9.92,11.59c-3.47,2.32-6.13,5.94-8.94,9.17c-7.89,9.06-15.67,18.21-23.72,27.58
		c19.06,22.11,42.13,41.79,56.23,68.92c-1.26-1.15-2.52-2.29-4.06-3.71c-1.22,0.69-2.54,1.44-4.77,2.71
		c-19.98-18.3-40.05-36.68-60.52-55.43c-1.1,0.95-2.65,2.11-4,3.46c-16.91,16.99-33.77,34.04-50.71,51
		c-1.73,1.74-3.8,3.25-5.93,4.46c-4.82,2.75-9.69-0.15-9.02-5.68c0.4-3.32,1.58-7.06,3.67-9.56c7.67-9.19,15.76-18.05,23.89-26.84
		c9.47-10.24,19.15-20.29,28.13-29.78c-6.15-6.61-13-14.25-20.15-21.61c-10.67-10.98-21.56-21.74-32.29-32.65
		c-1.03-1.04-2.05-2.38-2.37-3.75c-0.49-2.06-1.26-4.98-0.27-6.24c1.28-1.62,4.34-2.93,6.36-2.62c3.31,0.51,6.98,1.75,9.49,3.87
		c9.53,8.05,18.71,16.52,27.93,24.94C392.59,117.47,401.3,125.66,410.46,134.17z"/>
</g>
</svg>
