<svg xmlns="http://www.w3.org/2000/svg" xmlns:xlink="http://www.w3.org/1999/xlink" viewBox="0 0 290.85 36.09"><defs><style>.a,.f{fill:none;}.b{font-size:30px;font-family:Graphik-Bold, Graphik;font-weight:700;}.b,.e{fill:#fff;}.c{letter-spacing:-0.2em;}.d{clip-path:url(#a);}.f{stroke:#fff;stroke-miterlimit:10;stroke-width:0.58px;}</style><clipPath id="a" transform="translate(-2.09 -4.25)"><rect class="a" x="170.69" y="3.81" width="20.33" height="20.69"/></clipPath></defs><text class="b" transform="translate(0 29.13)">BRIDGE<tspan class="c" x="116.1" y="0"> </tspan><tspan x="116.13" y="0"> </tspan></text><text class="b" transform="translate(137.8 29.13)"><tspan xml:space="preserve">M    NSION</tspan></text><g class="d"><path class="e" d="M181,11.81c2.5-2.11,4.73-4.77,7.81-6.37a10.68,10.68,0,0,1-.5,1.66A3.65,3.65,0,0,1,187,8.67a7.5,7.5,0,0,0-1.21,1.24c-1,1.26-2.07,2.5-3.17,3.78,2.58,3,5.67,5.67,7.57,9.35-.17-.15-.34-.31-.53-.5-.18.1-.35.19-.64.37-2.69-2.48-5.4-5-8.15-7.54-.15.14-.37.29-.54.47l-6.84,6.93a3.16,3.16,0,0,1-.81.6.76.76,0,0,1-1.21-.77,2.63,2.63,0,0,1,.5-1.3c1-1.24,2.11-2.46,3.21-3.64,1.27-1.4,2.57-2.75,3.79-4.05-.83-.89-1.75-1.94-2.71-2.92-1.45-1.5-2.91-2.95-4.35-4.44a1.32,1.32,0,0,1-.33-.5c0-.27-.17-.68,0-.86a1.05,1.05,0,0,1,.87-.34,2.76,2.76,0,0,1,1.29.52c1.29,1.08,2.52,2.25,3.77,3.39s2.34,2.21,3.57,3.35" transform="translate(-2.09 -4.25)"/><path class="f" d="M181,11.81c2.5-2.11,4.73-4.77,7.81-6.37a10.68,10.68,0,0,1-.5,1.66A3.65,3.65,0,0,1,187,8.67a7.5,7.5,0,0,0-1.21,1.24c-1,1.26-2.07,2.5-3.17,3.78,2.58,3,5.67,5.67,7.57,9.35-.17-.15-.34-.31-.53-.5-.18.1-.35.19-.64.37-2.69-2.48-5.4-5-8.15-7.54-.15.14-.37.29-.54.47l-6.84,6.93a3.16,3.16,0,0,1-.81.6.76.76,0,0,1-1.21-.77,2.63,2.63,0,0,1,.5-1.3c1-1.24,2.11-2.46,3.21-3.64,1.27-1.4,2.57-2.75,3.79-4.05-.83-.89-1.75-1.94-2.71-2.92-1.45-1.5-2.91-2.95-4.35-4.44a1.32,1.32,0,0,1-.33-.5c0-.27-.17-.68,0-.86a1.05,1.05,0,0,1,.87-.34,2.76,2.76,0,0,1,1.29.52c1.29,1.08,2.52,2.25,3.77,3.39S179.8,10.67,181,11.81Z" transform="translate(-2.09 -4.25)"/></g></svg>