<svg xmlns="http://www.w3.org/2000/svg" xmlns:xlink="http://www.w3.org/1999/xlink" viewBox="0 0 299.67 44.25"><defs><style>.a,.f{fill:none;}.b{font-size:30px;fill:#1d1d1b;font-family:Graphik-Bold, Graphik;font-weight:700;}.c{letter-spacing:-0.01em;}.d{letter-spacing:-0.02em;}.e{clip-path:url(#a);}.f{stroke:#000;stroke-miterlimit:10;stroke-width:0.58px;}</style><clipPath id="a" transform="translate(-16.68 -1.07)"><rect class="a" x="259.61" y="4.12" width="20.39" height="21.11" transform="translate(62.47 187.94) rotate(-43)"/></clipPath></defs><text class="b" transform="translate(0 37.29)">FIEL<tspan class="c" x="63.54" y="0">D</tspan><tspan x="85.53" y="0" xml:space="preserve">S OF THE P   </tspan><tspan class="d" x="262.32" y="0">S</tspan><tspan x="281.13" y="0">T</tspan></text><g class="e"><path d="M271.51,13.1c3.26.45,6.72.33,10,1.55a11,11,0,0,1-1.55.75,3.72,3.72,0,0,1-2.07,0,7.19,7.19,0,0,0-1.74-.07c-1.63.07-3.25.12-4.93.16-.37,3.95-.14,8.05-1.47,12,0-.23,0-.47,0-.74l-.7-.23c-.09-3.67-.18-7.38-.25-11.15-.21,0-.47-.08-.71-.09l-9.77-.45a3.71,3.71,0,0,1-1-.2.78.78,0,0,1-.29-1.43,2.5,2.5,0,0,1,1.28-.5c1.62-.06,3.25-.07,4.86,0,1.89,0,3.78.08,5.56.11.07-1.21.18-2.61.22-4,.07-2.08.1-4.15.17-6.23a1.13,1.13,0,0,1,.14-.58c.15-.22.36-.58.58-.6a1.11,1.11,0,0,1,.86.41,3,3,0,0,1,.52,1.32c.11,1.69.13,3.39.18,5.09s0,3.24.08,4.92" transform="translate(-16.68 -1.07)"/><path class="f" d="M271.51,13.1c3.26.45,6.72.33,10,1.55a11,11,0,0,1-1.55.75,3.72,3.72,0,0,1-2.07,0,7.19,7.19,0,0,0-1.74-.07c-1.63.07-3.25.12-4.93.16-.37,3.95-.14,8.05-1.47,12,0-.23,0-.47,0-.74l-.7-.23c-.09-3.67-.18-7.38-.25-11.15-.21,0-.47-.08-.71-.09l-9.77-.45a3.71,3.71,0,0,1-1-.2.78.78,0,0,1-.29-1.43,2.5,2.5,0,0,1,1.28-.5c1.62-.06,3.25-.07,4.86,0,1.89,0,3.78.08,5.56.11.07-1.21.18-2.61.22-4,.07-2.08.1-4.15.17-6.23a1.13,1.13,0,0,1,.14-.58c.15-.22.36-.58.58-.6a1.11,1.11,0,0,1,.86.41,3,3,0,0,1,.52,1.32c.11,1.69.13,3.39.18,5.09S271.47,11.42,271.51,13.1Z" transform="translate(-16.68 -1.07)"/></g></svg>