<svg xmlns="http://www.w3.org/2000/svg" viewBox="0 0 362.6 188.05"><defs><style>.a{fill:#fff;}</style></defs><path d="M157.14,53.34c1-2.26,1.93-4.57,3.08-6.76a3.6,3.6,0,0,1,2.09-1.86c8.4-1.3,16.86-2.2,25.2-3.79,2.42-.46,4.49-2.8,6.58-4.19-2.19-4.94,1.39-10,6-9.94a4.52,4.52,0,0,0,2.74-1.66c2.33-2.6,4.3-5.57,6.84-7.93a7.77,7.77,0,0,1,5.12-1.67c5,.14,7.1,2.53,6.6,7.94-.59,6.27-.22,12.65-.08,19,0,1.75.92,3.48,1,5.25.14,2-.67,4.22-.15,6.09Q233.49,94.17,245,134.45c.13.43.51.8,1.65.94q-9.28-33.12-18.58-66.22l.92-.27c1.38,4.56,2.8,9.11,4.13,13.69,3.84,13.25,7.42,26.59,11.55,39.76,3.37,10.73,7.46,21.23,11.05,31.89.63,1.87.39,4,.59,6.53l22.12,1.73c-3.88-7.57-7-14.17-10.56-20.47-9.65-16.91-20.36-33.27-29-50.66C233,79.65,230,66.57,225.27,53l6.79,1.53c-2.33,5.75.38,10.24,3.13,14.87q22.16,37.35,44.13,74.82c1.78,3,3.56,6,5.45,9,.38.6,1.27.86,2.69,1.77-.26,4.33,3.9,6.52,8,8.44q41.06,19.41,82.18,38.62c.75.35,1.47.75,3.13,1.59H18.14L48.26,191.7q39.42-15.58,78.89-31.11c2.37-.93,5.16-.77,7.65-1.47,1.55-.43,3.53-1.16,4.27-2.39,9-14.8,17.68-29.76,26.6-44.59,1.71-2.85.1-4.19-1.67-5.84-11.41-10.64-16.5-23.55-13.73-39.13.37-2,1.52-4,2.3-5.93-.43,3.8-.74,7.61-1.34,11.39-.45,2.83.19,4.21,3.37,4.61,5.42.66,10.78,1.79,16.15,2.83,2.87.56,5.69,1.36,8.53,2.05-6.61-.2-5.11,5.77-7.16,8.45l22.79-7.42-.34-1.5-12.43.56v-.86l4.69-2.52c-1-2.49-2.28-4.49-2.48-6.58-.38-4,.09-8-.22-12-.16-2.14-1.22-4.21-1.87-6.31.75-.15,2.14-.24,2.16-.46a93.24,93.24,0,0,0,.61-9.88c0-.48-1.58-1.51-2.21-1.37-4.85,1.13-9.64,2.48-14.45,3.76ZM220.25,163.6c2.18-20.07-4.34-35.37-19-47.44a10.93,10.93,0,0,1-2.85.51c-5.24-.4-6.29,2.27-6,7,.6,10,.71,19.94,1,29.92.07,2.17.2,4.35.36,7.5,7.72-6.18,14-3.9,20.29.38C215.67,162.54,217.89,162.81,220.25,163.6Zm12.19-60.7c-4.22.45-4.77,2.61-4.51,5.69.63,7.3.82,14.64,1.59,21.92,1,9.78,0,19.88,6.32,28.77,2.75,3.89,5.6,4.56,9.22,3.44,4.36-1.35,2.12-4.81,1.66-7.57a18.93,18.93,0,0,0-.51-1.93C241.65,136.56,237.08,119.89,232.44,102.9Zm-61,9.21c-9.52,16.64-18.85,32.93-28.2,49.28,8.3,3,9.62,2.82,13.6-4.14,9.49-16.61,18.69-33.39,28-50.11a7.6,7.6,0,0,0,.5-1.74,4.8,4.8,0,0,0-2.15,1.92c-.65.94-1.26,1.9-1.9,2.88-4.76-4.27-6.31-4.19-8.29.34l4.71,2.89-.28.58ZM151.14,77.94a43.38,43.38,0,0,0,13.39,26.41c3.23-7.72,6.23-14.91,9.48-22.69Zm25,86c1-10.49,2-20.63,2.92-30.77l-1.28-.3c-4.83,10.23-11.38,19.65-15.39,31.07Zm33-112.68,1.45-.65V20.14h-1.19V42.62l-.86.17-4.29-8.91-1.71.78ZM212,107.8c-3.75,8.39,3.48,12.87,6.89,18.81l-1.08-18.81Zm-30.68,55.81c3.68,1.38,4.51-.3,4.45-3.45-.17-9.66-.23-19.31-.36-29,0-1.1-.22-2.2-.34-3.3-1.81,10.42-2.79,20.83-3.73,31.23C181.23,160.57,181.34,162,181.34,163.61Zm8.42-68.3c6.85-6.92,19.56-31.72,19-34.39Zm5.17,21.33,7.28-3.43c-.63-1-1.19-2.74-1.91-2.81C196.77,110.07,195.28,112.52,194.93,116.64Z" transform="translate(-18.14 -15.54)"/><path class="a" d="M157.14,53.34,168.36,46l13.89,8c.65,2.1,1.71,4.17,1.87,6.31.31,4-.16,8,.22,12,.2,2.09,1.5,4.09,2.48,6.58l-4.69,2.52v.86l12.43-.56.34,1.5-22.79,7.42c2-2.68.55-8.65,7.16-8.45-2.84-.69-5.66-1.49-8.53-2.05-5.37-1-10.73-2.17-16.15-2.83-3.18-.4-3.82-1.78-3.37-4.61.6-3.78.91-7.59,1.34-11.39Z" transform="translate(-18.14 -15.54)"/><path class="a" d="M220.25,163.6c-2.36-.79-4.58-1.06-6.22-2.17-6.29-4.28-12.57-6.56-20.29-.38-.16-3.15-.29-5.33-.36-7.5-.32-10-.43-20-1-29.92-.28-4.69.77-7.36,6-7a10.93,10.93,0,0,0,2.85-.51C215.91,128.23,222.43,143.53,220.25,163.6Z" transform="translate(-18.14 -15.54)"/><path class="a" d="M232.44,102.9c4.64,17,9.21,33.66,13.77,50.32a18.93,18.93,0,0,1,.51,1.93c.46,2.76,2.7,6.22-1.66,7.57-3.62,1.12-6.47.45-9.22-3.44-6.29-8.89-5.29-19-6.32-28.77-.77-7.28-1-14.62-1.59-21.92C227.67,105.51,228.22,103.35,232.44,102.9Z" transform="translate(-18.14 -15.54)"/><path class="a" d="M171.47,112.11l6,1.9.28-.58-4.7-2.9c2-4.52,3.52-4.6,8.28-.33.64-1,1.25-1.94,1.9-2.88a4.8,4.8,0,0,1,2.15-1.92,7.6,7.6,0,0,1-.5,1.74c-9.3,16.72-18.5,33.5-28,50.11-4,7-5.3,7.14-13.6,4.14C152.62,145,162,128.75,171.47,112.11Z" transform="translate(-18.14 -15.54)"/><path class="a" d="M151.14,77.94,174,81.66c-3.25,7.78-6.25,15-9.48,22.69A43.38,43.38,0,0,1,151.14,77.94Z" transform="translate(-18.14 -15.54)"/><path class="a" d="M176.13,164H162.38c4-11.42,10.56-20.84,15.39-31.07l1.28.3C178.09,143.34,177.13,153.48,176.13,164Z" transform="translate(-18.14 -15.54)"/><path class="a" d="M182.25,54l-13.89-8c4.81-1.28,9.6-2.63,14.45-3.76.63-.14,2.21.89,2.21,1.37a93.24,93.24,0,0,1-.61,9.88C184.39,53.75,183,53.84,182.25,54Z" transform="translate(-18.14 -15.54)"/><path class="a" d="M209.16,51.29l-6.6-16.63,1.71-.78,4.29,8.91.86-.17V20.15h1.19v30.5Z" transform="translate(-18.14 -15.54)"/><path class="a" d="M212,107.8h5.81l1.08,18.81C215.5,120.67,208.27,116.19,212,107.8Z" transform="translate(-18.14 -15.54)"/><path class="a" d="M181.34,163.61c0-1.57-.11-3,0-4.49.94-10.4,1.92-20.81,3.73-31.23.12,1.1.32,2.2.34,3.3.13,9.66.19,19.31.36,29C185.85,163.31,185,165,181.34,163.61Z" transform="translate(-18.14 -15.54)"/><path class="a" d="M189.76,95.31l19-34.39C209.32,63.59,196.61,88.39,189.76,95.31Z" transform="translate(-18.14 -15.54)"/><path class="a" d="M194.93,116.64c.35-4.12,1.84-6.57,5.37-6.24.72.07,1.28,1.83,1.91,2.81Z" transform="translate(-18.14 -15.54)"/></svg>