<svg xmlns="http://www.w3.org/2000/svg" xmlns:xlink="http://www.w3.org/1999/xlink" viewBox="0 0 188.42 31.67"><defs><style>.a,.g{fill:none;}.b{clip-path:url(#a);}.c{isolation:isolate;}.d{clip-path:url(#b);}.e{clip-path:url(#c);}.f{font-size:23.61px;font-family:Graphik-Bold, Graphik;font-weight:700;}.g{stroke:#000;stroke-miterlimit:10;stroke-width:2.02px;}</style><clipPath id="a" transform="translate(-5.04 -8.91)"><rect class="a" x="-192.75" width="595.28" height="841.89"/></clipPath><clipPath id="b" transform="translate(-5.04 -8.91)"><rect class="a" x="5.04" y="13.26" width="188.41" height="27.32"/></clipPath><clipPath id="c" transform="translate(-5.04 -8.91)"><rect class="a" x="5.04" y="13.26" width="188.41" height="27.32"/></clipPath></defs><g class="b"><g class="c"><g class="d"><g class="e"><text class="f" transform="translate(0 26.19)"><tspan xml:space="preserve">HET  MAÏSL    ND</tspan></text></g></g></g><path class="g" d="M146.57,15.66c1.89-1.59,3.58-3.58,5.91-4.78a9.56,9.56,0,0,1-.37,1.25,2.74,2.74,0,0,1-1,1.18,4.77,4.77,0,0,0-.91.94l-2.43,2.81c2,2.26,4.3,4.27,5.74,7l-.41-.38-.49.27-6.17-5.65c-.12.09-.27.22-.41.35-1.72,1.73-3.44,3.48-5.17,5.2a2.67,2.67,0,0,1-.61.45.58.58,0,0,1-.92-.58,2,2,0,0,1,.38-1c.78-.94,1.6-1.85,2.43-2.74,1-1.05,2-2.07,2.87-3-.63-.67-1.33-1.45-2.06-2.21-1.09-1.12-2.2-2.22-3.29-3.33a.91.91,0,0,1-.24-.38c0-.21-.13-.51,0-.64a.88.88,0,0,1,.65-.27,2.1,2.1,0,0,1,1,.4c1,.82,1.91,1.69,2.85,2.54S145.63,14.79,146.57,15.66Z" transform="translate(-5.04 -8.91)"/></g></svg>