<?xml version="1.0" encoding="utf-8"?>
<!-- Generator: Adobe Illustrator 25.0.1, SVG Export Plug-In . SVG Version: 6.00 Build 0)  -->
<svg version="1.1" id="Layer_1" xmlns="http://www.w3.org/2000/svg" xmlns:xlink="http://www.w3.org/1999/xlink" x="0px" y="0px"
	 viewBox="0 0 566.93 266.23" style="enable-background:new 0 0 566.93 266.23;" xml:space="preserve">
<style type="text/css">
	.st0{fill:none;}
	.st1{fill:#FFFFFF;}
</style>
<rect y="376.38" class="st0" width="566.93" height="27.79"/>
<g>
	<path class="st1" d="M482.8,23c1.83,0,3.66,0,5.49,0c2.15,0.7,4.3,1.39,6.45,2.09c0.11,0.49,0.22,0.98,0.33,1.47
		c-3.27,1.45-6.54,2.91-10.02,4.46c1.88,2.06,3.18,3.49,4.36,4.79c-1.73,1.79-2.98,3.09-4.76,4.93c6.89,0.77,7.81-0.17,6.68-5.57
		c2.48-1.6,4.81-3.91,7.58-4.71c4.78-1.39,8.72,0.67,11.42,4.89c0.58,0.9,1.91,2.18,1.68,2.57c-0.6,1-1.77,1.88-2.9,2.27
		c-1.09,0.38-2.41,0.05-3.62,0.13c-3.15,0.21-4.3,2.95-2.8,5.71c2.04,3.76,3.71,7.73,5.54,11.61c-9.7-3.63-15.07-2.86-14.87,3.55
		c2.16-1.47,3.8-2.59,6.29-4.29c1.99,2.09,4.35,4.7,6.88,7.11c0.64,0.61,1.85,0.63,2.82,0.87c4.75,1.21,6.6-3.22,9.94-5.31
		c1.69,5.21,5.76,2.52,8.9,2.98c1.8-5.48,2.39-5.76,8.84-4.3c-1.06,1.36-2.15,2.75-3.24,4.14c3.67,0.08,6.84,0.07,9.26-1.28
		c2.82-1.58,4.99-4.33,7.47-6.59c0.83,1.41,1.22,2.84,1.82,2.94c4.85,0.8,9.73,1.35,14.61,1.98c0,68.93,0,137.86,0,206.79
		c-62.08,0-124.16,0-187.38,0c2.9-2.43,4.93-4.16,6.99-5.83c4.9-3.98,9.87-7.87,14.7-11.93c2.25-1.89,4.25-4.08,6.32-6.18
		c1.76-1.79,3.97-3.38,5.08-5.52c2.74-5.28,5.32-10.67,4.41-17.04c-0.47-3.27-0.32-6.69,0.01-10c0.18-1.81,1.11-3.66,2.1-5.23
		c1.65-2.61,3.94-4.85,5.4-7.55c2.34-4.34,5.65-6.62,10.59-7.33c5.4-0.77,11.26-0.28,15.82-4.26c2.86-2.49,5.63-5.09,8.56-7.49
		c3.83-3.15,5.61-7.13,4.93-11.98c-0.51-3.63,1.28-5.42,4.14-7.15c2.29-1.4,4.75-3.27,5.94-5.55c1.84-3.51,2.8-7.52,3.85-11.39
		c0.32-1.18,0.16-3.32-0.58-3.8c-4.09-2.69-8.21-5.58-12.75-7.27c-4.57-1.71-9.62-2.22-14.49-3.03c-6.05-1-12.11-2.16-18.21-2.57
		c-9.52-0.63-19.1-0.45-28.62-1.08c-7.8-0.52-15.54-2.24-23.33-2.45c-6.19-0.17-12.62-1.76-18.65,1.83
		c-8.83,5.26-18.88,5.47-27.29,0.97c-5.72-3.07-10.4-2.52-15.8-2.01c-2.54,0.24-5.08,0.83-7.61,0.78
		c-7.27-0.15-14.53-0.62-21.8-0.82c-13.66-0.37-27.32-0.88-40.97-0.85c-6.9,0.02-13.78,1.26-20.69,1.68
		c-16.76,1.01-33.54,1.68-50.28,2.87c-5.61,0.4-11.6,0.97-16.55,3.3c-3.9,1.84-7.36,2.01-11.23,1.89
		c-7.33-0.23-14.67-0.8-21.99-0.54c-4.15,0.15-8.25,1.67-12.37,2.57c-0.12,0.61-0.24,1.21-0.36,1.82c5.62,3.17,10.91,7.3,16.92,9.29
		c10.18,3.38,20.97,4.9,31.21,8.13c10.69,3.38,21.13,7.64,31.45,12.05c2.16,0.92,3.32,4.17,4.94,6.35
		c-2.04,0.81-4.04,1.77-6.14,2.39c-4.41,1.3-8.87,2.41-13.87,3.75c4.49,4.97,5.81,10.99,3.4,14.58c-2.07,3.07-4.77,5.72-7.14,8.59
		c-3.65,4.42-8.04,8.45-10.65,13.42c-2.56,4.88-5.65,7.8-10.93,8.95c-5.29,1.15-10.11,3.23-11.79,9.09
		c-0.53,1.85-0.97,3.77-1.1,5.69c-0.59,8.43-1.82,17.14,5.83,23.44c2.54,2.09,5.65,3.51,8.81,5.43c-52.15,0-103.94,0-155.73,0
		C0,198.51,0,130.8,0,63.08c1.62-0.69,3.23-1.39,5.22-2.24c-0.37,3.5,1.85,3.42,4.82,2.93c1.36-0.22,3.35,0.47,4.34,1.46
		c2.64,2.63,4.54,1.87,6.26-0.96c2.76,4.41,17.94,4.37,23.4,0.53c0.83,1.76,1.71,3.6,2.58,5.44c0.98-1.82,1.96-3.64,2.93-5.45
		c1.71,1.06,4.4,1.75,5.07,3.31c1.87,4.33,3.45,3.94,5.74,0.55c0.28-0.42,0.81-0.77,1.29-0.96c4.71-1.85,9.43-3.66,14.2-5.5
		c1.18,3.83,1.18,3.83,7.03,2.09c0.24,1.1,0.48,2.2,0.52,2.39c2.37,0,4.29,0,6.22,0c1.86-0.98,4.52-2.86,4.91-5.14
		c1.02-5.9,5.22-8.69,8.87-11.71c1.09,1.85,2.01,3.42,2.94,5c1.33-0.93,2.55-2.12,4.01-2.71c1.01-0.41,2.79-0.48,3.47,0.14
		c2.26,2.01,4.16,2.58,6.74,0.44c2.82-2.34,2.27-4.53,0.17-6.75c9.57-8.96,9.57-8.96,14.29-9.53c-0.75,2.48-1.68,4.64-1.95,6.88
		c-0.13,1.03,0.79,2.52,1.68,3.25c0.74,0.6,2.15,0.4,2.12,0.4c1.1,5.52,2.05,10.28,2.74,13.77c-2.17,1.66-3.49,2.67-4.8,3.68
		c1.77,0.78,3.5,2.04,5.33,2.2c1.45,0.13,3.06-1,4.53-1.71c1.17-0.57,2.25-1.34,3.79-2.28c1.44,4.29,3.58,6.79,7.84,3.54
		c3.11,3.86,6.11,4.57,9.68,0.85c0.89-0.93,2.95-0.73,4.47-1.05c0.08,0.35,0.16,0.71,0.24,1.06c-0.83,0.51-1.66,1.02-2.49,1.53
		c0.24,0.41,0.47,0.82,0.71,1.23c5.81-0.54,11.63-1.08,17.44-1.61c1.63-0.25,3.31-0.25,4.98-0.43c2.45-0.26,4.91-1.07,7.31-0.87
		c5.04,0.41,10.29-0.92,15.11,1.61c0.35,0.18,0.94,0.11,1.35-0.03c4.99-1.75,9.6,0.14,14.29,1.38c0.63,0.17,1.36,0.17,2,0.03
		c4.52-0.94,9.04-1.94,14.25-3.08c0.62-0.69,2.09-2.34,3.56-4c0.32,0.28,0.65,0.56,0.97,0.84c0.48-1.57,0.96-3.14,1.44-4.71
		c0.37-0.03,0.74-0.06,1.1-0.09c1.03,3.86,2.06,7.73,3.06,11.5c3.38-4.14,6.52-7.98,10.13-12.4c1.61,3.16,3.27,6.43,5.3,10.42
		c1.76-4,3.25-7.38,4.6-10.44c1.46,2.55,3.12,5.44,4.78,8.32c0.46,0.03,0.92,0.06,1.37,0.09c0.68-1.99,1.36-3.99,2.04-5.98
		c0.27,0.33,0.53,0.66,0.8,1c1.01-1.08,2.02-2.15,3.31-3.54c2.33,3.65,4.68,7.33,7.56,11.84c2.12-4.17,3.79-7.43,5.48-10.76
		c0.73,0.79,1.78,1.95,2.88,3.14c1.62-1.88,2.84-4.64,4.59-5.03c3.59-0.81,7.15-0.22,10.02,3.21c3.32,3.97,7.42,7.28,11,10.71
		c3.73-4,6.64-7.12,9.59-10.29c2.8,4.52,5.16,0.93,6.98,0.18c1.64,1.09,2.91,2.6,4.25,2.67c2.09,0.1,4.21-0.99,6.35-1.2
		c3.28-0.34,6.58-0.39,7.29,4.07c0.12,0.74,0.51,1.45,0.97,2.68c1.66-2.22,2.37-3.17,3.04-4.06c5.78,6.93,8.17-3.92,12.84-2.56
		c0.64,6.29,0.64,6.26,7.01,5.34c1.19-0.17,2.72-0.5,3.6,0.05c3.42,2.12,5.52-0.32,8.45-1.2c3.47-1.04,7.86,2.14,12.11,0.7
		c1.87,4.98,6.64,1.39,7.13,0.73c2.55-3.41,4.81-2.29,7.34-0.18c0.68-1.11,1.07-1.92,1.61-2.62c2.34-3.04,5.45-2.66,7.02,0.76
		c0.43,0.93,1.19,1.72,1.8,2.57c0.81-0.81,1.61-1.63,2.44-2.41c0.76-0.71,2.03-2.1,2.26-1.95c2.4,1.57,4.56,5.44,7.08,0.12
		c0.02-0.05,0.29,0.02,0.61,0.06c0.29,0.88,0.59,1.81,0.92,2.82c4.38-4.39,5.23,1.85,8.25,2.54c1.43-2.02,2.46-4.95,4.44-5.92
		c3.06-1.49,4-7.68,9.38-4.52c0.41,0.24,1.88-1.31,3.42-2.44c-2.73-0.91-4.16-1.38-5.28-1.75c2.59-1.4,4.97-2.58,7.22-3.98
		c0.63-0.39,1.28-1.52,1.14-2.14c-0.13-0.55-1.27-1.09-2.05-1.25c-2.56-0.52-5.15-0.86-7.45-1.22c1.82-4.6,4.45-8.7,4.88-13.01
		c0.44-4.5,3.05-6.42,5.96-8.64C481.07,24.15,481.95,23.59,482.8,23z"/>
</g>
<rect x="429.38" y="322.95" class="st0" width="9.67" height="0"/>
</svg>
