<?xml version="1.0" encoding="utf-8"?>
<!-- Generator: Adobe Illustrator 25.0.1, SVG Export Plug-In . SVG Version: 6.00 Build 0)  -->
<svg version="1.1" id="Layer_1" xmlns="http://www.w3.org/2000/svg" xmlns:xlink="http://www.w3.org/1999/xlink" x="0px" y="0px"
	 viewBox="0 0 323.98 311.53" style="enable-background:new 0 0 323.98 311.53;" xml:space="preserve">
<style type="text/css">
	.st0{fill:#FFFFFF;}
</style>
<g>
	<path class="st0" d="M0,237.56c1.25-2.13,3.07-2.69,5.53-2.64c7.51,0.17,15.04-0.27,22.53,0.15c8.01,0.44,15.96,1.92,23.96,2.33
		c8.69,0.44,17.43,0.41,26.13,0.1c6.21-0.22,12.39-1.28,18.59-1.85c2.07-0.19,3.08-1.03,3.14-3.16c0.11-3.56-0.18-7,1.53-10.56
		c1.11-2.31-0.11-5.68-0.06-8.57c0.33-19.36,1.07-38.72,0.86-58.08c-0.06-5.76,3.28-8.88,5.77-12.92c0.61-0.99,1.29-2.08,1.41-3.18
		c0.22-2.15-0.09-4.35,0.09-6.51c0.3-3.46,1.04-6.88,1.2-10.34c0.22-4.73-0.01-9.48,0.07-14.22c0.17-10.28,0.45-20.56,0.61-30.84
		c0.08-5.19-0.17-10.39,0.09-15.57c0.27-5.37-0.77-10.61-1.07-15.86c-0.32-5.75-2.28-11.11-2.54-16.79
		c-0.19-4.23-0.78-8.45-0.91-12.69c-0.08-2.51,4.75-4.7,6.84-2.8c4.29,3.91,8.69,2.59,12.99,0.87c10.57-4.22,21.01-8.74,31.51-13.13
		c3.8-1.59,7.51-0.65,11.1,0.67c10.38,3.83,20.72,7.75,31.06,11.68c1.07,0.41,1.96,1.25,3.02,1.71c2.56,1.13,4.93,0.95,6.91-1.28
		c0.35-0.39,0.77-0.81,1.24-1c1.71-0.66,3.45-1.23,5.18-1.84c0.48,1.74,1.36,3.48,1.37,5.22c0.03,4.16-0.39,8.31-0.54,12.47
		c-0.05,1.24,0.36,2.5,0.23,3.72c-0.14,1.25-0.69,2.46-1.03,3.7c-0.6,2.19-1.44,4.35-1.71,6.59c-0.44,3.58-0.69,7.21-0.7,10.81
		c-0.06,21.03-0.14,42.07,0.06,63.1c0.04,4.46,1.31,8.89,1.74,13.36c0.29,2.96,0.22,5.98,0.07,8.96c-0.14,2.64,1.08,3.82,3.47,4.55
		c0.9,0.27,2.15,1.5,2.15,2.3c0.03,5.26-0.39,10.52-0.37,15.78c0.02,5.97,0.48,11.94,0.52,17.91c0.09,11.8,0.05,23.61,0.01,35.41
		c-0.01,1.68-0.53,3.36-0.5,5.04c0.04,1.52,0.56,3.02,0.79,4.55c0.4,2.62,1.14,5.28,0.99,7.87c-0.22,3.65,0.08,4.33,3.85,4.33
		c7.51,0.01,15.03-0.21,22.53,0.05c14.58,0.49,29.14,1.58,43.72,1.75c8.02,0.1,16.04-1.23,24.07-1.78c7.24-0.5,6.81,0.82,6.14,7.61
		c-0.62,6.33-2.55,12.53-3.6,18.83c-0.98,5.87-2.31,6.37-7.37,6.79c-8.75,0.72-16.84,3.56-24.99,6.17
		c-14.36,4.59-28.58,9.61-42.76,14.75c-5.02,1.82-9.68,4.62-14.6,6.74c-4.9,2.11-9.92,3.95-14.9,5.88
		c-5.46,2.11-10.88,4.37-16.44,6.18c-3.05,0.99-6.36,1.6-9.57,1.65c-10.4,0.19-20.82-0.11-31.22,0.09
		c-5.81,0.11-11.6,0.84-17.41,1.26c-1.06,0.08-2.13,0.01-3.19,0.01c-0.01-0.28-0.02-0.56-0.04-0.84
		c17.32-0.84,34.63-1.67,52.31-2.52c0.36-10.19-0.59-19.97-6.47-28.57c-7.19-10.53-17.76-11.6-29.08-9.56
		c-3.96,0.71-7.79,2.23-11.62,3.54c-4.63,1.59-7.14,5.07-8.69,9.62c-2.1,6.18-3.08,12.44-2.67,18.95c0.15,2.34,0.02,4.7,0.02,8.04
		c-4.75-1.43-9.12-2.56-13.36-4.06c-3.92-1.4-7.56-3.77-11.56-4.71c-12.06-2.82-23.12-8.09-34.34-13.04
		c-4.6-2.03-9.37-3.68-13.91-5.83c-2.91-1.39-5.39-3.72-8.32-5.03c-4.07-1.82-8.29-3.73-12.63-4.43
		c-8.44-1.36-16.19-4.28-23.69-8.19c-2.23-1.16-4.64-2-6.86-3.17c-0.95-0.5-2.02-1.35-2.38-2.29c-1.74-4.59-4.06-9.04-3.7-14.21
		c0.09-1.27-0.38-2.58-0.6-3.87C0,240.99,0,239.28,0,237.56z M150.35,172.59c-0.19,0.76-0.33,1.07-0.33,1.37
		c0.11,19.28,0.24,38.55,0.32,57.83c0.01,2.36,1.14,3.14,3.32,3.26c6.39,0.34,12.78,0.81,19.18,1.19c3.56,0.22,4.97-0.91,5.03-4.48
		c0.11-7.39,0.3-14.8-0.06-22.18c-0.53-11-1.55-21.98-2.25-32.97c-0.14-2.15-1.17-2.69-3.04-2.81c-4.9-0.34-9.79-0.86-14.7-1.18
		C155.38,172.46,152.93,172.59,150.35,172.59z M115.47,38.62c0.42,2.79,1.15,5.29,1.11,7.78c-0.2,12.53-0.83,25.06-0.86,37.59
		c-0.03,12,0.49,24,0.75,36c0.04,1.92,0.41,4.07-2.77,3.77c-0.41-0.04-1.35,1.11-1.3,1.64c0.09,0.89,0.64,2.38,1.22,2.49
		c4.03,0.77,8.12,1.26,12.21,1.84c0.28-1.11,0.54-1.54,0.46-1.91c-0.45-2.18-1.38-4.34-1.4-6.51c-0.13-11.99-0.14-23.98,0-35.97
		c0.13-10.7,0.45-21.4,0.81-32.09c0.16-4.65-2.15-9.73,2.16-13.74c0.08-0.08-0.06-0.4-0.16-0.9
		C123.76,38.62,119.76,38.62,115.47,38.62z M211.51,37.31c-4.2,0-7.8-0.11-11.4,0.05c-1.76,0.07-2.12,1.37-1.16,2.7
		c2.16,3.01,2.12,6.41,2.12,9.86c-0.01,21.13,0.09,42.27-0.07,63.4c-0.03,4.61,1.63,9.58-2.79,14.28c5.33,0,9.71,0,14.52,0
		c-0.33-1.17-0.57-2.25-0.94-3.29c-0.6-1.7-1.8-3.36-1.85-5.07c-0.53-18.76-1.12-37.52-1.18-56.28
		C208.74,54.66,206.62,46.04,211.51,37.31z M157.74,90.05c0.39,5.96,0.8,12.22,1.22,18.58c1.79-0.15,3.39-0.16,4.94-0.47
		c0.66-0.13,1.66-0.86,1.72-1.39c0.61-5.67,1.06-11.36,1.58-17.28C163.52,89.7,160.78,89.86,157.74,90.05z M179.24,26.28
		c-2.01,0.42-3.4,0.71-4.74,0.99c0,1.97,0,3.75,0,5.77c1.79,0,3.42,0,5.5,0C179.75,30.81,179.51,28.68,179.24,26.28z M125.37,28.93
		c-1.63-1.44-2.48-2.75-3.6-3.05c-1.8-0.47-2.38,0.95-2.15,2.55c0.25,1.75-1.12,4.62,2.18,4.48
		C122.84,32.87,123.79,30.78,125.37,28.93z M188.55,26.7c0.15,7.17,0.15,7.17,3.91,6.62c0.12-1.09,0.28-2.24,0.35-3.39
		C193.09,25.6,193.01,25.54,188.55,26.7z M137.07,33.54c0-2.64,0-5.12,0-7.94c-1.35,0.31-2.61,0.6-3.79,0.87c0,2.53,0,4.72,0,7.07
		C134.59,33.54,135.7,33.54,137.07,33.54z M164.62,33.15c0-2.09,0.15-3.81-0.07-5.48c-0.09-0.68-1.11-1.83-1.52-1.76
		c-0.8,0.15-2.04,0.95-2.09,1.58c-0.18,1.93,0.11,3.9,0.22,6.03C162.61,33.37,163.53,33.27,164.62,33.15z M147.19,32.61
		c1.93,0,3.33,0,4.89,0c-0.39-1.97-0.62-3.67-1.09-5.3c-0.2-0.7-0.92-1.25-1.4-1.86c-0.65,0.61-1.68,1.13-1.86,1.86
		C147.33,28.93,147.36,30.66,147.19,32.61z M205.81,26.47c-3.25,0.16-3.82,1.1-2.74,5.17c0.19,0.72,1.55,1.12,2.37,1.67
		c0.45-0.74,1.3-1.5,1.27-2.22C206.65,29.54,206.13,28,205.81,26.47z"/>
</g>
</svg>
