<?xml version="1.0" encoding="utf-8"?>
<!-- Generator: Adobe Illustrator 24.2.0, SVG Export Plug-In . SVG Version: 6.00 Build 0)  -->
<svg version="1.1" id="Layer_1" xmlns="http://www.w3.org/2000/svg" xmlns:xlink="http://www.w3.org/1999/xlink" x="0px" y="0px"
	 viewBox="0 0 213.1 222" style="enable-background:new 0 0 213.1 222;" xml:space="preserve">
<style type="text/css">
	.st0{opacity:0.85;}
	.st1{fill:#53917E;stroke:#53917E;stroke-width:2;stroke-miterlimit:10;}
	.st2{opacity:0.8;}
</style>
<g>
	<g>
		<g>
			<g>
				<g class="st0">
					<g>
						<path class="st1" d="M156.5,86.9c0-1.4,0-3,0.1-4.5c0,0.7,0,1.4-0.1,2.3C156.5,85.6,156.5,86.2,156.5,86.9z"/>
						<path class="st1" d="M156.6,78.2c0-0.3,0-0.6,0-0.9c0-0.3,0-0.4,0-0.7C156.6,77.2,156.6,77.8,156.6,78.2z"/>
						<path class="st1" d="M156.8,70.4c0,1.4,0,2.7,0,4C156.6,73.3,156.6,72,156.8,70.4z"/>
						<path class="st1" d="M156.6,76.7C156.6,76.2,156.6,75.9,156.6,76.7C156.6,76.8,156.6,76.8,156.6,76.7c0-0.7,0-1.4,0-2.3
							C156.6,75.2,156.6,76.1,156.6,76.7z"/>
						<path class="st1" d="M156.6,76.7c0,0.4,0,1.1-0.1,1.4C156.5,77.6,156.6,77.2,156.6,76.7z"/>
						<path class="st1" d="M156.2,74.7c0-0.9,0.1-0.6,0.1-2.1c0-3.7,0-6.8,0-10.2c0-1.6,0.1-4,0.1-5.5c0-3.7-0.3-12.9-0.3-7.5
							c0,8.2,0,13.6,0,21c0,6,0,11.8-0.1,18c0,1.7-0.1,3.4-0.1,5c0.1-2.1,0.1-4.3,0.3-6.7C156.2,83.5,156.1,79.6,156.2,74.7z"/>
						<path class="st1" d="M153.7,119.6c0-0.3,0-0.7,0-0.9l0.3-1.4c0.4-1.7,0.9-3.4,1.3-5.1c0.4-1.8,0.4-3.7,0.4-5.4
							c0,0.6-0.1,1.1-0.1,1.6c-0.1,2.1-0.1,2.3,0,0.4c-0.1,0.9-0.1,1.7-0.3,2.6c-0.1,0.9-0.4,1.7-0.6,2.4c-0.4,1.7-0.7,3.3-1.1,4.8
							c0,0.7-0.1,1.6-0.3,2.3C153.4,120.6,153.5,120.8,153.7,119.6z"/>
						<path class="st1" d="M152.4,123.2c0.3-0.7,0.7-1.4,0.9-2.3c0,0,0,0,0,0.1C153.1,121.7,152.8,122.6,152.4,123.2L152.4,123.2z"
							/>
						<path class="st1" d="M156.6,54c0-10.4-0.1-20.1-0.6-29.6c0-0.7-0.1-1.3-0.1-2.3c0-0.7,0-1.6-0.1-2.3c-0.1-1.4-0.3-2.8-0.4-4.1
							c0-0.4-0.1-1-0.3-1.4l0,0c-0.1-0.7-0.1-0.6,0,0s0.1,1,0.1,1.4c0-0.3-0.1-1-0.1-1.4c0-0.3-0.1-0.7-0.3-1
							c-0.1-0.3-0.1-0.9-0.6-1c-0.3,0-0.6-0.1-0.9-0.3c-0.3-0.1-0.6-0.3-0.9-0.6c-0.6-0.3-1.1-0.6-1.8-0.9c0.7,0.3,1.3,0.6,1.8,1
							c0.3,0.1,0.6,0.3,0.9,0.4c0.3,0.1,0.4,0.3,0.7,0.3c0.4,0.1,0.4,0.7,0.6,1c0.1,0.4,0.1,0.7,0.3,1.1c0,0.3,0.1,0.4,0.1,0.7
							c-0.1-0.9-0.3-1.6-0.6-2.3c-0.1-0.1-0.1-0.4-0.4-0.6c-0.3,0-0.4,0-0.6-0.1c-0.3-0.3-0.7-0.4-1-0.6c-1.4-0.9-2.8-1.4-4.4-1.8
							c-0.7-0.3-1.4-0.4-2-0.4c-2.3-0.4-4.4-1.3-5.8-1.6c-0.6,0-1.1-0.1-1.7-0.1c0.1,0,0.3,0,0.3,0c-0.3,0-0.4,0-0.6-0.1
							c-2.4-0.3-4.7-0.6-7.1-0.9c-1.6-0.1-3.1-0.3-4.7-0.3c0,0-1.1-0.1-1.6-0.1c-0.7,0-1.6,0-2.7-0.1c1.3,0.1,2.4,0.3,3.5,0.3
							c1.6,0.1,3.5,0.1,5.5,0.4c-1.8-0.3-3.8-0.3-5.5-0.4c-1.1-0.1-2.3-0.3-3.5-0.3c-2.3-0.1-5.1-0.3-7.5-0.3c3,0,5.4,0.1,7.5,0.3
							c1.1,0,2,0.1,2.7,0.1c0.6,0,1.6,0.1,1.6,0.1c1.6,0.1,3.3,0.1,4.7,0.3c-4.7-0.4-9.4-0.7-14.2-0.9c-9.4-0.3-18.6,0.1-27.8,1
							c-4.5,0.4-9.1,1-13.6,1.6c-2.3,0.3-4.5,0.7-6.8,1.3l-3.3,1.3l-1.6,0.6l-0.9,0.3l-0.4,0.1L62.6,12h-0.1c0,0,0,0,0.1,0
							c-0.6,0-0.7,0.7-0.9,1c-0.1,0.4-0.1,0.7-0.3,1.1c-0.1,0.7-0.3,1.4-0.3,2.3c-0.1,1.4-0.3,3-0.4,4.5c-0.1,3-0.3,6-0.3,9.1
							c-0.1,6.1-0.1,12.3-0.1,18.7c0.1,17.4,0.4,34.3,1,50.8c0.1,3.4,0.3,6.8,0.4,10.1c0.1,1.7,0.1,3.4,0.3,5
							c0.1,0.9,0.1,1.7,0.3,2.6c0.1,0.9,0.6,1.7,0.9,2.4l0,0c0.4,1.6,1.1,3.1,1.8,4.5c1,1.4,2,2.6,2.8,3.8c2,2.4,4,5,5.8,7.4
							c3.8,4.8,7.8,9.8,11.5,14.7c1.8,2.6,3.7,5,5.5,7.7c0.9,1.3,1.7,2.6,2.6,4c0.3,0.7,0.7,1.4,0.9,2l0.1,2.3
							c0.4,6.2-0.7,12.8-4.3,18c-1.7,2.6-4.3,5.4-7.7,7.7c-3.4,2.3-7.4,4.3-11.6,5.7c-2.1,0.7-4.3,1.4-6.4,2.1
							c-0.6,0.1-1.1,0.4-1.6,0.6l-0.4,0.1l-0.4,0.3c-0.3,0.1-0.4,0.3-0.7,0.6c-0.9,0.7-1.7,1.6-2.3,2.6c-0.6,1-1.1,2-1.1,3.3
							c-0.1,1.1,0,2.1,0.4,3.1c0.7,2,2.1,3.5,3.7,4.3c2,1,3.8,1.3,5.1,1.4c1.4,0.1,2.4,0.1,3.1,0.1c1.6,0,2-0.1,1.8-0.3
							c-0.1-0.1-2.6-0.4-2.8-0.4c-2.6-0.3-5-0.7-6.9-2c-2.1-1.1-3.4-3.7-3.1-6.5c0.1-1.3,1-2.7,2.1-3.8c0.6-0.6,1.3-1.1,2-1.6
							s1.7-0.6,2.6-0.9c3.5-1.1,7.8-2.4,12.6-4.5c-3.3,1.6-4.3,1.8-3.8,1.6c0.4-0.3,2.4-1,5.1-2.6c2.7-1.4,6-3.5,8.6-6.5
							c2.8-2.8,4.8-6.4,6.1-9.6c0.9-2.3,1.4-4.8,1.7-7.4c0-0.7,0.1-1.3,0.1-2c0-0.7,0-1.4,0-2c0-0.7,0-1.4-0.1-2.1
							c-0.1-0.7,0-1.3-0.3-2.1s-0.6-1.4-0.9-2.1c-0.3-0.7-0.7-1.3-1.1-1.8c-0.7-1.3-1.6-2.4-2.4-3.7c-1.7-2.4-3.5-4.8-5.4-7.2
							c-3.7-4.8-7.5-9.6-11.3-14.5c-2-2.4-3.8-4.8-5.7-7.1c-0.9-1.1-2-2.4-2.6-3.5c-0.3-0.6-0.7-1.3-0.9-2l-0.4-1l-0.1-0.6l-0.1-0.3
							v-0.1l0,0l0,0l0,0c-0.3,0.1,0.7-0.1-0.7,0.1l0.7-0.3c-0.1-0.3-0.1-0.4-0.3-0.7c-0.3-0.7-0.4-1.3-0.6-2
							c-0.1-0.7-0.1-1.4-0.1-2.3c-0.1-1.6-0.1-3.1-0.3-4.7c-0.1-3.1-0.3-6.5-0.4-10.1c-0.6-14.7-0.9-29.2-1-43.5
							c-0.1-7.2-0.1-14.5,0-21.7c0-3.7,0.1-7.4,0.3-10.9c0.1-1.8,0.1-3.7,0.3-5.5c0.1-0.9,0.1-1.8,0.3-2.7c0.1-0.4,0.1-0.9,0.3-1.3
							c0-0.1,0.1-0.4,0.1-0.6l0,0c1.6-0.6,3.3-1.3,4.8-1.8l1.3-0.4l0.3-0.1l0,0H70l0.7-0.1c0.9-0.1,1.7-0.4,2.6-0.6
							c3.5-0.6,7.2-1,10.8-1.4c10.1-1.1,19-1.8,27.6-2c6.2,0,12.9,0.4,18,0.9c4,0.3,7.7,0.7,11.2,1.1c1.6,0.3,3.4,0.9,5,1.3
							c1.7,0.3,3.3,0.7,4.7,1.4c-1.7-0.7-3.3-1.1-5-1.4c-1.6-0.4-3.3-1-4.7-1.3c-3.3-0.4-6.7-0.9-10.8-1.1c-5.5-0.4,3.8,0.1,7.4,0.6
							c0.7,0.1,1.7,0.3,2.7,0.4c1,0.1,1.8,0.4,2.7,0.7c1.6,0.4,3.3,0.9,4.8,1.3c1.6,0.4,3.1,1,4.7,1.8c0.7,0.4,0.9,0.6,1.1,0.7
							c0.1,0,0.1,0.1,0.1,0.1c0.1,0,0.1,0,0.3,0h0.1l0,0l0,0v-0.3l0,0l0,0l0,0l0,0l0,0l0,0c0,0,0,0.1-0.1,0.1l0,0
							c0.3,0.3,0.4,1,0.6,1.4c0.1,0.6,0.3,1.1,0.3,1.7c0.1,1.1,0.3,2.1,0.4,3.1c0.3,2,0.3,3.7,0.4,5.2c0.1,2.4,0.1,4.5,0.3,6.7
							c0,1.3,0,2.7,0.1,4.1c0,0.9,0,1.8,0.1,2.7c0-0.7,0.1-1,0.1-1.3c0,1.3,0,3.1,0,4.5c0-1.3,0-3.1,0-4.5c0,0.3-0.1,0.6-0.1,1.3
							c0.1,6.5,0.3,14,0.4,21.1c0,0,0,0,0-0.1c0-4.1,0-8.1,0-12.3c0,1.8,0,1.6-0.1-0.4c0-0.6,0-1.1,0-1.6c0.1,3.7,0.1,7.2,0,10.8
							c0,0,0,1.6,0,2.3c0,1.1,0,1.1-0.1,1.3c0,0.9,0,1.6,0,2.4C156.6,59.4,156.6,54,156.6,54z"/>
						<path class="st1" d="M154.1,12.1c0.3,0,0.4,0.4,0.6,0.7c0.1,0.3,0.3,0.7,0.3,1c-0.1-0.3-0.1-0.7-0.3-1
							C154.7,12.7,154.5,12.1,154.1,12.1c-0.1,0-0.3,0-0.4-0.1l-0.4-0.3c-0.3-0.1-0.6-0.3-0.9-0.6c-1.1-0.7-2.4-1.1-3.7-1.6
							c0.7,0.3,1.6,0.6,2.4,1c0.4,0.3,1,0.4,1.4,0.7c0.3,0.1,0.4,0.3,0.7,0.4l0.4,0.3l0.1,0.1H154.1z"/>
					</g>
				</g>
			</g>
		</g>
	</g>
</g>
<g>
	<g>
		<g>
			<g>
				<g class="st0">
					<g>
						<path class="st1" d="M68.7,45.5c0.3,0,0.7,0,1,0c-0.1,0-0.3,0-0.4,0C69,45.5,68.9,45.5,68.7,45.5z"/>
						<path class="st1" d="M70.6,45.5h0.1h0.1C70.7,45.5,70.7,45.5,70.6,45.5z"/>
						<path class="st1" d="M72.3,45.5c-0.3,0-0.6,0-0.9,0C71.6,45.5,71.9,45.5,72.3,45.5z"/>
						<path class="st1" d="M70.9,45.5C71,45.5,71,45.5,70.9,45.5L70.9,45.5c0.1,0,0.3,0,0.4,0C71.1,45.5,71,45.5,70.9,45.5z"/>
						<path class="st1" d="M70.9,45.5c-0.1,0-0.3,0-0.3,0C70.7,45.3,70.9,45.5,70.9,45.5z"/>
						<path class="st1" d="M71.3,44.9c0.1,0,0.1,0.1,0.4,0.1c0.9,0,1.4-0.1,2.1-0.1c0.3,0,0.9,0.1,1.1,0.1c0.9,0,2.8-0.3,1.6-0.3
							c-1.8,0-3,0-4.5,0.1c-1.3,0-2.6,0.1-3.8,0.1c-0.4,0-0.7,0-1.1,0c0.4,0,1,0,1.4,0C69.4,45.2,70.3,45,71.3,44.9z"/>
						<path class="st1" d="M61.6,45.5c0.1,0,0.6,0,0.6,0c0.7,0.1,1.6,0,2.3,0c-0.1,0-0.3,0-0.3,0c-0.4,0-0.6,0-0.1,0.1
							c-0.9-0.1-1.8-0.1-2.7-0.1C61.4,45.3,61.4,45.3,61.6,45.5z"/>
						<path class="st1" d="M60.8,45.3c0.1,0,0.3,0,0.6,0l0,0C61.1,45.3,60.9,45.3,60.8,45.3L60.8,45.3z"/>
						<path class="st1" d="M75.8,45.3c2.3,0,4.3,0,6.4,0c0.1,0,0.3,0,0.4,0c0.1,0,0.3,0,0.4,0c0.3,0,0.6,0,0.9,0c0.1,0,0.1,0,0.3,0
							l0,0c0.1,0,0.1,0,0,0c-0.1,0-0.3,0-0.3,0s0.1,0,0.3,0c0.1,0,0.3,0,0.4,0c0.3,0,0.6,0,0.9,0c-0.3,0-0.6,0-0.9,0
							c-0.1,0-0.3,0-0.6,0h-0.1c0.7,0,1.4,0,2,0c0.1,0,0.3,0,0.4,0c0.4,0,1,0,1.3,0c0.1,0,0.3,0,0.4,0l0,0h0.1c0.6,0,1,0,1.6,0
							c0.3,0,0.7,0,1-0.1H91c0.1,0,0.3,0,0.6,0c-0.3,0-0.6-0.1-0.7-0.1c-0.3,0-0.7,0.1-1.1,0c0.4,0.1,0.9-0.1,1.1,0
							c0.3,0,0.4,0.1,0.7,0.1c0.4,0,1.1,0,1.6,0c-0.6,0-1.1,0-1.6,0c-0.3,0-0.4,0-0.6,0s-0.3,0-0.3,0c-0.3,0-0.7,0-1,0.1
							c1,0,2,0,3.1,0c6.7,0.1,12.9,0.1,19.9,0.1c3.8,0,7.4,0.1,10.9,0.1c7.1,0.1,13.5,0,20.7,0.3c2.7,0.1,7.8,0,10.5,0
							c3.5-0.3,1.7-0.9,1.6-0.9c-2.1-0.6-3.8-0.3-8.4-0.6c3,0.1-2.3,0.3-5.1,0c-4.1-0.6-10.1-0.1-15.2-0.3c-1.3,0-2.7,0-4.1,0
							c-7.9-0.1-15.2,0-23.5,0c-2.3,0-4.1,0.1-6,0.1c-1.4,0-2.8,0-3.8,0c-1.7,0-3.3,0-4.7,0.1c1.6,0,2.7,0,4.5-0.1
							c1.1,0-0.9,0.1-1.6,0.3c-0.3,0-0.9-0.1-1.1-0.1c-0.7,0-1.4,0-2.1,0.1c-0.3,0-0.3-0.1-0.4-0.1c-1.1,0-1.8,0.1-2.6,0.1
							c-0.6,0-1,0-1.4,0c-0.3,0-0.6,0-0.9,0c-0.1,0-0.4,0-0.6,0c0.1,0,0.1,0.1,0.3,0.1c-0.3,0-0.7,0-1,0c0.3,0,0.7,0,1,0
							c0,0-0.1-0.1-0.3-0.1c-1.4,0.1-3,0.1-4.5,0.1l0,0c0.9,0,1.7,0,2.7,0.1c-0.4,0-0.3,0,0.1-0.1c0.1,0,0.3,0,0.3,0
							c-0.9,0-1.6,0.1-2.3,0c0,0-0.3,0-0.6,0c-0.3,0-0.3,0-0.3-0.1c-0.1,0-0.3,0-0.6,0C74.7,45.2,75.8,45.3,75.8,45.3z"/>
						<path class="st1" d="M84.9,45.3c-0.1,0-0.3,0-0.4,0c0.6,0,1.1,0,1.7,0C85.9,45.3,85.3,45.3,84.9,45.3z"/>
					</g>
				</g>
			</g>
		</g>
	</g>
</g>
<g>
	<g>
		<path class="st1" d="M117.2,147.3"/>
	</g>
</g>
<g>
	<g>
		<path class="st1" d="M128.4,147.3"/>
	</g>
</g>
<g>
	<g>
		<g>
			<g>
				<g class="st0">
					<g>
						<path class="st1" d="M61.5,80.6c0-1.7,0-3.5-0.1-5.2c0,0.9,0,1.7,0,2.7C61.5,79.2,61.5,79.8,61.5,80.6z"/>
						<path class="st1" d="M61.4,70.6c0-0.3,0-0.6,0-1c0-0.3,0-0.6,0-0.9C61.4,69.4,61.4,70,61.4,70.6z"/>
						<path class="st1" d="M61.4,61.5c0,1.6,0,3.1,0,4.7C61.4,64.9,61.4,63.3,61.4,61.5z"/>
						<path class="st1" d="M61.4,68.7C61.4,68.1,61.4,67.9,61.4,68.7C61.4,68.9,61.4,68.9,61.4,68.7c0-0.7,0-1.7,0-2.6
							C61.4,67.2,61.4,68,61.4,68.7z"/>
						<path class="st1" d="M61.4,68.7c0,0.6,0,1.4,0,1.7C61.4,70,61.4,69.4,61.4,68.7z"/>
						<path class="st1" d="M60.8,66.4c0-0.9,0.1-0.7,0.1-2.6c0-4.3-0.1-7.9-0.1-11.9c0-1.8,0.1-4.7,0.1-6.5c0-4.3,0-15.2-0.1-8.8
							c-0.1,9.6-0.1,16-0.1,24.7c0.1,7.1,0.3,13.8,0.4,21c0,2,0.1,4,0.1,5.8c0-2.4,0-5-0.1-7.8C61.1,76.8,60.9,72.3,60.8,66.4z"/>
						<path class="st1" d="M64.2,118.9c0,0,0-0.1,0-0.3l-0.6-2.4c-0.1-1-0.4-2-0.6-3c-0.3-1-0.4-2-0.6-3.1c-0.1-2.1-0.3-4.3-0.4-6.4
							c0,0.6,0,1.3,0,1.8c0.1,2.4,0.1,2.7,0.1,0.6c0,1.1,0.1,2.1,0.1,3.3c0,1,0.1,2.1,0.4,3.1c0.4,2,0.9,4.1,1.3,6.1
							c0,0.6,0.1,1.3,0.3,1.8C64.3,120.2,64.3,120,64.2,118.9z"/>
						<path class="st1" d="M65.3,123.2c-0.4-0.9-0.7-1.7-1-2.7c0,0,0,0,0,0.1C64.6,121.5,64.9,122.5,65.3,123.2L65.3,123.2z"/>
						<path class="st1" d="M61.2,42.2c0.1-6.1,0.1-11.9,0.6-17.7c0.1-2.8,0.3-5.7,0.7-8.5c0.1-0.7,0.1-1.4,0.3-2.1
							c0.1-0.3,0.1-0.7,0.3-1c0.1-0.3,0.3-0.7,0.6-0.7c0.1,0,0.3-0.1,0.4-0.1l0.4-0.3c0.3-0.1,0.6-0.3,0.9-0.6
							c0.6-0.3,1.3-0.6,1.8-0.9c0.7-0.3,1.3-0.6,2.4-0.9c0.9-0.3,1.7-0.4,2.6-0.6c1.6-0.4,3.1-1,4.7-1.3c0.6-0.1,1.1-0.1,1.7-0.3
							l0,0c0.9-0.1,0.6-0.1,0,0c-0.6,0-1.1,0.1-1.7,0.1c0.3,0,1.1-0.1,1.7-0.1c0.7-0.1,1.6-0.1,2.6-0.3c1.4-0.1,3-0.3,4.5-0.4
							c-1.8,0.1-3.3,0.3-4.5,0.4c-1,0.1-1.8,0.3-2.7,0.3c-0.3,0-0.6,0.1-0.9,0.1c3.7-0.4,7.4-0.9,11.1-1.1c0.9-0.1,1.7-0.1,2.3-0.1
							c2.7-0.1,5.4-0.4,6.9-0.3c0.7,0,1.3,0,2,0c-0.1,0-0.3,0-0.4,0c0.3,0,0.6,0,0.7,0c2.8-0.1,5.5-0.1,8.4,0c1.8,0,3.7,0,5.5,0
							c0,0,1.3,0.1,1.8,0.1c0.7,0,1.8,0,3.1,0.1c-1.6-0.1-2.8-0.3-4.1-0.3c-1.8-0.1-4.3,0-6.4-0.1c2.3,0.1,4.5,0,6.4,0.1
							c1.3,0.1,2.7,0.3,4.1,0.3c2.7,0.1,6.1,0.4,8.8,0.7c-3.4-0.3-6.2-0.6-8.8-0.7c-1.3,0-2.4-0.1-3.1-0.1c-0.6,0-1.8-0.1-1.8-0.1
							c-1.8,0-3.7-0.1-5.5,0C114,6,119.4,6.3,125,6.8c5.1,0.4,10.2,1,15.2,1.7c1.3,0.1,2.6,0.3,3.7,0.6c1.3,0.3,2.4,0.6,3.7,0.9
							c1.1,0.3,2.3,0.9,3.4,1.3l1.7,0.7l0.9,0.3l1,0.1l0.3,0.1c0.1,0,0.1,0,0,0c0.3,0,0.4,0.4,0.6,0.7c0.1,0.4,0.1,0.7,0.3,1.1
							c0.1,0.7,0.3,1.6,0.3,2.4c0.1,1.6,0.3,3.1,0.3,4.7c0.1,3.1,0.3,6.4,0.3,9.5c0.1,6.4,0.1,12.6,0,19
							c-0.1,12.8-0.4,25.8-0.9,39.3c-0.1,5.1-0.4,10.2-0.6,15.2c-0.1,2.6-0.3,5-0.4,7.5c-0.1,1.3-0.1,2.4-0.3,3.7
							c-0.1,0.6-0.1,1.3-0.3,1.7c-0.1,0.6-0.4,1.1-0.7,1.7l0.3,0.1c-0.7-0.1-0.1,0-0.3-0.1l0,0l0,0l0,0l0,0v0.1v0.3l-0.1,0.4
							l-0.3,0.9c-0.3,0.6-0.4,1.1-0.7,1.7c-0.3,0.6-0.6,1-0.9,1.6l-1.1,1.4c-1.6,1.8-3.1,3.8-4.5,5.7c-3,3.8-6.1,7.5-9.1,11.3
							c-3,3.8-6,7.5-8.6,11.3c-1.4,1.8-2.7,3.8-4,5.8c-0.6,1-1.3,2-1.6,3.3c-0.1,1.3-0.3,2.4-0.3,3.5c-0.3,4.7,0.4,9.5,2.3,13.9
							c1.8,4.4,4.8,8.1,8.5,11.1c3.7,2.8,7.9,5,12.2,6.7c2.1,0.9,4.4,1.6,6.7,2.3c1.1,0.4,2.3,0.7,3.1,1.1c0.9,0.6,1.7,1.3,2.4,2.1
							c0.7,0.9,1.1,1.8,1.3,2.8c0.1,1,0,2.1-0.4,3.1c-0.4,1-1.1,1.8-2,2.4c-0.9,0.6-1.8,1-3,1.4c-2.1,0.6-4.5,0.7-6.9,0.7
							s-4.8,0-7.2,0c-14.9,0-42.5,0.1-56.9,0.3c-9.6,0.1-11.9,0.6-11.8,0.7c0.3,0.1,3,0.3,3.4,0.3c11.8,0.3,21.1,0,45.1,0.1
							c-16.4-0.1,12.1-0.4,27.6-0.1c2.8,0,6,0,8.9-1.4c0.7-0.3,1.4-0.9,2.1-1.4c0.6-0.6,1.1-1.3,1.6-2.1c0.7-1.6,1-3.4,0.6-5.2
							c-0.6-1.8-1.8-3.3-3.1-4.4c-0.4-0.3-0.7-0.6-1.1-0.9c-0.4-0.1-0.9-0.4-1.3-0.6c-0.9-0.3-1.7-0.6-2.4-0.9
							c-3.3-1-6.7-2.1-9.8-3.5c-3.1-1.4-6.2-3.3-8.9-5.5c-2.7-2.3-5-5-6.7-8.2c-1.6-3.1-2.6-6.5-2.8-10.1c0-0.9-0.1-1.7-0.1-2.6
							c0-0.9,0-1.7,0-2.6c0.1-0.9,0.1-1.7,0.3-2.6c0-0.7,0.4-1.4,0.9-2.1c1.7-3,3.8-5.8,6-8.8c2.3-3,4.5-6.1,7.1-9.4
							c3.1-3.8,6.1-7.7,9.2-11.5c1.6-1.8,3-3.8,4.5-5.7l1.1-1.4c0.1-0.3,0.4-0.6,0.6-0.9c0.1-0.3,0.3-0.6,0.4-0.9
							c0.6-1.1,1-2.3,1.4-3.5l0,0c0.3-0.9,0.9-2,0.9-3c0.1-1,0.1-2,0.3-3.1c0.1-2,0.3-4,0.4-6.1c0.1-4,0.4-8.1,0.6-12.1
							c0.3-8.1,0.6-16,0.7-24.2c0.1-8.1,0.3-16.3,0.3-24.7s0-16.9-0.4-25.5c-0.1-1.6-0.1-3.1-0.4-4.7c-0.1-0.7-0.1-1.6-0.3-2.3
							c-0.1-0.4-0.1-0.7-0.3-1.1c-0.1-0.3-0.1-0.4-0.3-0.7c-0.1-0.3-0.4-0.6-0.9-0.6c-1.8-0.7-3.7-1.4-5.5-2.1l-0.7-0.3
							c-0.1,0-0.1-0.1-0.4-0.1l-0.4-0.1L147,8.2c-1-0.1-2-0.4-3-0.6c-3.8-0.6-7.7-1-11.3-1.4c-7.4-0.9-15.2-1.4-21.1-1.6
							c-9.4-0.3-17.6,0.1-25.2,1c8.6-0.9,15-1.1,24.7-1c3.3,0.1,2.1,0.1-0.4,0.1c-2.4,0-6.2,0-8.4,0.1c-1.8,0-4.7,0-6.5,0.1
							c-4,0.3-7.7,0.6-11.8,1c-1.8,0.3-1.6,0.1-2.6,0.1c-1.4,0.1-2.8,0.4-4.1,0.6c-1.4,0.3-2.4,0.7-3.5,1s-2.1,0.6-3.1,0.9
							c-1,0.3-2,0.6-2.8,1c-1.3,0.6-2.6,1.1-3.5,1.8h-0.1c-0.1,0,0,0-0.3,0c-0.4,0.1-0.4,0.3-0.6,0.4c-0.1,0.3-0.3,0.7-0.4,1
							c-0.1,0.6-0.3,1.3-0.4,1.8c-0.3,1.6-0.4,3.1-0.6,4.8c0,1-0.1,2.1-0.1,3.1c0.1-0.9,0.1-1.1,0.3-1.4c-0.1,1.6-0.3,3.7-0.3,5.2
							c0.1-1.6,0.1-3.7,0.3-5.2c0,0.3-0.1,0.6-0.3,1.4c-0.3,7.7-0.4,16.4-0.4,24.7v-0.1c0-4.8,0.1-9.5,0.3-14.5
							c-0.1,2.1-0.1,1.8,0-0.6c0-0.6,0.1-1.3,0.1-1.8c-0.1,4.3-0.1,8.5-0.3,12.6c0,0,0,1.8,0,2.7c0,1.4-0.1,1.3-0.1,1.6
							c0,1,0,1.8,0,2.8C61.1,48.4,61.2,42.2,61.2,42.2z"/>
						<path class="st1" d="M81.6,7.2c-0.7,0.1-1.4,0.1-2.3,0.3c3.1-0.4,6.1-0.7,9.2-1C86.9,6.6,84.2,6.9,81.6,7.2z"/>
					</g>
				</g>
			</g>
		</g>
	</g>
</g>
<g>
	<g>
		<g>
			<g>
				<g class="st2">
					<path class="st1" d="M95,72.3c0.1-0.1,0.1-0.6,0-0.9c-0.1-0.4-0.4-0.7-0.6-0.9s-0.3-0.1-0.4-0.3c-0.1,0,0.1,0,0.4,0.3
						c0.1,0.1,0.3,0.1,0.4,0.4c-0.1-0.3-0.3-0.6-0.4-0.7c-0.1-0.1-0.3-0.1-0.4-0.1c-0.7-0.1-1.4,0-2,0.3c-0.3,0.1-0.6,0.6-0.7,0.9
						c0.4-1,1.7-1.6,2.7-1.3c0,0,0,0-0.1,0c-0.6-0.1-1.1-0.1-1.7,0.1c0,0-0.1,0.1-0.3,0.1c0.1,0,0.1-0.1,0.3-0.1
						c0.3-0.1,0.4-0.3,0.7-0.3c0.1,0,0.4,0,0.6,0c0.1,0,0.3,0.1,0.4,0.1c0.1,0,0.1,0,0.3,0.1c0,0,0,0,0.1,0l0,0
						c0-0.1-0.6-0.4-1.3-0.4s-1.3,0.4-1.4,0.7c-0.3,0.3-0.3,0.6-0.4,0.9c0,0.1-0.1,0.1-0.1,0.3c0,0,0,0,0,0.1c0,0.1-0.1,0.4-0.1,0.6
						s-0.4,0.4-0.3,0.6c0.3,0,0.1,0,0.1,0.3l0.1,0.1c0,0.3,0.1,0.3,0.3,0.6c0.3,0.3,0.3,0.4,0.6,0.6l0.6,0.1c0.4,0.1,0.6,0.1,1,0.3
						c0.4-0.1,0.9,0,1.3-0.3c0.3-0.3,0.6-0.1,0.9-0.4c0.1,0,0.1-0.1,0.1-0.1c0.1,0,0-0.3,0.1-0.3l0,0l0.1-0.1l0,0c0,0,0.1,0.1,0.1,0
						c0.1-0.1,0.3-0.3,0.3-0.4c0-0.1,0-0.4,0-0.6h-0.1v-0.1c-0.1,0-0.1,0-0.3,0c-0.3,0-0.4-0.1-0.7-0.1c0,0-0.1,0.1-0.3,0.3h-0.1
						c0,0.1-0.1,0.1-0.1,0l0,0h-0.1C94.3,72.7,94,72.8,94,73v0.1c0,0,0,0-0.1,0c0,0.1,0.1,0.1,0.1,0.1c-0.1,0-0.4,0-0.3,0.3
						c-0.1,0-0.1,0.1-0.3,0.3c-0.1,0-0.4,0.1-0.7,0.1c-0.1,0-0.3,0-0.4-0.1h-0.1c-0.4-0.3-0.7-0.6-0.9-1c-0.1-0.4-0.1-0.9,0-1.3
						c0.1-0.4,0.6-1,1-1.1c0.6-0.1,1,0,1.4,0.3C95,71.3,94.8,72,95,72.3L95,72.3z"/>
				</g>
			</g>
		</g>
	</g>
</g>
<g>
	<g>
		<g>
			<g>
				<g class="st2">
					<path class="st1" d="M111.8,105.2c0.1-0.1,0.1-0.6,0-0.9c-0.1-0.4-0.4-0.7-0.6-0.9c-0.1-0.1-0.3-0.1-0.4-0.3
						c-0.1,0,0.1,0,0.4,0.3c0.1,0.1,0.3,0.1,0.4,0.4c-0.1-0.3-0.3-0.6-0.4-0.7c-0.1-0.1-0.3-0.1-0.4-0.1c-0.7-0.1-1.4,0-2,0.3
						c-0.3,0.1-0.6,0.6-0.7,0.9c0.4-1,1.7-1.6,2.7-1.3c0,0,0,0-0.1,0c-0.6-0.1-1.1-0.1-1.7,0.1c0,0-0.1,0.1-0.3,0.1
						c0.1,0,0.1-0.1,0.3-0.1c0.3-0.1,0.4-0.3,0.7-0.3c0.1,0,0.4,0,0.6,0c0.1,0,0.3,0.1,0.4,0.1c0.1,0,0.1,0,0.3,0.1c0,0,0,0,0.1,0
						l0,0c0-0.1-0.6-0.4-1.3-0.4s-1.3,0.4-1.4,0.7c-0.3,0.3-0.3,0.6-0.4,0.9c0,0.1-0.1,0.1-0.1,0.3c0,0,0,0,0,0.1s-0.1,0.4-0.1,0.6
						c0,0.1-0.4,0.4-0.3,0.6c0.3,0,0.1,0,0.1,0.3l0.1,0.1c0,0.3,0.1,0.3,0.3,0.6c0.3,0.3,0.3,0.4,0.6,0.6l0.6,0.1
						c0.4,0.1,0.6,0.1,1,0.3c0.4-0.1,0.9,0,1.3-0.3c0.3-0.3,0.6-0.1,0.9-0.4c0.1,0,0.1-0.1,0.1-0.1c0.1,0,0-0.3,0.1-0.3l0,0l0.1-0.1
						l0,0c0,0,0.1,0.1,0.1,0c0.1-0.1,0.3-0.3,0.3-0.4s0-0.4,0-0.6H113v-0.1c-0.1,0-0.1,0-0.3,0c-0.3,0-0.4-0.1-0.7-0.1
						c0,0-0.1,0.1-0.3,0.3h-0.1c0,0.1-0.1,0.1-0.1,0l0,0h-0.1c-0.1,0.1-0.4,0.3-0.4,0.4v0.1c0,0,0,0-0.1,0c0,0.1,0.1,0.1,0.1,0.1
						c-0.1,0-0.4,0-0.3,0.3c-0.1,0-0.1,0.1-0.3,0.3c-0.1,0-0.4,0.1-0.7,0.1c-0.1,0-0.3,0-0.4-0.1H109c-0.4-0.3-0.7-0.6-0.9-1
						c-0.1-0.4-0.1-0.9,0-1.3c0.1-0.4,0.6-1,1-1.1c0.6-0.1,1,0,1.4,0.3C112,104.2,111.8,104.9,111.8,105.2L111.8,105.2z"/>
				</g>
			</g>
		</g>
	</g>
</g>
<g>
	<g>
		<g>
			<g>
				<g class="st2">
					<path class="st1" d="M134.4,112c0.1-0.1,0.1-0.6,0-0.9c-0.1-0.4-0.4-0.7-0.6-0.9s-0.3-0.1-0.4-0.3c-0.1,0,0.1,0,0.4,0.3
						c0.1,0.1,0.3,0.1,0.4,0.4c-0.1-0.3-0.3-0.6-0.4-0.7c-0.1-0.1-0.3-0.1-0.4-0.1c-0.7-0.1-1.4,0-2,0.3c-0.3,0.1-0.6,0.6-0.7,0.9
						c0.4-1,1.7-1.6,2.7-1.3c0,0,0,0-0.1,0c-0.6-0.1-1.1-0.1-1.7,0.1c0,0-0.1,0.1-0.3,0.1c0.1,0,0.1-0.1,0.3-0.1
						c0.3-0.1,0.4-0.3,0.7-0.3c0.1,0,0.4,0,0.6,0c0.1,0,0.3,0.1,0.4,0.1c0.1,0,0.1,0,0.3,0.1c0,0,0,0,0.1,0l0,0
						c0-0.1-0.6-0.4-1.3-0.4c-0.7,0-1.3,0.4-1.4,0.7c-0.3,0.3-0.3,0.6-0.4,0.9c0,0.1-0.1,0.1-0.1,0.3c0,0,0,0,0,0.1
						c0,0.1-0.1,0.4-0.1,0.6s-0.4,0.4-0.3,0.6c0.3,0,0.1,0,0.1,0.3l0.1,0.1c0,0.3,0.1,0.3,0.3,0.6c0.3,0.3,0.3,0.4,0.6,0.6l0.6,0.1
						c0.4,0.1,0.6,0.1,1,0.3c0.4-0.1,0.9,0,1.3-0.3c0.3-0.3,0.6-0.1,0.9-0.4c0.1,0,0.1-0.1,0.1-0.1c0.1,0,0-0.3,0.1-0.3l0,0l0.1-0.1
						l0,0c0,0,0.1,0.1,0.1,0c0.1-0.1,0.3-0.3,0.3-0.4c0-0.1,0-0.4,0-0.6h-0.1v-0.1c-0.1,0-0.1,0-0.3,0c-0.3,0-0.4-0.1-0.7-0.1
						c0,0-0.1,0.1-0.3,0.3h-0.1c0,0.1-0.1,0.1-0.1,0l0,0h-0.1c-0.1,0.1-0.4,0.3-0.4,0.4v0.1c0,0,0,0-0.1,0c0,0.1,0.1,0.1,0.1,0.1
						c-0.1,0-0.4,0-0.3,0.3c-0.1,0-0.1,0.1-0.3,0.3c-0.1,0-0.4,0.1-0.7,0.1c-0.1,0-0.3,0-0.4-0.1h-0.1c-0.4-0.3-0.7-0.6-0.9-1
						c-0.1-0.4-0.1-0.9,0-1.3c0.1-0.4,0.6-1,1-1.1c0.6-0.1,1,0,1.4,0.3C134.5,111,134.4,111.7,134.4,112L134.4,112z"/>
				</g>
			</g>
		</g>
	</g>
</g>
<g>
	<g>
		<g>
			<g>
				<g class="st2">
					<path class="st1" d="M112.8,135.5c0.1-0.1,0.1-0.6,0-0.9c-0.1-0.4-0.4-0.7-0.6-0.9c-0.1-0.1-0.3-0.1-0.4-0.3
						c-0.1,0,0.1,0,0.4,0.3c0.1,0.1,0.3,0.1,0.4,0.4c-0.1-0.3-0.3-0.6-0.4-0.7c-0.1-0.1-0.3-0.1-0.4-0.1c-0.7-0.1-1.4,0-2,0.3
						c-0.3,0.1-0.6,0.6-0.7,0.9c0.4-1,1.7-1.6,2.7-1.3c0,0,0,0-0.1,0c-0.6-0.1-1.1-0.1-1.7,0.1c0,0-0.1,0.1-0.3,0.1
						c0.1,0,0.1-0.1,0.3-0.1c0.3-0.1,0.4-0.3,0.7-0.3c0.1,0,0.4,0,0.6,0s0.3,0.1,0.4,0.1s0.1,0,0.3,0.1c0,0,0,0,0.1,0l0,0
						c0-0.1-0.6-0.4-1.3-0.4s-1.3,0.4-1.4,0.7c-0.3,0.3-0.3,0.6-0.4,0.9c0,0.1-0.1,0.1-0.1,0.3c0,0,0,0,0,0.1s-0.1,0.4-0.1,0.6
						s-0.4,0.4-0.3,0.6c0.3,0,0.1,0,0.1,0.3l0.1,0.1c0,0.3,0.1,0.3,0.3,0.6c0.3,0.3,0.3,0.4,0.6,0.6l0.6,0.1c0.4,0.1,0.6,0.1,1,0.3
						c0.4-0.1,0.9,0,1.3-0.3c0.3-0.3,0.6-0.1,0.9-0.4c0.1,0,0.1-0.1,0.1-0.1c0.1,0,0-0.3,0.1-0.3l0,0l0.1-0.1l0,0c0,0,0.1,0.1,0.1,0
						c0.1-0.1,0.3-0.3,0.3-0.4c0-0.1,0-0.4,0-0.6H114v-0.1c-0.1,0-0.1,0-0.3,0c-0.3,0-0.4-0.1-0.7-0.1c0,0-0.1,0.1-0.3,0.3h-0.1
						c0,0.1-0.1,0.1-0.1,0l0,0h-0.1c-0.1,0.1-0.4,0.3-0.4,0.4v0.1c0,0,0,0-0.1,0c0,0.1,0.1,0.1,0.1,0.1c-0.1,0-0.4,0-0.3,0.3
						c-0.1,0-0.1,0.1-0.3,0.3c-0.1,0-0.4,0.1-0.7,0.1c-0.1,0-0.3,0-0.4-0.1H110c-0.4-0.3-0.7-0.6-0.9-1c-0.1-0.4-0.1-0.9,0-1.3
						c0.1-0.4,0.6-1,1-1.1c0.6-0.1,1,0,1.4,0.3C112.8,134.4,112.8,135.2,112.8,135.5L112.8,135.5z"/>
				</g>
			</g>
		</g>
	</g>
</g>
<g>
	<g>
		<g>
			<g>
				<g class="st2">
					<path class="st1" d="M98.7,123.9c0.1-0.1,0.1-0.6,0-0.9c-0.1-0.4-0.4-0.7-0.6-0.9c-0.1-0.1-0.3-0.1-0.4-0.3
						c-0.1,0,0.1,0,0.4,0.3c0.1,0.1,0.3,0.1,0.4,0.4c-0.1-0.3-0.3-0.6-0.4-0.7s-0.3-0.1-0.4-0.1c-0.7-0.1-1.4,0-2,0.3
						c-0.3,0.1-0.6,0.6-0.7,0.9c0.4-1,1.7-1.6,2.7-1.3c0,0,0,0-0.1,0c-0.6-0.1-1.1-0.1-1.7,0.1c0,0-0.1,0.1-0.3,0.1
						c0.1,0,0.1-0.1,0.3-0.1c0.3-0.1,0.4-0.3,0.7-0.3c0.1,0,0.4,0,0.6,0s0.3,0.1,0.4,0.1s0.1,0,0.3,0.1c0,0,0,0,0.1,0l0,0
						c0-0.1-0.6-0.4-1.3-0.4s-1.3,0.4-1.4,0.7c-0.3,0.3-0.3,0.6-0.4,0.9c0,0.1-0.1,0.1-0.1,0.3c0,0,0,0,0,0.1c0,0.1-0.1,0.4-0.1,0.6
						c0,0.1-0.4,0.4-0.3,0.6c0.3,0,0.1,0,0.1,0.3l0.1,0.1c0,0.3,0.1,0.3,0.3,0.6c0.3,0.3,0.3,0.4,0.6,0.6l0.6,0.1
						c0.4,0.1,0.6,0.1,1,0.3c0.4-0.1,0.9,0,1.3-0.3c0.3-0.3,0.6-0.1,0.9-0.4c0.1,0,0.1-0.1,0.1-0.1c0.1,0,0-0.3,0.1-0.3l0,0l0.1-0.1
						l0,0c0,0,0.1,0.1,0.1,0c0.1-0.1,0.3-0.3,0.3-0.4s0-0.4,0-0.6h-0.1V124c-0.1,0-0.1,0-0.3,0c-0.3,0-0.4-0.1-0.7-0.1
						c0,0-0.1,0.1-0.3,0.3h-0.1c0,0.1-0.1,0.1-0.1,0l0,0h-0.1c-0.1,0.1-0.4,0.3-0.4,0.4v0.1c0,0,0,0-0.1,0c0,0.1,0.1,0.1,0.1,0.1
						c-0.1,0-0.4,0-0.3,0.3c-0.1,0-0.1,0.1-0.3,0.3c-0.1,0-0.4,0.1-0.7,0.1c-0.1,0-0.3,0-0.4-0.1h-0.1c-0.4-0.3-0.7-0.6-0.9-1
						c-0.1-0.4-0.1-0.9,0-1.3c0.1-0.4,0.6-1,1-1.1c0.6-0.1,1,0,1.4,0.3C98.7,122.9,98.7,123.6,98.7,123.9L98.7,123.9z"/>
				</g>
			</g>
		</g>
	</g>
</g>
<g>
	<g>
		<g>
			<g>
				<g class="st2">
					<path class="st1" d="M74.5,104.4c0.1-0.1,0.1-0.6,0-0.9c-0.1-0.4-0.4-0.7-0.6-0.9c-0.1-0.1-0.3-0.1-0.4-0.3
						c-0.1,0,0.1,0,0.4,0.3c0.1,0.1,0.3,0.1,0.4,0.4c-0.1-0.3-0.3-0.6-0.4-0.7c-0.1-0.1-0.3-0.1-0.4-0.1c-0.7-0.1-1.4,0-2,0.3
						c-0.3,0.1-0.6,0.6-0.7,0.9c0.4-1,1.7-1.6,2.7-1.3c0,0,0,0-0.1,0c-0.6-0.1-1.1-0.1-1.7,0.1c0,0-0.1,0.1-0.3,0.1
						c0.1,0,0.1-0.1,0.3-0.1c0.3-0.1,0.4-0.3,0.7-0.3c0.1,0,0.4,0,0.6,0c0.1,0,0.3,0.1,0.4,0.1c0.1,0,0.1,0,0.3,0.1c0,0,0,0,0.1,0
						l0,0c0-0.1-0.6-0.4-1.3-0.4c-0.7,0-1.3,0.4-1.4,0.7c-0.3,0.3-0.3,0.6-0.4,0.9c0,0.1-0.1,0.1-0.1,0.3c0,0,0,0,0,0.1
						s-0.1,0.4-0.1,0.6c0,0.1-0.4,0.4-0.3,0.6c0.3,0,0.1,0,0.1,0.3l0.1,0.1c0,0.3,0.1,0.3,0.3,0.6c0.3,0.3,0.3,0.4,0.6,0.6l0.6,0.1
						c0.4,0.1,0.6,0.1,1,0.3c0.4-0.1,0.9,0,1.3-0.3c0.3-0.3,0.6-0.1,0.9-0.4c0.1,0,0.1-0.1,0.1-0.1c0.1,0,0-0.3,0.1-0.3l0,0l0.1-0.1
						l0,0c0,0,0.1,0.1,0.1,0c0.1-0.1,0.3-0.3,0.3-0.4c0-0.1,0-0.4,0-0.6h-0.1v-0.1c-0.1,0-0.1,0-0.3,0c-0.3,0-0.4-0.1-0.7-0.1
						c0,0-0.1,0.1-0.3,0.3h-0.1c0,0.1-0.1,0.1-0.1,0l0,0H74c-0.1,0.1-0.4,0.3-0.4,0.4v0.1c0,0,0,0-0.1,0c0,0.1,0.1,0.1,0.1,0.1
						c-0.1,0-0.4,0-0.3,0.3c-0.1,0-0.1,0.1-0.3,0.3c-0.1,0-0.4,0.1-0.7,0.1c-0.1,0-0.3,0-0.4-0.1h-0.1c-0.4-0.3-0.7-0.6-0.9-1
						c-0.1-0.4-0.1-0.9,0-1.3c0.1-0.4,0.6-1,1-1.1c0.6-0.1,1,0,1.4,0.3C74.5,103.5,74.4,104.2,74.5,104.4L74.5,104.4z"/>
				</g>
			</g>
		</g>
	</g>
</g>
<g>
	<g>
		<g>
			<g>
				<g class="st2">
					<path class="st1" d="M135.8,81.3c0.1-0.1,0.1-0.6,0-0.9c-0.1-0.4-0.4-0.7-0.6-0.9c-0.1-0.1-0.3-0.1-0.4-0.3
						c-0.1,0,0.1,0,0.4,0.3c0.1,0.1,0.3,0.1,0.4,0.4c-0.1-0.3-0.3-0.6-0.4-0.7c-0.1-0.1-0.3-0.1-0.4-0.1c-0.7-0.1-1.4,0-2,0.3
						c-0.3,0.1-0.6,0.6-0.7,0.9c0.4-1,1.7-1.6,2.7-1.3c0,0,0,0-0.1,0c-0.6-0.1-1.1-0.1-1.7,0.1c0,0-0.1,0.1-0.3,0.1
						c0.1,0,0.1-0.1,0.3-0.1c0.3-0.1,0.4-0.3,0.7-0.3c0.1,0,0.4,0,0.6,0s0.3,0.1,0.4,0.1c0.1,0,0.1,0,0.3,0.1c0,0,0,0,0.1,0l0,0
						c0-0.1-0.6-0.4-1.3-0.4c-0.7,0-1.3,0.4-1.4,0.7c-0.3,0.3-0.3,0.6-0.4,0.9c0,0.1-0.1,0.1-0.1,0.3c0,0,0,0,0,0.1
						s-0.1,0.4-0.1,0.6c0,0.1-0.4,0.4-0.3,0.6c0.3,0,0.1,0,0.1,0.3l0.1,0.1c0,0.3,0.1,0.3,0.3,0.6c0.3,0.3,0.3,0.4,0.6,0.6l0.6,0.1
						c0.4,0.1,0.6,0.1,1,0.3c0.4-0.1,0.9,0,1.3-0.3c0.3-0.3,0.6-0.1,0.9-0.4c0.1,0,0.1-0.1,0.1-0.1c0.1,0,0-0.3,0.1-0.3l0,0l0.1-0.1
						l0,0c0,0,0.1,0.1,0.1,0c0.1-0.1,0.3-0.3,0.3-0.4c0-0.1,0-0.4,0-0.6h-0.1v-0.1c-0.1,0-0.1,0-0.3,0c-0.3,0-0.4-0.1-0.7-0.1
						c0,0-0.1,0.1-0.3,0.3h-0.1c0,0.1-0.1,0.1-0.1,0l0,0h-0.1c-0.1,0.1-0.4,0.3-0.4,0.4v0.1c0,0,0,0-0.1,0c0,0.1,0.1,0.1,0.1,0.1
						c-0.1,0-0.4,0-0.3,0.3c-0.1,0-0.1,0.1-0.3,0.3c-0.1,0-0.4,0.1-0.7,0.1c-0.1,0-0.3,0-0.4-0.1H133c-0.4-0.3-0.7-0.6-0.9-1
						c-0.1-0.4-0.1-0.9,0-1.3c0.1-0.4,0.6-1,1-1.1c0.6-0.1,1,0,1.4,0.3C135.8,80.3,135.7,81.1,135.8,81.3L135.8,81.3z"/>
				</g>
			</g>
		</g>
	</g>
</g>
<g>
	<g>
		<g>
			<g>
				<g class="st2">
					<path class="st1" d="M97.4,98.1c0.1-0.1,0.1-0.6,0-0.9c-0.1-0.4-0.4-0.7-0.6-0.9c-0.1-0.1-0.3-0.1-0.4-0.3
						c-0.1,0,0.1,0,0.4,0.3c0.1,0.1,0.3,0.1,0.4,0.4c-0.1-0.3-0.3-0.6-0.4-0.7c-0.1-0.1-0.3-0.1-0.4-0.1c-0.7-0.1-1.4,0-2,0.3
						c-0.3,0.1-0.6,0.6-0.7,0.9c0.4-1,1.7-1.6,2.7-1.3c0,0,0,0-0.1,0c-0.6-0.1-1.1-0.1-1.7,0.1c0,0-0.1,0.1-0.3,0.1
						c0.1,0,0.1-0.1,0.3-0.1c0.3-0.1,0.4-0.3,0.7-0.3c0.1,0,0.4,0,0.6,0s0.3,0.1,0.4,0.1s0.1,0,0.3,0.1c0,0,0,0,0.1,0l0,0
						c0-0.1-0.6-0.4-1.3-0.4s-1.3,0.4-1.4,0.7c-0.3,0.3-0.3,0.6-0.4,0.9c0,0.1-0.1,0.1-0.1,0.3c0,0,0,0,0,0.1c0,0.1-0.1,0.4-0.1,0.6
						s-0.4,0.4-0.3,0.6c0.3,0,0.1,0,0.1,0.3l0.1,0.1c0,0.3,0.1,0.3,0.3,0.6c0.3,0.3,0.3,0.4,0.6,0.6l0.6,0.1c0.4,0.1,0.6,0.1,1,0.3
						c0.4-0.1,0.9,0,1.3-0.3c0.3-0.3,0.6-0.1,0.9-0.4c0.1,0,0.1-0.1,0.1-0.1c0.1,0,0-0.3,0.1-0.3l0,0l0.1-0.1l0,0c0,0,0.1,0.1,0.1,0
						c0.1-0.1,0.3-0.3,0.3-0.4c0-0.1,0-0.4,0-0.6h-0.1v-0.1c-0.1,0-0.1,0-0.3,0c-0.3,0-0.4-0.1-0.7-0.1c0,0-0.1,0.1-0.3,0.3h-0.1
						c0,0.1-0.1,0.1-0.1,0l0,0h-0.1c-0.1,0.1-0.4,0.3-0.4,0.4v0.1c0,0,0,0-0.1,0c0,0.1,0.1,0.1,0.1,0.1c-0.1,0-0.4,0-0.3,0.3
						c-0.1,0-0.1,0.1-0.3,0.3c-0.1,0-0.4,0.1-0.7,0.1c-0.1,0-0.3,0-0.4-0.1h-0.1c-0.4-0.3-0.7-0.6-0.9-1c-0.1-0.4-0.1-0.9,0-1.3
						c0.1-0.4,0.6-1,1-1.1c0.6-0.1,1,0,1.4,0.3C97.4,97.1,97.4,97.8,97.4,98.1L97.4,98.1z"/>
				</g>
			</g>
		</g>
	</g>
</g>
<g>
	<g>
		<g>
			<g>
				<g class="st2">
					<path class="st1" d="M123.5,89c0.1-0.1,0.1-0.6,0-0.9c-0.1-0.4-0.4-0.7-0.6-0.9c-0.1-0.1-0.3-0.1-0.4-0.3c-0.1,0,0.1,0,0.4,0.3
						c0.1,0.1,0.3,0.1,0.4,0.4c-0.1-0.3-0.3-0.6-0.4-0.7c-0.1-0.1-0.3-0.1-0.4-0.1c-0.7-0.1-1.4,0-2,0.3c-0.3,0.1-0.6,0.6-0.7,0.9
						c0.4-1,1.7-1.6,2.7-1.3c0,0,0,0-0.1,0c-0.6-0.1-1.1-0.1-1.7,0.1c0,0-0.1,0.1-0.3,0.1c0.1,0,0.1-0.1,0.3-0.1
						c0.3-0.1,0.4-0.3,0.7-0.3c0.1,0,0.4,0,0.6,0c0.1,0,0.3,0.1,0.4,0.1c0.1,0,0.1,0,0.3,0.1c0,0,0,0,0.1,0l0,0
						c0-0.1-0.6-0.4-1.3-0.4s-1.3,0.4-1.4,0.7c-0.3,0.3-0.3,0.6-0.4,0.9c0,0.1-0.1,0.1-0.1,0.3c0,0,0,0,0,0.1c0,0.1-0.1,0.4-0.1,0.6
						c0,0.1-0.4,0.4-0.3,0.6c0.3,0,0.1,0,0.1,0.3l0.1,0.1c0,0.3,0.1,0.3,0.3,0.6c0.3,0.3,0.3,0.4,0.6,0.6l0.6,0.1
						c0.4,0.1,0.6,0.1,1,0.3c0.4-0.1,0.9,0,1.3-0.3c0.3-0.3,0.6-0.1,0.9-0.4c0.1,0,0.1-0.1,0.1-0.1c0.1,0,0-0.3,0.1-0.3l0,0l0.1-0.1
						l0,0c0,0,0.1,0.1,0.1,0c0.1-0.1,0.3-0.3,0.3-0.4c0-0.1,0-0.4,0-0.6h-0.1v-0.1c-0.1,0-0.1,0-0.3,0c-0.3,0-0.4-0.1-0.7-0.1
						c0,0-0.1,0.1-0.3,0.3h-0.1c0,0.1-0.1,0.1-0.1,0l0,0h-0.1c-0.1,0.1-0.4,0.3-0.4,0.4v0.1c0,0,0,0-0.1,0c0,0.1,0.1,0.1,0.1,0.1
						c-0.1,0-0.4,0-0.3,0.3c-0.1,0-0.1,0.1-0.3,0.3c-0.1,0-0.4,0.1-0.7,0.1c-0.1,0-0.3,0-0.4-0.1h-0.1c-0.4-0.3-0.7-0.6-0.9-1
						c-0.1-0.4-0.1-0.9,0-1.3c0.1-0.4,0.6-1,1-1.1c0.6-0.1,1,0,1.4,0.3C123.5,88,123.5,88.7,123.5,89L123.5,89z"/>
				</g>
			</g>
		</g>
	</g>
</g>
<g>
	<g>
		<g>
			<g>
				<g class="st2">
					<path class="st1" d="M111,84.2c0.1-0.1,0.1-0.6,0-0.9c-0.1-0.4-0.4-0.7-0.6-0.9c-0.1-0.1-0.3-0.1-0.4-0.3c-0.1,0,0.1,0,0.4,0.3
						c0.1,0.1,0.3,0.1,0.4,0.4c-0.1-0.3-0.3-0.6-0.4-0.7c-0.1-0.1-0.3-0.1-0.4-0.1c-0.7-0.1-1.4,0-2,0.3c-0.3,0.1-0.6,0.6-0.7,0.9
						c0.4-1,1.7-1.6,2.7-1.3c0,0,0,0-0.1,0c-0.6-0.1-1.1-0.1-1.7,0.1c0,0-0.1,0.1-0.3,0.1c0.1,0,0.1-0.1,0.3-0.1
						c0.3-0.1,0.4-0.3,0.7-0.3c0.1,0,0.4,0,0.6,0c0.1,0,0.3,0.1,0.4,0.1c0.1,0,0.1,0,0.3,0.1c0,0,0,0,0.1,0l0,0
						c0-0.1-0.6-0.4-1.3-0.4s-1.3,0.4-1.4,0.7c-0.3,0.3-0.3,0.6-0.4,0.9c0,0.1-0.1,0.1-0.1,0.3c0,0,0,0,0,0.1c0,0.1-0.1,0.4-0.1,0.6
						c0,0.1-0.4,0.4-0.3,0.6c0.3,0,0.1,0,0.1,0.3l0.1,0.1c0,0.3,0.1,0.3,0.3,0.6c0.3,0.3,0.3,0.4,0.6,0.6l0.6,0.1
						c0.4,0.1,0.6,0.1,1,0.3c0.4-0.1,0.9,0,1.3-0.3c0.3-0.3,0.6-0.1,0.9-0.4c0.1,0,0.1-0.1,0.1-0.1c0.1,0,0-0.3,0.1-0.3l0,0l0.1-0.1
						l0,0c0,0,0.1,0.1,0.1,0c0.1-0.1,0.3-0.3,0.3-0.4c0-0.1,0-0.4,0-0.6h-0.1v-0.1c-0.1,0-0.1,0-0.3,0c-0.3,0-0.4-0.1-0.7-0.1
						c0,0-0.1,0.1-0.3,0.3h-0.1c0,0.1-0.1,0.1-0.1,0l0,0h-0.1c-0.1,0.1-0.4,0.3-0.4,0.4V85c0,0,0,0-0.1,0c0,0.1,0.1,0.1,0.1,0.1
						c-0.1,0-0.4,0-0.3,0.3c-0.1,0-0.1,0.1-0.3,0.3c-0.1,0-0.4,0.1-0.7,0.1c-0.1,0-0.3,0-0.4-0.1h-0.1c-0.4-0.3-0.7-0.6-0.9-1
						c-0.1-0.4-0.1-0.9,0-1.3c0.1-0.4,0.6-1,1-1.1c0.6-0.1,1,0,1.4,0.3C111,83.2,110.8,83.9,111,84.2L111,84.2z"/>
				</g>
			</g>
		</g>
	</g>
</g>
<g>
	<g>
		<g>
			<g>
				<g class="st2">
					<path class="st1" d="M76.8,74.8c0.1-0.1,0.1-0.6,0-0.9c-0.1-0.4-0.4-0.7-0.6-0.9C76.1,73,76,73,75.8,72.8c-0.1,0,0.1,0,0.4,0.3
						c0.1,0.1,0.3,0.1,0.4,0.4c-0.1-0.3-0.3-0.6-0.4-0.7c-0.1-0.1-0.3-0.1-0.4-0.1c-0.7-0.1-1.4,0-2,0.3c-0.3,0.1-0.6,0.6-0.7,0.9
						c0.4-1,1.7-1.6,2.7-1.3c0,0,0,0-0.1,0c-0.6-0.1-1.1-0.1-1.7,0.1c0,0-0.1,0.1-0.3,0.1c0.1,0,0.1-0.1,0.3-0.1
						c0.3-0.1,0.4-0.3,0.7-0.3c0.1,0,0.4,0,0.6,0c0.1,0,0.3,0.1,0.4,0.1c0.1,0,0.1,0,0.3,0.1c0,0,0,0,0.1,0l0,0
						c0-0.1-0.6-0.4-1.3-0.4c-0.7,0-1.3,0.4-1.4,0.7c-0.3,0.3-0.3,0.6-0.4,0.9c0,0.1-0.1,0.1-0.1,0.3c0,0,0,0,0,0.1
						c0,0.1-0.1,0.4-0.1,0.6c0,0.1-0.4,0.4-0.3,0.6c0.3,0,0.1,0,0.1,0.3l0.1,0.1c0,0.3,0.1,0.3,0.3,0.6c0.3,0.3,0.3,0.4,0.6,0.6
						l0.6,0.1c0.4,0.1,0.6,0.1,1,0.3c0.4-0.1,0.9,0,1.3-0.3c0.3-0.3,0.6-0.1,0.9-0.4c0.1,0,0.1-0.1,0.1-0.1c0.1,0,0-0.3,0.1-0.3l0,0
						l0.1-0.1l0,0c0,0,0.1,0.1,0.1,0c0.1-0.1,0.3-0.3,0.3-0.4s0-0.4,0-0.6h-0.1V75c-0.1,0-0.1,0-0.3,0c-0.3,0-0.4-0.1-0.7-0.1
						c0,0-0.1,0.1-0.3,0.3h-0.1c0,0.1-0.1,0.1-0.1,0l0,0h-0.1c-0.1,0.1-0.4,0.3-0.4,0.4v0.1c0,0,0,0-0.1,0c0,0.1,0.1,0.1,0.1,0.1
						c-0.1,0-0.4,0-0.3,0.3c-0.1,0-0.1,0.1-0.3,0.3c-0.1,0-0.4,0.1-0.7,0.1c-0.1,0-0.3,0-0.4-0.1H74c-0.4-0.3-0.7-0.6-0.9-1
						c-0.1-0.4-0.1-0.9,0-1.3s0.6-1,1-1.1c0.6-0.1,1,0,1.4,0.3C76.8,73.8,76.7,74.5,76.8,74.8L76.8,74.8z"/>
				</g>
			</g>
		</g>
	</g>
</g>
<g>
	<g>
		<g>
			<g>
				<g class="st2">
					<path class="st1" d="M114.1,149c0.1-0.1,0.1-0.6,0-0.9c-0.1-0.4-0.4-0.7-0.6-0.9s-0.3-0.1-0.4-0.3c-0.1,0,0.1,0,0.4,0.3
						c0.1,0.1,0.3,0.1,0.4,0.4c-0.1-0.3-0.3-0.6-0.4-0.7c-0.1-0.1-0.3-0.1-0.4-0.1c-0.7-0.1-1.4,0-2,0.3c-0.3,0.1-0.6,0.6-0.7,0.9
						c0.4-1,1.7-1.6,2.7-1.3c0,0,0,0-0.1,0c-0.6-0.1-1.1-0.1-1.7,0.1c0,0-0.1,0.1-0.3,0.1c0.1,0,0.1-0.1,0.3-0.1
						c0.3-0.1,0.4-0.3,0.7-0.3c0.1,0,0.4,0,0.6,0c0.1,0,0.3,0.1,0.4,0.1c0.1,0,0.1,0,0.3,0.1c0,0,0,0,0.1,0l0,0
						c0-0.1-0.6-0.4-1.3-0.4s-1.3,0.4-1.4,0.7c-0.3,0.3-0.3,0.6-0.4,0.9c0,0.1-0.1,0.1-0.1,0.3c0,0,0,0,0,0.1c0,0.1-0.1,0.4-0.1,0.6
						s-0.4,0.4-0.3,0.6c0.3,0,0.1,0,0.1,0.3l0.1,0.1c0,0.3,0.1,0.3,0.3,0.6c0.3,0.3,0.3,0.4,0.6,0.6l0.6,0.1c0.4,0.1,0.6,0.1,1,0.3
						c0.4-0.1,0.9,0,1.3-0.3c0.3-0.3,0.6-0.1,0.9-0.4c0.1,0,0.1-0.1,0.1-0.1c0.1,0,0-0.3,0.1-0.3l0,0l0.1-0.1l0,0c0,0,0.1,0.1,0.1,0
						c0.1-0.1,0.3-0.3,0.3-0.4c0-0.1,0-0.4,0-0.6h-0.1v-0.1c-0.1,0-0.1,0-0.3,0c-0.3,0-0.4-0.1-0.7-0.1c0,0-0.1,0.1-0.3,0.3h-0.1
						c0,0.1-0.1,0.1-0.1,0l0,0h-0.1c-0.1,0.1-0.4,0.3-0.4,0.4v0.1c0,0,0,0-0.1,0c0,0.1,0.1,0.1,0.1,0.1c-0.1,0-0.4,0-0.3,0.3
						c-0.1,0-0.1,0.1-0.3,0.3c-0.1,0-0.4,0.1-0.7,0.1c-0.1,0-0.3,0-0.4-0.1h-0.1c-0.4-0.3-0.7-0.6-0.9-1s-0.1-0.9,0-1.3s0.6-1,1-1.1
						c0.6-0.1,1,0,1.4,0.3C114.2,148,114.1,148.7,114.1,149L114.1,149z"/>
				</g>
			</g>
		</g>
	</g>
</g>
<g>
	<g>
		<g>
			<g>
				<g class="st2">
					<path class="st1" d="M114.5,162.2c0.1-0.1,0.1-0.6,0-0.9c-0.1-0.4-0.4-0.7-0.6-0.9c-0.1-0.1-0.3-0.1-0.4-0.3
						c-0.1,0,0.1,0,0.4,0.3c0.1,0.1,0.3,0.1,0.4,0.4c-0.1-0.3-0.3-0.6-0.4-0.7c-0.1-0.1-0.3-0.1-0.4-0.1c-0.7-0.1-1.4,0-2,0.3
						c-0.3,0.1-0.6,0.6-0.7,0.9c0.4-1,1.7-1.6,2.7-1.3c0,0,0,0-0.1,0c-0.6-0.1-1.1-0.1-1.7,0.1c0,0-0.1,0.1-0.3,0.1
						c0.1,0,0.1-0.1,0.3-0.1c0.3-0.1,0.4-0.3,0.7-0.3c0.1,0,0.4,0,0.6,0s0.3,0.1,0.4,0.1c0.1,0,0.1,0,0.3,0.1c0,0,0,0,0.1,0l0,0
						c0-0.1-0.6-0.4-1.3-0.4c-0.7,0-1.3,0.4-1.4,0.7c-0.3,0.3-0.3,0.6-0.4,0.9c0,0.1-0.1,0.1-0.1,0.3c0,0,0,0,0,0.1
						s-0.1,0.4-0.1,0.6s-0.4,0.4-0.3,0.6c0.3,0,0.1,0,0.1,0.3l0.1,0.1c0,0.3,0.1,0.3,0.3,0.6c0.3,0.3,0.3,0.4,0.6,0.6l0.6,0.1
						c0.4,0.1,0.6,0.1,1,0.3c0.4-0.1,0.9,0,1.3-0.3c0.3-0.3,0.6-0.1,0.9-0.4c0.1,0,0.1-0.1,0.1-0.1c0.1,0,0-0.3,0.1-0.3l0,0l0.1-0.1
						l0,0c0,0,0.1,0.1,0.1,0c0.1-0.1,0.3-0.3,0.3-0.4s0-0.4,0-0.6h-0.1v-0.1c-0.1,0-0.1,0-0.3,0c-0.3,0-0.4-0.1-0.7-0.1
						c0,0-0.1,0.1-0.3,0.3h-0.1c0,0.1-0.1,0.1-0.1,0l0,0H114c-0.1,0.1-0.4,0.3-0.4,0.4v0.1c0,0,0,0-0.1,0c0,0.1,0.1,0.1,0.1,0.1
						c-0.1,0-0.4,0-0.3,0.3c-0.1,0-0.1,0.1-0.3,0.3c-0.1,0-0.4,0.1-0.7,0.1c-0.1,0-0.3,0-0.4-0.1h-0.1c-0.4-0.3-0.7-0.6-0.9-1
						s-0.1-0.9,0-1.3c0.1-0.4,0.6-1,1-1.1c0.6-0.1,1,0,1.4,0.3C114.5,161.2,114.4,161.9,114.5,162.2L114.5,162.2z"/>
				</g>
			</g>
		</g>
	</g>
</g>
<g>
	<g>
		<g>
			<g>
				<g class="st2">
					<path class="st1" d="M116.8,121.6c0.1-0.1,0.1-0.6,0-0.9c-0.1-0.4-0.4-0.7-0.6-0.9c-0.1-0.1-0.3-0.1-0.4-0.3
						c-0.1,0,0.1,0,0.4,0.3c0.1,0.1,0.3,0.1,0.4,0.4c-0.1-0.3-0.3-0.6-0.4-0.7c-0.1-0.1-0.3-0.1-0.4-0.1c-0.7-0.1-1.4,0-2,0.3
						c-0.3,0.1-0.6,0.6-0.7,0.9c0.4-1,1.7-1.6,2.7-1.3c0,0,0,0-0.1,0c-0.6-0.1-1.1-0.1-1.7,0.1c0,0-0.1,0.1-0.3,0.1
						c0.1,0,0.1-0.1,0.3-0.1c0.3-0.1,0.4-0.3,0.7-0.3c0.1,0,0.4,0,0.6,0s0.3,0.1,0.4,0.1c0.1,0,0.1,0,0.3,0.1c0,0,0,0,0.1,0l0,0
						c0-0.1-0.6-0.4-1.3-0.4c-0.7,0-1.3,0.4-1.4,0.7c-0.3,0.3-0.3,0.6-0.4,0.9c0,0.1-0.1,0.1-0.1,0.3c0,0,0,0,0,0.1
						c0,0.1-0.1,0.4-0.1,0.6c0,0.1-0.4,0.4-0.3,0.6c0.3,0,0.1,0,0.1,0.3l0.1,0.1c0,0.3,0.1,0.3,0.3,0.6c0.3,0.3,0.3,0.4,0.6,0.6
						l0.6,0.1c0.4,0.1,0.6,0.1,1,0.3c0.4-0.1,0.9,0,1.3-0.3c0.3-0.3,0.6-0.1,0.9-0.4c0.1,0,0.1-0.1,0.1-0.1c0.1,0,0-0.3,0.1-0.3l0,0
						l0.1-0.1l0,0c0,0,0.1,0.1,0.1,0c0.1-0.1,0.3-0.3,0.3-0.4s0-0.4,0-0.6h-0.1v-0.1c-0.1,0-0.1,0-0.3,0c-0.3,0-0.4-0.1-0.7-0.1
						c0,0-0.1,0.1-0.3,0.3h-0.1c0,0.1-0.1,0.1-0.1,0l0,0h-0.1c-0.1,0.1-0.4,0.3-0.4,0.4v0.1c0,0,0,0-0.1,0c0,0.1,0.1,0.1,0.1,0.1
						c-0.1,0-0.4,0-0.3,0.3c-0.1,0-0.1,0.1-0.3,0.3c-0.1,0-0.4,0.1-0.7,0.1c-0.1,0-0.3,0-0.4-0.1H114c-0.4-0.3-0.7-0.6-0.9-1
						c-0.1-0.4-0.1-0.9,0-1.3s0.6-1,1-1.1c0.6-0.1,1,0,1.4,0.3C116.8,120.6,116.7,121.3,116.8,121.6L116.8,121.6z"/>
				</g>
			</g>
		</g>
	</g>
</g>
<g>
	<g>
		<g>
			<g>
				<g class="st2">
					<path class="st1" d="M140.2,54c0.1-0.1,0.1-0.6,0-0.9c-0.1-0.4-0.4-0.7-0.6-0.9c-0.1-0.1-0.3-0.1-0.4-0.3c-0.1,0,0.1,0,0.4,0.3
						c0.1,0.1,0.3,0.1,0.4,0.4c-0.1-0.3-0.3-0.6-0.4-0.7c-0.1-0.1-0.3-0.1-0.4-0.1c-0.7-0.1-1.4,0-2,0.3c-0.3,0.1-0.6,0.6-0.7,0.9
						c0.4-1,1.7-1.6,2.7-1.3c0,0,0,0-0.1,0c-0.6-0.1-1.1-0.1-1.7,0.1c0,0-0.1,0.1-0.3,0.1c0.1,0,0.1-0.1,0.3-0.1
						c0.3-0.1,0.4-0.3,0.7-0.3c0.1,0,0.4,0,0.6,0s0.3,0.1,0.4,0.1c0.1,0,0.1,0,0.3,0.1c0,0,0,0,0.1,0l0,0c0-0.1-0.6-0.4-1.3-0.4
						s-1.3,0.4-1.4,0.7c-0.3,0.3-0.3,0.6-0.4,0.9c0,0.1-0.1,0.1-0.1,0.3c0,0,0,0,0,0.1s-0.1,0.4-0.1,0.6c0,0.1-0.4,0.4-0.3,0.6
						c0.3,0,0.1,0,0.1,0.3l0.1,0.1c0,0.3,0.1,0.3,0.3,0.6c0.3,0.3,0.3,0.4,0.6,0.6l0.6,0.1c0.4,0.1,0.6,0.1,1,0.3
						c0.4-0.1,0.9,0,1.3-0.3c0.3-0.3,0.6-0.1,0.9-0.4c0.1,0,0.1-0.1,0.1-0.1c0.1,0,0-0.3,0.1-0.3l0,0l0.1-0.1l0,0c0,0,0.1,0.1,0.1,0
						c0.1-0.1,0.3-0.3,0.3-0.4c0-0.1,0-0.4,0-0.6h-0.1v-0.1c-0.1,0-0.1,0-0.3,0c-0.3,0-0.4-0.1-0.7-0.1c0,0-0.1,0.1-0.3,0.3h-0.1
						c0,0.1-0.1,0.1-0.1,0l0,0h-0.1c-0.1,0.1-0.4,0.3-0.4,0.4v0.1c0,0,0,0-0.1,0c0,0.1,0.1,0.1,0.1,0.1c-0.1,0-0.4,0-0.3,0.3
						c-0.1,0-0.1,0.1-0.3,0.3c-0.1,0-0.4,0.1-0.7,0.1c-0.1,0-0.3,0-0.4-0.1h-0.1c-0.4-0.3-0.7-0.6-0.9-1s-0.1-0.9,0-1.3
						c0.1-0.4,0.6-1,1-1.1c0.6-0.1,1,0,1.4,0.3C140.3,53,140.2,53.7,140.2,54L140.2,54z"/>
				</g>
			</g>
		</g>
	</g>
</g>
<g>
	<g>
		<g>
			<g>
				<g class="st2">
					<path class="st1" d="M137.6,68.1c0.1-0.1,0.1-0.6,0-0.9c-0.1-0.4-0.4-0.7-0.6-0.9c-0.1-0.1-0.3-0.1-0.4-0.3
						c-0.1,0,0.1,0,0.4,0.3c0.1,0.1,0.3,0.1,0.4,0.4c-0.1-0.3-0.3-0.6-0.4-0.7c-0.1-0.1-0.3-0.1-0.4-0.1c-0.7-0.1-1.4,0-2,0.3
						c-0.3,0.1-0.6,0.6-0.7,0.9c0.4-1,1.7-1.6,2.7-1.3c0,0,0,0-0.1,0c-0.6-0.1-1.1-0.1-1.7,0.1c0,0-0.1,0.1-0.3,0.1
						c0.1,0,0.1-0.1,0.3-0.1c0.3-0.1,0.4-0.3,0.7-0.3c0.1,0,0.4,0,0.6,0s0.3,0.1,0.4,0.1c0.1,0,0.1,0,0.3,0.1c0,0,0,0,0.1,0l0,0
						c0-0.1-0.6-0.4-1.3-0.4c-0.7,0-1.3,0.4-1.4,0.7c-0.3,0.3-0.3,0.6-0.4,0.9c0,0.1-0.1,0.1-0.1,0.3c0,0,0,0,0,0.1
						s-0.1,0.4-0.1,0.6s-0.4,0.4-0.3,0.6c0.3,0,0.1,0,0.1,0.3l0.1,0.1c0,0.3,0.1,0.3,0.3,0.6c0.3,0.3,0.3,0.4,0.6,0.6l0.6,0.1
						c0.4,0.1,0.6,0.1,1,0.3c0.4-0.1,0.9,0,1.3-0.3c0.3-0.3,0.6-0.1,0.9-0.4c0.1,0,0.1-0.1,0.1-0.1c0.1,0,0-0.3,0.1-0.3l0,0l0.1-0.1
						l0,0c0,0,0.1,0.1,0.1,0c0.1-0.1,0.3-0.3,0.3-0.4c0-0.1,0-0.4,0-0.6h-0.1v-0.1c-0.1,0-0.1,0-0.3,0c-0.3,0-0.4-0.1-0.7-0.1
						c0,0-0.1,0.1-0.3,0.3h-0.1c0,0.1-0.1,0.1-0.1,0l0,0h-0.1c-0.1,0.1-0.4,0.3-0.4,0.4V69c0,0,0,0-0.1,0c0,0.1,0.1,0.1,0.1,0.1
						c-0.1,0-0.4,0-0.3,0.3c-0.1,0-0.1,0.1-0.3,0.3c-0.1,0-0.4,0.1-0.7,0.1c-0.1,0-0.3,0-0.4-0.1h-0.1c-0.4-0.3-0.7-0.6-0.9-1
						s-0.1-0.9,0-1.3s0.6-1,1-1.1c0.6-0.1,1,0,1.4,0.3C137.6,67.2,137.6,67.9,137.6,68.1L137.6,68.1z"/>
				</g>
			</g>
		</g>
	</g>
</g>
<g>
	<g>
		<g>
			<g>
				<g class="st0">
					<g>
						<path class="st1" d="M97.5,165.8c0.1,0,0.1,0,0.3,0C97.8,165.8,97.7,165.8,97.5,165.8C97.5,165.7,97.5,165.8,97.5,165.8z"/>
						<path class="st1" d="M98.1,165.8L98.1,165.8L98.1,165.8L98.1,165.8z"/>
						<path class="st1" d="M98.5,165.8c-0.1,0-0.1,0-0.3,0C98.4,165.8,98.4,165.8,98.5,165.8z"/>
						<path class="st1" d="M98.1,165.7C98.1,165.7,98.2,165.8,98.1,165.7C98.1,165.8,98.1,165.8,98.1,165.7
							C98.2,165.8,98.2,165.8,98.1,165.7C98.2,165.8,98.2,165.7,98.1,165.7z"/>
						<path class="st1" d="M98.1,165.7L98.1,165.7L98.1,165.7z"/>
						<path class="st1" d="M98.2,165.3C98.2,165.3,98.2,165.4,98.2,165.3c0.3,0,0.6,0,0.7,0c0.1,0,0.3,0.1,0.3,0.1
							c0.3,0,0.9-0.3,0.4-0.3c-0.6,0-0.9,0-1.3,0.1c-0.4,0-0.7,0.1-1.1,0.1c-0.1,0-0.1,0-0.3,0c0.1,0,0.3,0,0.4,0
							C97.7,165.4,97.9,165.3,98.2,165.3z"/>
						<path class="st1" d="M95.5,165.7h0.1c0.1,0.1,0.4,0,0.7,0c0,0,0,0-0.1,0s-0.1,0,0,0.1C96,165.6,95.7,165.6,95.5,165.7
							C95.4,165.7,95.4,165.7,95.5,165.7z"/>
						<path class="st1" d="M95.2,165.7h0.1C95.4,165.6,95.4,165.6,95.2,165.7C95.4,165.6,95.2,165.6,95.2,165.7L95.2,165.7z"/>
						<path class="st1" d="M99.5,165.7c0.6,0,1.3,0,1.8,0h0.1h0.1c0.1,0,0.1,0,0.3,0c0,0,0,0,0.1,0l0,0l0,0c0,0,0,0-0.1,0
							c0,0,0,0,0.1,0h0.1c0.1,0,0.1,0,0.3,0c-0.1,0-0.1,0-0.3,0h-0.1l0,0c0.1,0,0.4,0,0.6,0h0.1c0.1,0,0.3,0,0.4,0c0,0,0,0,0.1,0
							l0,0l0,0c0.1,0,0.3,0,0.4,0c0.1,0,0.1,0,0.3-0.1c0,0,0,0,0.1,0h0.1c-0.1,0-0.1-0.1-0.3-0.1c-0.1,0-0.3,0.1-0.3,0
							c0.1,0.1,0.3-0.1,0.3,0c0,0,0.1,0.1,0.3,0.1s0.3,0,0.4,0c-0.1,0-0.3,0-0.4,0h-0.1H104c-0.1,0-0.1,0-0.3,0.1c0.3,0,0.6,0,0.9,0
							c1.8,0.1,3.7,0.1,5.7,0.1c1.1,0,2.1,0.1,3.1,0.1c2,0.1,3.8,0,5.8,0.3c0.7,0.1,2.3,0,3,0c1-0.3,0.4-0.9,0.4-0.9
							c-0.6-0.6-1.1-0.3-2.4-0.6c0.9,0.1-0.6,0.3-1.4,0c-1.1-0.6-2.8-0.1-4.3-0.3c-0.4,0-0.7,0-1.1,0c-2.3-0.1-4.3,0-6.7,0
							c-0.6,0-1.1,0.1-1.7,0.1c-0.4,0-0.9,0-1.1,0c-0.4,0-0.9,0-1.3,0.1c0.4,0,0.9,0,1.3-0.1c0.3,0-0.3,0.1-0.4,0.3
							c-0.1,0-0.3-0.1-0.3-0.1c-0.1,0-0.4,0-0.6,0.1c-0.1,0-0.1-0.1-0.1-0.1c-0.3,0-0.6,0.1-0.7,0.1c-0.1,0-0.3,0-0.4,0
							c-0.1,0-0.1,0-0.3,0h-0.1c0,0,0,0.1,0.1,0.1c-0.1,0-0.1,0-0.3,0c0.1,0,0.1,0,0.3,0c0,0,0-0.1-0.1-0.1
							c-0.4,0.1-0.9,0.1-1.3,0.1l0,0c0.3,0,0.4,0,0.7,0.1c-0.1,0-0.1,0,0-0.1c0,0,0,0,0.1,0C99.9,165.6,99.6,165.7,99.5,165.7
							c0-0.1-0.1-0.1-0.1,0c0,0,0,0-0.1-0.1h-0.1C99.2,165.6,99.5,165.7,99.5,165.7z"/>
						<path class="st1" d="M102.1,165.7L102.1,165.7c0,0,0.1,0,0.4,0C102.3,165.6,102.2,165.7,102.1,165.7z"/>
					</g>
				</g>
			</g>
		</g>
	</g>
</g>
</svg>
