<?xml version="1.0" encoding="utf-8"?>
<!-- Generator: Adobe Illustrator 24.2.0, SVG Export Plug-In . SVG Version: 6.00 Build 0)  -->
<svg version="1.1" id="Layer_1" xmlns="http://www.w3.org/2000/svg" xmlns:xlink="http://www.w3.org/1999/xlink" x="0px" y="0px"
	 viewBox="0 0 213.1 222" style="enable-background:new 0 0 213.1 222;" xml:space="preserve">
<style type="text/css">
	.st0{opacity:0.85;}
	.st1{fill:#669D8D;}
	.st2{fill:none;stroke:#A7C7BD;stroke-miterlimit:10;}
</style>
<g>
	<g>
		<g>
			<g>
				<g class="st0">
					<g>
						<path class="st1" d="M46.9,69.9c1.1,0.1,2.3,0.3,3.4,0.5c-0.6-0.1-1.1-0.3-1.7-0.6C47.9,69.6,47.5,69.8,46.9,69.9z"/>
						<path class="st1" d="M53.4,70.9c0.2,0,0.4,0.1,0.6,0.1c0.2,0,0.4,0,0.5,0C54.1,71,53.8,70.9,53.4,70.9z"/>
						<path class="st1" d="M59.2,71.8c-1-0.3-2-0.5-2.9-0.6C57.1,71.4,58.1,71.6,59.2,71.8z"/>
						<path class="st1" d="M54.7,70.6c0.3,0.2,0.5,0.4-0.1,0.4c0,0,0,0,0,0c0.6,0,1.2,0.1,1.8,0.2C55.7,71,55.1,70.8,54.7,70.6z"/>
						<path class="st1" d="M54.7,70.6c-0.3-0.2-0.9-0.4-1-0.5C53.9,70.3,54.3,70.4,54.7,70.6z"/>
						<path class="st1" d="M56.8,67.5c0.6,0,0.3,0.9,1.5,1c2.8,0.3,5.4,0.5,7.9,1.3c1.2,0.1,2.7,1.7,3.9,1.9
							c1.4,0.3,3.8,0.5,5.2,0.4c1.5-0.2,2.1-0.4,0.3-0.6c-2.7-0.3-5.1-1.1-7.6-1.7c-2.5-0.7-5-1.3-7.9-1.8c-4.7-0.7-9.4-0.8-14.1-1
							c-1.3-0.1-2.5-0.3-3.8-0.5c1.6,0.3,3.3,0.7,5.1,1C49.7,67.9,52.9,67,56.8,67.5z"/>
						<path class="st1" d="M22.3,69c0.2-0.2,0.6-0.4,0.9-0.5c0.3-0.2,0.6-0.3,0.6-0.3c2.6,0.1,5.3-0.3,8.1-0.4
							c-0.4-0.2-0.8-0.3-1.2-0.5c-1.6,0-1.8,0.3-0.4,0.5c-1.6-0.3-3.2-0.4-4.8-0.3c-1.6,0.1-3.1,0.6-4.5,1.3
							C21.4,68.9,21.5,69.2,22.3,69z"/>
						<path class="st1" d="M19.6,69.9c0.5-0.4,1-0.8,1.5-1.1c0,0-0.1,0-0.1,0C20.4,69.1,20,69.5,19.6,69.9L19.6,69.9z"/>
						<path class="st1" d="M71.6,74.4c3.9,1.1,7.9,1.1,11.6,0.7c3.8-0.5,7.4-1.4,10.9-2.7c0.5-0.4,0.8-0.7,1.5-0.9
							c0.6-0.1,1.2-0.2,1.7-0.4c1-0.4,2-0.8,2.9-1.3c0.3-0.2,0.7-0.4,1-0.5c0,0,0,0,0,0c0.5-0.4,0.3-0.4-0.1-0.4
							c-0.4,0.1-0.8,0.1-1.2,0.2c0.2,0,0.8-0.1,1.2-0.2c0.5-0.1,1.1-0.3,1.7-0.5c0.9-0.5,1.8-0.9,2.7-1.2c-1,0.5-1.9,0.9-2.7,1.2
							c-0.5,0.3-1.1,0.6-1.6,0.9c-0.1,0.1-0.3,0.2-0.4,0.3c1.1-0.5,2.2-1,3.3-1.5c1-0.4,2-0.8,3.1-1.1c0.5-0.2,1-0.3,1.4-0.3
							c0.8-0.1,1.7-0.1,2.3,0.4c0.6,0.5,0.9,1.1,0.8,1.8c0.1,0.2,0.1,0.4,0.2,0.5c0.1,0.2,0.1,0.4,0.1,0.6c0-0.1,0-0.2,0.1-0.3
							c0,0.2,0,0.3,0,0.5c0.1,0.8,0,1.6-0.1,2.4c-0.1,0.8-0.3,1.5-0.5,2.4c-0.1,1.2-0.2,2.4-0.4,3.6c0,0-0.5,0.7-0.8,1.1
							c0.1,0.5,0.1,1.3-0.1,2.1c0.5-0.9,1.1-1.7,1.5-2.4c0.8-1.1-0.2-2.9,1.1-4.1c-1.2,1.2-0.3,3-1.1,4.1c-0.4,0.8-1,1.5-1.5,2.4
							c-0.3,1.7-1,3.9-1.8,5.6c0.1-2.3,0.9-4.1,1.8-5.6c0.1-0.8,0.2-1.6,0.1-2.1c0.3-0.4,0.8-1.1,0.8-1.1c0.2-1.2,0.3-2.5,0.4-3.6
							c-0.5,1.7-1,3.4-1.5,5.2c-0.5,1.8-1,3.6-1.5,5.4c-3,11.7-4.3,23.3-5.2,34.9c-0.5,5.8-0.8,11.6-1.8,17.2
							c-0.6,2.8-1.4,5.5-2.8,7.8c-0.7,1.1-1.5,2.1-2.5,2.9c-0.2,0.2-0.5,0.4-0.8,0.6c-0.3,0.2-0.5,0.4-0.8,0.5
							c-0.6,0.3-1.2,0.6-1.8,0.8c-1.2,0.4-2.7,0.4-4.3,0.4c-1.6,0-3.2-0.1-4.9-0.2c-3.3-0.2-6.5-0.4-9.8-0.6
							c-6.5-0.4-12.8-0.9-19-1.7c-6.2-0.7-12.3-1.4-18.1-2.4c-5.8-1-11.6-2.3-16.6-4.5c-2.4-1.1-4.7-2.5-6.1-4.1
							c-0.4-0.4-0.6-0.8-0.9-1.2c-0.2-0.4-0.4-0.8-0.5-1.2c-0.1-0.2-0.1-0.4-0.1-0.6c0-0.1,0-0.3,0-0.4c0-0.2,0.1-0.5,0.3-1.1
							c0.4-1.1,1-2.7,1.5-4.2c0.6-1.5,1.1-3,1.6-4.6c1-3.1,2-6.3,2.9-9.5c1.4-5,2.2-12.5,2.2-19.7c0-3.6-0.1-7.1-0.2-10.1
							c0-1.5,0-2.9,0.1-4c0.1-1.2,0.2-2.1,0.4-2.9c0.1-1,0.1-1.7,0.2-2.3c0.1-0.6,0.1-1.1,0.2-1.6c0.1-0.9-0.1-1.7-0.5-2.1
							c-0.4-0.5-1.1-0.6-1.8-0.6c-0.6,0-1.2,0.2-1.4,0.3c-1.9,0.9-3.4,2.7-4.2,4.7c-0.8,2-1.2,4.1-1.4,6.4c-0.4,4.6,0,10.1-1.4,17.8
							c0.4-2.6,0.7-3.4,0.9-3c0.2,0.4,0.4,2,0.3,4.3c-0.1,2.3-0.4,5.1-1,8c-0.6,2.9-1.5,5.8-2.7,8c-0.4,0.8-0.8,1.7-1.2,2.5
							c-0.4,0.9-0.8,1.7-1.2,2.6c-0.8,1.8-1.6,3.6-2.4,5.7c-0.4,1.1-0.9,2.2-1.2,4.3c-0.1,1-0.1,2.2,0.1,3.2c0.1,1,0.4,1.8,0.7,2.7
							c0.3,0.9,0.7,1.6,1.1,2.4c0.4,0.8,1,1.4,1.5,2.1c0.5,0.6,1.1,1.2,1.7,1.8c0.6,0.5,1.2,1,1.8,1.5c2.5,1.8,5,3,7.5,4
							c2.5,1,5,1.7,7.5,2.3c5,1.2,9.8,2,14.4,2.9c4.6,0.9,9.6,1.2,15.1,1.6c7.1,0.8,14.1,1.2,21,1.5c3.5,0.1,6.8,0.2,10.4,0.3
							c1.8,0,3.6,0,5.8-0.2c1.1-0.1,2.4-0.3,3.8-0.8c1.4-0.5,2.4-1.1,3.5-1.7c2.1-1.3,4-3,5.5-5c1.5-2,2.5-4.1,3.2-6.1
							c1.4-4.1,1.9-7.9,2.3-11.6c0.7-7.4,0.9-14.5,1.6-21.7c0.7-7.7,0.7-14.4,1.5-20.8c0.4-2.3,1-4.7,1.7-6.9c0.3-1.1,0.7-2.2,1-3.2
							c0.3-1,0.6-2,0.9-3c0.1-0.4,0.2-0.8,0.3-1.2l0.1-0.6l0.1-0.3l0.1-0.4c0.2-1.2,0.4-2.5,0.5-3.7c0.1-2.4-0.4-4.6-1.6-6.3
							c-0.2-0.5-0.6-0.8-1-1.2l-0.6-0.5l-0.6-0.4c-0.8-0.6-1.8-0.9-2.8-1c-1.9-0.3-3.9,0.2-5.8,1c2.1-0.8,4.1-1.2,6-0.8
							c1.9,0.3,3.5,1.5,4.5,3.1c1,1.6,1.5,3.5,1.5,5.7c0,0.5,0,1.1-0.1,1.7c-0.1,0.6-0.1,1.2-0.2,1.8c-0.1,0.3-0.1,0.6-0.2,0.9
							c0,0.2-0.1,0.4-0.1,0.6c-0.1,0.4-0.2,0.8-0.3,1.3c-0.3,1.1-0.5,1.4-0.5,1.3c-0.1-0.1-0.1-0.8,0-1.7c0-0.5,0.1-1,0.1-1.5
							c0-0.3,0.1-0.7,0.1-1c0-0.4,0-0.8,0.1-1.1c0.1-1.5-0.1-2.9-0.3-3.8c-0.2-0.8-0.2-1.9-0.5-3c-0.3-1.1-0.9-2.1-1.6-2.5
							c-1.5-1.2-3.3-1.4-5.1-1.1c-1.8,0.3-3.6,1.2-5.4,2.1c-0.1,0.1-0.2,0.1-0.3,0.1c-0.1,0-0.1,0.1-0.2,0.1c-0.1,0-0.2,0.1-0.3,0.1
							c-0.2,0-0.3,0-0.5-0.1c-0.3-0.1-0.5-0.2-0.7-0.1c-3.4,1.9-5.4,4.1-7.7,4.7c-1.7,0.5-3.3,0.8-4.8,1.1c-1,0.2-1.9,0.4-2.9,0.6
							c-0.6,0.2-1.2,0.4-1.9,0.6c0.6,0.2,0.8,0.5,1,0.9c-1,0.1-2.4,0.1-3.3,0.1c1,0,2.3,0,3.3-0.1c-0.2-0.3-0.5-0.7-1-0.9
							c-2.3,0.6-4.9,1.1-7.4,1.1c-2.6,0-5.2-0.5-7.9-1.2c0,0,0,0.1,0,0.1c3,0.9,5.8,1.8,9,2.5c-1.4-0.3-1.2-0.5,0.4-0.5
							c0.4,0.2,0.8,0.3,1.2,0.5c-1.4,0.2-2.8,0.2-4.2,0c-1.4-0.2-2.7-0.6-3.9-1.3c0,0-1.2-0.1-1.8-0.2c-0.8-0.4-0.7-0.7-0.8-1
							c-0.6-0.2-1.2-0.3-1.8-0.5c0.6,0.4,1.8,1.1,2.9,1.6C70.7,74,71.6,74.4,71.6,74.4z"/>
						<path class="st1" d="M102.9,68.4c-0.4,0.2-0.8,0.5-1.3,0.7c0.9-0.4,1.9-0.8,2.8-1.2c0.9-0.4,1.7-0.7,2.6-1
							c-0.5-0.1-1.1,0-1.8,0.3C104.5,67.5,103.7,68,102.9,68.4z"/>
					</g>
				</g>
			</g>
		</g>
	</g>
</g>
<g>
	<g>
		<g>
			<g>
				<g class="st0">
					<g>
						<path class="st1" d="M39.6,101.5l-0.2,0.1c0.1,0,0.2,0.1,0.3,0.2C39.8,101.8,39.7,101.7,39.6,101.5z"/>
						<path class="st1" d="M39.2,101.7L39.2,101.7l0,0.1C39.2,101.8,39.2,101.8,39.2,101.7z"/>
						<path class="st1" d="M39.1,102.2c0.1,0,0.1-0.1,0.1-0.2C39.1,102,39.1,102,39.1,102.2z"/>
						<path class="st1" d="M39.5,102.1c-0.1-0.1-0.2-0.2-0.3-0.3l0,0c0,0.1,0,0.1,0,0.2C39.3,102,39.4,102.1,39.5,102.1z"/>
						<path class="st1" d="M39.5,102.1c0.1,0.1,0.2,0.1,0.3,0.2C39.7,102.3,39.6,102.2,39.5,102.1z"/>
						<path class="st1" d="M41.9,104.6c0.1,0.1-0.6-0.6-0.5-0.4c0.1,0.3,0.3,0.7,0.2,0.8c0.1,0.2-0.7-0.5-0.6-0.3
							c0.1,0.3,0.7,1.5,0.9,1.3c0.2-0.4,0.1-0.7,0.2-1.1c-0.1-0.5-0.2-1-0.3-1.4c0-0.1,0.1-0.1,0.2-0.1c-0.2,0-0.3-0.1-0.5-0.1
							C41.1,103.3,41.9,104.3,41.9,104.6z"/>
						<path class="st1" d="M41.1,100.8c0,0.1,0.1,0.3,0.1,0.3c-0.6-0.4-0.5-0.1-0.5,0.2l0.4,0.3c0-0.1-0.1-0.3-0.4-0.4
							c0.6,0.3,0.7,0.2,0.8,0C41.5,101.1,41.3,100.9,41.1,100.8z"/>
						<path class="st1" d="M41.7,101.1c0,0,0,0.1,0,0.1l0.1,0.1C41.7,101.3,41.7,101.2,41.7,101.1L41.7,101.1z"/>
						<path class="st1" d="M39.2,103.4c-0.3,0.4-0.7,0.7-1,1c0.1,0.2,0.3,0.3,0.1,0.3c-0.1-0.1-0.3-0.1-0.3-0.1l-0.2,0.1
							c0,0,0,0.1,0,0.1l0,0c0.1,0.1,0.2,0.2,0.3,0.3c0.1,0,0.2,0.1,0.3,0.2c-0.1,0-0.2-0.1-0.3-0.2c-0.1-0.1-0.2-0.1-0.3-0.1
							c0,0.1,0,0.2-0.1,0.2c0-0.1,0-0.2,0.1-0.2c0-0.1,0-0.1,0-0.2l0-0.1l-0.4,0.3c0,0,0,0.1,0,0.1c0,0.2,0.1,0.3-0.3,0.1
							c0,0,0,0-0.1,0c0,0,0,0,0.1,0l-0.1,0l-0.3,0.2c0.1,0.2,0.2,0.4,0.3,0.5c0,0-0.3-0.2-0.4-0.2c0.2,0.2,0.3,0.3,0.3,0.4
							c0.3,0.1,0.5,0.3,0.7,0.4c0.4,0.3-0.6-0.8,0.1-0.2c-0.7-0.5,0.3,0.5-0.1,0.2c-0.2-0.1-0.5-0.2-0.7-0.4c0.1,0.2-0.2,0.2-0.6,0
							c-0.2-0.4,0.2-0.2,0.6,0c0-0.1-0.1-0.2-0.3-0.4c0.1,0.1,0.4,0.2,0.4,0.2c-0.1-0.1-0.2-0.4-0.3-0.5c-0.2,0.1-0.4,0.2-0.6,0.4
							c-1.4,0.8-2.2,2-3.5,3c-0.7,0.5-1.5,1-2.5,1.4c-1.9,0.8-1.5,2.7-4.4,3.1c-1.1,0.2-1.2,1.5-1.4,2.1c1.1,1.5,5,2.9,5.2,2.9
							c3.4,1.1,1.8-0.1,4,0.1c-1.3,0-1.8-1.5,0.6-0.9c3.6,1.1,1.6-1.4,3-1.8c0.3-0.1,0.3-0.4,0.6-0.6c1.9-0.6,1.4-2.7,2.7-3.8
							c0.3-0.4-0.2-1.2-0.3-1.8c0-0.3,0.6-0.2,0.7-0.4c0.2-0.3,0.2-0.7,0-1.2c-0.1,0.4,0,0.7-0.2,1.1c-0.1,0.2-0.8-0.9-0.9-1.2
							c-0.1-0.2,0.8,0.4,0.6,0.2c0.1-0.1-0.1-0.5-0.2-0.8c-0.1-0.2,0.6,0.4,0.5,0.3c0-0.3-0.8-1.3-0.5-1.2c0.2,0,0.4,0,0.5,0.1
							c0.1,0,0.2,0,0.2-0.1l-0.1-0.3c-0.2-0.2-0.5-0.4-0.8-0.6c0.1,0,0.3,0.1,0.4,0.1c-0.1,0-0.3-0.1-0.4-0.1
							c0.3,0.2,0.5,0.5,0.8,0.6c-0.2-0.6-0.3-1.2-0.4-1.7l-0.1-0.1c-0.1,0.2-0.3,0.3-0.8,0c0.2,0.1,0.4,0.3,0.4,0.4l-0.4-0.3
							c-0.1-0.3-0.2-0.6,0.5-0.3c0,0-0.1-0.2-0.2-0.3c0.1,0.1,0.4,0.3,0.5,0.4c0,0,0-0.1,0-0.1C39.8,103.6,39.2,103.4,39.2,103.4z"
							/>
						<path class="st1" d="M37.8,104.8c0,0,0-0.1,0-0.1l-0.3,0.2C37.9,105.2,37.9,105,37.8,104.8z"/>
					</g>
				</g>
			</g>
		</g>
	</g>
</g>
<g>
	<g>
		<g>
			<g>
				<g class="st0">
					<g>
						<path class="st1" d="M58.7,102.3l-0.2,0.1c0.1,0,0.2,0.1,0.3,0.2C58.9,102.7,58.8,102.5,58.7,102.3z"/>
						<path class="st1" d="M58.3,102.5L58.3,102.5l0,0.1C58.3,102.6,58.3,102.5,58.3,102.5z"/>
						<path class="st1" d="M58.1,102.9c0.1,0,0.1-0.1,0.1-0.2C58.2,102.8,58.1,102.8,58.1,102.9z"/>
						<path class="st1" d="M58.5,102.9c-0.1-0.1-0.2-0.2-0.2-0.3l0,0c0,0.1,0,0.1,0,0.2C58.3,102.8,58.4,102.9,58.5,102.9z"/>
						<path class="st1" d="M58.5,102.9c0.1,0.1,0.2,0.2,0.3,0.2C58.7,103.1,58.6,103,58.5,102.9z"/>
						<path class="st1" d="M60.6,105.6c0,0.1-0.6-0.7-0.5-0.4c0,0.3,0.2,0.7,0.1,0.9c0.1,0.2-0.7-0.5-0.6-0.3c0,0.3,0.5,1.6,0.7,1.4
							c0.2-0.4,0.2-0.7,0.4-1.1c0-0.5-0.1-1-0.1-1.5c0-0.1,0.1-0.1,0.2-0.1c-0.2-0.1-0.3-0.1-0.5-0.1
							C60,104.2,60.6,105.3,60.6,105.6z"/>
						<path class="st1" d="M60.4,101.8c0,0.1,0.1,0.3,0.1,0.3c-0.6-0.5-0.5-0.1-0.5,0.2l0.4,0.3c0.1-0.1-0.1-0.3-0.3-0.4
							c0.5,0.3,0.7,0.3,0.8,0.1C60.7,102.1,60.5,101.8,60.4,101.8z"/>
						<path class="st1" d="M60.9,102.1c0,0,0,0.1,0,0.1l0.1,0.1C60.9,102.3,60.9,102.2,60.9,102.1L60.9,102.1z"/>
						<path class="st1" d="M58,104.1c-0.4,0.4-0.8,0.6-1.2,0.9c0.1,0.2,0.2,0.3,0.1,0.3c-0.1-0.1-0.2-0.2-0.3-0.2l-0.2,0.1
							c0,0,0,0.1,0,0.1l0,0c0,0.1,0.1,0.2,0.3,0.3c0.1,0.1,0.2,0.1,0.3,0.2c-0.1,0-0.2-0.1-0.3-0.2c-0.1-0.1-0.2-0.1-0.3-0.1
							c0,0.1,0,0.2-0.1,0.2c0-0.1,0-0.2,0.1-0.2c0-0.1,0-0.1,0-0.2l0-0.1l-0.4,0.2c0,0,0,0.1,0,0.1c0,0.2,0,0.3-0.4,0l-0.1,0
							c0,0,0,0,0.1,0.1l-0.1,0l-0.4,0.2c0.1,0.2,0.2,0.4,0.2,0.6c0,0-0.3-0.2-0.4-0.3c0.1,0.2,0.2,0.3,0.2,0.4
							c0.2,0.2,0.5,0.4,0.7,0.5c0.4,0.3-0.5-0.8,0.2-0.2c-0.7-0.6,0.2,0.5-0.2,0.2c-0.2-0.1-0.4-0.3-0.7-0.5c0,0.2-0.2,0.2-0.6-0.1
							c-0.2-0.4,0.2-0.2,0.6,0.1c0-0.1-0.1-0.2-0.2-0.4c0.1,0.1,0.4,0.3,0.4,0.3c0-0.2-0.1-0.4-0.2-0.6c-0.2,0.1-0.5,0.2-0.7,0.3
							c-1.6,0.6-2.5,1.8-4,2.7c-0.8,0.5-1.7,0.8-2.7,1.1c-2,0.6-2,2.6-5,2.6c-1.1,0.1-1.5,1.4-1.8,2c0.8,1.6,4.5,3.5,4.7,3.6
							c3.2,1.5,1.8,0.1,4,0.5c-1.3-0.1-1.5-1.7,0.8-0.8c3.5,1.5,1.9-1.3,3.3-1.5c0.3-0.1,0.4-0.4,0.7-0.6c2-0.4,1.9-2.6,3.4-3.6
							c0.3-0.3,0-1.3,0-1.9c0.1-0.3,0.6-0.2,0.8-0.4c0.3-0.3,0.3-0.7,0.2-1.2c-0.1,0.4-0.2,0.7-0.3,1.1c-0.2,0.2-0.7-1-0.7-1.3
							c-0.1-0.2,0.7,0.5,0.6,0.3c0.1-0.1-0.1-0.5-0.1-0.8c-0.1-0.2,0.5,0.5,0.5,0.4c0-0.3-0.6-1.4-0.3-1.3c0.2,0,0.4,0.1,0.5,0.1
							c0.1,0,0.2,0,0.2-0.1l-0.1-0.3c-0.2-0.2-0.5-0.5-0.7-0.7c0.1,0,0.3,0.1,0.4,0.1c-0.1,0-0.3-0.1-0.4-0.1
							c0.2,0.3,0.5,0.5,0.7,0.7c-0.1-0.6-0.2-1.3-0.2-1.8l-0.1-0.1c-0.1,0.2-0.3,0.3-0.8-0.1c0.2,0.1,0.4,0.3,0.3,0.4l-0.4-0.3
							c0-0.3-0.1-0.6,0.5-0.2c0,0-0.1-0.2-0.1-0.3c0.1,0.1,0.3,0.3,0.5,0.5c0,0,0-0.1,0-0.1C58.6,104.5,58,104.1,58,104.1z"/>
						<path class="st1" d="M56.4,105.5c0,0,0-0.1,0-0.1l-0.4,0.2C56.4,105.8,56.4,105.7,56.4,105.5z"/>
					</g>
				</g>
			</g>
		</g>
	</g>
</g>
<g>
	<g>
		<g>
			<g>
				<g class="st0">
					<g>
						<path class="st1" d="M86,86.3c0,0-0.1,0-0.1,0c0,0.1,0.1,0.1,0.2,0.3C86.1,86.7,86.1,86.5,86,86.3z"/>
						<path class="st1" d="M85.8,86.3C85.8,86.3,85.7,86.3,85.8,86.3C85.7,86.3,85.8,86.4,85.8,86.3C85.8,86.4,85.8,86.3,85.8,86.3z
							"/>
						<path class="st1" d="M85.7,86.6C85.7,86.7,85.7,86.6,85.7,86.6C85.7,86.5,85.7,86.5,85.7,86.6z"/>
						<path class="st1" d="M85.9,86.8c-0.1-0.1-0.1-0.3-0.1-0.4c0,0,0,0,0,0c0,0,0,0.1,0,0.1C85.8,86.6,85.8,86.7,85.9,86.8z"/>
						<path class="st1" d="M85.9,86.8c0.1,0.1,0.1,0.2,0.2,0.3C86,87,86,86.9,85.9,86.8z"/>
						<path class="st1" d="M87.1,89.9c0,0.1-0.3-0.8-0.3-0.6c0,0.3,0.1,0.7,0,0.7c0,0.2-0.4-0.8-0.4-0.5c0,0.3,0.3,1.6,0.4,1.5
							c0.1-0.2,0.2-0.5,0.3-0.7c0-0.4,0-0.9,0-1.3c0-0.1,0.1,0,0.1,0c-0.1-0.1-0.2-0.2-0.3-0.3C86.8,88.5,87.2,89.7,87.1,89.9z"/>
						<path class="st1" d="M87,86.6c0,0.1,0.1,0.3,0.1,0.3c-0.3-0.6-0.3-0.3-0.3,0c0.1,0.1,0.1,0.3,0.2,0.4c0-0.1-0.1-0.3-0.2-0.5
							c0.3,0.5,0.4,0.5,0.5,0.4C87.1,87,87,86.7,87,86.6z"/>
						<path class="st1" d="M87.3,87.1C87.3,87.1,87.3,87.2,87.3,87.1c0,0.1,0,0.1,0,0.2C87.3,87.2,87.3,87.2,87.3,87.1
							C87.3,87.1,87.3,87.1,87.3,87.1z"/>
						<path class="st1" d="M85.6,87.6c-0.2,0.1-0.5,0.2-0.7,0.2C85,87.9,85,88.1,85,88c-0.1-0.1-0.1-0.2-0.2-0.3c0,0-0.1,0-0.1,0
							c0,0,0,0.1,0,0.1c0,0,0,0,0,0c0,0.1,0.1,0.2,0.1,0.4c0,0.1,0.1,0.2,0.2,0.3c0-0.1-0.1-0.2-0.2-0.3c-0.1-0.1-0.1-0.2-0.2-0.2
							c0,0.1,0,0.1-0.1,0.1c0-0.1,0-0.1,0.1-0.1c0,0,0-0.1,0-0.1c0,0,0-0.1,0-0.1c-0.1,0-0.2,0-0.3,0c0,0,0,0.1,0,0.1
							c0,0.1,0,0.3-0.2-0.1c0,0,0,0,0,0c0,0,0,0,0,0.1c0,0,0-0.1,0-0.1c-0.1,0-0.1,0-0.2,0c0,0.2,0.1,0.4,0.1,0.5
							c0,0-0.1-0.3-0.2-0.4c0.1,0.2,0.1,0.4,0.1,0.5c0.1,0.3,0.3,0.5,0.4,0.7c0.2,0.4-0.3-0.9,0.1-0.1c-0.4-0.8,0.1,0.5-0.1,0.1
							c-0.1-0.2-0.2-0.5-0.4-0.7c0,0.2-0.1,0-0.3-0.4c-0.1-0.4,0.1-0.1,0.3,0.4c0-0.1,0-0.2-0.1-0.5c0.1,0.1,0.2,0.4,0.2,0.4
							c0-0.1-0.1-0.4-0.1-0.5c-0.1,0-0.3-0.1-0.4-0.1c-0.9-0.3-1.5,0.1-2.4-0.1c-0.5-0.1-1-0.3-1.6-0.7c-1.2-0.7-1.4,0.7-3-1.2
							c-0.6-0.7-1,0-1.2,0.2c0.2,1.6,1.9,5.4,2,5.6c1.5,3.2,1,1.3,2.2,3c-0.8-1-0.6-2.2,0.6-0.1c1.8,3.2,1.3,0.3,2.2,0.9
							c0.2,0.2,0.3,0,0.5,0c1.3,0.8,1.5-0.9,2.5-1c0.2-0.1,0.1-1,0.1-1.5c0.1-0.2,0.4,0.2,0.5,0.1c0.2-0.1,0.2-0.5,0.2-0.9
							C86,92,86,92.3,85.8,92.5c-0.1,0.1-0.4-1.2-0.4-1.5c0-0.2,0.4,0.8,0.4,0.5c0.1,0,0-0.5,0-0.7c0-0.2,0.3,0.7,0.3,0.6
							c0-0.2-0.3-1.4-0.2-1.2c0.1,0.1,0.2,0.2,0.3,0.3c0,0,0.1,0.1,0.1,0c0-0.1,0-0.2,0-0.2c-0.1-0.3-0.3-0.6-0.4-0.9
							c0,0,0.2,0.2,0.2,0.3c0,0-0.2-0.2-0.2-0.3c0.1,0.3,0.3,0.7,0.4,0.9c-0.1-0.6-0.1-1.1-0.1-1.6c0,0,0-0.1,0-0.1
							c-0.1,0.1-0.2,0.1-0.5-0.4c0.1,0.2,0.2,0.4,0.2,0.5c-0.1-0.1-0.1-0.3-0.2-0.4c0-0.3,0-0.6,0.3,0c0,0,0-0.2-0.1-0.3
							c0.1,0.1,0.2,0.4,0.3,0.6c0,0,0-0.1,0-0.1C86,88.1,85.6,87.6,85.6,87.6z"/>
						<path class="st1" d="M84.7,87.9C84.7,87.9,84.7,87.9,84.7,87.9c-0.1-0.1-0.1-0.1-0.2-0.1C84.7,88.2,84.7,88.1,84.7,87.9z"/>
					</g>
				</g>
			</g>
		</g>
	</g>
</g>
<g>
	<g>
		<g>
			<g>
				<g class="st0">
					<g>
						<path class="st1" d="M46.1,84.7C46.1,84.6,46,84.6,46.1,84.7c-0.1,0-0.1,0.1,0,0.3C46.1,85.1,46.1,84.8,46.1,84.7z"/>
						<path class="st1" d="M45.9,84.6C45.9,84.6,45.9,84.6,45.9,84.6C45.9,84.6,45.9,84.6,45.9,84.6C45.9,84.6,45.9,84.6,45.9,84.6z
							"/>
						<path class="st1" d="M45.8,84.8C45.8,84.9,45.8,84.8,45.8,84.8C45.8,84.7,45.8,84.7,45.8,84.8z"/>
						<path class="st1" d="M45.9,85c0-0.1,0-0.3,0-0.4c0,0,0,0,0,0c0,0,0,0.1,0,0.1C45.9,84.8,45.9,84.9,45.9,85z"/>
						<path class="st1" d="M45.9,85c0,0.1,0,0.3,0,0.3C45.9,85.3,45.9,85.1,45.9,85z"/>
						<path class="st1" d="M45.9,88.4c0,0.1,0-0.9,0-0.6c-0.1,0.3-0.1,0.7-0.2,0.7c0,0.2-0.1-0.8-0.1-0.6c-0.1,0.3-0.2,1.6-0.1,1.5
							c0.1-0.1,0.2-0.4,0.4-0.6c0.1-0.4,0.2-0.8,0.3-1.2c0,0,0.1,0,0.1,0.1c0-0.1-0.1-0.3-0.1-0.4C46,87,46,88.2,45.9,88.4z"/>
						<path class="st1" d="M46.7,85.2c0,0.1,0,0.3,0,0.3c-0.1-0.7-0.1-0.4-0.2-0.2c0,0.2,0,0.3,0,0.5c0-0.1,0-0.3,0-0.5
							c0.1,0.6,0.1,0.7,0.2,0.6C46.7,85.7,46.7,85.4,46.7,85.2z"/>
						<path class="st1" d="M46.8,85.9C46.7,85.9,46.7,85.9,46.8,85.9c0,0.1,0,0.1,0,0.2C46.7,86,46.7,85.9,46.8,85.9
							C46.8,85.9,46.8,85.9,46.8,85.9z"/>
						<path class="st1" d="M45.5,85.7c-0.2,0-0.4,0-0.5-0.1c0,0.2,0,0.4,0,0.3c0-0.2,0-0.3,0-0.3c0,0-0.1,0-0.1-0.1c0,0,0,0,0,0.1
							c0,0,0,0,0,0c0,0.1,0,0.3,0,0.4c0,0.1,0,0.2,0,0.3c0-0.1,0-0.2,0-0.3c0-0.1,0-0.2,0-0.3c0,0.1,0,0.1-0.1,0
							c0-0.1,0.1-0.1,0.1,0c0,0,0-0.1,0-0.1c0,0,0-0.1,0-0.1c-0.1,0-0.1-0.1-0.2-0.1c0,0,0,0,0,0.1c0,0.1-0.1,0.3-0.1-0.2
							c0,0,0,0,0,0c0,0,0,0.1,0,0.1c0,0,0-0.1,0-0.1c0,0-0.1-0.1-0.1-0.1c0,0.2-0.1,0.4-0.1,0.5c0,0,0-0.3,0-0.5c0,0.2,0,0.4,0,0.5
							c0,0.3,0,0.6,0.1,0.8c0,0.5,0.1-1,0.1-0.1c0-0.9-0.1,0.5-0.1,0.1c0-0.2,0-0.5-0.1-0.8c0,0.2-0.1,0-0.1-0.5
							c0.1-0.4,0.1,0,0.1,0.5c0-0.1,0-0.2,0-0.5c0,0.2,0,0.5,0,0.5c0-0.1,0.1-0.4,0.1-0.5c-0.1-0.1-0.2-0.2-0.3-0.2
							c-0.6-0.6-1.1-0.5-1.7-1c-0.3-0.3-0.6-0.7-0.9-1.3c-0.6-1.1-1.1,0.2-1.7-2.3c-0.2-0.8-0.7-0.4-0.9-0.3
							c-0.3,1.6-0.1,5.7-0.1,5.9c0.2,3.5,0.3,1.6,0.7,3.6c-0.3-1.2,0.2-2.3,0.4,0.1c0.3,3.7,0.8,0.7,1.3,1.7
							c0.1,0.2,0.2,0.1,0.3,0.1c0.7,1.2,1.3-0.3,2,0c0.2,0,0.3-0.9,0.5-1.4c0.1-0.2,0.2,0.3,0.3,0.3c0.1,0,0.3-0.3,0.4-0.8
							c-0.1,0.2-0.2,0.4-0.4,0.6c-0.1,0.1,0.1-1.2,0.1-1.5c0-0.2,0.1,0.9,0.1,0.6c0.1,0,0.1-0.4,0.2-0.7c0-0.2,0,0.7,0,0.6
							c0.1-0.2,0.2-1.4,0.2-1.2c0,0.1,0.1,0.3,0.1,0.4c0,0.1,0,0.1,0.1,0.1c0-0.1,0-0.2,0-0.2c0-0.3,0-0.7,0-1
							c0,0.1,0.1,0.3,0.1,0.3c0-0.1-0.1-0.3-0.1-0.3c0,0.4,0,0.7,0,1c0.1-0.6,0.3-1.1,0.4-1.5c0,0,0-0.1,0-0.1
							c-0.1,0.1-0.1,0-0.2-0.6c0,0.2,0,0.5,0,0.5c0-0.2,0-0.3,0-0.5c0.1-0.3,0.1-0.5,0.2,0.2c0,0,0-0.2,0-0.3c0,0.1,0,0.4,0,0.7
							c0,0,0,0,0-0.1C45.6,86.3,45.5,85.7,45.5,85.7z"/>
						<path class="st1" d="M44.7,85.7C44.7,85.6,44.8,85.6,44.7,85.7c0-0.1-0.1-0.2-0.1-0.2C44.7,85.9,44.7,85.8,44.7,85.7z"/>
					</g>
				</g>
			</g>
		</g>
	</g>
</g>
<g>
	<g>
		<g>
			<g>
				<g class="st0">
					<g>
						<path class="st1" d="M81.8,122.9l-0.1,0c0.1,0,0.1,0.1,0.3,0.2C82,123.2,81.9,123,81.8,122.9z"/>
						<path class="st1" d="M81.5,122.9L81.5,122.9L81.5,122.9C81.6,123,81.5,122.9,81.5,122.9z"/>
						<path class="st1" d="M81.5,123.2C81.6,123.2,81.6,123.2,81.5,123.2C81.5,123.1,81.5,123.1,81.5,123.2z"/>
						<path class="st1" d="M81.8,123.3c-0.1-0.1-0.2-0.2-0.2-0.3l0,0c0,0,0,0.1,0,0.1C81.7,123.2,81.7,123.2,81.8,123.3z"/>
						<path class="st1" d="M81.8,123.3c0.1,0.1,0.2,0.2,0.2,0.3C82,123.5,81.9,123.4,81.8,123.3z"/>
						<path class="st1" d="M83.9,126c0.1,0.1-0.5-0.7-0.4-0.5c0.1,0.2,0.4,0.6,0.3,0.6c0.1,0.2-0.6-0.6-0.5-0.4
							c0.1,0.3,0.9,1.3,0.9,1.2c0-0.2-0.1-0.4-0.2-0.6c-0.2-0.3-0.4-0.8-0.5-1.1c0-0.1,0.1,0,0.1,0c-0.1-0.1-0.2-0.2-0.4-0.3
							C83.1,124.8,83.8,125.8,83.9,126z"/>
						<path class="st1" d="M82.7,122.9c0,0.1,0.1,0.3,0.1,0.3c-0.4-0.5-0.4-0.3-0.3,0l0.3,0.4c0-0.1-0.1-0.3-0.3-0.4
							c0.4,0.4,0.5,0.5,0.5,0.3C83,123.2,82.8,123,82.7,122.9z"/>
						<path class="st1" d="M83.1,123.4C83.1,123.4,83.1,123.4,83.1,123.4l0,0.2C83.2,123.5,83.2,123.4,83.1,123.4L83.1,123.4z"/>
						<path class="st1" d="M81.8,124.1c-0.1,0.2-0.3,0.3-0.5,0.4c0.1,0.1,0.3,0.3,0.2,0.2c-0.1-0.1-0.2-0.2-0.3-0.2l-0.1,0
							c0,0,0,0,0,0.1l0,0c0.1,0.1,0.2,0.2,0.3,0.3c0.1,0.1,0.2,0.1,0.3,0.2c-0.1,0-0.2-0.1-0.3-0.2c-0.1-0.1-0.2-0.1-0.2-0.1
							c0,0.1,0,0.1,0,0.1c-0.1-0.1,0-0.1,0-0.1c0,0,0-0.1-0.1-0.1l-0.1-0.1c-0.1,0-0.2,0-0.2,0.1c0,0,0,0.1,0,0.1
							c0.1,0.1,0.1,0.2-0.2,0c0,0,0,0,0,0c0,0,0,0,0.1,0l-0.1,0l-0.2,0c0.1,0.1,0.3,0.3,0.4,0.4c0,0-0.3-0.2-0.4-0.3
							c0.2,0.2,0.3,0.3,0.3,0.3c0.2,0.2,0.5,0.3,0.7,0.4c0.4,0.3-0.7-0.7,0-0.1c-0.7-0.5,0.4,0.4,0,0.1c-0.2-0.1-0.4-0.3-0.7-0.4
							c0.1,0.1-0.1,0.1-0.5-0.1c-0.3-0.3,0.1-0.1,0.5,0.1c0-0.1-0.2-0.2-0.3-0.3c0.1,0.1,0.4,0.3,0.4,0.3c-0.1-0.1-0.2-0.3-0.4-0.4
							c-0.1,0-0.3,0.1-0.4,0.1c-1,0.2-1.2,0.9-2,1.5c-0.4,0.3-1,0.6-1.7,0.8c-0.7,0.3-0.8,0.8-1,1.2c-0.2,0.5-0.6,0.9-1.8,1.3
							c-0.9,0.4-0.5,1.3-0.3,1.7c1.6,0.5,5.7-0.1,5.9-0.1c1.7-0.2,2.1-0.3,2.3-0.4c0.2-0.1,0.2-0.2,1.3-0.3c-0.6,0.1-1.2,0-1.3-0.1
							c-0.1-0.1,0.2-0.2,1.4-0.2c1.8,0.1,2,0.1,1.9-0.1c-0.1-0.1-0.6-0.3-0.1-0.3c0.2,0,0.1-0.1,0.2-0.1c0.6,0.1,0.6-0.1,0.5-0.3
							c-0.1-0.2-0.3-0.5-0.1-0.6c0-0.1-0.7-0.6-1-1c-0.1-0.2,0.3,0.1,0.4,0c0-0.1-0.2-0.3-0.4-0.7c0.1,0.2,0.2,0.4,0.3,0.6
							c0,0.1-0.9-0.8-1.1-1c-0.1-0.2,0.7,0.5,0.5,0.4c0,0-0.3-0.3-0.4-0.6c-0.1-0.2,0.6,0.5,0.5,0.4c-0.1-0.2-1-1.1-0.7-0.9
							c0.1,0.1,0.3,0.2,0.4,0.2c0.1,0,0.1,0,0.1,0l-0.1-0.2c-0.2-0.2-0.5-0.5-0.7-0.7c0.1,0,0.2,0.1,0.3,0.2c-0.1,0-0.2-0.2-0.3-0.2
							c0.3,0.3,0.5,0.5,0.7,0.7c-0.3-0.5-0.6-0.9-0.7-1.3l-0.1-0.1c0,0.1-0.1,0.1-0.6-0.3c0.2,0.1,0.3,0.3,0.4,0.4l-0.4-0.3
							c-0.1-0.2-0.2-0.5,0.3,0c0,0-0.1-0.2-0.2-0.3c0.1,0.1,0.3,0.3,0.5,0.5c0,0,0-0.1,0-0.1C82.3,124.5,81.8,124.1,81.8,124.1z"/>
						<path class="st1" d="M81.2,124.8C81.1,124.7,81.1,124.7,81.2,124.8l-0.2,0C81.3,125,81.2,124.9,81.2,124.8z"/>
					</g>
				</g>
			</g>
		</g>
	</g>
</g>
<g>
	<g>
		<path class="st2" d="M37.7,139.6"/>
	</g>
</g>
<g>
	<g>
		<g>
			<g>
				<g class="st0">
					<g>
						<path class="st1" d="M47.4,136.3c-0.1,0-0.2,0-0.3,0c0,0.1,0.1,0.2,0.1,0.3C47.3,136.7,47.3,136.4,47.4,136.3z"/>
						<path class="st1" d="M46.8,136.2C46.8,136.2,46.8,136.1,46.8,136.2C46.7,136.2,46.7,136.2,46.8,136.2
							C46.8,136.2,46.8,136.2,46.8,136.2z"/>
						<path class="st1" d="M46.3,136.4c0.1,0.1,0.2,0,0.3,0C46.5,136.3,46.4,136.3,46.3,136.4z"/>
						<path class="st1" d="M46.7,136.6c0-0.1,0-0.3,0-0.4c0,0,0,0,0,0c-0.1,0-0.1,0.1-0.2,0.1C46.6,136.4,46.7,136.5,46.7,136.6z"/>
						<path class="st1" d="M46.7,136.6c0,0.1,0.1,0.3,0.1,0.3C46.8,136.9,46.7,136.7,46.7,136.6z"/>
						<path class="st1" d="M46.6,140c-0.1,0.1,0-0.9-0.1-0.6c-0.2,0.3-0.4,0.7-0.7,0.7c-0.1,0.2-0.3-0.8-0.4-0.6
							c-0.2,0.3-0.9,1.6-0.5,1.5c0.5-0.1,0.9-0.4,1.4-0.6c0.4-0.4,0.8-0.8,1.2-1.2c0.1,0,0.2,0,0.3,0.1c-0.1-0.1-0.3-0.3-0.4-0.4
							C47.2,138.6,46.9,139.8,46.6,140z"/>
						<path class="st1" d="M49.5,136.8c-0.1,0.1-0.2,0.3-0.2,0.3c-0.2-0.7-0.5-0.4-0.7-0.2c0,0.2,0.1,0.3,0.1,0.5
							c0.1-0.1,0.2-0.3,0-0.5c0.3,0.6,0.5,0.7,0.8,0.6C49.6,137.3,49.6,137,49.5,136.8z"/>
						<path class="st1" d="M49.8,137.4c-0.1,0-0.1,0.1-0.2,0.1c0,0,0,0.1,0,0.1C49.7,137.6,49.7,137.5,49.8,137.4
							C49.8,137.5,49.8,137.5,49.8,137.4z"/>
						<path class="st1" d="M45.2,137.3c-0.7,0-1.3,0-1.9-0.1c0,0.2-0.1,0.4-0.1,0.3c0-0.2-0.1-0.3-0.1-0.3c-0.1,0-0.2,0-0.3-0.1
							c0,0-0.1,0-0.1,0.1c0,0,0,0,0,0c-0.1,0.1,0,0.3,0,0.4c0,0.1,0.1,0.2,0.1,0.3c0-0.1-0.1-0.2-0.1-0.3c0-0.1-0.1-0.2-0.1-0.3
							c-0.1,0.1-0.2,0.1-0.3,0c0.1-0.1,0.2-0.1,0.3,0c0.1,0,0.1-0.1,0.2-0.1c0,0,0-0.1,0-0.1c-0.2,0-0.4-0.1-0.6-0.1
							c0,0-0.1,0-0.1,0.1c-0.2,0.1-0.3,0.3-0.4-0.2c0,0-0.1,0-0.1,0c0,0,0,0.1,0,0.1c0,0,0-0.1,0-0.1c-0.2,0-0.3-0.1-0.5-0.1
							c-0.1,0.2-0.2,0.4-0.3,0.5c0,0-0.1-0.3-0.1-0.5c0,0.2-0.1,0.4-0.2,0.5c0.1,0.3,0.2,0.6,0.2,0.8c0.1,0.5,0.2-1,0.4-0.1
							c-0.1-0.9-0.3,0.5-0.4,0.1c-0.1-0.2-0.1-0.5-0.2-0.8c-0.1,0.2-0.3,0-0.5-0.5c0.2-0.4,0.4,0,0.5,0.5c0.1-0.1,0.1-0.2,0.2-0.5
							c0,0.2,0.1,0.5,0.1,0.5c0.1-0.1,0.2-0.4,0.3-0.5c-0.3-0.1-0.6-0.2-0.9-0.2c-2-0.6-3.9-0.5-6-1c-1.1-0.3-2.2-0.7-3.3-1.3
							c-2.2-1.1-4.1,0.2-6.3-2.3c-0.8-0.8-2.4-0.4-3.2-0.3c-1.1,1.6-0.5,5.7-0.5,5.9c0.7,3.5,1.2,1.6,2.5,3.6
							c-0.9-1.2,0.7-2.3,1.5,0.1c1.3,3.7,3.1,0.7,4.6,1.7c0.4,0.2,0.8,0.1,1.3,0.1c2.4,1.2,4.6-0.3,7.2,0c0.7,0,1.3-0.9,1.8-1.4
							c0.4-0.2,0.9,0.3,1.2,0.3c0.5,0,1-0.3,1.4-0.8c-0.5,0.2-0.8,0.4-1.4,0.6c-0.4,0.1,0.3-1.2,0.5-1.5c0.1-0.2,0.3,0.9,0.4,0.6
							c0.2,0,0.4-0.4,0.7-0.7c0.1-0.2,0.1,0.7,0.1,0.6c0.3-0.2,0.6-1.4,0.8-1.2c0.2,0.1,0.3,0.3,0.4,0.4c0.1,0.1,0.2,0.1,0.3,0.1
							c0.1-0.1,0.1-0.2,0.2-0.2c0-0.3-0.1-0.7-0.1-1c0.1,0.1,0.2,0.3,0.3,0.3c-0.1-0.1-0.2-0.3-0.3-0.3c0,0.4,0,0.7,0.1,1
							c0.4-0.6,0.9-1.1,1.4-1.5c0,0,0-0.1,0-0.1c-0.3,0.1-0.5,0-0.8-0.6c0.1,0.2,0.1,0.5,0,0.5c0-0.2-0.1-0.3-0.1-0.5
							c0.2-0.3,0.5-0.5,0.7,0.2c0,0,0.1-0.2,0.2-0.3c0.1,0.1,0.1,0.4,0.1,0.7c0.1,0,0.1,0,0.2-0.1C45.6,137.9,45.2,137.3,45.2,137.3
							z"/>
						<path class="st1" d="M42.5,137.3c0,0,0.1-0.1,0.1-0.1c-0.2,0-0.3-0.1-0.5-0.1C42.2,137.5,42.3,137.4,42.5,137.3z"/>
					</g>
				</g>
			</g>
		</g>
	</g>
</g>
<g>
	<g>
		<path class="st2" d="M62.9,118.4"/>
	</g>
</g>
<g>
	<g>
		<g>
			<g>
				<g class="st0">
					<g>
						<path class="st1" d="M66.6,111.4l-0.1,0c0.1,0,0.1,0.1,0.2,0.3C66.8,111.7,66.7,111.6,66.6,111.4z"/>
						<path class="st1" d="M66.4,111.4L66.4,111.4L66.4,111.4C66.4,111.5,66.4,111.4,66.4,111.4z"/>
						<path class="st1" d="M66.4,111.7C66.5,111.7,66.5,111.7,66.4,111.7C66.4,111.6,66.4,111.6,66.4,111.7z"/>
						<path class="st1" d="M66.6,111.8c-0.1-0.1-0.2-0.2-0.2-0.3l0,0c0,0,0,0.1,0,0.1C66.5,111.7,66.6,111.7,66.6,111.8z"/>
						<path class="st1" d="M66.6,111.8c0.1,0.1,0.2,0.2,0.2,0.3C66.8,112,66.7,111.9,66.6,111.8z"/>
						<path class="st1" d="M68.6,114.6c0.1,0.1-0.5-0.7-0.4-0.5c0.1,0.2,0.3,0.6,0.3,0.7c0.1,0.2-0.6-0.6-0.4-0.5
							c0.1,0.3,0.8,1.3,0.8,1.2c0-0.2-0.1-0.4-0.1-0.6c-0.2-0.4-0.4-0.8-0.5-1.1c0-0.1,0.1,0,0.1,0c-0.1-0.1-0.2-0.2-0.3-0.3
							C67.9,113.3,68.5,114.4,68.6,114.6z"/>
						<path class="st1" d="M67.4,111.5c0,0.1,0.1,0.3,0.1,0.3c-0.4-0.6-0.3-0.3-0.3,0l0.3,0.4c0-0.1-0.1-0.3-0.3-0.5
							c0.4,0.4,0.5,0.5,0.5,0.4C67.7,111.9,67.5,111.6,67.4,111.5z"/>
						<path class="st1" d="M67.8,112C67.8,112,67.8,112.1,67.8,112l0,0.2C67.9,112.1,67.9,112.1,67.8,112L67.8,112z"/>
						<path class="st1" d="M66.7,112.6c-0.1,0.1-0.3,0.2-0.5,0.3c0.1,0.2,0.2,0.3,0.2,0.2c-0.1-0.1-0.2-0.2-0.3-0.2l-0.1,0
							c0,0,0,0,0,0.1l0,0c0.1,0.1,0.2,0.2,0.3,0.3c0.1,0.1,0.2,0.2,0.3,0.2c-0.1-0.1-0.2-0.1-0.3-0.2c-0.1-0.1-0.2-0.1-0.2-0.2
							c0,0.1,0,0.1,0,0.1c-0.1-0.1,0-0.1,0-0.1c0,0,0-0.1-0.1-0.1l0-0.1c-0.1,0-0.1,0-0.2,0c0,0,0,0.1,0,0.1
							c0.1,0.1,0.1,0.2-0.2-0.1l0,0c0,0,0,0,0.1,0.1l-0.1-0.1l-0.2,0c0.1,0.2,0.2,0.3,0.3,0.5c0,0-0.2-0.2-0.4-0.3
							c0.2,0.2,0.3,0.3,0.3,0.4c0.2,0.2,0.5,0.4,0.6,0.5c0.4,0.3-0.6-0.7,0-0.1c-0.7-0.6,0.3,0.4,0,0.1c-0.1-0.1-0.4-0.3-0.6-0.5
							c0.1,0.2-0.1,0.1-0.4-0.2c-0.2-0.3,0.1-0.1,0.4,0.2c0-0.1-0.1-0.2-0.3-0.4c0.1,0.1,0.4,0.3,0.4,0.3c-0.1-0.1-0.2-0.3-0.3-0.5
							c-0.1,0-0.2,0-0.4,0c-0.9,0-1.2,0.5-2,0.8c-0.4,0.1-1,0.2-1.7,0.2c-0.7,0-0.8,0.4-1.1,0.7c-0.3,0.3-0.7,0.5-2,0.4
							c-0.9,0-0.7,0.8-0.8,1.2c1.4,0.9,5.4,1.9,5.6,2c3.4,1,1.6,0.2,3.6,0.7c-1.2-0.2-2-1,0.2-0.2c1.7,0.6,1.9,0.7,1.8,0.5
							c-0.1-0.2-0.5-0.5,0-0.4c0.2,0.1,0.1-0.1,0.2-0.1c0.6,0.2,0.6,0,0.6-0.2c-0.1-0.2-0.2-0.6,0-0.6c0.1-0.1-0.5-0.7-0.8-1.2
							c-0.1-0.2,0.3,0.1,0.4,0.1c0.1-0.1-0.1-0.4-0.3-0.7c0.1,0.2,0.2,0.4,0.2,0.6c0,0.1-0.8-0.9-1-1.1c-0.1-0.2,0.6,0.6,0.5,0.4
							c0,0-0.2-0.4-0.4-0.6c-0.1-0.2,0.5,0.5,0.4,0.5c-0.1-0.2-0.9-1.2-0.7-1c0.1,0.1,0.2,0.2,0.4,0.3c0,0,0.1,0,0.1,0l-0.1-0.2
							c-0.2-0.2-0.4-0.5-0.7-0.8c0,0,0.2,0.2,0.3,0.2c0,0-0.2-0.2-0.3-0.2c0.2,0.3,0.5,0.5,0.7,0.8c-0.3-0.5-0.5-1-0.7-1.4l-0.1-0.1
							c0,0.1-0.1,0.1-0.5-0.3c0.2,0.1,0.3,0.4,0.3,0.4l-0.3-0.4c-0.1-0.2-0.2-0.5,0.2,0c0,0-0.1-0.2-0.2-0.3
							c0.1,0.1,0.3,0.3,0.4,0.5c0,0,0-0.1,0-0.1C67.1,113,66.7,112.6,66.7,112.6z"/>
						<path class="st1" d="M66.1,113.1C66,113.1,66,113,66.1,113.1l-0.2-0.1C66.2,113.3,66.1,113.2,66.1,113.1z"/>
					</g>
				</g>
			</g>
		</g>
	</g>
</g>
<g>
	<g>
		<g>
			<g>
				<g class="st0">
					<g>
						<path class="st1" d="M161.4,78.4c0.8,0.3,1.6,0.5,2.4,0.8c-0.4-0.2-0.8-0.4-1.1-0.7C162.1,78.2,161.8,78.3,161.4,78.4z"/>
						<path class="st1" d="M166,79.8c0.1,0,0.3,0.1,0.4,0.1c0.1,0,0.3,0,0.4,0C166.6,79.9,166.3,79.9,166,79.8z"/>
						<path class="st1" d="M170.5,80.2c-0.8-0.1-1.5-0.1-2.3-0.2C168.8,80.1,169.6,80.3,170.5,80.2z"/>
						<path class="st1" d="M167,79.5c0.2,0.2,0.4,0.4-0.1,0.4l0,0c0.5,0,0.9,0.1,1.4,0.1C167.7,79.9,167.3,79.7,167,79.5z"/>
						<path class="st1" d="M167,79.5c-0.2-0.2-0.6-0.4-0.7-0.5C166.5,79.2,166.7,79.4,167,79.5z"/>
						<path class="st1" d="M168.6,76.4c0.4-0.1,0.2,0.9,1,0.8c1.9-0.1,3.4-0.6,5.2-0.7c0.8-0.3,2.2,0.6,2.9,0.3
							c0.9-0.3,2.5-1,3.5-1.6c1-0.6,1.3-1,0-0.6c-2,0.6-3.7,1-5.4,1.3c-1.7,0.3-3.3,0.5-5.1,0.5c-3,0.3-5.9-0.1-9.3-0.8
							c-0.9-0.2-1.8-0.6-2.6-0.9c1.1,0.5,2.2,1,3.4,1.5C163.8,76.7,166.2,76.2,168.6,76.4z"/>
						<path class="st1" d="M144,73.8c0.4-0.1,1.3-0.2,1.3-0.2c1.8,1,3.8,1,5.8,1.2c-0.3-0.2-0.5-0.4-0.8-0.6
							c-1.1-0.2-1.3,0.1-0.4,0.5c-2.2-1-4.3-1.5-6.6-1.6C143.5,73.3,143.4,73.6,144,73.8z"/>
						<path class="st1" d="M142.1,72.9c0.4,0,0.9,0.1,1.3,0.1c0,0,0-0.1,0-0.1C142.9,72.9,142.5,72.9,142.1,72.9L142.1,72.9z"/>
						<path class="st1" d="M179.6,78.5c5.6-1.1,10.6-3.3,15.4-5.5c0.3-0.3,0.4-0.7,1-0.8c0.4,0,0.9-0.1,1.3-0.2
							c0.7-0.3,1.3-0.6,2-0.8c0.2-0.1,0.5-0.2,0.7-0.3c0,0,0,0,0,0c0.4-0.2,0.3-0.4,0-0.4c-0.3,0-0.5,0-0.8-0.1c0.2,0,0.5,0,0.8,0.1
							c0.3,0,0.7,0,1.1,0c0.7-0.2,1.4-0.3,2.1-0.1c-0.9,0-1.5,0.1-2.1,0.1c-0.4,0.1-0.8,0.3-1.2,0.5c-0.1,0.1-0.2,0.1-0.3,0.2
							c0.8-0.2,1.5-0.5,2.3-0.5c0.8,0,1.6,0.1,2.2,0.6c0.2,0.1,0.3,0.2,0.4,0.3c0.1,0.1,0.3,0.2,0.3,0.3c0.8,0.8,1,2,0.5,2.9
							c0,0.3,0,0.5,0,0.8l0.1-0.2c0,0.1-0.1,0.2-0.1,0.3c-0.1,0.6-0.2,1.1-0.3,1.7l-0.2,0.8l-0.3,0.9c0,0.9-0.1,1.8-0.2,2.6
							c0,0-0.5,0.5-0.7,0.7c0.1,0.4,0.2,0.9,0.1,1.5c0.5-0.6,0.9-1.1,1.3-1.7c0.7-0.7-0.4-2.2,0.8-2.9c-1.1,0.8-0.1,2.2-0.8,2.9
							c-0.3,0.5-0.8,1.1-1.3,1.7c-0.2,1.2-0.7,2.8-1.5,3.9c0-1.7,0.7-2.9,1.5-3.9c0.1-0.6,0.1-1.1-0.1-1.5c0.2-0.2,0.7-0.7,0.7-0.7
							c0.1-0.9,0.1-1.8,0.2-2.6c-0.7,2.4-1.6,4.9-2.3,7.5c-2.4,8.3-3.8,16.5-4.8,24.8c-0.5,4.2-0.8,8.3-1.2,12.6
							c-0.3,4.2-0.7,8.5-1.3,12.8c-0.7,4.6-1.7,9.2-4,12.3c-1.1,1.6-2.5,2.7-4.2,3.4c-0.4,0.2-0.8,0.4-1.2,0.5
							c-0.4,0.1-0.7,0.2-1.1,0.2c-0.8,0.1-1.9,0.1-2.9,0c-4.3-0.2-8.8-0.6-13.1-0.8c-4.4-0.2-8.6-0.4-12.9-0.7
							c-8.5-0.6-17.2-1.5-25.6-4c-3.2-1-7.9-1.9-12.1-3.3c-2.1-0.7-4.1-1.4-5.7-2.2c-1.6-0.8-2.8-1.7-3.5-2.3
							c-1.2-0.6-1.9-0.9-2.6-1.2c-0.7-0.2-1.5-0.2-2,0c-0.6,0.2-1.1,0.6-1.4,1.1c-0.3,0.5-0.5,0.9-0.5,1c-0.2,1.6,0.2,3.2,1.1,4.5
							c0.4,0.7,0.9,1.3,1.5,1.9c0.6,0.5,1.2,1.1,2,1.6c2.9,2,6.7,3.7,12.2,6.1c-1.9-0.8-2.4-1.3-2.1-1.4c0.4-0.1,1.6,0,3.2,0.4
							c3.3,0.7,8.4,2,12,3.6c5.1,2.6,11.7,3.4,18.5,3.6c6.8,0.3,13.9,0,20.4,0.7c3.3,0.3,6.6,0.3,10.9,0.3c1.4,0,2.9,0.1,4.8-0.3
							c0.9-0.2,2-0.5,2.9-0.8c0.9-0.3,1.6-0.8,2.4-1.2c3.1-1.7,5.7-4.6,7.3-7.5c1.6-2.9,2.4-5.9,3-8.6c0.6-2.8,0.8-5.4,1.1-8
							c0.4-5.1,0.5-10.1,0.8-15.1c0.3-5,0.7-10,1.4-15.1c0.7-5.4,0.7-10.2,1.3-14.8c0.3-1.7,0.8-3.3,1.3-4.9c0.5-1.6,1-3,1.5-4.5
							c0.2-0.6,0.3-1.2,0.4-1.8l0.1-0.4l0.1-0.6c0.1-0.4,0.2-0.9,0.2-1.3c0.2-1.8,0.2-3.4-0.1-4.9c-0.3-1.5-0.9-2.8-1.8-3.8
							c-0.9-1-2.1-1.9-3.4-2.2c1.4,0.4,2.5,1.4,3.4,2.4c0.8,1.1,1.3,2.3,1.6,3.6c0.3,1.4,0.3,2.9,0.1,4.5c-0.1,0.4-0.1,0.8-0.2,1.2
							c-0.1,0.4-0.1,0.8-0.2,1.2c-0.1,0.6-0.2,1.2-0.4,1.8c-0.4,1.6-0.5,0.9-0.6-0.3c0-0.3,0-0.7,0-1.1c0-0.4,0-0.8,0-1.3
							c0.1-1.1,0-2.1,0-2.8c-0.1-0.6,0.2-1.4,0.3-2.3c0.1-0.9,0.1-1.7-0.2-2.3c-0.2-0.6-0.5-1.2-0.9-1.7c-0.4-0.5-0.9-0.9-1.3-1.3
							c-1-0.7-2.4-1.1-3.7-1c-1.2,0.2-0.8-0.8-1.4-0.6c-2,0.3-3.7,1.4-5,2.3c-0.7,0.5-1,0.8-1.4,1.1c-0.4,0.3-0.8,0.5-1.2,0.6
							c-1.3,0.4-2.4,0.8-3.5,1.1c-0.7,0.2-1.3,0.5-2,0.8c-0.4,0.2-0.8,0.5-1.2,0.8c0.5,0.1,0.7,0.4,1,0.7c-0.7,0.2-1.7,0.4-2.3,0.6
							c0.7-0.2,1.7-0.3,2.3-0.6c-0.3-0.3-0.5-0.6-1-0.7c-3,1.8-6.7,3.4-10.4,4.3c0,0,0,0.1,0.1,0.1c2.2-0.4,4.3-0.8,6.7-0.9
							c-1,0.1-1-0.2,0.1-0.6c0.3,0.1,0.7,0.1,1,0.2c-1.8,0.9-3.7,1.6-5.7,1.3c0,0-0.8,0.4-1.2,0.5c-0.6,0-0.7-0.3-0.8-0.6
							c-0.4,0.1-0.9,0.2-1.3,0.2c0.5,0.2,1.5,0.3,2.4,0.4C178.9,78.5,179.6,78.5,179.6,78.5z"/>
						<path class="st1" d="M201.1,70.5c-0.3,0.1-0.6,0.2-1,0.4c1.3-0.4,2.7-0.6,3.9,0.2c-0.1-0.4-0.5-0.8-1.1-0.8
							C202.3,70.2,201.7,70.3,201.1,70.5z"/>
					</g>
				</g>
			</g>
		</g>
	</g>
</g>
<g>
	<g>
		<g>
			<g>
				<g class="st0">
					<g>
						<path class="st1" d="M133.5,102.7l-0.2,0.1c0.1,0,0.2,0.1,0.3,0.2C133.7,103,133.6,102.8,133.5,102.7z"/>
						<path class="st1" d="M133.1,102.8L133.1,102.8l0,0.1C133.1,102.9,133.1,102.9,133.1,102.8z"/>
						<path class="st1" d="M132.9,103.3c0.1,0,0.1-0.1,0.1-0.2C133,103.1,132.9,103.1,132.9,103.3z"/>
						<path class="st1" d="M133.3,103.3c-0.1-0.1-0.2-0.2-0.2-0.3l0,0c0,0.1,0,0.1,0,0.2C133.1,103.1,133.2,103.2,133.3,103.3z"/>
						<path class="st1" d="M133.3,103.3c0.1,0.1,0.2,0.2,0.3,0.2C133.5,103.4,133.4,103.3,133.3,103.3z"/>
						<path class="st1" d="M135.4,106c0,0.1-0.6-0.7-0.5-0.4c0,0.3,0.2,0.7,0.1,0.9c0.1,0.2-0.7-0.5-0.6-0.3c0,0.3,0.5,1.6,0.7,1.4
							c0.2-0.4,0.2-0.7,0.4-1.1c0-0.5-0.1-1-0.1-1.5c0-0.1,0.1-0.1,0.2-0.1c-0.2-0.1-0.3-0.1-0.5-0.1
							C134.8,104.6,135.4,105.7,135.4,106z"/>
						<path class="st1" d="M135.2,102.1c0,0.1,0.1,0.3,0.1,0.3c-0.6-0.5-0.5-0.1-0.5,0.2l0.4,0.3c0.1-0.1-0.1-0.3-0.3-0.4
							c0.5,0.3,0.7,0.3,0.8,0.1C135.5,102.4,135.3,102.2,135.2,102.1z"/>
						<path class="st1" d="M135.7,102.5c0,0,0,0.1,0,0.1l0.1,0.1C135.7,102.6,135.7,102.6,135.7,102.5L135.7,102.5z"/>
						<path class="st1" d="M132.9,104.5c-0.4,0.4-0.8,0.6-1.2,0.9c0.1,0.2,0.2,0.3,0.1,0.3c-0.1-0.1-0.2-0.2-0.3-0.2l-0.2,0.1
							c0,0,0,0.1,0,0.1l0,0c0,0.1,0.1,0.2,0.3,0.3c0.1,0.1,0.2,0.1,0.3,0.2c-0.1,0-0.2-0.1-0.3-0.2c-0.1-0.1-0.2-0.1-0.3-0.1
							c0,0.1,0,0.2-0.1,0.2c0-0.1,0-0.2,0.1-0.2c0-0.1,0-0.1,0-0.2l0-0.1l-0.4,0.2c0,0,0,0.1,0,0.1c0,0.2,0,0.3-0.4,0l-0.1,0
							c0,0,0,0,0.1,0.1l-0.1,0l-0.4,0.2c0.1,0.2,0.2,0.4,0.2,0.6c0,0-0.3-0.2-0.4-0.3c0.1,0.2,0.2,0.3,0.2,0.4
							c0.2,0.2,0.5,0.4,0.7,0.5c0.4,0.3-0.5-0.8,0.2-0.2c-0.7-0.6,0.2,0.5-0.2,0.2c-0.2-0.1-0.4-0.3-0.7-0.5c0,0.2-0.2,0.2-0.6-0.1
							c-0.2-0.4,0.2-0.2,0.6,0.1c0-0.1-0.1-0.2-0.2-0.4c0.1,0.1,0.4,0.3,0.4,0.3c0-0.2-0.1-0.4-0.2-0.6c-0.2,0.1-0.5,0.2-0.7,0.3
							c-1.6,0.6-2.5,1.8-4,2.7c-0.8,0.5-1.7,0.8-2.7,1.1c-2,0.6-2,2.6-5,2.6c-1.1,0.1-1.5,1.4-1.8,2c0.8,1.6,4.5,3.5,4.7,3.6
							c3.2,1.5,1.8,0.1,4,0.5c-1.3-0.1-1.5-1.7,0.8-0.8c3.5,1.5,1.9-1.3,3.3-1.5c0.3-0.1,0.4-0.4,0.7-0.6c2-0.4,1.9-2.6,3.4-3.6
							c0.3-0.3,0-1.3,0-1.9c0.1-0.3,0.6-0.2,0.8-0.4c0.3-0.3,0.3-0.7,0.2-1.2c-0.1,0.4-0.2,0.7-0.3,1.1c-0.2,0.2-0.7-1-0.7-1.3
							c-0.1-0.2,0.7,0.5,0.6,0.3c0.1-0.1-0.1-0.5-0.1-0.8c-0.1-0.2,0.5,0.5,0.5,0.4c0-0.3-0.6-1.4-0.3-1.3c0.2,0,0.4,0.1,0.5,0.1
							c0.1,0,0.2,0,0.2-0.1l-0.1-0.3c-0.2-0.2-0.5-0.5-0.7-0.7c0.1,0,0.3,0.1,0.4,0.1c-0.1,0-0.3-0.1-0.4-0.1
							c0.2,0.3,0.5,0.5,0.7,0.7c-0.1-0.6-0.2-1.3-0.2-1.8l-0.1-0.1c-0.1,0.2-0.3,0.3-0.8-0.1c0.2,0.1,0.4,0.3,0.3,0.4l-0.4-0.3
							c0-0.3-0.1-0.6,0.5-0.2c0,0-0.1-0.2-0.1-0.3c0.1,0.1,0.3,0.3,0.5,0.5c0,0,0-0.1,0-0.1C133.4,104.8,132.9,104.5,132.9,104.5z"
							/>
						<path class="st1" d="M131.2,105.8c0,0,0-0.1,0-0.1l-0.4,0.2C131.2,106.2,131.2,106,131.2,105.8z"/>
					</g>
				</g>
			</g>
		</g>
	</g>
</g>
<g>
	<g>
		<g>
			<g>
				<g class="st0">
					<g>
						<path class="st1" d="M160.8,86.7c0,0-0.1,0-0.1,0c0,0.1,0.1,0.1,0.2,0.3C160.9,87.1,160.9,86.9,160.8,86.7z"/>
						<path class="st1" d="M160.6,86.7C160.6,86.7,160.6,86.7,160.6,86.7C160.6,86.7,160.6,86.7,160.6,86.7
							C160.6,86.7,160.6,86.7,160.6,86.7z"/>
						<path class="st1" d="M160.5,87C160.5,87,160.6,87,160.5,87C160.5,86.8,160.5,86.8,160.5,87z"/>
						<path class="st1" d="M160.7,87.1c-0.1-0.1-0.1-0.3-0.1-0.4c0,0,0,0,0,0c0,0,0,0.1,0,0.1C160.6,86.9,160.7,87,160.7,87.1z"/>
						<path class="st1" d="M160.7,87.1c0.1,0.1,0.1,0.2,0.2,0.3C160.8,87.3,160.8,87.2,160.7,87.1z"/>
						<path class="st1" d="M161.9,90.3c0,0.1-0.3-0.8-0.3-0.6c0,0.3,0.1,0.7,0,0.7c0,0.2-0.4-0.8-0.4-0.5c0,0.3,0.3,1.6,0.4,1.5
							c0.1-0.2,0.2-0.5,0.3-0.7c0-0.4,0-0.9,0-1.3c0-0.1,0.1,0,0.1,0c-0.1-0.1-0.2-0.2-0.3-0.3C161.6,88.9,162,90,161.9,90.3z"/>
						<path class="st1" d="M161.8,86.9c0,0.1,0.1,0.3,0.1,0.3c-0.3-0.6-0.3-0.3-0.3,0c0.1,0.1,0.1,0.3,0.2,0.4
							c0-0.1-0.1-0.3-0.2-0.5c0.3,0.5,0.4,0.5,0.5,0.4C161.9,87.3,161.8,87,161.8,86.9z"/>
						<path class="st1" d="M162.1,87.5C162.1,87.5,162.1,87.5,162.1,87.5c0,0.1,0,0.1,0,0.2C162.1,87.6,162.1,87.5,162.1,87.5
							C162.1,87.5,162.1,87.5,162.1,87.5z"/>
						<path class="st1" d="M160.4,87.9c-0.2,0.1-0.5,0.2-0.7,0.2c0.1,0.2,0.1,0.4,0.1,0.3c-0.1-0.1-0.1-0.2-0.2-0.3c0,0-0.1,0-0.1,0
							c0,0,0,0.1,0,0.1c0,0,0,0,0,0c0,0.1,0.1,0.2,0.1,0.4c0,0.1,0.1,0.2,0.2,0.3c0-0.1-0.1-0.2-0.2-0.3c-0.1-0.1-0.1-0.2-0.2-0.2
							c0,0.1,0,0.1-0.1,0.1c0-0.1,0-0.1,0.1-0.1c0,0,0-0.1,0-0.1c0,0,0-0.1,0-0.1c-0.1,0-0.2,0-0.3,0c0,0,0,0.1,0,0.1
							c0,0.1,0,0.3-0.2-0.1c0,0,0,0,0,0c0,0,0,0,0,0.1c0,0,0-0.1,0-0.1c-0.1,0-0.1,0-0.2,0c0,0.2,0.1,0.4,0.1,0.5
							c0,0-0.1-0.3-0.2-0.4c0.1,0.2,0.1,0.4,0.1,0.5c0.1,0.3,0.3,0.5,0.4,0.7c0.2,0.4-0.3-0.9,0.1-0.1c-0.4-0.8,0.1,0.5-0.1,0.1
							c-0.1-0.2-0.2-0.5-0.4-0.7c0,0.2-0.1,0-0.3-0.4c-0.1-0.4,0.1-0.1,0.3,0.4c0-0.1,0-0.2-0.1-0.5c0.1,0.1,0.2,0.4,0.2,0.4
							c0-0.1-0.1-0.4-0.1-0.5c-0.1,0-0.3-0.1-0.4-0.1c-0.9-0.3-1.5,0.1-2.4-0.1c-0.5-0.1-1-0.3-1.6-0.7c-1.2-0.7-1.4,0.7-3-1.2
							c-0.6-0.7-1,0-1.2,0.2c0.2,1.6,1.9,5.4,2,5.6c1.5,3.2,1,1.3,2.2,3c-0.8-1-0.6-2.2,0.6-0.1c1.8,3.2,1.3,0.3,2.2,0.9
							c0.2,0.2,0.3,0,0.5,0c1.3,0.8,1.5-0.9,2.5-1c0.2-0.1,0.1-1,0.1-1.5c0.1-0.2,0.4,0.2,0.5,0.1c0.2-0.1,0.2-0.5,0.2-0.9
							c-0.1,0.2-0.1,0.5-0.3,0.7c-0.1,0.1-0.4-1.2-0.4-1.5c0-0.2,0.4,0.8,0.4,0.5c0.1,0,0-0.5,0-0.7c0-0.2,0.3,0.7,0.3,0.6
							c0-0.2-0.3-1.4-0.2-1.2c0.1,0.1,0.2,0.2,0.3,0.3c0,0,0.1,0.1,0.1,0c0-0.1,0-0.2,0-0.2c-0.1-0.3-0.3-0.6-0.4-0.9
							c0,0,0.2,0.2,0.2,0.3c0,0-0.2-0.2-0.2-0.3c0.1,0.3,0.3,0.7,0.4,0.9C161,90,161,89.5,161,89c0,0,0-0.1,0-0.1
							c-0.1,0.1-0.2,0.1-0.5-0.4c0.1,0.2,0.2,0.4,0.2,0.5c-0.1-0.1-0.1-0.3-0.2-0.4c0-0.3,0-0.6,0.3,0c0,0,0-0.2-0.1-0.3
							c0.1,0.1,0.2,0.4,0.3,0.6c0,0,0-0.1,0-0.1C160.8,88.4,160.4,87.9,160.4,87.9z"/>
						<path class="st1" d="M159.5,88.3C159.5,88.3,159.5,88.2,159.5,88.3c-0.1-0.1-0.1-0.1-0.2-0.1
							C159.5,88.6,159.5,88.4,159.5,88.3z"/>
					</g>
				</g>
			</g>
		</g>
	</g>
</g>
<g>
	<g>
		<g>
			<g>
				<g class="st0">
					<g>
						<path class="st1" d="M156.6,123.2l-0.1,0c0.1,0,0.1,0.1,0.3,0.2C156.8,123.5,156.7,123.4,156.6,123.2z"/>
						<path class="st1" d="M156.4,123.3L156.4,123.3L156.4,123.3C156.4,123.3,156.4,123.3,156.4,123.3z"/>
						<path class="st1" d="M156.4,123.6C156.4,123.6,156.4,123.5,156.4,123.6C156.3,123.4,156.3,123.5,156.4,123.6z"/>
						<path class="st1" d="M156.6,123.7c-0.1-0.1-0.2-0.2-0.2-0.3l0,0c0,0,0,0.1,0,0.1C156.5,123.5,156.5,123.6,156.6,123.7z"/>
						<path class="st1" d="M156.6,123.7c0.1,0.1,0.2,0.2,0.2,0.3C156.8,123.8,156.7,123.7,156.6,123.7z"/>
						<path class="st1" d="M158.7,126.3c0.1,0.1-0.5-0.7-0.4-0.5c0.1,0.2,0.4,0.6,0.3,0.6c0.1,0.2-0.6-0.6-0.5-0.4
							c0.1,0.3,0.9,1.3,0.9,1.2c0-0.2-0.1-0.4-0.2-0.6c-0.2-0.3-0.4-0.8-0.5-1.1c0-0.1,0.1,0,0.1,0c-0.1-0.1-0.2-0.2-0.4-0.3
							C157.9,125.1,158.6,126.1,158.7,126.3z"/>
						<path class="st1" d="M157.6,123.2c0,0.1,0.1,0.3,0.1,0.3c-0.4-0.5-0.4-0.3-0.3,0l0.3,0.4c0-0.1-0.1-0.3-0.3-0.4
							c0.4,0.4,0.5,0.5,0.5,0.3C157.8,123.6,157.6,123.3,157.6,123.2z"/>
						<path class="st1" d="M158,123.7C158,123.7,158,123.8,158,123.7l0,0.2C158,123.8,158,123.8,158,123.7L158,123.7z"/>
						<path class="st1" d="M156.6,124.5c-0.1,0.2-0.3,0.3-0.5,0.4c0.1,0.1,0.3,0.3,0.2,0.2c-0.1-0.1-0.2-0.2-0.3-0.2l-0.1,0
							c0,0,0,0,0,0.1l0,0c0.1,0.1,0.2,0.2,0.3,0.3c0.1,0.1,0.2,0.1,0.3,0.2c-0.1,0-0.2-0.1-0.3-0.2c-0.1-0.1-0.2-0.1-0.2-0.1
							c0,0.1,0,0.1,0,0.1c-0.1-0.1,0-0.1,0-0.1c0,0,0-0.1-0.1-0.1l-0.1-0.1c-0.1,0-0.2,0-0.2,0.1c0,0,0,0.1,0,0.1
							c0.1,0.1,0.1,0.2-0.2,0c0,0,0,0,0,0c0,0,0,0,0.1,0l-0.1,0l-0.2,0c0.1,0.1,0.3,0.3,0.4,0.4c0,0-0.3-0.2-0.4-0.3
							c0.2,0.2,0.3,0.3,0.3,0.3c0.2,0.2,0.5,0.3,0.7,0.4c0.4,0.3-0.7-0.7,0-0.1c-0.7-0.5,0.4,0.4,0,0.1c-0.2-0.1-0.4-0.3-0.7-0.4
							c0.1,0.1-0.1,0.1-0.5-0.1c-0.3-0.3,0.1-0.1,0.5,0.1c0-0.1-0.2-0.2-0.3-0.3c0.1,0.1,0.4,0.3,0.4,0.3c-0.1-0.1-0.2-0.3-0.4-0.4
							c-0.1,0-0.3,0.1-0.4,0.1c-1,0.2-1.2,0.9-2,1.5c-0.4,0.3-1,0.6-1.7,0.8c-0.7,0.3-0.8,0.8-1,1.2c-0.2,0.5-0.6,0.9-1.8,1.3
							c-0.9,0.4-0.5,1.3-0.3,1.7c1.6,0.5,5.7-0.1,5.9-0.1c1.7-0.2,2.1-0.3,2.3-0.4c0.2-0.1,0.2-0.2,1.3-0.3c-0.6,0.1-1.2,0-1.3-0.1
							c-0.1-0.1,0.2-0.2,1.4-0.2c1.8,0.1,2,0.1,1.9-0.1c-0.1-0.1-0.6-0.3-0.1-0.3c0.2,0,0.1-0.1,0.2-0.1c0.6,0.1,0.6-0.1,0.5-0.3
							c-0.1-0.2-0.3-0.5-0.1-0.6c0-0.1-0.7-0.6-1-1c-0.1-0.2,0.3,0.1,0.4,0c0-0.1-0.2-0.3-0.4-0.7c0.1,0.2,0.2,0.4,0.3,0.6
							c0,0.1-0.9-0.8-1.1-1c-0.1-0.2,0.7,0.5,0.5,0.4c0,0-0.3-0.3-0.4-0.6c-0.1-0.2,0.6,0.5,0.5,0.4c-0.1-0.2-1-1.1-0.7-0.9
							c0.1,0.1,0.3,0.2,0.4,0.2c0.1,0,0.1,0,0.1,0l-0.1-0.2c-0.2-0.2-0.5-0.5-0.7-0.7c0.1,0,0.2,0.1,0.3,0.2c-0.1,0-0.2-0.2-0.3-0.2
							c0.3,0.3,0.5,0.5,0.7,0.7c-0.3-0.5-0.6-0.9-0.7-1.3l-0.1-0.1c0,0.1-0.1,0.1-0.6-0.3c0.2,0.1,0.3,0.3,0.4,0.4l-0.4-0.3
							c-0.1-0.2-0.2-0.5,0.3,0c0,0-0.1-0.2-0.2-0.3c0.1,0.1,0.3,0.3,0.5,0.5c0,0,0-0.1,0-0.1C157.1,124.9,156.6,124.5,156.6,124.5z"
							/>
						<path class="st1" d="M156,125.1C156,125.1,155.9,125.1,156,125.1l-0.2,0C156.1,125.4,156,125.2,156,125.1z"/>
					</g>
				</g>
			</g>
		</g>
	</g>
</g>
<g>
	<g>
		<path class="st2" d="M100.2,139.9"/>
	</g>
</g>
<g>
	<g>
		<path class="st2" d="M137.8,118.7"/>
	</g>
</g>
<g>
	<g>
		<g>
			<g>
				<g class="st0">
					<g>
						<path class="st1" d="M141.4,111.7l-0.1,0c0.1,0,0.1,0.1,0.2,0.3C141.6,112.1,141.5,111.9,141.4,111.7z"/>
						<path class="st1" d="M141.2,111.8L141.2,111.8L141.2,111.8C141.2,111.8,141.2,111.8,141.2,111.8z"/>
						<path class="st1" d="M141.2,112.1C141.3,112.1,141.3,112,141.2,112.1C141.2,111.9,141.2,111.9,141.2,112.1z"/>
						<path class="st1" d="M141.4,112.2c-0.1-0.1-0.2-0.2-0.2-0.3l0,0c0,0,0,0.1,0,0.1C141.3,112,141.4,112.1,141.4,112.2z"/>
						<path class="st1" d="M141.4,112.2c0.1,0.1,0.2,0.2,0.2,0.3C141.6,112.3,141.5,112.2,141.4,112.2z"/>
						<path class="st1" d="M143.4,114.9c0.1,0.1-0.5-0.7-0.4-0.5c0.1,0.2,0.3,0.6,0.3,0.7c0.1,0.2-0.6-0.6-0.4-0.5
							c0.1,0.3,0.8,1.3,0.8,1.2c0-0.2-0.1-0.4-0.1-0.6c-0.2-0.4-0.4-0.8-0.5-1.1c0-0.1,0.1,0,0.1,0c-0.1-0.1-0.2-0.2-0.3-0.3
							C142.7,113.7,143.3,114.7,143.4,114.9z"/>
						<path class="st1" d="M142.3,111.9c0,0.1,0.1,0.3,0.1,0.3c-0.4-0.6-0.3-0.3-0.3,0l0.3,0.4c0-0.1-0.1-0.3-0.3-0.5
							c0.4,0.4,0.5,0.5,0.5,0.4C142.5,112.2,142.3,112,142.3,111.9z"/>
						<path class="st1" d="M142.6,112.4C142.6,112.4,142.6,112.4,142.6,112.4l0,0.2C142.7,112.5,142.7,112.4,142.6,112.4
							L142.6,112.4z"/>
						<path class="st1" d="M141.5,112.9c-0.1,0.1-0.3,0.2-0.5,0.3c0.1,0.2,0.2,0.3,0.2,0.2c-0.1-0.1-0.2-0.2-0.3-0.2l-0.1,0
							c0,0,0,0,0,0.1l0,0c0.1,0.1,0.2,0.2,0.3,0.3c0.1,0.1,0.2,0.2,0.3,0.2c-0.1-0.1-0.2-0.1-0.3-0.2c-0.1-0.1-0.2-0.1-0.2-0.2
							c0,0.1,0,0.1,0,0.1c-0.1-0.1,0-0.1,0-0.1c0,0,0-0.1-0.1-0.1l0-0.1c-0.1,0-0.1,0-0.2,0c0,0,0,0.1,0,0.1
							c0.1,0.1,0.1,0.2-0.2-0.1l0,0c0,0,0,0,0.1,0.1l-0.1-0.1l-0.2,0c0.1,0.2,0.2,0.3,0.3,0.5c0,0-0.2-0.2-0.4-0.3
							c0.2,0.2,0.3,0.3,0.3,0.4c0.2,0.2,0.5,0.4,0.6,0.5c0.4,0.3-0.6-0.7,0-0.1c-0.7-0.6,0.3,0.4,0,0.1c-0.1-0.1-0.4-0.3-0.6-0.5
							c0.1,0.2-0.1,0.1-0.4-0.2c-0.2-0.3,0.1-0.1,0.4,0.2c0-0.1-0.1-0.2-0.3-0.4c0.1,0.1,0.4,0.3,0.4,0.3c-0.1-0.1-0.2-0.3-0.3-0.5
							c-0.1,0-0.2,0-0.4,0c-0.9,0-1.2,0.5-2,0.8c-0.4,0.1-1,0.2-1.7,0.2c-0.7,0-0.8,0.4-1.1,0.7c-0.3,0.3-0.7,0.5-2,0.4
							c-0.9,0-0.7,0.8-0.8,1.2c1.4,0.9,5.4,1.9,5.6,2c3.4,1,1.6,0.2,3.6,0.7c-1.2-0.2-2-1,0.2-0.2c1.7,0.6,1.9,0.7,1.8,0.5
							c-0.1-0.2-0.5-0.5,0-0.4c0.2,0.1,0.1-0.1,0.2-0.1c0.6,0.2,0.6,0,0.6-0.2c-0.1-0.2-0.2-0.6,0-0.6c0.1-0.1-0.5-0.7-0.8-1.2
							c-0.1-0.2,0.3,0.1,0.4,0.1c0.1-0.1-0.1-0.4-0.3-0.7c0.1,0.2,0.2,0.4,0.2,0.6c0,0.1-0.8-0.9-1-1.1c-0.1-0.2,0.6,0.6,0.5,0.4
							c0,0-0.2-0.4-0.4-0.6c-0.1-0.2,0.5,0.5,0.4,0.5c-0.1-0.2-0.9-1.2-0.7-1c0.1,0.1,0.2,0.2,0.4,0.3c0,0,0.1,0,0.1,0l-0.1-0.2
							c-0.2-0.2-0.4-0.5-0.7-0.8c0,0,0.2,0.2,0.3,0.2c0,0-0.2-0.2-0.3-0.2c0.2,0.3,0.5,0.5,0.7,0.8c-0.3-0.5-0.5-1-0.7-1.4l-0.1-0.1
							c0,0.1-0.1,0.1-0.5-0.3c0.2,0.1,0.3,0.4,0.3,0.4l-0.3-0.4c-0.1-0.2-0.2-0.5,0.2,0c0,0-0.1-0.2-0.2-0.3
							c0.1,0.1,0.3,0.3,0.4,0.5c0,0,0-0.1,0-0.1C141.9,113.4,141.5,112.9,141.5,112.9z"/>
						<path class="st1" d="M140.9,113.4C140.8,113.4,140.8,113.4,140.9,113.4l-0.2-0.1C141,113.7,140.9,113.6,140.9,113.4z"/>
					</g>
				</g>
			</g>
		</g>
	</g>
</g>
<g>
	<g>
		<g>
			<g>
				<g class="st0">
					<g>
						<path class="st1" d="M75.2,66c0.3-0.4,0.7-0.9,1-1.3c-0.2,0.2-0.5,0.4-0.8,0.5C75.1,65.4,75.2,65.6,75.2,66z"/>
						<path class="st1" d="M77.1,63.4c0.1-0.1,0.1-0.2,0.2-0.2c0-0.1,0-0.2,0.1-0.3L77.1,63.4z"/>
						<path class="st1" d="M78.5,60.8c-0.3,0.4-0.6,0.8-0.8,1.3C78,61.8,78.3,61.4,78.5,60.8z"/>
						<path class="st1" d="M77,62.6c0.2-0.1,0.4-0.1,0.3,0.2c0,0,0,0,0,0c0.1-0.3,0.2-0.5,0.4-0.8C77.5,62.3,77.3,62.5,77,62.6z"/>
						<path class="st1" d="M77,62.6c-0.2,0.1-0.5,0.2-0.6,0.3C76.6,62.8,76.8,62.7,77,62.6z"/>
						<path class="st1" d="M74.6,60.2c0.1-0.3,0.8,0.3,1-0.3c0.5-1.3,0.7-2.4,1.3-3.5c0.1-0.6,1.5-0.8,1.6-1.4
							c0.4-1.3,0.9-4.8,0-3.1c-1.3,2.7-2.1,4.4-3.3,6.8c-0.8,2-1.6,4-2.7,6c-0.3,0.5-0.7,1-1.2,1.4c0.6-0.5,1.2-1.1,1.8-1.7
							C74,63.6,73.8,61.8,74.6,60.2z"/>
						<path class="st1" d="M67,75c0.1-0.3,0.3-0.9,0.3-0.9c1.4-0.5,2.1-1.7,2.7-2.9c-0.2,0-0.5,0.1-0.8,0.1
							c-0.5,0.6-0.3,0.9,0.3,0.5c-1.5,0.8-2.5,1.8-3.5,3C66.4,75,66.6,75.2,67,75z"/>
						<path class="st1" d="M65.6,75.6c0.2-0.2,0.4-0.5,0.5-0.7c0,0-0.1,0-0.1,0C65.9,75.1,65.7,75.4,65.6,75.6L65.6,75.6z"/>
						<path class="st1" d="M80.9,55.2c1.8-3.3,3.5-6.5,5.1-9.6c-0.1-0.3-0.2-0.6,0.1-0.9c0.3-0.2,0.5-0.4,0.7-0.6
							c0.2-0.5,0.5-0.9,0.7-1.3c0.1-0.2,0.1-0.3,0.2-0.5l0,0c0-0.3-0.1-0.3-0.3-0.2c-0.2,0.1-0.4,0.2-0.5,0.3
							c0.1-0.1,0.3-0.2,0.5-0.3c0.2-0.2,0.4-0.4,0.6-0.6c0.2-0.4,0.3-0.9,0.6-1.3c-0.2,0.5-0.4,1-0.6,1.3c-0.1,0.3-0.2,0.6-0.3,0.8
							c0,0.1,0,0.2,0,0.3c0.6-1,1.1-2,1.7-3c0.1-0.2,0.2-0.5,0.3-0.7c0.3-0.8,0.6-1.6,1.3-1.7c0.1-0.2,0.2-0.3,0.4-0.5
							c0,0-0.1,0-0.1,0c0.1-0.1,0.1-0.1,0.2-0.1l0.8-1c0.3-0.3,0.6-0.6,0.8-0.9c0.2-0.5,0.4-1.1,0.8-1.6c0,0,0.5,0,0.7,0
							c0-0.3,0.2-0.7,0.5-0.9c-0.5,0-1.1,0-1.5,0.2c-0.4,0-0.5,0.4-0.6,0.8c-0.1,0.4-0.2,0.7-0.8,0.7c0.6,0,0.7-0.3,0.8-0.7
							c0.1-0.4,0.2-0.8,0.6-0.8c0.5-0.1,1-0.1,1.5-0.2c0.6-0.6,1.6-1,2.5-0.8c-0.8,0.7-1.6,0.8-2.5,0.8c-0.3,0.3-0.4,0.6-0.5,0.9
							c-0.2,0-0.7,0-0.7,0c-0.3,0.5-0.6,1-0.8,1.6c1.1-1.2,2.4-2.1,3.9-2.7c4.9-2,9.8,0.8,14.4,3.5c4.6,2.8,9.3,6.1,14,9.5
							c2.5,1.9,4.9,3.9,7.1,5.9c2.2,2.1,4.1,4.3,6.1,6.6c2,2.3,4.3,4.8,7.3,6.5c2.9,1.8,5.8,2.9,8.8,3.9c3,1,6.1,1.6,9.2,2.2
							c3.1,0.6,6.3,1,9.3,1.7c0.3,0.1,0.6,0.1,0.9,0.2c0.1,0,0.3,0.1,0.5,0.1l0.2,0l0.1,0l0,0c0.1,0.1,0.1,0.1,0.1,0.2
							c0,0.1-0.1,0.1-0.1,0.1c0,0,0.2-0.1,0.2,0.1c0.1,0,0,0.2-0.1,0.3c0,0.1-0.1,0.3-0.1,0.4c-0.1,0.3-0.1,0.5-0.2,0.8
							c-0.1,0.5-0.1,1-0.1,1.4c0.1,0.8,0.5,1.4,0.9,1.8c1,0.8,2.3,0.9,2.5,0.9c1.3-0.1,2.2-0.4,3.2-1c1-0.7,1.9-1.7,2.7-3
							c0.7-1.3,1.3-2.8,1.3-4.7c-0.1-0.9-0.2-2-0.8-2.9c-0.5-1-1.3-1.8-2.4-2.6c0.7,0.5,1.1,1,1.3,1.2c0.2,0.3,0.1,0.4-0.1,0.4
							c-0.4,0-1.3-0.5-2.7-0.9c-1.4-0.4-3.3-0.7-5.3-1c-1.5-0.3-3-0.7-4.1-1.3c-3.4-1.9-7.2-2.3-11.1-3c-3.8-0.7-8.1-1.7-10.6-4.1
							c-1.3-1.1-2.7-2.3-4.6-4.1c-2.2-2.6-4.7-5.2-7.4-7.4c-2.7-2.2-5.6-4.2-8.5-6.1c-2.8-1.8-5.6-3.5-8.6-5.3c-3-1.8-6-3.7-9.6-5.5
							c-2-0.9-4.1-1.5-6.4-1.7c-2.3-0.2-4.8,0.1-6.9,0.9c-1.5,0.4-3,1-4.4,1.7c-1.4,0.7-2.6,1.6-3.5,2.5c-1.3,1.4-2.2,2.8-2.9,4.1
							c-0.7,1.3-1.2,2.6-1.6,3.8c0.6-1.3,1.1-2.5,1.8-3.7c0.6-1.2,1.4-2.5,2.7-4c0.4-0.5,0.6-0.6,0.7-0.4c0,0.1-0.1,0.5-0.3,1
							c-0.4,0.9-0.9,2.3-1.3,2.9c-0.2,0.6-1.6,0.9-1.8,1.5c-0.7,1.2-0.9,2.4-1.3,3.8c-0.1,0.6-0.9,0.1-0.9,0.4
							c-0.7,1.8-0.2,3.6-0.9,4.5c-0.5,0.7-1,1.4-1.5,2c-0.3,0.4-0.5,0.8-0.7,1.3c-0.1,0.3-0.1,0.7-0.2,1c0.4-0.1,0.7,0,1.1,0.1
							c-0.3,0.4-0.8,0.9-1,1.3c0.3-0.4,0.8-0.9,1-1.3c-0.4-0.1-0.7-0.2-1.1-0.1c-0.6,2.4-1.4,5-2.4,7.4c0,0,0.1,0,0.1,0
							c0.7-1.3,1.5-2.6,2.7-3.7c-0.5,0.5-0.7,0.3-0.4-0.4c0.2-0.1,0.5-0.2,0.7-0.3c-0.4,1.3-0.8,2.6-2,3.4c0,0-0.1,0.6-0.1,0.9
							c-0.3,0.3-0.6,0.1-0.8,0.1c-0.1,0.3-0.3,0.5-0.4,0.8C79.4,56.6,80.9,55.2,80.9,55.2z"/>
						<path class="st1" d="M88,41.4c-0.1,0.2-0.2,0.4-0.3,0.7c0.5-0.8,1-1.7,1.5-2.5C88.5,39.8,88.2,40.6,88,41.4z"/>
					</g>
				</g>
			</g>
		</g>
	</g>
</g>
<g>
	<g>
		<g>
			<g>
				<g class="st0">
					<g>
						<path class="st1" d="M116.6,51.4c0,0-0.1,0-0.1,0c0,0.1,0.1,0.1,0.2,0.3C116.7,51.8,116.7,51.6,116.6,51.4z"/>
						<path class="st1" d="M116.4,51.4C116.4,51.4,116.4,51.4,116.4,51.4C116.4,51.4,116.4,51.4,116.4,51.4
							C116.4,51.4,116.4,51.4,116.4,51.4z"/>
						<path class="st1" d="M116.3,51.7C116.4,51.7,116.4,51.7,116.3,51.7C116.3,51.5,116.3,51.5,116.3,51.7z"/>
						<path class="st1" d="M116.5,51.8c-0.1-0.1-0.1-0.3-0.1-0.4c0,0,0,0,0,0c0,0,0,0.1,0,0.1C116.4,51.6,116.5,51.7,116.5,51.8z"/>
						<path class="st1" d="M116.5,51.8c0.1,0.1,0.1,0.2,0.2,0.3C116.6,52,116.6,51.9,116.5,51.8z"/>
						<path class="st1" d="M117.7,55c0,0.1-0.3-0.8-0.3-0.6c0,0.3,0.1,0.7,0,0.7c0,0.2-0.4-0.8-0.4-0.5c0,0.3,0.3,1.6,0.4,1.5
							c0.1-0.2,0.2-0.5,0.3-0.7c0-0.4,0-0.9,0-1.3c0-0.1,0.1,0,0.1,0c-0.1-0.1-0.2-0.2-0.3-0.3C117.4,53.6,117.8,54.7,117.7,55z"/>
						<path class="st1" d="M117.6,51.6c0,0.1,0.1,0.3,0.1,0.3c-0.3-0.6-0.3-0.3-0.3,0c0.1,0.1,0.1,0.3,0.2,0.4
							c0-0.1-0.1-0.3-0.2-0.5c0.3,0.5,0.4,0.5,0.5,0.4C117.8,52,117.7,51.7,117.6,51.6z"/>
						<path class="st1" d="M117.9,52.2C117.9,52.2,117.9,52.2,117.9,52.2c0,0.1,0,0.1,0,0.2C117.9,52.3,117.9,52.2,117.9,52.2
							C117.9,52.2,117.9,52.2,117.9,52.2z"/>
						<path class="st1" d="M116.3,52.6c-0.2,0.1-0.5,0.2-0.7,0.2c0.1,0.2,0.1,0.4,0.1,0.3c-0.1-0.1-0.1-0.2-0.2-0.3c0,0-0.1,0-0.1,0
							c0,0,0,0.1,0,0.1c0,0,0,0,0,0c0,0.1,0.1,0.2,0.1,0.4c0,0.1,0.1,0.2,0.2,0.3c0-0.1-0.1-0.2-0.2-0.3c-0.1-0.1-0.1-0.2-0.2-0.2
							c0,0.1,0,0.1-0.1,0.1c0-0.1,0-0.1,0.1-0.1c0,0,0-0.1,0-0.1c0,0,0-0.1,0-0.1c-0.1,0-0.2,0-0.3,0c0,0,0,0.1,0,0.1
							c0,0.1,0,0.3-0.2-0.1c0,0,0,0,0,0c0,0,0,0,0,0.1c0,0,0-0.1,0-0.1c-0.1,0-0.1,0-0.2,0c0,0.2,0.1,0.4,0.1,0.5
							c0,0-0.1-0.3-0.2-0.4c0.1,0.2,0.1,0.4,0.1,0.5c0.1,0.3,0.3,0.5,0.4,0.7c0.2,0.4-0.3-0.9,0.1-0.1c-0.4-0.8,0.1,0.5-0.1,0.1
							c-0.1-0.2-0.2-0.5-0.4-0.7c0,0.2-0.1,0-0.3-0.4c-0.1-0.4,0.1-0.1,0.3,0.4c0-0.1,0-0.2-0.1-0.5c0.1,0.1,0.2,0.4,0.2,0.4
							c0-0.1-0.1-0.4-0.1-0.5c-0.1,0-0.3-0.1-0.4-0.1c-0.9-0.3-1.5,0.1-2.4-0.1c-0.5-0.1-1-0.3-1.6-0.7c-1.2-0.7-1.4,0.7-3-1.2
							c-0.6-0.7-1,0-1.2,0.2c0.2,1.6,1.9,5.4,2,5.6c1.5,3.2,1,1.3,2.2,3c-0.8-1-0.6-2.2,0.6-0.1c1.8,3.2,1.3,0.3,2.2,0.9
							c0.2,0.2,0.3,0,0.5,0c1.3,0.8,1.5-0.9,2.5-1c0.2-0.1,0.1-1,0.1-1.5c0.1-0.2,0.4,0.2,0.5,0.1c0.2-0.1,0.2-0.5,0.2-0.9
							c-0.1,0.2-0.1,0.5-0.3,0.7c-0.1,0.1-0.4-1.2-0.4-1.5c0-0.2,0.4,0.8,0.4,0.5c0.1,0,0-0.5,0-0.7c0-0.2,0.3,0.7,0.3,0.6
							c0-0.2-0.3-1.4-0.2-1.2c0.1,0.1,0.2,0.2,0.3,0.3c0,0,0.1,0.1,0.1,0c0-0.1,0-0.2,0-0.2c-0.1-0.3-0.3-0.6-0.4-0.9
							c0,0,0.2,0.2,0.2,0.3c0,0-0.2-0.2-0.2-0.3c0.1,0.3,0.3,0.7,0.4,0.9c-0.1-0.6-0.1-1.1-0.1-1.6c0,0,0-0.1,0-0.1
							c-0.1,0.1-0.2,0.1-0.5-0.4c0.1,0.2,0.2,0.4,0.2,0.5c-0.1-0.1-0.1-0.3-0.2-0.4c0-0.3,0-0.6,0.3,0c0,0,0-0.2-0.1-0.3
							c0.1,0.1,0.2,0.4,0.3,0.6c0,0,0-0.1,0-0.1C116.6,53.2,116.3,52.6,116.3,52.6z"/>
						<path class="st1" d="M115.3,53C115.3,53,115.3,52.9,115.3,53c-0.1-0.1-0.1-0.1-0.2-0.1C115.3,53.3,115.3,53.1,115.3,53z"/>
					</g>
				</g>
			</g>
		</g>
	</g>
</g>
<g>
	<g>
		<g>
			<g>
				<g class="st0">
					<g>
						<path class="st1" d="M131.9,63c0,0-0.1,0-0.1,0c0,0.1,0.1,0.1,0.2,0.3C132,63.4,131.9,63.2,131.9,63z"/>
						<path class="st1" d="M131.6,63C131.6,63,131.6,63,131.6,63C131.6,63,131.6,63.1,131.6,63C131.6,63.1,131.6,63,131.6,63z"/>
						<path class="st1" d="M131.5,63.3C131.6,63.3,131.6,63.3,131.5,63.3C131.6,63.2,131.5,63.2,131.5,63.3z"/>
						<path class="st1" d="M131.8,63.5c-0.1-0.1-0.1-0.3-0.1-0.4c0,0,0,0,0,0c0,0,0,0.1,0,0.1C131.7,63.3,131.7,63.4,131.8,63.5z"/>
						<path class="st1" d="M131.8,63.5c0.1,0.1,0.1,0.2,0.2,0.3C131.9,63.7,131.8,63.6,131.8,63.5z"/>
						<path class="st1" d="M133,66.6c0,0.1-0.3-0.8-0.3-0.6c0,0.3,0.1,0.7,0,0.7c0,0.2-0.4-0.8-0.4-0.5c0,0.3,0.3,1.6,0.4,1.5
							c0.1-0.2,0.2-0.5,0.3-0.7c0-0.4,0-0.9,0-1.3c0-0.1,0.1,0,0.1,0c-0.1-0.1-0.2-0.2-0.3-0.3C132.6,65.2,133,66.4,133,66.6z"/>
						<path class="st1" d="M132.8,63.3c0,0.1,0.1,0.3,0.1,0.3c-0.3-0.6-0.3-0.3-0.3,0c0.1,0.1,0.1,0.3,0.2,0.4
							c0-0.1-0.1-0.3-0.2-0.5c0.3,0.5,0.4,0.5,0.5,0.4C133,63.7,132.9,63.4,132.8,63.3z"/>
						<path class="st1" d="M133.1,63.8C133.1,63.8,133.1,63.9,133.1,63.8c0,0.1,0,0.1,0,0.2C133.1,63.9,133.1,63.9,133.1,63.8
							C133.1,63.8,133.1,63.8,133.1,63.8z"/>
						<path class="st1" d="M131.5,64.3c-0.2,0.1-0.5,0.2-0.7,0.2c0.1,0.2,0.1,0.4,0.1,0.3c-0.1-0.1-0.1-0.2-0.2-0.3c0,0-0.1,0-0.1,0
							c0,0,0,0.1,0,0.1c0,0,0,0,0,0c0,0.1,0.1,0.2,0.1,0.4c0,0.1,0.1,0.2,0.2,0.3c0-0.1-0.1-0.2-0.2-0.3c-0.1-0.1-0.1-0.2-0.2-0.2
							c0,0.1,0,0.1-0.1,0.1c0-0.1,0-0.1,0.1-0.1c0,0,0-0.1,0-0.1c0,0,0-0.1,0-0.1c-0.1,0-0.2,0-0.3,0c0,0,0,0.1,0,0.1
							c0,0.1,0,0.3-0.2-0.1c0,0,0,0,0,0c0,0,0,0,0,0.1c0,0,0-0.1,0-0.1c-0.1,0-0.1,0-0.2,0c0,0.2,0.1,0.4,0.1,0.5
							c0,0-0.1-0.3-0.2-0.4c0.1,0.2,0.1,0.4,0.1,0.5c0.1,0.3,0.3,0.5,0.4,0.7c0.2,0.4-0.3-0.9,0.1-0.1c-0.4-0.8,0.1,0.5-0.1,0.1
							c-0.1-0.2-0.2-0.5-0.4-0.7c0,0.2-0.1,0-0.3-0.4c-0.1-0.4,0.1-0.1,0.3,0.4c0-0.1,0-0.2-0.1-0.5c0.1,0.1,0.2,0.4,0.2,0.4
							c0-0.1-0.1-0.4-0.1-0.5c-0.1,0-0.3-0.1-0.4-0.1c-0.9-0.3-1.5,0.1-2.4-0.1c-0.5-0.1-1-0.3-1.6-0.7c-1.2-0.7-1.4,0.7-3-1.2
							c-0.6-0.7-1,0-1.2,0.2c0.2,1.6,1.9,5.4,2,5.6c1.5,3.2,1,1.3,2.2,3c-0.8-1-0.6-2.2,0.6-0.1c1.8,3.2,1.3,0.3,2.2,0.9
							c0.2,0.2,0.3,0,0.5,0c1.3,0.8,1.5-0.9,2.5-1c0.2-0.1,0.1-1,0.1-1.5c0.1-0.2,0.4,0.2,0.5,0.1c0.2-0.1,0.2-0.5,0.2-0.9
							c-0.1,0.2-0.1,0.5-0.3,0.7c-0.1,0.1-0.4-1.2-0.4-1.5c0-0.2,0.4,0.8,0.4,0.5c0.1,0,0-0.5,0-0.7c0-0.2,0.3,0.7,0.3,0.6
							c0-0.2-0.3-1.4-0.2-1.2c0.1,0.1,0.2,0.2,0.3,0.3c0,0,0.1,0.1,0.1,0c0-0.1,0-0.2,0-0.2c-0.1-0.3-0.3-0.6-0.4-0.9
							c0,0,0.2,0.2,0.2,0.3c0,0-0.2-0.2-0.2-0.3c0.1,0.3,0.3,0.7,0.4,0.9c-0.1-0.6-0.1-1.1-0.1-1.6c0,0,0-0.1,0-0.1
							c-0.1,0.1-0.2,0.1-0.5-0.4c0.1,0.2,0.2,0.4,0.2,0.5c-0.1-0.1-0.1-0.3-0.2-0.4c0-0.3,0-0.6,0.3,0c0,0,0-0.2-0.1-0.3
							c0.1,0.1,0.2,0.4,0.3,0.6c0,0,0-0.1,0-0.1C131.8,64.8,131.5,64.3,131.5,64.3z"/>
						<path class="st1" d="M130.5,64.6C130.5,64.6,130.5,64.6,130.5,64.6c-0.1-0.1-0.1-0.1-0.2-0.1
							C130.5,64.9,130.5,64.8,130.5,64.6z"/>
					</g>
				</g>
			</g>
		</g>
	</g>
</g>
</svg>
