<?xml version="1.0" encoding="utf-8"?>
<!-- Generator: Adobe Illustrator 24.2.0, SVG Export Plug-In . SVG Version: 6.00 Build 0)  -->
<svg version="1.1" id="Layer_1" xmlns="http://www.w3.org/2000/svg" xmlns:xlink="http://www.w3.org/1999/xlink" x="0px" y="0px"
	 viewBox="0 0 213.1 222" style="enable-background:new 0 0 213.1 222;" xml:space="preserve">
<style type="text/css">
	.st0{opacity:0.85;}
	.st1{fill:#FFFFFF;}
</style>
<g>
	<g>
		<g>
			<g>
				<g class="st0">
					<g>
						<path class="st1" d="M134.6,84.9c0,1.4,0,2.9,0.1,4.3c0-0.7,0.1-1.5,0.1-2.2C134.8,86.1,134.7,85.6,134.6,84.9z"/>
						<path class="st1" d="M134.7,93.2c0,0.3,0,0.5,0,0.8c0,0.2,0,0.5,0.1,0.7C134.8,94.2,134.8,93.7,134.7,93.2z"/>
						<path class="st1" d="M135,100.8c0-1.3,0-2.6-0.1-3.8C134.9,98,134.9,99.3,135,100.8z"/>
						<path class="st1" d="M135,94.7c-0.1,0.5-0.1,0.7-0.2-0.1c0,0,0,0,0,0c0,0.8,0.1,1.5,0.1,2.3C134.9,96.1,135,95.4,135,94.7z"/>
						<path class="st1" d="M135,94.7c0-0.5,0.1-1.2,0.1-1.4C135.1,93.7,135,94.2,135,94.7z"/>
						<path class="st1" d="M136.7,96.6c0.1,0.8-0.4,0.6-0.3,2.1c0.2,3.5,0.5,6.6,0.6,9.9c0.1,1.5-0.3,3.9-0.2,5.4
							c0.2,3.5,1,12.6,0.9,7.2c-0.3-8-0.5-13.2-0.7-20.4c-0.3-5.8-0.6-11.5-0.9-17.5c-0.1-1.7-0.1-3.2,0-4.8c0,2.1-0.1,4.2-0.1,6.5
							C135.8,88.1,136.5,91.8,136.7,96.6z"/>
						<path class="st1" d="M134.3,52.9c0.1,0.7,0.2,2.3,0.2,2.3c-0.3,3.4-0.1,6.9,0.1,10.4c0.1-0.5,0.1-1,0.2-1.6
							c-0.1-2-0.2-2.3-0.3-0.5c0.2-4.1,0.2-8,0.1-12C134.5,51.8,134.3,51.8,134.3,52.9z"/>
						<path class="st1" d="M134.5,49.2c0,0.8,0.1,1.6,0.1,2.3c0,0,0-0.1,0-0.1C134.6,50.7,134.6,49.9,134.5,49.2L134.5,49.2z"/>
						<path class="st1" d="M135.8,116.8c0.2,10.1,0.4,19.5,0.6,28.8c0.1,0.7,0.2,1.2,0.2,2.2c-0.1,0.7-0.1,1.5-0.1,2.2
							c0,1.4,0,2.7,0.1,4c0,0.5,0,0.9,0.1,1.4c0,0,0,0,0,0c0.1,0.8,0.1,0.5,0.2,0.1c0-0.5,0.1-1,0.1-1.4c0,0.3-0.1,1-0.1,1.4
							c0,0.6-0.1,1.3-0.1,2.2c0.1,1.2,0.1,2.5,0.1,3.8c-0.1-1.5-0.1-2.7-0.1-3.8c0-0.8-0.1-1.5-0.1-2.3c0-0.2,0-0.4-0.1-0.7
							c0,3.1,0.1,6.1,0.1,9.2c0,0.7,0.1,1.4,0.1,1.9c0.1,2.2,0.2,4.4,0,5.8c0,0.5,0,1.1,0,1.6c0-0.1,0-0.2,0-0.3c0,0.2,0,0.5,0,0.6
							c0,2.3,0.1,4.6,0.1,7c0.1,1.5,0.3,3.1,0.4,4.6c0,0-0.1,1.1-0.2,1.6c0.1,0.6,0.3,1.5,0.3,2.6c0.1-1.3,0.2-2.4,0.3-3.5
							c0.2-1.6-0.6-3.5-0.2-5.3c-0.4,1.9,0.4,3.8,0.2,5.3c-0.1,1.1-0.2,2.2-0.3,3.5c0.1,1.1,0.1,2.4,0.1,3.6c0,1.3,0.1,2.6-0.1,3.7
							c-0.1-0.7-0.1-1.4-0.2-2c0-0.7-0.1-1.3-0.1-1.9c0-1.2,0.1-2.3,0.1-3.4c-0.1-1.1-0.2-2-0.3-2.6c0.1-0.5,0.2-1.6,0.2-1.6
							c-0.1-1.6-0.3-3.1-0.4-4.6c0.1,4.6,0.2,9.1,0.4,13.9c0.1,1.8,0.1,3.7,0,5.6c0,0.9-0.1,1.9-0.1,2.8c0,1,0.1,1.9,0,2.8
							c0,1.8-0.4,3.5-1.1,5.1c-0.3,0.8-0.8,1.5-1.3,2.1c-0.6,0.5-1.3,0.9-2.1,1.2c-0.8,0.2-1.7,0.4-2.6,0.5
							c-0.9,0.1-1.7,0.1-2.6,0.1c-0.8-0.1-1.8-0.2-2.7-0.3l-2.8-0.2c-3.7-0.2-7.3-0.4-11-0.5c-14.7-0.5-29.5-0.9-45.2-1.1
							c-8.5-0.1-16.8-0.2-25.1,0.3c-1.9,0.1-3.8,0-5.3-0.7c-0.7-0.3-1.4-0.8-1.8-1.4c-0.4-0.6-0.7-1.3-0.9-2.2
							c-0.4-1.8-0.5-3.8-0.7-5.8c-0.2-2-0.3-3.9-0.2-5.7c0.1-0.9,0.2-1.9,0.3-2.8c0.1-0.4,0.1-1,0.2-1.6c0.1-0.5,0.1-1,0.1-1.5
							c0.1-2,0.2-4,0.3-6c0.1-3.9,0.2-7.8,0.2-11.7c0-7.7,0-15.4-0.1-23c-0.1-15.3-0.2-30.6,0.1-46.8c0.2-12.4-0.5-35.3-0.8-47.3
							c-1.1-16-3-7.6-3.1-6.9c-1.5,9.9-0.4,17.5-1,37.6c0.3-13.6,1.3,10,0.4,22.9c-1.5,18.6,0.4,45.2-0.1,68.1
							c-0.1,2.9-0.1,5.8-0.2,8.9c-0.1,1.5-0.1,3.1-0.2,4.6c-0.1,0.8-0.1,1.3-0.3,2.3c-0.1,0.9-0.2,1.8-0.3,2.8
							c-0.2,2.5,0,4.9,0.2,7.1c0.1,1.1,0.2,2.2,0.4,3.4c0.2,1.2,0.4,2.4,0.8,3.8c0.5,1.4,1.5,3,2.8,4c1.3,1,2.7,1.6,4.1,2
							c1.4,0.3,2.7,0.4,4,0.4c0.6,0,1.3,0,1.8-0.1l1.6-0.1c8.5-0.5,17.2-0.5,25.8-0.5c8.7,0,17.4,0.1,26.3,0.2
							c8.9,0.2,18,0.4,27.3,0.9c0.6,0,1.2,0.1,1.8,0.1c0.6,0,1.1,0.1,1.6,0.1c1.4,0.2,2.8,0.2,4.2,0c0.3,0,0.7-0.1,1-0.1l0.9-0.2
							c0.7-0.1,1.4-0.3,2.1-0.6c0.7-0.3,1.5-0.7,2.1-1.2c0.6-0.5,1.3-1.2,1.7-1.8c0.8-1.3,1.3-2.5,1.6-3.7c0.3-1.2,0.5-2.5,0.6-3.7
							c0.1-1.2-0.1-2.5-0.1-3.4c0-1,0-2,0-3.1c0-1.5,0.1-3.1,0-4.8c0-0.8-0.1-1.5-0.1-2.3c0-0.8,0-1.5-0.1-2.3
							c-0.1-3-0.1-5.9-0.2-8.3c-0.2-7.8-0.6-14.5-0.9-20.9c0.3,7.2,0.5,12.4,0.8,20.4c0.2,5.3-0.7-3.7-0.9-7.2
							c-0.1-1.5,0.3-3.9,0.2-5.4c-0.1-3.3-0.4-6.3-0.6-9.8c-0.1-1.5,0.3-1.3,0.3-2.1c-0.2-4.8-0.9-8.5-0.9-11.6
							c0-2.3,0.1-4.5,0.1-6.5c0-1.3,0-2.6-0.1-4c-0.1-0.9-0.1-1.7-0.2-2.6c-0.1,0.7-0.3,1-0.5,1.2c0-1.3,0-3.1,0.1-4.3
							c0,1.3,0,3.1-0.1,4.3c0.2-0.2,0.3-0.5,0.5-1.2c-0.4-6.3-0.8-13.7-1.2-20.5c0,0,0,0.1,0,0.1c0.1,4,0.2,7.9,0,12
							c0.1-1.8,0.2-1.6,0.3,0.5c-0.1,0.5-0.1,1-0.2,1.6c-0.2-3.5-0.4-7.1-0.1-10.4c0,0-0.1-1.5-0.2-2.3c0-1.1,0.2-1.1,0.3-1.3
							c0-0.8-0.1-1.6-0.1-2.3C136,111.6,135.8,116.8,135.8,116.8z"/>
						<path class="st1" d="M136.6,157.7c0-0.5-0.1-1.2-0.1-1.9c0,2.6,0.1,5.1,0.1,7.7C136.9,162.1,136.8,159.9,136.6,157.7z"/>
					</g>
				</g>
			</g>
		</g>
	</g>
</g>
<g>
	<g>
		<g>
			<g>
				<g class="st0">
					<g>
						<path class="st1" d="M37.7,48.1c0.3,0,0.7,0,1.1,0.1c-0.2-0.1-0.3-0.2-0.5-0.4C38,47.7,37.8,48,37.7,48.1z"/>
						<path class="st1" d="M39.7,48.3c0.1,0,0.1,0,0.2,0c0.1,0,0.1-0.1,0.2-0.1C39.9,48.2,39.8,48.3,39.7,48.3z"/>
						<path class="st1" d="M41.5,48.1c-0.3-0.1-0.6,0-0.9,0C40.9,48.2,41.2,48.2,41.5,48.1z"/>
						<path class="st1" d="M40.1,47.8c0.1,0.1,0.2,0.3,0,0.4c0,0,0,0,0,0c0.2,0,0.4-0.1,0.6-0.1C40.4,48,40.2,47.9,40.1,47.8z"/>
						<path class="st1" d="M40.1,47.8c-0.1-0.1-0.3-0.3-0.3-0.4C39.8,47.6,39.9,47.7,40.1,47.8z"/>
						<path class="st1" d="M40.6,44.4c0.2-0.1,0.1,0.9,0.5,0.7c0.9-0.2,1.6-0.7,2.4-0.6c0.4-0.2,0.9,0.9,1.3,0.7
							c0.9-0.2,3.1-1.5,1.8-1.5c-2,0.1-3.2,0.3-5,0.5c-1.4,0.4-2.8,0.8-4.3,1.1c-0.4,0-0.8,0-1.2-0.1c0.5,0.2,1,0.3,1.6,0.5
							C38.5,45.8,39.4,44.6,40.6,44.4z"/>
						<path class="st1" d="M29.9,47.4c0.2-0.1,0.6-0.3,0.6-0.3c0.8,0.7,1.7,0.5,2.5,0.2c-0.1-0.2-0.2-0.3-0.4-0.5
							c-0.5,0-0.6,0.3-0.1,0.5c-1-0.6-1.9-0.7-2.9-0.6C29.6,46.9,29.6,47.2,29.9,47.4z"/>
						<path class="st1" d="M29,46.7c0.2,0,0.4,0,0.6-0.1c0,0,0-0.1,0-0.1C29.4,46.6,29.2,46.7,29,46.7C29,46.7,29,46.7,29,46.7z"/>
						<path class="st1" d="M45.4,47.3c2.4,0,4.7,0.1,7,0.3c0.2-0.2,0.3-0.4,0.5-0.3c0.2,0.2,0.3,0.3,0.5,0.4c0.3,0,0.7,0,1,0.1
							c0.1,0,0.2,0,0.3-0.1c0,0,0,0,0,0c0.2-0.1,0.1-0.3,0-0.4c-0.1-0.1-0.2-0.2-0.3-0.4c0.1,0.1,0.2,0.2,0.3,0.4
							c0.2,0.1,0.3,0.2,0.5,0.3c0.3-0.1,0.6-0.1,0.9,0c-0.4,0.1-0.7,0.1-0.9,0c-0.2,0-0.4,0.1-0.6,0.1c-0.1,0-0.1,0.1-0.2,0.1
							c0.7,0.1,1.5,0.1,2.2,0.2c0.2,0,0.3,0,0.5-0.1c0.5-0.1,1.1-0.2,1.4,0.2c0.1,0,0.3,0,0.4,0c0,0-0.1-0.1-0.1-0.1
							c0.1,0,0.1,0.1,0.1,0.1c0.6,0.1,1.1,0.1,1.7,0.2c0.4-0.2,0.8-0.4,1.1-0.5c0,0,0.2,0.3,0.4,0.5c0.2-0.2,0.4-0.4,0.6-0.5
							c-0.3-0.3-0.6-0.6-0.8-0.8c-0.4-0.5-0.9,0.9-1.3,0c0.4,0.9,0.9-0.5,1.3,0c0.3,0.2,0.5,0.5,0.8,0.8c0.5-0.2,1.2,0,1.8,0.5
							c-0.7,0.4-1.3,0-1.8-0.5c-0.3,0.1-0.5,0.2-0.6,0.5c-0.1-0.2-0.4-0.5-0.4-0.5c-0.4,0.1-0.8,0.3-1.1,0.5
							c1.1,0.1,2.2,0.2,3.4,0.3c7.3,0.8,14.1,0.8,21.7,1.5c4.1,0.4,8.1,0.9,12,1.5c7.7,1.3,14.8,0.2,22.6,2.8
							c3,0.9,8.6,0.6,11.5,0.6c3.9-1.5,2-5.7,1.8-5.9c-2.3-3.6-4.2-1.7-9-3.8c3.3,1.3-2.5,2.2-5.6-0.3c-4.4-3.8-11-1-16.5-2.1
							c-1.4-0.3-2.9-0.1-4.5-0.3c-8.6-1.5-16.7-0.1-25.8-0.6c-2.4,0-4.6,0.8-6.6,1.2c-1.5,0.1-3.1-0.4-4.3-0.4
							c-1.9,0-3.5,0.3-5.1,0.6c1.8-0.1,3-0.4,5-0.5c1.3,0-0.9,1.2-1.8,1.5c-0.4,0.2-0.9-0.9-1.3-0.7c-0.8,0-1.5,0.4-2.4,0.6
							c-0.4,0.2-0.3-0.8-0.5-0.7c-1.2,0.2-2.1,1.4-2.9,1.1c-0.6-0.2-1.1-0.3-1.6-0.5c-0.3-0.1-0.6-0.1-1-0.1
							c-0.2,0.1-0.4,0.2-0.6,0.2c0.2,0.3,0.2,0.7,0.3,1c-0.3-0.1-0.7-0.3-1-0.3c0.3,0.1,0.7,0.3,1,0.3c0-0.4-0.1-0.7-0.3-1
							c-1.6,0.5-3.3,1-5,1.4c0,0,0,0.1,0,0.1c1-0.1,1.9,0,2.9,0.6c-0.4-0.2-0.4-0.5,0.1-0.5c0.1,0.2,0.2,0.3,0.4,0.5
							c-0.9,0.2-1.7,0.5-2.5-0.2c0,0-0.4,0.2-0.6,0.3c-0.3-0.1-0.3-0.4-0.3-0.7c-0.2,0-0.4,0-0.6,0.1C44.2,46.7,45.4,47.3,45.4,47.3
							z"/>
						<path class="st1" d="M55.4,47.6c-0.1,0-0.3,0-0.5,0.1c0.6,0.1,1.2,0.1,1.9,0.2C56.5,47.3,55.9,47.4,55.4,47.6z"/>
					</g>
				</g>
			</g>
		</g>
	</g>
</g>
<g>
	<g>
		<g>
			<g>
				<g class="st0">
					<g>
						<path class="st1" d="M174.7,44.4c-0.5-0.6-1.1-1.2-1.6-1.7c0.2,0.3,0.4,0.7,0.6,1.1C174,44.2,174.3,44.2,174.7,44.4z"/>
						<path class="st1" d="M171.5,41c-0.1-0.1-0.2-0.2-0.3-0.3c-0.1-0.1-0.2-0.1-0.3-0.2L171.5,41z"/>
						<path class="st1" d="M168.3,38.3c0.3,0.3,0.5,0.5,0.8,0.7c0.3,0.3,0.6,0.5,0.9,0.7c-0.2-0.3-0.5-0.5-0.8-0.8
							C168.9,38.7,168.6,38.5,168.3,38.3z"/>
						<path class="st1" d="M170.6,40.8c-0.1-0.3-0.1-0.5,0.3-0.3l0,0c-0.3-0.3-0.7-0.5-1-0.8C170.2,40.1,170.4,40.5,170.6,40.8z"/>
						<path class="st1" d="M170.6,40.8c0.1,0.3,0.3,0.6,0.3,0.8C170.8,41.3,170.7,41.1,170.6,40.8z"/>
						<path class="st1" d="M167.5,42.5c-0.4-0.2,0.4-0.8-0.4-1.2l-0.1,0c-1.6-1-3-1.7-4.4-2.6c-0.7-0.2-1.2-1.8-2.1-2.1
							c-1.8-0.8-6.8-2.6-4.3-0.9c1.9,1.2,3.6,2.1,5.1,2.9c1.4,0.8,2.7,1.6,4.2,2.8l0.9,0.6c0.5,0.3,1.1,0.8,1.6,1.2l1.7,1.3
							c1.1,0.9,2.2,1.8,3.4,2.7c0.7,0.6,1.2,1.3,1.8,2c-0.7-0.9-1.4-1.8-2.2-2.9C171.8,44.7,169.5,44.1,167.5,42.5z"/>
						<path class="st1" d="M186.5,57.5c-0.4-0.2-1.1-0.7-1.1-0.7c-0.8-1.8-2.3-3-3.8-4.3c0.1,0.3,0.2,0.6,0.2,1
							c0.8,0.8,1.1,0.7,0.6-0.2c1.1,2,2.5,3.7,4.1,5.2C186.6,58.2,186.8,58,186.5,57.5z"/>
						<path class="st1" d="M187.4,59.4c-0.3-0.3-0.6-0.6-0.9-0.9c0,0,0,0.1,0,0.1C186.8,58.9,187.1,59.2,187.4,59.4L187.4,59.4z"/>
						<path class="st1" d="M160.4,33.9c-4.7-2.9-8.8-6.1-12.8-9.2c-0.4-0.1-0.8-0.1-1.1-0.5c-0.2-0.4-0.5-0.7-0.7-1
							c-0.6-0.5-1.2-0.9-1.7-1.4c-0.2-0.1-0.4-0.3-0.7-0.4c0,0,0,0,0,0c-0.4-0.2-0.4,0-0.3,0.3c0.2,0.3,0.3,0.5,0.4,0.7
							c-0.1-0.2-0.3-0.5-0.4-0.7c-0.2-0.3-0.5-0.6-0.8-0.9c-0.6-0.4-1.2-0.8-1.7-1.2c0.7,0.4,1.3,0.8,1.7,1.2
							c0.4,0.2,0.7,0.4,1.1,0.7c0.1,0,0.2,0.1,0.3,0.2c-1.3-1.1-2.6-2.1-4-3.1c-0.3-0.2-0.7-0.4-0.9-0.5c-1.1-0.6-2.2-1.1-2.6-1.9
							c-0.3-0.2-0.5-0.3-0.8-0.5l0.1,0.2c-0.1-0.1-0.2-0.2-0.3-0.3c-1.1-0.7-2.2-1.3-3.4-1.9c-0.8-0.2-1.7-0.3-2.6-0.5
							c0,0-0.4-0.5-0.7-0.8c-0.4,0.1-0.9,0.1-1.5,0c0.6,0.5,1.1,1,1.5,1.4c0.6,0.7,2.1-0.2,2.7,1c-0.6-1.2-2.1-0.3-2.7-1
							c-0.5-0.4-1-0.9-1.5-1.4c-1.2-0.2-2.7-0.8-3.9-1.5c1.7-0.1,2.9,0.7,3.9,1.5c0.6,0.1,1.1,0.1,1.5,0c0.2,0.2,0.7,0.8,0.7,0.8
							c0.9,0.2,1.7,0.3,2.6,0.5c-2.3-1.1-4.7-2-7.3-2.7c-2.1-0.6-4.2-1-6.4-1c-2.2-0.1-4.4,0.2-6.5,0.8c-4.1,1.2-8.1,3.6-10.7,7.3
							c-2.6,3.7-3.6,8.3-3.4,12.7c0,1,0,1.9-0.1,3c-0.1,1-0.1,2-0.2,3c-0.1,1-0.2,2.1-0.3,3.1c-0.1,1-0.3,2.1-0.4,3.2
							c-1.4,9.2-3.2,18-5.1,26.5c-3.9,17.1-5.4,33.1-11,50c-2,6.5-3.9,19-5,25.5c0,8.9,4.8,5.2,5.1,4.8c4.4-4.7,3.3-9.2,7.3-19.6
							c-2.5,7.2-1.2-5.8,2.4-12.4c5.4-9.4,5.1-24.4,8.1-36.7c0.8-3.1,1.1-6.4,1.8-10.2c2.2-9.6,3.6-19,4.4-28.8
							c0.1-1.2,0.2-2.5,0.3-3.7l0.1-1.9l0.1-2c0.1-1.2,0-2.8,0-4.1c-0.1-1.1-0.1-1.9,0-2.8c0.2-1.8,0.6-3.5,1.4-4.9
							c0.8-1.4,1.9-2.6,3.5-3.5c1.6-1,3.4-2,5.1-2.7c1.6-0.6,3.5-1,5.5-1c2.9,0.2,5.9,1.7,8.1,2.6c3.5,1.4,6.4,3,9.5,4.6
							c-3.2-2.1-5.5-3.3-9.2-4.7c-1.2-0.5-0.7-0.6,0.4-0.5c1.1,0.1,2.7,0.4,3.5,0.8c0.8,0.2,1.3,1.7,2.1,2c1.4,0.9,3,1.5,4.7,2.4
							c0.8,0.3,0.1,1,0.5,1.2c2.2,1.4,4.6,1.7,5.8,2.9c0.9,0.9,1.8,1.7,2.6,2.5c0.5,0.5,1.1,0.9,1.7,1.4c0.4,0.2,0.9,0.4,1.3,0.7
							c-0.1-0.5,0-0.8,0.1-1.2c0.5,0.5,1.2,1.2,1.8,1.7c-0.5-0.5-1.2-1.2-1.8-1.7c-0.1,0.4-0.2,0.7-0.1,1.2
							c3.2,1.6,6.9,3.5,10.3,5.1c0,0,0-0.1,0-0.1c-1.9-1.1-3.7-2.3-5.2-4.1c0.7,0.7,0.4,0.9-0.5,0.3c-0.1-0.3-0.3-0.6-0.4-0.9
							c1.8,0.9,3.5,1.7,4.7,3.3c0,0,0.8,0.3,1.2,0.4c0.5,0.4,0.3,0.7,0.2,1c0.4,0.2,0.7,0.4,1.1,0.6c-0.2-0.4-0.9-1.2-1.5-1.8
							C161,34.4,160.4,33.9,160.4,33.9z"/>
						<path class="st1" d="M142.3,20.7c0.3,0.2,0.6,0.4,0.9,0.6c-1.1-0.9-2.2-1.8-3.4-2.6C140.2,19.4,141.2,20,142.3,20.7z"/>
					</g>
				</g>
			</g>
		</g>
	</g>
</g>
</svg>
