<?xml version="1.0" encoding="utf-8"?>
<!-- Generator: Adobe Illustrator 24.2.0, SVG Export Plug-In . SVG Version: 6.00 Build 0)  -->
<svg version="1.1" id="Layer_1" xmlns="http://www.w3.org/2000/svg" xmlns:xlink="http://www.w3.org/1999/xlink" x="0px" y="0px"
	 viewBox="0 0 213.1 222" style="enable-background:new 0 0 213.1 222;" xml:space="preserve">
<style type="text/css">
	.st0{opacity:0.85;}
	.st1{fill:#669D8D;stroke:#669D8D;stroke-miterlimit:10;}
</style>
<g>
	<g>
		<g>
			<g>
				<g class="st0">
					<g>
						<path class="st1" d="M187.3,128.9c-0.6,0-1.3,0-1.9,0c0.3,0,0.6,0,1,0.1C186.8,129,187,129,187.3,128.9z"/>
						<path class="st1" d="M183.6,128.9c-0.1,0-0.2,0-0.3,0s-0.2,0-0.3,0C183.1,128.9,183.4,128.9,183.6,128.9z"/>
						<path class="st1" d="M180.2,129c0.6,0,1.2,0,1.7,0C181.4,128.9,180.9,128.9,180.2,129z"/>
						<path class="st1" d="M182.9,129c-0.2,0-0.3-0.1,0-0.1l0,0c-0.3,0-0.7,0-1,0C182.3,129,182.6,129,182.9,129z"/>
						<path class="st1" d="M182.9,129c0.2,0,0.5,0.1,0.6,0.1C183.3,129.1,183.1,129.1,182.9,129z"/>
						<path class="st1" d="M182,129.9c-0.3,0-0.3-0.2-0.9-0.2c-1.6,0.1-2.9,0.2-4.4,0.2c-0.7,0.1-1.7-0.2-2.4-0.2
							c-1.6,0.1-5.6,0.4-3.3,0.4c3.6,0,5.9-0.1,9.2-0.1c2.6-0.1,5.1-0.2,7.8-0.3c0.8,0,1.5,0,2.2,0c-0.9,0-1.9-0.1-2.9-0.1
							C185.9,129.5,184.2,129.8,182,129.9z"/>
						<path class="st1" d="M201.6,129.1c-0.3,0-1,0.1-1,0.1c-1.5-0.2-3.1-0.1-4.7,0c0.2,0,0.5,0.1,0.7,0.1c0.9,0,1-0.1,0.2-0.1
							c1.8,0.1,3.6,0.2,5.4,0.1C202.1,129.2,202.1,129.1,201.6,129.1z"/>
						<path class="st1" d="M203.3,129.2c-0.4,0-0.7,0-1,0l0,0C202.6,129.3,203,129.2,203.3,129.2L203.3,129.2z"/>
						<path class="st1" d="M173,129.2c-4.5,0-8.7,0-12.9,0c-0.3,0-0.5,0.1-1,0.1c-0.3,0-0.6-0.1-1-0.1c-0.6,0-1.2,0-1.8,0
							c-0.2,0-0.4,0-0.6,0l0,0c-0.3,0-0.2,0.1,0,0.1s0.4,0.1,0.6,0.1c-0.1,0-0.4-0.1-0.6-0.1c-0.3,0-0.6-0.1-1-0.1
							c-0.6,0-1.1,0-1.7,0c0.7,0,1.2,0,1.7,0c0.3,0,0.7,0,1,0c0.1,0,0.2,0,0.3,0c-1.4,0-2.7,0-4.1,0c-0.3,0-0.6,0-0.9,0
							c-1,0-2,0.1-2.6-0.1c-0.2,0-0.5,0-0.7,0h0.1c-0.1,0-0.2,0-0.3,0c-1,0-2.1,0-3.1,0c-0.7,0-1.4,0.1-2.1,0.1c0,0-0.5-0.1-0.7-0.1
							c-0.3,0.1-0.7,0.1-1.2,0.1c0.6,0.1,1.1,0.2,1.5,0.2c0.7,0.1,1.6-0.2,2.4,0c-0.8-0.2-1.7,0.1-2.4,0c-0.5,0-1-0.1-1.5-0.2
							c-1,0-2.3,0-3.3-0.1c1.3-0.1,2.3,0,3.3,0.1c0.5,0,0.9-0.1,1.2-0.1c0.2,0,0.7,0.1,0.7,0.1c0.7,0,1.4-0.1,2.1-0.1
							c-2,0-4.1,0-6.2-0.1c-13.5-0.2-26-0.1-40-0.2c-7.6-0.1-14.9-0.2-22.1-0.3c-14.3-0.3-27.3,0-41.7-0.6
							c-5.5-0.2-15.8-0.1-21.2-0.1c-7.2,0.4-3.4,1.4-3.1,1.5c4.4,0.9,7.8,0.4,16.8,0.9c-6.1-0.3,4.5-0.6,10.3,0
							c8.3,0.9,20.2,0.2,30.5,0.4c2.6,0.1,5.3,0,8.4,0c15.9,0.3,30.7-0.1,47.5,0c4.4,0,8.3-0.2,12.1-0.3c2.7,0,5.6,0.1,7.9,0.1
							c3.5,0,6.5-0.1,9.4-0.2c-3.2,0-5.6,0.1-9.2,0.1c-2.4,0,1.7-0.3,3.2-0.4c0.7-0.1,1.7,0.2,2.4,0.2c1.5,0,2.8-0.1,4.4-0.2
							c0.7-0.1,0.6,0.2,0.9,0.2c2.2-0.1,3.8-0.4,5.2-0.3c1,0,2,0.1,2.9,0.1c0.6,0,1.2,0,1.8,0c0.4,0,0.8,0,1.2-0.1
							c-0.3-0.1-0.4-0.2-0.5-0.3c0.6,0,1.4,0.1,1.9,0.1c-0.6,0-1.4-0.1-1.9-0.1c0.1,0.1,0.2,0.2,0.5,0.3c2.8-0.1,6.1-0.3,9.2-0.4
							l0,0c-1.8,0-3.5,0-5.4-0.1c0.8,0.1,0.7,0.1-0.2,0.1c-0.2,0-0.5-0.1-0.7-0.1c1.6-0.1,3.2-0.1,4.7,0c0,0,0.7-0.1,1-0.1
							c0.5,0,0.5,0.1,0.6,0.2c0.3,0,0.7,0,1.1,0C175.4,129.3,173,129.2,173,129.2z"/>
						<path class="st1" d="M154.7,129.2c0.2,0,0.5,0,0.9,0c-1.2,0-2.3,0-3.5,0C152.7,129.2,153.7,129.2,154.7,129.2z"/>
					</g>
				</g>
			</g>
		</g>
	</g>
</g>
<g>
	<g>
		<g>
			<g>
				<g class="st0">
					<g>
						<path class="st1" d="M191.5,121.7c-0.5-0.3-1-0.6-1.4-0.9c0.2,0.2,0.5,0.3,0.7,0.5C191,121.5,191.2,121.6,191.5,121.7z"/>
						<path class="st1" d="M188.7,120c-0.1-0.1-0.2-0.1-0.3-0.2c-0.1,0-0.2-0.1-0.2-0.1C188.4,119.8,188.6,119.9,188.7,120z"/>
						<path class="st1" d="M186.2,118.5c0.4,0.3,0.9,0.5,1.3,0.8C187.1,119,186.7,118.7,186.2,118.5z"/>
						<path class="st1" d="M188.1,119.7C188,119.6,187.9,119.5,188.1,119.7C188.2,119.7,188.2,119.7,188.1,119.7
							c-0.2-0.2-0.4-0.4-0.7-0.5C187.7,119.4,187.9,119.6,188.1,119.7z"/>
						<path class="st1" d="M188.1,119.7c0.1,0.1,0.4,0.3,0.4,0.4C188.4,120,188.3,119.9,188.1,119.7z"/>
						<path class="st1" d="M187.1,120.1c-0.3-0.1-0.1-0.3-0.6-0.6c-1.2-0.7-2.3-1.2-3.4-1.9c-0.5-0.3-1.2-1-1.7-1.2
							c-1.2-0.7-4.4-2.2-2.6-1.2c2.7,1.6,4.5,2.6,6.9,4.1c2,1.1,4,2.2,6,3.3c0.6,0.3,1.1,0.7,1.6,1c-0.7-0.5-1.4-0.9-2.1-1.4
							C190.1,121.5,188.7,121,187.1,120.1z"/>
						<path class="st1" d="M202.1,128.3c-0.3-0.1-0.8-0.4-0.8-0.4c-1-0.8-2.3-1.5-3.5-2.2c0.2,0.1,0.3,0.3,0.5,0.4
							c0.7,0.4,0.8,0.4,0.2,0c1.3,1,2.6,1.8,3.9,2.6C202.4,128.6,202.5,128.6,202.1,128.3z"/>
						<path class="st1" d="M203.3,129.2c-0.3-0.2-0.5-0.3-0.8-0.5l0,0C202.8,128.9,203,129.1,203.3,129.2L203.3,129.2z"/>
						<path class="st1" d="M180.7,115.4c-3.4-2-6.5-4-9.6-5.9c-0.3-0.1-0.5-0.2-0.8-0.4c-0.2-0.2-0.4-0.4-0.7-0.5
							c-0.5-0.3-0.9-0.6-1.3-0.8c-0.2-0.1-0.3-0.2-0.5-0.3l0,0c-0.3-0.1-0.2-0.1-0.1,0.1c0.2,0.1,0.3,0.3,0.4,0.4
							c-0.1-0.1-0.3-0.2-0.4-0.4c-0.2-0.2-0.4-0.3-0.7-0.5c-0.4-0.2-0.9-0.5-1.3-0.8c0.5,0.3,0.9,0.5,1.3,0.8
							c0.3,0.2,0.5,0.3,0.8,0.4c0.1,0,0.2,0.1,0.2,0.1c-1-0.6-2-1.3-3.1-1.9c-0.2-0.1-0.5-0.3-0.7-0.4c-0.8-0.4-1.5-0.9-1.9-1.2
							c-0.2-0.1-0.4-0.2-0.5-0.3l0.1,0.1c-0.1-0.1-0.1-0.1-0.2-0.1c-0.8-0.5-1.5-1-2.3-1.4c-0.5-0.3-1.1-0.5-1.6-0.8
							c0,0-0.3-0.3-0.5-0.4s-0.6-0.2-0.9-0.4c0.4,0.3,0.7,0.6,1.1,0.9c0.5,0.4,1.3,0.5,1.8,1.1c-0.5-0.6-1.3-0.7-1.8-1.1
							c-0.3-0.3-0.7-0.6-1.1-0.9c-0.8-0.4-1.7-1-2.4-1.6c1,0.5,1.8,1.1,2.4,1.6c0.4,0.2,0.7,0.3,0.9,0.4s0.5,0.4,0.5,0.4
							c0.5,0.3,1.1,0.6,1.6,0.8c-1.5-0.9-3-1.9-4.6-2.9c-10-6.3-19.4-12-29.8-18.5c-5.7-3.5-11.1-6.9-16.3-10.3
							c-10.6-6.9-20.5-12.6-31-19.7c-4-2.7-11.8-7.3-15.8-9.7c-5.6-2.9-3.3-0.4-3.1-0.1c2.8,2.8,5.7,3.9,12.1,8.4
							c-4.4-3,3.7,1.6,7.7,4.7c5.8,4.6,15,9.4,22.6,14.3c1.9,1.2,4,2.4,6.3,3.9c11.8,7.5,23.1,14,35.6,21.7c3.3,2,6.4,3.6,9.2,5.2
							c2.1,1.2,4.2,2.6,5.9,3.7c2.6,1.6,4.9,2.9,7.1,4.1c-2.4-1.4-4.2-2.4-6.9-4.1c-1.8-1.1,1.4,0.5,2.6,1.2c0.5,0.3,1.2,1,1.7,1.2
							c1.1,0.7,2.2,1.2,3.4,1.9c0.5,0.3,0.4,0.4,0.6,0.6c1.6,0.9,3,1.4,4,2.1c0.8,0.5,1.5,1,2.1,1.4c0.4,0.3,0.9,0.5,1.3,0.8
							c0.3,0.2,0.6,0.3,0.9,0.5c-0.2-0.2-0.2-0.3-0.3-0.5c0.4,0.3,1,0.7,1.4,1c-0.4-0.3-1-0.7-1.4-1c0,0.1,0.1,0.3,0.3,0.5
							c2.2,1.2,4.7,2.6,7.1,3.9l0,0c-1.3-0.8-2.6-1.6-3.9-2.6c0.6,0.4,0.5,0.4-0.2,0c-0.2-0.1-0.3-0.3-0.5-0.4
							c1.2,0.7,2.4,1.3,3.5,2.2c0,0,0.5,0.3,0.8,0.4c0.4,0.3,0.3,0.3,0.3,0.4c0.3,0.2,0.5,0.3,0.8,0.5
							C182.3,116.6,180.7,115.4,180.7,115.4z"/>
						<path class="st1" d="M167,107c0.2,0.1,0.4,0.2,0.7,0.4c-0.9-0.5-1.7-1.1-2.6-1.6C165.4,106.2,166.2,106.6,167,107z"/>
					</g>
				</g>
			</g>
		</g>
	</g>
</g>
<g>
	<g>
		<g>
			<g>
				<g class="st0">
					<g>
						<path class="st1" d="M51.5,46.6l-0.7,0.8c0.1-0.1,0.3-0.2,0.4-0.3C51.4,46.9,51.4,46.8,51.5,46.6z"/>
						<path class="st1" d="M50.1,48.1L50.1,48.1l-0.2,0.2L50.1,48.1z"/>
						<path class="st1" d="M48.9,49.5c0.2-0.2,0.4-0.5,0.6-0.7C49.3,49,49.1,49.2,48.9,49.5z"/>
						<path class="st1" d="M49.9,48.4C49.8,48.5,49.7,48.5,49.9,48.4L49.9,48.4c-0.2,0.1-0.3,0.2-0.4,0.3
							C49.6,48.6,49.8,48.5,49.9,48.4z"/>
						<path class="st1" d="M49.9,48.4c0.1-0.1,0.2-0.2,0.3-0.2C50.1,48.3,50,48.4,49.9,48.4z"/>
						<path class="st1" d="M50.2,49.4c-0.1,0.2-0.3,0-0.5,0.3c-0.5,0.7-1,1.3-1.5,1.9c-0.2,0.3-0.8,0.6-1,0.9
							c-0.5,0.7-1.8,2.5-0.9,1.6c1.3-1.5,2.1-2.5,3.3-3.8c0.9-1.1,1.7-2.2,2.7-3.3c0.3-0.3,0.6-0.6,0.8-0.8
							c-0.4,0.3-0.8,0.7-1.2,1.1C51.4,47.6,51,48.5,50.2,49.4z"/>
						<path class="st1" d="M57.1,41.1c-0.1,0.1-0.3,0.5-0.3,0.5c-0.7,0.5-1.3,1.1-1.8,1.8l0.4-0.2c0.3-0.4,0.3-0.4,0-0.2
							c0.8-0.6,1.5-1.3,2.2-2C57.3,41,57.3,40.9,57.1,41.1z"/>
						<path class="st1" d="M57.8,40.6c-0.1,0.1-0.3,0.3-0.4,0.4l0,0C57.6,40.8,57.7,40.7,57.8,40.6L57.8,40.6z"/>
						<path class="st1" d="M46.4,52.5c-1.6,1.8-3.2,3.6-4.7,5.2c-0.1,0.2-0.1,0.3-0.3,0.4c-0.1,0.1-0.3,0.2-0.4,0.3l-0.6,0.7
							c-0.1,0.1-0.1,0.2-0.2,0.3l0,0c-0.1,0.2,0,0.1,0.1,0.1c0.1-0.1,0.2-0.2,0.3-0.2c-0.1,0-0.2,0.1-0.3,0.2
							c-0.1,0.1-0.3,0.2-0.4,0.4c-0.2,0.2-0.4,0.5-0.6,0.7c0.2-0.3,0.4-0.5,0.6-0.7c0.1-0.2,0.2-0.3,0.3-0.4l0.1-0.1
							c-0.5,0.6-1,1.1-1.5,1.7c-0.1,0.1-0.2,0.3-0.3,0.4c-0.3,0.4-0.6,0.9-0.9,1.1l-0.3,0.3c0,0,0,0,0.1,0L37.3,63
							c-0.4,0.4-0.7,0.9-1.1,1.3c-0.2,0.3-0.4,0.6-0.6,1c0,0-0.2,0.1-0.3,0.2c0,0.2-0.2,0.4-0.3,0.6c0.2-0.2,0.5-0.4,0.7-0.5
							c0.3-0.2,0.4-0.8,0.8-1c-0.5,0.2-0.5,0.8-0.8,1c-0.2,0.2-0.4,0.3-0.7,0.5c-0.3,0.4-0.8,1-1.2,1.3c0.4-0.6,0.8-1,1.2-1.3
							c0.1-0.2,0.3-0.4,0.3-0.6c0.1-0.1,0.3-0.2,0.3-0.2c0.2-0.3,0.4-0.6,0.6-1c-0.7,0.8-1.4,1.7-2.2,2.6
							c-4.7,5.7-8.8,11.2-13.1,17.6c-2.3,3.4-4.5,6.8-6.5,10.2c-2,3.4-3.7,6.8-5.2,10.2c-1.5,3.5-2.8,7-3.9,11
							c-0.3,1.5-0.8,3.8-0.6,6.1c0.1,2.3,0.8,4.7,1.7,6.2c0.6,1,1.2,1.4,1.6,1.6c0.4,0.2,0.6,0.2,0.7,0c0.2-0.3,0-0.9,0-1
							c-0.1-0.3-0.2-0.6-0.3-0.8c-0.1-0.3-0.2-0.6-0.3-0.8c-0.2-0.5-0.3-1.1-0.6-1.7c-0.3-1.3-0.6-2.9-0.3-5.2
							c-0.1,1.6-0.3,1-0.3-0.4s0.4-3.6,1.1-5c1-2.1,1.8-4.6,2.8-7.3c1-2.7,2.1-5.4,3.5-7.9c0.7-1.2,1.4-2.5,2.1-4
							c4.5-7.4,8.6-14.3,14.1-21.5c1.4-1.9,2.6-3.7,3.7-5.4c0.9-1.2,2-2.4,2.7-3.3c1.2-1.5,2.2-2.8,3.1-4c-1.1,1.4-1.9,2.4-3.1,3.9
							c-0.8,1,0.3-0.9,0.8-1.6c0.2-0.3,0.8-0.6,1-0.9c0.5-0.6,0.9-1.2,1.4-1.9c0.2-0.3,0.4-0.1,0.5-0.3c0.7-0.9,1.1-1.8,1.6-2.3
							c0.4-0.4,0.8-0.8,1.1-1.1c0.2-0.2,0.4-0.5,0.6-0.7c0.1-0.2,0.2-0.3,0.4-0.5c-0.2,0.1-0.3,0.1-0.4,0.1c0.2-0.2,0.5-0.5,0.8-0.7
							c-0.2,0.2-0.5,0.5-0.8,0.7c0.1,0,0.2,0,0.4-0.1c0.9-1.3,2-2.7,3.1-4l0,0c-0.6,0.7-1.3,1.4-2.1,2.1c0.3-0.3,0.3-0.2,0,0.2
							L45,54.6c0.5-0.7,1.1-1.4,1.7-1.9c0,0,0.2-0.3,0.3-0.5c0.2-0.2,0.3-0.1,0.3-0.1c0.1-0.1,0.2-0.3,0.4-0.4
							C47.4,51.7,46.4,52.5,46.4,52.5z"/>
						<path class="st1" d="M39.8,60c0.1-0.1,0.2-0.2,0.3-0.4L38.9,61C39.1,60.9,39.5,60.5,39.8,60z"/>
					</g>
				</g>
			</g>
		</g>
	</g>
</g>
<g>
	<g>
		<g>
			<g>
				<g class="st0">
					<g>
						<path class="st1" d="M42.3,169.3c0.6-0.1,1.2-0.1,1.8-0.2c-0.3,0-0.6,0-0.9,0C42.8,169.1,42.6,169.2,42.3,169.3z"/>
						<path class="st1" d="M45.7,168.9c0.1,0,0.2,0,0.3,0s0.2,0,0.3-0.1C46.1,168.8,45.9,168.9,45.7,168.9z"/>
						<path class="st1" d="M48.8,168.4c-0.5,0.1-1.1,0.1-1.6,0.2C47.6,168.6,48.2,168.5,48.8,168.4z"/>
						<path class="st1" d="M46.3,168.7c0.2,0,0.3,0,0,0.1l0,0c0.3-0.1,0.6-0.1,0.9-0.2C46.9,168.7,46.6,168.7,46.3,168.7z"/>
						<path class="st1" d="M46.3,168.7c-0.2,0-0.5,0-0.6,0C45.9,168.7,46.1,168.7,46.3,168.7z"/>
						<path class="st1" d="M47,167.7c0.3-0.1,0.3,0.2,0.9,0c1.4-0.3,2.6-0.5,4-0.7c0.6-0.1,1.6,0,2.2-0.1c1.4-0.3,5-1.1,2.9-0.8
							c-3.2,0.5-5.3,0.8-8.2,1.2c-2.4,0.4-4.6,0.8-7,1.2c-0.7,0.1-1.3,0.2-2,0.2c0.8-0.1,1.7-0.1,2.6-0.2
							C43.6,168.6,45,168.1,47,167.7z"/>
						<path class="st1" d="M29.4,170.9c0.3-0.1,0.9-0.2,0.9-0.2c1.4,0,2.8-0.3,4.2-0.5c-0.2,0-0.4,0-0.7,0c-0.8,0.1-0.9,0.2-0.2,0.2
							c-1.7,0.1-3.3,0.3-4.9,0.5C28.9,170.8,28.9,170.9,29.4,170.9z"/>
						<path class="st1" d="M27.9,170.9c0.3,0,0.6-0.1,0.9-0.1l0,0C28.5,170.8,28.2,170.9,27.9,170.9L27.9,170.9z"/>
						<path class="st1" d="M55.2,167.3c4.1-0.5,7.9-1,11.6-1.5c0.3-0.1,0.5-0.2,0.9-0.2c0.3,0,0.6,0,0.9,0c0.5-0.1,1.1-0.1,1.6-0.2
							c0.2,0,0.4-0.1,0.6-0.1l0,0c0.3-0.1,0.2-0.1,0-0.1s-0.4,0-0.6,0c0.1,0,0.4,0,0.6,0c0.3,0,0.6,0,0.9,0c0.5-0.1,1-0.2,1.6-0.2
							c-0.6,0.1-1.1,0.2-1.6,0.2c-0.3,0.1-0.6,0.1-0.9,0.2c-0.1,0-0.2,0-0.3,0.1c1.2-0.2,2.5-0.3,3.7-0.5c0.3,0,0.6-0.1,0.8-0.1
							c0.9-0.2,1.8-0.3,2.4-0.3c0.2,0,0.4-0.1,0.7-0.1H78c0.1,0,0.2,0,0.3,0c0.9-0.1,1.9-0.2,2.8-0.3c0.6-0.1,1.2-0.3,1.8-0.4
							c0,0,0.4,0,0.6,0c0.2-0.1,0.6-0.2,1-0.3c-0.5,0-1,0-1.4,0c-0.6,0-1.4,0.4-2.2,0.3c0.8,0.1,1.5-0.3,2.2-0.3c0.4,0,0.9,0,1.4,0
							c0.9-0.2,2-0.3,3-0.3c-1.1,0.3-2.1,0.3-3,0.3c-0.4,0.1-0.8,0.2-1,0.3c-0.2,0-0.6,0-0.6,0c-0.6,0.1-1.2,0.3-1.8,0.4
							c1.8-0.2,3.7-0.4,5.6-0.7c12.2-1.5,23.5-3,36.2-4.6c6.9-0.8,13.5-1.6,20-2.3c12.9-1.4,24.6-3.3,37.8-4.4
							c5-0.5,14.3-1.8,19.1-2.5c6.4-1.3,2.9-1.8,2.6-1.8c-4.1-0.3-7.1,0.6-15.3,1.1c5.5-0.4-4,1.1-9.3,1.2
							c-7.6,0.1-18.3,2.2-27.6,3.2c-2.3,0.2-4.8,0.6-7.6,1c-14.4,1.6-27.7,3.8-42.9,5.7c-4,0.5-7.5,1.2-10.9,1.8
							c-2.5,0.4-5.1,0.6-7.1,0.9c-3.2,0.4-5.9,0.9-8.4,1.3c2.9-0.4,5-0.8,8.2-1.2c2.2-0.3-1.5,0.5-2.9,0.8c-0.6,0.1-1.6,0-2.2,0.1
							c-1.3,0.2-2.5,0.4-4,0.7c-0.6,0.1-0.6-0.1-0.9,0c-1.9,0.3-3.4,0.8-4.7,0.9c-0.9,0.1-1.8,0.2-2.6,0.2c-0.5,0.1-1.1,0.1-1.6,0.2
							c-0.3,0.1-0.7,0.1-1.1,0.2c0.3,0,0.4,0.1,0.5,0.2c-0.5,0.1-1.2,0.1-1.8,0.2c0.5-0.1,1.2-0.1,1.8-0.2c-0.1-0.1-0.2-0.2-0.5-0.2
							c-2.5,0.5-5.5,1-8.2,1.5l0,0c1.6-0.2,3.2-0.4,4.9-0.5c-0.7,0-0.6,0,0.2-0.2c0.2,0,0.4,0,0.6,0c-1.4,0.3-2.8,0.5-4.2,0.5
							c0,0-0.6,0.1-0.9,0.2c-0.5,0-0.4-0.1-0.6-0.1c-0.3,0-0.6,0.1-0.9,0.1C53.1,167.5,55.2,167.3,55.2,167.3z"/>
						<path class="st1" d="M71.7,165.2c-0.2,0-0.5,0.1-0.8,0.1c1-0.1,2.1-0.3,3.1-0.4C73.5,164.9,72.6,165,71.7,165.2z"/>
					</g>
				</g>
			</g>
		</g>
	</g>
</g>
<g>
	<g>
		<g>
			<g>
				<g class="st0">
					<g>
						<path class="st1" d="M26.6,167.3c-0.1-0.1-0.1-0.3-0.2-0.4c0,0.1,0,0.2,0,0.2C26.5,167.3,26.5,167.3,26.6,167.3z"/>
						<path class="st1" d="M26.3,166.5C26.3,166.5,26.2,166.5,26.3,166.5c0-0.1-0.1-0.1-0.1-0.1C26.2,166.4,26.2,166.5,26.3,166.5z"
							/>
						<path class="st1" d="M25.9,165.8c0,0.1,0.1,0.3,0.2,0.4C26,166.1,26,166,25.9,165.8z"/>
						<path class="st1" d="M26.1,166.4C26.1,166.4,26.1,166.3,26.1,166.4C26.2,166.4,26.2,166.4,26.1,166.4c0.1-0.1,0-0.2,0-0.2
							C26.1,166.3,26.1,166.4,26.1,166.4z"/>
						<path class="st1" d="M26.1,166.4c0,0.1,0,0.1,0,0.2C26.1,166.5,26.1,166.5,26.1,166.4z"/>
						<path class="st1" d="M25.2,166.6c-0.1-0.1,0.2-0.1,0.1-0.3c-0.2-0.3-0.4-0.6-0.6-0.9c-0.1-0.1,0-0.5-0.1-0.6
							c-0.2-0.3-0.9-1-0.7-0.5c0.4,0.8,0.7,1.2,1,1.9c0.3,0.5,0.7,1,1,1.6c0.1,0.2,0.1,0.3,0.2,0.5c-0.1-0.2-0.1-0.4-0.2-0.7
							C25.9,167.3,25.5,167,25.2,166.6z"/>
						<path class="st1" d="M27.9,170.5c-0.1-0.1-0.2-0.2-0.2-0.2c0-0.4-0.2-0.7-0.4-1c0,0.1,0,0.1,0,0.2c0.1,0.2,0.2,0.2,0.1,0
							c0,0.5,0.2,0.8,0.4,1.2C27.8,170.6,27.9,170.6,27.9,170.5z"/>
						<path class="st1" d="M27.9,170.9c0-0.1-0.1-0.1-0.1-0.2l0,0C27.8,170.7,27.8,170.8,27.9,170.9L27.9,170.9z"/>
						<path class="st1" d="M25,164.4c-0.4-1-0.8-1.9-1.2-2.8c-0.1,0-0.1-0.1-0.2-0.2c0-0.1,0-0.2,0-0.2c-0.1-0.1-0.1-0.3-0.2-0.4
							l-0.1-0.1l0,0c-0.1-0.1-0.1,0-0.1,0c0,0.1,0,0.1,0,0.2c0,0,0-0.1,0-0.2c0-0.1,0-0.2,0-0.2c-0.1-0.1-0.1-0.2-0.2-0.4
							c0.1,0.1,0.1,0.3,0.2,0.4c0,0.1,0.1,0.1,0.1,0.2c0,0,0,0,0,0.1c-0.1-0.3-0.2-0.6-0.4-0.9c0-0.1-0.1-0.1-0.1-0.2
							c-0.1-0.2-0.3-0.4-0.2-0.6c0-0.1,0-0.1-0.1-0.2l0,0c0,0,0,0,0-0.1c-0.1-0.2-0.2-0.5-0.3-0.7c-0.1-0.1-0.2-0.3-0.3-0.4
							c0,0,0-0.1,0-0.2c-0.1,0-0.2-0.1-0.2-0.2c0,0.2,0,0.3,0,0.4c0,0.2,0.4,0.2,0.2,0.5c0.1-0.3-0.3-0.3-0.2-0.5c0-0.1,0-0.3,0-0.4
							c-0.1-0.2-0.2-0.5-0.2-0.8c0.2,0.2,0.2,0.5,0.2,0.8c0.1,0.1,0.1,0.2,0.2,0.2c0,0.1,0,0.2,0,0.2c0.1,0.1,0.2,0.3,0.3,0.4
							c-0.2-0.4-0.4-0.9-0.5-1.4c-1.2-3-2.4-5.6-3.7-8.7c-0.7-1.7-1.3-3.3-1.9-4.9c-1.1-3.2-2.7-5.8-3.5-9.2c-0.3-1.3-1.4-3.4-2-4.6
							c-1.1-1.4-1.6-0.1-1.7-0.1c-0.4,1.3,0.4,1.8,0.8,4c-0.3-1.4,1,0.7,1,2.2c0,2.2,1.8,4.4,2.6,6.7c0.2,0.6,0.5,1.1,0.8,1.8
							c1.3,3.5,3.1,6.6,4.6,10.2c0.4,1,1,1.7,1.5,2.4c0.3,0.6,0.5,1.2,0.7,1.7c0.3,0.7,0.7,1.4,1.1,1.9c-0.4-0.7-0.6-1.1-1-1.9
							c-0.2-0.5,0.4,0.2,0.7,0.5c0.1,0.1,0,0.5,0.1,0.6c0.1,0.3,0.4,0.6,0.6,0.9c0.1,0.1-0.1,0.2-0.1,0.3c0.3,0.4,0.7,0.7,0.8,1
							c0.1,0.2,0.1,0.5,0.2,0.7c0,0.1,0.1,0.3,0.2,0.4c0.1,0.1,0.1,0.1,0.2,0.2c0-0.1,0.1-0.2,0.2-0.2c0,0.1,0.1,0.3,0.1,0.4
							c0-0.1-0.1-0.3-0.1-0.4c-0.1,0.1-0.1,0.1-0.2,0.2c0.4,0.6,0.8,1.2,1.2,1.8l0,0c-0.2-0.4-0.3-0.8-0.4-1.2c0,0.2,0,0.2-0.1,0
							c0-0.1,0-0.1,0-0.2c0.2,0.3,0.4,0.6,0.4,1C24.8,164.2,24.9,164.3,25,164.4c0,0.1-0.1,0.1-0.1,0.2c0,0.1,0.1,0.1,0.1,0.2
							C25.1,164.9,25,164.4,25,164.4z"/>
						<path class="st1" d="M23.2,160.5c0,0,0.1,0.1,0.1,0.2c-0.1-0.3-0.2-0.5-0.3-0.8C23,160.1,23.1,160.3,23.2,160.5z"/>
					</g>
				</g>
			</g>
		</g>
	</g>
</g>
<g>
	<g>
		<g>
			<g>
				<g class="st0">
					<g>
						<path class="st1" d="M203.6,146.1c0-0.1,0-0.1,0-0.2C203.6,146,203.6,146,203.6,146.1C203.5,146.1,203.6,146.1,203.6,146.1z"
							/>
						<path class="st1" d="M203.7,145.8C203.7,145.8,203.7,145.7,203.7,145.8C203.7,145.7,203.6,145.7,203.7,145.8
							C203.6,145.7,203.7,145.7,203.7,145.8z"/>
						<path class="st1" d="M203.6,145.4c0,0.1,0,0.1,0,0.2C203.6,145.6,203.6,145.5,203.6,145.4z"/>
						<path class="st1" d="M203.5,145.7h0.1l0,0C203.6,145.7,203.6,145.6,203.5,145.7C203.6,145.6,203.6,145.7,203.5,145.7z"/>
						<path class="st1" d="M203.5,145.7L203.5,145.7L203.5,145.7z"/>
						<path class="st1" d="M202.7,145.6c0,0,0.2,0,0.2-0.1c-0.1-0.1-0.2-0.3-0.2-0.4c-0.1-0.1,0.2-0.2,0.2-0.2
							c-0.1-0.2-0.4-0.5-0.4-0.3c0,0.3,0.1,0.6,0.1,0.9c0.1,0.2,0.2,0.5,0.3,0.7c0,0.1,0,0.1,0,0.2c0-0.1,0.1-0.2,0.1-0.3
							C203.1,146,202.7,145.8,202.7,145.6z"/>
						<path class="st1" d="M203.5,147.5C203.5,147.4,203.4,147.4,203.5,147.5c0.1-0.2,0-0.4,0-0.5c0,0-0.1,0-0.1,0.1s0.1,0.1,0.1,0
							c-0.1,0.2-0.2,0.3-0.1,0.5C203.4,147.5,203.5,147.5,203.5,147.5z"/>
						<path class="st1" d="M203.3,147.6L203.3,147.6C203.3,147.5,203.3,147.5,203.3,147.6L203.3,147.6L203.3,147.6z"/>
						<path class="st1" d="M203.4,144.8c0-0.4,0-0.8,0-1.2l-0.1-0.1l0.1-0.1c0-0.1,0-0.1,0-0.2c0,0,0,0,0-0.1l0,0h-0.1
							c0,0-0.1,0-0.1,0.1c0,0,0.1,0,0.1-0.1l0.1-0.1c0-0.1,0-0.1,0-0.2c0,0.1,0,0.1,0,0.2v0.1l0,0c0-0.1,0-0.3,0-0.4v-0.1
							c0-0.1-0.1-0.2,0.1-0.2c0,0,0,0,0-0.1l0,0l0,0c0-0.1,0-0.2,0-0.3s-0.1-0.1-0.1-0.2c0,0,0.1,0,0.1-0.1c-0.1,0-0.1-0.1-0.1-0.1
							c-0.1,0.1-0.2,0.1-0.2,0.1c-0.1,0.1,0.2,0.1,0,0.2c0.2-0.1-0.1-0.2,0-0.2c0,0,0.1-0.1,0.2-0.1c0-0.1,0-0.2,0.1-0.3
							c0.1,0.1,0,0.2-0.1,0.3l0.1,0.1l-0.1,0.1c0,0.1,0.1,0.1,0.1,0.2c0-0.2,0-0.4,0.1-0.6c0.2-1.3,0.1-2.5,0.2-3.8
							c0.1-0.7,0.2-1.4,0.3-2.1c0.3-1.3,0-2.6,0.6-3.9c0.2-0.5,0.1-1.5,0.1-2c-0.4-0.7-1.4-0.3-1.5-0.3c-0.9,0.4-0.4,0.7-0.9,1.6
							c0.3-0.6,0.6,0.4,0,1c-0.9,0.8-0.2,1.9-0.4,2.9c-0.1,0.2,0,0.5,0,0.8c-0.3,1.5,0.1,2.9,0,4.5c0,0.4,0.2,0.8,0.3,1.1
							c0,0.3-0.1,0.5-0.1,0.7c0,0.3,0.1,0.6,0.2,0.9c0-0.3-0.1-0.5-0.1-0.9c0-0.2,0.3,0.2,0.4,0.3c0.1,0.1-0.2,0.2-0.2,0.2
							c0,0.1,0.1,0.3,0.2,0.4c0.1,0.1-0.2,0.1-0.2,0.1c0.1,0.2,0.4,0.4,0.3,0.5c0,0.1-0.1,0.2-0.1,0.3s0,0.1,0,0.2
							c0,0,0,0.1,0.1,0.1s0.2,0,0.3-0.1c0,0.1-0.1,0.1-0.1,0.2c0-0.1,0.1-0.1,0.1-0.2c-0.1,0-0.2,0-0.3,0.1c0.1,0.3,0.3,0.6,0.4,0.9
							l0,0c0-0.2,0-0.3,0.1-0.5c-0.1,0.1-0.1,0.1-0.1,0c0,0,0.1,0,0.1-0.1c0.1,0.2,0.1,0.3,0,0.4L203.4,144.8c0,0-0.1,0-0.2,0.1v0.1
							C203.2,145,203.4,144.8,203.4,144.8z"/>
						<path class="st1" d="M203.4,143C203.4,143.1,203.4,143.1,203.4,143c0,0,0-0.1,0.1-0.2C203.3,142.8,203.4,142.9,203.4,143z"/>
					</g>
				</g>
			</g>
		</g>
	</g>
</g>
<g>
	<g>
		<g>
			<g>
				<g class="st0">
					<g>
						<path class="st1" d="M66.8,79.9l-0.3-0.6c0,0.1,0.1,0.2,0.1,0.3C66.6,79.7,66.7,79.8,66.8,79.9z"/>
						<polygon class="st1" points="66.1,78.8 66,78.7 66,78.6 						"/>
						<path class="st1" d="M65.3,78c0.1,0.2,0.3,0.3,0.4,0.4C65.6,78.3,65.5,78.1,65.3,78z"/>
						<path class="st1" d="M65.9,78.7C65.9,78.6,65.9,78.6,65.9,78.7L65.9,78.7l-0.1-0.3C65.8,78.5,65.8,78.6,65.9,78.7z"/>
						<path class="st1" d="M65.9,78.7c0,0.1,0,0.2,0.1,0.2C65.9,78.8,65.9,78.8,65.9,78.7z"/>
						<path class="st1" d="M65,79c-0.1-0.1,0.1-0.2-0.1-0.3c-0.4-0.3-0.7-0.5-1.1-0.8c-0.2-0.1-0.3-0.5-0.5-0.6
							c-0.4-0.3-1.6-0.6-1-0.2c0.9,0.5,1.5,0.9,2.2,1.6c0.6,0.5,1.1,1.1,1.6,1.7c0.1,0.2,0.2,0.4,0.3,0.6c-0.1-0.3-0.2-0.6-0.3-0.9
							c-0.1-0.2-0.3-0.4-0.5-0.6C65.5,79.4,65.3,79.2,65,79z"/>
						<path class="st1" d="M67.9,84.4c0-0.1-0.1-0.3-0.1-0.3c0.1-0.5,0-1-0.2-1.5l-0.1,0.2c0.1,0.3,0.1,0.3,0.1,0
							c0,0.6,0,1.2,0.1,1.7C67.8,84.5,67.9,84.5,67.9,84.4z"/>
						<path class="st1" d="M67.8,84.9c0-0.1,0-0.2,0-0.3l0,0C67.8,84.7,67.8,84.8,67.8,84.9L67.8,84.9z"/>
						<path class="st1" d="M63.4,76.6c-1.2-0.8-2.5-1.3-3.8-1.6c-0.1,0-0.2,0.1-0.3,0c-0.1,0-0.2,0-0.3-0.1c-0.2,0-0.4,0-0.6-0.1
							c-0.1,0-0.1,0-0.2,0l0,0c-0.1,0-0.1,0.1,0,0.1s0.1,0.1,0.2,0.1c0,0-0.1-0.1-0.2-0.1c-0.1,0-0.2-0.1-0.3-0.1
							c-0.2,0-0.4,0-0.6,0c0.2,0,0.4,0,0.6,0h0.3h0.1c-0.4-0.1-0.9,0-1.3,0c-0.1,0-0.2,0-0.3,0C56.3,75,56,75.1,55.8,75h-0.2l0,0
							h-0.1c-0.3,0.1-0.7,0.1-1,0.3c-0.2,0.1-0.4,0.2-0.6,0.4c0,0-0.2,0-0.3,0c-0.1,0.1-0.2,0.2-0.3,0.3c0.2,0,0.4,0,0.5,0
							c0.2,0,0.4-0.4,0.7-0.3C54.2,75.6,54,76,53.8,76s-0.3,0-0.5,0c-0.3,0.2-0.6,0.3-1,0.4c0.3-0.3,0.7-0.4,1-0.4
							c0.1-0.1,0.2-0.2,0.3-0.3c0.1,0,0.3,0,0.3,0c0.2-0.1,0.4-0.2,0.6-0.4c-0.6,0.2-1.3,0.5-1.9,0.8c-2,1.1-3.5,2.8-4.4,4.8
							s-1.1,4.3-0.6,6.7c0.6,2.5,2,4.7,4,6.2s4.5,2.2,6.9,2c2.4-0.1,4.8-1,6.9-2.6c0.8-0.6,1.8-1.7,2.5-3s1-2.7,1.1-3.7
							c0-1.3-0.5-1.6-0.7-1.6c-0.3,0-0.6,0.4-0.6,0.4c-0.2,0.3-0.4,0.7-0.5,1s-0.2,0.6-0.4,1c-0.2,0.7-0.6,1.6-1.5,2.6
							c0.6-0.7,0.6-0.3,0.1,0.3C65,90.9,64,91.7,63.2,92c-1.2,0.4-2.5,1-3.9,1.3s-3.1,0.3-4.4-0.3c-0.7-0.3-1.3-0.6-2-1.1
							c-1.7-1.4-2.9-3.2-3.4-5.3c-0.5-2.1-0.2-4.4,1.1-6.4c0.7-1,1.3-2,2.1-2.7c0.6-0.5,1.4-0.8,2-1c0.9-0.4,1.8-0.6,2.6-0.7
							c-0.9,0.1-1.6,0.3-2.5,0.7c-0.6,0.3,0.3-0.5,0.8-0.6c0.2-0.1,0.5,0.1,0.7,0c0.4-0.1,0.8-0.2,1.3-0.3c0.2-0.1,0.2,0.2,0.3,0.1
							c0.3,0,0.6-0.1,0.9-0.1c0.3,0,0.5-0.1,0.7,0c0.3,0.1,0.6,0.2,0.8,0.3c0.2,0.1,0.3,0.1,0.5,0.2c0.1,0,0.2,0,0.4,0.1
							c-0.1-0.1-0.1-0.2-0.1-0.3c0.2,0.1,0.4,0.2,0.5,0.3c-0.2-0.1-0.4-0.2-0.5-0.3c0,0.1,0,0.2,0.1,0.3c0.8,0.2,1.8,0.5,2.6,1.1
							l0,0c-0.5-0.3-0.9-0.6-1.3-1c0.2,0.2,0.1,0.2-0.1,0.1l-0.1-0.2c0.5,0.1,1,0.4,1.3,0.8c0,0,0.2,0.1,0.3,0.1
							c0.1,0.1,0.1,0.2,0,0.2c0.1,0.1,0.2,0.1,0.3,0.2C63.9,77.2,63.4,76.6,63.4,76.6z"/>
						<path class="st1" d="M57.8,74.9c0.1,0,0.2,0,0.3,0c-0.4,0-0.7,0-1.1,0C57.2,75,57.5,75,57.8,74.9z"/>
					</g>
				</g>
			</g>
		</g>
	</g>
</g>
<g>
	<g>
		<g>
			<g>
				<g class="st0">
					<g>
						<path class="st1" d="M56.8,145l-0.3-0.6c0,0.1,0.1,0.2,0.1,0.3C56.6,144.9,56.7,144.9,56.8,145z"/>
						<polygon class="st1" points="56.2,144 56.1,143.9 56,143.8 						"/>
						<path class="st1" d="M55.4,143.1c0.1,0.2,0.3,0.3,0.4,0.4C55.7,143.4,55.6,143.3,55.4,143.1z"/>
						<path class="st1" d="M55.9,143.8C55.9,143.8,55.9,143.7,55.9,143.8L55.9,143.8l-0.1-0.3C55.9,143.7,55.9,143.8,55.9,143.8z"/>
						<path class="st1" d="M55.9,143.8c0,0.1,0,0.2,0.1,0.2C56,144,56,143.9,55.9,143.8z"/>
						<path class="st1" d="M55.1,144.2c-0.1-0.1,0.1-0.2-0.1-0.3c-0.4-0.3-0.7-0.5-1.1-0.8c-0.2-0.1-0.3-0.5-0.5-0.6
							c-0.4-0.3-1.6-0.6-1-0.2c0.9,0.5,1.5,0.9,2.2,1.6c0.6,0.5,1.1,1.1,1.6,1.7c0.1,0.2,0.2,0.4,0.3,0.6c-0.1-0.3-0.2-0.6-0.3-0.9
							c-0.1-0.2-0.3-0.4-0.5-0.6C55.6,144.6,55.3,144.4,55.1,144.2z"/>
						<path class="st1" d="M58,149.5c0-0.1-0.1-0.3-0.1-0.3c0.1-0.5,0-1-0.2-1.5l-0.1,0.2c0.1,0.3,0.1,0.3,0.1,0
							c0,0.6,0,1.2,0.1,1.7C57.9,149.7,58,149.7,58,149.5z"/>
						<path class="st1" d="M57.9,150.1c0-0.1,0-0.2,0-0.3l0,0C57.8,149.9,57.8,150,57.9,150.1L57.9,150.1z"/>
						<path class="st1" d="M53.5,141.8c-1.2-0.8-2.5-1.3-3.8-1.6c-0.1,0-0.2,0.1-0.3,0s-0.2-0.1-0.3-0.1c-0.2,0-0.4,0-0.6-0.1
							c-0.1,0-0.1,0-0.2,0l0,0c-0.1,0-0.1,0.1,0,0.1s0.1,0.1,0.2,0.1c0,0-0.1-0.1-0.2-0.1c-0.1,0-0.2-0.1-0.3-0.1
							c-0.2,0-0.4,0-0.6,0c0.2,0,0.4,0,0.6,0h0.3h0.1c-0.4-0.1-0.9,0-1.3,0c-0.1,0-0.2,0-0.3,0c-0.3,0.1-0.6,0.2-0.8,0.1l-0.2,0.1
							l0,0h-0.1c-0.3,0.1-0.7,0.1-1,0.3c-0.2,0.1-0.4,0.3-0.6,0.4c0,0-0.2,0-0.3,0c-0.1,0.1-0.2,0.2-0.3,0.3c0.2,0,0.4,0,0.5,0
							c0.2,0,0.4-0.4,0.7-0.3c-0.3-0.1-0.5,0.3-0.7,0.3s-0.3,0-0.5,0c-0.3,0.2-0.6,0.3-1,0.4c0.3-0.3,0.7-0.4,1-0.4
							c0.1-0.1,0.2-0.2,0.3-0.3c0.1,0,0.3,0,0.3,0c0.2-0.1,0.4-0.2,0.6-0.4c-0.6,0.2-1.3,0.5-1.9,0.8c-2,1.1-3.5,2.8-4.4,4.8
							s-1.1,4.3-0.6,6.7c0.6,2.5,2,4.7,4,6.2s4.5,2.2,6.9,2c2.4-0.1,4.8-1,6.9-2.6c0.8-0.6,1.8-1.7,2.5-3s1-2.7,1.1-3.7
							c0-1.3-0.5-1.6-0.7-1.6c-0.3,0-0.6,0.4-0.6,0.4c-0.2,0.3-0.4,0.7-0.5,1s-0.2,0.6-0.4,1c-0.2,0.7-0.6,1.6-1.5,2.6
							c0.6-0.7,0.6-0.3,0.1,0.3c-0.4,0.7-1.4,1.5-2.2,1.8c-1.2,0.4-2.5,1-3.9,1.3s-3.1,0.3-4.4-0.3c-0.7-0.3-1.3-0.6-2-1.1
							c-1.7-1.4-2.9-3.2-3.4-5.3s-0.2-4.4,1.1-6.4c0.7-1,1.3-2,2.1-2.7c0.6-0.5,1.4-0.8,2-1c0.9-0.4,1.8-0.6,2.6-0.7
							c-0.9,0.1-1.6,0.3-2.5,0.7c-0.6,0.3,0.3-0.5,0.8-0.6c0.2-0.1,0.5,0.1,0.7,0c0.4-0.1,0.8-0.2,1.3-0.3c0.2-0.1,0.2,0.2,0.3,0.1
							c0.3,0,0.6-0.1,0.9-0.1c0.3,0,0.5-0.1,0.7,0c0.3,0.1,0.6,0.2,0.8,0.3s0.3,0.1,0.5,0.2c0.1,0,0.2,0,0.4,0.1
							c-0.1-0.1-0.1-0.2-0.1-0.3c0.2,0.1,0.4,0.2,0.5,0.3c-0.2-0.1-0.4-0.2-0.5-0.3c0,0.1,0,0.2,0.1,0.3c0.8,0.2,1.8,0.5,2.6,1.1
							l0,0c-0.5-0.3-0.9-0.6-1.3-1c0.2,0.2,0.1,0.2-0.1,0.1l-0.1-0.2c0.5,0.1,1,0.4,1.3,0.8c0,0,0.2,0.1,0.3,0.1
							c0.1,0.1,0.1,0.2,0,0.2c0.1,0.1,0.2,0.1,0.3,0.2C54,142.3,53.5,141.8,53.5,141.8z"/>
						<path class="st1" d="M47.9,140.1c0.1,0,0.2,0,0.3,0c-0.4,0-0.7,0-1.1,0C47.3,140.2,47.6,140.1,47.9,140.1z"/>
					</g>
				</g>
			</g>
		</g>
	</g>
</g>
<g>
	<g>
		<g>
			<g>
				<g class="st0">
					<g>
						<path class="st1" d="M85.6,110.8l-0.2-0.3c0,0.1,0,0.1,0,0.2C85.5,110.8,85.6,110.8,85.6,110.8z"/>
						<path class="st1" d="M85.3,110.2L85.3,110.2L85.3,110.2L85.3,110.2z"/>
						<path class="st1" d="M84.9,109.8c0.1,0.1,0.1,0.2,0.2,0.2C85.1,110,85,109.9,84.9,109.8z"/>
						<path class="st1" d="M85.1,110.2C85.2,110.2,85.2,110.1,85.1,110.2L85.1,110.2V110C85.1,110.1,85.1,110.2,85.1,110.2z"/>
						<path class="st1" d="M85.1,110.2C85.1,110.3,85.1,110.3,85.1,110.2C85.1,110.3,85.2,110.3,85.1,110.2z"/>
						<path class="st1" d="M84.4,110.6c-0.1,0,0.1-0.2,0-0.2c-0.2-0.1-0.4-0.2-0.6-0.3c-0.1,0-0.1-0.3-0.2-0.3
							c-0.2-0.1-0.9-0.1-0.6,0.1c0.4,0.2,0.7,0.4,1.1,0.7c0.3,0.2,0.6,0.4,0.9,0.7c0.1,0.1,0.1,0.2,0.1,0.3c0-0.1,0-0.3-0.1-0.4
							C85,110.9,84.6,110.8,84.4,110.6z"/>
						<path class="st1" d="M86.2,113.1c0-0.1-0.1-0.2-0.1-0.2c0.1-0.3,0-0.5-0.1-0.8l-0.1,0.1c0,0.1,0.1,0.1,0.1,0
							c-0.1,0.3-0.1,0.6,0,0.9C86.1,113.2,86.2,113.2,86.2,113.1z"/>
						<path class="st1" d="M86,113.4c0-0.1,0-0.1,0-0.2l0,0C86,113.3,86,113.4,86,113.4L86,113.4z"/>
						<path class="st1" d="M83.9,109.2c-0.6-0.4-1.3-0.7-1.9-0.8c-0.1,0-0.1,0.1-0.2,0l-0.1-0.1c-0.1,0-0.2,0-0.3,0h-0.1l0,0
							c-0.1,0,0,0.1,0,0.1l0.1,0.1l-0.1-0.1c0,0-0.1-0.1-0.2-0.1s-0.2,0-0.3,0c0.1,0,0.2,0,0.3,0h0.2l0,0c-0.2,0-0.5,0-0.7,0
							c-0.1,0-0.1,0-0.1,0c-0.2,0.1-0.3,0.1-0.4,0H80l0,0l0,0c-0.2,0-0.3,0.1-0.5,0.1c-0.1,0.1-0.2,0.2-0.3,0.2c0,0-0.1,0-0.2-0.1
							c0,0.1-0.1,0.1-0.1,0.2c0.1,0,0.2,0.1,0.3,0.1c0.1,0.1,0.1-0.3,0.3-0.1c-0.2-0.2-0.2,0.2-0.3,0.1c-0.1,0-0.2,0-0.3-0.1
							c-0.1,0.1-0.3,0.2-0.5,0.2c0.1-0.2,0.3-0.2,0.5-0.2c0.1-0.1,0.1-0.1,0.1-0.2c0.1,0,0.2,0.1,0.2,0.1c0.1-0.1,0.2-0.2,0.3-0.2
							c-0.3,0.1-0.7,0.2-1,0.4c-2.1,1-3.2,3.5-2.7,5.9c0.3,1.3,1,2.5,2,3.4s2.4,1.2,3.7,1.2c1.3-0.1,2.6-0.5,3.9-1.3
							c0.5-0.3,1.1-0.9,1.4-1.7c0.4-0.7,0.6-1.6,0.6-2.1c-0.1-0.8-0.5-0.9-0.8-0.9s-0.6,0.2-0.6,0.2c-0.5,0.3-0.6,0.6-0.7,0.9
							s-0.3,0.8-0.8,1.1c0.3-0.3,0.4-0.1,0.2,0.3c-0.2,0.3-0.7,0.7-1.1,0.7c-0.7,0-1.2,0.2-1.8,0.3c-0.6,0.1-1.3,0.2-1.8-0.1
							c-0.3-0.1-0.6-0.3-0.8-0.5c-0.7-0.7-1.2-1.4-1.4-2.2c-0.2-0.8-0.2-1.8,0.4-2.6c0.3-0.4,0.4-0.9,0.8-1.3
							c0.3-0.2,0.6-0.3,0.9-0.4c0.4-0.2,0.8-0.3,1.1-0.4c-0.4,0.1-0.7,0.2-1.1,0.4c-0.3,0.1,0.1-0.4,0.3-0.5
							c0.1-0.1,0.3,0.1,0.4,0.1c0.2,0,0.4-0.2,0.6-0.2c0.1-0.1,0.1,0.2,0.1,0.2c0.3,0,0.6-0.3,0.7-0.2c0.1,0.1,0.3,0.1,0.4,0.2
							c0.1,0,0.2,0.1,0.2,0.1h0.2c0-0.1,0-0.2,0-0.3c0.1,0,0.2,0.1,0.2,0.2c-0.1,0-0.2-0.1-0.2-0.2c0,0.1,0,0.2,0,0.3
							c0.4,0,0.9,0.1,1.3,0.3l0,0c-0.2-0.2-0.4-0.3-0.6-0.6c0.1,0.1,0,0.2-0.1,0.1V109c0.3,0,0.5,0.1,0.6,0.4c0,0,0.1,0,0.2,0
							c0,0.1,0,0.1,0,0.2l0.1,0.1C84.1,109.6,83.9,109.2,83.9,109.2z"/>
						<path class="st1" d="M81,108.4L81,108.4c-0.1,0-0.3,0-0.5,0C80.7,108.4,80.9,108.4,81,108.4z"/>
					</g>
				</g>
			</g>
		</g>
	</g>
</g>
<g>
	<g>
		<g>
			<g>
				<g class="st0">
					<g>
						<path class="st1" d="M40.9,101.2l-0.3-0.6c0,0.1,0.1,0.2,0.1,0.3C40.7,101.1,40.8,101.2,40.9,101.2z"/>
						<polygon class="st1" points="40.2,100.2 40.2,100.1 40.1,100 						"/>
						<path class="st1" d="M39.5,99.3c0.1,0.2,0.3,0.3,0.4,0.4C39.8,99.6,39.6,99.5,39.5,99.3z"/>
						<path class="st1" d="M40,100.1C40,100,40,99.9,40,100.1L40,100.1l-0.1-0.3C39.9,99.9,40,100,40,100.1z"/>
						<path class="st1" d="M40,100.1c0,0.1,0,0.2,0.1,0.2C40.1,100.2,40,100.1,40,100.1z"/>
						<path class="st1" d="M39.2,100.4c-0.1-0.1,0.1-0.2-0.1-0.3c-0.4-0.3-0.7-0.5-1.1-0.8c-0.2-0.1-0.3-0.5-0.5-0.6
							c-0.4-0.3-1.6-0.6-1-0.2c0.9,0.5,1.5,0.9,2.2,1.6c0.6,0.5,1.1,1.1,1.6,1.7c0.1,0.2,0.2,0.4,0.3,0.6c-0.1-0.3-0.2-0.6-0.3-0.9
							c-0.1-0.2-0.3-0.4-0.5-0.6C39.6,100.8,39.4,100.6,39.2,100.4z"/>
						<path class="st1" d="M42.1,105.7c0-0.1-0.1-0.3-0.1-0.3c0.1-0.5,0-1-0.2-1.5l-0.1,0.2c0.1,0.3,0.1,0.3,0.1,0
							c0,0.6,0,1.2,0.1,1.7C42,105.9,42,105.9,42.1,105.7z"/>
						<path class="st1" d="M41.9,106.3c0-0.1,0-0.2,0-0.3l0,0C41.9,106.1,41.9,106.2,41.9,106.3L41.9,106.3z"/>
						<path class="st1" d="M37.6,98c-1.2-0.8-2.5-1.3-3.8-1.6c-0.1,0-0.2,0.1-0.3,0s-0.2-0.1-0.3-0.1c-0.2,0-0.4,0-0.6-0.1
							c-0.1,0-0.1,0-0.2,0l0,0c-0.1,0-0.1,0.1,0,0.1s0.1,0.1,0.2,0.1c0,0-0.1-0.1-0.2-0.1c-0.1,0-0.2-0.1-0.3-0.1
							c-0.2,0-0.4,0-0.6,0c0.2,0,0.4,0,0.6,0h0.3h0.1c-0.4-0.1-0.9,0-1.3,0c-0.1,0-0.2,0-0.3,0c-0.3,0.1-0.6,0.2-0.8,0.1l-0.2,0.1
							l0,0h-0.1c-0.3,0.1-0.7,0.1-1,0.3c-0.2,0.1-0.4,0.3-0.6,0.4c0,0-0.2,0-0.3,0c-0.1,0.1-0.2,0.2-0.3,0.3c0.2,0,0.4,0,0.5,0
							c0.2,0,0.4-0.4,0.7-0.3c-0.3-0.1-0.5,0.3-0.7,0.3s-0.3,0-0.5,0c-0.3,0.2-0.6,0.3-1,0.4c0.3-0.3,0.7-0.4,1-0.4
							c0.1-0.1,0.2-0.2,0.3-0.3c0.1,0,0.3,0,0.3,0c0.2-0.1,0.4-0.2,0.6-0.4c-0.6,0.2-1.3,0.5-1.9,0.8c-2,1.1-3.5,2.8-4.4,4.8
							s-1.1,4.3-0.6,6.7c0.6,2.5,2,4.7,4,6.2s4.5,2.2,6.9,2c2.4-0.1,4.8-1,6.9-2.6c0.8-0.6,1.8-1.7,2.5-3s1-2.7,1.1-3.7
							c0-1.3-0.5-1.6-0.7-1.6c-0.3,0-0.6,0.4-0.6,0.4c-0.2,0.3-0.4,0.7-0.5,1s-0.2,0.6-0.4,1c-0.2,0.7-0.6,1.6-1.5,2.6
							c0.6-0.7,0.6-0.3,0.1,0.3c-0.4,0.7-1.4,1.5-2.2,1.8c-1.2,0.4-2.5,1-3.9,1.3s-3.1,0.3-4.4-0.3c-0.7-0.3-1.3-0.6-2-1.1
							c-1.7-1.4-2.9-3.2-3.4-5.3c-0.5-2.1-0.2-4.4,1.1-6.4c0.7-1,1.3-2,2.1-2.7c0.6-0.5,1.4-0.8,2-1c0.9-0.4,1.8-0.6,2.6-0.7
							c-0.9,0.1-1.6,0.3-2.5,0.7c-0.6,0.3,0.3-0.5,0.8-0.6c0.2-0.1,0.5,0.1,0.7,0c0.4-0.1,0.8-0.2,1.3-0.3c0.2-0.1,0.2,0.2,0.3,0.1
							c0.3,0,0.6-0.1,0.9-0.1c0.3,0,0.5-0.1,0.7,0c0.3,0.1,0.6,0.2,0.8,0.3c0.2,0.1,0.3,0.1,0.5,0.2c0.1,0,0.2,0,0.4,0.1
							c-0.1-0.1-0.1-0.2-0.1-0.3c0.2,0.1,0.4,0.2,0.5,0.3c-0.2-0.1-0.4-0.2-0.5-0.3c0,0.1,0,0.2,0.1,0.3c0.8,0.2,1.8,0.5,2.6,1.1
							l0,0c-0.5-0.3-0.9-0.6-1.3-1c0.2,0.2,0.1,0.2-0.1,0.1l-0.1-0.2c0.5,0.1,1,0.4,1.3,0.8c0,0,0.2,0.1,0.3,0.1
							c0.1,0.1,0.1,0.2,0,0.2c0.1,0.1,0.2,0.1,0.3,0.2C38.1,98.6,37.6,98,37.6,98z"/>
						<path class="st1" d="M32,96.3c0.1,0,0.2,0,0.3,0c-0.4,0-0.7,0-1.1,0C31.3,96.4,31.7,96.3,32,96.3z"/>
					</g>
				</g>
			</g>
		</g>
	</g>
</g>
<g>
	<g>
		<g>
			<g>
				<g class="st0">
					<g>
						<path class="st1" d="M120.6,141.1l-0.2-0.3c0,0.1,0,0.1,0,0.2C120.5,141,120.6,141,120.6,141.1z"/>
						<polygon class="st1" points="120.3,140.5 120.2,140.4 120.2,140.4 						"/>
						<path class="st1" d="M119.8,140c0.1,0.1,0.1,0.2,0.2,0.2C120,140.2,119.9,140.1,119.8,140z"/>
						<path class="st1" d="M120.1,140.4C120.1,140.4,120.1,140.3,120.1,140.4L120.1,140.4l-0.1-0.2
							C120.1,140.3,120.1,140.4,120.1,140.4z"/>
						<path class="st1" d="M120.1,140.4c0,0.1,0,0.1,0,0.1S120.1,140.5,120.1,140.4z"/>
						<path class="st1" d="M119.3,140.8c-0.1,0,0.1-0.2,0-0.2c-0.2-0.2-0.4-0.2-0.6-0.4c-0.1,0-0.1-0.3-0.2-0.4
							c-0.3-0.1-1-0.1-0.6,0c0.5,0.2,0.8,0.4,1.2,0.8c0.4,0.2,0.7,0.5,1,0.8c0.1,0.1,0.1,0.2,0.1,0.3c0-0.1-0.1-0.3-0.1-0.5
							C120,141.1,119.6,141.1,119.3,140.8z"/>
						<path class="st1" d="M121.2,143.6c0-0.1-0.1-0.2-0.1-0.2c0.1-0.3,0-0.6-0.1-0.8l-0.1,0.1c0,0.2,0.1,0.2,0.1,0
							c-0.1,0.4-0.1,0.7,0,1C121.1,143.7,121.2,143.7,121.2,143.6z"/>
						<path class="st1" d="M121.1,143.9c0-0.1,0-0.1,0-0.2l0,0C121.1,143.8,121.1,143.9,121.1,143.9L121.1,143.9z"/>
						<path class="st1" d="M118.7,139.3c-0.7-0.4-1.4-0.7-2.1-0.9c-0.1,0-0.1,0.1-0.2,0c-0.1,0-0.1-0.1-0.2-0.1s-0.2,0-0.3,0h-0.1
							l0,0c-0.1,0,0,0.1,0,0.1l0.1,0.1l-0.1-0.1c0,0-0.1-0.1-0.2-0.1s-0.2,0-0.3,0c0.1,0,0.2,0,0.3,0h0.2h0.1c-0.2,0-0.5,0-0.7,0
							c-0.1,0-0.1,0-0.2,0c-0.2,0.1-0.3,0.1-0.5,0h-0.1l0,0h-0.1c-0.2,0-0.4,0.1-0.6,0.1c-0.1,0.1-0.2,0.2-0.3,0.3
							c0,0-0.1,0-0.2-0.1c0,0.1-0.1,0.1-0.1,0.2c0.1,0,0.2,0.1,0.3,0.1c0.2,0.1,0.2-0.3,0.4-0.2c-0.2-0.2-0.2,0.2-0.4,0.2
							c-0.1,0-0.2,0-0.3-0.1c-0.1,0.1-0.4,0.2-0.6,0.2c0.1-0.2,0.4-0.2,0.6-0.2c0.1-0.1,0.1-0.1,0.1-0.2c0.1,0,0.2,0.1,0.2,0.1
							c0.1-0.1,0.2-0.2,0.3-0.3c-0.4,0.1-0.7,0.2-1.1,0.4c-2.3,1.2-3.5,3.8-2.9,6.5c0.3,1.4,1.1,2.8,2.2,3.7s2.6,1.3,4,1.3
							c1.4-0.1,2.8-0.5,4.2-1.4c0.5-0.3,1.1-1,1.5-1.8s0.6-1.7,0.7-2.3c-0.1-0.8-0.5-1-0.8-1s-0.6,0.2-0.6,0.2
							c-0.5,0.4-0.6,0.6-0.7,1s-0.3,0.9-0.9,1.3c0.4-0.3,0.4-0.1,0.2,0.3c-0.2,0.4-0.7,0.8-1.3,0.8c-0.8,0-1.3,0.2-2,0.4
							s-1.5,0.2-2.1-0.1c-0.3-0.2-0.6-0.3-1-0.5c-0.8-0.7-1.3-1.6-1.6-2.5c-0.3-1-0.2-2.1,0.5-3c0.3-0.5,0.5-1,0.9-1.4
							c0.3-0.3,0.7-0.4,1-0.5c0.5-0.2,0.9-0.3,1.3-0.5c-0.5,0.1-0.8,0.2-1.3,0.4c-0.3,0.1,0.1-0.4,0.3-0.5c0.1-0.1,0.3,0.1,0.4,0.1
							c0.2,0,0.4-0.2,0.7-0.2c0.1-0.1,0.1,0.2,0.1,0.2c0.3,0,0.6-0.3,0.8-0.2c0.2,0.1,0.3,0.1,0.4,0.2c0.1,0,0.2,0.1,0.3,0.1h0.2
							c0-0.1,0-0.2,0-0.3c0.1,0,0.2,0.1,0.3,0.2c-0.1-0.1-0.2-0.1-0.3-0.2c0,0.1,0,0.2,0,0.3c0.5,0,1,0.2,1.5,0.4l0,0
							c-0.3-0.2-0.5-0.3-0.7-0.6c0.1,0.1,0.1,0.2-0.1,0.1l-0.1-0.2c0.3,0,0.6,0.2,0.7,0.4c0,0,0.1,0,0.2,0c0.1,0.1,0,0.1,0,0.2
							c0,0,0.1,0.1,0.2,0.1C118.9,139.7,118.7,139.3,118.7,139.3z"/>
						<path class="st1" d="M115.6,138.4c0,0,0.1,0,0.2,0c-0.2,0-0.4,0-0.6,0C115.2,138.4,115.4,138.4,115.6,138.4z"/>
					</g>
				</g>
			</g>
		</g>
	</g>
</g>
<g>
	<g>
		<g>
			<g>
				<g class="st0">
					<g>
						<path class="st1" d="M120.6,93.5l-0.2-0.3c0,0.1,0,0.1,0,0.2C120.5,93.4,120.6,93.5,120.6,93.5z"/>
						<polygon class="st1" points="120.3,92.9 120.2,92.8 120.2,92.8 						"/>
						<path class="st1" d="M119.8,92.4c0.1,0.1,0.1,0.2,0.2,0.2C120,92.6,119.9,92.5,119.8,92.4z"/>
						<path class="st1" d="M120.1,92.9C120.1,92.8,120.1,92.8,120.1,92.9L120.1,92.9l-0.1-0.2C120.1,92.7,120.1,92.8,120.1,92.9z"/>
						<path class="st1" d="M120.1,92.9C120.1,93,120.1,93,120.1,92.9C120.1,92.9,120.1,92.9,120.1,92.9z"/>
						<path class="st1" d="M119.3,93.3c-0.1,0,0.1-0.2,0-0.2c-0.2-0.2-0.4-0.2-0.6-0.4c-0.1,0-0.1-0.3-0.2-0.4c-0.3-0.1-1-0.1-0.6,0
							c0.5,0.2,0.8,0.4,1.2,0.8c0.4,0.2,0.7,0.5,1,0.8c0.1,0.1,0.1,0.2,0.1,0.3c0-0.1-0.1-0.3-0.1-0.5
							C120,93.6,119.6,93.5,119.3,93.3z"/>
						<path class="st1" d="M121.2,96c0-0.1-0.1-0.2-0.1-0.2c0.1-0.3,0-0.6-0.1-0.8l-0.1,0.1c0,0.2,0.1,0.2,0.1,0
							c-0.1,0.4-0.1,0.7,0,1C121.1,96.1,121.2,96.1,121.2,96z"/>
						<path class="st1" d="M121.1,96.3c0-0.1,0-0.1,0-0.2l0,0C121.1,96.2,121.1,96.3,121.1,96.3L121.1,96.3z"/>
						<path class="st1" d="M118.7,91.7c-0.7-0.4-1.4-0.7-2.1-0.9c-0.1,0-0.1,0.1-0.2,0c-0.1,0-0.1-0.1-0.2-0.1s-0.2,0-0.3,0h-0.1
							l0,0c-0.1,0,0,0.1,0,0.1l0.1,0.1l-0.1-0.1c0,0-0.1-0.1-0.2-0.1s-0.2,0-0.3,0c0.1,0,0.2,0,0.3,0h0.2h0.1c-0.2,0-0.5,0-0.7,0
							c-0.1,0-0.1,0-0.2,0c-0.2,0.1-0.3,0.1-0.5,0h-0.1l0,0h-0.1c-0.2,0-0.4,0.1-0.6,0.1c-0.1,0.1-0.2,0.2-0.3,0.3
							c0,0-0.1,0-0.2-0.1c0,0.1-0.1,0.1-0.1,0.2c0.1,0,0.2,0.1,0.3,0.1c0.2,0.1,0.2-0.3,0.4-0.2c-0.2-0.2-0.2,0.2-0.4,0.2
							c-0.1,0-0.2,0-0.3-0.1c-0.1,0.1-0.4,0.2-0.6,0.2c0.1-0.2,0.4-0.2,0.6-0.2c0.1-0.1,0.1-0.1,0.1-0.2c0.1,0,0.2,0.1,0.2,0.1
							c0.1-0.1,0.2-0.2,0.3-0.3c-0.4,0.1-0.7,0.2-1.1,0.4c-2.3,1.2-3.5,3.8-2.9,6.5c0.3,1.4,1.1,2.8,2.2,3.7c1.1,0.9,2.6,1.3,4,1.3
							c1.4-0.1,2.8-0.5,4.2-1.4c0.5-0.3,1.1-1,1.5-1.8s0.6-1.7,0.7-2.3c-0.1-0.8-0.5-1-0.8-1s-0.6,0.2-0.6,0.2
							c-0.5,0.4-0.6,0.6-0.7,1s-0.3,0.9-0.9,1.3c0.4-0.3,0.4-0.1,0.2,0.3c-0.2,0.4-0.7,0.8-1.3,0.8c-0.8,0-1.3,0.2-2,0.4
							c-0.7,0.2-1.5,0.2-2.1-0.1c-0.3-0.2-0.6-0.3-1-0.5c-0.8-0.7-1.3-1.6-1.6-2.5c-0.3-1-0.2-2.1,0.5-3c0.3-0.5,0.5-1,0.9-1.4
							c0.3-0.3,0.7-0.4,1-0.5c0.5-0.2,0.9-0.3,1.3-0.5c-0.5,0.1-0.8,0.2-1.3,0.4c-0.3,0.1,0.1-0.4,0.3-0.5c0.1-0.1,0.3,0.1,0.4,0.1
							c0.2,0,0.4-0.2,0.7-0.2c0.1-0.1,0.1,0.2,0.1,0.2c0.3,0,0.6-0.3,0.8-0.2c0.2,0.1,0.3,0.1,0.4,0.2c0.1,0,0.2,0.1,0.3,0.1h0.2
							c0-0.1,0-0.2,0-0.3c0.1,0,0.2,0.1,0.3,0.2c-0.1-0.1-0.2-0.1-0.3-0.2c0,0.1,0,0.2,0,0.3c0.5,0,1,0.2,1.5,0.4l0,0
							c-0.3-0.2-0.5-0.3-0.7-0.6c0.1,0.1,0.1,0.2-0.1,0.1l-0.1-0.2c0.3,0,0.6,0.2,0.7,0.4c0,0,0.1,0,0.2,0c0.1,0.1,0,0.1,0,0.2
							c0,0,0.1,0.1,0.2,0.1C118.9,92.1,118.7,91.7,118.7,91.7z"/>
						<path class="st1" d="M115.6,90.8c0,0,0.1,0,0.2,0c-0.2,0-0.4,0-0.6,0C115.2,90.9,115.4,90.8,115.6,90.8z"/>
					</g>
				</g>
			</g>
		</g>
	</g>
</g>
<g>
	<g>
		<g>
			<g>
				<g class="st0">
					<g>
						<path class="st1" d="M159.7,141.1l-0.2-0.3c0,0.1,0,0.1,0,0.2C159.5,141,159.6,141,159.7,141.1z"/>
						<polygon class="st1" points="159.3,140.5 159.3,140.4 159.2,140.4 						"/>
						<path class="st1" d="M158.9,140c0.1,0.1,0.1,0.2,0.2,0.2C159,140.2,159,140.1,158.9,140z"/>
						<path class="st1" d="M159.1,140.4C159.1,140.4,159.2,140.3,159.1,140.4L159.1,140.4l-0.1-0.2
							C159.1,140.3,159.1,140.4,159.1,140.4z"/>
						<path class="st1" d="M159.1,140.4c0,0.1,0,0.1,0,0.1S159.1,140.5,159.1,140.4z"/>
						<path class="st1" d="M158.4,140.8c-0.1,0,0.1-0.2,0-0.2c-0.2-0.2-0.4-0.2-0.6-0.4c-0.1,0-0.1-0.3-0.2-0.4
							c-0.3-0.1-1-0.1-0.6,0c0.5,0.2,0.8,0.4,1.2,0.8c0.4,0.2,0.7,0.5,1,0.8c0.1,0.1,0.1,0.2,0.1,0.3c0-0.1-0.1-0.3-0.1-0.5
							C159.1,141.1,158.6,141.1,158.4,140.8z"/>
						<path class="st1" d="M160.3,143.6c0-0.1-0.1-0.2-0.1-0.2c0.1-0.3,0-0.6-0.1-0.8l-0.1,0.1c0,0.2,0.1,0.2,0.1,0
							c-0.1,0.4-0.1,0.7,0,1C160.2,143.7,160.3,143.7,160.3,143.6z"/>
						<path class="st1" d="M160.1,143.9c0-0.1,0-0.1,0-0.2l0,0C160.1,143.8,160.1,143.9,160.1,143.9L160.1,143.9z"/>
						<path class="st1" d="M157.7,139.3c-0.7-0.4-1.4-0.7-2.1-0.9c-0.1,0-0.1,0.1-0.2,0c-0.1,0-0.1-0.1-0.2-0.1c-0.1,0-0.2,0-0.3,0
							h-0.1l0,0c-0.1,0,0,0.1,0,0.1l0.1,0.1l-0.1-0.1c0,0-0.1-0.1-0.2-0.1c-0.1,0-0.2,0-0.3,0c0.1,0,0.2,0,0.3,0h0.2h0.1
							c-0.2,0-0.5,0-0.7,0c-0.1,0-0.1,0-0.2,0c-0.2,0.1-0.3,0.1-0.5,0h-0.1l0,0h-0.1c-0.2,0-0.4,0.1-0.6,0.1
							c-0.1,0.1-0.2,0.2-0.3,0.3c0,0-0.1,0-0.2-0.1c0,0.1-0.1,0.1-0.1,0.2c0.1,0,0.2,0.1,0.3,0.1c0.2,0.1,0.2-0.3,0.4-0.2
							c-0.2-0.2-0.2,0.2-0.4,0.2c-0.1,0-0.2,0-0.3-0.1c-0.1,0.1-0.4,0.2-0.6,0.2c0.1-0.2,0.4-0.2,0.6-0.2c0.1-0.1,0.1-0.1,0.1-0.2
							c0.1,0,0.2,0.1,0.2,0.1c0.1-0.1,0.2-0.2,0.3-0.3c-0.4,0.1-0.7,0.2-1.1,0.4c-2.3,1.2-3.5,3.8-2.9,6.5c0.3,1.4,1.1,2.8,2.2,3.7
							c1.1,0.9,2.6,1.3,4,1.3c1.4-0.1,2.8-0.5,4.2-1.4c0.5-0.3,1.1-1,1.5-1.8s0.6-1.7,0.7-2.3c-0.1-0.8-0.5-1-0.8-1
							s-0.6,0.2-0.6,0.2c-0.5,0.4-0.6,0.6-0.7,1c-0.1,0.4-0.3,0.9-0.9,1.3c0.4-0.3,0.4-0.1,0.2,0.3c-0.2,0.4-0.7,0.8-1.3,0.8
							c-0.8,0-1.3,0.2-2,0.4s-1.5,0.2-2.1-0.1c-0.3-0.2-0.6-0.3-1-0.5c-0.8-0.7-1.3-1.6-1.6-2.5c-0.3-1-0.2-2.1,0.5-3
							c0.3-0.5,0.5-1,0.9-1.4c0.3-0.3,0.7-0.4,1-0.5c0.5-0.2,0.9-0.3,1.3-0.5c-0.5,0.1-0.8,0.2-1.3,0.4c-0.3,0.1,0.1-0.4,0.3-0.5
							c0.1-0.1,0.3,0.1,0.4,0.1c0.2,0,0.4-0.2,0.7-0.2c0.1-0.1,0.1,0.2,0.1,0.2c0.3,0,0.6-0.3,0.8-0.2s0.3,0.1,0.4,0.2
							c0.1,0,0.2,0.1,0.3,0.1h0.2c0-0.1,0-0.2,0-0.3c0.1,0,0.2,0.1,0.3,0.2c-0.1-0.1-0.2-0.1-0.3-0.2c0,0.1,0,0.2,0,0.3
							c0.5,0,1,0.2,1.5,0.4l0,0c-0.3-0.2-0.5-0.3-0.7-0.6c0.1,0.1,0.1,0.2-0.1,0.1l-0.1-0.2c0.3,0,0.6,0.2,0.7,0.4c0,0,0.1,0,0.2,0
							c0.1,0.1,0,0.1,0,0.2c0,0,0.1,0.1,0.2,0.1C158,139.7,157.7,139.3,157.7,139.3z"/>
						<path class="st1" d="M154.6,138.4c0,0,0.1,0,0.2,0c-0.2,0-0.4,0-0.6,0C154.3,138.4,154.4,138.4,154.6,138.4z"/>
					</g>
				</g>
			</g>
		</g>
	</g>
</g>
</svg>
