<?xml version="1.0" encoding="utf-8"?>
<!-- Generator: Adobe Illustrator 24.2.0, SVG Export Plug-In . SVG Version: 6.00 Build 0)  -->
<svg version="1.1" id="Layer_1" xmlns="http://www.w3.org/2000/svg" xmlns:xlink="http://www.w3.org/1999/xlink" x="0px" y="0px"
	 viewBox="0 0 213.1 222" style="enable-background:new 0 0 213.1 222;" xml:space="preserve">
<style type="text/css">
	.st0{opacity:0.85;}
	.st1{fill:#FFFFFF;}
</style>
<g>
	<g>
		<g>
			<g>
				<g class="st0">
					<g>
						<path class="st1" d="M75.9,177c1.6-0.7,3.2-1.6,4.8-2.5c-0.8,0.4-1.6,0.8-2.5,1.1C77.1,176.1,76.6,176.5,75.9,177z"/>
						<path class="st1" d="M85,171.9c0.3-0.2,0.5-0.4,0.8-0.5c0.2-0.2,0.4-0.4,0.6-0.5C85.9,171.2,85.4,171.5,85,171.9z"/>
						<path class="st1" d="M92.2,165.8c-1.3,1.1-2.4,2.2-3.6,3.2C89.7,168.2,90.9,167.1,92.2,165.8z"/>
						<path class="st1" d="M86.3,170.5c0.5-0.3,0.8-0.3,0.1,0.3c0,0,0,0,0,0c0.7-0.6,1.5-1.2,2.2-1.8
							C87.8,169.6,87,170.1,86.3,170.5z"/>
						<path class="st1" d="M86.3,170.5c-0.5,0.2-1.3,0.7-1.6,0.8C85.2,171.1,85.7,170.8,86.3,170.5z"/>
						<path class="st1" d="M86.6,167c0.6-0.6,1,0.1,2.2-1.2c3.1-3,5.3-5.8,7.7-9c1-1.5,3.3-3.4,4-5.1c1-1.9,2.6-5.3,3.3-7.7
							c0.7-2.3,0.9-3.4-0.3-0.5c-1.9,4.4-3.8,7.8-5.9,11c-2.1,3.2-4.4,6-7.5,9c-4.9,5-10.4,9-16.9,12.2c-1.8,0.9-3.6,1.5-5.5,2
							c2.4-0.7,4.8-1.5,7.4-2.6c1.7-0.7,3.5-1.8,5.3-3.2C82.4,170.6,84.4,168.9,86.6,167z"/>
						<path class="st1" d="M37.1,182c0.5,0.1,1.2,0.2,1.7,0.3c0.6,0.1,1.1,0.1,1.1,0.1c2,0.6,4.2,1,6.3,1c2.2,0,4.4-0.2,6.6-0.5
							c-0.6-0.1-1.3-0.1-2-0.2c-2.5,0.2-2.8,0.4-0.5,0.4c-5.1-0.1-9.9-0.7-14.6-2.2C35.9,181.3,35.7,181.5,37.1,182z"/>
						<path class="st1" d="M32.9,180.1c0.9,0.3,1.8,0.7,2.7,1c0,0-0.1-0.1-0.1-0.1C34.6,180.7,33.7,180.3,32.9,180.1L32.9,180.1z"/>
						<path class="st1" d="M103.7,149.7c5.8-11,8.3-22.8,7.7-34.2c-0.1-0.9-0.2-1.5,0-2.6c0.3-0.9,0.5-1.7,0.8-2.5
							c0.3-0.8,0.5-1.6,0.8-2.3c0.2-0.3,0.3-0.7,0.5-1c0.3-0.3,0.6-0.5,0.9-0.7c0.4-0.3,0.9-0.6,1.5-0.8c0,0,0,0,0,0
							c0.8-0.5,0.5-0.4-0.1-0.3c-0.6,0.2-1.2,0.4-1.7,0.6c0.3-0.1,1.1-0.5,1.7-0.6c0.7-0.2,1.6-0.5,2.5-0.8c1.4-0.6,2.9-1.1,4.5-1.5
							c-1.7,0.6-3.2,1.1-4.5,1.5c-0.9,0.4-1.7,0.7-2.5,1.2c-0.2,0.1-0.5,0.3-0.7,0.4c1.7-0.8,3.4-1.5,5.2-2.1
							c1.8-0.6,3.6-1.1,5.4-1.6c0.8-0.3,1.6-0.5,2.3-0.7c1.3-0.4,2.6-0.8,3.8-1.1c1.2-0.3,2.3-0.5,3.2-0.6c0.7-0.2,1.3-0.5,2-0.7
							c-0.1,0-0.3,0.1-0.4,0.1c0.3-0.1,0.5-0.2,0.7-0.3c2.7-1.2,5.1-3,7.2-4.8c1.3-1.3,2.7-2.7,4.2-3.8c0,0,1.2-0.5,1.8-0.6
							c0.6-0.5,1.5-1,2.7-1.6c-0.8,0.2-1.5,0.4-2.2,0.6c-0.7,0.2-1.3,0.4-1.9,0.7c-1.9,0.7-3.1,3.1-5.2,4c2.1-0.9,3.3-3.3,5.2-4
							c0.6-0.3,1.3-0.5,1.9-0.7c0.7-0.2,1.4-0.3,2.2-0.6c0.6-0.3,1.3-0.6,1.9-1c0.3-0.2,0.7-0.4,1-0.6c0.3-0.2,0.6-0.5,1-0.7l1-0.7
							c0.3-0.3,0.6-0.5,0.9-0.8c0.6-0.5,1.2-1,1.7-1.5c-2.1,2.9-5,4.6-7.5,5.3c-1.2,0.6-2.1,1.1-2.7,1.6c-0.6,0.2-1.8,0.6-1.8,0.6
							c-1.5,1.1-2.8,2.5-4.2,3.8c2.1-1.8,4.3-3.5,6.8-4.7c0.6-0.3,1.2-0.5,1.9-0.8l1-0.4l0.5-0.2l0.5-0.3c1.3-0.7,2.5-1.6,3.7-2.6
							c1.8-1.6,3.3-3.5,4.6-5.5c1.3-2,2.3-4.1,3.3-6.2c0.9-2.2,1.6-4.4,2.3-6.6c0.6-2.2,1.2-4.5,1.5-6.8c0.7-4.6,0.7-9.3,0-13.8
							c-0.3-2.3-0.8-4.5-1.3-6.7c-0.5-2.2-1.1-4.4-1.9-6.6c-1.5-4.4-3.5-8.6-6.3-12.4c-1.4-1.9-3-3.7-4.7-5.3
							c-1.8-1.6-3.7-3-5.8-4.2c-4.2-2.4-8.9-3.9-13.7-4.6c-4.8-0.7-9.8-0.6-14.7,0.2c-5.3,0.9-10.5,2.5-15.2,5.2
							c-2.3,1.3-4.6,2.9-6.5,4.9c-0.5,0.5-1,1-1.4,1.5c-0.5,0.5-0.9,1.1-1.3,1.7c-0.4,0.6-0.7,1.2-1.1,1.8l-0.9,1.8
							c-1.2,2.4-2,5-2.5,7.6c-0.5,2.6-0.8,5.1-1.1,7.6c-0.5,5-1,9.8-1.9,14.5c-0.9,4.7-2,9.2-3.7,13.5c-1.6,4.3-3.8,8.3-6.4,11.9
							c-1.3,1.8-2.8,3.5-4.3,4.9c-0.4,0.3-0.8,0.7-1,0.9l-1.4,0.9c-0.9,0.6-1.9,1.2-2.9,1.6c-3.9,2-8,3.2-12.5,3.7
							c-4.4,0.5-9.1,0.4-14.1,1c-5,0.5-10.1,1.9-14.7,4.4c-0.6,0.3-1.1,0.6-1.7,1l-1.7,1c-0.5,0.3-1.1,0.7-1.7,1.1
							c-0.5,0.4-1,0.8-1.6,1.2c-2,1.6-3.9,3.4-5.7,5.3c-3.5,3.8-6.7,8.1-9.2,12.9c-1.9,3.7-3.6,8.6-4.4,14.1
							c-0.8,5.5-0.5,11.5,0.8,17.3c1.3,5.8,3.5,11.3,6.3,15.9c2.8,4.7,6.1,8.4,9.2,11.1c0.5,0.4,1,0.9,1.5,1.2c0.5,0.3,1,0.7,1.5,1
							c0.9,0.6,1.8,1.1,2.6,1.5c0.8,0.4,1.5,0.7,2.1,1c0.6,0.3,1.2,0.4,1.7,0.5c2,0.5,2.7,0.2,2.8-0.2c0.2-1-2-3-2.4-3.2
							c-2.3-2.1-4.3-4-6.2-6.2c-2-2.1-3.8-4.4-5.7-7.2c-0.4-0.7-0.9-1.4-1.4-2.2c-0.4-0.8-0.9-1.6-1.3-2.4c-0.5-0.8-0.8-1.7-1.2-2.7
							c-0.4-0.9-0.8-1.9-1.1-2.9c-1.4-4.1-2.5-9.1-2.3-14.9c0,4,0.1,5.2-0.2,4.7c-0.1-0.3-0.3-1-0.5-2.1c-0.1-0.6-0.1-1.2-0.2-1.9
							c-0.1-0.7-0.1-1.5-0.1-2.4c0-3.4,0.5-7.9,2-12.1c1.5-4.2,3.9-8.2,6.4-11.1c1.8-2.1,3.8-4.1,5.9-6.1c1.1-1,2.2-2,3.4-2.9
							c0.6-0.5,1.2-0.9,1.8-1.3c0.5-0.4,1.3-0.8,1.9-1.2c5.1-3.3,11-4.8,18-5.2c3.5-0.3,7.3-0.4,11.3-1c4-0.6,8-1.8,11.7-3.5
							l2.7-1.4c0.9-0.5,1.7-1,2.6-1.6l1.3-0.8l0.3-0.2l0.4-0.3c0.3-0.2,0.5-0.4,0.7-0.6c0.8-0.7,1.6-1.4,2.3-2.2c2.8-3,5-6.2,7-9.4
							c3.9-6.6,6.3-14.4,7.7-23.1c1.1-5.5,1.6-11.2,2.1-16.5c0.3-2.6,0.6-5,1.2-7.3c0.3-1.1,0.6-2.2,1.1-3.2
							c0.2-0.5,0.4-1.1,0.7-1.6c0.3-0.5,0.5-1.1,0.8-1.5c1-1.7,2.4-3.3,4.1-4.7c1.7-1.4,3.7-2.6,5.8-3.7c4.3-2,9-3.3,13.9-3.8
							c9.6-1,19.9,1.2,26.8,7.8c3.5,3.3,6.2,7.6,8.1,12.3c1,2.4,1.8,4.9,2.4,7.5c0.3,1.3,0.6,2.7,0.9,4c0.3,1.3,0.5,2.6,0.7,3.9
							c0.7,5.5,0.5,10.8-0.5,15.7c-1,5.2-2.5,9.9-4.8,14c-0.8,1.5-1.9,2.8-3.1,4c-0.6,0.5-1.2,1.1-1.8,1.6c-0.3,0.2-0.6,0.5-1,0.7
							c-0.3,0.2-0.7,0.4-1,0.6c-0.3,0.2-0.7,0.3-1,0.5c-0.3,0.1-0.7,0.3-1,0.4c-0.5,0.2-1,0.4-1.5,0.6c-0.5,0.2-0.9,0.5-1.4,0.7
							c-1.8,1-3.3,2.1-4.5,3.1c-2,1.6-3.6,3.1-5.2,4.2c-1.6,1.2-3.2,2-4.9,2.6c-0.5,0.1-0.8,0.3-1.3,0.4c-0.5,0.1-1,0.3-1.5,0.4
							c-1,0.3-2,0.6-3,0.9c-2,0.6-3.9,1.2-5.8,1.9c2.1-0.7,4.2-1.3,6.1-1.9c1-0.3,1.9-0.5,2.9-0.8l1.4-0.4c0.5-0.1,0.8-0.3,1.3-0.4
							c1.6-0.5,3.1-1.3,4.7-2.4c1.5-1,3.1-2.5,5-4.1c1.3-1.1,1.9-1.4,1.7-1.2c-0.1,0.2-0.8,0.9-1.7,1.8c-0.9,0.9-2,2.1-3.1,3
							c-1.1,1-2.2,1.8-3,2.3c-0.7,0.5-1.8,0.8-2.8,1c-0.5,0.1-1.1,0.2-1.6,0.3c-0.5,0.1-1.1,0.2-1.5,0.4c-4,1-7.5,2.3-11.7,3.9
							c-1.8,0.8-1.8,0-2.7,0.5c-0.7,0.3-1.4,0.6-2.1,1c-0.3,0.2-0.7,0.3-1,0.6l-0.5,0.3l-0.6,0.4c-0.8,0.6-1.5,1.3-1.8,2.1
							c-0.1,0.2-0.2,0.4-0.2,0.6l-0.2,0.5c-0.1,0.3-0.2,0.6-0.3,0.9c-0.6,2.5-0.8,4.8-1,6.8c-0.2,3.1-0.1,5.6-0.4,8
							c-0.1,1.5-0.3,3-0.5,4.7c-0.1,1-0.2,2.1-0.4,3.1c0.4-0.8,0.7-1,1-1.3c-0.3,1.5-0.9,3.6-1.3,5.1c0.4-1.5,1.1-3.6,1.3-5.1
							c-0.3,0.2-0.6,0.5-1,1.3c-1,7.5-3.9,16.1-8.3,23.1c0,0,0.1,0,0.1-0.1c1.3-2.1,2.5-4.1,3.6-6.3c1.1-2.1,2.2-4.3,3.3-6.6
							c-0.9,2-1,1.7-0.2-0.7c0.3-0.6,0.6-1.1,1-1.7c-1.1,4.2-2.7,8.3-5.2,11.7c0,0-0.2,0.4-0.4,1c-0.3,0.5-0.6,1.1-0.8,1.6
							c-0.8,1.1-1,0.9-1.3,1.1c-0.5,0.8-1,1.6-1.6,2.4c0.4-0.3,0.9-0.9,1.5-1.6c0.6-0.7,1.2-1.5,1.7-2.2c0.6-0.7,1.1-1.5,1.4-2
							C103.5,150,103.7,149.7,103.7,149.7z"/>
						<path class="st1" d="M118.6,104.3c-0.6,0.3-1.4,0.6-2.2,0.9c2.9-1.2,5.9-2.1,9-3C123.7,102.4,121.1,103.2,118.6,104.3z"/>
					</g>
				</g>
			</g>
		</g>
	</g>
</g>
<g>
	<g>
		<g>
			<g>
				<g class="st0">
					<g>
						<path class="st1" d="M145.9,154.2c0.4-0.3,0.8-0.7,1.3-1c-0.2,0.1-0.5,0.2-0.8,0.3C146,153.7,146,154,145.9,154.2z"/>
						<path class="st1" d="M148.4,152.4c0.1-0.1,0.2-0.1,0.2-0.2c0.1-0.1,0.1-0.1,0.2-0.2L148.4,152.4z"/>
						<path class="st1" d="M150.6,150.7c-0.4,0.2-0.8,0.5-1.2,0.8C149.8,151.3,150.2,151.1,150.6,150.7z"/>
						<path class="st1" d="M148.7,151.8c0.2,0,0.3,0,0.1,0.3c0,0,0,0,0,0c0.2-0.2,0.4-0.4,0.6-0.6
							C149.2,151.7,148.9,151.7,148.7,151.8z"/>
						<path class="st1" d="M148.7,151.8c-0.2,0-0.5,0.1-0.6,0.1C148.3,151.9,148.5,151.8,148.7,151.8z"/>
						<path class="st1" d="M147.9,149.3c0.2-0.2,0.5,0.4,1,0c1.1-0.9,2-1.8,3.1-2.4c0.5-0.4,1.7-0.1,2.1-0.5
							c1.2-0.8,4.2-2.9,2.2-2.1c-3,1.3-4.8,2.4-7.2,3.9c-1.9,1.5-3.5,3-5.1,4.8c-0.5,0.4-1,0.9-1.4,1.2c0.7-0.5,1.3-1,2.1-1.5
							C145.7,152.1,146.3,150.5,147.9,149.3z"/>
						<path class="st1" d="M139.3,163.5c-0.1-0.3-0.1-0.8-0.1-0.8c0.8-1.1,1.1-2.2,1.6-3.5c-0.2,0.1-0.4,0.2-0.6,0.3
							c-0.3,0.7-0.2,0.8,0.3,0.3c-1.1,1.1-1.7,2.6-1.7,4.1C138.9,163.8,139.1,163.9,139.3,163.5z"/>
						<path class="st1" d="M138.8,164.8c0-0.3-0.1-0.6-0.1-0.9c0,0,0,0-0.1,0C138.7,164.2,138.7,164.5,138.8,164.8L138.8,164.8z"/>
						<path class="st1" d="M155.7,147.4c3.5-1.5,7-2.4,10.5-2.8c0.2-0.2,0.4-0.4,0.8-0.3c0.3,0.1,0.6,0.1,0.8,0.2
							c0.5-0.1,1-0.1,1.5-0.1c0.2,0,0.4-0.1,0.5-0.1l0,0c0.3-0.1,0.2-0.2,0-0.3c-0.2-0.1-0.4-0.1-0.6-0.2c0.1,0.1,0.4,0.1,0.6,0.2
							c0.2,0.1,0.5,0.2,0.8,0.2c0.5,0,1-0.1,1.5,0c-0.6,0.1-1,0.1-1.5,0c-0.3,0-0.6,0.1-0.9,0.1c-0.1,0-0.2,0.1-0.2,0.1
							c1.2,0,2.3,0,3.5,0.1c0.3,0,0.5,0,0.7,0c0.8,0,1.7,0,2.1,0.4c0.2,0,0.4,0.1,0.6,0.1l-0.1-0.1c0.1,0,0.2,0.1,0.2,0.1
							c0.8,0.2,1.7,0.4,2.5,0.6c0.6,0,1.2,0,1.8,0.1c0,0,0.3,0.3,0.4,0.5c0.3-0.1,0.6-0.1,1,0c-0.4-0.4-0.7-0.7-1-1
							c-0.5-0.5-1.5,0.3-2-0.5c0.5,0.8,1.5,0,2,0.5c0.3,0.3,0.7,0.6,1,1c0.8,0.2,1.8,0.7,2.4,1.4c-1.1-0.2-1.8-0.8-2.4-1.4
							c-0.4-0.1-0.8-0.1-1,0c-0.1-0.2-0.4-0.5-0.4-0.5c-0.6-0.1-1.2-0.1-1.8-0.1c1.6,0.5,3.2,1.1,4.8,1.8c5.1,2.4,9.4,5.7,13.1,9.7
							c1.8,2,3.4,4.2,4.7,6.6c1.2,2.4,2.1,5.1,1.8,7.5c-0.2,1.3-0.8,2.4-1.7,3.2c-0.9,0.9-2.1,1.5-3.4,2c-2.6,1-5.5,1.4-8.4,1.5
							c-5.8,0.3-11.5,0.2-17.1-0.4c-5.5-0.6-11.1-2-16.4-4.6c-2-1-5-2.1-7.6-3.4c-1.3-0.7-2.5-1.4-3.4-2.1c-0.9-0.7-1.6-1.3-1.9-1.8
							c-0.7-0.5-1.1-0.7-1.7-0.9c-0.5-0.2-1-0.3-1.5-0.2c-0.5,0.1-0.9,0.3-1.2,0.6c-0.3,0.3-0.5,0.6-0.5,0.7
							c-0.4,1.1-0.3,2.2,0.1,3.2c0.4,1,1.1,1.9,1.9,2.7c1.7,1.7,4.1,3.2,7.4,5.5c-2.3-1.5-1.2-1.5,0.9-0.6c2.1,0.8,5.4,2.2,7.6,3.7
							c3.2,2.3,7.6,3.4,12.3,4c4.8,0.5,9.6,0.3,14.2,0.6c2.3,0.1,4.7-0.1,7.5-0.4c3.7-0.2,7.4-0.8,11.2-2.7c1.9-1,3.9-2.3,5.5-4.5
							c0.4-0.6,0.8-1.1,1-1.7l0.4-0.9c0.1-0.3,0.2-0.6,0.3-1c0.4-1.3,0.5-2.6,0.4-3.8c-0.1-2.4-0.7-4.5-1.5-6.4
							c-0.8-1.9-1.8-3.6-2.9-5.2c-2.2-3.2-4.8-6-7.7-8.6c-3.2-2.7-6.6-4.1-9.9-5.3c-2.3-1-4.7-2.3-6.7-2.8c-3.2-0.9-6.1-1-8.7-0.7
							c3,0,5.2,0.1,8.5,0.8c2.1,0.6-1.7,0.4-3.2,0.4c-0.6,0.1-1.5-0.9-2.1-0.8c-1.3-0.1-2.6,0.1-4,0.3c-0.6,0.2-0.5-0.6-0.9-0.5
							c-2,0.2-3.4,1.3-4.6,1.3c-0.9,0-1.8,0.1-2.6,0.1c-0.5,0.1-1,0.1-1.6,0.3c-0.3,0.1-0.6,0.3-1,0.4c0.3,0.1,0.5,0.4,0.6,0.6
							c-0.5,0.1-1.2,0.1-1.7,0.2c0.5-0.1,1.2-0.2,1.7-0.2c-0.2-0.2-0.3-0.5-0.6-0.6c-2.3,1.1-4.9,2.4-7.1,3.8l0.1,0
							c1.4-0.7,2.8-1.2,4.4-1.3c-0.7,0.1-0.7-0.1,0-0.4c0.2,0.1,0.5,0.1,0.7,0.2c-1.2,0.6-2.4,1.3-3.8,1.3c0,0-0.5,0.4-0.7,0.6
							c-0.4,0.1-0.5-0.1-0.7-0.3c-0.3,0.1-0.5,0.3-0.8,0.4c0.4,0,1.1-0.1,1.6-0.2C155.2,147.5,155.7,147.4,155.7,147.4z"/>
						<path class="st1" d="M170.7,144.2c-0.2,0-0.5,0-0.7,0.1c1,0,1.9,0,2.9,0.1C172.4,144,171.6,144,170.7,144.2z"/>
					</g>
				</g>
			</g>
		</g>
	</g>
</g>
<g>
	<g>
		<g>
			<g>
				<g class="st0">
					<g>
						<path class="st1" d="M117.4,60c-0.2,0.4-0.4,0.7-0.6,1.1c0.1-0.2,0.2-0.4,0.4-0.5C117.4,60.4,117.4,60.3,117.4,60z"/>
						<path class="st1" d="M116.3,62.2c0,0.1-0.1,0.1-0.1,0.2c0,0.1,0,0.1-0.1,0.2L116.3,62.2z"/>
						<path class="st1" d="M115.4,64.2c0.2-0.3,0.4-0.7,0.5-1C115.7,63.4,115.6,63.8,115.4,64.2z"/>
						<path class="st1" d="M116.2,62.6C116.1,62.7,116.1,62.8,116.2,62.6L116.2,62.6c-0.2,0.1-0.3,0.3-0.3,0.5
							C116,63,116.1,62.8,116.2,62.6z"/>
						<path class="st1" d="M116.2,62.6c0.1-0.1,0.2-0.3,0.3-0.3C116.4,62.4,116.3,62.5,116.2,62.6z"/>
						<path class="st1" d="M116.7,63.5c-0.1,0.2-0.3,0.1-0.4,0.5c-0.4,0.9-0.7,1.8-1.2,2.6c-0.2,0.4-0.7,0.9-0.9,1.3
							c-0.4,0.9-1.5,3.4-0.7,2c1.1-2,1.8-3.4,2.7-5.3c0.7-1.5,1.3-3.1,2-4.7c0.2-0.4,0.4-0.8,0.6-1.2c-0.3,0.5-0.6,1.1-0.9,1.7
							C117.5,61.1,117.3,62.2,116.7,63.5z"/>
						<path class="st1" d="M121.3,51.7c-0.1,0.2-0.2,0.6-0.2,0.6c-0.5,0.8-0.9,1.8-1.2,2.8l0.3-0.4c0.2-0.5,0.2-0.6-0.1-0.2
							c0.6-1,1.1-2.1,1.5-3.1C121.5,51.5,121.4,51.4,121.3,51.7z"/>
						<path class="st1" d="M121.8,50.8c-0.1,0.2-0.2,0.4-0.2,0.6c0,0,0,0,0,0C121.7,51.2,121.8,51,121.8,50.8L121.8,50.8z"/>
						<path class="st1" d="M113.4,68.3c-0.7,1.3-1.4,2.5-2.1,3.7c-0.7,1.2-1.4,2.3-2.2,3.4c-0.1,0.2-0.1,0.3-0.3,0.6
							c-0.1,0.2-0.3,0.3-0.4,0.5c-0.2,0.3-0.4,0.6-0.6,1c-0.1,0.1-0.1,0.2-0.2,0.4l0,0c-0.1,0.2,0,0.2,0.1,0.1
							c0.1-0.1,0.2-0.2,0.3-0.3c-0.1,0.1-0.2,0.2-0.3,0.3c-0.1,0.1-0.3,0.3-0.4,0.5c-0.2,0.3-0.4,0.6-0.6,0.9
							c0.2-0.4,0.4-0.7,0.6-0.9c0.1-0.2,0.2-0.4,0.3-0.6c0-0.1,0.1-0.1,0.1-0.2c-0.5,0.7-1,1.4-1.5,2.2c-0.1,0.2-0.2,0.3-0.3,0.5
							c-0.3,0.5-0.7,1.1-1,1.3c-0.1,0.1-0.2,0.3-0.3,0.4l0.1-0.1c0,0-0.1,0.1-0.1,0.1c-0.4,0.5-0.8,1.1-1.2,1.6
							c-0.2,0.4-0.4,0.8-0.7,1.1c0,0-0.2,0.2-0.4,0.3c-0.1,0.2-0.2,0.4-0.4,0.7c0.3-0.2,0.5-0.5,0.8-0.7c0.4-0.3,0.4-0.9,0.9-1.2
							c-0.5,0.3-0.5,1-0.9,1.2c-0.2,0.2-0.5,0.4-0.8,0.7c-0.4,0.5-0.9,1.2-1.4,1.6c0.4-0.7,0.9-1.2,1.4-1.6c0.2-0.3,0.3-0.5,0.4-0.7
							c0.1-0.1,0.4-0.3,0.4-0.3c0.2-0.4,0.5-0.8,0.7-1.1c-0.8,1.1-1.6,2.1-2.5,3.1c-5.5,6.7-11,12.6-17.7,18.6
							c-3.7,3.2-7.4,6.1-11.2,8.6c-3.8,2.6-7.4,5-11.2,7.2c-3.8,2.2-7.7,4.3-11.9,6c-3.3,1.4-9.2,4.1-12.4,5.2
							c-4.2,1.9-1.6,2.1-1.4,2.1c3-0.1,4.9-1.4,10.4-3.2c-1.9,0.7-1.3,0.2,0.3-0.5c1.5-0.7,4-1.8,5.8-2.3c5.3-1.6,11.7-6,17.3-9.6
							c1.4-0.9,2.9-1.9,4.5-3.1c4.3-2.9,8.1-6.2,11.9-9.6c1.8-1.8,3.7-3.5,5.5-5.4c1.8-1.8,3.6-3.8,5.5-5.8c0.9-1.1,1.8-2.2,2.6-3.2
							c0.8-1,1.5-2.1,2.2-3c1.1-1.4,2.3-2.8,3.2-4c1.3-1.8,2.4-3.5,3.4-5.1c-1.1,1.8-2,3-3.3,4.9c-0.9,1.3,0.4-1.1,0.9-1.9
							c0.2-0.4,0.8-0.8,1-1.2c0.5-0.8,1-1.6,1.5-2.5c0.2-0.4,0.4-0.2,0.5-0.4c0.7-1.2,1-2.3,1.6-3c0.4-0.5,0.7-1.1,1.1-1.5
							c0.2-0.3,0.4-0.6,0.6-1c0.1-0.2,0.2-0.4,0.3-0.7c-0.2,0.1-0.3,0.2-0.4,0.2c0.2-0.3,0.5-0.7,0.7-1c-0.2,0.3-0.5,0.7-0.7,1
							c0.1,0,0.2,0,0.4-0.2c0.8-1.7,1.8-3.5,2.6-5.3l0,0c-0.5,1-1.1,2-1.8,2.9c0.3-0.4,0.3-0.3,0,0.2l-0.3,0.3
							c0.5-0.9,0.9-1.8,1.5-2.6c0,0,0.2-0.4,0.2-0.6c0.2-0.3,0.2-0.2,0.3-0.2c0.1-0.2,0.2-0.4,0.3-0.6
							C114.2,67.1,113.4,68.3,113.4,68.3z"/>
						<path class="st1" d="M107.2,78.3c0.1-0.1,0.2-0.3,0.3-0.5c-0.4,0.6-0.9,1.2-1.3,1.8C106.5,79.4,106.9,78.9,107.2,78.3z"/>
					</g>
				</g>
			</g>
		</g>
	</g>
</g>
<g>
	<g>
		<g>
			<g>
				<g class="st0">
					<g>
						<path class="st1" d="M128.3,66.9c-0.2,0.4-0.4,0.7-0.6,1.1c0.1-0.2,0.2-0.4,0.4-0.5C128.2,67.2,128.2,67.1,128.3,66.9z"/>
						<path class="st1" d="M127.2,69c0,0.1-0.1,0.1-0.1,0.2c0,0.1,0,0.1-0.1,0.2L127.2,69z"/>
						<path class="st1" d="M126.2,71c0.2-0.3,0.4-0.7,0.5-1C126.6,70.3,126.4,70.6,126.2,71z"/>
						<path class="st1" d="M127.1,69.5C127,69.6,126.9,69.6,127.1,69.5L127.1,69.5c-0.2,0.1-0.3,0.3-0.3,0.5
							C126.9,69.8,127,69.6,127.1,69.5z"/>
						<path class="st1" d="M127.1,69.5c0.1-0.1,0.2-0.3,0.3-0.3C127.3,69.2,127.2,69.3,127.1,69.5z"/>
						<path class="st1" d="M127.6,70.3c-0.1,0.2-0.3,0.1-0.4,0.5c-0.4,0.9-0.7,1.8-1.2,2.6c-0.2,0.4-0.7,0.9-0.9,1.3
							c-0.4,0.9-1.5,3.4-0.7,2c1.1-2,1.8-3.4,2.7-5.3c0.7-1.5,1.3-3.1,2-4.7c0.2-0.4,0.4-0.8,0.6-1.2c-0.3,0.5-0.6,1.1-0.9,1.7
							C128.4,68,128.2,69.1,127.6,70.3z"/>
						<path class="st1" d="M132.1,58.5c-0.1,0.2-0.2,0.6-0.2,0.6c-0.5,0.8-0.9,1.8-1.2,2.8l0.3-0.4c0.2-0.5,0.2-0.6-0.1-0.2
							c0.6-1,1.1-2.1,1.5-3.1C132.3,58.3,132.3,58.2,132.1,58.5z"/>
						<path class="st1" d="M132.7,57.6c-0.1,0.2-0.2,0.4-0.2,0.6c0,0,0,0,0,0C132.5,58,132.6,57.8,132.7,57.6L132.7,57.6z"/>
						<path class="st1" d="M124.2,75.1c-0.7,1.3-1.4,2.5-2.1,3.7c-0.7,1.2-1.4,2.3-2.2,3.4c-0.1,0.2-0.1,0.3-0.3,0.6
							c-0.1,0.2-0.3,0.3-0.4,0.5c-0.2,0.3-0.4,0.6-0.6,1c-0.1,0.1-0.1,0.2-0.2,0.4l0,0c-0.1,0.2,0,0.2,0.1,0.1
							c0.1-0.1,0.2-0.2,0.3-0.3c-0.1,0.1-0.2,0.2-0.3,0.3c-0.1,0.1-0.3,0.3-0.4,0.5c-0.2,0.3-0.4,0.6-0.6,0.9
							c0.2-0.4,0.4-0.7,0.6-0.9c0.1-0.2,0.2-0.4,0.3-0.6c0-0.1,0.1-0.1,0.1-0.2c-0.5,0.7-1,1.4-1.5,2.2c-0.1,0.2-0.2,0.3-0.3,0.5
							c-0.3,0.5-0.7,1.1-1,1.3c-0.1,0.1-0.2,0.3-0.3,0.4l0.1-0.1c0,0-0.1,0.1-0.1,0.1c-0.4,0.5-0.8,1.1-1.2,1.6
							c-0.2,0.4-0.4,0.8-0.7,1.1c0,0-0.2,0.2-0.4,0.3c-0.1,0.2-0.2,0.4-0.4,0.7c0.3-0.2,0.5-0.5,0.8-0.7c0.4-0.3,0.4-0.9,0.9-1.2
							c-0.5,0.3-0.5,1-0.9,1.2c-0.2,0.2-0.5,0.4-0.8,0.7c-0.4,0.5-0.9,1.2-1.4,1.6c0.4-0.7,0.9-1.2,1.4-1.6c0.2-0.3,0.3-0.5,0.4-0.7
							c0.1-0.1,0.4-0.3,0.4-0.3c0.2-0.4,0.5-0.8,0.7-1.1c-0.8,1.1-1.6,2.1-2.5,3.1c-5.5,6.7-11,12.6-17.7,18.6
							c-3.7,3.2-7.4,6.1-11.2,8.6c-3.8,2.6-7.4,5-11.2,7.2c-3.8,2.2-7.7,4.3-11.9,6c-3.3,1.4-9.2,4.1-12.4,5.2
							c-4.2,1.9-1.6,2.1-1.4,2.1c3-0.1,4.9-1.4,10.4-3.2c-1.9,0.7-1.3,0.2,0.3-0.5c1.5-0.7,4-1.8,5.8-2.3c5.3-1.6,11.7-6,17.3-9.6
							c1.4-0.9,2.9-1.9,4.5-3.1c4.3-2.9,8.1-6.2,11.9-9.6c1.8-1.8,3.7-3.5,5.5-5.4c1.8-1.8,3.6-3.8,5.5-5.8c0.9-1.1,1.8-2.2,2.6-3.2
							c0.8-1,1.5-2.1,2.2-3c1.1-1.4,2.3-2.8,3.2-4c1.3-1.8,2.4-3.5,3.4-5.1c-1.1,1.8-2,3-3.3,4.9c-0.9,1.3,0.4-1.1,0.9-1.9
							c0.2-0.4,0.8-0.8,1-1.2c0.5-0.8,1-1.6,1.5-2.5c0.2-0.4,0.4-0.2,0.5-0.4c0.7-1.2,1-2.3,1.6-3c0.4-0.5,0.7-1.1,1.1-1.5
							c0.2-0.3,0.4-0.6,0.6-1c0.1-0.2,0.2-0.4,0.3-0.7c-0.2,0.1-0.3,0.2-0.4,0.2c0.2-0.3,0.5-0.7,0.7-1c-0.2,0.3-0.5,0.7-0.7,1
							c0.1,0,0.2,0,0.4-0.2c0.8-1.7,1.8-3.5,2.6-5.3l0,0c-0.5,1-1.1,2-1.8,2.9c0.3-0.4,0.3-0.3,0,0.2l-0.3,0.3
							c0.5-0.9,0.9-1.8,1.5-2.6c0,0,0.2-0.4,0.2-0.6c0.2-0.3,0.2-0.2,0.3-0.2c0.1-0.2,0.2-0.4,0.3-0.6
							C125.1,73.9,124.2,75.1,124.2,75.1z"/>
						<path class="st1" d="M118,85.2c0.1-0.1,0.2-0.3,0.3-0.5c-0.4,0.6-0.9,1.2-1.3,1.8C117.4,86.3,117.7,85.7,118,85.2z"/>
					</g>
				</g>
			</g>
		</g>
	</g>
</g>
<g>
	<g>
		<g>
			<g>
				<g class="st0">
					<g>
						<path class="st1" d="M87.7,124.6c-0.1-0.1-0.1-0.1-0.2-0.2c0,0,0,0.1,0,0.2C87.6,124.6,87.6,124.6,87.7,124.6z"/>
						<path class="st1" d="M87.4,124.2C87.4,124.2,87.4,124.2,87.4,124.2C87.3,124.2,87.3,124.2,87.4,124.2
							C87.3,124.2,87.4,124.2,87.4,124.2z"/>
						<path class="st1" d="M87,123.9c0,0.1,0.1,0.1,0.2,0.2C87.2,124,87.1,124,87,123.9z"/>
						<path class="st1" d="M87.2,124.2C87.2,124.2,87.3,124.2,87.2,124.2C87.3,124.2,87.3,124.2,87.2,124.2c0-0.1,0-0.1,0-0.1
							C87.2,124.1,87.2,124.2,87.2,124.2z"/>
						<path class="st1" d="M87.2,124.2c0,0,0,0.1,0,0.1C87.2,124.3,87.2,124.3,87.2,124.2z"/>
						<path class="st1" d="M86.5,124.7c-0.1,0,0.1-0.2,0-0.2c-0.2-0.1-0.4-0.2-0.5-0.3c-0.1,0,0-0.3-0.1-0.3
							c-0.2-0.1-0.8-0.3-0.6-0.1c0.3,0.3,0.6,0.5,0.9,0.8c0.3,0.2,0.6,0.4,0.9,0.6c0.1,0.1,0.1,0.1,0.2,0.2
							c-0.1-0.1-0.1-0.2-0.2-0.4C87.1,124.9,86.8,124.9,86.5,124.7z"/>
						<path class="st1" d="M88.9,126.1c-0.1,0-0.2,0-0.2,0c0-0.3-0.2-0.4-0.4-0.5c0,0,0,0.1,0,0.1c0.1,0.1,0.2,0,0.1-0.1
							c0.1,0.3,0.2,0.5,0.4,0.6C88.8,126.2,88.9,126.2,88.9,126.1z"/>
						<path class="st1" d="M88.9,126.4c0,0-0.1-0.1-0.1-0.1c0,0,0,0,0,0C88.8,126.3,88.9,126.4,88.9,126.4
							C88.9,126.4,88.9,126.4,88.9,126.4z"/>
						<path class="st1" d="M86.2,123.4c-0.4-0.4-0.8-0.9-1.1-1.3c-0.1,0-0.1,0-0.1,0c0-0.1,0-0.1,0-0.2c-0.1-0.1-0.1-0.1-0.2-0.2
							c0,0,0,0-0.1-0.1c0,0,0,0,0,0c-0.1,0-0.1,0-0.1,0.1c0,0,0,0.1,0,0.1c0,0,0-0.1,0-0.1c0,0,0-0.1,0-0.1c-0.1,0-0.1-0.1-0.2-0.2
							c0.1,0,0.1,0.1,0.2,0.2c0,0,0.1,0.1,0.1,0.1c0,0,0,0,0,0c-0.1-0.1-0.2-0.3-0.3-0.4c0,0-0.1-0.1-0.1-0.1
							c-0.1-0.1-0.2-0.2-0.2-0.3c0,0,0-0.1-0.1-0.1c0,0,0,0,0,0c0,0,0,0,0,0c-0.1-0.1-0.2-0.2-0.3-0.3c-0.1,0-0.2-0.1-0.3-0.1
							c0,0,0-0.1,0-0.1c-0.1,0-0.1,0-0.2,0c0,0.1,0,0.2,0,0.3c0,0.1,0.3,0,0.2,0.2c0.1-0.2-0.3-0.1-0.2-0.2c0-0.1,0-0.2,0-0.3
							c-0.1-0.1-0.2-0.2-0.2-0.4c0.2,0.1,0.2,0.2,0.2,0.4c0.1,0,0.1,0,0.2,0c0,0,0,0.1,0,0.1c0.1,0,0.2,0.1,0.3,0.1
							c-0.2-0.2-0.3-0.4-0.5-0.7c-1.1-1.4-2.2-2.7-3.4-4.1c-0.6-0.8-1.2-1.6-1.8-2.4c-1.1-1.6-2.5-2.7-3.3-4.5
							c-0.3-0.7-1.3-1.6-1.8-2.1c-0.9-0.4-1.4,0.6-1.4,0.7c-0.3,1,0.4,1,0.8,2.3c-0.3-0.8,0.8,0.1,0.9,1c0.1,1.4,1.7,2.1,2.4,3.3
							c0.2,0.3,0.5,0.5,0.7,0.9c1.2,1.8,2.8,3,4.3,4.7c0.4,0.4,0.9,0.7,1.3,1c0.3,0.2,0.5,0.6,0.7,0.8c0.3,0.3,0.6,0.6,1,0.8
							c-0.3-0.3-0.6-0.5-0.9-0.8c-0.2-0.2,0.4,0,0.6,0.1c0.1,0,0,0.3,0.1,0.3c0.1,0.1,0.3,0.2,0.5,0.3c0.1,0-0.1,0.2,0,0.2
							c0.2,0.2,0.6,0.1,0.7,0.3c0.1,0.1,0.1,0.2,0.2,0.4c0,0.1,0.1,0.1,0.1,0.2c0,0,0.1,0,0.2,0.1c0-0.1,0.1-0.2,0.1-0.2
							c0,0.1,0.1,0.2,0.1,0.2c0-0.1-0.1-0.2-0.1-0.2c-0.1,0.1-0.1,0.1-0.1,0.2c0.4,0.2,0.7,0.4,1.1,0.7c0,0,0,0,0,0
							c-0.2-0.2-0.3-0.3-0.4-0.6c0,0.1,0,0.1-0.1,0.1c0,0,0-0.1,0-0.1c0.2,0.1,0.4,0.2,0.4,0.5c0,0,0.1,0,0.2,0c0,0.1,0,0.1-0.1,0.2
							c0,0,0.1,0.1,0.1,0.1C86.3,123.7,86.2,123.4,86.2,123.4z"/>
						<path class="st1" d="M84.6,121.5C84.6,121.6,84.6,121.6,84.6,121.5c0,0-0.1-0.2-0.2-0.3C84.4,121.4,84.5,121.5,84.6,121.5z"/>
					</g>
				</g>
			</g>
		</g>
	</g>
</g>
<g>
	<g>
		<g>
			<g>
				<g class="st0">
					<g>
						<path class="st1" d="M130.3,85.5c-0.1,0-0.2-0.1-0.3-0.1c0,0,0.1,0.1,0.1,0.1C130.2,85.6,130.3,85.5,130.3,85.5z"/>
						<path class="st1" d="M129.8,85.2C129.7,85.2,129.7,85.2,129.8,85.2c-0.1,0-0.1,0-0.1,0C129.7,85.2,129.7,85.2,129.8,85.2z"/>
						<path class="st1" d="M129.2,85.1c0.1,0,0.2,0.1,0.3,0.1C129.4,85.1,129.3,85.1,129.2,85.1z"/>
						<path class="st1" d="M129.6,85.3C129.6,85.3,129.6,85.2,129.6,85.3C129.6,85.2,129.6,85.2,129.6,85.3c0-0.1-0.1-0.1-0.1-0.1
							C129.5,85.2,129.6,85.3,129.6,85.3z"/>
						<path class="st1" d="M129.6,85.3c0,0,0.1,0.1,0.1,0.1C129.7,85.4,129.6,85.3,129.6,85.3z"/>
						<path class="st1" d="M129.2,86c-0.1,0,0-0.2-0.1-0.2c-0.3,0-0.5,0-0.8-0.1c-0.1,0-0.2-0.3-0.3-0.3c-0.3,0-1,0-0.6,0.1
							c0.6,0.2,1,0.3,1.5,0.4c0.4,0.1,0.9,0.1,1.3,0.2c0.1,0,0.2,0.1,0.3,0.2c-0.1-0.1-0.3-0.2-0.4-0.3
							C129.9,85.9,129.5,86.1,129.2,86z"/>
						<path class="st1" d="M132.5,86.5c-0.1,0-0.2,0-0.2,0c-0.2-0.3-0.4-0.3-0.7-0.3c0,0.1,0,0.1,0.1,0.2c0.1,0,0.2,0,0.1-0.1
							c0.2,0.2,0.5,0.4,0.8,0.5C132.6,86.6,132.6,86.6,132.5,86.5z"/>
						<path class="st1" d="M132.7,86.8c-0.1,0-0.1,0-0.2,0c0,0,0,0,0,0C132.6,86.7,132.7,86.8,132.7,86.8
							C132.7,86.8,132.7,86.8,132.7,86.8z"/>
						<path class="st1" d="M128,84.8c-0.7-0.3-1.4-0.5-2-0.8c-0.1,0-0.1,0.1-0.2,0c0-0.1-0.1-0.1-0.1-0.1c-0.1,0-0.2-0.1-0.3-0.1
							c0,0-0.1,0-0.1,0c0,0,0,0,0,0c-0.1,0-0.1,0,0,0.1c0,0,0.1,0.1,0.1,0.1c0,0,0-0.1-0.1-0.1c0,0-0.1-0.1-0.1-0.1
							c-0.1,0-0.2,0-0.3-0.1c0.1,0,0.2,0,0.3,0.1c0.1,0,0.1,0,0.2,0c0,0,0,0,0.1,0c-0.2-0.1-0.4-0.2-0.6-0.3c-0.1,0-0.1,0-0.1,0
							c-0.2,0-0.3-0.1-0.4-0.2c0,0-0.1,0-0.1-0.1c0,0,0,0,0,0c0,0,0,0,0,0c-0.2-0.1-0.3-0.1-0.5-0.2c-0.1,0-0.3,0-0.4,0
							c0,0,0-0.1-0.1-0.2c-0.1,0-0.1,0.1-0.2,0c0.1,0.1,0.1,0.2,0.2,0.3c0.1,0.2,0.3-0.1,0.4,0.1c0-0.3-0.3,0-0.4-0.1
							c-0.1-0.1-0.1-0.2-0.2-0.3c-0.2,0-0.4-0.1-0.5-0.3c0.2,0,0.4,0.1,0.5,0.3c0.1,0,0.2,0,0.2,0c0,0.1,0.1,0.2,0.1,0.2
							c0.1,0,0.3,0,0.4,0c-0.3-0.1-0.6-0.3-0.9-0.4c-2.1-1-4-1.7-6.2-2.7c-1.2-0.5-2.3-1.1-3.3-1.7c-2.1-1.1-4.3-1.6-6.3-3.1
							c-0.8-0.5-2.4-1.1-3.3-1.4c-1.3-0.1-1.1,1.1-1,1.2c0.4,1.1,1.1,0.8,2.3,1.9c-0.8-0.6,0.9-0.2,1.6,0.7c1,1.4,3.1,1.4,4.6,2.3
							c0.4,0.2,0.8,0.3,1.3,0.6c2.4,1.3,4.8,1.8,7.5,2.9c0.7,0.3,1.4,0.3,2,0.4c0.4,0.1,0.9,0.4,1.2,0.6c0.5,0.2,1.1,0.3,1.5,0.4
							c-0.5-0.2-0.9-0.2-1.5-0.4c-0.4-0.1,0.4-0.2,0.6-0.1c0.1,0,0.2,0.3,0.3,0.3c0.2,0.1,0.5,0.1,0.8,0.1c0.1,0,0,0.2,0.1,0.2
							c0.4,0.1,0.7-0.1,0.9,0c0.2,0.1,0.3,0.2,0.4,0.3c0.1,0,0.2,0.1,0.3,0.1c0.1,0,0.1,0,0.2,0c0-0.1,0-0.2,0-0.3
							c0.1,0,0.2,0.1,0.3,0.2c-0.1,0-0.2-0.1-0.3-0.2c0,0.1,0,0.2,0,0.3c0.5,0,1.1,0.1,1.6,0.2c0,0,0,0,0,0
							c-0.3-0.1-0.6-0.2-0.8-0.5c0.1,0.1,0.1,0.2-0.1,0.1c0-0.1,0-0.1-0.1-0.2c0.3,0,0.5,0.1,0.7,0.3c0,0,0.1,0,0.2,0
							c0.1,0.1,0,0.1,0,0.2c0.1,0,0.1,0,0.2,0C128.3,85.1,128,84.8,128,84.8z"/>
						<path class="st1" d="M125.1,83.7c0,0,0.1,0,0.1,0c-0.2-0.1-0.4-0.2-0.5-0.2C124.8,83.6,125,83.7,125.1,83.7z"/>
					</g>
				</g>
			</g>
		</g>
	</g>
</g>
<g>
	<g>
		<g>
			<g>
				<g class="st0">
					<g>
						<path class="st1" d="M105.4,103.8c-0.1,0-0.1-0.1-0.2-0.1c0,0,0,0.1,0,0.1C105.3,103.9,105.4,103.9,105.4,103.8z"/>
						<path class="st1" d="M105.1,103.6C105.1,103.6,105.1,103.6,105.1,103.6C105,103.6,105,103.6,105.1,103.6
							C105,103.6,105.1,103.6,105.1,103.6z"/>
						<path class="st1" d="M104.7,103.4c0,0,0.1,0.1,0.2,0.1C104.9,103.5,104.8,103.4,104.7,103.4z"/>
						<path class="st1" d="M105,103.6C105,103.6,105,103.6,105,103.6C105,103.6,105,103.6,105,103.6c0-0.1,0-0.1-0.1-0.1
							C104.9,103.6,104.9,103.6,105,103.6z"/>
						<path class="st1" d="M105,103.6c0,0,0,0.1,0,0.1C105,103.7,105,103.7,105,103.6z"/>
						<path class="st1" d="M104.4,104.3c0,0,0.1-0.2,0-0.2c-0.2,0-0.4,0-0.5-0.1c-0.1,0,0-0.3-0.1-0.3c-0.2,0-0.7,0-0.5,0.1
							c0.3,0.2,0.6,0.3,0.9,0.5c0.3,0.1,0.6,0.2,0.9,0.3c0.1,0,0.1,0.1,0.2,0.2c-0.1-0.1-0.1-0.2-0.2-0.3
							C104.9,104.2,104.6,104.4,104.4,104.3z"/>
						<path class="st1" d="M106.6,104.9c0,0-0.1,0-0.1,0c0-0.2-0.2-0.3-0.4-0.3c0,0,0,0.1,0,0.1c0.1,0,0.1,0,0.1-0.1
							c0.1,0.2,0.2,0.4,0.4,0.5C106.6,105,106.7,104.9,106.6,104.9z"/>
						<path class="st1" d="M106.7,105.1c0,0-0.1,0-0.1-0.1c0,0,0,0,0,0C106.6,105.1,106.7,105.1,106.7,105.1
							C106.7,105.1,106.7,105.1,106.7,105.1z"/>
						<path class="st1" d="M104,103.2c-0.4-0.3-0.8-0.6-1.2-0.8c-0.1,0-0.1,0-0.1,0c0-0.1,0-0.1,0-0.1c-0.1,0-0.1-0.1-0.2-0.1
							c0,0,0,0-0.1,0c0,0,0,0,0,0c0,0-0.1,0-0.1,0.1c0,0,0,0.1,0,0.1c0,0,0-0.1,0-0.1c0,0,0-0.1-0.1-0.1c-0.1,0-0.1-0.1-0.2-0.1
							c0.1,0,0.1,0.1,0.2,0.1c0,0,0.1,0,0.1,0c0,0,0,0,0,0c-0.1-0.1-0.2-0.2-0.4-0.3c0,0-0.1,0-0.1,0c-0.1,0-0.2-0.1-0.2-0.2
							c0,0,0,0-0.1-0.1c0,0,0,0,0,0c0,0,0,0,0,0c-0.1-0.1-0.2-0.1-0.3-0.2c-0.1,0-0.2,0-0.3,0c0,0,0-0.1,0-0.1c-0.1,0-0.1,0-0.2,0
							c0,0.1,0,0.2,0,0.3c0,0.1,0.3-0.1,0.2,0.1c0.1-0.2-0.2,0-0.2-0.1c0-0.1,0-0.2,0-0.3c-0.1,0-0.2-0.1-0.2-0.3
							c0.2,0,0.2,0.1,0.2,0.3c0.1,0,0.1,0,0.2,0c0,0,0,0.1,0,0.1c0.1,0,0.2,0,0.3,0c-0.2-0.1-0.4-0.3-0.5-0.4
							c-1.2-1-2.3-1.8-3.5-2.7c-0.7-0.5-1.3-1.1-1.8-1.7c-1.1-1.1-2.5-1.7-3.5-3.1c-0.4-0.5-1.4-1.1-1.9-1.4c-0.9-0.1-1.1,1-1.1,1
							c-0.1,1,0.5,0.8,1,1.8c-0.4-0.6,0.7-0.2,0.9,0.7c0.2,1.3,1.7,1.4,2.6,2.3c0.2,0.2,0.5,0.4,0.7,0.6c1.3,1.3,2.9,1.9,4.4,3
							c0.4,0.3,0.9,0.3,1.3,0.5c0.3,0.1,0.5,0.4,0.7,0.6c0.3,0.2,0.6,0.3,1,0.4c-0.3-0.2-0.6-0.3-0.9-0.5c-0.2-0.1,0.3-0.1,0.5-0.1
							c0.1,0,0,0.3,0.1,0.3c0.1,0.1,0.3,0.1,0.5,0.1c0.1,0-0.1,0.2,0,0.2c0.2,0.1,0.6-0.1,0.6,0.1c0.1,0.1,0.1,0.2,0.2,0.3
							c0,0,0.1,0.1,0.2,0.1c0,0,0.1,0,0.1,0c0-0.1,0.1-0.2,0.1-0.2c0,0,0.1,0.1,0.1,0.2c0,0-0.1-0.1-0.1-0.2c0,0.1-0.1,0.2-0.1,0.2
							c0.3,0.1,0.7,0.2,1.1,0.3c0,0,0,0,0,0c-0.2-0.1-0.3-0.2-0.4-0.5c0,0.1,0,0.1-0.1,0.1c0,0,0-0.1,0-0.1c0.2,0,0.4,0.1,0.4,0.3
							c0,0,0.1,0,0.1,0c0,0.1,0,0.1,0,0.2c0,0,0.1,0,0.1,0.1C104.1,103.4,104,103.2,104,103.2z"/>
						<path class="st1" d="M102.3,102C102.3,102,102.3,102,102.3,102c0,0-0.1-0.1-0.2-0.2C102.1,101.9,102.2,101.9,102.3,102z"/>
					</g>
				</g>
			</g>
		</g>
	</g>
</g>
<g>
	<g>
		<g>
			<g>
				<g class="st0">
					<g>
						<path class="st1" d="M187.3,163.2L187,163c0,0,0.1,0.1,0.1,0.2C187.1,163.2,187.2,163.2,187.3,163.2z"/>
						<path class="st1" d="M186.7,162.8L186.7,162.8l-0.1-0.1C186.7,162.8,186.7,162.8,186.7,162.8z"/>
						<path class="st1" d="M186.2,162.5c0.1,0.1,0.2,0.1,0.3,0.2C186.4,162.6,186.3,162.5,186.2,162.5z"/>
						<path class="st1" d="M186.6,162.8C186.6,162.8,186.6,162.7,186.6,162.8L186.6,162.8l-0.1-0.2
							C186.5,162.7,186.5,162.8,186.6,162.8z"/>
						<path class="st1" d="M186.6,162.8c0,0.1,0,0.1,0,0.1C186.6,162.9,186.6,162.9,186.6,162.8z"/>
						<path class="st1" d="M185.9,163.4c-0.1,0,0.1-0.2,0-0.2c-0.3-0.1-0.5-0.2-0.7-0.3c-0.1,0-0.1-0.3-0.3-0.4
							c-0.3-0.1-1-0.2-0.7,0c0.5,0.3,0.9,0.5,1.4,0.8c0.4,0.2,0.9,0.4,1.3,0.6c0.1,0.1,0.2,0.2,0.3,0.3c-0.1-0.1-0.2-0.3-0.3-0.4
							C186.7,163.5,186.3,163.6,185.9,163.4z"/>
						<path class="st1" d="M189.2,165c-0.1,0-0.2-0.1-0.2-0.1c-0.1-0.3-0.4-0.4-0.6-0.6l0,0.2c0.1,0.1,0.2,0.1,0.1-0.1
							c0.2,0.3,0.4,0.5,0.6,0.7C189.2,165.1,189.2,165.1,189.2,165z"/>
						<path class="st1" d="M189.3,165.3c-0.1,0-0.1-0.1-0.2-0.1l0,0L189.3,165.3L189.3,165.3z"/>
						<path class="st1" d="M185,161.9c-0.7-0.4-1.3-0.8-2-1.2c-0.1,0-0.1,0-0.2,0c0-0.1-0.1-0.1-0.1-0.2l-0.3-0.2c0,0-0.1,0-0.1,0
							l0,0c-0.1,0-0.1,0-0.1,0.1c0,0,0,0.1,0.1,0.1c0,0,0-0.1-0.1-0.1c0-0.1-0.1-0.1-0.1-0.1c-0.1,0-0.2-0.1-0.3-0.1
							c0.1,0,0.2,0.1,0.3,0.1l0.2,0.1l0.1,0l-0.6-0.4c-0.1,0-0.1,0-0.1-0.1c-0.2-0.1-0.3-0.1-0.4-0.3l-0.1-0.1l0,0l0,0l-0.5-0.3
							c-0.1,0-0.3,0-0.4,0c0,0,0-0.1-0.1-0.2c-0.1,0-0.2,0-0.2,0c0.1,0.1,0.1,0.2,0.2,0.3c0.1,0.2,0.4-0.1,0.4,0.2
							c0-0.3-0.3,0-0.4-0.2c-0.1-0.1-0.1-0.2-0.2-0.3c-0.2,0-0.4-0.2-0.5-0.3c0.3,0,0.4,0.2,0.5,0.3c0.1,0,0.2,0,0.2,0
							c0,0.1,0.1,0.2,0.1,0.2c0.1,0,0.3,0,0.4,0c-0.3-0.2-0.7-0.3-1-0.5c-2.2-1.1-4.4-1.8-6.8-2.4c-1.3-0.3-2.6-0.6-3.9-0.9
							c-2.6-0.5-5-0.2-7.7-0.5c-1.1-0.1-2.9,0.3-3.9,0.6c-1.2,0.7-0.3,1.5-0.2,1.6c1,0.7,1.5,0,3.1,0.3c-1.1-0.1,0.7-0.7,1.8-0.2
							c1.5,0.8,3.5-0.1,5.3,0.3c0.4,0.1,0.9,0.1,1.4,0.1c2.7,0.6,5.3,0.7,8,1.7c0.7,0.3,1.4,0.3,2.1,0.4c0.5,0.1,0.9,0.5,1.2,0.6
							c0.6,0.3,1.1,0.4,1.6,0.6c-0.5-0.2-0.9-0.3-1.5-0.6c-0.4-0.2,0.4-0.2,0.7-0.1c0.1,0,0.2,0.3,0.3,0.3c0.2,0.1,0.5,0.1,0.8,0.2
							c0.1,0,0,0.2,0.1,0.2c0.4,0.1,0.8,0,0.9,0.2c0.1,0.1,0.3,0.2,0.4,0.4c0.1,0.1,0.2,0.1,0.3,0.2l0.2,0.1c0-0.1,0-0.2,0.1-0.3
							c0.1,0.1,0.2,0.2,0.3,0.3c-0.1-0.1-0.2-0.2-0.3-0.3c0,0.1-0.1,0.2-0.1,0.3c0.5,0.1,1.1,0.3,1.6,0.6l0,0
							c-0.3-0.2-0.5-0.4-0.7-0.6c0.1,0.1,0,0.2-0.1,0.1l0-0.2c0.3,0.1,0.6,0.2,0.7,0.5c0,0,0.1,0,0.2,0c0.1,0.1,0,0.1,0,0.2
							c0.1,0,0.1,0.1,0.2,0.1C185.3,162.3,185,161.9,185,161.9z"/>
						<path class="st1" d="M182.2,160.2c0,0,0.1,0,0.1,0.1l-0.5-0.3C181.8,160.1,182,160.2,182.2,160.2z"/>
					</g>
				</g>
			</g>
		</g>
	</g>
</g>
</svg>
