<?xml version="1.0" encoding="utf-8"?>
<!-- Generator: Adobe Illustrator 24.2.0, SVG Export Plug-In . SVG Version: 6.00 Build 0)  -->
<svg version="1.1" id="Layer_1" xmlns="http://www.w3.org/2000/svg" xmlns:xlink="http://www.w3.org/1999/xlink" x="0px" y="0px"
	 viewBox="0 0 213.1 222" style="enable-background:new 0 0 213.1 222;" xml:space="preserve">
<style type="text/css">
	.st0{fill:#FFFFFF;stroke:#FFFFFF;stroke-width:2;stroke-miterlimit:10;}
	.st1{fill:#212121;stroke:#FFFFFF;stroke-width:2;stroke-miterlimit:10;}
	.st2{clip-path:url(#SVGID_2_);fill:#212121;stroke:#FFFFFF;stroke-width:2;stroke-miterlimit:10;}
	.st3{fill:none;stroke:#FFFFFF;stroke-width:2;stroke-miterlimit:10;}
	.st4{clip-path:url(#SVGID_4_);fill:#212121;stroke:#FFFFFF;stroke-width:2;stroke-miterlimit:10;}
	.st5{clip-path:url(#SVGID_6_);fill:#212121;stroke:#FFFFFF;stroke-width:2;stroke-miterlimit:10;}
	.st6{clip-path:url(#SVGID_8_);fill:#212121;stroke:#FFFFFF;stroke-width:2;stroke-miterlimit:10;}
	.st7{clip-path:url(#SVGID_10_);fill:#212121;stroke:#FFFFFF;stroke-width:2;stroke-miterlimit:10;}
	.st8{clip-path:url(#SVGID_12_);fill:#212121;stroke:#FFFFFF;stroke-width:2;stroke-miterlimit:10;}
	.st9{clip-path:url(#SVGID_14_);fill:#212121;stroke:#FFFFFF;stroke-width:2;stroke-miterlimit:10;}
	.st10{clip-path:url(#SVGID_16_);fill:#212121;stroke:#FFFFFF;stroke-width:2;stroke-miterlimit:10;}
	.st11{clip-path:url(#SVGID_18_);fill:#212121;stroke:#FFFFFF;stroke-width:2;stroke-miterlimit:10;}
	.st12{clip-path:url(#SVGID_20_);fill:#212121;stroke:#FFFFFF;stroke-width:2;stroke-miterlimit:10;}
	.st13{clip-path:url(#SVGID_22_);fill:#212121;stroke:#FFFFFF;stroke-width:2;stroke-miterlimit:10;}
	.st14{clip-path:url(#SVGID_24_);fill:#212121;stroke:#FFFFFF;stroke-width:2;stroke-miterlimit:10;}
	.st15{clip-path:url(#SVGID_26_);fill:#212121;stroke:#FFFFFF;stroke-width:2;stroke-miterlimit:10;}
	.st16{clip-path:url(#SVGID_28_);fill:#212121;stroke:#FFFFFF;stroke-width:2;stroke-miterlimit:10;}
	.st17{clip-path:url(#SVGID_30_);fill:#212121;stroke:#FFFFFF;stroke-width:2;stroke-miterlimit:10;}
	.st18{clip-path:url(#SVGID_32_);fill:#212121;stroke:#FFFFFF;stroke-width:2;stroke-miterlimit:10;}
	.st19{clip-path:url(#SVGID_34_);fill:#212121;stroke:#FFFFFF;stroke-width:2;stroke-miterlimit:10;}
	.st20{clip-path:url(#SVGID_36_);fill:#212121;stroke:#FFFFFF;stroke-width:2;stroke-miterlimit:10;}
	.st21{clip-path:url(#SVGID_38_);fill:#212121;stroke:#FFFFFF;stroke-width:2;stroke-miterlimit:10;}
	.st22{clip-path:url(#SVGID_40_);fill:#212121;stroke:#FFFFFF;stroke-width:2;stroke-miterlimit:10;}
	.st23{clip-path:url(#SVGID_42_);fill:#212121;stroke:#FFFFFF;stroke-width:2;stroke-miterlimit:10;}
	.st24{clip-path:url(#SVGID_44_);fill:#212121;stroke:#FFFFFF;stroke-width:2;stroke-miterlimit:10;}
	.st25{clip-path:url(#SVGID_46_);fill:#212121;stroke:#FFFFFF;stroke-width:2;stroke-miterlimit:10;}
	.st26{clip-path:url(#SVGID_48_);fill:#212121;stroke:#FFFFFF;stroke-width:2;stroke-miterlimit:10;}
	.st27{clip-path:url(#SVGID_50_);fill:#212121;stroke:#FFFFFF;stroke-width:2;stroke-miterlimit:10;}
	.st28{clip-path:url(#SVGID_52_);fill:#212121;stroke:#FFFFFF;stroke-width:2;stroke-miterlimit:10;}
	.st29{clip-path:url(#SVGID_54_);fill:#212121;stroke:#FFFFFF;stroke-width:2;stroke-miterlimit:10;}
	.st30{clip-path:url(#SVGID_56_);fill:#212121;stroke:#FFFFFF;stroke-width:2;stroke-miterlimit:10;}
	.st31{clip-path:url(#SVGID_58_);fill:#212121;stroke:#FFFFFF;stroke-width:2;stroke-miterlimit:10;}
	.st32{fill:none;stroke:#FFFFFF;stroke-width:4;stroke-linecap:round;stroke-miterlimit:10;stroke-dasharray:0,20;}
</style>
<path class="st0" d="M81.9,172.9h-0.6C82.6,172.8,82.2,172.8,81.9,172.9 M184.3,80.6c0.3,0,0.3,0,0.2,0c-0.2,0-0.9,0-1.7,0
	C183,80.6,183.4,80.6,184.3,80.6 M181.2,80.5L181.2,80.5C179.6,80.5,180.2,80.5,181.2,80.5 M34.5,81.4c-0.5,0-1.3,0-2.1,0
	C33,81.3,33.7,81.3,34.5,81.4 M12.3,111.1c0,0.7,0.1,2,0,2.5C12.2,112.8,12.3,112.2,12.3,111.1 M12.4,145.7l0.1-2.3
	c0.2,2.8,0.1,4.8,0.2,2.6c-0.3-0.3,0-9-0.4-9.3l0.1-1.5c0,0.4,0,0.5,0,0.9c0.2-3-0.3-2.2-0.2-6c0-1.3,0.1-2.3,0.1-1.4l-0.1-3
	c0-0.9,0.1-0.7,0.1,0.2v-4.5l0,0c0-0.7-0.1-2.2-0.2-2.8c0-1.1,0,0.6,0.1,0.3l-0.1-2.5c0.1-1,0.2,1.1,0.2,2.8
	c0.3-2.3-0.1-2.1,0.1-7.1v2.4c0.2-1.5,0.1-3.4,0.3-6.1c-0.1,0.6-0.3,5.4-0.4,2.6c0-0.8,0-1.8,0-3.3c0.1,0,0.1-1.4,0.1-3.2l0.2,0.1
	c0-1.9-0.1-1.8-0.2-2.9c0-2.2,0.1-2.6,0.3-3.1c0-3.5-0.2,2.4-0.2-1.7c0.1-2.9,0-4.9-0.1-8.4c0.1-2,0.1,0.4,0.1-0.4l-0.1-1.8
	c0-0.4,0-0.3,0.1-0.2c0-1.5-0.2-0.1-0.2-2.5c0-0.1,0-0.5,0-0.9c0-0.2,0-0.4,0-0.7c0-0.2,0-0.3,0-0.5c0.3,0,0.6,0,0.9,0h1.4
	c0.9,0,1.8,0,2.7,0c0.7,0-0.3,0.1-0.1,0.2c4-0.1,3.5-0.1,6.8-0.3l2.8,0.1c-2.1-0.1,0.6-0.3,2.9-0.4c-1.1,0-1.7-0.1-2.1-0.1l3.7-0.1
	c0.4,0,0.1,0.1-0.5,0.1c0.3,0,0.5,0,0.7,0c1.3,0.1,0.6,0.2-0.3,0.2l-1.3-0.1c-0.9,0.1-1.8,0.2-1.6,0.3c0.3,0,0.7,0,1.2,0
	c-0.2,0-0.4,0-0.3,0.1c0.1,0,0.5,0,1.1-0.1l0.8,0.2l0.2-0.1l4.8,0.1c3.5-0.2,6.5-0.4,12-0.5c-1.4,0.1-0.3,0.2-0.4,0.4
	c-1.5-0.2-4.3,0.1-7.1,0c1.5,0,1.2,0.1,0.8,0.1l5.1-0.2c-0.1,0.1,1.1,0.1,2.4,0.1c-1-0.3,3.8-0.2,5.8-0.2c0.1,0.1-0.4,0.2-2.9,0.1
	c2.8,0.2,3.6-0.3,6.3-0.1c-0.6,0-0.9,0-1.2,0c1.4-0.1,4.9,0,4.1,0.1h-0.6c4.1,0,12.4,0,13-0.2c0,0-0.5,0.3-0.8,0.3l7.3-0.7
	c-0.6,0.2,1.8,0.6-1.6,0.7c1,0,2.2,0.1,4.2,0c-0.7,0-1.7-0.3-0.7-0.3c2.5,0.2,1.7,0.1,4.8,0.3c-1,0,0.1-0.3,1.7-0.3
	c-0.3,0,0.1,0.3-0.4,0.3l3.9-0.3c-1,0-0.2,0.2,0.7,0.3c-0.4-0.1,3.4,0,4.4,0l-1.7-0.1c4.4,0,4.4-0.4,8.7-0.4
	c-0.5,0.1-1.3,0.4,0.9,0.4c1-0.1,4.5-0.7,8.4-0.8l0.7,0.1l3-0.1c-1.9,0.2-7,0.7-9.9,0.9c1.6,0.1,0.5,0.1,2.9,0.1
	c0.9,0.1-1.4,0.1-2.1,0.1h5.8c-0.3-0.2,4.4-0.2,4.2-0.3l-6.3,0.2c-0.3-0.2,3.6-0.5,7.7-0.5c1,0.1-0.8,0.3-0.7,0.4
	c0.5-0.1,3.9-0.1,4.2-0.1l-1.7,0.1c2.3,0.1,3.7-0.2,6.4-0.1c0.9,0,2.8,0.2,3,0.1c-1.5-0.2-1.8-0.8-0.8-0.9c0.3,0,4.9,0.2,6,0.3
	c1.6,0.2-2.3,0.4-1,0.5c0.1,0,0.9-0.1,1.3-0.1c1,0-0.4,0.1,1.7,0.1c0.4-0.2,4.4,0,1-0.1c2.1,0,2.2,0,4.7,0c-0.8-0.1,2.2-0.4,4.3-0.4
	c-0.1,0,0.3,0.1,0.6,0.1c4.3,0,6.6,0.1,10.6,0.1c0.4,0,2.3,0.1,1.5,0.2c0.6,0,1.1-0.1,2.3-0.1c2.4,0.1-2.8,0-0.9,0.2
	c0.2-0.1,3.2-0.1,5-0.2c-0.5-0.2-4.1,0-5.8,0c0-0.2,3.1-0.4,7.3-0.5c3.3-0.1,1.4,0.1,2,0.1c6.3,0,5.3-0.4,10.6-0.2
	c2.1,0.1,0.1,0.3,0.5,0.4c-2.7,0.1-4.2-0.1-6-0.1l2.3,0.1c-0.9,0-2.7,0.1-3.7,0c1.7,0.1,10.6,0,15.4,0.1c0.9,0,2.3-0.1,1.6-0.1h-1.5
	c-1.4-0.1,2.9-0.2,0.9-0.2c2.1-0.1,4.4-0.2,7.2-0.1l0.5,0.2c-0.1,0-1.9-0.1-2.7,0c0.4,0,1.2,0,2,0s1.7,0.1,2.6,0.1
	c0,0.6,0,1.2,0.1,1.5l0.1-1.6h-0.9c0.3,0,0.6,0,1,0c0,1.1,0.1,2.3,0.1,3.5c0,1.1,0.1,2.2,0,3.4c0.2-1.2,0-0.6,0.2-2.4
	c-0.1,0.6-0.1-0.1-0.1-1.1c0-1.2,0-2.7,0-3.5c-0.9,0-1.1,0-0.1,0.1c0,0,0,0,0,0.1v-0.1c-0.7,0-1.3-0.1-1.8-0.1s-0.9,0-1.3,0
	c-0.9,0-1.8,0-3-0.1c0.1,0,0.9,0.1-1.3,0.1c-0.1,0-0.3,0-0.5,0c-0.1,0-0.1,0-0.1,0h0.1c-0.1,0-0.1,0,0,0c0.5,0,0.9,0,1.1,0.1
	c-1.1,0.1-4.5,0.1-5.6,0.2c-1.3,0,0.5-0.1-0.2-0.1l-1.7,0.1c-0.2-0.1-3.4-0.2-0.4-0.3h-2.7c-1.6-0.1-3.8-0.1-5.1,0
	c-1.3,0-3.2,0.1-2.1,0l-4.2,0.1l0,0c-4.2,0-8.6,0.2-13.4,0c-1.4,0-2.9,0.1-5.2,0l-0.5-0.1c-1.8,0-5.4-0.1-6.2,0
	c-1.9-0.3-8.8-0.1-12-0.1l-0.1,0.1c-2.2,0-4.3,0-7,0.1l0.2,0.1c-2.3,0.1-6-0.1-9.7-0.1c0.3,0,1.2,0,1.9,0c-4.4-0.3-9.3,0.2-13.4,0
	c-1,0-1.7,0-2.4,0c0.1,0,0.2,0,0.3,0c-0.1,0-0.3,0-0.4,0c-0.4,0-0.9,0-1.4-0.1c0.4,0,0.8,0,1.2,0.1c-0.8,0-1.9,0-3.1,0l-0.5-0.1
	c-0.1,0-0.2,0-0.3,0c-1.1,0-0.9,0.1-0.3,0.1c-0.5,0-1.1,0.1-1.5,0.1c-0.9-0.2-3,0.1-4.3-0.1C92.6,81,87.6,81,87,81.2
	c0,0-0.4,0,0.2,0c-1.3,0-2.6,0-3.7,0L83,81l-2.8,0.2c-1.7-0.1-2.4-0.1-0.7-0.3c-4.2,0.2-3.1,0.1-6.8,0.3l0.2-0.1
	c-1.2,0-3.2,0.1-4,0.1c-2.8-0.2-13.7,0-20.8-0.2c1.4,0.3-3.3-0.1-3.6,0.1c-0.4-0.1-1.4-0.1-0.3-0.2c-3.6,0.1-5.5-0.1-8,0.1
	c-0.4-0.1,0.8-0.1,0.4-0.1c-0.3,0-1.2,0.1-1.5,0s0.5-0.1,1.1-0.1c-3.7,0-4.1,0.2-4.4,0.4c-1.9-0.1-2.8-0.1-4.2,0
	c-0.7-0.1-1.7-0.1,0.6-0.2c-1.3,0-7.9-0.1-8,0.1c-0.4,0-1.8,0-2.2,0c-3,0-3.2,0-6.2,0h1c-0.4,0.1-1,0.1-1.5,0.1c0,0.9,0,2,0,3.6
	v-0.1c-0.1,5.3,0.1,2.3-0.1,7.5l0.1-0.3c0.3,0.5-0.2,4.6-0.1,7.6l0.1-1.1c0.1,1.6-0.4,4.6-0.4,6.3c0,0.4,0-0.6-0.1-1.1
	c-0.2,4.3,0.2,0.6,0.2,3.8c-0.1,0.6-0.2-0.8-0.2,1.4c-0.1,1.1,0.3,6.3,0.1,9.3c0.1-0.7,0.1-1.3,0.2,0.2c0,2.3-0.3,6.2,0,8.3
	c0,0.3,0,0.4-0.1,0.4c0.1,1.8,0.1,5.7,0.2,6.8c-0.4,1.6,0.2,10.9-0.2,10.9v5.4V150c0,3.5,0.1,4.7,0.2,5.9c0,0.8-0.1,0.2-0.1,0.2
	c-0.1,5.1-0.1,5.6,0.1,9.8l-0.1,0.4c0,0.4,0,1.2,0,2.3c0,1.3,0,2.9-0.1,4.6c1.1,0,2.3,0,3.4,0h2.9c0,0-0.2,0-0.5,0.1
	c5.6-0.1,13.4,0.3,15.4-0.1l3.7-0.1c-4.8,0,0.7-0.2-1.2-0.3c1.9,0,4.8,0.1,2.5,0.2h-0.4c-0.8,0.2,5.9,0.1,5.8,0.3
	c9.4,0,18.5,0.1,27.3,0.1l-1-0.2H72c0.8,0,1.1,0.1-1.1,0.1c0.6,0.1,1.5,0,2.3,0s1.4-0.1,1.5-0.1c4.3,0.1-1.7,0.2-0.4,0.2h1.8h-0.4
	c1.4-0.1,1.6-0.2,4.2-0.1c1.7,0,0.8,0.1,1.5,0.1c0,0,0.2,0,1,0h3.9l-1.5-0.1c1.7-0.1,3.6,0,1.8-0.2c2.6,0.3,14.4,0.1,16,0.2
	c2.4-0.1,4.8-0.1,7.7-0.1c-0.7,0-1.2-0.2,1.4-0.2c-0.9,0.3,4.6,0.1,6.7,0.4c-1.8-0.2,7.2,0,4.3-0.3c2.1,0,0.1,0.1,1.7,0.2
	c5-0.1,11,0.1,17.2,0c0.1,0-0.9-0.1,0.4-0.2l3.3,0.2c1.2,0,1.1-0.3,3.4-0.1c-0.3,0-0.8-0.1,0-0.1c12.1,0.2,24.8-0.2,37.1,0.2
	c-1.7-0.1-0.6-0.1,0.7-0.1c-0.8,0,0-0.1-0.1-0.2l5.2,0.2c0.9-0.2,5.5,0,6.1-0.2h-1.6c2.2-0.2-3-0.4-2.7-0.7c-2.4,0.2-6.4-0.3-10.4,0
	c-0.9,0,0.8-0.1,0.3-0.1c-1,0.1-2.2,0.1-4.5,0.1h0.3c-6.4,0-9.1-0.1-16.2-0.1l0.5,0.1c-1.5,0-1.9-0.1-2.6-0.1
	c-1.8,0.2,4.3,0,2.7,0.2c-2-0.2-10.8,0-12.2-0.3c-2.4,0,0.7,0.1-1.7,0.1l-0.6-0.1l-0.6,0.1c-1.5,0-2.3-0.1-2.4-0.2
	c0.4,0,1.1,0,1.5,0c-2-0.1-5.7,0-6.4,0h2.3c-6.4,0.1-14.3,0-20.6,0.1l0.5,0.1c-4.8,0.1-3.8-0.1-9,0h0.2c-1,0.1-2.4,0.1-3.9,0.1
	c1.3-0.1-2.5-0.1-0.8-0.2c-5.2,0.1-2.6,0.1-6,0.3l-0.8-0.1c-1.2,0.1-1.3,0.1-3.9,0.2c2.1-0.1-1.7-0.1,0.7-0.3
	c-5.5-0.2-8.1,0.2-10.6-0.1c-2.5,0.3,4.7,0.1,3.3,0.2c1.2,0.1-2.1,0.2-3.8,0.2c-1.7,0-3-0.3-7.4-0.3c0.4,0,0.5,0,0.9,0
	c-1.6-0.1-3.2,0.1-5.2,0c-1.1,0.2-2.6,0-3,0.2h4c-2.3,0.1-4.4,0.3-8.2,0.2c0.3,0,1.4-0.1,2.2-0.1c-1.1-0.1-2.1,0-3.3,0
	c0.3-0.2,4.9,0,7.4-0.2c-1.2-0.1-4.6,0.1-3.4-0.1c-1.8,0.3-4.3,0-7.3,0.2l0.2-0.1c-0.5,0-1.4,0.1-2.3,0.1l1.6-0.2
	c-2.4,0.1-4.7-0.1-7,0c4.8,0,1.1,0.1,3.1,0.2c-6,0.2-3.4-0.3-10.1-0.3c0.9,0,3.4,0.1,2,0.1c-1.3,0-3-0.1-3.7-0.1
	c-4.4,0,0.7,0.1-1.2,0.2c-1.5-0.1-2.2,0.1-4.1,0.1v-0.1c-5.1-0.1-1.3,0.3-5.9,0.2l1.9-0.2h-2.4l0.5-0.1c-2.6,0.1-3.4,0.1-5.9,0
	c0.6,0.1-0.3,0.2-2.6,0.2c-1.5-0.1,0.9-0.1-2.3-0.1c0.7-0.1,1.5-0.2,2.9-0.1c0.3,0,0.6-0.1,0.8-0.1c-1.6-0.1-4.1,0-5.3,0
	c0.4,0,0.9,0,1.2,0l-4.6,0.2c-0.7,0-0.2-0.1,0.4-0.1c-0.9,0-1.6,0-2.9,0.1c0.4-0.1,0.3-0.2,2.2-0.3l-4.4,0.1c-0.3,0-2.2-0.1-1.7-0.2
	c-0.6,0-1.2,0-1.9,0c-0.3,0-0.7,0-1.1,0c-0.3,0-0.2,0-0.4,0v-0.1c0,0,0-0.1,0-0.4v-1.3c0-0.8,0-1.7,0-2.5c0-0.2,0-0.5-0.1-1.2
	c0-3,0.1-5.7,0-9.3l0.2-2c0-2.8-0.2,2.8-0.3-1.9c-0.1-3.3,0.2-1.2,0.2-2.4c-0.1-1.6-0.3-4.5-0.1-7.6C12.4,144,12.4,144.8,12.4,145.7
	"/>
<polygon class="st1" points="196.8,167.1 196.9,167.4 196.8,164.9 "/>
<g>
	<g>
		<g>
			<defs>
				<rect id="SVGID_1_" x="-194.8" y="-1470.3" width="1853.3" height="2621.1"/>
			</defs>
			<clipPath id="SVGID_2_">
				<use xlink:href="#SVGID_1_"  style="overflow:visible;"/>
			</clipPath>
			<path class="st2" d="M200.8,151.4c-0.2,1.5,0,5.7,0,8.5v0.5l0.2,1.3C200.9,158.2,200.8,153.8,200.8,151.4"/>
			<use xlink:href="#SVGID_1_"  style="overflow:visible;fill:none;stroke:#FFFFFF;stroke-miterlimit:10;"/>
		</g>
		<g>
			<rect id="SVGID_59_" x="-194.8" y="-1470.3" class="st3" width="1853.3" height="2621.1"/>
		</g>
	</g>
	<g>
		<g>
			<defs>
				<rect id="SVGID_3_" x="-194.8" y="-1470.3" width="1853.3" height="2621.1"/>
			</defs>
			<clipPath id="SVGID_4_">
				<use xlink:href="#SVGID_3_"  style="overflow:visible;"/>
			</clipPath>
			<path class="st4" d="M201.3,142.9c-0.1,0.5-0.1-1.8,0,2c0-0.2,0-0.2,0-0.4C201.3,144.2,201.3,143.7,201.3,142.9"/>
			<use xlink:href="#SVGID_3_"  style="overflow:visible;fill:none;stroke:#FFFFFF;stroke-miterlimit:10;"/>
		</g>
		<g>
			<rect id="SVGID_61_" x="-194.8" y="-1470.3" class="st3" width="1853.3" height="2621.1"/>
		</g>
	</g>
	<g>
		<g>
			<defs>
				<rect id="SVGID_5_" x="-194.8" y="-1470.3" width="1853.3" height="2621.1"/>
			</defs>
			<clipPath id="SVGID_6_">
				<use xlink:href="#SVGID_5_"  style="overflow:visible;"/>
			</clipPath>
			<path class="st5" d="M201.3,144.6C201.3,146.2,201.4,143.5,201.3,144.6"/>
			<use xlink:href="#SVGID_5_"  style="overflow:visible;fill:none;stroke:#FFFFFF;stroke-miterlimit:10;"/>
		</g>
		<g>
			<rect id="SVGID_63_" x="-194.8" y="-1470.3" class="st3" width="1853.3" height="2621.1"/>
		</g>
	</g>
	<g>
		<g>
			<defs>
				<rect id="SVGID_7_" x="-194.8" y="-1470.3" width="1853.3" height="2621.1"/>
			</defs>
			<clipPath id="SVGID_8_">
				<use xlink:href="#SVGID_7_"  style="overflow:visible;"/>
			</clipPath>
			<path class="st6" d="M201.3,136.9l0.1,2.2c0-0.4,0.1-2.4,0.1-1.7C201.4,135.1,201.4,135.6,201.3,136.9"/>
			<use xlink:href="#SVGID_7_"  style="overflow:visible;fill:none;stroke:#FFFFFF;stroke-miterlimit:10;"/>
		</g>
		<g>
			<rect id="SVGID_65_" x="-194.8" y="-1470.3" class="st3" width="1853.3" height="2621.1"/>
		</g>
	</g>
	<g>
		<g>
			<defs>
				<rect id="SVGID_9_" x="-194.8" y="-1470.3" width="1853.3" height="2621.1"/>
			</defs>
			<clipPath id="SVGID_10_">
				<use xlink:href="#SVGID_9_"  style="overflow:visible;"/>
			</clipPath>
			<path class="st7" d="M201.1,134.8v1.1C201.2,135.7,201.2,135.4,201.1,134.8"/>
			<use xlink:href="#SVGID_9_"  style="overflow:visible;fill:none;stroke:#FFFFFF;stroke-miterlimit:10;"/>
		</g>
		<g>
			<rect id="SVGID_67_" x="-194.8" y="-1470.3" class="st3" width="1853.3" height="2621.1"/>
		</g>
	</g>
	<g>
		<g>
			<defs>
				<rect id="SVGID_11_" x="-194.8" y="-1470.3" width="1853.3" height="2621.1"/>
			</defs>
			<clipPath id="SVGID_12_">
				<use xlink:href="#SVGID_11_"  style="overflow:visible;"/>
			</clipPath>
			<path class="st8" d="M201.2,138.3l-0.1-2.4c0,0.3-0.1,0.4,0,1.1C201.1,136.9,201.2,137.3,201.2,138.3"/>
			<use xlink:href="#SVGID_11_"  style="overflow:visible;fill:none;stroke:#FFFFFF;stroke-miterlimit:10;"/>
		</g>
		<g>
			<rect id="SVGID_69_" x="-194.8" y="-1470.3" class="st3" width="1853.3" height="2621.1"/>
		</g>
	</g>
	<g>
		<g>
			<defs>
				<rect id="SVGID_13_" x="-194.8" y="-1470.3" width="1853.3" height="2621.1"/>
			</defs>
			<clipPath id="SVGID_14_">
				<use xlink:href="#SVGID_13_"  style="overflow:visible;"/>
			</clipPath>
			<path class="st9" d="M201.2,139.7c0,1.2-0.1,2.8-0.2,0.6C201,144.5,201.2,143.9,201.2,139.7"/>
			<use xlink:href="#SVGID_13_"  style="overflow:visible;fill:none;stroke:#FFFFFF;stroke-miterlimit:10;"/>
		</g>
		<g>
			<rect id="SVGID_71_" x="-194.8" y="-1470.3" class="st3" width="1853.3" height="2621.1"/>
		</g>
	</g>
	<g>
		<g>
			<defs>
				<rect id="SVGID_15_" x="-194.8" y="-1470.3" width="1853.3" height="2621.1"/>
			</defs>
			<clipPath id="SVGID_16_">
				<use xlink:href="#SVGID_15_"  style="overflow:visible;"/>
			</clipPath>
			<path class="st10" d="M200.6,150.5l-0.1,1.6l0.1,1.4C200.6,152.9,200.7,150.4,200.6,150.5"/>
			<use xlink:href="#SVGID_15_"  style="overflow:visible;fill:none;stroke:#FFFFFF;stroke-miterlimit:10;"/>
		</g>
		<g>
			<rect id="SVGID_73_" x="-194.8" y="-1470.3" class="st3" width="1853.3" height="2621.1"/>
		</g>
	</g>
	<g>
		<g>
			<defs>
				<rect id="SVGID_17_" x="-194.8" y="-1470.3" width="1853.3" height="2621.1"/>
			</defs>
			<clipPath id="SVGID_18_">
				<use xlink:href="#SVGID_17_"  style="overflow:visible;"/>
			</clipPath>
			<path class="st11" d="M201.4,123.3c0-0.1-0.1,0.7-0.2,0.9l0.1,1.6C201.3,124.9,201.3,123.4,201.4,123.3"/>
			<use xlink:href="#SVGID_17_"  style="overflow:visible;fill:none;stroke:#FFFFFF;stroke-miterlimit:10;"/>
		</g>
		<g>
			<rect id="SVGID_75_" x="-194.8" y="-1470.3" class="st3" width="1853.3" height="2621.1"/>
		</g>
	</g>
	<g>
		<g>
			<defs>
				<rect id="SVGID_19_" x="-194.8" y="-1470.3" width="1853.3" height="2621.1"/>
			</defs>
			<clipPath id="SVGID_20_">
				<use xlink:href="#SVGID_19_"  style="overflow:visible;"/>
			</clipPath>
			<path class="st12" d="M201.2,124.2l-0.1-2.4C201.1,123.9,201.1,124.3,201.2,124.2"/>
			<use xlink:href="#SVGID_19_"  style="overflow:visible;fill:none;stroke:#FFFFFF;stroke-miterlimit:10;"/>
		</g>
		<g>
			<rect id="SVGID_77_" x="-194.8" y="-1470.3" class="st3" width="1853.3" height="2621.1"/>
		</g>
	</g>
</g>
<polygon class="st1" points="200.9,134.4 201,138.4 200.9,133.7 "/>
<polygon class="st1" points="201.4,114 201.5,115.4 201.3,113 "/>
<g>
	<g>
		<g>
			<defs>
				<rect id="SVGID_21_" x="-194.8" y="-1470.3" width="1853.3" height="2621.1"/>
			</defs>
			<clipPath id="SVGID_22_">
				<use xlink:href="#SVGID_21_"  style="overflow:visible;"/>
			</clipPath>
			<path class="st13" d="M201.4,107.9c0.1,1,0.1-1.4,0.2-0.3c0-1.7-0.1-3.1-0.2-4.4C201.5,104.6,201.4,106,201.4,107.9"/>
			<use xlink:href="#SVGID_21_"  style="overflow:visible;fill:none;stroke:#FFFFFF;stroke-miterlimit:10;"/>
		</g>
		<g>
			<rect id="SVGID_79_" x="-194.8" y="-1470.3" class="st3" width="1853.3" height="2621.1"/>
		</g>
	</g>
	<g>
		<g>
			<defs>
				<rect id="SVGID_23_" x="-194.8" y="-1470.3" width="1853.3" height="2621.1"/>
			</defs>
			<clipPath id="SVGID_24_">
				<use xlink:href="#SVGID_23_"  style="overflow:visible;"/>
			</clipPath>
			<path class="st14" d="M201.3,101.1c0,0.6,0.1,1.4,0.1,2.2C201.4,102.6,201.3,101.9,201.3,101.1"/>
			<use xlink:href="#SVGID_23_"  style="overflow:visible;fill:none;stroke:#FFFFFF;stroke-miterlimit:10;"/>
		</g>
		<g>
			<rect id="SVGID_81_" x="-194.8" y="-1470.3" class="st3" width="1853.3" height="2621.1"/>
		</g>
	</g>
	<g>
		<g>
			<defs>
				<rect id="SVGID_25_" x="-194.8" y="-1470.3" width="1853.3" height="2621.1"/>
			</defs>
			<clipPath id="SVGID_26_">
				<use xlink:href="#SVGID_25_"  style="overflow:visible;"/>
			</clipPath>
			<path class="st15" d="M201.1,117.6c0-0.2,0.1-0.6,0.1-1.9l-0.1,0.9C201.1,117,201.1,117.3,201.1,117.6"/>
			<use xlink:href="#SVGID_25_"  style="overflow:visible;fill:none;stroke:#FFFFFF;stroke-miterlimit:10;"/>
		</g>
		<g>
			<rect id="SVGID_83_" x="-194.8" y="-1470.3" class="st3" width="1853.3" height="2621.1"/>
		</g>
	</g>
	<g>
		<g>
			<defs>
				<rect id="SVGID_27_" x="-194.8" y="-1470.3" width="1853.3" height="2621.1"/>
			</defs>
			<clipPath id="SVGID_28_">
				<use xlink:href="#SVGID_27_"  style="overflow:visible;"/>
			</clipPath>
			<path class="st16" d="M201.1,116.7L201.1,116.7c0-1.1,0-1.8,0-2.1C201.1,114.9,201.1,115.5,201.1,116.7"/>
			<use xlink:href="#SVGID_27_"  style="overflow:visible;fill:none;stroke:#FFFFFF;stroke-miterlimit:10;"/>
		</g>
		<g>
			<rect id="SVGID_85_" x="-194.8" y="-1470.3" class="st3" width="1853.3" height="2621.1"/>
		</g>
	</g>
	<g>
		<g>
			<defs>
				<rect id="SVGID_29_" x="-194.8" y="-1470.3" width="1853.3" height="2621.1"/>
			</defs>
			<clipPath id="SVGID_30_">
				<use xlink:href="#SVGID_29_"  style="overflow:visible;"/>
			</clipPath>
			<path class="st17" d="M201.1,117.9c0-0.1,0-0.2,0-0.2C201.1,117.7,201.1,117.8,201.1,117.9"/>
			<use xlink:href="#SVGID_29_"  style="overflow:visible;fill:none;stroke:#FFFFFF;stroke-miterlimit:10;"/>
		</g>
		<g>
			<rect id="SVGID_87_" x="-194.8" y="-1470.3" class="st3" width="1853.3" height="2621.1"/>
		</g>
	</g>
	<g>
		<g>
			<defs>
				<rect id="SVGID_31_" x="-194.8" y="-1470.3" width="1853.3" height="2621.1"/>
			</defs>
			<clipPath id="SVGID_32_">
				<use xlink:href="#SVGID_31_"  style="overflow:visible;"/>
			</clipPath>
			<path class="st18" d="M201,128.1c-0.1-1.4-0.1-4.4-0.3-1.5C200.8,127.6,200.9,126,201,128.1"/>
			<use xlink:href="#SVGID_31_"  style="overflow:visible;fill:none;stroke:#FFFFFF;stroke-miterlimit:10;"/>
		</g>
		<g>
			<rect id="SVGID_89_" x="-194.8" y="-1470.3" class="st3" width="1853.3" height="2621.1"/>
		</g>
	</g>
	<g>
		<g>
			<defs>
				<rect id="SVGID_33_" x="-194.8" y="-1470.3" width="1853.3" height="2621.1"/>
			</defs>
			<clipPath id="SVGID_34_">
				<use xlink:href="#SVGID_33_"  style="overflow:visible;"/>
			</clipPath>
			<path class="st19" d="M201,119.1v2.6c0-0.1,0.1-0.5,0.1,0.2L201,119.1z"/>
			<use xlink:href="#SVGID_33_"  style="overflow:visible;fill:none;stroke:#FFFFFF;stroke-miterlimit:10;"/>
		</g>
		<g>
			<rect id="SVGID_91_" x="-194.8" y="-1470.3" class="st3" width="1853.3" height="2621.1"/>
		</g>
	</g>
</g>
<polygon class="st1" points="201,119.1 201,118.1 200.9,117.8 "/>
<g>
	<g>
		<g>
			<defs>
				<rect id="SVGID_35_" x="-194.8" y="-1470.3" width="1853.3" height="2621.1"/>
			</defs>
			<clipPath id="SVGID_36_">
				<use xlink:href="#SVGID_35_"  style="overflow:visible;"/>
			</clipPath>
			<path class="st20" d="M201.2,105.5c-0.1-1.1-0.1-2.3-0.1-3.7c0,1.5,0,3,0,4.4C201.1,106.4,201.2,107.1,201.2,105.5"/>
			<use xlink:href="#SVGID_35_"  style="overflow:visible;fill:none;stroke:#FFFFFF;stroke-miterlimit:10;"/>
		</g>
		<g>
			<rect id="SVGID_93_" x="-194.8" y="-1470.3" class="st3" width="1853.3" height="2621.1"/>
		</g>
	</g>
	<g>
		<g>
			<defs>
				<rect id="SVGID_37_" x="-194.8" y="-1470.3" width="1853.3" height="2621.1"/>
			</defs>
			<clipPath id="SVGID_38_">
				<use xlink:href="#SVGID_37_"  style="overflow:visible;"/>
			</clipPath>
			<path class="st21" d="M201.2,110.9c0-0.1,0-0.2,0-0.2C201.1,110.8,201.1,111,201.2,110.9"/>
			<use xlink:href="#SVGID_37_"  style="overflow:visible;fill:none;stroke:#FFFFFF;stroke-miterlimit:10;"/>
		</g>
		<g>
			<rect id="SVGID_95_" x="-194.8" y="-1470.3" class="st3" width="1853.3" height="2621.1"/>
		</g>
	</g>
</g>
<polygon class="st1" points="197.1,88.5 197.1,88.6 197.1,88.3 "/>
<g>
	<g>
		<g>
			<defs>
				<rect id="SVGID_39_" x="-194.8" y="-1470.3" width="1853.3" height="2621.1"/>
			</defs>
			<clipPath id="SVGID_40_">
				<use xlink:href="#SVGID_39_"  style="overflow:visible;"/>
			</clipPath>
			<path class="st22" d="M201.1,106.5c0,1.1,0,1.8,0,2.4c0-0.8,0-1.7,0-2.6C201.1,106.1,201,106.1,201.1,106.5"/>
			<use xlink:href="#SVGID_39_"  style="overflow:visible;fill:none;stroke:#FFFFFF;stroke-miterlimit:10;"/>
		</g>
		<g>
			<rect id="SVGID_97_" x="-194.8" y="-1470.3" class="st3" width="1853.3" height="2621.1"/>
		</g>
	</g>
	<g>
		<g>
			<defs>
				<rect id="SVGID_41_" x="-194.8" y="-1470.3" width="1853.3" height="2621.1"/>
			</defs>
			<clipPath id="SVGID_42_">
				<use xlink:href="#SVGID_41_"  style="overflow:visible;"/>
			</clipPath>
			<path class="st23" d="M201.2,97.3c0,0.6,0,1.2-0.1,1.9C201.2,98.7,201.3,97.5,201.2,97.3"/>
			<use xlink:href="#SVGID_41_"  style="overflow:visible;fill:none;stroke:#FFFFFF;stroke-miterlimit:10;"/>
		</g>
		<g>
			<rect id="SVGID_99_" x="-194.8" y="-1470.3" class="st3" width="1853.3" height="2621.1"/>
		</g>
	</g>
	<g>
		<g>
			<defs>
				<rect id="SVGID_43_" x="-194.8" y="-1470.3" width="1853.3" height="2621.1"/>
			</defs>
			<clipPath id="SVGID_44_">
				<use xlink:href="#SVGID_43_"  style="overflow:visible;"/>
			</clipPath>
			<path class="st24" d="M201.2,110.3v0.2C201.2,110.1,201.2,110.2,201.2,110.3"/>
			<use xlink:href="#SVGID_43_"  style="overflow:visible;fill:none;stroke:#FFFFFF;stroke-miterlimit:10;"/>
		</g>
		<g>
			<rect id="SVGID_101_" x="-194.8" y="-1470.3" class="st3" width="1853.3" height="2621.1"/>
		</g>
	</g>
	<g>
		<g>
			<defs>
				<rect id="SVGID_45_" x="-194.8" y="-1470.3" width="1853.3" height="2621.1"/>
			</defs>
			<clipPath id="SVGID_46_">
				<use xlink:href="#SVGID_45_"  style="overflow:visible;"/>
			</clipPath>
			<path class="st25" d="M201.2,110.3c0-0.5-0.1-1-0.1-1.5c0,0.7,0,1.3,0,1.8C201.2,110.6,201.2,110.4,201.2,110.3"/>
			<use xlink:href="#SVGID_45_"  style="overflow:visible;fill:none;stroke:#FFFFFF;stroke-miterlimit:10;"/>
		</g>
		<g>
			<rect id="SVGID_103_" x="-194.8" y="-1470.3" class="st3" width="1853.3" height="2621.1"/>
		</g>
	</g>
	<g>
		<g>
			<defs>
				<rect id="SVGID_47_" x="-194.8" y="-1470.3" width="1853.3" height="2621.1"/>
			</defs>
			<clipPath id="SVGID_48_">
				<use xlink:href="#SVGID_47_"  style="overflow:visible;"/>
			</clipPath>
			<path class="st26" d="M200.3,84.2c0.1,0.2,0.2,3.1,0.1,5.6c0.1,2.5,0.5,0.8,0.7-1.3c0-0.1-0.1-0.1-0.2-2.6
				c-0.1,0.9-0.2,5.6-0.3,3.5c-0.1-3.4,0-2.8,0.1-4.4c-0.1,1.4-0.2-4.3-0.5-3.5l0.1,3C200.3,84.5,200.3,83.4,200.3,84.2"/>
			<use xlink:href="#SVGID_47_"  style="overflow:visible;fill:none;stroke:#FFFFFF;stroke-miterlimit:10;"/>
		</g>
		<g>
			<rect id="SVGID_105_" x="-194.8" y="-1470.3" class="st3" width="1853.3" height="2621.1"/>
		</g>
	</g>
	<g>
		<g>
			<defs>
				<rect id="SVGID_49_" x="-194.8" y="-1470.3" width="1853.3" height="2621.1"/>
			</defs>
			<clipPath id="SVGID_50_">
				<use xlink:href="#SVGID_49_"  style="overflow:visible;"/>
			</clipPath>
			<path class="st27" d="M201.1,93.4v1c0-1.2,0.1-2,0.2-3.6c-0.1-1.7-0.1-2.1-0.1-2.2v5.1L201.1,93.4z"/>
			<use xlink:href="#SVGID_49_"  style="overflow:visible;fill:none;stroke:#FFFFFF;stroke-miterlimit:10;"/>
		</g>
		<g>
			<rect id="SVGID_107_" x="-194.8" y="-1470.3" class="st3" width="1853.3" height="2621.1"/>
		</g>
	</g>
	<g>
		<g>
			<defs>
				<rect id="SVGID_51_" x="-194.8" y="-1470.3" width="1853.3" height="2621.1"/>
			</defs>
			<clipPath id="SVGID_52_">
				<use xlink:href="#SVGID_51_"  style="overflow:visible;"/>
			</clipPath>
			<path class="st28" d="M201.1,99.1c-0.1-0.8-0.2-3.3-0.3-1.8c0,3.1,0.1,2.2,0.2,4C200.9,96.3,201,102.7,201.1,99.1
				c0,1,0,1.9,0,2.7c0-0.9,0-1.7,0.1-2.6v0.1l0,0l0,0c0,0.2,0,0.3,0,0v-0.1C201.1,99.3,201.1,99.2,201.1,99.1c0-1.4,0-0.2,0,0.2v0.1
				l0,0l-0.1-4.9C201.1,95.5,201.1,96.8,201.1,99.1"/>
			<use xlink:href="#SVGID_51_"  style="overflow:visible;fill:none;stroke:#FFFFFF;stroke-miterlimit:10;"/>
		</g>
		<g>
			<rect id="SVGID_109_" x="-194.8" y="-1470.3" class="st3" width="1853.3" height="2621.1"/>
		</g>
	</g>
	<g>
		<g>
			<defs>
				<rect id="SVGID_53_" x="-194.8" y="-1470.3" width="1853.3" height="2621.1"/>
			</defs>
			<clipPath id="SVGID_54_">
				<use xlink:href="#SVGID_53_"  style="overflow:visible;"/>
			</clipPath>
			<path class="st29" d="M200.4,123.9c0-0.2,0-0.2,0-0.2C200.4,123.5,200.4,123.3,200.4,123.9"/>
			<use xlink:href="#SVGID_53_"  style="overflow:visible;fill:none;stroke:#FFFFFF;stroke-miterlimit:10;"/>
		</g>
		<g>
			<rect id="SVGID_111_" x="-194.8" y="-1470.3" class="st3" width="1853.3" height="2621.1"/>
		</g>
	</g>
	<g>
		<g>
			<defs>
				<rect id="SVGID_55_" x="-194.8" y="-1470.3" width="1853.3" height="2621.1"/>
			</defs>
			<clipPath id="SVGID_56_">
				<use xlink:href="#SVGID_55_"  style="overflow:visible;"/>
			</clipPath>
			<path class="st30" d="M200.5,121.9c0,0.4,0.1,0.7,0.1,1.8c0,1-0.1,0-0.1,0.1c0,0.7,0.1,2.5,0.2,0.3v-0.3c0-2,0.2-4.6,0.2-4.2
				C200.7,120.1,200.6,120.6,200.5,121.9"/>
			<use xlink:href="#SVGID_55_"  style="overflow:visible;fill:none;stroke:#FFFFFF;stroke-miterlimit:10;"/>
		</g>
		<g>
			<rect id="SVGID_113_" x="-194.8" y="-1470.3" class="st3" width="1853.3" height="2621.1"/>
		</g>
	</g>
	<g>
		<g>
			<defs>
				<rect id="SVGID_57_" x="-194.8" y="-1470.3" width="1853.3" height="2621.1"/>
			</defs>
			<clipPath id="SVGID_58_">
				<use xlink:href="#SVGID_57_"  style="overflow:visible;"/>
			</clipPath>
			<path class="st31" d="M200.8,110.3l-0.1-4.1l-0.1,2.1l0.1-0.1C200.6,110.6,200.7,110.1,200.8,110.3"/>
			<use xlink:href="#SVGID_57_"  style="overflow:visible;fill:none;stroke:#FFFFFF;stroke-miterlimit:10;"/>
		</g>
		<g>
			<rect id="SVGID_115_" x="-194.8" y="-1470.3" class="st3" width="1853.3" height="2621.1"/>
		</g>
	</g>
</g>
<polygon class="st1" points="197.2,87.8 197.3,88.4 197.1,86 "/>
<polygon class="st1" points="197.2,82.5 197.3,82.7 197.2,81.3 "/>
<path class="st32" d="M32.5,106.2c-1.2,2.2-11.7,22.5,1.2,40.7c5.6,7.8,23.3,7.8,33,7.6c13.2-0.3,24.4-5.8,30.7-14.3
	c4.9-6.6,44.9-44.9,70.9-34"/>
<g>
	<path class="st0" d="M178.6,103.9c2.3-1.9,4.3-4.3,7.1-5.8c-0.1,0.5-0.2,1-0.4,1.5c-0.3,0.6-0.7,1-1.2,1.4
		c-0.4,0.3-0.7,0.7-1.1,1.1c-1,1.1-1.9,2.2-2.9,3.4c2.3,2.7,5.2,5.1,6.9,8.4c-0.2-0.1-0.3-0.3-0.5-0.5c-0.1,0.1-0.3,0.2-0.6,0.3
		c-2.5-2.2-4.9-4.5-7.4-6.8c-0.1,0.1-0.3,0.3-0.5,0.4c-2.1,2.1-4.1,4.2-6.2,6.3c-0.2,0.2-0.5,0.4-0.7,0.5c-0.6,0.3-1.2,0-1.1-0.7
		c0-0.4,0.2-0.9,0.4-1.2c0.9-1.1,1.9-2.2,2.9-3.3c1.2-1.3,2.3-2.5,3.4-3.7c-0.8-0.8-1.6-1.7-2.5-2.6c-1.3-1.3-2.6-2.7-4-4
		c-0.1-0.1-0.3-0.3-0.3-0.5c-0.1-0.3-0.2-0.6,0-0.8c0.2-0.2,0.5-0.4,0.8-0.3c0.4,0.1,0.9,0.2,1.2,0.5c1.2,1,2.3,2,3.4,3.1
		C176.4,101.8,177.5,102.8,178.6,103.9z"/>
</g>
</svg>
