<?xml version="1.0" encoding="utf-8"?>
<!-- Generator: Adobe Illustrator 24.2.0, SVG Export Plug-In . SVG Version: 6.00 Build 0)  -->
<svg version="1.1" id="Layer_1" xmlns="http://www.w3.org/2000/svg" xmlns:xlink="http://www.w3.org/1999/xlink" x="0px" y="0px"
	 viewBox="0 0 213.1 222" style="enable-background:new 0 0 213.1 222;" xml:space="preserve">
<style type="text/css">
	.st0{opacity:0.85;}
	.st1{fill:#53917E;stroke:#53917E;stroke-width:2;stroke-miterlimit:10;}
</style>
<g>
	<g>
		<g>
			<g>
				<g class="st0">
					<g>
						<path class="st1" d="M15.8,181.3c-1.1-1.6-2.1-3.1-3.1-4.7c0.4,0.9,1,1.6,1.4,2.4C14.8,180,15.2,180.4,15.8,181.3z"/>
						<path class="st1" d="M10.7,171.7c-0.1-0.3-0.1-0.7-0.3-1s-0.1-0.6-0.3-0.9C10.2,170.6,10.4,171.2,10.7,171.7z"/>
						<path class="st1" d="M9.9,162.4c-0.1,0.1-0.3,0.4-0.4,0.6c-0.1,0.1-0.3,0.4-0.1,0.4l0,0l0,0c-0.1,1.3-0.3,2.4-0.1,3.7
							c-0.1-1.1,0-2.1,0.1-3.7l0,0l0,0c-0.1-0.1-0.1,0,0-0.1c0-0.1,0.1-0.1,0.1-0.3C9.7,162.7,9.8,162.6,9.9,162.4z"/>
						<path class="st1" d="M9.9,169.9C9.8,169.3,9.7,169,9.9,169.9C10.1,169.9,10.1,169.9,9.9,169.9c-0.3-0.9-0.4-1.7-0.6-2.7
							C9.5,168.1,9.7,169,9.9,169.9z"/>
						<path class="st1" d="M9.9,169.9c0.1,0.6,0.4,1.4,0.6,1.7C10.4,171.2,10.1,170.4,9.9,169.9z"/>
						<path class="st1" d="M8.9,167.4c-0.1-1,0-0.9,0.1-2.9c0-0.4,0.1-1,0.1-1.1c0,0-0.1-0.1-0.1-0.3c0-0.1,0-0.1,0.1-0.3
							c0-0.1,0.1-0.3,0.1-0.4c0.1-0.3,0.3-0.4,0.4-0.6c0.3-0.4,0.6-0.9,0.9-1.1c0.6-0.7,1.3-1.4,1.9-2.1c1.3-1.4,2.6-2.9,3.9-4.3
							c1.3-1.4,3.6-3.6,4.9-5.1c3.1-3.4,11.3-12,6.4-7c-3.7,3.7-6.7,6.9-9.6,10c-2.9,3.1-5.7,6-8.6,9.7c-0.1,0.1-0.3,0.4-0.4,0.6
							c0,0.1-0.1,0.3-0.1,0.4c0,0.1,0,0.1-0.1,0.3c0,0.1,0.1,0.3,0.1,0.3c0,0.1-0.1,0.7-0.1,1.1s0,0.9,0,1.4c0,0.9,0.1,1.9,0.3,2.7
							c0.1,0.9,0.6,1.7,0.9,2.6l0.7,2.6c0.9,1.7,1.9,3.1,2.7,4.7c0,0,1.5,2.3,3.1,4.4c4.6,5.8,17.4,15.6,17.3,15.7
							c-0.1,0.1-10.2-6.7-15.4-13.3c-0.4-0.4-1.7-2.1-3.1-4.3c-1.1-1.7-2.4-3.6-3.7-5.7c-0.3-0.6-0.7-1-1-1.7
							c-0.1-0.6-0.4-1.3-0.6-2c-0.1-0.7-0.4-1.3-0.7-2C9.1,169,9,168.2,8.9,167.4z"/>
						<path class="st1" d="M48.3,206.6c-0.3,0-0.6,0-0.9-0.1c-0.3-0.1-0.6-0.1-0.9-0.3c-0.6-0.1-1-0.4-1-0.4c-3.9-2-7.9-4.4-11.7-7
							c0.6,0.4,1.1,0.9,1.7,1.1c2.3,1.4,2.6,1.6,0.6,0.3c2.3,1.4,4.4,2.9,6.7,4.1c2.3,1.3,4.7,2.3,7.3,2.4
							C49.6,206.8,49.7,206.8,48.3,206.6z"/>
						<path class="st1" d="M53,207.2c-1-0.1-2-0.1-3-0.3c0,0,0,0,0.1,0C51.1,206.9,52.1,207.1,53,207.2L53,207.2z"/>
						<path class="st1" d="M24,146.8c9.2-9.4,17.9-18.3,26.5-26.9c0.6-0.7,1.1-1.1,2-2c0.7-0.7,1.4-1.3,2-2c1.3-1.3,2.6-2.4,3.7-3.7
							c0.4-0.4,0.9-0.9,1.3-1.3l0,0c0.7-0.7,0.4-0.6,0-0.1c-0.4,0.4-1,0.9-1.3,1.3c0.3-0.3,0.9-0.9,1.3-1.3c0.6-0.6,1.3-1.3,2-2
							c1.1-1.1,2.3-2.3,3.6-3.6c-1.4,1.4-2.6,2.6-3.6,3.6c-0.7,0.7-1.4,1.4-2.1,2.1c-0.1,0.1-0.4,0.4-0.6,0.6
							c2.9-2.9,5.7-5.7,8.6-8.4c0.7-0.7,1.3-1.3,1.9-1.7c2-2,4.1-4.1,5.4-5.3c0.6-0.4,1-1,1.6-1.6c-0.1,0.1-0.1,0.1-0.3,0.3
							c0.3-0.3,0.4-0.4,0.6-0.6c2.1-2.1,4.3-4.3,6.6-6.4c1.4-1.4,2.9-2.9,4.3-4.3c0,0,1-0.9,1.6-1.4c0.6-0.6,1.4-1.4,2.4-2.4
							c-1.1,1.1-2.3,2.1-3.3,3.1c-1.6,1.4-3.1,3.3-5,4.9c1.9-1.6,3.4-3.6,5-4.9c1-1,2.1-2,3.3-3.1c2-2,4.7-4.6,7-6.6
							c-2.7,2.6-5,4.7-7,6.6c-1,1-1.9,1.9-2.4,2.4c-0.4,0.4-1.6,1.4-1.6,1.4c-1.4,1.4-2.9,2.9-4.3,4.3c4.3-4.1,8.6-8.3,13-12.6
							c2.3-2.1,4.6-4.4,6.9-6.6c2.3-2.1,4.6-4.3,7-6.2l3.6-2.9c1.3-1,2.3-2,3.7-2.7c1.3-0.9,2.7-1.6,4.1-2.1s2.9-1,4.3-1.6
							c11.7-3.7,23.6-7.2,35.8-10.6c9.6-9.6,19.7-19.7,30.2-30.2c0.1-0.1,0.4-0.4,0.6-0.6c4.1,4.1,8.3,8.4,12.3,12.4
							c-10.6,10.4-20.7,20.6-30.9,30.6c-0.1,0.6-0.3,1.1-0.4,1.7c-2.9,10-5.7,19.9-8.7,29.6c-0.7,2.4-1.6,4.9-2.3,7.2
							c-0.9,2.3-2,4.6-3.3,6.6c-0.7,1-1.4,2-2.1,3c-0.9,0.9-1.7,1.9-2.6,2.7l-5.1,5.4c-13.9,14.4-27.9,28.9-42.9,43.8
							c-11.4,11.4-32.6,32.9-44.1,43.6c-3.7,3.6-6.2,5.9-7.6,7.2c-0.7,0.6-1.1,1-1.4,1.1c0,0-0.1,0-0.1,0.1l0,0l0,0
							c-0.1,0.3,0.6,0,1.3-0.6c0.7-0.4,1.4-1,1.6-1.1c5-4,9.2-8,14.6-13.2c5.3-5.1,11.7-11.4,21.2-20.7
							c-12.7,12.6,9.2-9.6,21.2-21.3c8.7-8.6,19.2-19.2,29.9-30.3c2.7-2.9,5.4-5.7,8.2-8.4l4-4.3c1.3-1.4,2.7-2.9,4-4.6
							c1.3-1.6,2.3-3.4,3.1-5.1c0.9-1.7,1.6-3.7,2.1-5.6c1.3-3.7,2.3-7.4,3.4-11c2.1-7.2,4.4-14.9,6.9-23.6c0.1-0.6,0.3-1,0.4-1.6
							c10.6-10.6,21-21,31.5-31.3c-4.7-4.7-9.4-9.3-14-14c-10.3,10.3-20.7,20.7-31.3,31.3c-5,1.4-9.9,2.9-15,4.3
							c-5.1,1.4-10.3,3-15.4,4.6c-3.1,1-6.2,1.9-9,3c-1.4,0.6-2.9,1.3-4.1,2.1c-0.7,0.4-1.3,0.7-2,1.3c-0.6,0.4-1.1,1-1.7,1.4
							c-2.3,1.9-4.4,3.6-6.7,5.6c-2.1,1.9-4.1,3.9-6,5.7c-5.7,5.6-11.9,11.4-16.6,16c-7.3,7.2-13.6,13.4-19.5,19.3
							c6.7-6.6,11.6-11.4,19-18.9c5-4.9-3.4,3.6-6.6,6.9c-1.4,1.4-3.7,3.4-5.1,4.9c-3,3-5.9,5.9-9.2,9.2c-1.4,1.4-1.3,1.1-2,1.9
							c-4.4,4.4-7.7,8-10.7,10.9c-2.1,2.1-4.1,4.1-6,6c-1.1,1.1-2.4,2.4-3.7,3.7c-0.7,0.9-1.6,1.6-2.4,2.4c0.7-0.6,1-0.9,1.1-1
							c-1.1,1.1-2.9,2.9-4,4c1.1-1.1,2.9-2.9,4-4c-0.3,0.1-0.6,0.4-1.1,1c-5.7,6-12.4,12.9-18.6,19.5c0,0,0,0,0.1-0.1
							c3.6-3.9,7.2-7.4,11-11.3c-1.7,1.7-1.4,1.4,0.4-0.4c0.4-0.4,1-1,1.4-1.4c-3.3,3.3-6.4,6.7-9.6,9.9c0,0-1.3,1.4-2,2.1
							c-1,1-1,1-1.3,1.1c-0.7,0.7-1.4,1.4-2.1,2.3C19.2,151.6,24,146.8,24,146.8z"/>
						<path class="st1" d="M61.7,108.6c-0.6,0.6-1.1,1.1-1.7,1.7c2.4-2.4,4.9-4.7,7.2-7.2C65.9,104.5,63.9,106.5,61.7,108.6z"/>
					</g>
				</g>
			</g>
		</g>
	</g>
</g>
<g>
	<g>
		<g>
			<g>
				<g class="st0">
					<g>
						<path class="st1" d="M192.3,34.8C192.3,34.8,192.3,34.7,192.3,34.8C192.3,34.7,192.3,34.8,192.3,34.8L192.3,34.8z"/>
						<path class="st1" d="M192.2,34.5L192.2,34.5L192.2,34.5L192.2,34.5z"/>
						<path class="st1" d="M191.9,34.4C191.9,34.4,192,34.4,191.9,34.4C192,34.4,191.9,34.4,191.9,34.4z"/>
						<path class="st1" d="M192,34.5L192,34.5L192,34.5L192,34.5L192,34.5z"/>
						<path class="st1" d="M192,34.5C192,34.5,192,34.7,192,34.5C192,34.7,192,34.5,192,34.5z"/>
						<path class="st1" d="M191.6,34.8C191.6,34.8,191.8,34.8,191.6,34.8c-0.1-0.1-0.3-0.3-0.4-0.3c0,0,0-0.1-0.1-0.3
							c-0.1-0.1-0.6-0.3-0.4,0c0.3,0.3,0.4,0.3,0.7,0.6c0.1,0.1,0.4,0.3,0.6,0.4l0.1,0.1c0-0.1-0.1-0.1-0.1-0.3
							C192,35,191.9,35,191.6,34.8z"/>
						<path class="st1" d="M193.3,35.8C193.2,35.8,193.2,35.8,193.3,35.8c-0.1-0.1-0.3-0.3-0.4-0.4c0,0,0,0,0,0.1c0,0,0.1,0,0,0
							C193,35.7,193.2,35.8,193.3,35.8C193.3,36,193.3,35.8,193.3,35.8z"/>
						<path class="st1" d="M193.3,36L193.3,36C193.2,36,193.2,36,193.3,36L193.3,36L193.3,36z"/>
						<path class="st1" d="M191.3,34c-0.3-0.3-0.6-0.6-0.9-0.9h-0.1c0,0,0,0,0-0.1l-0.1-0.1l0,0l0,0l0,0c0,0,0,0,0,0.1
							c0,0,0,0,0-0.1c0,0,0,0,0-0.1c0,0-0.1,0-0.1-0.1c0,0,0.1,0,0.1,0.1c0,0,0,0,0.1,0l0,0c-0.1-0.1-0.1-0.1-0.3-0.3l0,0
							c-0.1,0-0.1-0.1-0.1-0.1l0,0l0,0l0,0c0-0.1-0.1-0.1-0.1-0.3c0,0-0.1,0-0.1-0.1c0,0,0,0,0-0.1h-0.1v0.1c0,0.1,0.1,0,0.1,0.1
							c0-0.1-0.1,0-0.1-0.1v-0.1c-0.1,0-0.1-0.1-0.1-0.3c0.1,0,0.1,0.1,0.1,0.3h0.1v0.1c0,0,0.1,0,0.1,0.1c-0.1-0.1-0.3-0.3-0.4-0.4
							c-0.9-1-1.7-1.7-2.6-2.7c-0.4-0.6-0.9-1-1.3-1.6c-0.9-1-1.9-1.9-2.6-3c-0.3-0.4-1-1.1-1.4-1.4c-0.6-0.3-0.9,0.3-0.9,0.4
							c0,0.7,0.4,0.7,0.7,1.4c-0.3-0.6,0.6,0,0.7,0.7c0.1,0.9,1.3,1.4,1.9,2.1c0.1,0.1,0.3,0.4,0.6,0.6c0.9,1.1,2,2,3.1,3.1
							c0.3,0.3,0.6,0.4,1,0.7c0.1,0.1,0.3,0.4,0.4,0.6c0.3,0.3,0.4,0.4,0.7,0.6c-0.3-0.1-0.4-0.3-0.7-0.6c-0.1-0.1,0.3,0,0.4,0
							c0,0,0,0.1,0.1,0.3c0.1,0.1,0.3,0.1,0.4,0.3v0.1c0.1,0.1,0.4,0.1,0.4,0.3c0,0.1,0.1,0.1,0.1,0.3c0,0,0,0.1,0.1,0.1
							c0,0,0,0,0.1,0v-0.1c0,0,0,0.1,0.1,0.1c0,0,0-0.1-0.1-0.1V34c0.3,0.1,0.6,0.3,0.7,0.4l0,0C191.5,34.3,191.3,34.1,191.3,34
							C191.3,34.1,191.3,34.1,191.3,34L191.3,34C191.2,33.8,191.3,34,191.3,34C191.3,34.1,191.3,34.1,191.3,34v0.3c0,0,0,0,0.1,0
							L191.3,34z"/>
						<path class="st1" d="M190.2,32.8L190.2,32.8l-0.1-0.1C190,32.7,190,32.7,190.2,32.8z"/>
					</g>
				</g>
			</g>
		</g>
	</g>
</g>
<g>
	<g>
		<g>
			<g>
				<g class="st0">
					<g>
						<path class="st1" d="M138.8,115.1c-0.1-0.1-0.3-0.3-0.4-0.4c0,0.1,0.1,0.1,0.1,0.3C138.7,114.9,138.7,114.9,138.8,115.1z"/>
						<path class="st1" d="M138,114.1L138,114.1C137.8,113.9,137.8,113.9,138,114.1C137.8,114.1,138,114.1,138,114.1z"/>
						<path class="st1" d="M137.3,113.4c0.1,0.1,0.3,0.3,0.4,0.4C137.5,113.6,137.4,113.5,137.3,113.4z"/>
						<path class="st1" d="M137.8,114.1C137.8,113.9,137.7,113.9,137.8,114.1L137.8,114.1c0-0.1-0.1-0.1-0.1-0.3
							C137.7,113.9,137.7,113.9,137.8,114.1z"/>
						<path class="st1" d="M137.8,114.1L137.8,114.1C137.8,114.2,137.8,114.1,137.8,114.1z"/>
						<path class="st1" d="M137.3,114.2c-0.1,0,0-0.1-0.1-0.3c-0.4-0.3-0.7-0.6-1.1-1c-0.1-0.1-0.3-0.4-0.4-0.6
							c-0.4-0.3-1.4-1.1-0.9-0.6c0.9,0.9,1.4,1.3,2.1,2c0.6,0.6,1.3,1.1,1.9,1.7c0.1,0.1,0.3,0.3,0.4,0.6c-0.1-0.3-0.4-0.4-0.6-0.7
							C138.3,114.9,137.8,114.6,137.3,114.2z"/>
						<path class="st1" d="M142.1,118.4c-0.1,0-0.3-0.1-0.3-0.1c-0.3-0.4-0.7-0.7-1-1.1l0.1,0.1c0.1,0.1,0.3,0.1,0.1,0
							c0.4,0.4,0.7,0.9,1.1,1.3C142.1,118.5,142.1,118.5,142.1,118.4z"/>
						<path class="st1" d="M142.4,118.8c-0.1-0.1-0.1-0.1-0.3-0.3l0,0C142.3,118.7,142.3,118.8,142.4,118.8L142.4,118.8z"/>
						<path class="st1" d="M135.4,111.8c-1-1-2-2-3-3c-0.1,0-0.1-0.1-0.3-0.1c0-0.1-0.1-0.1-0.1-0.3c-0.1-0.1-0.3-0.3-0.4-0.4
							l-0.1-0.1l0,0c-0.1,0-0.1,0,0,0l0.1,0.1l-0.1-0.1c0-0.1-0.1-0.1-0.1-0.3c-0.1-0.1-0.3-0.3-0.4-0.4c0.1,0.1,0.3,0.3,0.4,0.4
							c0.1,0.1,0.1,0.1,0.3,0.3c0,0,0,0,0.1,0c-0.3-0.3-0.6-0.6-1-1c-0.1,0-0.1-0.1-0.1-0.1c-0.3-0.3-0.4-0.4-0.6-0.6l-0.1-0.1l0,0
							c0,0,0,0,0-0.1c-0.3-0.3-0.4-0.4-0.7-0.7c-0.1-0.1-0.3-0.3-0.6-0.4l-0.1-0.1c-0.1,0-0.1-0.1-0.3-0.3c0.1,0.1,0.1,0.3,0.3,0.4
							c0.1,0.1,0.4,0.3,0.6,0.6c-0.1-0.3-0.4-0.3-0.6-0.6c-0.1-0.1-0.1-0.3-0.3-0.4c-0.3-0.1-0.6-0.6-0.7-0.9
							c0.3,0.3,0.6,0.6,0.7,0.9c0.1,0.1,0.3,0.1,0.3,0.3l0.1,0.1c0.1,0.1,0.3,0.3,0.6,0.4c-0.4-0.4-0.9-1-1.4-1.4
							c-3-3.1-5.9-6-9.2-9.3c-1.7-1.7-3.4-3.4-5-5.1c-3.1-3.4-6.3-6.3-9.4-9.9c-1.1-1.4-3.6-3.7-4.9-4.9c-1.9-1.4-1.4-0.3-1.3-0.1
							c0.7,1.4,1.7,2,3.4,4.3c-1.3-1.6,1.3,0.9,2.3,2.4c1.6,2.3,4.6,4.7,6.9,7.2c0.6,0.6,1.1,1.3,1.9,2c3.6,3.9,7.2,7,10.9,10.9
							c1,1,2,1.9,2.9,2.6c0.7,0.6,1.3,1.3,1.7,1.9c0.9,0.9,1.6,1.4,2.3,2.1c-0.7-0.7-1.3-1.3-2.1-2c-0.6-0.6,0.6,0.3,0.9,0.6
							c0.1,0.1,0.3,0.4,0.4,0.6c0.3,0.3,0.7,0.6,1.1,1c0.1,0.1,0,0.1,0.1,0.3c0.6,0.4,1,0.7,1.3,1.1c0.3,0.3,0.4,0.4,0.6,0.7
							c0.1,0.1,0.3,0.3,0.4,0.4c0.1,0.1,0.1,0.1,0.3,0.3c0-0.1,0-0.1,0-0.3c0.1,0.1,0.3,0.3,0.4,0.4c-0.1-0.1-0.3-0.3-0.4-0.4
							c0,0,0,0.1,0,0.3c0.7,0.6,1.6,1.3,2.3,2l0,0c-0.4-0.4-0.9-0.9-1.1-1.3c0.1,0.1,0.1,0.1-0.1,0l-0.1-0.1c0.4,0.3,0.7,0.7,1,1.1
							c0,0,0.1,0.1,0.3,0.1c0.1,0.1,0,0.1,0,0.1c0.1,0.1,0.1,0.1,0.3,0.3C136,112.4,135.4,111.8,135.4,111.8z"/>
						<path class="st1" d="M131.2,107.6L131.2,107.6c-0.1-0.1-0.4-0.4-0.6-0.7C130.8,107.2,131,107.4,131.2,107.6z"/>
					</g>
				</g>
			</g>
		</g>
	</g>
</g>
<g>
	<g>
		<g>
			<g>
				<g class="st0">
					<g>
						<path class="st1" d="M84.2,171.9c-0.1-0.1-0.3-0.3-0.4-0.4c0,0.1,0.1,0.1,0.1,0.3C84,171.9,84,171.9,84.2,171.9z"/>
						<path class="st1" d="M83.3,171C83.3,171,83.2,171,83.3,171c-0.1-0.1-0.1-0.1-0.1-0.1C83.2,170.9,83.2,171,83.3,171z"/>
						<path class="st1" d="M82.5,170.3c0.1,0.1,0.3,0.3,0.4,0.4C82.8,170.6,82.6,170.4,82.5,170.3z"/>
						<path class="st1" d="M83,170.9L83,170.9C83.2,170.9,83.2,170.9,83,170.9c0-0.1-0.1-0.1-0.1-0.3C82.9,170.7,83,170.9,83,170.9z
							"/>
						<path class="st1" d="M83,170.9l0.1,0.1C83.2,171,83.2,171,83,170.9z"/>
						<path class="st1" d="M82.5,171c-0.1,0,0-0.1-0.1-0.3c-0.4-0.3-0.7-0.6-1.1-1c-0.1-0.1-0.3-0.4-0.6-0.6
							c-0.4-0.3-1.4-1.1-0.9-0.6c0.9,0.9,1.4,1.4,2.3,2.1c0.7,0.6,1.3,1.1,2,1.7c0.1,0.1,0.3,0.3,0.6,0.6c-0.1-0.3-0.4-0.4-0.7-0.7
							C83.6,171.9,83,171.6,82.5,171z"/>
						<path class="st1" d="M87.5,175.3c-0.1,0-0.3-0.1-0.3-0.1c-0.3-0.4-0.7-0.7-1.1-1.1c0,0,0.1,0.1,0.1,0.3c0.3,0.1,0.3,0.1,0.1,0
							c0.4,0.4,0.7,0.9,1.1,1.3C87.6,175.6,87.6,175.4,87.5,175.3z"/>
						<path class="st1" d="M87.8,175.9c-0.1-0.1-0.1-0.1-0.3-0.3l0,0C87.6,175.7,87.8,175.7,87.8,175.9L87.8,175.9z"/>
						<path class="st1" d="M80.6,168.6c-1-1-2-2-3-3c-0.1,0-0.1-0.1-0.3-0.1c0-0.1-0.1-0.1-0.1-0.3c-0.1-0.1-0.3-0.3-0.4-0.4
							l-0.1-0.1l0,0c-0.1,0-0.1,0,0,0l0.1,0.1l-0.1-0.1c0-0.1-0.1-0.1-0.1-0.3c-0.1-0.1-0.3-0.3-0.4-0.4c0.1,0.1,0.3,0.3,0.4,0.4
							c0.1,0.1,0.1,0.1,0.3,0.3c0,0,0,0,0.1,0c-0.3-0.3-0.6-0.7-1-1c-0.1-0.1-0.1-0.1-0.1-0.1c-0.3-0.3-0.4-0.4-0.6-0.6l-0.1-0.1
							l0,0c0,0,0,0,0-0.1c-0.3-0.3-0.4-0.4-0.7-0.7c-0.1-0.1-0.4-0.3-0.6-0.4l-0.1-0.1c-0.1,0-0.1-0.1-0.3-0.3
							c0.1,0.1,0.1,0.3,0.3,0.4c0.1,0.1,0.4,0.3,0.6,0.6c-0.1-0.3-0.4-0.3-0.6-0.6c-0.1-0.1-0.1-0.3-0.3-0.4
							c-0.3-0.3-0.6-0.6-0.7-0.9c0.3,0.3,0.6,0.6,0.7,0.9c0.1,0.1,0.3,0.1,0.3,0.3l0.1,0.1c0.1,0.1,0.4,0.3,0.6,0.4
							c-0.4-0.4-1-1-1.4-1.4c-3.1-3.3-6.2-6.2-9.3-9.6c-1.7-1.9-3.4-3.6-5.1-5.3c-3.3-3.4-6.4-6.4-9.6-10.2c-1.3-1.4-3.7-3.7-5-5
							c-1.9-1.6-1.4-0.3-1.3-0.1c0.7,1.4,1.7,2,3.6,4.3c-1.3-1.6,1.3,0.9,2.4,2.4c1.6,2.3,4.7,4.9,7,7.4c0.6,0.6,1.3,1.3,2,2
							c3.6,3.9,7.3,7.3,11.3,11.3c1,1,2,1.9,3,2.7c0.7,0.6,1.3,1.4,1.9,1.9c0.9,0.9,1.6,1.4,2.3,2.1c-0.7-0.7-1.4-1.3-2.3-2.1
							c-0.6-0.6,0.6,0.3,0.9,0.6c0.1,0.1,0.3,0.4,0.6,0.6c0.3,0.3,0.7,0.6,1.1,1c0.1,0.1,0,0.3,0.1,0.3c0.6,0.4,1,0.7,1.3,1.1
							c0.3,0.3,0.4,0.4,0.7,0.7c0.1,0.1,0.3,0.3,0.4,0.4c0.1,0.1,0.1,0.1,0.3,0.3c0-0.1,0-0.1,0-0.3c0.1,0.1,0.3,0.3,0.4,0.4
							c-0.1-0.1-0.3-0.3-0.4-0.4c0,0,0,0.1,0,0.3c0.7,0.6,1.6,1.3,2.3,2l0,0c-0.4-0.4-0.9-0.9-1.1-1.3c0.1,0.1,0.1,0.1-0.1,0
							l-0.1-0.1c0.4,0.3,0.9,0.7,1.1,1.1c0,0,0.1,0.1,0.3,0.1c0.1,0.1,0,0.1,0,0.1c0.1,0.1,0.1,0.1,0.3,0.3
							C81.2,169.3,80.6,168.6,80.6,168.6z"/>
						<path class="st1" d="M76.3,164.3l0.1,0.1c-0.3-0.3-0.6-0.6-0.9-0.9C75.9,163.9,76,164.1,76.3,164.3z"/>
					</g>
				</g>
			</g>
		</g>
	</g>
</g>
<g>
	<g>
		<g>
			<g>
				<g class="st0">
					<g>
						<path class="st1" d="M171.6,55.7C171.6,55.6,171.4,55.6,171.6,55.7C171.4,55.6,171.4,55.6,171.6,55.7
							C171.4,55.7,171.6,55.7,171.6,55.7z"/>
						<path class="st1" d="M171.3,55.4L171.3,55.4L171.3,55.4L171.3,55.4z"/>
						<path class="st1" d="M171.2,55.1C171.2,55.3,171.2,55.3,171.2,55.1C171.2,55.3,171.2,55.3,171.2,55.1z"/>
						<path class="st1" d="M171.3,55.4C171.3,55.4,171.3,55.3,171.3,55.4C171.3,55.3,171.3,55.3,171.3,55.4
							C171.3,55.3,171.3,55.3,171.3,55.4C171.3,55.3,171.3,55.4,171.3,55.4z"/>
						<path class="st1" d="M171.3,55.4L171.3,55.4L171.3,55.4z"/>
						<path class="st1" d="M170.9,55.7C170.9,55.7,170.9,55.6,170.9,55.7c-0.1-0.1-0.3-0.3-0.4-0.3c0,0,0-0.1-0.1-0.3
							c-0.1-0.1-0.6-0.3-0.4,0c0.3,0.3,0.4,0.3,0.7,0.6c0.1,0.1,0.4,0.3,0.6,0.4l0.1,0.1c0-0.1-0.1-0.1-0.1-0.3
							C171.3,55.7,171,55.9,170.9,55.7z"/>
						<path class="st1" d="M172.4,56.7C172.4,56.6,172.3,56.6,172.4,56.7c-0.1-0.1-0.3-0.3-0.4-0.4c0,0,0,0,0,0.1c0,0,0.1,0,0,0
							C172.2,56.6,172.3,56.7,172.4,56.7L172.4,56.7z"/>
						<path class="st1" d="M172.4,56.9C172.4,56.9,172.4,56.7,172.4,56.9C172.4,56.7,172.4,56.7,172.4,56.9L172.4,56.9L172.4,56.9z"
							/>
						<path class="st1" d="M170.6,54.9c-0.3-0.3-0.6-0.6-0.9-0.9h-0.1c0,0,0,0,0-0.1l-0.1-0.1l0,0l0,0l0,0c0,0,0,0,0,0.1
							c0,0,0,0,0-0.1c0,0,0,0,0-0.1c0,0-0.1,0-0.1-0.1c0,0,0.1,0,0.1,0.1c0,0,0,0,0.1,0l0,0c-0.1-0.1-0.1-0.1-0.3-0.3l0,0
							c-0.1,0-0.1-0.1-0.1-0.1l0,0l0,0l0,0c0-0.1-0.1-0.1-0.1-0.3c0,0-0.1,0-0.1-0.1c0,0,0,0,0-0.1h-0.1v0.1c0,0.1,0.1,0,0.1,0.1
							c0-0.1-0.1,0-0.1-0.1v-0.1c-0.1,0-0.1-0.1-0.1-0.3c0.1,0,0.1,0.1,0.1,0.3h0.1v0.1c0,0,0.1,0,0.1,0.1c-0.1-0.1-0.3-0.3-0.4-0.4
							c-0.9-1-1.7-1.7-2.6-2.7c-0.4-0.6-0.9-1-1.3-1.6c-0.9-1-1.9-1.9-2.6-3c-0.3-0.4-1-1.1-1.4-1.4c-0.6-0.3-0.9,0.3-0.9,0.4
							c0,0.7,0.4,0.7,0.7,1.4c-0.3-0.6,0.6,0,0.7,0.7c0.1,0.9,1.3,1.4,1.9,2.1c0.1,0.1,0.3,0.4,0.6,0.6c0.9,1.1,2,2,3.1,3.1
							c0.3,0.3,0.6,0.4,1,0.7c0.1,0.1,0.3,0.4,0.4,0.6c0.3,0.3,0.4,0.4,0.7,0.6c-0.3-0.1-0.4-0.3-0.7-0.6c-0.1-0.1,0.3,0,0.4,0
							c0,0,0,0.1,0.1,0.3c0.1,0.1,0.3,0.1,0.4,0.3v0.1c0.1,0.1,0.4,0.1,0.4,0.3s0.1,0.1,0.1,0.3c0,0,0,0.1,0.1,0.1c0,0,0,0,0.1,0
							v-0.1c0,0,0,0.1,0.1,0.1c0,0,0-0.1-0.1-0.1v0.1c0.3,0.1,0.6,0.3,0.7,0.4l0,0C170.7,55.1,170.6,55,170.6,54.9
							C170.6,55,170.6,55,170.6,54.9L170.6,54.9C170.3,54.7,170.4,54.7,170.6,54.9C170.6,55,170.6,55,170.6,54.9v0.3c0,0,0,0,0.1,0
							C170.6,55,170.6,54.9,170.6,54.9z"/>
						<path class="st1" d="M169.3,53.6L169.3,53.6l-0.1-0.1C169.2,53.4,169.3,53.6,169.3,53.6z"/>
					</g>
				</g>
			</g>
		</g>
	</g>
</g>
</svg>
