<?xml version="1.0" encoding="utf-8"?>
<!-- Generator: Adobe Illustrator 24.2.0, SVG Export Plug-In . SVG Version: 6.00 Build 0)  -->
<svg version="1.1" id="Layer_1" xmlns="http://www.w3.org/2000/svg" xmlns:xlink="http://www.w3.org/1999/xlink" x="0px" y="0px"
	 viewBox="0 0 213.1 222" style="enable-background:new 0 0 213.1 222;" xml:space="preserve">
<style type="text/css">
	.st0{opacity:0.8;}
	.st1{fill:#53917E;stroke:#53917E;stroke-width:2;stroke-miterlimit:10;}
	.st2{fill:#53917E;stroke:#53917E;stroke-miterlimit:10;}
</style>
<g>
	<g>
		<g>
			<g>
				<g class="st0">
					<path class="st1" d="M199.6,8c-1.1,0.9-2.7,2.7-4.4,5.2c-1.7,2.4-3.5,5.2-5.9,7.9c-0.6,0.8-1.1,1.5-2.3,1.8
						c-0.9,0.3-2,0.3-2.9,0.2c-1.8-0.6-3.3-1.2-4.8-1.8c-3.2-1.1-6.1-1.5-8.3-1.5c-1.7,0.2-3.3,0.2-4.7,0c-1.2,0-2.6-0.2-3.5-0.2
						c-0.8,0-0.3,0,1.2,0c1.5,0.2,3.9,0.3,6.8,0.2c2.6-0.2,5.7,0.3,9.1,1.7c-2-0.9-4.2-1.5-6.2-1.8c-2-0.3-3.9,0-5.6,0
						c-2.3,0.2-4.7-0.3-7-0.2c-10.6,0.8-20.3,5-28,11.8c-2.7,2.6-9.1,7.7-12,10c2.9-2.4,5.9-4.7,8.8-7.1c1.5-1.2,2.7-2.6,4.2-3.9
						c1.5-1.2,2.9-2.4,4.7-3.3c6.5-4.1,13.8-6.7,21.4-7.4l-1.2,0.2c-7.9,0.9-15.7,3.9-22.3,8.6c-1.1,0.8-2.3,1.7-3.3,2.6
						c1.1-0.9,2.3-1.7,3.3-2.6c2.9-2,5.9-3.9,9.6-5.3c2.3-0.9,4.8-1.7,7.1-2.3c1.8-0.3,3.7-0.8,5.6-0.9c1.1-0.2,2.4-0.2,3.5-0.2
						c0.3,0,0.8,0,1.1,0l0,0c-0.8-0.2-3.3-0.2-6.5,0.2c-3.3,0.6-7.4,1.5-11.5,3.2c-4.1,1.7-7.7,3.9-10.7,6.1
						c-1.5,1.1-2.6,2.3-3.7,3.2c-0.9,0.9-1.7,1.5-2.3,2c-2.9,2.6-5.7,5-9.1,7.7c-1.1,0.9-2.3,1.7-3.2,2.4c0,0.2-0.6,0.6-0.9,0.9
						c-2.4,1.8-4.8,3.5-6.5,5c-1.2,0.9-5.2,3.2-5.3,3.5c-0.8,1.1-0.2,0.3-3.2,2.6c-0.3,0.2-1.5,1.2-2.3,1.8
						c-2.6,1.8-3.2,2.4-5.9,4.7c-4.1,3.2-5.2,3.7-8.6,6.7c-0.6,0.3-6.2,4.8-6.2,4.8c-4.7,3.3-7.4,5.6-11.1,7.9
						c-4.1,3.2-9.6,7-14.1,10.1c-4.4,3.3-6.2,4.4-10.3,7c-1.1,0.8-1.8,1.5-2.6,1.8c-0.8,0.3-2.3,1.7-3.3,2.4l0.2-0.3
						c-0.3,0.2-1.1,0.8-1.5,1.1c-0.3,0.2-0.3,0.2-0.2,0c0.2-0.2,0.3-0.3-0.3,0c-1.7,1.1-3.2,2.3-4.8,3.3c-1.5,1.1-3.2,2.4-4.7,3.5
						c0,0.2-0.2,0.2-0.3,0.3l-1.2,1.1c-0.2,0.3,0,0.3-0.2,0.6c0.2,0.2-1.7,1.8-0.9,1.8c0.2,0,2.9-2,4.2-2.7c0.3-0.2-0.3,0.3-0.6,0.8
						c1.5-1.1,1.7-1.1,1.1-0.6c0.3-0.2,0.8-0.6,0.8-0.6c0,0.2-0.3,0.3-0.3,0.3c4.1-2.7,8.6-5.7,12.4-8.6c0.8-0.6,2-1.7,2.9-2.4
						c0.3-0.3,1.5-1.1,1.8-1.2c0.6-0.6,0.3-0.6,0.6-0.9c2.9-2,9.2-6.2,8.6-6.5c2.3-1.7,2.6-2.3,5-3.9c3.2-2.4,7.1-5.3,11.1-8.2
						c2.3-1.7,4.2-3.2,6.2-4.7c0.8-0.6,1.5-1.1,2.3-1.7C94.2,63,106,54.9,120.7,42.8c3.7-2.9,7.6-6.1,11.1-9.4
						c3.5-3.3,7.4-6.1,11.6-8.2c4.2-2,8.6-3.5,13.2-4.2c2.3-0.3,4.4-0.6,6.5-0.6c2,0.2,4.2,0.3,6.5,0.2c4.1-0.3,7.7,0.8,11.1,2
						c0.9,0.3,1.7,0.8,2.6,0.9c0.9,0.2,1.8,0.3,2.7,0.2c0.9-0.2,1.8-0.9,2.4-1.5s1.1-1.1,1.5-1.8c3.5-4.8,5.9-8.3,7.4-10.1
						C198.4,9.4,199,8.6,199.6,8z"/>
				</g>
			</g>
		</g>
	</g>
</g>
<g>
	<g>
		<g>
			<g>
				<g class="st0">
					<path class="st1" d="M202.3,12.7c-2.6,1.7-7.9,5.6-13.2,10.1c-0.6,0.6-1.1,1.1-1.2,2c-0.2,0.8-0.2,1.7-0.2,2.4
						c0.2,1.7,0.3,3.5,0.3,5.2c0.2,3.3-0.3,6.2-1.1,8.5c-1.1,3.3-1.1,5.9-1.8,7.7c-0.2,0.8,0,0.3,0.3-1.1c0.3-1.5,0.6-3.9,1.5-6.7
						c0.9-2.4,1.2-5.7,1.1-9.4c0.2,2.3,0,4.7-0.6,6.7s-1.2,3.7-1.7,5.3c-0.6,2.3-0.6,4.7-1.5,6.8c-3.3,9.8-9.8,18.3-18,24.1
						c-3.2,2-9.6,7-12.4,9.2c2.9-2.4,5.9-4.8,8.8-7c1.5-1.1,3.2-2.3,4.7-3.3c1.5-1.1,2.9-2.4,4.2-3.7c5.6-5.2,9.8-11.6,12.1-18.6
						l-0.3,1.1c-2.9,7.4-7.6,14.1-13.6,19.1c-0.9,0.9-2,1.7-3.2,2.6c1.1-0.8,2.3-1.7,3.2-2.6c2.6-2.3,5-4.8,7.1-7.7
						c1.5-1.8,2.9-4.1,4.1-6.2c0.9-1.7,1.7-3.3,2.4-5c0.3-1.1,0.8-2.3,1.1-3.3c0-0.3,0.2-0.8,0.2-1.1l0,0c-0.2,0.8-0.9,2.9-2.3,5.9
						c-1.2,2.9-3.3,6.7-5.9,9.8c-2.6,3.3-5.7,6.2-8.5,8.3c-1.2,1.1-2.6,2-3.7,2.6c-1.1,0.8-1.8,1.2-2.4,1.7
						c-3.2,2.4-5.9,4.8-9.2,7.6c-1.1,0.9-2.3,1.7-2.9,2.4c0,0.2-0.6,0.6-0.9,0.9c-2.3,1.8-4.7,3.7-6.2,5.2c-1.1,1.1-5,3.5-5.2,3.7
						c-0.8,1.1-0.2,0.3-3.2,2.7c-0.3,0.3-1.2,1.2-2,1.8c-2.4,1.8-2.9,2.6-5.6,5c-3.9,3.5-4.8,4.1-8.3,7.1c-0.3,0.3-5.7,5.2-5.7,5.2
						c-4.2,3.7-6.8,6.1-10.3,8.8c-3.7,3.5-9.1,7.7-13.2,11.2c-4.1,3.5-5.9,5-9.6,7.9c-1.1,0.9-1.8,1.5-2.4,2s-2,1.8-2.9,2.7l0.2-0.3
						c-0.3,0.3-1.1,0.9-1.2,1.1c-0.3,0.3-0.3,0.2-0.2,0c0.2-0.2,0.2-0.3-0.3,0c-1.5,1.2-2.9,2.4-4.4,3.7c-1.5,1.2-2.7,2.6-4.2,3.9
						c0,0.2-0.2,0.2-0.3,0.3l-1.2,1.1c-0.2,0.3,0,0.3-0.2,0.6c0.2,0.2-1.5,2-0.8,1.8c0.2,0,2.7-2.3,3.9-3.2c0.3-0.2-0.2,0.3-0.3,0.8
						c1.5-1.2,1.7-1.2,1.1-0.8c0.3-0.3,0.8-0.6,0.8-0.6c0,0.2-0.2,0.3-0.2,0.3c3.7-3.2,7.9-6.5,11.5-9.8c0.8-0.8,2-1.8,2.7-2.6
						c0.3-0.3,1.2-1.1,1.7-1.5c0.6-0.6,0.3-0.6,0.6-0.9c2.7-2.3,8.5-7,8.2-7.1c2.3-1.8,2.4-2.4,4.7-4.2c2.9-2.6,6.7-5.9,10.3-9.1
						c2-1.7,3.9-3.5,5.9-5.2c0.8-0.6,1.5-1.2,2-1.8c14.5-12.6,25.5-21.9,39.8-33.8c3.7-2.9,7.4-6.1,11.2-8.8
						c4.1-2.6,7.6-5.9,10.7-9.6s5.6-7.6,7.4-11.8c0.9-2,1.7-4.1,2.3-6.2c0.6-2.3,0.6-4.2,1.2-6.1c0.6-1.8,1.2-3.9,1.2-5.9
						c0.2-2,0-3.9,0-5.7c-0.2-1.8-0.3-3.5-0.2-5c0.2-0.8,0.3-1.2,0.9-1.7c0.6-0.6,1.1-1.1,1.7-1.5c4.4-3.7,7.9-6.2,9.8-7.7
						L202.3,12.7z"/>
				</g>
			</g>
		</g>
	</g>
</g>
<g>
	<g>
		<g>
			<g>
				<g class="st0">
					<path class="st1" d="M71.3,141.5c0-0.8,0-1.7,0-2.6c0-1.1-0.2-2.3-0.3-3.7c-0.6-2.6-1.5-5.7-2.9-8.6c-1.5-2.9-3.5-5.6-5.7-7.7
						c-2.3-2.3-4.4-3.7-6.2-4.8c-0.8-0.3-1.2-0.8-2-1.1c-0.6-0.3-1.2-0.8-1.8-0.9c-1.1-0.3-2.3-0.9-3.2-1.1
						c-0.8-0.2-0.2-0.2,1.1,0.3c0.8,0.2,1.5,0.6,2.6,0.9c0.9,0.6,2.3,0.9,3.3,1.7c2.3,1.2,4.4,2.9,6.8,5.3c-2.7-3.2-6.2-5.6-8.8-6.8
						c-0.9-0.6-2-0.9-2.9-1.2c-1.1-0.3-2-0.8-3.2-0.9c-4.8-1.1-9.8-1.2-14.4-0.3c-4.8,0.9-9.2,3.2-13.2,6.1
						c-1.5,1.1-3.5,2.9-5.3,5.2c-0.9,1.1-1.7,2.3-2.4,3.3c-0.3,0.6-0.8,1.1-0.9,1.5c-0.2,0.6-0.6,0.9-0.8,1.2
						c1.7-3.2,3.7-6.2,6.2-8.6c2.6-2.6,5.6-4.7,8.8-6.1c6.5-3.2,14.1-3.9,21-2.4c-0.3-0.2-0.8-0.2-1.1-0.2c-7.4-1.5-15.3,0-22,3.7
						c-1.1,0.8-2.3,1.2-3.3,2.3c1.1-0.8,2.3-1.5,3.3-2.3c2.9-1.7,5.9-2.9,9.6-3.7c1.1-0.2,2.4-0.3,3.5-0.6c1.2,0,2.4-0.2,3.5-0.2
						c0.9,0,1.8,0.2,2.7,0.2c0.9,0.2,1.7,0.3,2.6,0.3c1.1,0.2,2.3,0.6,3.3,0.8c0.3,0,0.8,0.2,0.9,0.3l0,0c-0.3-0.2-1.1-0.3-2-0.8
						c-0.9-0.3-2.4-0.6-3.9-0.9c-3.2-0.3-7.1-0.6-11.2,0.3c-4.1,0.8-7.9,2.4-10.7,4.4c-2.9,1.8-4.8,3.7-5.7,4.7
						c-2.6,2.7-4.4,5.9-6.2,9.6c-0.6,1.2-0.9,2.4-1.2,3.5c0,0.3-0.2,0.8-0.2,1.1c-0.2,0.8-0.3,1.2-0.6,2c-0.2,0.8-0.2,1.2-0.3,2
						c-0.2,1.2-0.3,2.6-0.3,3.7c-0.2,1.5-0.3,5.7,0,6.1c0.6,1.1,0,0.3,0.9,3.9c0,0.3,0.8,1.7,0.9,2.6c0.3,1.5,0.9,2.3,1.2,3.2
						c0.3,0.9,1.1,1.8,1.8,3.2c1.5,2,2.4,3.3,3.3,4.2c0.9,1.1,2,2,3.7,3.3c0.2,0,0.6,0.3,1.1,0.8c0.3,0.2,0.6,0.3,0.9,0.8
						c0.3,0.2,0.8,0.3,1.1,0.8c1.5,0.9,3.2,1.7,3.2,1.7c5,2.3,8.3,2.6,12.4,3.2c2.4,0,5.2-0.2,8.2-0.8c2.7-0.6,5.6-1.5,7.9-2.7
						c2.3-1.1,3.9-2.3,5.3-3.2c0.8-0.6,1.5-0.9,2-1.7c0.8-0.6,1.5-1.2,2.3-2c0.3-0.6,0.9-0.9,1.1-1.2c0.3-0.3,0.6-0.8,0.8-1.1
						c0.2-0.3,0.6-0.9,1.1-1.5c0.3-0.6,0.8-1.2,1.1-1.8v0.3c0.2-0.3,0.8-1.1,0.9-1.5c0.1-0.3,0.2-0.2,0.2-0.2c0,0.2,0,0.6,0.3-0.2
						c0.3-0.8,0.9-1.7,1.2-2.6s0.8-1.8,1.1-2.7l0.6-2.7c0.2-0.9,0.2-1.8,0.3-2.7c0-0.2,0-0.2,0-0.6c0-0.6,0-1.1,0-1.7
						c0-0.3-0.2-0.2-0.2-0.3c-0.3,0-0.6-2.3-0.8-1.7c-0.2,0.2-0.2,3.3-0.6,4.7c0,0.3,0-0.3-0.2-0.8c-0.2,1.7-0.3,1.8-0.3,1.1
						c0,0.3-0.2,0.8-0.2,0.8c0-0.2,0-0.3,0-0.3c-0.9,4.4-2.9,8.8-5.3,12.4c-0.6,0.8-1.2,2-2,2.7c-0.3,0.3-1.1,1.2-1.5,1.5
						c-0.6,0.6-0.3,0.6-0.6,0.9c-0.6,0.6-1.2,1.2-2.3,1.8c-0.9,0.8-1.8,1.2-2.7,1.8c-0.9,0.6-1.7,1.1-2.3,1.2
						c-0.6,0.3-0.9,0.6-0.8,0.6c-1.1,0.6-1.8,0.8-2.6,1.1c-0.8,0.3-1.5,0.6-2.7,0.9c-3.5,0.9-8.2,1.2-12.6,0.6
						c-2.4-0.3-4.8-1.1-7-1.8c-0.8-0.3-1.7-0.8-2.4-1.1c-7.9-4.1-13.2-10.7-15.5-18C7.9,144.4,8,136,11.5,128
						c3.5-8.2,11.1-14.6,19.4-17c8.5-2.6,17.6-1.1,24.1,2.6c6.7,3.7,11.1,9.4,13.2,14.2c2.3,4.8,2.6,9.1,2.7,11.1L71.3,141.5z"/>
				</g>
			</g>
		</g>
	</g>
</g>
<g>
	<g>
		<g>
			<g>
				<g class="st0">
					<path class="st2" d="M189.4,25.8c0.2-0.3-0.2-0.8-0.2-0.9v-0.2c0,0,0,0,0,0.2c0,0,0,0.2,0.2,0.2c0-0.2,0-0.3,0.2-0.6
						c0,0,0,0,0-0.2c-0.2-0.2-0.3-0.3-0.3-0.6c0,0-0.2-0.2-0.2-0.3l0.6,0.8l0,0l-0.2-0.6l0,0l0,0c0,0,0.2,0,0.2,0.2v0v0.2l0,0l0,0
						l0,0c0.2-0.2,0-0.9-0.2-1.1H189l0,0l0,0c0,0,0-0.2-0.2-0.2c0,0,0.3-0.6,0.2-0.3c-0.3,0.2,0,0-0.2,0h-0.2c0-0.2,0,0-0.2,0
						c-0.2,0,0-0.2-0.2,0h-0.2c0-0.2-0.2,0-0.2-0.3c-0.2,0-0.2-0.2-0.2-0.2c-0.2,0,0-0.2,0-0.3c0,0,0,0,0-0.2h-0.2l0,0l0,0l0,0
						l0.2-0.2v-0.2h-0.2c0,0,0,0-0.2,0l0,0l-0.2,0.2c-0.2,0.2-0.3,0.3-0.6,0.6c0,0,0,0.2-0.2,0.2l-0.2,0.2c0,0,0,0.2-0.2,0.2l0,0
						l-0.2,0.2c0,0.2-0.2,0.3,0,0.3h0.2l0,0l0.2-0.2c0,0.2,0,0.3,0.2,0.2h0.2l0.2,0.2c0,0,0.2,0,0.2,0.2l0,0
						c0.3,0.3,0.3,0.8,0.9,0.8C189,24.3,189.1,25.6,189.4,25.8L189.4,25.8z"/>
				</g>
			</g>
		</g>
	</g>
</g>
<g>
	<g>
		<g>
			<g>
				<g class="st0">
					<path class="st1" d="M23.8,122.7c0.6-0.2,1.2-0.8,2.3-1.5c0.6-0.3,0.9-0.6,1.5-0.9c0.6-0.2,1.1-0.2,1.5-0.2
						c0.6,0.2,0.9,0.6,1.1,0.9c0.2,0.3,0-0.3-1.1-0.9c-0.6-0.2-1.1,0-1.7,0.2c0.8-0.2,1.7-0.2,2,0.2c0.3,0.2,0.6,0.3,0.8,0.8
						c0.8,1.5,0.9,3.2,0.6,4.7c0,0.6-0.6,1.8-0.9,2.3c1.1-2,1.2-4.7,0.2-6.7v0.2c0.6,1.1,0.6,2.4,0.6,3.5c0,0.2,0,0.3,0,0.6
						c0-0.2,0-0.3,0-0.6c0-0.6,0-1.1-0.2-1.7c0-0.3,0-0.8-0.2-1.1c0-0.3-0.2-0.6-0.2-0.8c0-0.2-0.2-0.3-0.2-0.3s0,0-0.2-0.2l0,0
						c0,0.2,0.6,1.2,0.6,2.6c0,1.2-0.2,2.4-0.3,2.7c-0.2,0.6,0,1.1-0.3,1.7c-0.2,0.2-0.2,0.3-0.3,0.6v0.2c-0.2,0.3-0.6,0.6-0.8,0.9
						c-0.2,0.2-0.9,0.2-0.9,0.2c0.2,0.3,0,0.2-0.3,0.3c0,0-0.2,0.2-0.2,0.3c-0.3,0-0.6,0.2-0.9,0.3c-0.8,0.2-0.9,0-1.5,0l-1.1-0.2
						c-0.8-0.3-1.2-0.6-1.5-1.2c-0.8-0.3-0.9-1.5-0.9-2.3c0-0.8,0.6-0.9,0.9-1.2c0.2-0.2,0.2-0.2,0.3-0.3c0.2,0,0.2-0.3,0.3-0.6v0.2
						l0.2-0.2l0,0c0,0,0,0.2,0.2,0.2c0.2-0.2,0.6-0.3,0.8-0.6c0.2-0.2,0.3-0.6,0.6-0.8v-0.3l0.2-0.2c0-0.2-0.2-0.2-0.2-0.2
						c-0.2-0.2-0.2-0.8-0.3-0.9c0,0-0.6,0.3-0.8,0.3v-0.2c-0.2,0.2-0.3,0.2-0.3,0h-0.2v-0.2c-0.8,0.3-1.5,0.8-2,1.5
						c-0.2,0.2-0.2,0.3-0.3,0.6c0,0-0.2,0.2-0.3,0.3c0,0.2,0,0.2,0.2,0.3c-0.2,0.2-0.6,0.8-0.8,1.2c-0.2,0.6-0.2,0.9,0,0.9
						c0,0.6,0.2,0.8,0.3,1.2c0.3,0.8,0.9,1.5,1.5,2c0.3,0.3,0.8,0.6,1.1,0.8c0.2,0,0.3,0.2,0.3,0.2c1.5,0.8,3.2,0.8,4.7,0
						c1.2-0.8,2.4-1.8,2.9-3.3c0.8-1.5,0.9-3.2,0.8-4.8c0-0.8-0.2-1.5-0.6-2.3s-0.8-1.5-1.5-1.8c-0.9-0.3-1.7,0-2.3,0.2
						c-0.6,0.2-1.1,0.6-1.5,0.8c-0.8,0.6-1.5,0.9-1.7,1.1L23.8,122.7z"/>
				</g>
			</g>
		</g>
	</g>
</g>
<g>
	<g>
		<g>
			<g>
				<g class="st0">
					<path class="st1" d="M18.9,148.3c0.8-0.2,2-0.6,3.3-0.3c0.8,0,1.2,0.2,2,0.6c0.6,0.2,1.1,0.8,1.2,1.1c0.3,0.3,0.8,0.8,0.9,1.1
						c0.2,0.2-0.2-0.3-0.9-1.1c-0.3-0.3-0.8-0.8-1.5-1.1c0.8,0.3,1.2,1.1,1.7,1.7c0.3,0.3,0.6,0.6,0.9,0.9c1.2,1.2,2.3,2.9,2.9,4.7
						c0.2,0.3,0.3,0.8,0.6,1.2c0.2,0.2,0.2,0.6,0.3,0.8c0,0.2,0.2,0.3,0.2,0.3c-0.2-0.3-0.6-1.1-0.8-1.7l-0.9-1.8
						c-0.6-1.2-1.2-2.4-2.3-3.3c0,0,0,0.2,0.2,0.2c0.9,1.1,1.7,2.3,2.3,3.5c0.2,0.2,0.2,0.3,0.3,0.8l-0.3-0.8
						c-0.3-0.6-0.6-1.1-0.9-1.7c-0.2-0.3-0.3-0.8-0.8-1.1c-0.2-0.2-0.3-0.6-0.6-0.8l-0.3-0.6c0,0-0.2,0-0.2-0.2l0,0
						c0.2,0.3,1.1,1.5,1.7,2.7c0.6,1.2,1.2,2.7,1.5,3.2c0.3,0.6,0.9,1.1,1.1,1.5c0,0.2,0,0.2-0.2,0.3c0,0,0,0,0,0.2
						c-0.2,0.2-0.3,0.2-0.6,0.2c-0.2,0-0.3,0.2-0.6,0.2c-0.2,0.2-1.1-0.3-1.1-0.2c-0.2,0.3,0,0.2-0.8,0.2c0,0-0.3,0.2-0.6,0.2
						c-0.6-0.2-0.8,0-1.2,0c-0.9,0-1.1-0.2-1.8-0.2c0,0-0.3,0-0.8-0.2c-0.3,0-0.6-0.2-0.6-0.2c-0.9-0.3-1.5-0.6-1.8-1.2
						c-0.3-0.2-0.8-0.6-1.1-0.9c-0.2-0.3-0.3-0.9-0.6-1.2c-0.3-0.9-0.2-1.2-0.2-2.3c0-0.2,0-0.3,0-0.6s-0.2-0.3,0-0.6h0.2v-0.2l0,0
						h0.2c0-0.2,0.2-0.3,0.3-0.6c0-0.2,0-0.3,0.2-0.6c0,0,0,0,0-0.2c0,0,0-0.2,0.2-0.2c0-0.2-0.2-0.2-0.2-0.2
						c-0.2-0.2,0-0.8-0.2-0.9c0,0-0.6,0.2-0.9,0.3c0,0,0-0.2,0-0.3c-0.3,0.3-0.3,0.3-0.3,0l-0.2,0.2v-0.2c-0.9,0.9-1.5,2.3-1.2,3.3
						c0,0.2,0.2,0.6,0.2,0.8c0,0.2,0,0.3,0,0.6c0.2,0.2,0.2,0.2,0.3,0.2c0,0.3,0,0.9,0.2,1.2c0.2,0.3,0.3,0.8,0.6,0.8
						c0.2,0.6,0.3,0.6,0.8,1.1c0.6,0.8,1.1,1.2,2,1.8c0.3,0.2,0.9,0.6,1.2,0.8c0.2,0,0.3,0.2,0.6,0.2c1.7,0.8,3.3,0.9,5,0.9
						c0.8,0,1.7-0.2,2.4-0.3c0.2,0,0.3-0.2,0.6-0.2c0.2,0,0.6-0.2,0.8-0.3c0.2-0.2,0.3-0.3,0.6-0.6c0.2-0.2,0.2-0.6,0-0.9
						c0-0.3-0.2-0.6-0.3-0.8c-0.2-0.2-0.2-0.3-0.3-0.6c-0.2-0.3-0.6-0.8-0.8-1.1c-0.3-0.8-0.9-1.5-1.2-2.3c-0.9-1.5-2-2.7-3.2-3.9
						c-0.3-0.6-1.1-1.1-1.8-1.2c-0.8-0.2-1.2-0.3-1.8-0.6c-1.1-0.2-2,0-2.6,0.2C19.2,148,19,148.1,18.9,148.3z"/>
				</g>
			</g>
		</g>
	</g>
</g>
<g>
	<g>
		<g>
			<g>
				<g class="st0">
					<path class="st1" d="M44.5,154.6c0.2-0.6,0.3-1.8,0.9-3.2c0.6-1.2,1.7-2.3,2.6-2.6c0.6-0.3,1.1-0.3,1.5-0.6
						c0.3,0-0.3,0-1.5,0.6c-0.3,0.2-0.9,0.6-1.5,1.1c0.8-0.6,1.5-0.9,2-1.1c0.3-0.2,0.8-0.3,1.1-0.3c1.8-0.3,3.7,0,5.2,1.1
						c0.6,0.3,1.2,1.5,1.5,2.3c-0.9-2.4-3.9-3.9-6.5-3.2h0.1c1.2-0.2,2.7,0,3.9,0.8c0.2,0.2,0.3,0.2,0.6,0.3
						c-0.2-0.2-0.3-0.3-0.6-0.3c-0.6-0.3-1.1-0.6-1.7-0.6c-0.3,0-0.9-0.2-1.2-0.2c-0.3,0-0.6,0-0.9,0c-0.2,0-0.3,0-0.6,0.2h-0.2l0,0
						c0.3,0,1.7-0.2,2.9,0.2c1.2,0.3,2.4,1.2,2.6,1.7c0.3,0.3,0.9,0.8,1.2,1.5c0.2,0.2,0,0.3,0.2,0.6c0,0,0,0.2,0.2,0.2
						c0.2,0.6,0,0.9,0.2,1.2c0,0.3-0.6,0.9-0.6,0.9c0.3,0.2,0.2,0,0,0.6c0,0,0,0.3,0,0.6c-0.2,0.3-0.2,0.6-0.6,1.1
						c-0.3,0.8-0.8,0.8-1.1,1.5c0,0.2-0.9,0.9-0.9,0.9c-0.9,0.3-1.5,0.8-2.3,0.8c-0.9,0.3-2-0.2-2.7-0.6c-0.7-0.3-0.9-0.9-1.2-1.5
						c-0.2-0.2-0.2-0.3-0.2-0.3c0-0.2-0.3-0.3-0.3-0.6H47c0,0,0-0.2-0.2-0.2l0,0c0,0,0.2,0,0.2-0.2c0-0.3-0.2-0.6-0.2-0.9
						c-0.2-0.2-0.2-0.6-0.3-0.8h-0.2c0,0,0-0.2-0.2-0.2c-0.2,0-0.2,0-0.3,0c-0.3,0-0.6-0.3-0.9-0.2c0,0,0,0.8-0.2,0.9
						c0,0-0.2,0-0.2-0.2c0,0.3,0,0.3-0.2,0.3c0,0.2,0,0.2,0,0.2h-0.2c0,0.9,0.2,2.3,0.9,3.2c0.2,0.2,0.3,0.3,0.6,0.6l0.2,0.3
						c0.2,0,0.2,0,0.3,0c0.3,0.8,1.7,1.7,1.8,1.2c0.6,0.2,0.8,0.2,1.2,0.3c0.8,0.2,1.8,0.2,2.7,0c0.6-0.2,0.9-0.3,1.5-0.6
						c0.2-0.2,0.3-0.2,0.6-0.3c1.7-1.1,2.6-2.4,3.2-4.1c0.6-1.7,0.6-3.3-0.2-5c-0.9-1.7-2.4-2.9-4.2-3.5c-1.7-0.6-3.5-0.2-5,0.6
						c-1.5,0.8-2.4,2-2.9,2.9c-0.6,1.1-0.8,2-0.8,2.4C44.3,154.2,44.3,154.5,44.5,154.6z"/>
				</g>
			</g>
		</g>
	</g>
</g>
<g>
	<g>
		<g>
			<g>
				<g class="st0">
					<path class="st1" d="M45.7,126.2c0.6-0.3,1.8-1.1,3.3-1.2c1.5-0.2,2.9,0,3.7,0.3c0.6,0.2,1.1,0.8,1.1,1.1l0,0c0,0.2,0,0,0,0
						c0-0.2-0.6-0.8-1.1-1.1c-0.6-0.2-1.1-0.3-1.8-0.3c0.9,0.2,1.7,0.6,2.3,0.9c0.2,0.2,0.6,0.3,0.6,0.6c0,0.2,0,0.2,0,0.3
						c0,0.9-0.9,1.7-1.2,2.4c-0.6,0.8-0.9,1.8-0.9,2.7c0,0.3,0.2,0.9,0.3,1.5c0.2,0.6,0.6,0.9,0.8,1.2c-0.9-1.1-1.7-2.7-1.1-4.2
						c0.2-0.8,0.6-1.5,1.1-2c0.3-0.6,0.9-1.1,0.9-1.7v0.2c-0.6,1.1-1.8,2.3-2.3,3.9c0,0.3,0,0.6,0,0.9c0-0.3,0-0.6,0-0.9
						c0.2-0.8,0.3-1.5,0.8-2c0.2-0.3,0.6-0.8,0.9-1.1c0.2-0.3,0.3-0.6,0.6-0.8c0-0.2,0-0.3,0-0.6l0,0l0,0l0,0l0,0
						c0,0.2,0,0.6-0.3,0.9c-0.3,0.3-0.9,0.9-1.2,1.7c-0.6,0.8-0.8,1.7-0.9,2.4c0,0.8,0.2,1.5,0.2,1.7c0.3,0.9,0.9,1.5,1.7,2
						c0.2,0.2,0.3,0.3,0.6,0.6c0,0,0.2,0,0.2,0.2c0.2,0.2,0.3,0.3,0.6,0.6c0.2,0.2,0.2,0.2,0.3,0.3c0.2,0.2-0.2,0.3-0.3,0.3
						c-0.2,0-0.2,0-0.2,0c0.3,0.3,0,0.2-0.2,0.2c0,0,0,0,0,0.2l-0.2,0.2c-0.6,0-0.6,0.2-1.2,0.2c-0.9,0.2-1.1-0.2-1.8,0
						c-0.2,0-1.2-0.2-1.2-0.2c-0.9-0.6-1.5-0.8-1.8-1.7c-0.8-0.6-1.1-1.8-1.5-2.7c-0.3-0.9-0.2-1.2,0-2.3c0-0.2,0-0.3,0-0.6
						c0-0.2,0-0.6,0-0.8h0.2c0,0,0-0.2,0-0.3l0,0c0,0,0.2,0.2,0.2,0c0.2-0.2,0.2-0.6,0.3-0.8c0-0.3,0.2-0.6,0.2-0.8c0,0,0,0,0-0.2
						c0,0,0-0.2,0.2-0.2c0-0.2-0.2-0.2-0.2-0.2c-0.2-0.2-0.2-0.8-0.3-0.9c0,0-0.6,0.3-0.8,0.6c0,0,0-0.2-0.2-0.3
						c-0.2,0.3-0.3,0.3-0.3,0.2l-0.2,0.2v-0.2c-0.8,0.9-1.2,2-1.1,3.2c0,0.2,0,0.6,0.2,0.9c0,0.2,0,0.3,0,0.6
						c0.2,0.2,0.2,0.2,0.3,0.2c0,0.8,0.2,2.4,0.6,2.3c0.2,0.6,0.3,0.6,0.8,1.1c0.3,0.8,0.9,1.5,1.7,2.3c0.3,0.3,0.9,0.8,1.2,0.9
						c0.2,0,0.3,0.2,0.6,0.2c1.1,0.6,2.4,0.8,3.5,0.8c0.6,0,1.1,0,1.7-0.2c0.6-0.2,1.5-0.6,1.7-1.2c0.2-0.3,0.2-0.8,0-1.1
						s-0.6-0.8-0.8-0.9c-0.3-0.3-0.8-0.8-1.2-1.1c-1.1-0.9-1.7-2.4-1.1-3.9c0.2-0.8,0.8-1.2,1.1-1.8c0.2-0.3,0.3-0.6,0.8-0.9
						c0.2-0.3,0.2-0.9,0-1.2c-0.2-0.6-0.8-0.9-1.2-1.1c-0.3-0.2-0.9-0.3-1.2-0.3c-0.9-0.2-1.7-0.2-2.4-0.2c-1.5,0.2-2.6,0.8-2.9,1.1
						L45.7,126.2z"/>
				</g>
			</g>
		</g>
	</g>
</g>
<g>
	<g>
		<g>
			<g>
				<g class="st0">
					<path class="st2" d="M190.2,25c0.2-0.3-0.2-0.8-0.2-0.9v-0.2c0,0,0,0,0,0.2c0,0,0,0.2,0.2,0.2c0-0.2,0-0.3,0.2-0.6
						c0,0,0,0,0-0.2c-0.2-0.2-0.3-0.3-0.3-0.6c0,0-0.2-0.2-0.2-0.3l0.6,0.8l0,0l-0.2-0.6l0,0l0,0c0,0,0.2,0,0.2,0.2v0.2v0.2l0,0l0,0
						l0,0c0.2-0.2,0-0.9-0.2-1.1h-0.3l0,0l0,0c0,0,0-0.2-0.2-0.2c0,0,0.3-0.6,0.2-0.3c-0.3,0.2,0,0-0.2,0h-0.2c0-0.2,0,0-0.2,0
						c-0.2,0,0-0.2-0.2,0h-0.2c0-0.2-0.2,0-0.2-0.3c-0.2,0-0.2-0.2-0.2-0.2c-0.2,0,0-0.2,0-0.3c0,0,0,0,0-0.2H188l0,0l0,0l0,0
						l0.2-0.2v-0.2H188c0,0,0,0-0.2,0l0,0l-0.2,0.2c-0.2,0.2-0.3,0.3-0.6,0.6c0,0,0,0.2-0.2,0.2l-0.2,0.2c0,0,0,0.2-0.2,0.2l0,0
						l-0.2,0.2c0,0.2-0.2,0.3,0,0.3h0.2l0,0l0.2-0.2c0,0.2,0,0.3,0.2,0.2h0.2l0.2,0.2c0,0,0.2,0,0.2,0.2l0,0
						c0.3,0.3,0.3,0.8,0.9,0.8C189.9,23.5,189.9,24.8,190.2,25L190.2,25z"/>
				</g>
			</g>
		</g>
	</g>
</g>
<g>
	<g>
		<g>
			<g>
				<g class="st0">
					<path class="st2" d="M191.1,24.1c0.2-0.3-0.2-0.8-0.2-0.9V23c0,0,0,0,0,0.2c0,0,0,0.2,0.2,0.2c0-0.2,0-0.3,0.2-0.6
						c0,0,0,0,0-0.2c-0.2-0.2-0.3-0.3-0.3-0.6c0,0-0.2-0.2-0.2-0.3l0.6,0.8l0,0l-0.2-0.6l0,0l0,0c0,0,0.2,0,0.2,0.2v0.2v0.2l0,0l0,0
						l0,0c0.2-0.2,0-0.9-0.2-1.1h-0.3l0,0l0,0c0,0,0-0.2-0.2-0.2c0,0,0.3-0.6,0.2-0.3c-0.3,0.2,0,0-0.2,0h-0.2c0-0.2,0,0-0.2,0
						c-0.2,0,0-0.2-0.2,0h-0.2c0-0.2-0.2,0-0.2-0.3c-0.2,0-0.2-0.2-0.2-0.2c-0.2,0,0-0.2,0-0.3c0,0,0,0,0-0.2h-0.2l0,0l0,0l0,0
						l0.2-0.2v-0.2h-0.2c0,0,0,0-0.2,0l0,0l-0.2,0.2c-0.2,0.2-0.3,0.3-0.6,0.6c0,0,0,0.2-0.2,0.2l-0.2,0.2c0,0,0,0.2-0.2,0.2l0,0
						l-0.2,0.2c0,0.2-0.2,0.3,0,0.3h0.2l0,0l0.2-0.2c0,0.2,0,0.3,0.2,0.2h0.2l0.2,0.2c0,0,0.2,0,0.2,0.2l0,0
						c0.3,0.3,0.3,0.8,0.9,0.8C190.8,22.6,190.8,23.9,191.1,24.1L191.1,24.1z"/>
				</g>
			</g>
		</g>
	</g>
</g>
<g>
	<g>
		<g>
			<g>
				<g class="st0">
					<path class="st1" d="M95.5,177.7c-0.6,0.6-1.5,1.8-2,3.3c-0.8,1.5-1.1,3.2-1.1,4.2c0,0.8,0,1.5,0,1.8s-0.2-0.6,0-1.8
						c0-0.6,0.2-1.2,0.3-2.3c-0.3,0.9-0.6,2-0.8,2.7c0,0.6,0,1.1,0.2,1.7c0.3,2.6,1.5,4.8,2.9,6.8c0.2,0.3,0.8,0.9,1.2,1.5
						c0.6,0.6,0.9,1.1,1.2,1.2c-2.7-2.4-5-5.7-5.7-9.4c0,0.2,0,0.2,0,0.3c0.2,2,1.1,3.7,2.3,5.3c0.2,0.2,0.3,0.6,0.6,0.8l-0.6-0.8
						c-0.6-0.8-0.9-1.5-1.5-2.3c-0.2-0.6-0.3-1.2-0.6-1.8c-0.2-0.3-0.2-0.9-0.2-1.2l-0.2-0.9v-0.2l0,0c0,0.3,0,2.4,0.9,4.4
						c0.9,2,2.3,3.7,2.7,4.2c0.8,0.8,1.5,1.2,2.4,1.8c0.3,0.2,0.6,0.6,0.8,0.6c0,0,0.2,0,0.3,0.2c0.6,0.6,1.1,0.9,1.7,1.1
						c0.3,0.2,0.9,1.2,1.1,1.2c0.6-0.2,0.2,0,0.9,0.3c0.2,0,0.6,0.2,0.8,0.2c0.6,0.6,0.9,0.3,1.7,0.8c1.2,0.3,1.2,0.8,2.6,0.9
						c0.2,0,1.8,0.6,1.8,0.6c1.2,0.6,2.3,0.6,3.2,1.1c1.2,0.2,2.7,0.8,4.1,1.1c1.2,0.2,1.8,0.6,2.9,0.9c0.3,0,0.6,0.2,0.8,0.2
						c0.2,0,0.8,0,0.9,0l-0.2,0.2c0.2,0,0.3,0,0.3,0c0.2,0,0,0,0,0s-0.2,0.2,0,0.2c0.6,0.2,0.9,0.2,1.5,0.2c0.3,0,0.9,0,1.5-0.2
						c0,0,0-0.2,0.2-0.2h0.3c0-0.2,0-0.2,0.2-0.3c0-0.3,0.6-0.6,0.3-0.9c0,0-0.9-0.2-1.1-0.3l0.2-0.2c-0.3,0-0.6-0.2-0.3-0.2
						c-0.2,0-0.2,0-0.2,0l0.2-0.2c-1.1-0.2-2.4-0.6-3.5-0.6c-0.2,0-0.6,0-0.9,0c-0.2,0-0.3-0.2-0.6-0.2s-0.2,0.2-0.3,0.3
						c-0.8-0.2-2.6-0.8-2.6-0.3c-0.8-0.2-0.8,0-1.5-0.2c-0.9-0.2-2-0.6-3.2-0.8c-0.6-0.2-1.1-0.3-1.8-0.6c-0.2,0-0.3-0.2-0.6-0.2
						c-4.2-1.7-7.1-3.5-10.9-6.1c-1.7-1.2-3.5-3.2-4.4-5c-0.9-2-1.5-4.1-1.2-6.1c0.3-3.9,2.4-6.2,2.7-7.1V177.7z"/>
				</g>
			</g>
		</g>
	</g>
</g>
<g>
	<g>
		<g>
			<g>
				<g class="st0">
					<path class="st1" d="M136.6,164.1c-0.9-0.6-3.3-1.2-5.7-1.7c-2.6-0.3-5.2-0.3-6.8-0.3c-1.2,0-2.3,0.2-2.9,0.2
						c-0.6,0,0.8-0.2,2.9-0.2c0.9,0,2,0,3.3,0c-1.7-0.2-3.3-0.2-4.4-0.2c-0.9,0-1.7,0.2-2.6,0.2c-3.7,0.6-7.4,1.5-10.9,2.7
						c-1.2,0.3-4.1,1.7-5.2,2.3c5-2.6,10.3-4.2,15.7-5c-0.2,0-0.3,0-0.3,0c-2.9,0.3-5.7,1.1-8.5,2c-0.6,0.2-0.9,0.3-1.5,0.6
						c0.6-0.2,0.9-0.3,1.5-0.6c1.2-0.3,2.4-0.8,3.9-1.1c0.9-0.2,1.8-0.3,2.7-0.6c0.8-0.2,1.2-0.2,2-0.2l1.2-0.2c0.2,0,0.2,0,0.3,0
						l0,0c-0.6,0-3.5,0.2-6.7,0.9c-3.2,0.8-6.1,1.8-7,2.3c-1.2,0.6-2.4,1.2-3.9,2.3c-0.6,0.2-0.9,0.3-1.2,0.8c0,0-0.2,0.2-0.3,0.3
						c-0.9,0.6-1.8,1.1-2.6,1.7c-0.3,0.3-2,0.9-2,1.1c0,0.6,0,0.2-1.1,1.1c-0.2,0.2-0.3,0.6-0.6,0.9c-0.8,0.8-0.9,1.1-1.7,2.4
						c-0.3,0.9-0.8,1.5-0.9,2c-0.1,0.6-0.3,1.1-0.2,2c0,0.2,0,0.9,0.2,1.7c0.2,0.8,0.3,1.2,0.3,1.2c0.6,2,0.9,3.2,1.2,4.8
						c0.8,1.7,2.3,4.1,4.1,5c1.7,1.1,2.4,1.5,4.1,2.4c0.3,0.2,0.8,0.3,1.1,0.6c0.2,0.2,0.9,0.3,1.5,0.6h-0.2c0.2,0,0.3,0.2,0.6,0.2
						c0.2,0,0.2,0,0,0.2c-0.2,0-0.2,0,0,0.2c0.6,0.3,1.2,0.6,1.8,0.9c0.8,0.2,1.2,0.3,2,0.6h0.6l0.6,0.2c0.2,0,0.2-0.2,0.2-0.2
						c0.2-0.3,1.1-0.2,0.9-0.6c0-0.2-1.1-0.6-1.7-0.9c-0.2,0,0.2,0,0.3-0.2c-0.8-0.2-0.8-0.3-0.3-0.3c-0.2,0-0.3-0.2-0.3-0.2h0.2
						c-1.7-0.8-3.3-1.7-5-2.3c-0.3-0.2-0.9-0.3-1.2-0.3c-0.2,0-0.6-0.3-0.8-0.3c-0.3,0-0.3,0.2-0.3,0.2c-0.6-0.3-1.5-0.9-2-1.1
						c-0.8-0.3-1.2-0.8-1.2-0.6c-0.8-0.6-1.1-0.6-1.7-1.2c-0.9-0.9-1.7-2.4-2.3-4.1c-0.3-0.9-0.6-1.8-0.8-2.7c0-0.3-0.2-0.8-0.2-0.9
						c-1.1-3.3,0.8-6.1,2.6-8.2c2-2,4.4-3.9,7.4-5.6c5.9-3.5,13.2-5.3,19.1-5.6c5.9-0.3,10.3,1.1,12,1.7L136.6,164.1z"/>
				</g>
			</g>
		</g>
	</g>
</g>
<g>
	<g>
		<g>
			<g>
				<g class="st0">
					<path class="st1" d="M107.9,192.9c-0.2-0.3-0.9-0.3-1.2-0.6c-0.2,0-0.2-0.2-0.3-0.2c0,0,0,0,0.3,0.2c0.2,0,0.2,0,0.3,0.2
						c-0.2-0.2-0.3-0.3-0.3-0.3h-0.2c-0.3-0.2-0.8-0.2-0.8-0.6c0-0.2-0.2-0.3,0-0.3c0,0.3,0.3,0.8,0.9,0.9l0,0
						c-0.2-0.2-0.3-0.2-0.6-0.3c0,0,0,0,0-0.2c0,0,0,0,0,0.2c0,0,0.2,0,0.2,0.2c0,0,0,0.2,0.2,0.2c0,0,0,0.2,0.2,0.2h0.2l0,0l0,0
						c0-0.2-0.3-0.3-0.3-0.6c0-0.2,0-0.3,0-0.3h-0.3c0,0,0,0,0-0.2c0,0,0,0-0.2,0c0-0.2,0-0.2,0-0.3c0,0,0.6-0.3,0.3-0.3
						c-0.3,0-0.2,0-0.2-0.2h-0.2c0,0,0,0-0.2-0.2c-0.2-0.2,0,0-0.2-0.2l-0.2-0.2c0.2,0,0-0.2,0.3-0.2c0-0.2,0.3,0,0.3-0.2
						c0.2-0.2,0.2,0,0.6,0.2c0,0,0,0,0.2,0c0,0,0-0.2,0.2-0.2v0.2l0,0l0,0v0.2h0.2c0,0,0-0.2,0.2-0.2v-0.2v-0.2c0-0.2,0-0.2-0.2-0.2
						c-0.2-0.3-0.2-0.6-0.3-0.8c0,0-0.2,0-0.2-0.2v-0.2c0,0-0.2,0-0.2-0.2l0,0v-0.2c-0.2,0-0.6-0.2-0.6,0v0.2c0,0,0,0-0.2,0
						c0,0.2,0,0.2,0.2,0.3c-0.2,0-0.8,0-0.3,0.3c-0.2,0,0,0.2-0.2,0.3c-0.2,0.2-0.3,0.2-0.6,0.3c-0.2,0.2-0.2,0.2-0.2,0.2v0.2
						c-0.2,0.2,0,0.3,0,0.6c0,0.2,0,0.3,0.2,0.6c0,0.3,0,0.6,0.3,0.9c0.3,0.9,1.5,1.1,2,1.5C107.1,192.7,107.6,192.9,107.9,192.9
						L107.9,192.9z"/>
				</g>
			</g>
		</g>
	</g>
</g>
<g>
	<g>
		<g>
			<g>
				<g class="st0">
					<path class="st1" d="M110.6,172.3c-1.1,0.8-3.3,2.6-4.7,5.3c-1.5,2.6-1.2,5.9-0.9,7.7c0.2,1.5,0.8,2.6,1.1,3.3
						c0.2,0.3,0,0.2-0.2-0.6c-0.2-0.6-0.6-1.7-0.9-2.7c0-0.2-0.2-0.6-0.2-0.9s0-0.6,0-0.9s0-0.8,0-1.1s0-0.8,0.2-1.1
						c-0.3,1.8,0,3.9,0.2,5.2c0.3,0.9,0.8,1.8,1.1,2.7c2,4.1,5.2,7.4,8.6,10.3c1.2,1.1,4.2,3.2,5.6,4.1c-2.9-1.7-5.6-3.7-7.9-5.9
						c-2.4-2.3-4.7-4.8-6.1-7.7c0,0.2,0.2,0.3,0.2,0.6c1.7,3.2,4.1,5.7,6.7,8.2c0.3,0.3,0.9,0.8,1.2,1.1c-0.6-0.3-0.9-0.8-1.2-1.1
						c-1.1-1.1-2.3-2-3.5-3.3c-0.8-0.9-1.5-1.7-2-2.6c-0.6-0.8-0.9-1.5-1.2-2.3l-0.8-1.5l-0.2-0.3l0,0c0,0.3,0.6,1.2,1.1,2.6
						c0.3,0.6,0.8,1.2,1.2,2c0.6,0.8,1.1,1.5,1.7,2.3c2.4,2.9,5.6,5.3,6.5,5.9c0.8,0.6,1.5,0.9,2.3,1.2c0.8,0.3,1.5,0.8,2.4,1.2
						c0.6,0.3,1.1,0.6,1.5,0.8c0,0,0.3,0,0.6,0.2c1.1,0.6,2.3,1.2,3.3,1.7c0.8,0.2,2.3,1.5,2.4,1.5c0.8-0.2,0.2,0,1.8,0.6
						c0.2,0,0.9,0.2,1.2,0.2c1.2,0.3,1.7,0.3,3.2,0.8c2.3,0.3,2.7,0.8,4.8,0.8c0.2,0,0.9,0.2,1.8,0.2c0.9,0,1.7,0,1.7,0
						c2.4,0.2,4.1,0,5.9,0.2c2.3-0.3,5.2-0.6,7.6-1.2c0.6-0.2,1.1-0.3,1.5-0.3c0.3-0.2,0.8-0.2,1.2-0.3c0.3-0.2,0.8-0.2,1.2-0.3
						c0.3-0.2,0.9-0.3,1.2-0.6c0.6-0.2,0.9-0.6,1.2-0.8c0.3-0.2,0.9-0.8,1.5-1.1v0.2c0.2-0.2,0.6-0.3,0.8-0.6c0.2-0.2,0.2,0,0.2,0
						c0,0.2,0,0.2,0.2,0c0.8-0.6,1.5-1.1,2-1.8c0.6-0.8,0.9-1.7,1.2-2.4c0,0,0-0.2,0-0.3l0.2-0.8c0-0.2-0.2-0.2-0.2-0.3
						c-0.3-0.2-0.2-1.1-0.6-1.1c-0.2,0-0.6,1.2-1.1,1.8c-0.2,0.2,0-0.2,0-0.3c-0.3,0.8-0.6,0.8-0.3,0.3c-0.2,0.2-0.2,0.3-0.2,0.3
						v-0.2c-1.1,1.7-2.7,2.9-4.2,4.1c-0.3,0.2-0.9,0.8-1.2,0.9c-0.2,0.2-0.8,0.3-0.9,0.3c-0.2,0.2-0.2,0.3-0.2,0.6
						c-0.8,0.2-1.8,0.6-2.7,0.9c-0.9,0.2-1.7,0.6-1.7,0.8c-1.1,0.3-1.2,0.6-2.6,0.8c-0.8,0.2-1.8,0.2-2.7,0.3
						c-0.9,0.2-2,0.2-3.2,0.2s-2.3,0-3.3,0c-0.3,0-0.8,0-1.2,0c-8.3-0.8-14.4-2.7-21.6-6.7c-3.7-2-7-4.7-9.8-7.6
						c-2.7-2.9-5-6.5-5.7-9.8c-0.9-3.3-0.2-6.5,1.1-8.6c1.2-2,2.6-3.3,3.3-4.1C110,172.9,110.2,172.4,110.6,172.3z"/>
				</g>
			</g>
		</g>
	</g>
</g>
<g>
	<g>
		<g>
			<g>
				<g class="st0">
					<path class="st1" d="M171.2,193.2c0.3-1.1,0.8-2.7,0.3-5c-0.3-2.3-1.2-4.7-2.7-6.8c-2.9-4.7-7.7-7.9-10.7-9.8
						c-2.3-1.5-4.1-2.4-5.6-2.9c-1.2-0.6,1.7,0.6,5.6,2.9c1.7,1.1,3.7,2.4,5.9,4.2c-2.6-2.4-5.3-4.4-7.6-5.7c-1.7-0.9-3.3-1.7-5-2.4
						c-7.6-3.2-15.5-4.8-23.6-4.4c-0.8,0-1.7,0-2.7,0.2c-1.1,0-2.3,0.3-3.3,0.6c-1.1,0.2-2.3,0.6-3.3,0.9c-0.9,0.3-1.8,0.8-2.6,0.9
						c5.6-2.6,11.6-3.2,17.6-2.7c6,0.5,11.8,1.8,17.4,4.1l-0.9-0.3c-2.9-1.1-5.9-2-9.1-2.7c-3.2-0.8-6.2-1.1-9.4-1.1
						c-1.1,0-2.3,0-3.3,0c1.1,0,2.3,0,3.3,0c2.7,0,5.6,0.3,8.5,0.9c1.8,0.3,3.9,0.9,5.7,1.5c1.5,0.6,2.7,0.9,4.1,1.5
						c0.9,0.3,1.7,0.8,2.6,1.1c0.2,0.2,0.6,0.2,0.8,0.3l0,0c-0.9-0.8-6.8-3.5-13.5-4.8c-6.7-1.5-13.6-1.1-15.7-0.6
						c-3.2,0.6-5.9,1.5-9.1,3.2c-1.1,0.6-1.8,1.1-2.6,1.7c-0.2,0.2-0.3,0.3-0.8,0.8c-0.9,0.8-1.7,1.7-2.4,2.6
						c-0.6,0.9-1.1,1.8-1.5,2.7c-0.3,0.6-0.6,1.8-0.9,2.7c-0.2,1.1-0.3,2.3-0.2,2.3c0.2,0.6,0.3,0.6,0.3,0.9c0,0.3,0,0.9,0.3,2.4
						c0,0.3,0.8,1.5,0.9,2c0.9,2.3,1.5,2.7,3.3,5c2.7,2.9,3.5,3.7,6.5,5.9c0.2,0.2,1.5,1.1,2.7,1.7c1.2,0.8,2.6,1.5,2.6,1.5
						c3.9,2,6.7,2.9,9.8,4.2c3.9,0.9,9.1,2.4,13.5,2.6c2.3,0,3.7,0.2,5.2,0.2c1.5,0,2.7,0,4.8-0.2c1.1-0.2,1.7-0.3,2.6-0.3
						c0.6-0.2,2-0.6,3.2-1.1L162,204c0.3-0.2,1.1-0.3,1.2-0.6c0.3-0.2,0.2,0,0.2,0c-0.2,0.2-0.3,0.2,0.3,0c0.8-0.3,1.5-0.8,2.3-0.9
						c0.8-0.3,1.5-0.9,2-1.2c0.6-0.6,1.2-1.1,1.8-1.7c0.6-0.8,1.1-1.2,1.5-2c0-0.2,0-0.2,0.2-0.3c0.2-0.3,0.6-0.9,0.6-1.2
						c0-0.3-0.2-0.2-0.2-0.6c-0.2-0.2,0.2-2-0.3-1.7c0,0-0.3,0.8-0.8,1.5c-0.3,0.8-0.9,1.5-1.2,1.8c-0.2,0.2,0-0.3,0.2-0.6
						c-0.8,1.2-1.1,1.1-0.8,0.6c-0.2,0.2-0.3,0.6-0.3,0.6l0.2-0.3c-2.3,2.7-6.1,4.2-9.4,5.3c-0.8,0.2-2,0.6-2.7,0.8
						c-0.3,0.2-1.2,0.2-1.7,0.2c-0.6,0.2-0.6,0.2-0.8,0.3c-0.8,0-1.5,0.2-2.4,0.2c-0.9,0-1.8,0-2.7,0c-1.8,0-3.2-0.2-3.2,0
						c-2.3-0.2-2.6-0.2-4.8-0.3c-2.9-0.6-6.7-1.5-10.3-2.7c-2-0.8-3.7-1.5-5.6-2.4c-0.8-0.3-1.2-0.8-1.8-1.1
						c-3.3-1.8-6.1-3.9-8.5-6.2c-2.4-2.4-4.4-5-5.6-7.9c-1.2-2.9-1.5-6.1-0.2-9.1c1.1-2.9,3.9-5.3,7-7c3.2-1.7,7-2.6,10.7-2.9
						c3.6-0.3,7.4-0.2,11.1,0.3c7.1,1.1,14.1,3.7,19.5,6.8c5.6,3.3,9.6,7.4,11.8,11.1c1.1,1.8,1.7,3.7,2,5.2c0.2,0.8,0.2,1.5,0.2,2
						s0,1.1,0,1.5C171.5,191.8,171.3,192.6,171.2,193.2z"/>
				</g>
			</g>
		</g>
	</g>
</g>
<g>
	<g>
		<g>
			<g>
				<g class="st0">
					<path class="st1" d="M148.9,177.7c0.2-0.6,0.9-1.5,2-2c0.9-0.6,2.3-0.6,2.7-0.6c0.6,0,0.9,0.2,1.1,0.2s-0.3,0-1.1-0.2
						c-0.3,0-0.9,0-1.2,0c0.8,0,1.2,0.2,1.7,0.2c0.3,0,0.6,0,0.9,0.2c1.5,0.2,2.7,0.8,3.9,1.7c0.3,0.3,1.1,1.1,1.2,1.7
						c-0.9-1.7-2.9-2.7-5-3.2h0.2c1.1,0.2,2,0.8,2.9,1.2c0.2,0.2,0.3,0.2,0.3,0.3c-0.2-0.2-0.3-0.2-0.3-0.3
						c-0.3-0.2-0.8-0.3-1.2-0.6c-0.3-0.2-0.6-0.3-0.9-0.3c-0.2,0-0.6-0.2-0.8-0.3l-0.6-0.2h-0.2l0,0c0.2,0.2,1.2,0.6,2.3,0.9
						c0.9,0.6,1.8,1.2,2,1.5c0.3,0.3,0.8,0.6,1.1,0.9c0,0.2,0,0.3,0.2,0.3c0,0,0,0,0.2,0.2c0,0.3,0,0.8,0,0.9s-0.8,0.3-0.6,0.3
						c0.2,0.3,0,0.2-0.2,0.3c0,0,0,0.2-0.2,0.3c-0.3,0.2-0.3,0.3-0.8,0.6c-0.6,0.3-0.8,0.2-1.2,0.6c0,0-0.2,0.2-0.6,0.2
						c-0.2,0-0.6,0.2-0.6,0.2c-0.8,0-1.2,0.2-1.8-0.2c-0.8,0.2-1.5-0.6-2-0.8c-0.6-0.3-0.8-0.8-0.9-1.2c0-0.2-0.2-0.2-0.2-0.3
						c0-0.2-0.2-0.2-0.3-0.3h0.2v-0.2l0,0c0,0,0.2,0,0.2-0.2c0-0.2,0-0.3,0-0.6c-0.2-0.2-0.2-0.3-0.2-0.6H151v-0.2
						c-0.2,0-0.2,0-0.3,0c-0.3,0-0.6-0.3-0.8-0.3c0,0-0.2,0.6-0.3,0.8c0,0-0.2,0-0.2-0.2c0,0.3-0.2,0.3-0.2,0.2v0.2h-0.2
						c-0.2,0.9,0,2,0.8,2.6c0.2,0.2,0.3,0.3,0.6,0.3c0,0,0.2,0.2,0.2,0.3c0.2,0,0.2,0,0.3-0.2c0.3,0.6,1.2,1.2,1.5,0.9
						c0.3,0.2,0.6,0.2,0.9,0.2c0.6,0.2,1.2,0.3,2,0.6c0.3,0,0.8,0,1.1,0c0.2,0,0.3,0,0.3,0c1.5-0.2,2.7-0.3,3.9-1.2
						c1.1-0.8,1.7-2.7,0.8-4.1c-0.8-1.2-2-2-3.3-2.6s-2.6-0.9-3.7-0.9c-1.2,0-2.4,0.2-3.3,0.6c-0.9,0.6-1.2,1.1-1.5,1.7
						C148.9,177.4,148.9,177.6,148.9,177.7z"/>
				</g>
			</g>
		</g>
	</g>
</g>
<g>
	<g>
		<g>
			<g>
				<g class="st0">
					<path class="st1" d="M146.9,189.6c0.6,0,1.5,0,2.6,0.2c0.9,0.2,2,0.6,2.6,0.9c0.6,0.2,0.9,0.3,1.1,0.6c0.2,0.2-0.2-0.2-1.1-0.6
						c-0.3-0.2-0.8-0.3-1.2-0.6c0.6,0.3,1.1,0.8,1.5,0.9c0.2,0.2,0.6,0.3,0.8,0.3c0.2,0.2,0.2,0.2,0.3,0.3c0.2,0.2,0.2,0.2,0.2,0.3
						c0,0.2-0.2,0.2-0.2,0.3c-0.2,0.2-0.6,0.2-0.8,0.3c-0.3,0.2-1.1,0.3-1.5,1.1c0,0.2-0.2,0.2-0.2,0.3c-0.2,0.8,0.3,1.7,0.6,1.8
						c-0.3-0.3-0.8-1.1-0.6-1.8c0.2-0.9,1.1-1.5,1.5-1.5c0.2-0.2,0.6-0.2,0.8-0.3c0.2,0,0.2-0.2,0.2-0.3c0-0.2,0-0.2-0.2-0.3
						l-0.2-0.2l0,0c0,0,0,0,0.2,0.2c0.2,0.2,0.2,0.3,0,0.6c-0.2,0.2-0.3,0.2-0.6,0.3c-0.3,0.2-0.6,0.2-1.1,0.6
						c-0.2,0.2-0.3,0.3-0.6,0.6c0.2-0.2,0.3-0.3,0.6-0.6c0.6-0.3,0.8-0.6,1.1-0.8c0.2,0,0.6-0.2,0.6-0.3c0-0.2,0-0.2,0-0.3
						c0,0,0,0,0-0.2c0,0-0.2-0.2-0.3-0.2c0,0,0,0-0.2,0l0,0c0,0,0.2,0.2,0.2,0.3v0.2c0,0.2-0.2,0.2-0.3,0.2c-0.2,0-0.6,0.2-0.6,0.2
						s-0.8,0.2-0.9,0.6c-0.3,0.3-0.6,0.8-0.6,1.1c0,0.2,0,0.3,0,0.3c0,0.3,0.2,0.8,0.3,1.1c0.2,0.3,0.6,0.6,0.6,0.6s0,0.2,0.2,0.2
						h0.2c0.2,0.2,0.2,0.3,0.3,0.6c0,0-0.2,0-0.3,0c-0.3,0-0.6-0.2-0.3-0.2c0.2,0.2,0.2,0.2,0.3,0.2c0,0-0.2-0.2-0.3-0.2
						c0,0,0.2,0.2,0,0.2c-0.2-0.2-0.2,0-0.3,0c-0.3,0-0.3-0.2-1.1-0.2l-1.1-0.2c-0.6-0.3-1.1-0.3-1.5-1.1c-0.8-0.2-0.9-1.1-1.2-1.7
						c-0.3-0.6-0.2-0.9,0-1.5c0-0.2,0-0.2,0.2-0.3v-0.3l0,0v-0.2l0,0h0.2c0.2-0.2,0.2-0.2,0.3-0.2c0-0.2,0.2-0.2,0.2-0.3v-0.2
						c0,0,0,0,0.2-0.2c0-0.2,0-0.2,0-0.3c-0.2-0.3,0.2-0.8,0-0.9c0,0-0.6,0-0.8,0c0,0,0-0.2,0-0.3c-0.3,0.2-0.3,0-0.3,0h-0.2v-0.2
						c-0.9,0.3-1.8,1.2-2,2.3c0,0.2,0,0.6,0,0.8c0,0.2,0,0.3,0,0.3c0.2,0.2,0.2,0.2,0.3,0.2c-0.2,0.6,0.2,2,0.6,1.7
						c0.2,0.3,0.3,0.3,0.8,0.8c0.3,0.6,0.9,0.9,1.5,1.5c0.3,0.2,0.8,0.3,0.9,0.6c0.2,0,0.2,0.2,0.3,0.2c0.8,0.3,1.2,0.6,2.4,0.9
						c0.9,0.2,1.8,0.2,2.6,0c0.2-0.2,0.3-0.3,0.3-0.6c0-0.2,0-0.3-0.2-0.8c-0.2-0.3-0.8-0.9-1.2-1.5c-0.6-0.6-0.8-0.9-0.8-1.2
						c0-0.2,0.2-0.6,0.3-0.8c0.2-0.2,0.2-0.2,0.3-0.2c0.2-0.2,0.3-0.2,0.6-0.3c0.3-0.2,0.8-0.3,0.9-0.6c0.2-0.2,0.2-0.2,0.2-0.3
						c0-0.2,0-0.3-0.2-0.6c-0.3-0.8-1.5-1.1-2-1.5c-0.8-0.3-1.2-0.6-1.8-0.8c-1.1-0.3-2-0.3-2.6-0.3L146.9,189.6z"/>
				</g>
			</g>
		</g>
	</g>
</g>
<g>
	<g>
		<g>
			<g>
				<g class="st0">
					<path class="st1" d="M121.8,184.1c0.9,0.2,4.4-0.3,5.9,0.2c0.6,0.2,0.9,0.3,1.2,0.6c0.2,0.2-0.2-0.3-1.2-0.6
						c-0.3-0.2-0.9-0.2-1.7-0.2c0.8,0.2,1.5,0.3,1.8,0.6c0.3,0.2,0.8,0.3,0.9,0.6c0.8,0.6,1.1,1.2,1.1,2c0,0.8-0.2,1.7-0.8,2.3
						c-0.3,0.3-1.5,1.1-2,1.1c1.1-0.3,2-1.1,2.4-2.3c0.3-1.1,0-2.3-0.9-2.9c0,0,0,0,0.2,0.2c0.9,0.8,1.1,2.3,0.6,3.2
						c0,0.2-0.2,0.3-0.3,0.6c0.2-0.2,0.2-0.3,0.3-0.6c0.2-0.3,0.2-0.9,0.2-1.5c0-0.3-0.2-0.8-0.3-0.9c-0.2-0.2-0.2-0.3-0.3-0.8
						c-0.2-0.2-0.2-0.2-0.3-0.3h-0.2l0,0c0.2,0.2,1.1,1.1,1.1,2.3s-0.8,1.8-1.1,2c-0.3,0.3-0.8,0.8-1.2,1.1c-0.2,0-0.3,0-0.6,0.2
						c0,0,0,0-0.2,0.2c-0.3,0.2-0.9,0-1.2,0.2c-0.2,0-0.9-0.6-0.9-0.3c-0.2,0.3,0,0.2-0.6,0c0,0-0.3,0.2-0.3,0
						c-0.3-0.2-0.6,0-1.1-0.2c-0.8,0-0.9-0.3-1.7-0.3l-1.1-0.3c-0.8-0.3-1.2-0.6-1.7-1.2c-0.3-0.2-0.8-0.6-0.9-0.9
						c-0.2-0.3-0.2-0.6-0.2-0.9c0.3-0.6,0.8-0.3,1.2-0.3c0.2,0,0.3,0,0.6,0c0.2,0,0.3-0.2,0.6-0.2v0.2c0,0,0.2,0,0.3,0l0,0v0.2
						c0.3,0,0.6,0,0.9,0c0.2-0.2,0.6-0.2,0.9-0.3v-0.2l0.2-0.2c0-0.2,0-0.2,0-0.3c0-0.3,0.3-0.6,0.2-0.9c0,0-0.6,0-0.9-0.2
						c0,0,0-0.2,0.2-0.2c-0.3,0-0.3,0-0.2-0.2h-0.2v-0.2c-0.8,0-1.7-0.2-2.6,0.2c-0.2,0-0.3,0.2-0.6,0.3c-0.2,0-0.3,0-0.3,0
						c-0.2,0.2,0,0.2-0.2,0.3c-0.2,0-1.1,0.2-1.5,0.8c-0.6,0.3-0.6,1.1-0.3,0.9c0,0.8,0.2,0.9,0.6,1.5c0.3,0.8,1.1,1.2,1.8,1.7
						c0.3,0.2,0.8,0.6,1.1,0.8c0.2,0,0.3,0.2,0.3,0.2c1.5,0.8,2.7,1.2,4.2,1.5c1.5,0.2,2.9,0.2,4.4-0.6c0.8-0.3,1.5-0.8,2-1.5
						c0.6-0.8,0.9-1.5,0.9-2.4c0-0.9-0.3-1.7-0.9-2.3s-1.2-0.9-2-1.1c-1.5-0.3-2.6-0.3-3.7-0.3c-0.9,0-1.7,0-2,0L121.8,184.1z"/>
				</g>
			</g>
		</g>
	</g>
</g>
<g>
	<g>
		<g>
			<g>
				<g class="st0">
					<path class="st1" d="M127.1,166.8c1.2,0.2,4.7,1.1,5.9,2.4c0.6,0.3,0.8,0.8,0.9,0.9s-0.2-0.2-0.9-0.9c-0.3-0.3-0.9-0.6-1.5-0.9
						c0.8,0.3,1.2,0.9,1.7,1.5c0.2,0.2,0.6,0.6,0.9,0.9c1.2,1.2,2.3,2.6,2.9,4.2c0.3,0.8,0.9,1.7,0.9,2c-0.2-0.6-0.3-0.8-0.6-1.2
						l-0.9-1.7c-0.6-1.1-1.5-2-2.4-2.9c0,0,0,0.2,0.2,0.2c0.9,0.9,1.7,2,2.3,3.2c0.2,0.2,0.2,0.3,0.3,0.6l-0.3-0.6
						c-0.2-0.6-0.6-0.9-0.9-1.5c-0.2-0.3-0.6-0.8-0.8-0.9c-0.2-0.2-0.3-0.6-0.6-0.8l-0.3-0.3c0,0-0.2,0-0.2-0.2l0,0
						c0,0.3,1.1,1.2,1.7,2.6c0.8,1.1,1.2,2.6,1.5,2.9c0.2,0.2,0.2,0.2,0.3,0.3c0.2,0.2,0.3,0.3,0.3,0.6c0,0.2-0.2,0-0.3,0.2
						c0,0,0,0,0,0.2c-0.3,0-0.6-0.2-0.9,0c-0.2,0-0.9-0.8-0.9-0.6c-0.3,0.3,0,0-0.8,0c0,0-0.3,0-0.6,0c-0.6-0.2-0.6-0.2-1.2-0.2
						c-0.9-0.2-0.9-0.3-1.8-0.6c-0.2,0-1.2-0.3-1.2-0.3c-0.9-0.3-1.5-0.6-1.8-1.1c-0.9-0.2-1.5-1.2-2-1.8c-0.6-0.8-0.3-1.1-0.3-1.8
						c0-0.2,0-0.3,0-0.3c0-0.2-0.2-0.3,0-0.6h0.2V170l0,0h0.2c0-0.1,0-0.1,0-0.1s0.2-0.2,0.3-0.3v-0.2c0,0,0.2,0,0.2-0.2
						s0-0.2,0-0.3c0-0.3,0.3-0.6,0.2-0.9c0,0-0.6,0-0.9-0.2c0,0,0-0.2,0.2-0.2c-0.3,0-0.6,0-0.3-0.2c-0.2,0-0.2,0-0.2,0V167
						c-0.6,0-1.2,0.3-1.8,1.1c-0.6,0.6-0.6,1.2-0.6,1.8c0,0.2,0.2,0.6,0.2,0.9c0,0.2,0,0.3,0,0.3c0.2,0.2,0.2,0,0.3,0.2
						c0,0.8,0.8,2.3,1.1,2c0.3,0.3,0.6,0.3,0.9,0.8c0.6,0.3,1.2,0.9,2,1.5c0.6,0.2,0.8,0.3,1.2,0.8c0.2,0,0.3,0.2,0.3,0.2
						c1.5,0.8,2.9,1.2,4.2,1.7c0.8,0.2,1.2,0.3,2.3,0.3c0.6,0,1.1,0,1.5,0c0.2,0,0.6,0,0.6-0.2c0.2,0,0.3-0.3,0.3-0.6
						c0-0.9-0.9-2-1.1-2.6c-0.3-0.8-0.8-1.5-1.2-2.3c-0.9-1.5-2-2.4-3.2-3.5c-2.4-1.8-4.8-2.3-5.7-2.4
						C127.6,166.8,127.4,166.8,127.1,166.8z"/>
				</g>
			</g>
		</g>
	</g>
</g>
<path class="st1" d="M139.2,205.9"/>
<g>
	<g>
		<g>
			<g>
				<g class="st0">
					<path class="st1" d="M154.5,151.8c-0.8,0.8-2,2.6-2.4,5c-0.6,2.4,0.3,4.8,0.9,6.1c0.6,1.1,1.1,1.7,1.5,2.3c0.2,0.2,0,0-0.2-0.3
						c-0.3-0.3-0.8-1.1-1.2-2c-0.2-0.3-0.3-0.8-0.6-1.2c0-0.2-0.2-0.6-0.3-0.8c0-0.3-0.2-0.6-0.2-0.9c0,1.5,0.8,2.9,1.2,3.9
						c0.6,0.6,0.9,1.2,1.5,1.8c2.4,2.6,5.6,4.4,8.8,5.9c1.1,0.6,3.9,1.5,5,1.8c-5-1.2-10-3.7-13.8-7.4c0,0.2,0.2,0.2,0.3,0.3
						c2,2,4.2,3.5,6.8,4.8c0.3,0.2,0.9,0.3,1.2,0.6c-0.3-0.2-0.9-0.3-1.2-0.6c-1.1-0.6-2.3-1.1-3.3-1.8c-0.8-0.6-1.5-1.1-2-1.7
						c-0.6-0.3-0.9-0.9-1.5-1.2l-0.9-0.9l-0.2-0.3l0,0c0,0.2,0.6,0.9,1.5,1.8c0.3,0.3,0.9,0.9,1.5,1.2c0.6,0.3,1.1,0.9,1.8,1.2
						c2.4,1.7,5.3,2.9,6.2,3.2c1.2,0.3,2.6,0.6,4.1,0.9c0.6,0.2,0.9,0.2,1.2,0.3c0,0,0.2,0,0.3,0c0.9,0.2,2,0.3,2.7,0.6
						c0.6,0,2,0.8,2.3,0.6c0.6-0.3,0.2-0.2,1.5,0c0.2,0,0.8-0.2,0.9-0.2c1.1,0,1.5,0,2.6-0.2c1.8-0.3,2.3,0,3.9-0.6
						c0.2,0,0.8-0.2,1.5-0.3c0.6-0.2,1.2-0.3,1.2-0.3c1.8-0.3,3.2-0.9,4.7-1.1c1.7-0.8,3.9-1.5,5.6-2.6c0.8-0.6,1.2-0.9,1.8-1.2
						s1.1-0.8,1.8-1.2c0.3-0.3,0.6-0.6,0.9-0.8c0.2-0.2,0.6-0.8,0.9-1.1v0.2c0.2-0.2,0.3-0.3,0.3-0.6c0.2-0.2,0.2,0,0.2,0
						c0,0.2,0,0.2,0.2,0c0.6-0.6,0.8-1.2,1.1-1.8c0.3-0.8,0.3-1.5,0.6-2.3c0,0,0-0.2-0.2-0.2v-0.6c-0.2-0.2-0.2-0.2-0.3-0.2
						c-0.3,0-0.6-0.9-0.8-0.8c-0.2,0-0.2,1.1-0.3,1.7c0,0.2,0-0.2-0.2-0.3c-0.2,0.6-0.2,0.6-0.3,0.3c0,0.2,0,0.2,0,0.2l-0.2-0.2
						c-0.3,1.5-1.5,2.7-2.4,3.9c-0.2,0.2-0.3,0.8-0.8,0.9c-0.2,0.2-0.3,0.3-0.6,0.6c-0.2,0.2,0,0.3,0,0.6c-0.6,0.3-1.2,0.9-1.8,1.2
						c-0.8,0.3-1.1,0.8-0.9,0.9c-0.8,0.6-0.9,0.8-1.8,1.1c-1.1,0.6-2.7,1.2-4.2,1.8c-0.9,0.2-1.7,0.6-2.6,0.8
						c-0.3,0-0.6,0.2-0.9,0.2c-6.5,1.2-11.5,1.1-17.7-0.2c-3.2-0.8-6.2-1.8-9.1-3.5c-2.7-1.7-5.2-3.7-6.5-6.1
						c-1.2-2.4-1.5-4.8-0.9-6.7c0.6-1.8,1.2-3.2,1.7-3.7L154.5,151.8z"/>
				</g>
			</g>
		</g>
	</g>
</g>
<g>
	<g>
		<g>
			<g>
				<g class="st0">
					<path class="st1" d="M204.7,154.1c0-0.9,0-2.3-0.8-3.9c-0.8-1.5-2-3.2-3.7-4.7c-3.3-2.7-7.6-4.2-10.3-5.2
						c-2-0.6-3.7-0.9-4.8-1.1c-1.1-0.2,1.2,0,4.8,1.1c1.5,0.3,3.3,1.1,5.3,2c-2.4-1.2-5-2.3-6.8-2.7c-1.5-0.3-2.7-0.6-4.2-0.8
						c-6.5-0.8-12.7-0.2-18.8,1.8c-1.1,0.3-2.7,1.1-4.4,1.8c-0.8,0.3-1.7,0.9-2.3,1.5c-0.8,0.6-1.2,0.9-1.7,1.2
						c3.7-3.2,8.2-5,12.7-5.9c4.7-0.9,9.4-1.2,14.1-0.8H183c-5-0.6-10-0.2-14.7,1.1c-0.8,0.2-1.7,0.3-2.4,0.8
						c0.8-0.3,1.7-0.6,2.4-0.8c2.3-0.6,4.2-0.9,6.7-1.1c1.5-0.2,3.2-0.2,4.7-0.2c1.2,0,2.4,0.2,3.5,0.3c0.8,0,1.5,0.2,2.3,0.2
						c0.2,0,0.3,0,0.8,0l0,0c-0.9-0.3-5.9-1.1-11.2-0.8s-10.7,2.3-12,2.9c-2.3,1.1-4.2,2.6-6.2,4.4c-0.8,0.6-1.2,1.2-1.7,1.8
						c-0.2,0.2-0.2,0.3-0.3,0.8c-1.1,1.5-1.8,3.5-1.8,5c0,0.6-0.2,1.5-0.2,2.4c0.2,0.9,0.2,1.7,0.3,1.8c0.3,0.3,0.3,0.3,0.6,0.6
						c0,0.2,0.2,0.8,0.9,1.8c0.2,0.3,0.9,0.9,1.2,1.5c1.2,1.5,1.8,1.8,3.7,3.2c2.7,1.7,3.5,2.3,6.2,2.9c0.2,0,1.2,0.3,2.4,0.8
						c1.1,0.3,2.3,0.6,2.3,0.6c3.5,0.8,5.7,0.8,8.3,1.1c3.2-0.2,7.4-0.2,10.7-1.1s4.7-1.1,7.6-2.3c0.8-0.3,1.2-0.8,1.8-0.9
						c0.3-0.2,1.5-0.9,2.3-1.5l-0.2,0.2c0.2-0.2,0.8-0.6,0.9-0.8c0.2-0.2,0.2-0.2,0.2,0c0,0.2-0.2,0.3,0.3,0
						c0.6-0.3,0.9-0.9,1.5-1.2c0.3-0.6,0.9-0.9,1.2-1.5s0.8-1.1,0.9-1.7c0.2-0.6,0.6-1.2,0.8-1.8c0,0,0-0.2,0-0.3
						c0-0.3,0.2-0.8,0.2-1.1c0-0.2-0.2-0.2-0.2-0.3c-0.3,0-0.6-1.5-0.8-1.1c0,0-0.2,0.6-0.2,1.2c-0.2,0.6-0.3,1.2-0.6,1.7
						c-0.2,0.2,0-0.3-0.2-0.6c-0.3,1.1-0.6,1.1-0.3,0.6c-0.2,0.2-0.2,0.3-0.2,0.3v-0.3c-1.1,2.4-3.7,4.4-5.9,5.9
						c-0.6,0.3-1.2,0.9-1.8,1.2c-0.2,0.2-0.9,0.3-1.2,0.6c-0.3,0.2-0.3,0.3-0.3,0.6c-2,0.8-6.5,1.7-6.2,2c-1.7,0.3-2,0.6-3.7,0.8
						c-2.4,0.3-5.3,0.3-8.3,0.2c-1.7,0-3.2-0.3-4.8-0.6c-0.6-0.2-1.1-0.2-1.7-0.3c-5.7-1.2-10.6-3.7-13.6-7.6
						c-1.5-1.8-2.4-4.2-2.3-6.8c0.2-2.4,1.7-4.8,3.7-6.8c4.2-4.1,10.1-5.9,15.9-6.7c5.7-0.8,11.5-0.3,16.2,0.9
						c4.8,1.2,8.8,3.5,11.5,5.9c1.2,1.1,2,2.4,2.7,3.5c0.2,0.6,0.3,1.1,0.6,1.5c0.2,0.3,0.2,0.9,0.3,1.1
						C204.7,153.2,204.7,153.8,204.7,154.1z"/>
				</g>
			</g>
		</g>
	</g>
</g>
<g>
	<g>
		<g>
			<g>
				<g class="st0">
					<path class="st1" d="M184.4,147.6c0.2-0.6,0.3-1.5,1.1-2c0.8-0.6,1.5-0.9,2-0.9c0.3,0,0.8-0.2,0.9-0.2c0.1,0-0.2,0-0.9,0.2
						c-0.3,0-0.8,0.2-1.1,0.3c0.6-0.2,1.1-0.2,1.5-0.2c0.2,0,0.6-0.2,0.8-0.2c1.1-0.2,2.3,0,3.3,0.6c0.3,0.2,1.1,0.6,1.2,0.9
						c-1.1-1.1-2.7-1.5-4.4-1.2c0,0,0,0,0.2,0c0.9,0,1.7,0,2.4,0.3c0.2,0,0.2,0,0.3,0.2c-0.2,0-0.2-0.2-0.3-0.2
						c-0.3-0.2-0.8-0.2-1.1-0.2c-0.2,0-0.6-0.2-0.8-0.2c-0.2,0-0.3,0-0.6,0h-0.3c0,0,0,0-0.2,0l0,0c0.2,0.2,1.1,0.2,1.8,0.3
						c0.9,0.2,1.5,0.6,1.7,0.8c0.3,0.2,0.8,0.2,0.9,0.3c0,0.2,0.2,0.2,0.2,0.2s0,0,0.2,0c0.2,0.2,0,0.6,0.2,0.8
						c0,0.2-0.6,0.3-0.6,0.3c0.3,0.2,0.2,0,0,0.2v0.2c-0.2,0.2-0.2,0.3-0.3,0.6c-0.3,0.3-0.6,0.2-0.8,0.8l-0.8,0.6
						c-0.6,0.2-0.9,0.3-1.5,0.2c-0.6,0.3-1.2,0-1.7-0.2c-0.6-0.2-0.8-0.3-0.9-0.8l-0.2-0.2c0,0-0.2,0-0.3-0.2h0.2v-0.2l0,0
						c0,0,0.2,0,0.2-0.2c0-0.2,0-0.3-0.2-0.3c-0.2,0-0.2-0.2-0.3-0.2H186h-0.2c-0.2,0-0.2,0-0.3,0c-0.3,0-0.6-0.2-0.9-0.2
						c0,0,0,0.3-0.2,0.8h-0.2c0,0.2,0,0.3-0.2,0.2v0.2h-0.2c0.2,0.8,0.6,1.7,1.1,2c0.2,0,0.3,0.2,0.6,0.2l0.2,0.2
						c0.2,0,0.2-0.2,0.3-0.2c0.3,0.3,1.2,0.8,1.2,0.3c0.3,0.2,0.3,0,0.8,0c0.6,0,1.1,0,1.7-0.2c0.3,0,0.6-0.2,0.9-0.2
						c0.2,0,0.2,0,0.3-0.2c1.1-0.3,2-0.9,2.7-1.8s0.8-2.6-0.3-3.3c-0.9-0.8-2-1.1-3.2-1.2c-1.1-0.2-2.3-0.2-3.2,0
						c-0.9,0.2-1.8,0.6-2.4,1.1s-0.9,1.2-0.9,1.7C184.4,147.1,184.4,147.3,184.4,147.6z"/>
				</g>
			</g>
		</g>
	</g>
</g>
<g>
	<g>
		<g>
			<g>
				<g class="st0">
					<path class="st1" d="M185.7,156.7c0.3,0,1.2-0.3,2-0.3c0.3,0,0.8,0,1.1,0c0.3,0,0.8,0,1.1,0.2c0.3,0,0.8,0.2,0.9,0.3
						c0.2,0-0.2-0.2-0.9-0.3c-0.3,0-0.8-0.2-1.1-0.2c0.6,0.2,1.1,0.3,1.2,0.3c0.1,0,0.3,0.2,0.8,0.2c0,0,0.2,0,0.2,0.2
						c0.2,0,0.3,0.3,0.2,0.6c-0.1,0.2-0.3,0.3-0.6,0.6c-0.3,0.3-0.8,0.6-0.9,1.1c0,0.2,0,0.8,0.2,0.9c0.2,0.3,0.3,0.3,0.3,0.6
						c-0.2,0-0.2-0.2-0.3-0.3c-0.2-0.2-0.2-0.3-0.3-0.6c-0.2-0.6,0-1.1,0.3-1.2c0.2-0.2,0.3-0.3,0.8-0.6c0.2-0.2,0.2-0.2,0.3-0.3
						c0-0.2,0-0.3-0.2-0.3h-0.2l0,0l0,0c0.2,0,0.2,0.2,0.2,0.3c0,0.2-0.2,0.2-0.3,0.3c-0.2,0.2-0.6,0.3-0.8,0.6
						c-0.2,0.2-0.2,0.3-0.2,0.6c0-0.2,0.2-0.3,0.2-0.6c0.2-0.2,0.3-0.3,0.6-0.6c0.2-0.2,0.3-0.2,0.3-0.3c0-0.2,0-0.2,0-0.3l0,0
						c0,0-0.2,0-0.2-0.2c0,0,0,0-0.2,0l0,0c0,0,0,0.2,0.2,0.3v0.2c0,0.2-0.2,0.2-0.2,0.2c-0.2,0.2-0.3,0.2-0.6,0.3
						c0,0-0.2,0-0.2,0.2c-0.2,0.2-0.2,0.3-0.3,0.8c-0.2,0.6,0,0.9,0,1.1c0.2,0.3,0.3,0.8,0.6,0.8s0.2,0,0.3,0.2c0,0,0,0.2,0.2,0.2
						h0.2c0.2,0.2,0.2,0.2,0.3,0.3c0,0-0.2,0-0.3,0c-0.3,0-0.6,0-0.6,0c0.3,0.2,0.3,0.2,0.3,0.2s-0.2,0-0.3,0l0.2,0.2
						c-0.3,0-0.2,0-0.2,0.2c-0.2,0.2-0.3-0.2-0.6,0.2c0,0-0.2,0-0.3,0c-0.1,0-0.3,0-0.3,0c-0.6-0.2-0.9,0-1.2-0.6
						c-0.6,0-0.9-0.6-1.2-0.9c-0.3-0.3-0.2-0.8-0.2-1.1c0-0.2,0-0.2,0-0.2s-0.2-0.2,0-0.2h0.2c0,0,0,0,0-0.2l0,0h0l0.2-0.2
						c0,0,0-0.2,0-0.3c0,0,0,0,0-0.2c0,0,0,0,0-0.2c0-0.2-0.2-0.2-0.2-0.2c-0.2-0.2-0.2-0.6-0.3-0.9c0,0-0.3,0.2-0.6,0.2v-0.2
						c-0.2,0.2-0.3,0.2-0.3,0h-0.2v-0.2c-0.8,0.3-1.2,1.5-1.1,2.3c0,0.2,0.2,0.3,0.2,0.6v0.3c0.2,0,0.2,0,0.3,0
						c0,0.6,0.6,1.5,0.9,1.2c0.2,0.3,0.3,0.2,0.8,0.3c0.3,0.3,0.9,0.6,1.5,0.8c0.3,0,0.6,0.2,0.9,0.2c0.2,0,0.2,0,0.3,0
						c1.5,0.2,3.3,0.2,4.1-0.6c0.2-0.2,0.2-0.3,0.2-0.6s-0.2-0.3-0.2-0.3c-0.2-0.2-0.6-0.6-1.1-0.9c-0.2-0.2-0.6-0.3-0.8-0.6
						c-0.2-0.2-0.2-0.2-0.3-0.3c0-0.2-0.2-0.6,0.2-0.8c0.3-0.3,0.8-0.8,0.9-1.1c0.2-0.2,0.2-0.3,0.3-0.6c0-0.2-0.2-0.3-0.2-0.6
						c-0.9-0.8-2.7-0.8-3.5-0.8c-0.9,0-1.7,0.2-2,0.3L185.7,156.7z"/>
				</g>
			</g>
		</g>
	</g>
</g>
<g>
	<g>
		<g>
			<g>
				<g class="st0">
					<path class="st1" d="M165.4,158c0.9,0,3.3-1.1,4.7-1.1c0.6,0,0.9,0,1.1,0.2c0.2,0.2-0.2-0.2-1.1-0.2c-0.3,0-0.8,0-1.2,0.2
						c0.6,0,1.2,0,1.7,0.2c0.3,0,0.6,0,0.9,0.2c1.2,0.3,1.8,1.8,1.2,2.9c-0.2,0.3-0.9,1.1-1.2,1.2c0.8-0.6,1.2-1.2,1.2-2
						c0-0.9-0.6-1.7-1.2-2c0,0,0,0,0.2,0c0.8,0.3,1.2,1.2,1.1,2.3c0,0.2,0,0.3-0.2,0.3c0-0.2,0.2-0.2,0.2-0.3c0-0.3,0-0.8-0.2-1.1
						c0-0.2-0.2-0.6-0.3-0.8c-0.1-0.2-0.2-0.3-0.3-0.3s-0.2-0.2-0.3-0.2c0,0,0,0-0.2,0l0,0c0.2,0.2,0.9,0.6,1.1,1.5
						c0.2,0.8-0.2,1.5-0.3,1.7c-0.2,0.3-0.3,0.8-0.8,1.1c-0.2,0.2-0.3,0.2-0.3,0.2v0.2c-0.3,0.2-0.8,0.2-0.9,0.3
						c-0.2,0.2-0.8-0.3-0.8-0.2c0,0.3,0,0.2-0.3,0.2c0,0-0.2,0.2-0.3,0.2c-0.3,0-0.3,0.2-0.9,0.2c-0.6,0.2-0.8-0.2-1.2,0h-0.9
						c-0.8-0.2-1.1-0.2-1.5-0.6c-0.8,0-1.1-0.6-1.1-1.1s0.6-0.3,0.9-0.3c0.2,0,0.2-0.2,0.3-0.2c0.1,0,0.2-0.2,0.3-0.3v0.2h0.2l0,0
						c0,0,0,0.2,0.2,0.2c0.2,0,0.6-0.2,0.8-0.2c0.2-0.2,0.3-0.3,0.6-0.6v-0.3l0.2-0.2c0-0.2,0-0.2,0-0.3c-0.2-0.3,0-0.8-0.2-0.9
						c0,0-0.3,0-0.8,0V158c-0.2,0.2-0.3,0-0.2-0.2H165v-0.2c-0.6,0.2-1.2,0.2-1.8,0.6c-0.2,0-0.3,0.2-0.3,0.3l-0.3,0.2
						c-0.2,0.2,0,0.2,0,0.3c-0.3,0.2-0.9,0.6-1.1,0.9c-0.2,0.3,0,0.9,0,0.8c0,0.6,0.3,0.6,0.8,0.9c0.2,0.2,0.6,0.6,0.9,0.8
						c0.3,0.2,0.6,0.3,0.9,0.3c0.3,0.2,0.8,0.2,1.1,0.3c0.2,0,0.2,0,0.3,0c1.2,0.2,2.4,0.3,3.5,0.2c1.1-0.2,2.3-0.6,3.3-1.5
						c0.6-0.3,0.9-0.9,1.2-1.7c0.3-0.6,0.3-1.2,0.2-2c-0.3-1.5-1.8-2.3-2.9-2c-1.1,0-2.3,0.3-2.9,0.6c-0.7,0.2-1.2,0.3-1.5,0.6
						L165.4,158z"/>
				</g>
			</g>
		</g>
	</g>
</g>
<g>
	<g>
		<g>
			<g>
				<g class="st0">
					<path class="st1" d="M165.7,143.8c1.1,0,3.9,0,5,0.6c0.6,0.2,0.8,0.3,0.9,0.6c0.1,0.2-0.2-0.2-0.9-0.6
						c-0.3-0.2-0.8-0.2-1.2-0.3c0.6,0.2,1.1,0.6,1.5,0.8c0.2,0.2,0.6,0.3,0.8,0.3c1.2,0.8,2.3,1.5,3.2,2.6c0.3,0.3,0.9,0.9,0.9,1.2
						c-0.3-0.6-0.9-1.1-1.7-1.8c-0.8-0.8-1.5-1.2-2.4-1.7c0,0,0,0,0.2,0.2c0.9,0.6,1.7,1.1,2.4,2c0.2,0.2,0.2,0.2,0.3,0.3l-0.3-0.3
						c-0.3-0.3-0.8-0.6-1.1-0.9c-0.2-0.2-0.6-0.3-0.8-0.6c-0.2-0.2-0.3-0.3-0.6-0.6l-0.3-0.2h-0.2l0,0c0.2,0.2,1.1,0.9,1.8,1.7
						c0.8,0.8,1.5,1.8,1.5,1.7c0.2,0.2,0.6,0.2,0.9,0.6c0,0.2-0.2,0.2-0.2,0.2s0,0,0,0.2c-0.2,0.2-0.6,0-0.8,0.2c0,0-0.2,0-0.3-0.2
						c-0.2-0.2-0.2-0.2-0.2-0.2c-0.2,0.3,0,0.2-0.6,0.2c0,0-0.2,0.2-0.3,0.2c-0.3,0-0.6,0-0.9,0c-0.8,0.2-0.8-0.2-1.5,0h-1.1
						c-0.8-0.2-1.2,0-1.7-0.6c-0.8,0-1.5-0.6-2-0.9c-0.6-0.3-0.6-0.8-0.6-1.2c0-0.2-0.2-0.2,0-0.3c0,0-0.2-0.2-0.2-0.3h0.2v-0.2l0,0
						h0.2h0.2v-0.5v-0.2c0,0,0-0.2,0.2-0.2c0-0.2,0-0.2,0-0.3c-0.2-0.3,0-0.8,0-0.9c0,0-0.6,0-0.8,0c0,0,0-0.2,0-0.3
						c-0.3,0.2-0.3,0.2-0.3,0l0,0v-0.2c-0.3,0.2-1.1,0.8-1.2,1.2c-0.2,0.8-0.2,1.2,0,1.8c0,0.2,0.2,0.6,0.3,0.6l0.2,0.3
						c0.2,0,0.2,0,0.3,0c0.2,0.6,1.1,1.7,1.2,1.2c0.3,0.2,0.6,0.2,0.9,0.3c0.6,0.2,1.2,0.6,1.8,0.6c0.3,0,0.8,0.2,1.1,0.2
						c0.2,0,0.2,0,0.3,0c1.2,0.2,2.6,0.3,3.7,0.3c0.3,0,0.6,0,0.9,0s0.8,0,1.1-0.2c0.3,0,0.8-0.2,1.1-0.3c0.2-0.2,0.6-0.3,0.6-0.8
						c-0.2-0.8-0.9-1.2-1.5-1.8s-0.9-0.9-1.5-1.2c-1.1-0.9-2-1.5-3.2-2c-2.3-0.9-4.1-0.8-4.8-0.8L165.7,143.8z"/>
				</g>
			</g>
		</g>
	</g>
</g>
</svg>
